<svg viewBox="0 0 330 200" xmlns="http://www.w3.org/2000/svg"><g><g><g><g><g><line x1="60" y1="178" x2="55" y2="178" style="visibility: inherit;" fill="rgb(0, 0, 0)" stroke="rgb(204, 204, 204)" stroke-width="1px"></line><line x1="60" y1="163.16666666666666" x2="55" y2="163.16666666666666" style="visibility: inherit;" fill="rgb(0, 0, 0)" stroke="rgb(204, 204, 204)" stroke-width="1px"></line><line x1="60" y1="148.33333333333331" x2="55" y2="148.33333333333331" style="visibility: inherit;" fill="rgb(0, 0, 0)" stroke="rgb(204, 204, 204)" stroke-width="1px"></line><line x1="60" y1="133.5" x2="55" y2="133.5" style="visibility: inherit;" fill="rgb(0, 0, 0)" stroke="rgb(204, 204, 204)" stroke-width="1px"></line><line x1="60" y1="118.66666666666666" x2="55" y2="118.66666666666666" style="visibility: inherit;" fill="rgb(0, 0, 0)" stroke="rgb(204, 204, 204)" stroke-width="1px"></line><line x1="60" y1="103.83333333333333" x2="55" y2="103.83333333333333" style="visibility: inherit;" fill="rgb(0, 0, 0)" stroke="rgb(204, 204, 204)" stroke-width="1px"></line><line x1="60" y1="88.99999999999999" x2="55" y2="88.99999999999999" style="visibility: inherit;" fill="rgb(0, 0, 0)" stroke="rgb(204, 204, 204)" stroke-width="1px"></line><line x1="60" y1="74.16666666666669" x2="55" y2="74.16666666666669" style="visibility: inherit;" fill="rgb(0, 0, 0)" stroke="rgb(204, 204, 204)" stroke-width="1px"></line><line x1="60" y1="59.333333333333314" x2="55" y2="59.333333333333314" style="visibility: inherit;" fill="rgb(0, 0, 0)" stroke="rgb(204, 204, 204)" stroke-width="1px"></line><line x1="60" y1="44.5" x2="55" y2="44.5" style="visibility: inherit;" fill="rgb(0, 0, 0)" stroke="rgb(204, 204, 204)" stroke-width="1px"></line><line x1="60" y1="29.666666666666686" x2="55" y2="29.666666666666686" style="visibility: inherit;" fill="rgb(0, 0, 0)" stroke="rgb(204, 204, 204)" stroke-width="1px"></line><line x1="60" y1="14.833333333333314" x2="55" y2="14.833333333333314" style="visibility: inherit;" fill="rgb(0, 0, 0)" stroke="rgb(204, 204, 204)" stroke-width="1px"></line><line x1="60" y1="0" x2="55" y2="0" style="visibility: inherit;" fill="rgb(0, 0, 0)" stroke="rgb(204, 204, 204)" stroke-width="1px"></line></g><g transform="translate(50, 0)"><text x="0" y="178" dx="0em" dy="0.3em" style="text-anchor: end; visibility: hidden; font-family: &quot;Helvetica Neue&quot;, sans-serif; font-size: 12px; font-weight: 200;" fill="rgb(50, 49, 63)" stroke="none" stroke-width="1px">-5e-3</text><text x="0" y="163.16666666666666" dx="0em" dy="0.3em" style="text-anchor: end; visibility: inherit; font-family: &quot;Helvetica Neue&quot;, sans-serif; font-size: 12px; font-weight: 200;" fill="rgb(50, 49, 63)" stroke="none" stroke-width="1px">0</text><text x="0" y="148.33333333333331" dx="0em" dy="0.3em" style="text-anchor: end; visibility: hidden; font-family: &quot;Helvetica Neue&quot;, sans-serif; font-size: 12px; font-weight: 200;" fill="rgb(50, 49, 63)" stroke="none" stroke-width="1px">5e-3</text><text x="0" y="133.5" dx="0em" dy="0.3em" style="text-anchor: end; visibility: inherit; font-family: &quot;Helvetica Neue&quot;, sans-serif; font-size: 12px; font-weight: 200;" fill="rgb(50, 49, 63)" stroke="none" stroke-width="1px">0.01</text><text x="0" y="118.66666666666666" dx="0em" dy="0.3em" style="text-anchor: end; visibility: hidden; font-family: &quot;Helvetica Neue&quot;, sans-serif; font-size: 12px; font-weight: 200;" fill="rgb(50, 49, 63)" stroke="none" stroke-width="1px">0.015</text><text x="0" y="103.83333333333333" dx="0em" dy="0.3em" style="text-anchor: end; visibility: inherit; font-family: &quot;Helvetica Neue&quot;, sans-serif; font-size: 12px; font-weight: 200;" fill="rgb(50, 49, 63)" stroke="none" stroke-width="1px">0.02</text><text x="0" y="88.99999999999999" dx="0em" dy="0.3em" style="text-anchor: end; visibility: hidden; font-family: &quot;Helvetica Neue&quot;, sans-serif; font-size: 12px; font-weight: 200;" fill="rgb(50, 49, 63)" stroke="none" stroke-width="1px">0.025</text><text x="0" y="74.16666666666669" dx="0em" dy="0.3em" style="text-anchor: end; visibility: inherit; font-family: &quot;Helvetica Neue&quot;, sans-serif; font-size: 12px; font-weight: 200;" fill="rgb(50, 49, 63)" stroke="none" stroke-width="1px">0.03</text><text x="0" y="59.333333333333314" dx="0em" dy="0.3em" style="text-anchor: end; visibility: hidden; font-family: &quot;Helvetica Neue&quot;, sans-serif; font-size: 12px; font-weight: 200;" fill="rgb(50, 49, 63)" stroke="none" stroke-width="1px">0.035</text><text x="0" y="44.5" dx="0em" dy="0.3em" style="text-anchor: end; visibility: inherit; font-family: &quot;Helvetica Neue&quot;, sans-serif; font-size: 12px; font-weight: 200;" fill="rgb(50, 49, 63)" stroke="none" stroke-width="1px">0.04</text><text x="0" y="29.666666666666686" dx="0em" dy="0.3em" style="text-anchor: end; visibility: hidden; font-family: &quot;Helvetica Neue&quot;, sans-serif; font-size: 12px; font-weight: 200;" fill="rgb(50, 49, 63)" stroke="none" stroke-width="1px">0.045</text><text x="0" y="14.833333333333314" dx="0em" dy="0.3em" style="text-anchor: end; visibility: inherit; font-family: &quot;Helvetica Neue&quot;, sans-serif; font-size: 12px; font-weight: 200;" fill="rgb(50, 49, 63)" stroke="none" stroke-width="1px">0.05</text><text x="0" y="0" dx="0em" dy="0.3em" style="text-anchor: end; visibility: hidden; font-family: &quot;Helvetica Neue&quot;, sans-serif; font-size: 12px; font-weight: 200;" fill="rgb(50, 49, 63)" stroke="none" stroke-width="1px">0.055</text></g><line x1="60" y1="0" x2="60" y2="178" fill="rgb(0, 0, 0)" stroke="rgb(204, 204, 204)" stroke-width="1px"></line></g></g><g transform="translate(60, 0)" clip-path="url(#clip_0)"><clipPath id="clip_0"><rect width="270" height="178"></rect></clipPath><g><g><g><line x1="0" y1="0" x2="0" y2="178" fill="rgb(0, 0, 0)" stroke="rgb(60, 60, 60)" stroke-width="1px" opacity="0.25"></line><line x1="30" y1="0" x2="30" y2="178" fill="rgb(0, 0, 0)" stroke="rgb(60, 60, 60)" stroke-width="1px" opacity="0.25"></line><line x1="60" y1="0" x2="60" y2="178" fill="rgb(0, 0, 0)" stroke="rgb(60, 60, 60)" stroke-width="1px" opacity="0.25"></line><line x1="90" y1="0" x2="90" y2="178" fill="rgb(0, 0, 0)" stroke="rgb(60, 60, 60)" stroke-width="1px" opacity="0.25"></line><line x1="120" y1="0" x2="120" y2="178" fill="rgb(0, 0, 0)" stroke="rgb(60, 60, 60)" stroke-width="1px" opacity="0.25"></line><line x1="150" y1="0" x2="150" y2="178" fill="rgb(0, 0, 0)" stroke="rgb(60, 60, 60)" stroke-width="1px" opacity="0.25"></line><line x1="180" y1="0" x2="180" y2="178" fill="rgb(0, 0, 0)" stroke="rgb(60, 60, 60)" stroke-width="1px" opacity="0.25"></line><line x1="210" y1="0" x2="210" y2="178" fill="rgb(0, 0, 0)" stroke="rgb(60, 60, 60)" stroke-width="1px" opacity="0.25"></line><line x1="240" y1="0" x2="240" y2="178" fill="rgb(0, 0, 0)" stroke="rgb(60, 60, 60)" stroke-width="1px" opacity="0.25"></line><line x1="270" y1="0" x2="270" y2="178" fill="rgb(0, 0, 0)" stroke="rgb(60, 60, 60)" stroke-width="1px" opacity="0.25"></line></g><g><line x1="0" y1="178" x2="270" y2="178" fill="rgb(0, 0, 0)" stroke="rgb(60, 60, 60)" stroke-width="1px" opacity="0.25"></line><line x1="0" y1="163.16666666666666" x2="270" y2="163.16666666666666" fill="rgb(0, 0, 0)" stroke="rgb(60, 60, 60)" stroke-width="1px" opacity="0.25"></line><line x1="0" y1="148.33333333333331" x2="270" y2="148.33333333333331" fill="rgb(0, 0, 0)" stroke="rgb(60, 60, 60)" stroke-width="1px" opacity="0.25"></line><line x1="0" y1="133.5" x2="270" y2="133.5" fill="rgb(0, 0, 0)" stroke="rgb(60, 60, 60)" stroke-width="1px" opacity="0.25"></line><line x1="0" y1="118.66666666666666" x2="270" y2="118.66666666666666" fill="rgb(0, 0, 0)" stroke="rgb(60, 60, 60)" stroke-width="1px" opacity="0.25"></line><line x1="0" y1="103.83333333333333" x2="270" y2="103.83333333333333" fill="rgb(0, 0, 0)" stroke="rgb(60, 60, 60)" stroke-width="1px" opacity="0.25"></line><line x1="0" y1="88.99999999999999" x2="270" y2="88.99999999999999" fill="rgb(0, 0, 0)" stroke="rgb(60, 60, 60)" stroke-width="1px" opacity="0.25"></line><line x1="0" y1="74.16666666666669" x2="270" y2="74.16666666666669" fill="rgb(0, 0, 0)" stroke="rgb(60, 60, 60)" stroke-width="1px" opacity="0.25"></line><line x1="0" y1="59.333333333333314" x2="270" y2="59.333333333333314" fill="rgb(0, 0, 0)" stroke="rgb(60, 60, 60)" stroke-width="1px" opacity="0.25"></line><line x1="0" y1="44.5" x2="270" y2="44.5" fill="rgb(0, 0, 0)" stroke="rgb(60, 60, 60)" stroke-width="1px" opacity="0.25"></line><line x1="0" y1="29.666666666666686" x2="270" y2="29.666666666666686" fill="rgb(0, 0, 0)" stroke="rgb(60, 60, 60)" stroke-width="1px" opacity="0.25"></line><line x1="0" y1="14.833333333333314" x2="270" y2="14.833333333333314" fill="rgb(0, 0, 0)" stroke="rgb(60, 60, 60)" stroke-width="1px" opacity="0.25"></line><line x1="0" y1="0" x2="270" y2="0" fill="rgb(0, 0, 0)" stroke="rgb(60, 60, 60)" stroke-width="1px" opacity="0.25"></line></g></g></g><g><g><line x1="0" y1="163.16666666666666" x2="270" y2="163.16666666666666" fill="rgb(0, 0, 0)" stroke="rgb(153, 153, 153)" stroke-width="1.5px"></line></g></g><g><g><line x1="30" y1="0" x2="30" y2="178" fill="rgb(0, 0, 0)" stroke="rgb(153, 153, 153)" stroke-width="1.5px"></line></g></g><g><g><g><g><g><path stroke="rgb(238, 51, 119)" stroke-width="2px" d="M30.258,118.20668231944242L30.276,119.72777440505368L30.432,126.70470006725726L30.57,125.40992864174234L30.953999999999997,125.84048451152634L31.008,130.3314562151325L31.380000000000003,117.87159368025593L31.41,118.65785204632967L31.536,116.82029968113645L31.644,117.62189630912327L31.854,120.84121719844856L31.866,128.18525516953656L31.914,117.92440868044866L32.532000000000004,120.32728147103995L32.766,114.15368553753832L32.85,117.481288979152L33.222,115.93488515361878L33.384,112.95275081842037L33.48,113.61463578880826L33.522,117.6591306769636L33.81,111.5359078105714L33.888,106.28767646597129L33.972,114.88586836961485L34.032,109.3927876185118L34.29,114.11059507555191L34.338,118.65260143529537L34.632,108.14663082769923L34.716,100.24075343021582L34.818,105.58097062682192L34.854,108.9748884381893L35.022,115.58178059973794L35.675999999999995,111.27494348076294L35.832,105.83188995813214L36.036,111.8797850180464L36.089999999999996,112.41247846111844L36.402,113.6876557347186L36.629999999999995,116.00718854326041L37.086000000000006,112.72056283338081L37.572,116.97541291379218L37.901999999999994,107.98965258494331L37.92,90.8395543186677L38.004,95.10275049860526L38.028,102.72950370303889L38.315999999999995,109.49607756313522L38.358000000000004,111.63657079170879L38.622,109.00483670495247L38.80200000000001,116.66626718357124L39.144000000000005,113.4747602227923L39.318,110.41405254735933L39.414,113.40458296292776L39.510000000000005,115.07641475073001L39.846000000000004,115.28097961017093L40.151999999999994,115.51172492769797L40.26,116.70720707299287L40.314,104.29433041084597L40.397999999999996,114.1903790429981L40.410000000000004,111.85226019504672L40.428,106.95789117528203L40.692,110.02901382213116L41.07,107.13762876327944L41.124,105.12169497136716L41.202000000000005,102.24235289712526L41.22,107.23885499455443L41.268,100.92182598617836L41.508,106.04297047101325L41.61,111.42083192613866L41.688,116.57881270273386L42.01199999999999,104.73370105593942L42.222,111.33222163843925L42.468,104.59359510095047L42.582,106.64375759900064L43.128,102.33594131714285L43.2,103.49891510405611L43.272,111.86124768475084L43.392,111.34654438046371L43.428000000000004,109.5069396805674L43.548,111.07243525880217L43.577999999999996,105.79344121922111L43.848,105.626150543229L43.919999999999995,104.10631551235366L44.13,104.76164986645955L44.339999999999996,115.38946190359505L44.346,114.59603410912479L44.622,107.97457196246752L44.724000000000004,110.85900692962078L44.736,109.93970957824574L44.766,108.71612862370009L44.916000000000004,99.13497219630716L44.922000000000004,106.91151681998824L44.994,107.80528962645711L45.024,104.0718924419434L45.198,110.36240560626392L45.288000000000004,111.81061600174667L45.324,109.79502748410367L46.116,104.52411856536254L46.446,111.79942281706805L46.53,113.74791115587422L46.739999999999995,110.46502296801594L47.382,103.64449332426463L47.808,100.32799755541672L48.072,102.47771971576687L48.234,111.32464833966205L48.251999999999995,97.26189977988128L48.6,102.8506453705411L48.972,106.49911380698606L49.181999999999995,111.0245075961563L49.385999999999996,111.5644374933089L49.47,102.41560356006008L49.482,104.2321724804639L49.488,108.63161743531225L49.836,91.98875243703364L50.45399999999999,92.05379301802252L50.699999999999996,100.71003442454709L50.886,113.63617715690881L51.605999999999995,89.81728626670181L51.714,97.95966543508266L51.726000000000006,103.26212661962785L52.025999999999996,102.56762117545237L52.362,108.55935248295637L52.452,112.09302897427548L52.763999999999996,93.23012024630732L52.89,95.89861236103226L52.931999999999995,95.5512287391736L53.190000000000005,106.8138278111225L53.574,109.04623896864675L53.742,111.34771427308569L53.91,95.97359532334426L54.222,107.2909376853427L54.593999999999994,105.25874806677184L54.660000000000004,88.97777243151221L55.181999999999995,102.26758081095994L55.218,102.63614899666142L55.368,108.37362284064703L55.397999999999996,101.1372154527919L55.584,107.22224936580724L55.83,109.55404249259259L55.908,108.56329077354441L55.92,108.26077918657211L56.406,99.64925495365678L56.958,111.12506948343682L57.06,105.98253481957025L57.186,100.89810374129894L57.773999999999994,102.38111755748224L57.99,100.04347999890498L58.014,109.52815268834372L58.062000000000005,109.90471402962979L58.50599999999999,116.94040115266034L58.734,115.27561484163598L58.818000000000005,117.6106299336179L59.046,101.34674263399536L59.117999999999995,101.72250543396352L59.37,89.20081822220754L59.778000000000006,85.21479199983389L59.832,89.1256140610882L59.85,81.18916799540553L60.306,88.79844298825753L60.318,99.00042175001339L60.641999999999996,100.46900378563576L60.809999999999995,101.63177013555595L61.440000000000005,105.56403970930747L61.980000000000004,105.41027719910451L62.076,99.04292394672039L62.16,79.91571546973469L62.525999999999996,90.97339370054674L63.096000000000004,96.67186480443743L63.108,101.03430757991897L63.300000000000004,105.54335107335419L63.528,106.50531341007935L63.989999999999995,112.41859581717486L64.08,104.798811058794L64.344,92.04536973062933L64.854,102.09717274059368L64.956,102.14862037737969L64.974,100.54074771221401L65.178,97.28563452468681L65.19,81.99265453500101L65.232,98.03120131008843L65.44800000000001,98.3460050551614L65.574,99.88844103181445L65.718,103.71529169157776L65.946,97.46860526561989L66.066,104.41187520498138L66.732,106.8116130880479L66.792,87.5368446430351L67.092,96.98180856489282L67.206,99.08066818389551L67.284,102.79805671532256L67.32,104.62850874109785L67.398,101.68080018537728L67.74,97.48148757250105L67.878,95.76800733668007L67.908,110.54450508301416L68.052,109.83070520498337L68.262,103.54072334692073L68.406,95.97565232545215L68.982,102.67807808202535L69.12599999999999,90.00560219161522L69.45,95.867063772471L69.62400000000001,91.78268869987777L69.948,103.38298261174221L70.182,86.94242162409884L70.2,99.53246146501485L70.27199999999999,96.13629085743977L70.458,89.64898978243093L71.082,100.06602728096573L71.13,89.05177931379448L71.22,98.256961433157L71.802,99.0765801869093L71.958,102.04178860395187L72.09,100.2718907012901L72.642,103.38578434345568L72.69,95.23441526316581L72.936,107.2291648299415L73.302,103.2759228924282L73.488,105.11899256922274L73.872,101.6839250334798L73.98,97.16354689036602L74.03999999999999,103.8392610059571L74.046,95.5752951425867L74.16,91.34084592004841L74.298,90.25573057230403L74.412,106.48961696593399L74.70599999999999,110.17751871871326L74.766,103.2492582264637L74.78399999999999,97.50361810577293L74.874,97.0295613912836L75.07199999999999,97.18838537268222L75.66,100.97849332007718L75.87,102.04322950030546L76.128,103.26258148793451L76.164,98.10475752569863L76.566,106.49010111120394L76.73400000000001,94.17983082275411L76.79400000000001,84.02402291284332L77.004,96.4651631736212L77.40599999999999,93.45873716566773L77.598,89.30952196456516L77.952,95.68244730636488L78.162,102.63327308726315L78.22800000000001,103.26540264182093L78.3,97.56938037005186L78.402,97.74386080693054L79.086,64.03008819059868L79.296,82.74520419860418L79.332,82.61100221703265L79.746,76.69317846260395L80.01,87.37575395211347L80.184,80.11131236177592L80.214,78.76413631527386L80.268,92.89852560197815L80.80799999999999,96.72387460275691L80.826,96.01683846276681L80.994,90.2189676052796L81.054,100.35144301499793L81.40199999999999,106.29358332155493L81.61200000000001,88.37522803216515L81.81,89.01038116502498L81.816,88.11810540075196L82.176,82.99182304904896L82.92,73.56204281813321L82.938,90.92642693098948L83.274,88.35829285036152L83.42999999999999,90.94754269520689L83.448,99.4803762457778L83.574,98.69180570034224L83.616,91.21940839683229L83.964,93.5472517386882L84,87.3213371023857L84.336,101.93350724817607L84.384,97.59424098706758L85.36200000000001,102.2350395297071L85.404,89.58367572923741L85.56599999999999,82.32414580961164L85.902,87.6763607952201L86.09400000000001,96.45440384221887L86.47800000000001,89.81936642467107L86.496,100.52241733646045L86.616,93.31979094734054L86.658,94.87301400717203L86.81400000000001,71.38011356161478L87.234,67.86363078541137L87.28800000000001,79.24985376253358L87.33,73.6877588013992L87.408,83.67517812769354L87.54,93.11679669110273L87.768,92.80185481464186L87.948,93.03411542745557L88.086,100.38723037291419L88.194,103.1539280976806L88.614,104.6570425228657L89.064,91.13502500837569L89.304,90.52490245803406L89.44800000000001,95.77990588050766L89.838,90.9968496362435L90.30600000000001,80.49913608680436L90.336,90.7174956933668L90.354,85.65436136666976L90.50999999999999,83.41515788115677L91.014,67.96038299670862L91.11600000000001,78.84604037650843L91.542,74.55779088029632L91.662,75.84874540463832L91.70400000000001,71.7822989310652L92.38199999999999,78.43685895545603L92.39999999999999,71.22954183357288L92.526,77.36755624229642L92.88,74.88028726802244L92.94,87.56907286376146L92.964,99.10745451104795L93.138,82.20180921356739L93.336,82.02188621650481L93.648,94.39498601035413L93.75,100.90914587647174L93.834,100.46335185903492L93.93,102.65600401694846L94.032,99.35399257455377L94.272,100.3857798996135L94.54799999999999,92.39759010712561L94.554,93.3590499158313L94.68599999999999,87.73322059494694L94.72800000000001,82.15537836067853L94.896,93.72779027983735L94.956,92.96199523603991L95.05199999999999,93.18267395772965L95.10600000000001,85.70626829734813L95.19,87.75624024638086L95.41799999999999,93.96304156390248L95.43599999999999,101.75078766845631L95.64,97.89980410358494L95.664,69.34476124175862L95.80199999999999,94.41536767205983L95.83800000000001,86.06569764086161L95.85,92.87814169851363L96.08999999999999,93.45029342960285L96.126,102.55528723613806L96.20400000000001,95.36857251144006L96.234,96.95436269965391L96.61800000000001,94.98944620560258L96.732,82.05167064575613L96.786,78.06985166870855L97.056,95.04729306480607L97.194,96.18758572104105L97.206,88.75700688446572L97.212,91.80231693718834L97.566,82.87448140217464L98.52,89.32524705224672L98.838,91.19933013734595L98.958,97.61112224804313L99.144,92.05418306190549L99.19800000000001,100.10682428319762L99.3,77.48516407783632L99.402,89.37445917497398L99.588,91.73506060151385L99.894,100.59167568349093L100.032,91.11404849276245L100.116,98.68289077454925L100.56,88.6171602315669L101.244,75.0344191077139L101.82000000000001,89.35543315838916L101.85000000000001,89.44661915592806L102.06599999999999,83.49154555317743L102.252,86.16682016657585L102.834,78.93483738524435L102.99,88.3006192353277L103.014,97.49515104370946L103.11,100.00781787068698L103.36200000000001,106.65459342253627L103.746,91.48449227343964L103.764,100.03601686112471L103.86,83.9944533385928L104.43599999999999,86.15370197507124L104.75399999999999,91.10249233509056L105.324,87.39108425186059L106.032,90.92663170022162L106.19999999999999,94.3452810481087L106.554,76.13988249837938L106.65,96.22694624101949L106.836,86.73303376837903L107.268,83.9964480338666L107.382,93.32638872616184L107.64,96.74309331259207L107.76,89.53994195791513L108.10799999999999,86.97970219803823L108.21000000000001,69.76698685925392L108.372,45.9812095572201L108.498,64.96445560592998L108.57,86.53749226833814L108.66,81.41897138826224L108.68400000000001,92.31040405878294L108.786,94.69522772440857L109.00200000000001,97.24243799779632L109.242,86.26273936404314L109.44,87.09000719040047L110.10000000000001,87.00790144383673L110.418,97.07303003322984L110.442,88.53434914838037L110.562,89.79585225330099L110.856,98.90565321225445L111.03,77.2616541788122L111.282,89.53641053557955L111.588,90.50461790967212L111.726,86.48008981300681L112.08,79.97338876109637L112.098,89.2570743872973L112.488,88.38286313471207L112.662,84.89744376264815L112.866,73.81668014177801L113.07600000000001,83.90923887530614L113.21400000000001,86.7813585044529L113.31,75.8959056413804L113.628,56.58023438658853L113.74799999999999,64.17537432037408L113.826,76.51348099210904L113.862,90.78833500484247L113.994,89.06574236229903L114.486,88.08763939291575L115.33200000000001,82.5387933915867L115.72800000000001,95.69955348634772L115.734,82.26688360438368L115.77,85.75486983365067L115.824,68.42016077640157L115.926,64.85206188798944L115.998,82.00944693601528L116.034,78.60414555754821L116.38799999999999,76.88091972802702L116.688,80.23254446818282L116.97,78.40742098742267L117.18599999999999,79.4110509195071L117.33,67.24489602598118L117.348,85.195073015104L117.798,73.96400649810246L117.834,82.96870278999968L118.01400000000001,86.53958793455665L118.068,96.59346909115435L118.092,76.3732909084945L118.128,85.44236868954059L118.67999999999999,89.70707141890666L118.686,54.62408494764384L118.73400000000001,83.56412262842582L118.758,75.03573711067646L118.86,76.70016760170543L119.244,80.51737028574976L119.358,79.1034750112535L119.562,91.0229742405272L119.706,96.86312206496622L120.168,96.62872060700188L120.546,87.90457570528558L120.822,88.48895142962762L121.086,92.57869431223563L121.2,89.23238699077005L121.602,88.71988981639717L121.95,89.33741220851887L122.08800000000001,77.43178664155862L122.574,81.25151762667521L122.742,82.90439142407268L122.844,76.95892635334052L122.856,65.05836821336952L123.048,84.55284587140643L123.23400000000001,87.21224880753263L123.588,81.74173978483003L124.446,86.78082719351974L124.59,96.22430827580342L124.644,94.3074874971805L124.68,80.42720413434499L124.956,79.73010241628883L124.97399999999999,78.64612699306487L125.088,92.15104672017287L125.202,84.78881799162463L125.88,100.26493739676889L125.96400000000001,75.75115181045696L126.576,75.9484069567401L126.702,66.23446436212376L127.134,82.08305172616606L127.194,87.27811243531849L127.5,102.82448100506363L127.93199999999999,92.73162246131538L128.064,99.21199436042166L128.166,95.57241969229165L128.44199999999998,97.1524582685883L128.646,99.12570624478084L129.036,79.75033553412526L129.35999999999999,77.94419086166607L129.516,73.53438373282904L129.546,86.19005767256162L129.972,85.65481415391025L130.188,100.92914723157904L130.482,93.2666598883272L130.85399999999998,68.66490175235275L130.86,89.69602084769011L131.064,89.64284504001618L131.148,80.98080954172326L131.4,68.15852998581771L132.40200000000002,78.26034081434109L132.588,84.23038598777809L132.792,86.42784189832987L133.158,85.35241165321182L133.218,80.88967956428175L133.44,69.49948605229237L133.488,63.05480887921563L133.638,88.66757173908513L133.746,92.2611570480377L133.758,97.57017660033347L133.89600000000002,71.752921199368L133.902,70.42566810173453L133.908,88.20738715975548L133.926,87.98730749755725L134.04,90.76919625151008L134.25,97.89023644108711L134.436,97.58808074595188L134.56199999999998,94.67652192146242L134.67,81.6679045416143L134.73,74.00107466011153L135.26399999999998,83.0568293137507L135.348,76.29451138042037L135.46800000000002,72.97627815410544L135.522,73.87277589660903L135.56400000000002,80.47846911816605L135.57,88.02862713026526L135.744,84.77510529870798L135.804,64.6631200675766L135.924,79.81378827649755L136.33800000000002,79.92723376615209L136.63199999999998,65.37656381552762L136.638,69.67472340991237L136.82999999999998,82.78529816301719L137.058,73.60119822395666L137.72400000000002,81.32345782726138L137.778,92.47635437750469L137.874,88.34234269342284L137.892,60.2454501405615L137.946,67.41845706314875L138.11399999999998,82.36334803784304L138.324,87.55347332987948L138.39600000000002,76.70784017993516L138.63000000000002,52.43110763054493L138.78,75.5420045426345L138.882,88.05492075913573L139.29,78.27406378540765L139.42200000000003,82.95874135376363L139.59,91.06212768030701L139.914,72.80011612801766L140.178,72.10365679215995L140.71200000000002,77.47407931278788L140.718,86.7226548336571L141.288,84.30917285651466L141.55800000000002,82.73334524291954L142.284,86.32536383373817L142.326,94.56897625487359L143.076,83.76119430427279L143.364,75.95218918349156L143.604,74.1563355083299L143.75400000000002,82.33476950744915L143.868,85.87113842872829L143.898,56.40542567872227L144.036,58.60757540008713L144.16799999999998,75.45998839076873L144.294,60.70105552588508L144.702,78.03502179797334L145.01999999999998,81.90380210624473L145.368,83.88907406110103L145.63199999999998,87.60392025859566L145.656,67.19217261374558L145.80599999999998,75.37838049412L146.916,59.79681826603503L147.006,66.87737850039044L147.024,75.73400728380217L147.15599999999998,81.7162430076819L147.19199999999998,83.44064792301342L147.48000000000002,88.01175948999754L147.57,89.36008866587255L147.81,83.9737548011898L147.846,73.63572436286444L147.93,72.25729439889763L147.996,89.13658764555204L148.05,93.37530874746699L148.32600000000002,79.09095531518325L148.392,74.6786438100142L148.428,82.75320643276383L148.782,81.8377110514657L148.94400000000002,76.95293585225409L149.082,55.003065514621994L149.502,69.43094321163808L149.63400000000001,68.13393109668222L149.832,80.12307385952842L149.934,87.14945804119733L149.976,76.72902467167629L150.216,68.81123681690792L150.294,84.84134612809221L150.324,81.06240900836627L150.35999999999999,76.41701896878973L150.378,66.9013184145804L150.834,70.39272408428651L150.84,81.80639862216657L150.852,73.3605736104534L151.104,90.4639656253809L151.122,96.37588265570618L151.308,91.74464168263522L151.47000000000003,83.79246530180394L151.488,80.09163020350623L151.518,76.65756654957171L151.854,77.16972598967646L151.944,77.73582434867896L151.998,58.35562700416676L152.01,86.790504978641L152.304,85.1050533151802L152.388,82.29059927249656L152.646,82.73729696307464L152.916,84.36211458517663L153.162,91.03605840920825L153.24,81.26279828327665L153.24599999999998,80.11901943982747L153.36599999999999,83.41208059132539L153.37800000000001,84.61456525391517L153.408,84.42507712420297L153.47400000000002,82.2447065735915L154.14,72.18745301465427L154.266,73.42017277846827L154.67399999999998,80.79823540953832L154.68,77.07808073186095L154.698,84.46962994316503L154.704,73.73641280523653L154.93800000000002,75.14978226449773L154.99200000000002,47.11854215930575L155.136,70.53867613015841L155.334,73.85530695115833L155.48399999999998,86.99390874125683L155.7,82.47121239927658L155.928,88.77906860898831L156.168,87.52038310663261L156.21599999999998,69.54169981855695L156.408,73.83617528946614L156.486,78.40434117484656L156.86999999999998,82.7117138827585L157.26,80.92432869771095L157.398,80.94631929913749L157.90200000000002,88.05959018109078L157.92000000000002,77.3818914613638L157.95,80.54800782587184L158.35199999999998,79.70031383131365L158.46,83.63135239877074L158.91000000000003,75.23567203143345L159.14399999999998,75.92956779185576L159.15,76.51330003155725L160.09199999999998,91.32661497598272L160.344,89.45864292534344L160.35,93.36741587192675L160.74,85.77634559738978L160.776,78.67002487249513L160.896,80.8794494065338L160.93200000000002,68.62920416663859L161.058,72.64332774488439L161.094,79.85711979054732L161.454,79.36403080347509L161.808,84.87129312713277L162,91.30337432457736L162.042,84.73901719176267L163.326,74.58471302220619L163.476,86.1914572592751L163.554,62.53938442274635L163.716,77.85081368905188L163.758,76.56305585591744L163.824,59.904072757715994L163.854,77.39520790871184L163.90200000000002,60.2332798886148L163.986,73.43023536246409L164.154,79.9662218536591L164.568,75.84752184731387L164.586,67.76248502664814L164.838,88.64662863138535L165.048,72.44052191902486L165.27,68.1687541160158L165.816,78.87222946000783L165.912,77.34589664166246L166.554,82.60787813474764L166.596,81.42493969543784L166.668,68.92111729520165L166.974,80.62829830522381L167.04000000000002,89.75316282818731L167.046,86.05626701895403L167.58599999999998,72.00774674846336L167.60399999999998,70.27443273358983L168.48600000000002,50.28760031161087L168.51,57.04935957013517L168.516,80.45617708074629L168.618,69.81088532311749L168.708,76.03132671337538L168.768,91.33357176570578L168.834,86.13672337090367L168.864,83.50516941013096L168.894,81.75298219169045L168.91799999999998,87.40415053067551L168.95399999999998,70.70116990803855L169.098,83.1564089506832L169.15800000000002,72.11861798465122L169.31400000000002,80.6892338556046L169.326,72.6068905596731L169.584,80.84888127763261L169.722,88.16408696599478L170.02800000000002,85.5334567927427L170.172,85.23812202128201L170.286,90.00734252388249L170.37,80.88184444568542L170.568,55.511869269458415L171.246,74.66312277579229L171.54,84.13501238778798L171.906,94.36392440927253L172.026,92.65076348148673L172.092,77.87475764736688L172.212,76.72403612876L172.572,75.68134200630213L172.65,75.41527913235676L172.87199999999999,77.2596626345239L172.992,80.7956487323412L173.058,71.8655973915485L173.574,80.46127373354543L173.63400000000001,64.08791633100076L174.48000000000002,75.81305868983571L174.702,69.78426938676955L174.714,62.49712620744755L174.888,71.3879255625393L175.12199999999999,67.10696705769641L175.41,59.88300190703529L175.698,79.2563980513273L175.71,61.65528671119445L175.75799999999998,70.32601182778212L175.938,73.61272142775668L176.076,64.77571651318793L176.16000000000003,76.47871580860664L176.502,80.69628478344939L177.078,74.83089597426518L177.348,76.15732906720106L177.372,74.03083732261682L177.732,84.39221900814542L178.008,86.78727075204758L178.188,71.73517898518048L178.32,84.35826143343529L178.368,80.57913114316972L178.74599999999998,72.00256834700788L179.1,80.88668290287289L179.28,84.37606091105951L179.412,90.0723248603106L179.61,82.72082034924271L179.78400000000002,80.2603373112426L180.054,79.71490852662507L180.28799999999998,80.55605188212229L180.804,82.81680707117492L181.242,83.79381824525426L181.392,93.29522526509454L181.47,81.78396477201339L181.524,75.79017305085563L181.99800000000002,73.91683491949043L182.352,59.72061998201926L183.036,62.058575694972376L183.126,71.46779618619446L183.438,77.27588983559039L183.60000000000002,83.24165088209877L183.97199999999998,86.28406788219358L184.12199999999999,93.3708040617281L184.656,92.00697414040064L184.878,89.44338506394423L185.088,94.49471594664969L185.184,92.66130800653902L185.286,79.77471683068835L185.53199999999998,85.23788980501398L186.18,76.31714757425587L186.276,71.29061716156403L186.402,72.0963768397061L186.456,58.352636469772975L186.552,68.09644275988005L186.93,67.87525843117581L186.93599999999998,74.12197188152449L187.02,89.14773866927057L187.68,61.86877315797578L187.758,62.37171968940166L187.82399999999998,75.29128122676717L188.36399999999998,69.8240557535462L188.42399999999998,62.71585040088384L188.826,72.96387293456353L189.078,87.16165625857654L190.02599999999998,85.44134400708414L190.254,67.75335445373432L190.53,66.50340736555727L190.542,69.10251045633423L190.782,73.03884835703798L190.788,89.96788072651078L190.79399999999998,82.8510711627819L190.89,85.2414713035074L190.968,81.58836189727177L190.98000000000002,83.07667394904371L191.574,72.57239291142653L192.474,71.94128407566241L192.858,78.1182544709384L192.89399999999998,71.93727659706829L192.93,82.67670885135556L192.95399999999998,72.22334332330952L192.96,79.99999140178731L193.41000000000003,87.97162022878952L193.65,78.52079793389728L193.98,72.68619992564555L194.634,71.69934567503309L194.70000000000002,61.72613346156349L194.748,62.705257220375L195.036,72.81933661035994L195.18,84.69753859135429L195.42,92.77455940819947L195.438,81.4259170233296L195.624,75.6312881743545L195.684,90.98710210613943L195.726,82.42700476196424L195.834,82.76260311304335L196.176,68.14995856940273L196.296,68.76823896312524L196.314,89.03738229033871L196.44,85.47049808823077L196.95600000000002,91.33362890759311L197.50199999999998,70.85635726145587L197.514,70.8277129798797L197.70600000000002,78.24031507550347L197.814,72.73580359053082L199.512,48.689911380932585L199.668,64.4269312473241L199.932,52.93729264148487L200.262,44.15871783438689L200.63400000000001,71.11100102104093L200.71200000000002,73.60501332834302L201.264,75.08304867547726L201.438,74.74595031152953L201.672,65.09999500517365L202.062,81.25998266162205L203.352,86.33967340934961L203.826,77.8825013466624L203.982,82.87968601198783L204.114,77.29998080248353L204.22799999999998,68.01935114190864L204.34799999999998,81.11706487328168L204.37800000000001,82.09115334546708L204.47400000000002,89.81357259728965L204.546,79.25724733046079L204.642,68.78750374087248L204.80399999999997,75.27621629056752L205.212,50.279016199578535L205.506,76.19563251251766L205.584,73.95276414559201L205.632,67.06758323592312L205.86,79.8974478911653L206.202,57.219652256222375L206.63400000000001,61.271694081366775L206.832,65.15498056504755L206.874,56.23189877666485L206.928,70.138471939951L207.228,72.42289893976444L207.246,58.49415996333596L207.37199999999999,60.69036999209976L207.444,57.11093418246212L207.55800000000002,67.74661234148621L207.672,67.46660431078386L208.488,74.86405514022235L208.974,78.3431591623645L208.98000000000002,71.84920230542107L209.184,71.40750566883678L209.298,69.69455637341258L209.574,75.99111117692995L210.006,59.0216158877699L210.036,74.37280991031284L210.192,71.31786763411186L210.46800000000002,62.47157421009311L210.558,50.51824356038004L210.828,64.07776646681083L211.04999999999998,72.50362920311073L211.308,85.41874929933539L211.428,85.202974640007L211.464,60.915575632522575L211.542,67.94462290170591L211.71,57.77793629075211L211.96800000000002,59.358315066914244L212.208,57.85019983109652L212.532,62.11352985702682L212.60999999999999,80.02524579605551L212.76000000000002,83.43527809199131L212.80200000000002,77.82519873546137L212.826,81.30224576867252L213.42,78.40013440361274L213.43800000000002,67.13177030547719L213.57000000000002,80.67756664758626L213.678,78.13865516039016L213.87,89.33126980097008L214.24200000000002,73.24359983218079L214.326,94.44007471357729L214.428,95.82834061445772L214.434,84.47480178112579L214.686,84.36254403386431L215.28,68.02430448390608L215.442,57.47036717715885L215.988,54.40606381846676L216.31799999999998,54.09846642058376L216.63600000000002,67.02250325457769L217.284,75.92629548818475L217.35000000000002,72.74382964933159L218.088,68.41582780943014L218.442,48.77784489339868L218.664,57.73863828578105L218.79,52.479254831467145L219.012,44.712705995477876L219.228,64.32133716179437L219.234,56.19376037650706L219.384,67.20582119676828L219.756,52.304002664698615L219.792,52.10909018207133L219.882,73.74594776447033L220.18200000000002,71.37260045455065L220.33800000000002,58.75770502526032L220.44,59.60991024668404L220.578,67.11643479047373L220.854,59.9697430194543L221.24400000000003,64.35606214348977L221.286,79.82504758067729L221.334,89.59000234088421L221.622,69.49835790308761L221.676,83.43061000252743L222.03,76.18586159704121L222.108,80.22631664507784L222.978,84.1266949442355L223.05,78.23101062346808L223.24800000000002,72.0139029116206L223.26,72.94475879135817L223.49999999999997,63.69559533144272L223.89,50.85868065653338L224.334,48.86550484537321L224.616,51.66717906570133L224.832,58.94485388507722L225.006,74.92052869870378L225.17999999999998,81.29089562743549L225.25799999999998,84.52401979625083L225.27599999999998,77.50140421533528L225.672,84.08836612430788L225.69,75.26646146308414L225.94799999999998,76.09303095988842L226.182,70.54271611592137L226.242,76.06569472559677L226.26,86.24020934942715L226.578,76.48320477939986L227.256,75.35600398823557L227.268,69.67815510767676L227.37,75.24115733141892L227.412,74.6142418820071L227.418,69.11290071858596L227.46,54.82856299858743L227.85,60.62391894511961L227.87400000000002,57.972286690086435L228.018,72.1145127997042L228.09,58.514081885824254L228.16799999999998,50.93396769380952L228.21,75.93596428599511L228.696,82.01163866506639L228.894,62.39578035230089L228.91799999999998,62.815967511155776L229.08,71.97511090180024L229.09199999999998,58.44614657994407L229.49400000000003,68.97252785359342L229.53,52.584370630759096L229.63199999999998,47.94323692432167L230.05200000000002,47.3904214380627L230.112,78.29458489233038L230.214,79.79998615220698L230.256,60.00991683834995L230.274,82.82251797173103L230.316,64.20846378029856L230.358,57.59849609423269L230.42399999999998,38.04076801235908L231.24,27.68631266651724L231.462,65.22771175443403L231.792,71.56288460588165L231.834,64.1851088670719L232.224,64.56221196523622L232.374,72.70480430164463L232.428,67.03332640543988L232.5,69.15699474042819L232.614,70.67643016537494L232.71599999999998,71.40173579140688L232.806,57.46871838324941L233.04000000000002,73.43306039414277L233.112,79.73637366053053L233.262,66.81851704321936L233.442,60.62693535944872L233.484,68.85456732674858L233.832,60.46954681581029L233.898,57.27868814709093L234.108,61.41330738044701L234.22199999999998,49.16715812256703L234.264,55.98574476965577L234.54000000000002,46.548910785827275L234.684,71.14475682243238L234.852,81.90800934380107L234.87,56.37445121147559L235.08,76.47331516996353L235.48800000000003,73.9269531301869L235.638,88.13152518897108L235.84199999999998,63.85589250635644L235.85999999999999,72.04595968757687L236.058,79.42828014149116" style="fill: none;" fill="none"></path></g></g></g></g><g opacity="0.2"><g><g><g><path stroke="rgb(238, 51, 119)" stroke-width="2px" d="M30.258,118.20668231944242L30.276,120.33621123929818L30.432,130.61177843809128L30.57,124.601991272221L30.953999999999997,126.12017360453804L31.008,133.29477898404002L31.380000000000003,109.59904238830009L31.41,119.18116548657417L31.536,115.59606760988632L31.644,118.1561539719502L31.854,122.98720607782403L31.866,133.0810751294096L31.914,111.0839591200153L32.532000000000004,121.92918591449657L32.766,110.03796596328417L32.85,119.69968889156976L33.222,114.90394971271355L33.384,110.96466160317262L33.48,114.0558924054106L33.522,120.35546052828431L33.81,107.45375927786031L33.888,102.78885558495918L33.972,120.61799629529317L34.032,105.73073378702004L34.29,117.2558000460267L34.338,121.68060567478338L34.632,101.14265042295058L34.716,94.97016849865516L34.818,109.14111542453368L34.854,111.23750031242767L35.022,119.98637537409861L35.675999999999995,108.40371873478094L35.832,102.20318760971227L36.036,115.91171505798896L36.089999999999996,112.76760742316642L36.402,114.5377739171187L36.629999999999995,117.55354374895492L37.086000000000006,110.52947902679442L37.572,119.81197963406642L37.901999999999994,101.99914569904406L37.92,79.40615547448397L38.004,97.94488128523031L38.028,107.81400583932796L38.315999999999995,114.00712680319944L38.358000000000004,113.06356627742448L38.622,107.25034731378157L38.80200000000001,121.77388750265041L39.144000000000005,111.34708891560634L39.318,108.37358076373735L39.414,115.39826990664005L39.510000000000005,116.19096927593151L39.846000000000004,115.41735618313153L40.151999999999994,115.66555513938268L40.26,117.50419516985615L40.314,96.01907930274804L40.397999999999996,120.78774479776621L40.410000000000004,110.29351429641245L40.428,103.69497849543889L40.692,112.07642892003058L41.07,105.21003872404495L41.124,103.77773911009231L41.202000000000005,100.32279151429732L41.22,110.56985639284053L41.268,96.71047331392764L41.508,109.4570667942365L41.61,115.00607289622226L41.688,120.01746655379732L42.01199999999999,96.83695995807646L42.222,115.73123536010583L42.468,100.10117740929125L42.582,108.01053259770075L43.128,99.46406379590431L43.2,104.2742309619983L43.272,117.43613607188065L43.392,111.00340884427229L43.428000000000004,108.28053654730319L43.548,112.11609897762536L43.577999999999996,102.2741118595004L43.848,105.51462342590092L43.919999999999995,103.09309215843676L44.13,105.19853943586348L44.339999999999996,122.47466992835203L44.346,114.06708224614461L44.622,103.56026386469601L44.724000000000004,112.78196357438961L44.736,109.32684467732905L44.766,107.90040798733631L44.916000000000004,92.7475345780452L44.922000000000004,112.09587990244229L44.994,108.40113816410302L45.024,101.58296098560093L45.198,114.55608104914427L45.288000000000004,112.77608959873517L45.324,108.45130180567502L46.116,101.01017928620179L46.446,116.64962565153837L46.53,115.04690338174501L46.739999999999995,108.27643084277709L47.382,99.09747356176375L47.808,98.11700037618478L48.072,103.91086782266696L48.234,117.22260075559218L48.251999999999995,87.88673407336074L48.6,106.57647576431432L48.972,108.93142609794934L49.181999999999995,114.04143678893645L49.385999999999996,111.9243907580773L49.47,96.31638093789418L49.482,105.44321842739978L49.488,111.56458073854445L49.836,80.89350910484791L50.45399999999999,92.09715340534845L50.699999999999996,106.4808620288968L50.886,122.25360564514995L51.605999999999995,73.9380256732305L51.714,103.38791821400324L51.726000000000006,106.79710074265797L52.025999999999996,102.10461754600206L52.362,112.55384002129236L52.452,114.44881330182154L52.763999999999996,80.65484776099524L52.89,97.67760710418223L52.931999999999995,95.3196396579345L53.190000000000005,114.32222719242175L53.574,110.53451307366291L53.742,112.88203114271163L53.91,85.72418269018331L54.222,114.83583259334166L54.593999999999994,103.90395498772462L54.660000000000004,78.12378867467245L55.181999999999995,111.1274530639251L55.218,102.8818611204624L55.368,112.19860540330409L55.397999999999996,96.31294386088847L55.584,111.27893864115079L55.83,111.10857124378283L55.908,107.90278962751229L55.92,108.05910479525724L56.406,93.90823879837988L56.958,118.77561250329018L57.06,102.55417837699254L57.186,97.50848302245139L57.773999999999994,103.36979343493779L57.99,98.48505495985349L58.014,115.85126781463623L58.062000000000005,110.15575492382048L58.50599999999999,121.63085923468073L58.734,114.16575730095306L58.818000000000005,119.16730666160583L59.046,90.50415110091367L59.117999999999995,101.9730139672756L59.37,80.85302674770355L59.778000000000006,82.5574411849181L59.832,91.73282876859108L59.85,75.89820395161709L60.306,93.87129298349221L60.318,105.8017409245173L60.641999999999996,101.44805847605069L60.809999999999995,102.4069477021694L61.440000000000005,108.18555275847514L61.980000000000004,105.3077688589692L62.076,94.7980217784643L62.16,67.16424315174422L62.525999999999996,98.34517918775478L63.096000000000004,100.47084554036458L63.108,103.94260276357332L63.300000000000004,108.54938006897767L63.528,107.1466216345628L63.989999999999995,116.36078408857186L64.08,99.71895455320676L64.344,83.54307551185292L64.854,108.79837474723656L64.956,102.18291880190371L64.974,99.46883260210355L65.178,95.11555906633535L65.19,71.79733454187712L65.232,108.72356582681337L65.44800000000001,98.55587421854337L65.574,100.91673168291648L65.718,106.2665254647533L65.946,93.30414764831463L66.066,109.04072183122237L66.732,108.41143834342559L66.792,74.68699901302656L67.092,103.27845117946465L67.206,100.4799079298973L67.284,105.27631573627392L67.32,105.84881009161471L67.398,99.71566114823023L67.74,94.68194583058356L67.878,94.62568717946608L67.908,120.39550358057022L68.052,109.35483861962953L68.262,99.34740210821231L68.406,90.93227164447306L68.982,107.14636191974083L69.12599999999999,81.55728493134183L69.45,99.77470482637484L69.62400000000001,89.05977198481558L69.948,111.11651188631852L70.182,75.98204763233662L70.2,107.92582135895887L70.27199999999999,93.87217711905637L70.458,85.32412239909172L71.082,107.01071894665559L71.13,81.70894733568034L71.22,104.39374951273201L71.802,99.62299268941084L71.958,104.01859421531358L72.09,99.09195876618226L72.642,105.46171343823274L72.69,89.80016920963922L72.936,115.2256645411253L73.302,100.64042826741932L73.488,106.34770568708578L73.872,99.39388000965117L73.98,94.1499614616235L74.03999999999999,108.28973708301781L74.046,90.06598456700642L74.16,88.51787977168956L74.298,89.53232034047444L74.412,117.31220789502063L74.70599999999999,112.63611988723277L74.766,98.6304178982973L74.78399999999999,93.67319135864575L74.874,96.71352358162402L75.07199999999999,97.29426802694796L75.66,103.50523195167382L75.87,102.75305362045764L76.128,104.07548281302054L76.164,94.66620821754137L76.566,112.08033016820748L76.73400000000001,85.97298396378756L76.79400000000001,77.25348430623612L77.004,104.75925668080647L77.40599999999999,91.45445316036542L77.598,86.54337849716345L77.952,99.931064200898L78.162,107.26715694119532L78.22800000000001,103.68682234485944L78.3,93.77203218887249L78.402,97.86018109818299L79.086,41.55423977971077L79.296,95.22194820394118L79.332,82.52153422931832L79.746,72.74796262631816L80.01,94.49747094511984L80.184,75.26835130155087L80.214,77.86601895093918L80.268,102.32145179311433L80.80799999999999,99.27410726994275L80.826,95.54548103610674L80.994,86.3537203669548L81.054,107.1064266214768L81.40199999999999,110.25501019259293L81.61200000000001,76.42965783923864L81.81,89.43381658693154L81.816,87.5232548912366L82.176,79.57430148124695L82.92,67.27552266418934L82.938,102.502683006227L83.274,86.64620346327621L83.42999999999999,92.67370925843714L83.448,105.1689319461584L83.574,98.16609200338522L83.616,86.23781019449234L83.964,95.09914729992548L84,83.17072734485072L84.336,111.67495401203631L84.384,94.70139681299527L85.36200000000001,105.3289052248001L85.404,81.14943319559097L85.56599999999999,77.48445919652781L85.902,91.2445041189591L86.09400000000001,102.30643254021803L86.47800000000001,85.39600814630586L86.496,107.6577846109867L86.616,88.51804002126056L86.658,95.90849604705969L86.81400000000001,55.71817993124327L87.234,65.51930893460909L87.28800000000001,86.84066908061504L87.33,69.9796954939763L87.408,90.33345767855643L87.54,99.41120906670888L87.768,92.59189356366792L87.948,93.18895583599804L88.086,105.28930700321992L88.194,104.99839324752489L88.614,105.65911880632241L89.064,82.12034666538239L89.304,90.11815409113963L89.44800000000001,99.28324149549006L89.838,87.80814547340074L90.30600000000001,73.50066038717827L90.336,97.52973543107508L90.354,82.27893848220509L90.50999999999999,81.92235555748147L91.014,57.65719974040985L91.11600000000001,86.10314529637495L91.542,71.69895788282156L91.662,76.70938175419968L91.70400000000001,69.07133461534977L92.38199999999999,82.8732323050499L92.39999999999999,66.42466375231743L92.526,81.4595658481121L92.88,73.22210795183977L92.94,96.02826326092084L92.964,106.79970894257227L93.138,70.93137901524705L93.336,81.90193755179644L93.648,102.64371920625368L93.75,105.25191912055014L93.834,100.16615584741035L93.93,104.11777212222417L94.032,97.15265161295731L94.272,101.07363811631997L94.54799999999999,87.07213024546701L94.554,94.00002312163511L94.68599999999999,83.98266771435738L94.72800000000001,78.43681687116623L94.896,101.44273155927657L94.956,92.45146520684162L95.05199999999999,93.32979310552278L95.10600000000001,80.72199785709381L95.19,89.12288821240266L95.41799999999999,98.10090910891691L95.43599999999999,106.94261840482552L95.64,95.33248172700404L95.664,50.30806600054106L95.80199999999999,111.12910529226063L95.83800000000001,80.49925095339617L95.85,97.41977107028166L96.08999999999999,93.83172791699567L96.126,108.62528310716151L96.20400000000001,90.57742936164139L96.234,98.01155615846315L96.61800000000001,93.679501876235L96.732,73.42648693919182L96.786,75.4153056840102L97.056,106.36558732887109L97.194,96.94778082519768L97.206,83.80328766008219L97.212,93.83252363900343L97.566,76.92259104549885L98.52,93.62575748562811L98.838,92.44871886074542L98.958,101.88565032184123L99.144,88.34955693781376L99.19800000000001,105.47525176405905L99.3,62.4040572742621L99.402,97.30065590639909L99.588,93.30879488587378L99.894,106.49608573814233L100.032,84.79563036561012L100.116,103.72878562907377L100.56,81.90667320291203L101.244,65.97925835847855L101.82000000000001,98.90277585883935L101.85000000000001,89.507409820954L102.06599999999999,79.52149648467702L102.252,87.95033657550812L102.834,74.11351553102335L102.99,94.54447380204995L103.014,103.62483891596396L103.11,101.682929088672L103.36200000000001,111.08577712376912L103.746,81.37109150737524L103.764,105.73703325291474L103.86,73.30007765690488L104.43599999999999,87.59320106605688L104.75399999999999,94.40168590843676L105.324,84.91681219637394L106.032,93.2836633324623L106.19999999999999,96.62438061336675L106.554,64.00295013189316L106.65,109.61832206944624L106.836,80.40375878661871L107.268,82.17205754419169L107.382,99.546349187692L107.64,99.02089637021223L107.76,84.73784105479717L108.10799999999999,85.27287569145363L108.21000000000001,58.291843300064414L108.372,30.12402468919754L108.498,77.61995297173661L108.57,100.91951670994361L108.66,78.00662413487834L108.68400000000001,99.5713591724634L108.786,96.285110168159L109.00200000000001,98.94057818005481L109.242,78.94294027487439L109.44,87.64151907463867L110.10000000000001,86.9531642794609L110.418,103.7831157594919L110.442,82.84189522514743L110.562,90.63685432324806L110.856,104.97885385155676L111.03,62.83232148985067L111.282,97.71958144009112L111.588,91.15008949240048L111.726,83.79707108189663L112.08,75.63558805982274L112.098,95.44619813809791L112.488,87.8000556329886L112.662,82.57383084793886L112.866,66.42950439453125L113.07600000000001,90.63761136432488L113.21400000000001,88.69610492388406L113.31,68.63893706599873L113.628,43.70312021672726L113.74799999999999,69.2388009428978L113.826,84.73888543993235L113.862,100.30490434666474L113.994,87.91734726727009L114.486,87.43557074666023L115.33200000000001,78.83956272403401L115.72800000000001,104.47339354952176L115.734,73.31177034974098L115.77,88.08019398649532L115.824,56.863688071568816L115.926,62.473329295714706L115.998,93.44770363469918L116.034,76.33394463857016L116.38799999999999,75.73210250834626L116.688,82.46696096162003L116.97,77.19067200024924L117.18599999999999,80.08013754089674L117.33,59.13412609696388L117.348,97.16185767451921L117.798,66.47662882010141L117.834,88.97183365126449L118.01400000000001,88.92017803092796L118.068,103.29605652888615L118.092,62.89317212005457L118.128,91.48842054357131L118.67999999999999,92.55020657181738L118.686,31.235427300135285L118.73400000000001,102.85748108228047L118.758,69.35014676551026L118.86,77.80978792905807L119.244,83.06217207511267L119.358,78.16087816158932L119.562,98.96930706004301L119.706,100.75655394792555L120.168,96.47245296835898L120.546,82.08847910414141L120.822,88.87853524585563L121.086,95.30518956730762L121.2,87.00151544312635L121.602,88.3782250334819L121.95,89.74909380326667L122.08800000000001,69.49470293025178L122.574,83.7980049500863L122.742,84.00630728900433L122.844,72.99528297285241L122.856,57.12466278672218L123.048,97.54916431009768L123.23400000000001,88.98518409828344L123.588,78.09473376969498L124.446,90.1402187993129L124.59,102.51996233065923L124.644,93.02960697809854L124.68,71.17368189245462L124.956,79.26536793758473L124.97399999999999,77.92347671091557L125.088,101.15432653824487L125.202,79.88066550592583L125.88,110.58235033353169L125.96400000000001,59.408628086249024L126.576,76.0799103875955L126.702,59.75850263237953L127.134,92.6487766355276L127.194,90.7414862414201L127.5,113.18872671822706L127.93199999999999,86.00305009881654L128.064,103.53224229315916L128.166,93.14603658020495L128.44199999999998,98.20581731945275L128.646,100.44120489557584L129.036,66.83342172702154L129.35999999999999,76.74009441335997L129.516,70.59451231360435L129.546,94.62717363238333L129.972,85.29798514147598L130.188,111.11203595002492L130.482,88.15833499282598L130.85399999999998,52.26372966170311L130.86,103.71676691124836L131.064,89.60739450156687L131.148,75.20611920952797L131.4,59.61034361521402L132.40200000000002,84.99488136669001L132.588,88.21041610340276L132.792,87.89281250536442L133.158,84.63545815646648L133.218,77.91452483832836L133.44,61.90602371096611L133.488,58.758357430497796L133.638,105.74274697899817L133.746,94.65688058733939L133.758,101.10952296853064L133.89600000000002,54.541417598724365L133.902,69.54083270331225L133.908,100.06186653176943L133.926,87.84058772275844L134.04,92.6237887541453L134.25,102.63759656747182L134.436,97.38664361586173L134.56199999999998,92.73548270513614L134.67,72.99549295504889L134.73,68.8898547391097L135.26399999999998,89.09399908284345L135.348,71.78629942486685L135.46800000000002,70.7641226698955L135.522,74.47044105827808L135.56400000000002,84.88226459920406L135.57,93.06206580499807L135.744,82.60609074433646L135.804,51.255129913489014L135.924,89.91423374911149L136.33800000000002,80.00286409258842L136.63199999999998,55.676117181777954L136.638,72.54016313950223L136.82999999999998,91.52568133175372L137.058,67.47846493124962L137.72400000000002,86.47163089613119L137.778,99.91161874433358L137.874,85.58633490403491L137.892,41.514188438653946L137.946,72.20046167820692L138.11399999999998,92.32660868763922L138.324,91.0135568579038L138.39600000000002,69.47741807997227L138.63000000000002,36.24661926428476L138.78,90.9492691506942L138.882,96.39686490346988L139.29,71.75349246958893L139.42200000000003,86.0818597326676L139.59,96.46438523133595L139.914,60.62544175982475L140.178,71.6393505682548L140.71200000000002,81.0543609932065L140.718,92.88837184756993L141.288,82.70018487175307L141.55800000000002,81.68279350052279L142.284,88.72004289428392L142.326,100.06471786896387L143.076,76.55600633720559L143.364,70.74618576963744L143.604,72.9590997248888L143.75400000000002,87.78705884019533L143.868,88.22871770958105L143.898,36.76161717871824L144.036,60.075675214330346L144.16799999999998,86.69493038455644L144.294,50.861766949296L144.702,89.59099931269883L145.01999999999998,84.48298897842568L145.368,85.21258869767189L145.63199999999998,90.08048439025877L145.656,53.58434085051218L145.80599999999998,80.83585241436958L146.916,49.409110113978386L147.006,71.59775198996067L147.024,81.63842647274336L147.15599999999998,85.70440015693504L147.19199999999998,84.5902511999011L147.48000000000002,91.05916720132032L147.57,90.25897478312253L147.81,80.38286555806798L147.846,66.74370407064757L147.93,71.33834108958644L147.996,100.38944980998834L148.05,96.20112281541029L148.32600000000002,69.56805302699408L148.392,71.73710280656815L148.428,88.1362481812636L148.782,81.22738079726696L148.94400000000002,73.69641905277967L149.082,40.36981862286726L149.502,79.04952834298214L149.63400000000001,67.2692563533783L149.832,88.11583570142585L149.934,91.83371416230996L149.976,69.78206909199557L150.216,63.5327115803957L150.294,95.52808566888173L150.324,78.54311759521565L150.35999999999999,73.32009227573872L150.378,60.557518045107514L150.834,72.72032786409062L150.84,89.41551498075326L150.852,67.73002360264462L151.104,101.86622696866591L151.122,100.31716067592302L151.308,88.6571477005879L151.47000000000003,78.49101438124976L151.488,77.6244068046411L151.518,74.36819078028202L151.854,77.51116561641297L151.944,78.11322325468063L151.998,45.43549544115862L152.01,105.74709029495715L152.304,83.98141887287301L152.388,80.41429657737416L152.646,83.03509542346L152.916,85.44532633324462L153.162,95.48535429189602L153.24,74.74729153265557L153.24599999999998,79.35650021086138L153.36599999999999,85.60745469232398L153.37800000000001,85.41622169564167L153.408,84.29875170439482L153.47400000000002,80.79112620651722L154.14,65.48261730869612L154.266,74.24198595434427L154.67399999999998,85.7169438302517L154.68,74.59797761340937L154.698,89.39732941736777L154.704,66.58093471328417L154.93800000000002,76.09202857067189L154.99200000000002,28.431048755844444L155.136,86.15209877739349L155.334,76.06639416515827L155.48399999999998,95.75297660132249L155.7,79.45608150462311L155.928,92.98430608212946L156.168,86.6812594383955L156.21599999999998,57.55591095983982L156.408,76.69915893673897L156.486,81.4497850984335L156.86999999999998,85.5832956880331L157.26,79.73273857434592L157.398,80.9609797000885L157.90200000000002,92.80177076905964L157.92000000000002,70.26342564821243L157.95,82.65875206887722L158.35199999999998,79.13518450160822L158.46,86.25204477707544L158.91000000000003,69.63855178654194L159.14399999999998,76.39216496547064L159.15,76.90245485802492L160.09199999999998,101.20215827226637L160.344,88.21332822491723L160.35,95.97326450298229L160.74,80.7156320810318L160.776,73.93247772256535L160.896,82.3523990958929L160.93200000000002,60.46237400670847L161.058,75.31941013038158L161.094,84.66631448765597L161.454,79.03530481209359L161.808,88.54280134290457L162,95.59142845620711L162.042,80.36277910321951L163.326,67.81517690916857L163.476,93.92928675065437L163.554,46.77133586506048L163.716,88.05843319992223L163.758,75.70455063382786L163.824,48.79808402558169L163.854,89.0559646760424L163.90200000000002,48.79199454188347L163.986,82.22820567836365L164.154,84.32354618112248L164.568,73.10172184308371L164.586,62.37246047953764L164.838,102.5693910345435L165.048,61.63645077745119L165.27,65.32090891400972L165.816,86.00787968933582L165.912,76.32834142943224L166.554,86.11586579680443L166.596,80.63631406923136L166.668,60.58523569504419L166.974,88.43308564523855L167.04000000000002,95.83640584349631L167.046,83.5916698127985L167.58599999999998,62.642066568136215L167.60399999999998,69.11889005700749L168.48600000000002,36.9630453636249L168.51,61.55719907581806L168.516,96.06072208782037L168.618,62.71402415136495L168.708,80.17828764021397L168.768,101.53506846725939L168.834,82.67215777436894L168.864,81.75080010294914L168.894,80.58485737939677L168.91799999999998,91.17159608999887L168.95399999999998,59.56584949294725L169.098,91.4599016457796L169.15800000000002,64.76009067396322L169.31400000000002,86.40297776957351L169.326,67.21866169571877L169.584,86.34354175627232L169.722,93.04089075823624L170.02800000000002,83.77970334390801L170.172,85.04123217364153L170.286,93.1868228589495L170.37,74.79817906022072L170.568,38.59855248530707L171.246,87.43062511334816L171.54,90.44960546245177L171.906,101.18319909026225L172.026,91.5086561962962L172.092,68.02408709128699L172.212,75.95688844968876L172.572,74.98621259133023L172.65,75.23790388305983L172.87199999999999,78.48925163596869L172.992,83.15297279755276L173.058,65.91222983102003L173.574,86.19172462821007L173.63400000000001,53.172344729304314L174.48000000000002,83.62982026239237L174.702,65.76507651805878L174.714,57.63903075456619L174.888,77.31512513260049L175.12199999999999,64.25299472113451L175.41,55.067025139927864L175.698,92.1719954808553L175.71,49.92121248443922L175.75799999999998,76.10649523884058L175.938,75.80386116107306L176.076,58.884379903475434L176.16000000000003,84.28071533888578L176.502,83.50799743334454L177.078,70.9206367681424L177.348,77.041617795825L177.372,72.61317615956068L177.732,91.29980679849783L178.008,88.38397191464901L178.188,61.70045114060244L178.32,92.77364973227182L178.368,78.05971094965935L178.74599999999998,66.28485981623331L179.1,86.80942594011623L179.28,86.70231291651726L179.412,93.86983415981133L179.61,77.81981734186411L179.78400000000002,78.62001528590918L180.054,79.35128933688006L180.28799999999998,81.11681411912045L180.804,84.32397719721001L181.242,84.44515902797383L181.392,99.62949661165474L181.47,74.1097911099593L181.524,71.79431190341711L181.99800000000002,72.66794283191365L182.352,50.25647669037184L183.036,63.61721283694109L183.126,77.74060984700918L183.438,81.14795226852101L183.60000000000002,87.21882491310436L183.97199999999998,88.3123458822568L184.12199999999999,98.09529484808444L184.656,91.097754192849L184.878,87.73432567963997L185.088,97.86226986845334L185.184,91.43903604646523L185.286,71.18365604678792L185.53199999999998,88.88000512123108L186.18,70.36998608708382L186.276,67.93959688643616L186.402,72.63354995846748L186.456,49.190142889817565L186.552,74.59231361995143L186.93,67.72780221203965L186.93599999999998,78.28644751509032L187.02,99.16491652776797L187.68,43.68279615044594L187.758,62.70701737701893L187.82399999999998,83.90432225167751L188.36399999999998,66.17923877139887L188.42399999999998,57.977046832442284L188.826,79.79588795701665L189.078,96.62684514125188L190.02599999999998,84.2944691727559L190.254,55.96136141816774L190.53,65.67010930677256L190.542,70.83524585018557L190.782,75.66307362417382L190.788,101.25390230615933L190.79399999999998,78.10653145362934L190.89,86.83507139732438L190.968,79.152955626448L190.98000000000002,84.06888198355836L191.574,65.5695388863484L192.474,71.5205448518197L192.858,82.23623473445576L192.89399999999998,67.8166246811549L192.93,89.8363303542137L192.95399999999998,65.25443297127882L192.96,85.18442345410585L193.41000000000003,93.28603944679101L193.65,72.22024973730248L193.98,68.79646792014441L194.634,71.04144284129143L194.70000000000002,55.077325319250434L194.748,63.35800639291605L195.036,79.56205620368323L195.18,92.61633991201718L195.42,98.15923995276292L195.438,73.86015543341637L195.624,71.76820227503777L195.684,101.22431139399608L195.726,76.72027319918078L195.834,82.98633534709614L196.176,58.40819554030895L196.296,69.1804258922736L196.314,102.55014450848101L196.44,83.09257528682551L196.95600000000002,95.24238278716801L197.50199999999998,57.204842830697686L197.514,70.80861679216227L197.70600000000002,83.18204980591935L197.814,69.06612926721573L199.512,32.65931657453379L199.668,74.91827782491845L199.932,45.277533570925385L200.262,38.306334629654884L200.63400000000001,89.07918981214364L200.71200000000002,75.26768819987774L201.264,76.06840557356676L201.438,74.52121806889772L201.672,58.669358134269714L202.062,92.03330776592095L203.352,89.72613390783468L203.826,72.24438663820428L203.982,86.2111424555381L204.114,73.58017732948065L204.22799999999998,61.83226470152536L204.34799999999998,89.84887402753034L204.37800000000001,82.74054566025734L204.47400000000002,94.96185209850469L204.546,72.21969715257487L204.642,61.80767468114695L204.80399999999997,79.60202465703091L205.212,33.614216138919204L205.506,93.47337672114371L205.584,72.45751856764159L205.632,62.47746262947717L205.86,88.45069099466005L206.202,42.10112183292708L206.63400000000001,63.97305529812971L206.832,67.74383822083473L206.874,50.283177584409714L206.928,79.40952071547508L207.228,73.94585027297339L207.246,49.20833397905031L207.37199999999999,62.15451001127562L207.444,54.72464364270368L207.55800000000002,74.83706444750231L207.672,67.27993229031563L208.488,79.79568902651471L208.974,80.66256184379262L208.98000000000002,67.51989773412546L209.184,71.11304124444723L209.298,68.55259017646313L209.574,80.18881437927485L210.006,47.70861902832985L210.036,84.6069392586748L210.192,69.28123944997787L210.46800000000002,56.57404526074728L210.558,42.54935646057129L210.828,73.11744840443134L211.04999999999998,78.1208710273107L211.308,94.02882936348517L211.428,85.0591248671214L211.464,44.723976294199616L211.542,72.63065441449484L211.71,51.0001452167829L211.96800000000002,60.411900917688996L212.208,56.84478967388472L212.532,64.95574987431368L212.60999999999999,91.96638975540796L212.76000000000002,85.7086329559485L212.80200000000002,74.0851458311081L212.826,83.62027712414664L213.42,76.46539349357289L213.43800000000002,59.61952757338682L213.57000000000002,89.70809754232565L213.678,76.44604750225943L213.87,96.79301289469002L214.24200000000002,62.5184865196546L214.326,108.57105796784161L214.428,96.75385121504465L214.434,76.90577589223784L214.686,84.28770553569001L215.28,57.13214478393397L215.442,50.43440897266069L215.988,52.36319491267204L216.31799999999998,53.893401488661766L216.63600000000002,75.63852781057358L217.284,81.86215697725615L217.35000000000002,70.62218575676283L218.088,65.53049324949583L218.442,35.68585628271103L218.664,63.71250054736933L218.79,48.97299919525781L219.012,39.535006771485L219.228,77.39375793933868L219.234,50.775375852982194L219.384,74.54719507694244L219.756,42.369456976652145L219.792,51.97914852698645L219.882,88.17051948606968L220.18200000000002,69.79036891460419L220.33800000000002,50.34777473906675L220.44,60.17804706096649L220.578,72.12078448633355L220.854,55.20528183877468L221.24400000000003,67.28027489284676L221.286,90.1377045388023L221.334,96.09997218102215L221.622,56.10392827788988L221.676,92.71877806882063L222.03,71.35602932671708L222.108,82.91995334376892L222.978,86.7269471436739L223.05,74.30055440962315L223.24800000000002,67.86916443705559L223.26,73.5653293778499L223.49999999999997,57.52948635816574L223.89,42.300737539927155L224.334,47.53672097126642L224.616,53.53496187925339L224.832,63.79663709799448L225.006,85.57097857445478L225.17999999999998,85.53780691325665L225.25799999999998,86.6794359087944L225.27599999999998,72.81966049472493L225.672,88.47967406362295L225.69,69.38519168893498L225.94799999999998,76.64407729109129L226.182,66.84250621994337L226.242,79.74768046538037L226.26,93.02321909864743L226.578,69.97853506604832L227.256,74.60453679412603L227.268,65.89292252063751L227.37,78.94982548058033L227.412,74.19629824906588L227.418,65.44533994297186L227.46,45.30567118525505L227.85,64.48748957614103L227.87400000000002,56.2045318533977L228.018,81.54266353944939L228.09,49.44712794323763L228.16799999999998,45.88055823246637L228.21,92.60396201411882L228.696,86.06208825111389L228.894,49.31854147712389L228.91799999999998,63.09609228372574L229.08,78.08120649556321L229.09199999999998,49.42683703203997L229.49400000000003,75.99011536935967L229.53,41.65893248220286L229.63199999999998,44.84914778669676L230.05200000000002,47.02187778055668L230.112,98.89736052850881L230.214,80.80358699212474L230.256,46.8165372957786L230.274,98.03091872731844L230.316,51.79909431934357L230.358,53.19185097018877L230.42399999999998,25.00228262444338L231.24,20.783342435956L231.462,90.2553111463785L231.792,75.78633317351341L231.834,59.26659170786539L232.224,64.81361403067908L232.374,78.13319919258356L232.428,63.25234114130339L232.5,70.57277363042039L232.614,71.68938711533946L232.71599999999998,71.8852728754282L232.806,48.18004011114439L233.04000000000002,84.07595506807169L233.112,83.93858250478905L233.262,58.20661263167858L233.442,56.49921423693499L233.484,74.33965530494851L233.832,54.879533141851425L233.898,55.151449034611375L234.108,64.1697202026844L234.22199999999998,41.00305861731371L234.264,60.531469201048225L234.54000000000002,40.25768812994161L234.684,87.54198751350242L234.852,89.0835110247135L234.87,39.35207912325859L235.08,89.8725578089555L235.48800000000003,72.22937843700251L235.638,97.6012398948272L235.84199999999998,47.672137384613364L235.85999999999999,77.50600447505713L236.058,84.34982711076736" style="fill: none;" fill="none"></path></g></g></g></g></g></g><g transform="translate(60, 178)" clip-path="url(#clip_1)"><clipPath id="clip_1"><rect width="270" height="22"></rect></clipPath><g><g><line x1="0" y1="0" x2="0" y2="5" style="visibility: inherit;" fill="rgb(0, 0, 0)" stroke="rgb(204, 204, 204)" stroke-width="1px"></line><line x1="30" y1="0" x2="30" y2="5" style="visibility: inherit;" fill="rgb(0, 0, 0)" stroke="rgb(204, 204, 204)" stroke-width="1px"></line><line x1="60" y1="0" x2="60" y2="5" style="visibility: inherit;" fill="rgb(0, 0, 0)" stroke="rgb(204, 204, 204)" stroke-width="1px"></line><line x1="90" y1="0" x2="90" y2="5" style="visibility: inherit;" fill="rgb(0, 0, 0)" stroke="rgb(204, 204, 204)" stroke-width="1px"></line><line x1="120" y1="0" x2="120" y2="5" style="visibility: inherit;" fill="rgb(0, 0, 0)" stroke="rgb(204, 204, 204)" stroke-width="1px"></line><line x1="150" y1="0" x2="150" y2="5" style="visibility: inherit;" fill="rgb(0, 0, 0)" stroke="rgb(204, 204, 204)" stroke-width="1px"></line><line x1="180" y1="0" x2="180" y2="5" style="visibility: inherit;" fill="rgb(0, 0, 0)" stroke="rgb(204, 204, 204)" stroke-width="1px"></line><line x1="210" y1="0" x2="210" y2="5" style="visibility: inherit;" fill="rgb(0, 0, 0)" stroke="rgb(204, 204, 204)" stroke-width="1px"></line><line x1="240" y1="0" x2="240" y2="5" style="visibility: inherit;" fill="rgb(0, 0, 0)" stroke="rgb(204, 204, 204)" stroke-width="1px"></line><line x1="270" y1="0" x2="270" y2="5" style="visibility: inherit;" fill="rgb(0, 0, 0)" stroke="rgb(204, 204, 204)" stroke-width="1px"></line></g><g transform="translate(0, 8)"><text x="0" y="0" dx="0em" dy="0.95em" style="text-anchor: middle; visibility: hidden; font-family: &quot;Helvetica Neue&quot;, sans-serif; font-size: 12px; font-weight: 200;" fill="rgb(50, 49, 63)" stroke="none" stroke-width="1px">-50k</text><text x="30" y="0" dx="0em" dy="0.95em" style="text-anchor: middle; visibility: inherit; font-family: &quot;Helvetica Neue&quot;, sans-serif; font-size: 12px; font-weight: 200;" fill="rgb(50, 49, 63)" stroke="none" stroke-width="1px">0</text><text x="60" y="0" dx="0em" dy="0.95em" style="text-anchor: middle; visibility: hidden; font-family: &quot;Helvetica Neue&quot;, sans-serif; font-size: 12px; font-weight: 200;" fill="rgb(50, 49, 63)" stroke="none" stroke-width="1px">50k</text><text x="90" y="0" dx="0em" dy="0.95em" style="text-anchor: middle; visibility: inherit; font-family: &quot;Helvetica Neue&quot;, sans-serif; font-size: 12px; font-weight: 200;" fill="rgb(50, 49, 63)" stroke="none" stroke-width="1px">100k</text><text x="120" y="0" dx="0em" dy="0.95em" style="text-anchor: middle; visibility: hidden; font-family: &quot;Helvetica Neue&quot;, sans-serif; font-size: 12px; font-weight: 200;" fill="rgb(50, 49, 63)" stroke="none" stroke-width="1px">150k</text><text x="150" y="0" dx="0em" dy="0.95em" style="text-anchor: middle; visibility: inherit; font-family: &quot;Helvetica Neue&quot;, sans-serif; font-size: 12px; font-weight: 200;" fill="rgb(50, 49, 63)" stroke="none" stroke-width="1px">200k</text><text x="180" y="0" dx="0em" dy="0.95em" style="text-anchor: middle; visibility: hidden; font-family: &quot;Helvetica Neue&quot;, sans-serif; font-size: 12px; font-weight: 200;" fill="rgb(50, 49, 63)" stroke="none" stroke-width="1px">250k</text><text x="210" y="0" dx="0em" dy="0.95em" style="text-anchor: middle; visibility: inherit; font-family: &quot;Helvetica Neue&quot;, sans-serif; font-size: 12px; font-weight: 200;" fill="rgb(50, 49, 63)" stroke="none" stroke-width="1px">300k</text><text x="240" y="0" dx="0em" dy="0.95em" style="text-anchor: middle; visibility: hidden; font-family: &quot;Helvetica Neue&quot;, sans-serif; font-size: 12px; font-weight: 200;" fill="rgb(50, 49, 63)" stroke="none" stroke-width="1px">350k</text><text x="270" y="0" dx="0em" dy="0.95em" style="text-anchor: middle; visibility: hidden; font-family: &quot;Helvetica Neue&quot;, sans-serif; font-size: 12px; font-weight: 200;" fill="rgb(50, 49, 63)" stroke="none" stroke-width="1px">400k</text></g><line x1="0" y1="0" x2="270" y2="0" fill="rgb(0, 0, 0)" stroke="rgb(204, 204, 204)" stroke-width="1px"></line></g></g></g></g></svg>