<svg viewBox="0 0 330 200" xmlns="http://www.w3.org/2000/svg"><g><g><g><g><g><line x1="50" y1="178" x2="45" y2="178" style="visibility: inherit;" fill="rgb(0, 0, 0)" stroke="rgb(204, 204, 204)" stroke-width="1px"></line><line x1="50" y1="155.75" x2="45" y2="155.75" style="visibility: inherit;" fill="rgb(0, 0, 0)" stroke="rgb(204, 204, 204)" stroke-width="1px"></line><line x1="50" y1="133.5" x2="45" y2="133.5" style="visibility: inherit;" fill="rgb(0, 0, 0)" stroke="rgb(204, 204, 204)" stroke-width="1px"></line><line x1="50" y1="111.24999999999999" x2="45" y2="111.24999999999999" style="visibility: inherit;" fill="rgb(0, 0, 0)" stroke="rgb(204, 204, 204)" stroke-width="1px"></line><line x1="50" y1="88.99999999999999" x2="45" y2="88.99999999999999" style="visibility: inherit;" fill="rgb(0, 0, 0)" stroke="rgb(204, 204, 204)" stroke-width="1px"></line><line x1="50" y1="66.75" x2="45" y2="66.75" style="visibility: inherit;" fill="rgb(0, 0, 0)" stroke="rgb(204, 204, 204)" stroke-width="1px"></line><line x1="50" y1="44.5" x2="45" y2="44.5" style="visibility: inherit;" fill="rgb(0, 0, 0)" stroke="rgb(204, 204, 204)" stroke-width="1px"></line><line x1="50" y1="22.25" x2="45" y2="22.25" style="visibility: inherit;" fill="rgb(0, 0, 0)" stroke="rgb(204, 204, 204)" stroke-width="1px"></line><line x1="50" y1="0" x2="45" y2="0" style="visibility: inherit;" fill="rgb(0, 0, 0)" stroke="rgb(204, 204, 204)" stroke-width="1px"></line></g><g transform="translate(40, 0)"><text x="0" y="178" dx="0em" dy="0.3em" style="text-anchor: end; visibility: hidden; font-family: &quot;Helvetica Neue&quot;, sans-serif; font-size: 12px; font-weight: 200;" fill="rgb(50, 49, 63)" stroke="none" stroke-width="1px">-0.2</text><text x="0" y="155.75" dx="0em" dy="0.3em" style="text-anchor: end; visibility: inherit; font-family: &quot;Helvetica Neue&quot;, sans-serif; font-size: 12px; font-weight: 200;" fill="rgb(50, 49, 63)" stroke="none" stroke-width="1px">0</text><text x="0" y="133.5" dx="0em" dy="0.3em" style="text-anchor: end; visibility: hidden; font-family: &quot;Helvetica Neue&quot;, sans-serif; font-size: 12px; font-weight: 200;" fill="rgb(50, 49, 63)" stroke="none" stroke-width="1px">0.2</text><text x="0" y="111.24999999999999" dx="0em" dy="0.3em" style="text-anchor: end; visibility: inherit; font-family: &quot;Helvetica Neue&quot;, sans-serif; font-size: 12px; font-weight: 200;" fill="rgb(50, 49, 63)" stroke="none" stroke-width="1px">0.4</text><text x="0" y="88.99999999999999" dx="0em" dy="0.3em" style="text-anchor: end; visibility: hidden; font-family: &quot;Helvetica Neue&quot;, sans-serif; font-size: 12px; font-weight: 200;" fill="rgb(50, 49, 63)" stroke="none" stroke-width="1px">0.6</text><text x="0" y="66.75" dx="0em" dy="0.3em" style="text-anchor: end; visibility: inherit; font-family: &quot;Helvetica Neue&quot;, sans-serif; font-size: 12px; font-weight: 200;" fill="rgb(50, 49, 63)" stroke="none" stroke-width="1px">0.8</text><text x="0" y="44.5" dx="0em" dy="0.3em" style="text-anchor: end; visibility: hidden; font-family: &quot;Helvetica Neue&quot;, sans-serif; font-size: 12px; font-weight: 200;" fill="rgb(50, 49, 63)" stroke="none" stroke-width="1px">1</text><text x="0" y="22.25" dx="0em" dy="0.3em" style="text-anchor: end; visibility: inherit; font-family: &quot;Helvetica Neue&quot;, sans-serif; font-size: 12px; font-weight: 200;" fill="rgb(50, 49, 63)" stroke="none" stroke-width="1px">1.2</text><text x="0" y="0" dx="0em" dy="0.3em" style="text-anchor: end; visibility: hidden; font-family: &quot;Helvetica Neue&quot;, sans-serif; font-size: 12px; font-weight: 200;" fill="rgb(50, 49, 63)" stroke="none" stroke-width="1px">1.4</text></g><line x1="50" y1="0" x2="50" y2="178" fill="rgb(0, 0, 0)" stroke="rgb(204, 204, 204)" stroke-width="1px"></line></g></g><g transform="translate(50, 0)" clip-path="url(#clip_0)"><clipPath id="clip_0"><rect width="280" height="178"></rect></clipPath><g><g><g><line x1="0" y1="0" x2="0" y2="178" fill="rgb(0, 0, 0)" stroke="rgb(60, 60, 60)" stroke-width="1px" opacity="0.25"></line><line x1="31.11111111111111" y1="0" x2="31.11111111111111" y2="178" fill="rgb(0, 0, 0)" stroke="rgb(60, 60, 60)" stroke-width="1px" opacity="0.25"></line><line x1="62.22222222222222" y1="0" x2="62.22222222222222" y2="178" fill="rgb(0, 0, 0)" stroke="rgb(60, 60, 60)" stroke-width="1px" opacity="0.25"></line><line x1="93.33333333333333" y1="0" x2="93.33333333333333" y2="178" fill="rgb(0, 0, 0)" stroke="rgb(60, 60, 60)" stroke-width="1px" opacity="0.25"></line><line x1="124.44444444444444" y1="0" x2="124.44444444444444" y2="178" fill="rgb(0, 0, 0)" stroke="rgb(60, 60, 60)" stroke-width="1px" opacity="0.25"></line><line x1="155.55555555555557" y1="0" x2="155.55555555555557" y2="178" fill="rgb(0, 0, 0)" stroke="rgb(60, 60, 60)" stroke-width="1px" opacity="0.25"></line><line x1="186.66666666666666" y1="0" x2="186.66666666666666" y2="178" fill="rgb(0, 0, 0)" stroke="rgb(60, 60, 60)" stroke-width="1px" opacity="0.25"></line><line x1="217.77777777777777" y1="0" x2="217.77777777777777" y2="178" fill="rgb(0, 0, 0)" stroke="rgb(60, 60, 60)" stroke-width="1px" opacity="0.25"></line><line x1="248.88888888888889" y1="0" x2="248.88888888888889" y2="178" fill="rgb(0, 0, 0)" stroke="rgb(60, 60, 60)" stroke-width="1px" opacity="0.25"></line><line x1="280" y1="0" x2="280" y2="178" fill="rgb(0, 0, 0)" stroke="rgb(60, 60, 60)" stroke-width="1px" opacity="0.25"></line></g><g><line x1="0" y1="178" x2="280" y2="178" fill="rgb(0, 0, 0)" stroke="rgb(60, 60, 60)" stroke-width="1px" opacity="0.25"></line><line x1="0" y1="155.75" x2="280" y2="155.75" fill="rgb(0, 0, 0)" stroke="rgb(60, 60, 60)" stroke-width="1px" opacity="0.25"></line><line x1="0" y1="133.5" x2="280" y2="133.5" fill="rgb(0, 0, 0)" stroke="rgb(60, 60, 60)" stroke-width="1px" opacity="0.25"></line><line x1="0" y1="111.24999999999999" x2="280" y2="111.24999999999999" fill="rgb(0, 0, 0)" stroke="rgb(60, 60, 60)" stroke-width="1px" opacity="0.25"></line><line x1="0" y1="88.99999999999999" x2="280" y2="88.99999999999999" fill="rgb(0, 0, 0)" stroke="rgb(60, 60, 60)" stroke-width="1px" opacity="0.25"></line><line x1="0" y1="66.75" x2="280" y2="66.75" fill="rgb(0, 0, 0)" stroke="rgb(60, 60, 60)" stroke-width="1px" opacity="0.25"></line><line x1="0" y1="44.5" x2="280" y2="44.5" fill="rgb(0, 0, 0)" stroke="rgb(60, 60, 60)" stroke-width="1px" opacity="0.25"></line><line x1="0" y1="22.25" x2="280" y2="22.25" fill="rgb(0, 0, 0)" stroke="rgb(60, 60, 60)" stroke-width="1px" opacity="0.25"></line><line x1="0" y1="0" x2="280" y2="0" fill="rgb(0, 0, 0)" stroke="rgb(60, 60, 60)" stroke-width="1px" opacity="0.25"></line></g></g></g><g><g><line x1="0" y1="155.75" x2="280" y2="155.75" fill="rgb(0, 0, 0)" stroke="rgb(153, 153, 153)" stroke-width="1.5px"></line></g></g><g><g><line x1="31.11111111111111" y1="0" x2="31.11111111111111" y2="178" fill="rgb(0, 0, 0)" stroke="rgb(153, 153, 153)" stroke-width="1.5px"></line></g></g><g><g><g><g><g><path stroke="rgb(238, 51, 119)" stroke-width="2px" d="M31.378666666666664,30.40845286846161L31.397333333333332,58.00789072258132L31.55911111111111,52.56515279679725L31.702222222222222,59.29509601415377L32.10044444444444,57.289769389465164L32.156444444444446,40.202966170226375L32.54222222222222,50.266592022925494L32.57333333333333,54.64422838997103L32.704,49.66541180156614L32.816,50.25748571139374L33.03377777777778,81.68434898542208L33.04622222222222,81.25861010338551L33.096,90.54795511144282L33.73688888888889,96.10502201159217L33.97955555555556,86.41841926520897L34.06666666666667,103.45271253594207L34.452444444444446,94.62463898094734L34.620444444444445,101.3942577226155L34.72,115.42893538541483L34.763555555555556,97.06842985496185L35.062222222222225,111.79892504632092L35.14311111111111,98.01990422137317L35.230222222222224,72.92226708365769L35.29244444444444,77.24050400550831L35.56,102.75264175879373L35.60977777777778,107.43938753585232L35.91466666666667,91.39513044558953L36.00177777777778,105.85961993844994L36.10755555555555,107.70200247044573L36.14488888888889,106.69562604020005L36.31911111111111,94.1143671233992L36.99733333333333,94.7283825172799L37.15911111111111,96.9680879193076L37.37066666666667,108.74122932712385L37.42666666666666,107.06813891742684L37.75022222222223,99.23676213826357L37.986666666666665,103.77689722858119L38.45955555555556,114.56182644191284L38.96355555555556,101.63674938548762L39.30577777777778,117.69845565505489L39.324444444444445,96.89371407368844L39.41155555555555,118.7521646602514L39.43644444444444,92.92065578633796L39.73511111111111,99.37234585110048L39.778666666666666,115.74258786489048L40.05244444444445,114.66731970776908L40.239111111111114,102.88930750199074L40.59377777777778,115.854120112689L40.77422222222222,91.08475199331112L40.87377777777778,102.43395031090284L40.973333333333336,101.17773774204932L41.321777777777775,97.41025412952217L41.639111111111106,98.68708617140972L41.75111111111111,107.49035433044085L41.80711111111111,108.17084052904467L41.89422222222222,115.35230710553734L41.906666666666666,88.12526256818614L41.925333333333334,94.33620558770116L42.19911111111111,90.78540535605595L42.59111111111111,100.95222800656813L42.647111111111116,89.9609704124318L42.728,93.43042609522288L42.74666666666667,95.40827602318743L42.79644444444445,94.06848439344492L43.04533333333333,106.60314319488893L43.15111111111111,109.11076885097222L43.232,120.04128666821319L43.568,108.86081472576934L43.78577777777778,104.82104913807423L44.040888888888894,107.28533083465302L44.15911111111111,61.86434902654729L44.72533333333333,84.359626664347L44.800000000000004,95.21831083243154L44.87466666666667,107.93300282337292L44.99911111111111,102.76265156021923L45.03644444444445,100.94538231095157L45.16088888888889,98.83683066030537L45.19199999999999,107.85903205110705L45.471999999999994,104.10662664526333L45.54666666666666,105.66478989145608L45.76444444444444,101.96680725463807L45.98222222222222,112.43336895892452L45.98844444444445,112.38524267689161L46.27466666666667,109.88385075128384L46.38044444444445,116.45323217877271L46.39288888888889,97.26703576830435L46.424,94.85280485187931L46.57955555555556,105.94723238988702L46.58577777777778,115.17691692936016L46.66044444444445,117.04351983905869L46.69155555555555,118.78066183305198L46.872,101.38418597152396L46.965333333333334,95.632423431359L47.00266666666666,106.26725387600351L47.824000000000005,111.9117281661522L48.16622222222222,106.11722294990585L48.25333333333334,111.31664645673578L48.47111111111111,96.52539053559997L49.13688888888889,98.62772895694056L49.57866666666667,119.45481399417034L49.852444444444444,119.14958952951474L50.02044444444444,108.01800542409435L50.039111111111104,106.17832392488009L50.4,106.4521111519499L50.785777777777774,116.91220087146215L51.00355555555555,106.20165957643768L51.21511111111111,118.61050316595706L51.30222222222223,125.57883037141431L51.31466666666667,108.61471575900502L51.32088888888889,118.34278422754838L51.68177777777778,120.55820316289598L52.32266666666666,116.91368479068967L52.577777777777776,109.6023931763009L52.77066666666667,109.6504214167172L53.51733333333333,114.22007245807147L53.629333333333335,110.66306123530188L53.64177777777778,102.09833343782154L53.952888888888886,101.19469011011968L54.30133333333334,102.05328946186403L54.394666666666666,106.81018739342014L54.718222222222224,112.82641954928364L54.84888888888889,125.4193854906548L54.89244444444444,116.14674492690519L55.160000000000004,94.77301024700624L55.55822222222222,104.02664648018447L55.73244444444445,93.56561787733304L55.906666666666666,99.09777980867572L56.230222222222224,104.12868810374954L56.616,115.56110893459883L56.684444444444445,109.94936074424493L57.22577777777778,109.893113823667L57.263111111111115,102.00411723332992L57.41866666666667,108.89084066660162L57.449777777777776,113.99779569590471L57.64266666666667,119.72836527768524L57.897777777777776,109.01432194180786L57.97866666666667,110.36035749164223L57.99111111111111,118.28912142007351L58.49511111111111,114.07184684460879L59.06755555555556,107.8679991550665L59.17333333333334,103.06489735692423L59.303999999999995,96.2525086218106L59.913777777777774,119.78737403607317L60.13777777777778,115.7908461249111L60.16266666666667,107.35603401536694L60.21244444444445,117.94206510225912L60.672888888888885,115.7794574503699L60.90933333333333,121.48228593784967L60.99644444444445,122.04536996729531L61.23288888888889,119.23121008703058L61.30755555555555,113.19163052312113L61.568888888888885,116.97751677462091L61.992000000000004,119.92725829056354L62.047999999999995,120.53649689116659L62.06666666666667,113.70648428145479L62.53955555555556,124.51910010911398L62.552,98.113048190623L62.888,104.38562245458343L63.06222222222222,115.12300257599344L63.71555555555556,98.95769389059541L64.27555555555556,107.11521022354124L64.37511111111111,122.31559256299161L64.46222222222222,110.41912412428387L64.84177777777778,116.66812133554032L65.43288888888888,121.97193608338995L65.44533333333332,115.09395548663682L65.64444444444445,113.60297007396676L65.88088888888889,122.39145355710329L66.36,121.27137933537936L66.45333333333333,115.634601599934L66.72711111111111,112.68900487252566L67.256,104.3923186617235L67.36177777777777,114.04521788784423L67.38044444444444,115.48825995824161L67.592,120.6694089435594L67.60444444444444,122.90427142085858L67.648,129.38804515258363L67.872,119.25489919555542L68.00266666666667,115.25368898927113L68.152,124.25293123724636L68.38844444444445,112.9303270042045L68.5128888888889,100.71196096182278L69.20355555555555,111.31825303054019L69.26577777777779,127.46169562842911L69.57688888888889,119.94313863895918L69.69511111111112,113.95059854927692L69.776,120.97961987711204L69.81333333333333,119.32662120672947L69.89422222222223,119.59955760027125L70.24888888888889,103.18152637753946L70.39200000000001,116.17370988716308L70.42311111111111,116.19493680711437L70.57244444444444,127.00276773379584L70.79022222222223,110.63824987096126L70.93955555555556,118.94512713425372L71.53688888888888,104.45962348470295L71.68622222222221,103.58160345510325L72.02222222222223,114.09401402575048L72.20266666666667,121.40407650153745L72.53866666666667,107.07720643870395L72.78133333333334,120.88314848479573L72.8,115.71304862086751L72.87466666666666,125.69804864330997L73.06755555555556,121.82168561052845L73.71466666666666,123.52064229630058L73.76444444444444,126.86370446640302L73.85777777777778,123.05547353817244L74.46133333333334,115.90984618740566L74.6231111111111,109.03121179223969L74.76,115.00051117492085L75.33244444444443,113.16739515285636L75.38222222222221,124.20950759230433L75.63733333333333,117.67527816902947L76.01688888888889,117.99606195573548L76.20977777777779,120.10633995427506L76.608,126.31831622439151L76.72,127.72511228896191L76.78222222222222,131.37771475752993L76.78844444444445,135.6392645384006L76.90666666666667,127.31011738757817L77.04977777777778,126.77053962997806L77.168,118.08391951909546L77.47288888888889,111.05282577928257L77.5351111111111,122.93515569143038L77.55377777777778,108.27848831483738L77.64711111111112,114.08848631945854L77.85244444444444,111.92314131187442L78.46222222222222,123.42965198383547L78.68,127.92375458360043L78.94755555555555,122.75783141386638L78.98488888888889,126.78718308903626L79.40177777777777,123.20517360487719L79.57600000000001,117.9629402178293L79.63822222222223,110.06904095630907L79.85600000000001,114.27654291479213L80.27288888888889,111.25754676079124L80.472,112.69008628453957L80.83911111111111,123.70656851525564L81.05688888888889,123.08903929231747L81.12533333333333,112.48965842133038L81.19999999999999,113.37668726833769L81.30577777777778,117.2282454589689L82.01511111111111,122.39315172114706L82.2328888888889,107.57779225937023L82.27022222222222,107.41085559668737L82.69955555555555,116.6197765684827L82.97333333333333,116.26126017388518L83.15377777777778,130.29279572950526L83.18488888888889,121.99528213316887L83.24088888888889,121.1335657198218L83.80088888888889,121.64601697609771L83.81955555555555,119.5579653688707L83.99377777777778,133.01154023628683L84.05600000000001,123.97874103425443L84.41688888888888,123.82139428978562L84.63466666666667,126.76171335836409L84.84,121.67677199347878L84.84622222222222,117.25110375535115L85.21955555555556,106.44517235617487L85.99111111111111,121.38418397818266L86.00977777777777,111.25410066600345L86.35822222222222,123.38693163119038L86.52,112.46931932100566L86.53866666666666,123.67752014241184L86.66933333333333,123.82659420278296L86.7128888888889,120.65062120221705L87.07377777777778,115.26625373527466L87.11111111111111,110.90736213451649L87.45955555555555,109.1485614498497L87.50933333333333,109.51088892301085L88.52355555555556,118.82616593392754L88.5671111111111,113.87750638306962L88.73511111111111,117.18334948581784L89.08355555555556,121.10767580990922L89.28266666666667,123.65369955321125L89.68088888888889,112.74321564086266L89.69955555555556,105.96339108714655L89.824,111.58961535064059L89.86755555555555,120.83611483054429L90.02933333333334,121.94962667495835L90.46488888888888,123.9062507354054L90.52088888888889,118.05402901829612L90.56444444444443,128.82316768193775L90.64533333333333,125.31591198305102L90.78222222222223,133.77078593556013L91.01866666666666,122.63214767737756L91.20533333333333,112.55768351262239L91.34844444444444,120.75791434647809L91.46044444444445,116.7081577050772L91.896,112.57984088433133L92.36266666666666,99.62195691793102L92.61155555555557,116.9151093227821L92.7608888888889,119.86816281430552L93.16533333333334,114.75488096913745L93.65066666666667,123.21540732186455L93.68177777777777,121.50131456355817L93.70044444444446,121.9911617747965L93.86222222222221,119.51324992177973L94.38488888888888,123.07943577139811L94.49066666666667,118.85050890373881L94.93244444444444,123.3481494730818L95.05688888888889,109.32054362976979L95.10044444444445,124.96662887919715L95.80355555555555,117.88175679142782L95.82222222222222,117.29919197617176L95.95288888888888,123.45971082084657L96.32,120.52200235399914L96.38222222222223,108.4156878857744L96.40711111111112,111.14267259563732L96.58755555555555,112.36402854661435L96.79288888888888,111.27376496629036L97.11644444444445,115.2868894078776L97.22222222222221,113.79248566482244L97.30933333333334,109.95942590655396L97.4088888888889,111.21799863535765L97.51466666666667,125.02222743941786L97.76355555555556,119.26251648491001L98.04977777777778,123.03776920487633L98.056,112.08131150116581L98.19288888888889,118.60044617189986L98.23644444444444,114.33034848117438L98.41066666666666,105.6457311618074L98.47288888888889,110.86643623839791L98.57244444444444,107.15998017005515L98.62844444444445,118.2070035783942L98.71555555555555,118.06347715252619L98.952,120.73987099436515L98.97066666666666,128.99030877389546L99.18222222222222,119.16726246968125L99.20711111111112,124.36766292798605L99.35022222222221,114.65073309500251L99.38755555555556,106.60976312621129L99.39999999999999,116.76584752177672L99.64888888888888,121.01758553495199L99.68622222222223,123.55475565060054L99.76711111111112,116.55591730332006L99.79822222222222,124.94471281590315L100.19644444444445,121.78175391633212L100.31466666666667,126.17578904034256L100.37066666666666,121.5977132770481L100.65066666666667,112.2399414629961L100.79377777777778,122.57333906521299L100.80622222222223,117.16783631356518L100.81244444444444,115.28371817225997L101.17955555555555,112.92921350888325L102.16888888888889,127.3672519355691L102.49866666666667,135.08180595679787L102.62311111111111,130.26850613551818L102.816,113.58024929452928L102.872,125.03008546675838L102.97777777777777,129.3789532057766L103.08355555555556,124.48277057497992L103.27644444444444,111.95376523798423L103.59377777777779,114.90018884923344L103.73688888888888,121.25220460627989L103.82400000000001,119.18268114699725L104.28444444444445,116.61302833109619L104.99377777777778,128.71081756219078L105.59111111111112,125.03527310854119L105.62222222222222,119.64031964685887L105.84622222222222,119.71501883624543L106.03911111111111,127.43969146066327L106.64266666666667,120.49304721168048L106.80444444444444,119.49421673431543L106.82933333333334,122.57106270110427L106.92888888888889,124.34485549714493L107.19022222222222,117.36475185994834L107.58844444444445,127.59396601371778L107.60711111111111,133.47283335811022L107.70666666666666,117.02287867530634L108.30399999999999,119.05218918269654L108.63377777777777,123.00069728352935L109.22488888888888,124.45189379397357L109.95911111111111,133.34938414938577L110.13333333333333,122.0379075176411L110.50044444444445,127.17582987887236L110.60000000000001,125.83609364735116L110.79288888888888,109.70755096895307L111.24088888888889,126.15261492728317L111.35911111111112,115.06440840899594L111.62666666666667,107.4629280397878L111.75111111111111,107.98945818760339L112.112,105.09507146445252L112.21777777777778,116.58338647322789L112.38577777777778,129.4100398875254L112.51644444444445,126.43517948118756L112.5911111111111,117.07399983923796L112.68444444444444,127.44372069923546L112.70933333333333,128.99845147987588L112.81511111111111,122.09177617623561L113.03911111111111,129.91099229785465L113.28800000000001,122.39557562006577L113.49333333333333,118.73892808996861L114.17777777777778,131.66258678552796L114.50755555555556,129.40428172783965L114.53244444444444,127.66604838813112L114.65688888888889,109.70428970871275L114.96177777777777,112.76216766404274L115.14222222222222,110.91193012065554L115.40355555555556,124.31685011204824L115.72088888888888,122.54125336753029L115.864,121.93545318324048L116.2311111111111,127.16386016951472L116.24977777777777,127.36826470393527L116.65422222222222,126.65470634956593L116.83466666666666,126.41085948272321L117.04622222222223,123.82328775017966L117.264,126.05270859396262L117.40711111111112,125.40046988346498L117.50666666666667,122.85802853671042L117.83644444444445,124.71433056371342L117.96088888888889,125.21858833373359L118.04177777777778,124.24303465640851L118.0791111111111,114.28223689767245L118.21600000000001,131.03548217725265L118.72622222222223,128.7660267106156L119.60355555555556,120.79727399404686L120.01422222222223,113.36256491564052L120.02044444444444,128.9354165896171L120.05777777777777,126.14314752039883L120.11377777777778,124.93119288819064L120.21955555555556,121.9279329770288L120.29422222222223,124.84265626345004L120.33155555555555,117.64180716921459L120.69866666666667,124.01272256692079L121.00977777777777,130.4646273665918L121.30222222222223,128.71253475102952L121.52622222222222,125.363664167834L121.67555555555555,128.75106870341804L121.69422222222222,119.67885749919616L122.16088888888889,129.1651218337651L122.19822222222221,125.96519431731447L122.3848888888889,116.89515259816784L122.44088888888889,123.21493018400486L122.46577777777777,112.07310698621198L122.50311111111111,113.08925222185343L123.07555555555555,129.01180606614386L123.08177777777779,131.141710115595L123.13155555555556,127.93895486518674L123.15644444444445,118.77380330473159L123.26222222222222,123.91157516682136L123.66044444444445,120.97980258104798L123.77866666666667,113.12228269224403L123.99022222222223,123.16613103636121L124.13955555555556,115.78239038810338L124.61866666666667,111.884346244634L125.01066666666667,119.67972801840338L125.29688888888889,120.20718095090403L125.57066666666667,123.73621945236688L125.6888888888889,114.02666890682603L126.10577777777777,113.75034989739189L126.46666666666667,106.19434695372871L126.60977777777778,105.67980691365358L127.11377777777777,115.89402231105944L127.288,112.87523979655417L127.39377777777777,102.35547568484748L127.40622222222223,105.45076630645833L127.60533333333333,115.25843259993727L127.79822222222222,117.90235609681818L128.16533333333334,112.69381162572468L129.0551111111111,124.40335159023033L129.20444444444445,126.76942431934447L129.26044444444446,126.11762188676107L129.29777777777778,128.6110360232119L129.584,111.99803125042217L129.60266666666666,121.04507009358602L129.72088888888888,130.5159057678636L129.83911111111112,118.951903876736L130.54222222222222,123.391307483941L130.62933333333334,127.81647707356203L131.264,125.9081269659924L131.39466666666667,128.91459552827786L131.84266666666667,120.72024912191752L131.90488888888888,124.05028955560257L132.22222222222223,127.3839036588225L132.6702222222222,105.68167560356271L132.8071111111111,117.62074055446152L132.9128888888889,129.41345299600746L133.1991111111111,121.89876889514599L133.41066666666666,111.76595738113987L133.81511111111112,115.31447452736325L134.1511111111111,129.74388449065856L134.3128888888889,130.26573327848502L134.344,110.0342244681485L134.78577777777778,121.34952042432695L135.00977777777777,132.23868255836595L135.31466666666668,117.18810800670714L135.70044444444443,127.50570809626234L135.70666666666668,123.25444788250785L135.91822222222223,123.92463439608994L136.00533333333334,123.54074014238668L136.26666666666668,121.87784897938234L137.3057777777778,133.4019123466009L137.49866666666665,128.2435925081847L137.71022222222223,118.326979714651L138.08977777777778,123.57389031321568L138.15200000000002,120.76725913423604L138.38222222222223,131.14493911872626L138.432,131.2676903306358L138.58755555555555,126.02515889699907L138.69955555555555,123.02422004787385L138.712,118.97544021248126L138.8551111111111,126.0095781821581L138.86133333333333,129.008798726194L138.86755555555555,127.67969135504677L138.88622222222222,130.8719418627489L139.00444444444446,118.97858850588275L139.22222222222223,119.51455706032067L139.41511111111112,122.32563604582131L139.54577777777777,123.02522768147301L139.65777777777777,117.8589002194703L139.72,107.80994466255905L140.27377777777778,132.11775260020613L140.3608888888889,126.8160100548439L140.48533333333333,118.83116609628888L140.54133333333334,128.67940962101375L140.58488888888888,121.61804820958915L140.5911111111111,128.5917936890886L140.77155555555555,126.32526429711046L140.83377777777775,118.11548611360098L140.95822222222222,124.81591563085637L141.38755555555556,120.49893480751881L141.69244444444445,128.0032697253981L141.69866666666667,133.41464587856564L141.89777777777778,127.13195374085201L142.1342222222222,128.50317496820765L142.8248888888889,129.40935641607433L142.8808888888889,126.0956699076525L142.98044444444446,123.0747902084681L142.99911111111112,123.13241016077171L143.0551111111111,121.46429026556879L143.22933333333333,123.09866224699365L143.44711111111113,118.19034205565114L143.52177777777777,113.90594062582358L143.76444444444445,123.88354845494311L143.92000000000002,118.38791025936715L144.0257777777778,121.71360689157294L144.4488888888889,117.88785161874313L144.5857777777778,112.2070993246699L144.76,123.87698884927491L145.096,120.80982352444829L145.36977777777776,120.11065635839822L145.92355555555557,126.32490066889811L145.92977777777776,118.04870690138694L146.5208888888889,122.34353544605396L146.8008888888889,129.63306660818108L147.55377777777778,129.49254068083383L147.59733333333332,118.11441563704341L148.37511111111112,117.77683193937432L148.6737777777778,110.85349401217894L148.9226666666667,113.87822256587822L149.07822222222222,122.43752479320915L149.19644444444444,106.68895949032365L149.22755555555554,109.3956940903523L149.37066666666666,106.00072889861498L149.50755555555554,122.44937907715453L149.63822222222223,111.43707568569904L150.06133333333335,115.98004830628207L150.39111111111112,122.46435779630966L150.752,124.6801593926542L151.02577777777776,126.3060419689414L151.05066666666667,131.12135517520892L151.2062222222222,121.55461087941404L152.35733333333334,118.53948396193692L152.45066666666668,126.40937376294616L152.46933333333334,126.90358982493115L152.60622222222221,126.60856120391541L152.64355555555554,115.69475851696274L152.94222222222223,116.02873780177649L153.03555555555556,122.41639018643545L153.28444444444443,118.226233049586L153.32177777777778,123.88737561975105L153.4088888888889,125.08161240835659L153.47733333333335,129.74050301246712L153.53333333333333,114.47639269504097L153.81955555555555,101.53144231785592L153.888,113.121656335788L153.92533333333333,120.84107321496685L154.29244444444444,105.4219852536753L154.46044444444445,120.48788648768604L154.60355555555554,125.25647904321289L155.0391111111111,120.00370607066048L155.17600000000002,122.75292833710867L155.38133333333332,123.27707350478632L155.48711111111112,121.27326370567506L155.53066666666666,127.70623540347982L155.77955555555556,116.88914145168133L155.86044444444445,113.60992958401229L155.89155555555556,124.26869980173146L155.92888888888888,129.41584623724953L155.94755555555554,124.74072032618813L156.42044444444446,132.81698021371483L156.42666666666665,132.25188820244597L156.43911111111112,138.08887711835592L156.70044444444446,139.5355056834129L156.71911111111112,134.5373961133026L156.912,130.94400878284426L157.08,126.27873889519392L157.09866666666667,130.15397509774016L157.12977777777778,132.97997798930783L157.47822222222223,118.66009855781465L157.57155555555556,113.48301319535362L157.62755555555555,115.15969749294038L157.64,124.68090163892434L157.94488888888887,131.86261101653545L158.032,121.30033035661924L158.29955555555554,120.03376133029123L158.57955555555554,117.22019636793715L158.83466666666666,122.02063949024193L158.91555555555556,118.1920534684877L158.92177777777778,117.2254304981081L159.0462222222222,118.83568746381394L159.05866666666668,127.88571199986693L159.08977777777778,126.55267259414337L159.15822222222224,126.0609955099636L159.8488888888889,118.01327380766128L159.97955555555555,112.49037496240796L160.40266666666665,122.9037615904882L160.4088888888889,121.33056009509858L160.42755555555556,123.34023384580492L160.43377777777778,117.47044851414154L160.67644444444446,121.3288537210496L160.73244444444444,130.1932491735626L160.88177777777776,122.77482443008854L161.0871111111111,119.47031905384475L161.24266666666665,121.66518246633456L161.46666666666667,110.84385791074293L161.7031111111111,114.94884746681076L161.952,106.52465154890388L162.00177777777776,115.59921594973073L162.20088888888887,127.65983375118441L162.28177777777776,127.36706119609383L162.67999999999998,135.66501577504476L163.08444444444444,128.98300740245185L163.22755555555557,132.33917883981547L163.75022222222222,118.5693686478308L163.76888888888888,111.23124018849813L163.79999999999998,119.59029391325268L164.2168888888889,127.31159992184939L164.32888888888888,125.2604762943256L164.79555555555558,127.84128585956168L165.0382222222222,133.23119426643518L165.04444444444445,128.19779238005745L166.02133333333333,123.98238634874528L166.28266666666667,131.32068825288655L166.2888888888889,127.60783121198034L166.69333333333336,130.7907477893814L166.73066666666668,123.32908296797214L166.85511111111109,121.68497587378238L166.89244444444446,129.8894680738863L167.02311111111112,133.69027662278876L167.06044444444444,137.27749392539926L167.4337777777778,125.16067407042053L167.8008888888889,129.60189389491188L168,130.82972752175374L168.04355555555554,117.11357872733133L169.3751111111111,113.53228259453637L169.5306666666667,111.51795807031577L169.61155555555558,123.80375010117007L169.77955555555556,112.74701412158852L169.8231111111111,118.4223622327552L169.89155555555556,124.70391714505378L169.92266666666666,124.59930797192266L169.97244444444445,125.98013568032903L170.05955555555556,129.03130739747138L170.23377777777776,124.85847078638731L170.6631111111111,122.15051111430907L170.68177777777777,122.3177526587287L170.9431111111111,118.35502351051724L171.16088888888888,123.2334683298117L171.39111111111112,127.28089937355304L171.95733333333334,118.99127478365573L172.0568888888889,113.83445842500318L172.72266666666667,120.80491930071827L172.76622222222224,112.63549637426661L172.84088888888888,116.6285612195918L173.1582222222222,124.63115635753428L173.2266666666667,121.74877632654012L173.23288888888888,121.20113203474403L173.79288888888888,131.70269071454214L173.81155555555554,128.11532926020783L174.72622222222222,121.8837823622734L174.7511111111111,119.3878872177327L174.75733333333332,122.29319014276362L174.86311111111112,125.77453063378849L174.95644444444443,116.73460226039137L175.01866666666666,103.65871369353948L175.0871111111111,117.12233098849461L175.11822222222222,128.48444391739292L175.14933333333335,125.4999864248511L175.17422222222223,122.4714017613958L175.21155555555555,120.55765768405718L175.3608888888889,118.06826413081853L175.42311111111113,118.67223220182167L175.58488888888888,118.22968151961845L175.59733333333332,106.78288029052845L175.86488888888888,111.42807780471655L176.008,111.79132936107003L176.32533333333333,111.24683647883685L176.47466666666665,120.62710780911745L176.59288888888887,125.75279366031528L176.68,126.99751882624722L176.88533333333334,130.66515557466784L177.58844444444446,123.51117900460495L177.89333333333332,112.68510534643941L178.27288888888887,107.18649828594849L178.39733333333334,116.61751532171934L178.4657777777778,130.58112876634704L178.59022222222222,123.74349260835213L178.96355555555556,130.37034429364746L179.04444444444445,122.32605401775577L179.27466666666666,119.21676696678534L179.39911111111113,115.86155406620317L179.46755555555555,130.0951164910643L180.00266666666667,118.96937930830116L180.0648888888889,126.1628865639281L180.94222222222223,118.38697026381539L181.17244444444444,125.10179515961666L181.1848888888889,132.89020098461253L181.36533333333335,130.71809501161593L181.60799999999998,125.19962115570075L181.90666666666664,132.56604450040726L182.20533333333336,128.51735204247103L182.21777777777777,134.86375259225554L182.26755555555553,132.5214107118149L182.45422222222223,129.1721521797617L182.59733333333332,134.3141068195935L182.68444444444447,131.70837446950418L183.0391111111111,134.48824267497676L183.63644444444444,134.23547499194152L183.91644444444444,130.2748038602448L183.94133333333335,127.82791108270789L184.31466666666665,130.55351941513143L184.6008888888889,134.5149923296357L184.78755555555554,138.54829562133887L184.92444444444442,116.58732199838295L184.9742222222222,120.94171928235107L185.3662222222222,126.07238064405605L185.73333333333332,131.12906073062533L185.92000000000002,132.9645709918098L186.0568888888889,121.03914430593079L186.26222222222225,117.18079943748165L186.44266666666667,126.28741777233024L186.72266666666667,127.88162898984248L186.96533333333332,130.7493064998257L187.50044444444447,121.59499818826387L187.95466666666667,127.22561302629975L188.1102222222222,124.26667155413972L188.1911111111111,126.6287367451753L188.2471111111111,129.36439090057476L188.7386666666667,130.7408673086137L189.10577777777777,122.64650123093011L189.81511111111112,123.40036295761061L189.90844444444443,117.83037640764073L190.232,129.12014604678257L190.4,115.237533756874L190.78577777777778,118.09198413095154L190.94133333333332,115.12248947938792L191.49511111111113,129.46147888862296L191.72533333333334,126.43091264054459L191.9431111111111,132.56980277621858L192.04266666666666,124.33994020233197L192.14844444444444,124.60361928526419L192.40355555555556,112.7192650960241L193.07555555555555,117.11368670170918L193.1751111111111,111.78105702491767L193.30577777777776,111.2791179010954L193.36177777777777,118.02335818120585L193.46133333333333,126.6329485327353L193.85333333333335,119.82487937362393L193.85955555555554,119.01821978062947L193.94666666666666,130.87095905783994L194.63111111111112,106.64747230686037L194.71200000000002,122.05682572042858L194.78044444444444,126.49360862847533L195.34044444444444,101.03466645072446L195.40266666666665,103.03263467327969L195.81955555555555,114.20165923148878L196.08088888888886,121.03477353567078L197.064,117.97320158616381L197.30044444444442,119.25072662765056L197.58666666666667,126.61439212579238L197.59911111111109,124.25079611606878L197.848,128.04951200154417L197.85422222222223,129.25499849425552L197.86044444444443,130.54148005185243L197.95999999999998,125.77797200923251L198.04088888888887,114.0665025547945L198.05333333333334,119.3470836365542L198.66933333333333,130.60427855886306L199.60266666666666,128.0993501745156L200.00088888888888,126.95380272030795L200.0382222222222,124.43347612345204L200.07555555555558,123.06222172508234L200.10044444444443,128.03528272084233L200.10666666666665,125.47388833650683L200.57333333333335,129.8745622369696L200.82222222222222,124.31017192435459L201.16444444444446,126.60800788395483L201.84266666666667,120.9854678773597L201.91111111111113,132.07896731351673L201.9608888888889,121.70819536866688L202.25955555555555,118.81362817544516L202.4088888888889,125.68822506262372L202.65777777777777,131.37555913853052L202.67644444444443,128.27593965471746L202.86933333333334,127.7544637218752L202.93155555555558,132.44870554762636L202.9751111111111,135.1084826265079L203.0871111111111,135.37298626276063L203.4417777777778,132.33499947641175L203.56622222222222,136.60951575966232L203.58488888888888,134.89430797082804L203.71555555555554,132.16308501728423L204.2506666666667,131.30537063029627L204.81688888888888,131.8357320143172L204.82933333333335,134.26157519349013L205.02844444444446,127.97971899560511L205.14044444444443,124.49582565626073L206.90133333333333,121.71866490413973L207.0631111111111,128.12515450679354L207.3368888888889,135.24781435072657L207.6791111111111,135.4011770244548L208.0648888888889,123.30272308810986L208.1457777777778,121.64752458214537L208.7182222222222,128.34347862821727L208.89866666666666,109.77383671431505L209.14133333333334,125.6184475843261L209.5457777777778,129.9041228850345L210.88355555555557,125.7708547725145L211.3751111111111,131.89457138310328L211.53688888888888,116.37873690001351L211.67377777777776,114.23837944337598L211.792,120.80855280396887L211.91644444444444,129.36143493448714L211.94755555555557,129.30299292274324L212.04711111111112,134.31968450230562L212.1217777777778,127.86573648028454L212.22133333333335,127.76558253446373L212.38933333333333,125.78427953532994L212.81244444444442,134.58091473236345L213.11733333333333,114.91484146278964L213.19822222222223,114.86012252752728L213.24800000000002,122.64676442726352L213.48444444444445,125.59602042132178L213.83911111111112,125.1522569605452L214.28711111111113,112.27737372313905L214.49244444444443,127.23653301872797L214.536,126.34226415118768L214.59199999999998,132.0737217925437L214.90311111111112,127.821664404867L214.92177777777778,122.69114233434117L215.05244444444443,117.00358600568737L215.1271111111111,124.3343504608749L215.24533333333335,120.10568136040683L215.36355555555556,120.32236106272265L216.20977777777776,110.04507407079429L216.71377777777778,117.16735492162024L216.72,116.0778769920751L216.93155555555555,125.82728077080785L217.04977777777776,114.12869374297833L217.336,126.135628011943L217.78400000000002,129.72627540116355L217.81511111111112,132.3926778107776L217.97688888888888,125.06979742228563L218.26311111111113,124.84906813633273L218.35644444444443,118.79738902203968L218.63644444444444,121.24765604248734L218.86666666666665,129.47557885452545L219.13422222222223,117.90936483245864L219.25866666666667,127.35528260986715L219.296,135.87800592465484L219.37688888888889,133.14046998136553L219.5511111111111,121.03784117773498L219.81866666666667,112.36492269158492L220.06755555555554,119.19533230233243L220.40355555555556,122.21047279633302L220.48444444444442,127.18984872260577L220.64000000000001,128.19769479844524L220.68355555555556,122.80928796435813L220.70844444444444,117.11217851005165L221.32444444444442,115.1765853308128L221.3431111111111,101.44614371925539L221.48000000000002,115.71840273100116L221.59199999999998,124.10802415413848L221.79111111111112,130.88284252222653L222.1768888888889,123.26200752411793L222.26399999999998,119.17851080777052L222.36977777777778,121.13056586248398L222.376,124.76856899385739L222.63733333333334,120.15062294205066L223.25333333333333,132.65523784031484L223.42133333333334,127.72814018048848L223.98755555555556,133.20595735517344L224.32977777777776,123.19138896845658L224.65955555555556,125.18859188410792L225.33155555555555,128.70158732147277L225.4,131.53291727015878L226.16533333333334,106.87971851889094L226.53244444444445,116.33197283114512L226.76266666666666,122.66907381610282L226.89333333333335,118.74243865150692L227.12355555555555,121.0330097138424L227.34755555555554,127.68217052010851L227.3537777777778,121.47784378325207L227.50933333333333,118.81681503780788L227.8951111111111,121.40742924532535L227.93244444444446,100.67826896795128L228.02577777777776,121.49222606078185L228.3368888888889,127.79529640984691L228.49866666666668,132.40612436001362L228.60444444444443,134.68702742498064L228.74755555555555,133.65585356147466L229.03377777777777,133.01078353202888L229.43822222222224,117.92577691128471L229.48177777777778,132.93486158152666L229.53155555555557,135.32802619775234L229.83022222222223,131.49878644566775L229.88622222222222,121.6238229513011L230.25333333333333,112.20277330636347L230.33422222222222,123.91962392249451L231.23644444444446,131.5227937444796L231.3111111111111,122.33311020015674L231.51644444444446,119.53488632809717L231.5288888888889,130.7274353837832L231.77777777777777,126.99771242135222L232.1822222222222,130.77681512055182L232.64266666666666,131.96761014552862L232.93511111111113,127.64875515497508L233.1591111111111,118.9075323877604L233.33955555555553,126.4939379823852L233.51999999999998,123.89272450139714L233.60088888888887,129.906912493877L233.61955555555554,134.93453547112043L234.03022222222222,124.47363385906576L234.04888888888888,131.44905753871106L234.31644444444444,128.1554866569849L234.5591111111111,121.3102889175261L234.62133333333333,107.68014417747834L234.64,109.21950672928563L234.96977777777778,118.35352149005361L235.6728888888889,128.5691056264763L235.68533333333335,133.102564888977L235.79111111111112,131.34107497147045L235.8346666666667,127.49625360890752L235.84088888888888,125.42409720092823L235.88444444444445,130.53575696575567L236.2888888888889,130.23951116339532L236.3137777777778,129.97962398285136L236.46311111111112,122.13691053173727L236.53777777777776,130.6033726983042L236.61866666666666,131.6827616034556L236.66222222222223,129.76552292162611L237.16622222222222,127.47924998632841L237.37155555555557,119.08579939397882L237.39644444444443,129.9894912152696L237.56444444444443,130.77720932674242L237.57688888888887,122.58863728200132L237.99377777777778,123.3257381427476L238.03111111111113,119.09174259436881L238.13688888888888,122.33682086639705L238.57244444444447,124.21538509109855L238.63466666666665,128.7828995729158L238.74044444444445,121.54112629571237L238.784,125.67409574679009L238.80266666666665,107.22194265898652L238.84622222222222,112.64212991874054L238.8897777777778,124.82322045050317L238.95822222222222,134.86644327494403L239.80444444444444,131.3590031528588L240.03466666666665,116.17052924490436L240.37688888888889,121.80828898343032L240.42044444444443,127.38603953398301L240.8248888888889,126.2113341813367L240.98044444444443,126.80743704935239L241.03644444444444,123.84928385396927L241.11111111111111,129.4198473946954L241.22933333333336,135.1840614882789L241.3351111111111,122.10070828726617L241.42844444444447,130.36277247222552L241.67111111111112,132.84390452058034L241.7457777777778,133.83378019526964L241.90133333333333,123.23964678931381L242.08800000000002,129.25354661966622L242.13155555555556,131.142379599761L242.49244444444443,133.6778046664401L242.56088888888888,106.44092908608134L242.77866666666665,112.93464628500627L242.8968888888889,122.8420055385148L242.94044444444444,113.4450850720491L243.2266666666667,128.27012985240563L243.376,132.02942906857984L243.55022222222223,136.40452057189327L243.5688888888889,136.17015778001777L243.7866666666667,135.13500390242191L244.2097777777778,127.33787349925697L244.36533333333335,122.21757161146904L244.57688888888887,120.33337157925567L244.59555555555553,119.20961518570026L244.8008888888889,123.46993151300842" style="fill: none;" fill="none"></path></g></g></g></g><g opacity="0.2"><g><g><g><path stroke="rgb(238, 51, 119)" stroke-width="2px" d="M31.378666666666664,30.40845286846161L31.397333333333332,69.0476658642292L31.55911111111111,49.51721955835819L31.702222222222222,63.49458058178425L32.10044444444444,55.98710921406746L32.156444444444446,28.928409934043884L32.54222222222222,56.94819551706314L32.57333333333333,57.55787108838558L32.704,46.348376020789146L32.816,50.652098178863525L33.03377777777778,102.63339427113533L33.04622222222222,80.97479608654976L33.096,96.7407478839159L33.73688888888889,99.80970841646194L33.97955555555556,79.96070143580437L34.06666666666667,114.80889585614204L34.452444444444446,88.73925913870335L34.620444444444445,105.90733610838652L34.72,124.78538651764393L34.763555555555556,84.82809317111969L35.062222222222225,121.61925506591797L35.14311111111111,88.83389037847519L35.230222222222224,56.190509021282196L35.29244444444444,80.11932861804962L35.56,119.76073358952999L35.60977777777778,110.56388472020626L35.91466666666667,80.69895905256271L36.00177777777778,115.5026129335165L36.10755555555555,108.9302574917674L36.14488888888889,106.02470842003822L36.31911111111111,85.72686117887497L36.99733333333333,95.13772611320019L37.15911111111111,98.46122485399246L37.37066666666667,116.58999026566744L37.42666666666666,105.9527453109622L37.75022222222223,94.01584428548813L37.986666666666665,106.8036539554596L38.45955555555556,121.75177925080061L38.96355555555556,93.02003134787083L39.30577777777778,128.4062598347664L39.324444444444445,83.02388635277748L39.41155555555555,133.32446505129337L39.43644444444444,75.69964987039566L39.73511111111111,103.67347256094217L39.778666666666666,126.6560825407505L40.05244444444445,113.95047426968813L40.239111111111114,95.03729936480522L40.59377777777778,124.49732851982117L40.77422222222222,74.57183991372585L40.87377777777778,110.00008252263069L40.973333333333336,100.34026269614697L41.321777777777775,94.89859838783741L41.639111111111106,99.53830753266811L41.75111111111111,113.35919976979494L41.80711111111111,108.62449799478054L41.89422222222222,120.13995148986578L41.906666666666666,69.97389954328537L41.925333333333334,98.47683426737785L42.19911111111111,88.41820520162582L42.59111111111111,107.73010977357626L42.647111111111116,82.63346534967422L42.728,95.74339655041695L42.74666666666667,96.72684264183044L42.79644444444445,93.1752899736166L43.04533333333333,114.95958239585161L43.15111111111111,110.78251928836107L43.232,127.32829854637384L43.568,101.40716676414013L43.78577777777778,102.12787207961082L44.040888888888894,108.92818529903889L44.15911111111111,31.583694487810135L44.72533333333333,99.35647842288017L44.800000000000004,102.45743361115456L44.87466666666667,116.40946415066719L44.99911111111111,99.31575071811676L45.03644444444445,99.7338694781065L45.16088888888889,97.43112955987453L45.19199999999999,113.8738329783082L45.471999999999994,101.60502304136753L45.54666666666666,106.70356538891792L45.76444444444444,99.50148549675941L45.98222222222222,119.41107676178217L45.98844444444445,112.35315848886967L46.27466666666667,108.21625613421202L46.38044444444445,120.83281979709864L46.39288888888889,84.47623816132545L46.424,93.24331757426262L46.57955555555556,113.3435174152255L46.58577777777778,121.3300399556756L46.66044444444445,118.28792177885771L46.69155555555555,119.93875649571419L46.872,89.78653539717197L46.965333333333334,91.79791507124901L47.00266666666666,113.35714083909988L47.824000000000005,115.67471102625132L48.16622222222222,102.2542194724083L48.25333333333334,114.78292879462242L48.47111111111111,86.66455325484276L49.13688888888889,100.02928790450096L49.57866666666667,133.33953735232353L49.852444444444444,118.9461065530777L50.02044444444444,100.59694935381413L50.039111111111104,104.95186959207058L50.4,106.63463596999645L50.785777777777774,123.88559401780367L51.00355555555555,99.06129871308804L51.21511111111111,126.88306555896997L51.30222222222223,130.22438184171915L51.31466666666667,97.30530601739883L51.32088888888889,124.8281632065773L51.68177777777778,122.03514911979437L52.32266666666666,114.48400587588549L52.577777777777776,104.72819876670837L52.77066666666667,109.6824402436614L53.51733333333333,117.266506485641L53.629333333333335,108.29172042012215L53.64177777777778,96.38851490616798L53.952888888888886,100.59226122498512L54.30133333333334,102.6256890296936L54.394666666666666,109.98145268112421L54.718222222222224,116.83724098652601L54.84888888888889,133.8146961182356L54.89244444444444,109.96498455107212L55.160000000000004,80.52385379374027L55.55822222222222,110.19573730230331L55.73244444444445,86.59159880876541L55.906666666666666,102.78588776290417L56.230222222222224,107.48262696713209L56.616,123.1827228218317L56.684444444444445,106.20819528400898L57.22577777777778,109.85561587661505L57.263111111111115,96.74478617310524L57.41866666666667,113.48198962211609L57.449777777777776,117.40243238210678L57.64266666666667,123.54874499887228L57.897777777777776,101.8716263845563L57.97866666666667,111.25771452486515L57.99111111111111,123.57496403902769L58.49511111111111,111.26033046096563L59.06755555555556,103.73210069537163L59.17333333333334,99.86282949149609L59.303999999999995,91.71091613173485L59.913777777777774,135.47728431224823L60.13777777777778,113.12649418413639L60.16266666666667,101.73282594233751L60.21244444444445,124.99941916018724L60.672888888888885,114.33771901577711L60.90933333333333,125.28417159616947L60.99644444444445,122.4207593202591L61.23288888888889,117.3551035001874L61.30755555555555,109.16524414718151L61.568888888888885,119.50144094228745L61.992000000000004,121.8937526345253L62.047999999999995,120.94265595823526L62.06666666666667,109.15314254164696L62.53955555555556,131.72751066088676L62.552,80.50901357829571L62.888,108.56733863055706L63.06222222222222,122.2812559902668L63.71555555555556,88.18082143366337L64.27555555555556,112.55355444550514L64.37511111111111,132.44918078929186L64.46222222222222,102.4881451651454L64.84177777777778,120.83411947637796L65.43288888888888,125.50781258195639L65.44533333333332,110.50863508880138L65.64444444444445,112.6089797988534L65.88088888888889,128.250442545861L66.36,120.52466318756342L66.45333333333333,111.87674977630377L66.72711111111111,110.72527372092009L67.256,98.86119452118874L67.36177777777777,120.48048403859138L67.38044444444444,116.4502880051732L67.592,124.12350826710463L67.60444444444444,124.39417973905802L67.648,133.71056097373366L67.872,112.4994685575366L68.00266666666667,112.58621551841497L68.152,130.25242606922984L68.38844444444445,105.38192418217659L68.5128888888889,92.56638360023499L69.20355555555555,118.38911440968513L69.26577777777779,138.2239906936884L69.57688888888889,114.93076731264591L69.69511111111112,109.9555718228221L69.776,125.66563409566879L69.81333333333333,118.22462209314108L69.89422222222223,119.78151519596577L70.24888888888889,92.23617222905159L70.39200000000001,124.83516556024551L70.42311111111111,116.20908808708191L70.57244444444444,134.20798835158348L70.79022222222223,99.72857129573822L70.93955555555556,124.48304530978203L71.53688888888888,94.80262105166912L71.68622222222221,102.99625676870346L72.02222222222223,121.1022877395153L72.20266666666667,126.27745148539543L72.53866666666667,97.52595973014832L72.78133333333334,130.08710984885693L72.8,112.26631537824869L72.87466666666666,132.3547153249383L73.06755555555556,119.23744358867407L73.71466666666666,124.65328008681536L73.76444444444444,129.09241257980466L73.85777777777778,120.51665291935205L74.46133333333334,111.14609462022781L74.6231111111111,104.44545552879572L74.76,118.9800440967083L75.33244444444443,111.94531780481339L75.38222222222221,131.57091588526964L75.63733333333333,113.31912522017956L76.01688888888889,118.2099178135395L76.20977777777779,121.51319195330143L76.608,130.4596337378025L76.72,128.66297633200884L76.78222222222222,133.81278306990862L76.78844444444445,138.4802977256477L76.90666666666667,121.75735262036324L77.04977777777778,126.41082112491131L77.168,112.29283944517374L77.47288888888889,106.36542995274067L77.5351111111111,130.85670896619558L77.55377777777778,98.50737673044205L77.64711111111112,117.96181832253933L77.85244444444444,110.479577973485L78.46222222222222,131.10065909847617L78.68,130.91982298344374L78.94755555555555,119.3138826340437L78.98488888888889,129.47341753914952L79.40177777777777,120.81716728210449L79.57600000000001,114.46811795979738L79.63822222222223,104.8064414486289L79.85600000000001,117.08154422044754L80.27288888888889,109.24488265812397L80.472,113.64511263370514L80.83911111111111,131.05089000239968L81.05688888888889,122.67735314369202L81.12533333333333,105.423404507339L81.19999999999999,113.96803983300924L81.30577777777778,119.79595091938972L82.01511111111111,125.83642256259918L82.2328888888889,97.70088595151901L82.27022222222222,107.29956448823214L82.69955555555555,122.75905721634626L82.97333333333333,116.0222492441535L83.15377777777778,139.64715276658535L83.18488888888889,116.46360640227795L83.24088888888889,120.55908811092377L83.80088888888889,121.98765114694834L83.81955555555555,118.16593096405268L83.99377777777778,141.9805901478976L84.05600000000001,117.95687489956617L84.41688888888888,123.71649646013975L84.63466666666667,128.72192607074976L84.84,118.28681108355522L84.84622222222222,114.30065826326609L85.21955555555556,99.24121809005737L85.99111111111111,131.3435250595212L86.00977777777777,104.50071179121733L86.35822222222222,131.47548560798168L86.52,105.19091111421585L86.53866666666666,131.14965402334929L86.66933333333333,123.92597690969706L86.7128888888889,118.53330586850643L87.07377777777778,111.67667542397976L87.11111111111111,108.00143440067768L87.45955555555555,107.97602766007185L87.50933333333333,109.75244057178497L88.52355555555556,125.03635060787201L88.5671111111111,110.578400015831L88.73511111111111,119.38724488765001L89.08355555555556,123.72389335930347L89.28266666666667,125.35104871541262L89.68088888888889,105.46955969929695L89.69955555555556,101.44350805133581L89.824,115.34043152630329L89.86755555555555,127.00044781714678L90.02933333333334,122.69196790456772L90.46488888888888,125.21066677570343L90.52088888888889,114.15254787355661L90.56444444444443,136.00259345769882L90.64533333333333,122.97774151712656L90.78222222222223,139.40736857056618L91.01866666666666,115.20638883858919L91.20533333333333,105.84137406945229L91.34844444444444,126.2247349023819L91.46044444444445,114.0083199441433L91.896,109.82762967050076L92.36266666666666,90.98336760699749L92.61155555555557,128.44387759268284L92.7608888888889,121.8368651419878L93.16533333333334,111.3460264056921L93.65066666666667,128.85575822368264L93.68177777777777,120.35858605802059L93.70044444444446,122.31772658228874L93.86222222222221,117.86130868643522L94.38488888888888,125.45689300447702L94.49066666666667,116.03122432529926L94.93244444444444,126.34657651931047L95.05688888888889,99.96880640089512L95.10044444444445,135.3973523788154L95.80355555555555,113.15850873291492L95.82222222222222,116.91081543266773L95.95288888888888,127.56672338396311L96.32,118.56353004276752L96.38222222222223,100.34481157362461L96.40711111111112,112.96066240221262L96.58755555555555,113.17826584726572L96.79288888888888,110.54692257940769L97.11644444444445,117.96230570226908L97.22222222222221,112.79621650278568L97.30933333333334,107.404052734375L97.4088888888889,112.05704712122679L97.51466666666667,134.22504664212465L97.76355555555556,115.42270918190479L98.04977777777778,125.55460435152054L98.056,104.77700636535883L98.19288888888889,122.94653595238924L98.23644444444444,111.48361668735743L98.41066666666666,99.85598628222942L98.47288888888889,114.34690628945827L98.57244444444444,104.68900945782661L98.62844444444445,125.57168585062027L98.71555555555555,117.9677928686142L98.952,122.5241335555911L98.97066666666666,134.4906006269157L99.18222222222222,112.61856493353844L99.20711111111112,127.83459656685591L99.35022222222221,108.1727798730135L99.38755555555556,101.2491164803505L99.39999999999999,123.53657045215368L99.64888888888888,123.8520775437355L99.68622222222223,125.24620239436626L99.76711111111112,111.89002507179976L99.79822222222222,130.5372431576252L100.19644444444445,119.67311464995146L100.31466666666667,129.10514578968287L100.37066666666666,118.54566276818514L100.65066666666667,106.00142692029476L100.79377777777778,129.46227080002427L100.80622222222223,113.56416781246662L100.81244444444444,114.02763941138983L101.17955555555555,111.35954373329878L102.16888888888889,136.992610886693L102.49866666666667,140.22484197095037L102.62311111111111,127.05963958799839L102.816,102.45474473387003L102.872,132.66330958157778L102.97777777777777,132.27819836512208L103.08355555555556,121.2186488211155L103.27644444444444,103.60109501332045L103.59377777777779,116.86447125673294L103.73688888888888,125.48688177764416L103.82400000000001,117.80299884080887L104.28444444444445,114.89992645382881L104.99377777777778,136.7760103829205L105.59111111111112,122.58491013944149L105.62222222222222,116.0436840057373L105.84622222222222,119.76481829583645L106.03911111111111,132.58947321027517L106.64266666666667,115.86195104569197L106.80444444444444,118.82832974940538L106.82933333333334,124.62229334563017L106.92888888888889,125.5273840278387L107.19022222222222,112.71134943515062L107.58844444444445,134.41344211623073L107.60711111111111,137.39207825437188L107.70666666666666,106.05624222010374L108.30399999999999,120.40506285429001L108.63377777777777,125.63303601741791L109.22488888888888,125.41935813426971L109.95911111111111,139.28104438632727L110.13333333333333,114.49692309647799L110.50044444444445,130.60111145302653L110.60000000000001,124.94293615967035L110.79288888888888,98.95518918335438L111.24088888888889,137.11599089950323L111.35911111111112,107.67227073013783L111.62666666666667,102.3952744603157L111.75111111111111,108.34047828614712L112.112,103.16548031568527L112.21777777777778,124.2422631457448L112.38577777777778,137.9611421637237L112.51644444444445,124.45193921029568L112.5911111111111,110.83321341127157L112.68444444444444,134.35686793923378L112.70933333333333,130.03493866696954L112.81511111111111,117.48732597380877L113.03911111111111,135.12380304560065L113.28800000000001,117.3852978348732L113.49333333333333,116.30116306990385L114.17777777777778,140.2783592492342L114.50755555555556,127.89874502271414L114.53244444444444,126.50722616165876L114.65688888888889,97.72978392243385L114.96177777777777,114.80075296759605L115.14222222222222,109.67843842506409L115.40355555555556,133.25346343964338L115.72088888888888,121.35752220451832L115.864,121.53158639371395L116.2311111111111,130.6494648270309L116.24977777777777,127.50453439354897L116.65422222222222,126.17900077998638L116.83466666666666,126.24829490482807L117.04622222222223,122.09823992848396L117.264,127.5389891564846L117.40711111111112,124.96564407646656L117.50666666666667,121.16306763887405L117.83644444444445,125.95186524838209L117.96088888888889,125.55476018041372L118.04177777777778,123.5926655381918L118.0791111111111,107.64170505851507L118.21600000000001,142.20431236363947L118.72622222222223,127.25305639952421L119.60355555555556,115.48477218300104L120.01422222222223,108.40609219670296L120.02044444444444,139.31731770560145L120.05777777777777,124.28163480758667L120.11377777777778,124.12322313338518L120.21955555555556,119.92575970292091L120.29422222222223,126.78580512106419L120.33155555555555,112.84124110639095L120.69866666666667,128.25999949872494L121.00977777777777,134.76589723303914L121.30222222222223,127.54447300732136L121.52622222222222,123.131083779037L121.67555555555555,131.0093383938074L121.69422222222222,113.63071669638157L122.16088888888889,135.4892980568111L122.19822222222221,123.83190930634737L122.3848888888889,110.84845811873674L122.44088888888889,127.42811524122953L122.46577777777777,104.64522485435009L122.50311111111111,113.76668237894773L123.07555555555555,139.6268419623375L123.08177777777779,132.56164614856243L123.13155555555556,125.80378469824791L123.15644444444445,112.66370226442814L123.26222222222222,127.33675640821457L123.66044444444445,119.0252875238657L123.77866666666667,107.88393609970808L123.99022222222223,129.86202993243933L124.13955555555556,110.85989662259817L124.61866666666667,109.28565014898777L125.01066666666667,124.87664920091629L125.29688888888889,120.55881623923779L125.57066666666667,126.08891178667545L125.6888888888889,107.55363520979881L126.10577777777777,113.5661372244358L126.46666666666667,101.15701165795326L126.60977777777778,105.33678022027016L127.11377777777777,122.70349924266338L127.288,110.86271812021732L127.39377777777777,95.34229961037636L127.40622222222223,107.51429338753223L127.60533333333333,121.79687679558992L127.79822222222222,119.66497176140547L128.16533333333334,109.22144864499569L129.0551111111111,132.20971156656742L129.20444444444445,128.3468061387539L129.26044444444446,125.68308693170547L129.29777777777778,130.27331211417913L129.584,100.92269473522902L129.60266666666666,127.07642932236195L129.72088888888888,136.82979621738195L129.83911111111112,111.24256928265095L130.54222222222222,126.35090988874435L130.62933333333334,130.76659013330936L131.264,124.63589356094599L131.39466666666667,130.91890790313482L131.84266666666667,115.25735151767731L131.90488888888888,126.2703165113926L132.22222222222223,129.60631306096911L132.6702222222222,91.21352356672287L132.8071111111111,125.58011718839407L132.9128888888889,137.27526129037142L133.1991111111111,116.88897949457169L133.41066666666666,105.01074970513582L133.81511111111112,117.6801526248455L134.1511111111111,139.36349113285542L134.3128888888889,130.61363247036934L134.344,96.54655192792416L134.78577777777778,128.89305106177926L135.00977777777777,139.4981239810586L135.31466666666668,107.15439163893461L135.70044444444443,134.3841081559658L135.70666666666668,120.42027440667152L135.91822222222223,124.37142540514469L136.00533333333334,123.28481063991785L136.26666666666668,120.76925487071276L137.3057777777778,141.08462125808L137.49866666666665,124.80471261590719L137.71022222222223,111.7159045189619L138.08977777777778,127.07183071225882L138.15200000000002,118.89617168158293L138.38222222222223,138.06339244171977L138.432,131.3495244719088L138.58755555555555,122.53013794124126L138.69955555555555,121.02359414845705L138.712,116.27625365555286L138.8551111111111,130.69900349527597L138.86133333333333,131.0082790888846L138.86755555555555,126.79361977428198L138.88622222222222,133.00010886788368L139.00444444444446,111.04968626797199L139.22222222222223,119.87186942994595L139.41511111111112,124.19968870282173L139.54577777777777,123.49162210524082L139.65777777777777,114.4146819114685L139.72,101.11064095795155L140.27377777777778,148.32295789197087L140.3608888888889,123.28151502460241L140.48533333333333,113.50793679058552L140.54133333333334,135.2449053041637L140.58488888888888,116.91047393530607L140.5911111111111,133.24095734208822L140.77155555555555,124.81424470245838L140.83377777777775,112.64230065792799L140.95822222222222,129.28286864235997L141.38755555555556,117.62094759196043L141.69244444444445,133.00615967065096L141.69866666666667,137.02222998067737L141.89777777777778,122.94349231570959L142.1342222222222,129.4173224531114L142.8248888888889,130.0134773813188L142.8808888888889,123.8865455687046L142.98044444444446,121.06087040901184L142.99911111111112,123.17082346230745L143.0551111111111,120.35221033543348L143.22933333333333,124.18824356794357L143.44711111111113,114.91812859475613L143.52177777777777,111.04967300593853L143.76444444444445,130.53528700768948L143.92000000000002,114.72415146231651L144.0257777777778,123.9307379797101L144.4488888888889,115.33734810352325L144.5857777777778,108.4199311286211L144.76,131.65691519901156L145.096,118.76504664123058L145.36977777777776,119.64454491436481L145.92355555555557,130.46773020923138L145.92977777777776,112.53124438971281L146.5208888888889,125.20675447583199L146.8008888888889,134.49275404959917L147.55377777777778,129.39885672926903L147.59733333333332,110.52899894118309L148.37511111111112,117.55177614092827L148.6737777777778,106.23793539404869L148.9226666666667,115.8947082683444L149.07822222222222,128.14372627809644L149.19644444444444,96.18991595506668L149.22755555555554,111.20018382370472L149.37066666666666,103.7374187707901L149.50755555555554,133.41514586284757L149.63822222222223,104.09554009139538L150.06133333333335,119.00869672000408L150.39111111111112,126.78723078966141L150.752,126.15736045688391L151.02577777777776,127.38996368646622L151.05066666666667,134.33156397938728L151.2062222222222,115.1767813488841L152.35733333333334,116.52939935028553L152.45066666666668,131.655966963619L152.46933333333334,127.23306719958782L152.60622222222221,126.41187545657158L152.64355555555554,108.4188900589943L152.94222222222223,116.251390658319L153.03555555555556,126.67482510954142L153.28444444444443,115.43279495835304L153.32177777777778,127.66147066652775L153.4088888888889,125.87777026742697L153.47733333333335,132.84643008187413L153.53333333333333,104.30031915009022L153.81955555555555,92.90147539973259L153.888,120.84846568107605L153.92533333333333,125.98735113441944L154.29244444444444,95.14259327948093L154.46044444444445,130.5318206436932L154.60355555555554,128.43554074689746L155.0391111111111,116.50185742229223L155.17600000000002,124.58574318140745L155.38133333333332,123.62650361657143L155.48711111111112,119.93739050626755L155.53066666666666,131.99488320201635L155.77955555555556,109.67774548381567L155.86044444444445,111.42378833889961L155.89155555555556,131.37454661354423L155.92888888888888,132.84727719426155L155.94755555555554,121.6239697188139L156.42044444444446,138.20115347206593L156.42666666666665,131.87516019493341L156.43911111111112,141.9802030622959L156.70044444444446,140.49992472678423L156.71911111111112,131.2053230665624L156.912,128.54841722920537L157.08,123.16855897009373L157.09866666666667,132.73746589943767L157.12977777777778,134.8639799170196L157.47822222222223,109.11351227015257L157.57155555555556,110.03162295371294L157.62755555555555,116.27748702466488L157.64,131.02837106958032L157.94488888888887,136.65041726827621L158.032,114.25880991667509L158.29955555555554,119.18938197940588L158.57955555555554,115.34448639303446L158.83466666666666,125.22093490511179L158.91555555555556,115.63966278731823L158.92177777777778,116.58101518452168L159.0462222222222,119.90919210761786L159.05866666666668,133.91906169056892L159.08977777777778,125.66397965699434L159.15822222222224,125.73321078717709L159.8488888888889,112.6481260061264L159.97955555555555,108.80844239890575L160.40266666666665,129.8460193425417L160.4088888888889,120.28175909817219L160.42755555555556,124.6800163462758L160.43377777777778,113.55725829303265L160.67644444444446,123.90112385898829L160.73244444444444,136.1028461419046L160.88177777777776,117.82920793443918L161.0871111111111,117.26731546968222L161.24266666666665,123.12842474132776L161.46666666666667,103.62964154034853L161.7031111111111,117.685507170856L161.952,100.90852093696594L162.00177777777776,121.648925550282L162.20088888888887,135.7002456188202L162.28177777777776,127.1718794927001L162.67999999999998,141.19698549434543L163.08444444444444,124.52833515405655L163.22755555555557,134.57662646472454L163.75022222222222,109.3894951865077L163.76888888888888,106.33915454894304L163.79999999999998,125.16299639642239L164.2168888888889,132.45913726091385L164.32888888888888,123.89306054264307L164.79555555555558,129.56182556971908L165.0382222222222,136.8244665376842L165.04444444444445,124.84219112247229L166.02133333333333,121.17211566120386L166.28266666666667,136.21288952231407L166.2888888888889,125.13259318470955L166.69333333333336,132.91269217431545L166.73066666666668,118.3546397536993L166.85511111111109,120.58890447765589L166.89244444444446,135.35912954062223L167.02311111111112,136.22414898872375L167.06044444444444,139.66897212713957L167.4337777777778,117.08279416710138L167.8008888888889,132.56270711123943L168,131.64828327298164L168.04355555555554,107.96947953104973L169.3751111111111,111.14475183933973L169.5306666666667,110.1750750541687L169.61155555555558,131.99427812173963L169.77955555555556,105.37585680186749L169.8231111111111,122.20592764019966L169.89155555555556,128.8916204199195L169.92266666666666,124.52956852316856L169.97244444444445,126.9006874859333L170.05955555555556,131.06542187556624L170.23377777777776,122.0765797123313L170.6631111111111,120.3452046662569L170.68177777777777,122.42924702167511L170.9431111111111,115.7132040783763L171.16088888888888,126.48576487600803L171.39111111111112,129.97918673604727L171.95733333333334,113.46485839039087L172.0568888888889,110.39658085256815L172.72266666666667,125.45189321786165L172.76622222222224,107.18921442329884L172.84088888888888,119.2906044498086L173.1582222222222,129.96621978282928L173.2266666666667,119.8271896392107L173.23288888888888,120.8360358402133L173.79288888888888,138.70372983440757L173.81155555555554,125.7237549573183L174.72622222222222,117.72941776365042L174.7511111111111,117.72395712137222L174.75733333333332,124.23005875945091L174.86311111111112,128.09542429447174L174.95644444444443,110.70798334479332L175.01866666666666,94.94145464897156L175.0871111111111,126.09807585179806L175.11822222222222,136.05918586999178L175.14933333333335,123.5103480964899L175.17422222222223,120.45234531909227L175.21155555555555,119.28182829916477L175.3608888888889,116.40866842865944L175.42311111111113,119.07487758249044L175.58488888888888,117.93464773148298L175.59733333333332,99.15167947113514L175.86488888888888,114.52487614750862L176.008,112.03349706530571L176.32533333333333,110.88384122401476L176.47466666666665,126.8806220293045L176.59288888888887,129.16991756111383L176.68,127.82733560353518L176.88533333333334,133.11024674028158L177.58844444444446,118.74186129122972L177.89333333333332,105.46772290766239L178.27288888888887,103.5207602456212L178.39733333333334,122.90486001223326L178.4657777777778,139.89020439609885L178.59022222222222,119.1850685030222L178.96355555555556,134.78824541717768L179.04444444444445,116.96319383382797L179.27466666666666,117.14390893280506L179.39911111111113,113.62474546581507L179.46755555555555,139.58415810763836L180.00266666666667,111.55222118645906L180.0648888888889,130.9585580676794L180.94222222222223,113.20302606374025L181.17244444444444,129.57834509015083L181.1848888888889,138.0824715346098L181.36533333333335,129.27002436295152L181.60799999999998,121.52063858509064L181.90666666666664,137.47699339687824L182.20533333333336,125.81822373718023L182.21777777777777,139.09468629211187L182.26755555555553,130.95984945818782L182.45422222222223,126.9393131583929L182.59733333333332,137.74207657948136L182.68444444444447,129.97121956944466L183.0391111111111,136.3414881452918L183.63644444444444,134.06696320325136L183.91644444444444,127.63435643911362L183.94133333333335,126.19664923101664L184.31466666666665,132.37059163674712L184.6008888888889,137.15597427263856L184.78755555555554,141.23716448247433L184.92444444444442,101.94667291641235L184.9742222222222,123.84465080499649L185.3662222222222,129.49282155185938L185.73333333333332,134.50018078833818L185.92000000000002,134.18824449926615L186.0568888888889,113.08885984867811L186.26222222222225,114.60856952518225L186.44266666666667,132.3584966622293L186.72266666666667,128.944436468184L186.96533333333332,132.66109150648117L187.50044444444447,115.49212598055601L187.95466666666667,130.979356251657L188.1102222222222,122.29404390603304L188.1911111111111,128.20344687253237L188.2471111111111,131.18816033750772L188.7386666666667,131.65851824730635L189.10577777777777,117.25025717914104L189.81511111111112,123.90293744206429L189.90844444444443,114.11705204099417L190.232,136.64665913954377L190.4,105.98245889693499L190.78577777777778,119.99495104700327L190.94133333333332,113.14282637834549L191.49511111111113,139.02080516144633L191.72533333333334,124.41053514182568L191.9431111111111,136.66239620000124L192.04266666666666,118.85336515307426L192.14844444444444,124.77940534055233L192.40355555555556,104.79636230319738L193.07555555555555,120.04330110549927L193.1751111111111,108.22597057372332L193.30577777777776,110.94449181854725L193.36177777777777,122.51951836794615L193.46133333333333,132.37267543375492L193.85333333333335,115.286166600883L193.85955555555554,118.48044671863317L193.94666666666666,138.77278524264693L194.63111111111112,90.49848113954067L194.71200000000002,132.32972799614072L194.78044444444444,129.4514639005065L195.34044444444444,84.06203833222389L195.40266666666665,104.36461348831654L195.81955555555555,121.64767560362816L196.08088888888886,125.59018307179213L197.064,115.93215361982584L197.30044444444442,120.10240998864174L197.58666666666667,131.52350245788693L197.59911111111109,122.67506544291973L197.848,130.58198925852776L197.85422222222223,130.05865615606308L197.86044444444443,131.39913442358375L197.95999999999998,122.60229998081923L198.04088888888887,106.25885625183582L198.05333333333334,122.86747102439404L198.66933333333333,138.10907517373562L199.60266666666666,126.42939791828394L200.00088888888888,126.19010441750288L200.0382222222222,122.75325839221478L200.07555555555558,122.1480521261692L200.10044444444443,131.35065671801567L200.10666666666665,123.76629208028316L200.57333333333335,132.80834483727813L200.82222222222222,120.60057838261127L201.16444444444446,128.13989852368832L201.84266666666667,117.23710787296295L201.91111111111113,139.4746336042881L201.9608888888889,114.79434740543365L202.25955555555555,116.88391671329737L202.4088888888889,130.2712896540761L202.65777777777777,135.16711518913507L202.67644444444443,126.20952666550875L202.86933333333334,127.40681309998035L202.93155555555558,135.57820009812713L202.9751111111111,136.88166734576225L203.0871111111111,135.54932202026248L203.4417777777778,130.3096749521792L203.56622222222222,139.45919328182936L203.58488888888888,133.75083611160517L203.71555555555554,130.3422697149217L204.2506666666667,130.73356103897095L204.81688888888888,132.18930627033114L204.82933333333335,135.87880397960544L205.02844444444446,123.7918148636818L205.14044444444443,122.17323009669781L206.90133333333333,119.8672244027257L207.0631111111111,132.3961475752294L207.3368888888889,139.99625424668193L207.6791111111111,135.50341880694032L208.0648888888889,115.23708713054657L208.1457777777778,120.54405891150236L208.7182222222222,132.80744799226522L208.89866666666666,97.39407543838024L209.14133333333334,136.18152149766684L209.5457777777778,132.76123975217342L210.88355555555557,123.01534269750118L211.3751111111111,135.97704912349582L211.53688888888888,106.03484724462032L211.67377777777776,112.81147447228432L211.792,125.18866837769747L211.91644444444444,135.06335635483265L211.94755555555557,129.26403158158064L212.04711111111112,137.6641455553472L212.1217777777778,123.56310446560383L212.22133333333335,127.69881323724985L212.38933333333333,124.46341086924076L212.81244444444442,140.44533819705248L213.11733333333333,101.80412594974041L213.19822222222223,114.82364323735237L213.24800000000002,127.83785902708769L213.48444444444445,127.56219108402729L213.83911111111112,124.85641465336084L214.28711111111113,103.69411823153496L214.49244444444443,137.20930588245392L214.536,125.74608490616083L214.59199999999998,135.89469355344772L214.90311111111112,124.9869594797492L214.92177777777778,119.27079428732395L215.05244444444443,113.21188178658485L215.1271111111111,129.22152676433325L215.24533333333335,117.28656862676144L215.36355555555556,120.46681419759989L216.20977777777776,103.1935494095087L216.71377777777778,121.91554215550423L216.72,115.35155837237835L216.93155555555555,132.326883289963L217.04977777777776,106.32963572442532L217.336,134.14025085791945L217.78400000000002,132.12004032731056L217.81511111111112,134.17027941718698L217.97688888888888,120.18787716329098L218.26311111111113,124.7019152790308L218.35644444444443,114.76293627917767L218.63644444444444,122.88116738945246L218.86666666666665,134.96086072921753L219.13422222222223,110.1985554844141L219.25866666666667,133.6525611281395L219.296,141.55982146784663L219.37688888888889,131.31544601917267L219.5511111111111,112.96942197531462L219.81866666666667,106.58297703415155L220.06755555555554,123.74893870949745L220.40355555555556,124.22056645900011L220.48444444444442,130.50943267345428L220.64000000000001,128.86959218233824L220.68355555555556,119.21701674163342L220.70844444444444,113.31410554051399L221.32444444444442,113.88618987798691L221.3431111111111,92.29251597821712L221.48000000000002,125.23324207216501L221.59199999999998,129.7011051028967L221.79111111111112,135.3993881009519L222.1768888888889,118.1814508587122L222.26399999999998,116.45617966353893L222.36977777777778,122.43193589895964L222.376,127.19390441477299L222.63733333333334,117.07199224084616L223.25333333333333,140.99164777249098L223.42133333333334,124.44340840727091L223.98755555555556,136.8578354716301L224.32977777777776,116.51501004397869L224.65955555555556,126.52006049454212L225.33155555555555,131.04358427971601L225.4,133.42047056928277L226.16533333333334,90.44425268471241L226.53244444444445,122.63347570598125L226.76266666666666,126.89380780607462L226.89333333333335,116.12468187510967L227.12355555555555,122.56005708873272L227.34755555555554,132.1149443909526L227.3537777777778,117.3416259586811L227.50933333333333,117.04279587417841L227.8951111111111,123.13450538367033L227.93244444444446,86.85882878303528L228.02577777777776,135.36819745600224L228.3368888888889,131.99734330922365L228.49866666666668,135.48000966012478L228.60444444444443,136.207629468292L228.74755555555555,132.96840431913733L229.03377777777777,132.58073684573174L229.43822222222224,107.86910583078861L229.48177777777778,142.94091802835464L229.53155555555557,136.92346927523613L229.83022222222223,128.945959944278L229.88622222222222,115.04051395505667L230.25333333333333,105.92207354307175L230.33422222222222,131.73085766658187L231.23644444444446,136.591573625803L231.3111111111111,116.20665450394154L231.51644444444446,117.66940374672413L231.5288888888889,138.1891347542405L231.77777777777777,124.51123044639826L232.1822222222222,133.2962169200182L232.64266666666666,132.7614734955132L232.93511111111113,124.76951849460602L233.1591111111111,113.08005054295063L233.33955555555553,131.55154171213508L233.51999999999998,122.15858218073845L233.60088888888887,133.91637115553021L233.61955555555554,138.28628412261605L234.03022222222222,117.4996994510293L234.04888888888888,136.09933999180794L234.31644444444444,125.95977273583412L234.5591111111111,116.74682375788689L234.62133333333333,98.59338101744652L234.64,110.2457484304905L234.96977777777778,124.44286466389894L235.6728888888889,135.37949505075812L235.68533333333335,136.12487106397748L235.79111111111112,130.16674835979939L235.8346666666667,124.93303936719894L235.84088888888888,124.04265959560871L235.88444444444445,133.94353014230728L236.2888888888889,130.0420139618218L236.3137777777778,129.80636586248875L236.46311111111112,116.90843489766121L236.53777777777776,136.24768080934882L236.61866666666666,132.40235420688987L236.66222222222223,128.48736380040646L237.16622222222222,125.95506802946329L237.37155555555557,113.49016566574574L237.39644444444443,137.25861909613013L237.56444444444443,131.30235473439097L237.57688888888887,117.1295892521739L237.99377777777778,123.81713871657848L238.03111111111113,116.26907889544964L238.13688888888888,124.50020638108253L238.57244444444447,125.46776124089956L238.63466666666665,131.82790922746062L238.74044444444445,116.71327744424343L238.784,128.42940871417522L238.80266666666665,94.9205072671175L238.84622222222222,116.25558809190989L238.8897777777778,132.94394747167826L238.95822222222222,141.56192515790462L239.80444444444444,129.02070973813534L240.03466666666665,106.04487997293472L240.37688888888889,125.56679547578096L240.42044444444443,131.10453990101814L240.8248888888889,125.42819727957249L240.98044444444443,127.20483896136284L241.03644444444444,121.87718172371387L241.11111111111111,133.13355642184615L241.22933333333336,139.02687088400126L241.3351111111111,113.37847281992435L241.42844444444447,135.87081526219845L241.67111111111112,134.49799255281687L241.7457777777778,134.4936973117292L241.90133333333333,116.17689118534327L242.08800000000002,133.26281317323446L242.13155555555556,132.40160158649087L242.49244444444443,135.36808804422617L242.56088888888888,88.28301203250885L242.77866666666665,117.26379108428955L242.8968888888889,129.44691170752048L242.94044444444444,107.18047142773867L243.2266666666667,138.15349303930998L243.376,134.53562854602933L243.55022222222223,139.3212482407689L243.5688888888889,136.01391591876745L243.7866666666667,134.44490131735802L244.2097777777778,122.13978656381369L244.36533333333335,118.8040370196104L244.57688888888887,119.07723822444677L244.59555555555553,118.46044425666332L244.8008888888889,126.31014239788055" style="fill: none;" fill="none"></path></g></g></g></g></g></g><g transform="translate(50, 178)" clip-path="url(#clip_1)"><clipPath id="clip_1"><rect width="280" height="22"></rect></clipPath><g><g><line x1="0" y1="0" x2="0" y2="5" style="visibility: inherit;" fill="rgb(0, 0, 0)" stroke="rgb(204, 204, 204)" stroke-width="1px"></line><line x1="31.11111111111111" y1="0" x2="31.11111111111111" y2="5" style="visibility: inherit;" fill="rgb(0, 0, 0)" stroke="rgb(204, 204, 204)" stroke-width="1px"></line><line x1="62.22222222222222" y1="0" x2="62.22222222222222" y2="5" style="visibility: inherit;" fill="rgb(0, 0, 0)" stroke="rgb(204, 204, 204)" stroke-width="1px"></line><line x1="93.33333333333333" y1="0" x2="93.33333333333333" y2="5" style="visibility: inherit;" fill="rgb(0, 0, 0)" stroke="rgb(204, 204, 204)" stroke-width="1px"></line><line x1="124.44444444444444" y1="0" x2="124.44444444444444" y2="5" style="visibility: inherit;" fill="rgb(0, 0, 0)" stroke="rgb(204, 204, 204)" stroke-width="1px"></line><line x1="155.55555555555557" y1="0" x2="155.55555555555557" y2="5" style="visibility: inherit;" fill="rgb(0, 0, 0)" stroke="rgb(204, 204, 204)" stroke-width="1px"></line><line x1="186.66666666666666" y1="0" x2="186.66666666666666" y2="5" style="visibility: inherit;" fill="rgb(0, 0, 0)" stroke="rgb(204, 204, 204)" stroke-width="1px"></line><line x1="217.77777777777777" y1="0" x2="217.77777777777777" y2="5" style="visibility: inherit;" fill="rgb(0, 0, 0)" stroke="rgb(204, 204, 204)" stroke-width="1px"></line><line x1="248.88888888888889" y1="0" x2="248.88888888888889" y2="5" style="visibility: inherit;" fill="rgb(0, 0, 0)" stroke="rgb(204, 204, 204)" stroke-width="1px"></line><line x1="280" y1="0" x2="280" y2="5" style="visibility: inherit;" fill="rgb(0, 0, 0)" stroke="rgb(204, 204, 204)" stroke-width="1px"></line></g><g transform="translate(0, 8)"><text x="0" y="0" dx="0em" dy="0.95em" style="text-anchor: middle; visibility: hidden; font-family: &quot;Helvetica Neue&quot;, sans-serif; font-size: 12px; font-weight: 200;" fill="rgb(50, 49, 63)" stroke="none" stroke-width="1px">-50k</text><text x="31.11111111111111" y="0" dx="0em" dy="0.95em" style="text-anchor: middle; visibility: inherit; font-family: &quot;Helvetica Neue&quot;, sans-serif; font-size: 12px; font-weight: 200;" fill="rgb(50, 49, 63)" stroke="none" stroke-width="1px">0</text><text x="62.22222222222222" y="0" dx="0em" dy="0.95em" style="text-anchor: middle; visibility: hidden; font-family: &quot;Helvetica Neue&quot;, sans-serif; font-size: 12px; font-weight: 200;" fill="rgb(50, 49, 63)" stroke="none" stroke-width="1px">50k</text><text x="93.33333333333333" y="0" dx="0em" dy="0.95em" style="text-anchor: middle; visibility: inherit; font-family: &quot;Helvetica Neue&quot;, sans-serif; font-size: 12px; font-weight: 200;" fill="rgb(50, 49, 63)" stroke="none" stroke-width="1px">100k</text><text x="124.44444444444444" y="0" dx="0em" dy="0.95em" style="text-anchor: middle; visibility: hidden; font-family: &quot;Helvetica Neue&quot;, sans-serif; font-size: 12px; font-weight: 200;" fill="rgb(50, 49, 63)" stroke="none" stroke-width="1px">150k</text><text x="155.55555555555557" y="0" dx="0em" dy="0.95em" style="text-anchor: middle; visibility: inherit; font-family: &quot;Helvetica Neue&quot;, sans-serif; font-size: 12px; font-weight: 200;" fill="rgb(50, 49, 63)" stroke="none" stroke-width="1px">200k</text><text x="186.66666666666666" y="0" dx="0em" dy="0.95em" style="text-anchor: middle; visibility: hidden; font-family: &quot;Helvetica Neue&quot;, sans-serif; font-size: 12px; font-weight: 200;" fill="rgb(50, 49, 63)" stroke="none" stroke-width="1px">250k</text><text x="217.77777777777777" y="0" dx="0em" dy="0.95em" style="text-anchor: middle; visibility: inherit; font-family: &quot;Helvetica Neue&quot;, sans-serif; font-size: 12px; font-weight: 200;" fill="rgb(50, 49, 63)" stroke="none" stroke-width="1px">300k</text><text x="248.88888888888889" y="0" dx="0em" dy="0.95em" style="text-anchor: middle; visibility: hidden; font-family: &quot;Helvetica Neue&quot;, sans-serif; font-size: 12px; font-weight: 200;" fill="rgb(50, 49, 63)" stroke="none" stroke-width="1px">350k</text><text x="280" y="0" dx="0em" dy="0.95em" style="text-anchor: middle; visibility: hidden; font-family: &quot;Helvetica Neue&quot;, sans-serif; font-size: 12px; font-weight: 200;" fill="rgb(50, 49, 63)" stroke="none" stroke-width="1px">400k</text></g><line x1="0" y1="0" x2="280" y2="0" fill="rgb(0, 0, 0)" stroke="rgb(204, 204, 204)" stroke-width="1px"></line></g></g></g></g></svg>