<svg viewBox="0 0 330 200" xmlns="http://www.w3.org/2000/svg"><g><g><g><g><g><line x1="50" y1="178" x2="45" y2="178" style="visibility: inherit;" fill="rgb(0, 0, 0)" stroke="rgb(204, 204, 204)" stroke-width="1px"></line><line x1="50" y1="160.2" x2="45" y2="160.2" style="visibility: inherit;" fill="rgb(0, 0, 0)" stroke="rgb(204, 204, 204)" stroke-width="1px"></line><line x1="50" y1="142.4" x2="45" y2="142.4" style="visibility: inherit;" fill="rgb(0, 0, 0)" stroke="rgb(204, 204, 204)" stroke-width="1px"></line><line x1="50" y1="124.6" x2="45" y2="124.6" style="visibility: inherit;" fill="rgb(0, 0, 0)" stroke="rgb(204, 204, 204)" stroke-width="1px"></line><line x1="50" y1="106.8" x2="45" y2="106.8" style="visibility: inherit;" fill="rgb(0, 0, 0)" stroke="rgb(204, 204, 204)" stroke-width="1px"></line><line x1="50" y1="89" x2="45" y2="89" style="visibility: inherit;" fill="rgb(0, 0, 0)" stroke="rgb(204, 204, 204)" stroke-width="1px"></line><line x1="50" y1="71.2" x2="45" y2="71.2" style="visibility: inherit;" fill="rgb(0, 0, 0)" stroke="rgb(204, 204, 204)" stroke-width="1px"></line><line x1="50" y1="53.400000000000006" x2="45" y2="53.400000000000006" style="visibility: inherit;" fill="rgb(0, 0, 0)" stroke="rgb(204, 204, 204)" stroke-width="1px"></line><line x1="50" y1="35.60000000000002" x2="45" y2="35.60000000000002" style="visibility: inherit;" fill="rgb(0, 0, 0)" stroke="rgb(204, 204, 204)" stroke-width="1px"></line><line x1="50" y1="17.799999999999983" x2="45" y2="17.799999999999983" style="visibility: inherit;" fill="rgb(0, 0, 0)" stroke="rgb(204, 204, 204)" stroke-width="1px"></line><line x1="50" y1="0" x2="45" y2="0" style="visibility: inherit;" fill="rgb(0, 0, 0)" stroke="rgb(204, 204, 204)" stroke-width="1px"></line></g><g transform="translate(40, 0)"><text x="0" y="178" dx="0em" dy="0.3em" style="text-anchor: end; visibility: hidden; font-family: &quot;Helvetica Neue&quot;, sans-serif; font-size: 12px; font-weight: 200;" fill="rgb(50, 49, 63)" stroke="none" stroke-width="1px">-0.1</text><text x="0" y="160.2" dx="0em" dy="0.3em" style="text-anchor: end; visibility: inherit; font-family: &quot;Helvetica Neue&quot;, sans-serif; font-size: 12px; font-weight: 200;" fill="rgb(50, 49, 63)" stroke="none" stroke-width="1px">0</text><text x="0" y="142.4" dx="0em" dy="0.3em" style="text-anchor: end; visibility: hidden; font-family: &quot;Helvetica Neue&quot;, sans-serif; font-size: 12px; font-weight: 200;" fill="rgb(50, 49, 63)" stroke="none" stroke-width="1px">0.1</text><text x="0" y="124.6" dx="0em" dy="0.3em" style="text-anchor: end; visibility: inherit; font-family: &quot;Helvetica Neue&quot;, sans-serif; font-size: 12px; font-weight: 200;" fill="rgb(50, 49, 63)" stroke="none" stroke-width="1px">0.2</text><text x="0" y="106.8" dx="0em" dy="0.3em" style="text-anchor: end; visibility: hidden; font-family: &quot;Helvetica Neue&quot;, sans-serif; font-size: 12px; font-weight: 200;" fill="rgb(50, 49, 63)" stroke="none" stroke-width="1px">0.3</text><text x="0" y="89" dx="0em" dy="0.3em" style="text-anchor: end; visibility: inherit; font-family: &quot;Helvetica Neue&quot;, sans-serif; font-size: 12px; font-weight: 200;" fill="rgb(50, 49, 63)" stroke="none" stroke-width="1px">0.4</text><text x="0" y="71.2" dx="0em" dy="0.3em" style="text-anchor: end; visibility: hidden; font-family: &quot;Helvetica Neue&quot;, sans-serif; font-size: 12px; font-weight: 200;" fill="rgb(50, 49, 63)" stroke="none" stroke-width="1px">0.5</text><text x="0" y="53.400000000000006" dx="0em" dy="0.3em" style="text-anchor: end; visibility: inherit; font-family: &quot;Helvetica Neue&quot;, sans-serif; font-size: 12px; font-weight: 200;" fill="rgb(50, 49, 63)" stroke="none" stroke-width="1px">0.6</text><text x="0" y="35.60000000000002" dx="0em" dy="0.3em" style="text-anchor: end; visibility: hidden; font-family: &quot;Helvetica Neue&quot;, sans-serif; font-size: 12px; font-weight: 200;" fill="rgb(50, 49, 63)" stroke="none" stroke-width="1px">0.7</text><text x="0" y="17.799999999999983" dx="0em" dy="0.3em" style="text-anchor: end; visibility: inherit; font-family: &quot;Helvetica Neue&quot;, sans-serif; font-size: 12px; font-weight: 200;" fill="rgb(50, 49, 63)" stroke="none" stroke-width="1px">0.8</text><text x="0" y="0" dx="0em" dy="0.3em" style="text-anchor: end; visibility: hidden; font-family: &quot;Helvetica Neue&quot;, sans-serif; font-size: 12px; font-weight: 200;" fill="rgb(50, 49, 63)" stroke="none" stroke-width="1px">0.9</text></g><line x1="50" y1="0" x2="50" y2="178" fill="rgb(0, 0, 0)" stroke="rgb(204, 204, 204)" stroke-width="1px"></line></g></g><g transform="translate(50, 0)" clip-path="url(#clip_0)"><clipPath id="clip_0"><rect width="280" height="178"></rect></clipPath><g><g><g><line x1="0" y1="0" x2="0" y2="178" fill="rgb(0, 0, 0)" stroke="rgb(60, 60, 60)" stroke-width="1px" opacity="0.25"></line><line x1="31.11111111111111" y1="0" x2="31.11111111111111" y2="178" fill="rgb(0, 0, 0)" stroke="rgb(60, 60, 60)" stroke-width="1px" opacity="0.25"></line><line x1="62.22222222222222" y1="0" x2="62.22222222222222" y2="178" fill="rgb(0, 0, 0)" stroke="rgb(60, 60, 60)" stroke-width="1px" opacity="0.25"></line><line x1="93.33333333333333" y1="0" x2="93.33333333333333" y2="178" fill="rgb(0, 0, 0)" stroke="rgb(60, 60, 60)" stroke-width="1px" opacity="0.25"></line><line x1="124.44444444444444" y1="0" x2="124.44444444444444" y2="178" fill="rgb(0, 0, 0)" stroke="rgb(60, 60, 60)" stroke-width="1px" opacity="0.25"></line><line x1="155.55555555555557" y1="0" x2="155.55555555555557" y2="178" fill="rgb(0, 0, 0)" stroke="rgb(60, 60, 60)" stroke-width="1px" opacity="0.25"></line><line x1="186.66666666666666" y1="0" x2="186.66666666666666" y2="178" fill="rgb(0, 0, 0)" stroke="rgb(60, 60, 60)" stroke-width="1px" opacity="0.25"></line><line x1="217.77777777777777" y1="0" x2="217.77777777777777" y2="178" fill="rgb(0, 0, 0)" stroke="rgb(60, 60, 60)" stroke-width="1px" opacity="0.25"></line><line x1="248.88888888888889" y1="0" x2="248.88888888888889" y2="178" fill="rgb(0, 0, 0)" stroke="rgb(60, 60, 60)" stroke-width="1px" opacity="0.25"></line><line x1="280" y1="0" x2="280" y2="178" fill="rgb(0, 0, 0)" stroke="rgb(60, 60, 60)" stroke-width="1px" opacity="0.25"></line></g><g><line x1="0" y1="178" x2="280" y2="178" fill="rgb(0, 0, 0)" stroke="rgb(60, 60, 60)" stroke-width="1px" opacity="0.25"></line><line x1="0" y1="160.2" x2="280" y2="160.2" fill="rgb(0, 0, 0)" stroke="rgb(60, 60, 60)" stroke-width="1px" opacity="0.25"></line><line x1="0" y1="142.4" x2="280" y2="142.4" fill="rgb(0, 0, 0)" stroke="rgb(60, 60, 60)" stroke-width="1px" opacity="0.25"></line><line x1="0" y1="124.6" x2="280" y2="124.6" fill="rgb(0, 0, 0)" stroke="rgb(60, 60, 60)" stroke-width="1px" opacity="0.25"></line><line x1="0" y1="106.8" x2="280" y2="106.8" fill="rgb(0, 0, 0)" stroke="rgb(60, 60, 60)" stroke-width="1px" opacity="0.25"></line><line x1="0" y1="89" x2="280" y2="89" fill="rgb(0, 0, 0)" stroke="rgb(60, 60, 60)" stroke-width="1px" opacity="0.25"></line><line x1="0" y1="71.2" x2="280" y2="71.2" fill="rgb(0, 0, 0)" stroke="rgb(60, 60, 60)" stroke-width="1px" opacity="0.25"></line><line x1="0" y1="53.400000000000006" x2="280" y2="53.400000000000006" fill="rgb(0, 0, 0)" stroke="rgb(60, 60, 60)" stroke-width="1px" opacity="0.25"></line><line x1="0" y1="35.60000000000002" x2="280" y2="35.60000000000002" fill="rgb(0, 0, 0)" stroke="rgb(60, 60, 60)" stroke-width="1px" opacity="0.25"></line><line x1="0" y1="17.799999999999983" x2="280" y2="17.799999999999983" fill="rgb(0, 0, 0)" stroke="rgb(60, 60, 60)" stroke-width="1px" opacity="0.25"></line><line x1="0" y1="0" x2="280" y2="0" fill="rgb(0, 0, 0)" stroke="rgb(60, 60, 60)" stroke-width="1px" opacity="0.25"></line></g></g></g><g><g><line x1="0" y1="160.2" x2="280" y2="160.2" fill="rgb(0, 0, 0)" stroke="rgb(153, 153, 153)" stroke-width="1.5px"></line></g></g><g><g><line x1="31.11111111111111" y1="0" x2="31.11111111111111" y2="178" fill="rgb(0, 0, 0)" stroke="rgb(153, 153, 153)" stroke-width="1.5px"></line></g></g><g><g><g><g><g><path stroke="rgb(238, 51, 119)" stroke-width="2px" d="M31.378666666666664,43.61131007671358L31.397333333333332,47.55180882045201L31.55911111111111,29.168380267803485L31.702222222222222,50.49449594666807L32.10044444444444,65.32190628907382L32.156444444444446,64.68867408464428L32.54222222222222,70.61570900464004L32.57333333333333,69.3724206093027L32.704,58.68447088134509L32.816,61.8712513024938L33.03377777777778,68.68150788121926L33.04622222222222,71.25548267370833L33.096,73.71644477844985L33.73688888888889,71.62160839420596L33.97955555555556,73.25198223644534L34.06666666666667,82.01959114437597L34.452444444444446,79.03565864942989L34.620444444444445,73.37697766670503L34.72,83.78470733262971L34.763555555555556,78.20964470256015L35.062222222222225,84.61643733835108L35.14311111111111,81.31780557471716L35.230222222222224,74.07011569402503L35.29244444444444,79.13564094313266L35.56,83.9632540279431L35.60977777777778,79.46574709847394L35.91466666666667,75.59822040723677L36.00177777777778,71.85612463442536L36.10755555555555,74.39406160628755L36.14488888888889,77.67414768901233L36.31911111111111,79.38546905981286L36.99733333333333,76.7466519112057L37.15911111111111,75.45105890491263L37.37066666666667,87.22034184876578L37.42666666666666,83.02313640333607L37.75022222222223,79.3910590704973L37.986666666666665,81.73661350713951L38.45955555555556,88.25119463724606L38.96355555555556,74.84538789956852L39.30577777777778,83.14092686640852L39.324444444444445,74.30433600611542L39.41155555555555,85.00876304414692L39.43644444444444,72.3722235509031L39.73511111111111,73.04858862671348L39.778666666666666,85.13076211656369L40.05244444444445,86.15480945287241L40.239111111111114,83.5776253564282L40.59377777777778,86.51894505433734L40.77422222222222,75.85626256629823L40.87377777777778,79.1177712637782L40.973333333333336,74.96425012900829L41.321777777777775,76.48531274777413L41.639111111111106,85.08849048845673L41.75111111111111,88.85633544537507L41.80711111111111,82.22847632254394L41.89422222222222,92.51899996791376L41.906666666666666,83.89748886503415L41.925333333333334,78.27621004214937L42.19911111111111,70.76627319666169L42.59111111111111,72.43839384878645L42.647111111111116,67.77284908519175L42.728,67.97820748895799L42.74666666666667,72.7838521751181L42.79644444444445,73.59391030201975L43.04533333333333,82.50509173206355L43.15111111111111,85.05017757150279L43.232,91.52696673287053L43.568,84.91264926200348L43.78577777777778,76.92897714616952L44.040888888888894,77.64686391449807L44.15911111111111,71.07033701935147L44.72533333333333,78.2015419999708L44.800000000000004,80.10084451357322L44.87466666666667,87.94368815390187L44.99911111111111,83.19540512072213L45.03644444444445,83.85439545435574L45.16088888888889,81.70550887315618L45.19199999999999,81.80844366681237L45.471999999999994,89.36006521754129L45.54666666666666,92.27035674402183L45.76444444444444,85.67364701727655L45.98222222222222,71.90368753234397L45.98844444444445,81.6038164788876L46.27466666666667,82.2360936710991L46.38044444444445,82.54511249819427L46.39288888888889,76.98618589464438L46.424,73.12359024454597L46.57955555555556,85.76460118361092L46.58577777777778,88.67123842266314L46.66044444444445,86.3890281392221L46.69155555555555,80.38332265429037L46.872,81.9398783986264L46.965333333333334,79.62045861977313L47.00266666666666,84.66224813659183L47.824000000000005,77.3221102317142L48.16622222222222,80.7915599401779L48.25333333333334,83.70798864110259L48.47111111111111,76.77819372790634L49.13688888888889,79.06599509866071L49.57866666666667,87.03802083313875L49.852444444444444,86.11780861687824L50.02044444444444,90.07400177507465L50.039111111111104,87.65741894399669L50.4,84.44772186102686L50.785777777777774,92.96949668336796L51.00355555555555,87.89447319670077L51.21511111111111,78.14286655967852L51.30222222222223,86.9959512098051L51.31466666666667,80.58054475479989L51.32088888888889,91.35524410126078L51.68177777777778,90.84012976454682L52.32266666666666,87.53329222983912L52.577777777777776,79.17244061782677L52.77066666666667,78.69676374894269L53.51733333333333,85.15649459879354L53.629333333333335,84.86680878369314L53.64177777777778,75.20712108599464L53.952888888888886,82.26419954294889L54.30133333333334,86.01265295980346L54.394666666666666,78.61031132315783L54.718222222222224,90.98351704349194L54.84888888888889,90.45203483529914L54.89244444444444,78.20177533319803L55.160000000000004,75.5820580279478L55.55822222222222,79.95884993217979L55.73244444444445,79.06842848596014L55.906666666666666,83.35812741016164L56.230222222222224,77.50631192245014L56.616,85.31801503387264L56.684444444444445,87.58176644359895L57.22577777777778,82.9768952866986L57.263111111111115,79.35043518625079L57.41866666666667,82.92101934227298L57.449777777777776,86.09126672137955L57.64266666666667,86.16196956153385L57.897777777777776,84.10220612571904L57.97866666666667,85.92444245929029L57.99111111111111,93.61439587161743L58.49511111111111,83.92876591796002L59.06755555555556,78.48195081279405L59.17333333333334,83.50536195487075L59.303999999999995,74.4880309695017L59.913777777777774,85.83942462897349L60.13777777777778,88.06753754892368L60.16266666666667,78.617811854992L60.21244444444445,91.57042761417773L60.672888888888885,92.67253606546936L60.90933333333333,95.82498679490494L60.99644444444445,89.20227490556879L61.23288888888889,88.82257658438938L61.30755555555555,84.68204838831049L61.568888888888885,88.47754502137033L61.992000000000004,85.67234410699021L62.047999999999995,94.28322341702705L62.06666666666667,85.03583139762212L62.53955555555556,86.36958075517389L62.552,78.18000026843536L62.888,79.14239037474627L63.06222222222222,84.29241625960921L63.71555555555556,80.09696308492126L64.27555555555556,85.31626250552536L64.37511111111111,91.99695017738104L64.46222222222222,87.83926315944576L64.84177777777778,91.49471149699363L65.43288888888888,89.57812787157881L65.44533333333332,88.81149123852488L65.64444444444445,86.20034926154231L65.88088888888889,88.63246239748801L66.36,84.08457881342254L66.45333333333333,81.45589918665442L66.72711111111111,82.17852456399741L67.256,86.08483147553183L67.36177777777777,77.32118699046602L67.38044444444444,80.66031347073171L67.592,83.91371775927962L67.60444444444444,89.09207581306624L67.648,95.20695680628272L67.872,88.78635393003643L68.00266666666667,91.84553202478101L68.152,92.95734384571716L68.38844444444445,90.05745163645427L68.5128888888889,86.43726235185497L69.20355555555555,82.64307350458476L69.26577777777779,95.49609923101177L69.57688888888889,88.50516523733423L69.69511111111112,85.08186455017203L69.776,89.29019270040939L69.81333333333333,89.86361907521227L69.89422222222223,84.7992229835166L70.24888888888889,83.52039924685056L70.39200000000001,85.69729294468519L70.42311111111111,89.26018486376428L70.57244444444444,89.85969411037694L70.79022222222223,75.8891122480326L70.93955555555556,83.95355942329141L71.53688888888888,78.70603201898086L71.68622222222221,82.79994720185657L72.02222222222223,87.45011043057784L72.20266666666667,90.61865462583678L72.53866666666667,86.79401482551248L72.78133333333334,95.67342181288778L72.8,85.87129830155206L72.87466666666666,88.12782345069817L73.06755555555556,88.0011766419942L73.71466666666666,91.34161775295476L73.76444444444444,91.34645897461789L73.85777777777778,89.85546501522786L74.46133333333334,90.36842167713453L74.6231111111111,78.86332640305444L74.76,71.1629123054158L75.33244444444443,88.06992122499989L75.38222222222221,91.01206238972682L75.63733333333333,88.92107317728812L76.01688888888889,89.31654746406481L76.20977777777779,83.7609629983632L76.608,91.45019479731434L76.72,91.69457493201777L76.78222222222222,93.19184285313244L76.78844444444445,99.88815133059165L76.90666666666667,92.89809213910159L77.04977777777778,98.74201483978294L77.168,86.61836450200661L77.47288888888889,83.32939161340946L77.5351111111111,97.01488742939851L77.55377777777778,91.5688706497837L77.64711111111112,82.71232879322723L77.85244444444444,84.45152694766504L78.46222222222222,86.01484238936418L78.68,93.01713247948454L78.94755555555555,93.89840100071258L78.98488888888889,87.90519727333954L79.40177777777777,87.39952841943331L79.57600000000001,87.9498802159064L79.63822222222223,78.96593629971477L79.85600000000001,83.68584265095129L80.27288888888889,79.43952057592921L80.472,81.84488980624221L80.83911111111111,91.17448728264627L81.05688888888889,88.02629735780262L81.12533333333333,84.8044271648427L81.19999999999999,88.80072779895863L81.30577777777778,91.66605658627351L82.01511111111111,86.25160337725004L82.2328888888889,77.96262347713596L82.27022222222222,81.80892744785741L82.69955555555555,79.46449114849645L82.97333333333333,83.99608956881555L83.15377777777778,95.39497338894284L83.18488888888889,92.51251455928197L83.24088888888889,91.69408120546862L83.80088888888889,92.42158379806726L83.81955555555555,94.26311282497109L83.99377777777778,102.25727570049548L84.05600000000001,94.20338391777906L84.41688888888888,91.80852507876172L84.63466666666667,100.63305422515397L84.84,92.92025604903986L84.84622222222222,91.10228269839403L85.21955555555556,89.61163946924256L85.99111111111111,92.72987616752643L86.00977777777777,85.78760630883797L86.35822222222222,93.10435564437716L86.52,81.00951716867769L86.53866666666666,87.01484101759468L86.66933333333333,82.9248847665273L86.7128888888889,84.43360200651021L87.07377777777778,79.77170725634706L87.11111111111111,85.56068742581611L87.45955555555555,81.58809587601188L87.50933333333333,88.86244437314416L88.52355555555556,89.9131861886078L88.5671111111111,85.3082692679045L88.73511111111111,83.77347347483149L89.08355555555556,85.98540590661808L89.28266666666667,88.62021347386855L89.68088888888889,86.12748256247528L89.69955555555556,90.70395816056445L89.824,90.75909526144869L89.86755555555555,95.90941611447099L90.02933333333334,98.46637736287978L90.46488888888888,95.34368573557245L90.52088888888889,81.40477189116044L90.56444444444443,92.0432899534399L90.64533333333333,92.61266457318047L90.78222222222223,99.56574224662295L91.01866666666666,94.30196918659016L91.20533333333333,89.40383856460492L91.34844444444444,85.93937628573195L91.46044444444445,86.60139150979525L91.896,89.77587925339701L92.36266666666666,81.6168555408516L92.61155555555557,88.47229323267136L92.7608888888889,89.23010631513276L93.16533333333334,84.00225699310175L93.65066666666667,90.49301094676919L93.68177777777777,92.15841008291986L93.70044444444446,88.54162785953818L93.86222222222221,89.00774155595518L94.38488888888888,96.33637452260103L94.49066666666667,90.93738536411702L94.93244444444444,95.5105018265016L95.05688888888889,82.93592919615774L95.10044444444445,90.03373109304057L95.80355555555555,89.09822355827946L95.82222222222222,86.93354099162919L95.95288888888888,90.4553013959269L96.32,89.72560769711893L96.38222222222223,78.72895207085196L96.40711111111112,79.33671169629886L96.58755555555555,79.39259170671777L96.79288888888888,85.28885217102558L97.11644444444445,81.92730233825122L97.22222222222221,81.85773143592229L97.30933333333334,79.45425592352053L97.4088888888889,83.49073199148616L97.51466666666667,94.14270647571738L97.76355555555556,91.4608472148826L98.04977777777778,96.01234941642485L98.056,89.29240869586071L98.19288888888889,86.75353161455949L98.23644444444444,88.0258088698457L98.41066666666666,81.85832884989064L98.47288888888889,81.08187371048086L98.57244444444444,81.49899216235778L98.62844444444445,86.79708792186221L98.71555555555555,88.1819893964785L98.952,89.54830894981454L98.97066666666666,91.77795751060896L99.18222222222222,83.24631673084043L99.20711111111112,88.82346029991444L99.35022222222221,86.42788493917202L99.38755555555556,84.85961610907638L99.39999999999999,94.38752927634845L99.64888888888888,87.9753855031877L99.68622222222223,83.51649954486486L99.76711111111112,83.83176699228524L99.79822222222222,91.47482106187914L100.19644444444445,83.5280221418499L100.31466666666667,86.20483303848741L100.37066666666666,87.9142516238842L100.65066666666667,82.38809947424545L100.79377777777778,89.88492829820876L100.80622222222223,86.63111182459738L100.81244444444444,84.76587985042153L101.17955555555555,84.69624307109284L102.16888888888889,92.53477199535912L102.49866666666667,98.43840176050404L102.62311111111111,98.73132019831553L102.816,91.27190589266546L102.872,89.24343945247941L102.97777777777777,97.7970643300335L103.08355555555556,95.0504783208577L103.27644444444444,80.35637322646015L103.59377777777779,82.67864329569193L103.73688888888888,88.00797996422709L103.82400000000001,86.9444578977468L104.28444444444445,81.37010383494862L104.99377777777778,91.69144458249477L105.59111111111112,90.87128386288987L105.62222222222222,87.00180467045348L105.84622222222222,89.39926636567134L106.03911111111111,94.36127383371361L106.64266666666667,89.48306999071505L106.80444444444444,91.85559543078767L106.82933333333334,88.8053099787459L106.92888888888889,87.89735754157007L107.19022222222222,81.79604374418616L107.58844444444445,93.39618901352071L107.60711111111111,91.61819212333356L107.70666666666666,85.19496659237542L108.30399999999999,88.56894315321604L108.63377777777777,84.90274784501139L109.22488888888888,88.81556374762751L109.95911111111111,92.23124985589304L110.13333333333333,91.49629302221027L110.50044444444445,96.50994159061705L110.60000000000001,94.24904198677936L110.79288888888888,86.0913895846669L111.24088888888889,88.98567008023517L111.35911111111112,86.81129955389125L111.62666666666667,84.47409991398662L111.75111111111111,77.8959532132753L112.112,80.27765724384818L112.21777777777778,87.82184533724798L112.38577777777778,95.6582634578133L112.51644444444445,93.04033669272998L112.5911111111111,84.3017711688675L112.68444444444444,95.77564242798478L112.70933333333333,91.79879473097479L112.81511111111111,81.65485252240244L113.03911111111111,89.43653374949672L113.28800000000001,89.42827630774012L113.49333333333333,90.44701777512165L114.17777777777778,98.99207369253766L114.50755555555556,97.47286698645644L114.53244444444444,96.46605651071188L114.65688888888889,87.05475658293771L114.96177777777777,89.73096968696994L115.14222222222222,90.39014303988807L115.40355555555556,94.2249713742995L115.72088888888888,86.21986366845225L115.864,88.55761492386283L116.2311111111111,92.38789584213424L116.24977777777777,90.93375900099248L116.65422222222222,88.59821200970637L116.83466666666666,87.69635045291514L117.04622222222223,94.16963246489179L117.264,98.22662904987578L117.40711111111112,98.92449315361121L117.50666666666667,93.82036934205667L117.83644444444445,93.16405273560197L117.96088888888889,90.87009236766303L118.04177777777778,88.63372312527261L118.0791111111111,79.67848284380183L118.21600000000001,92.65576912218947L118.72622222222223,96.62258627436407L119.60355555555556,91.2391384650145L120.01422222222223,91.48583515838281L120.02044444444444,99.4200584695955L120.05777777777777,94.28349450771888L120.11377777777778,95.06346624829324L120.21955555555556,91.9444066824037L120.29422222222223,91.76575261837316L120.33155555555555,86.95117671206026L120.69866666666667,99.75119744425785L121.00977777777777,96.55521688654332L121.30222222222223,93.64941083031619L121.52622222222222,96.31277340824494L121.67555555555555,90.14149148056939L121.69422222222222,86.9182650311392L122.16088888888889,96.12271439010308L122.19822222222221,84.09425216028853L122.3848888888889,84.72015987996167L122.44088888888889,94.27043162967327L122.46577777777777,89.95273909960414L122.50311111111111,90.94958721317539L123.07555555555555,93.89095746484475L123.08177777777779,95.0491212042454L123.13155555555556,92.93865887770188L123.15644444444445,91.00207176307492L123.26222222222222,86.44428803245087L123.66044444444445,82.53342597691163L123.77866666666667,77.86694299303669L123.99022222222223,90.78468646177919L124.13955555555556,88.82523389009344L124.61866666666667,83.57634475289863L125.01066666666667,84.72922004961603L125.29688888888889,86.84501042566154L125.57066666666667,91.18934598525942L125.6888888888889,83.44464565023017L126.10577777777777,76.58918795388632L126.46666666666667,77.92126069943784L126.60977777777778,87.51623990647268L127.11377777777777,89.78333311602383L127.288,83.81801594942772L127.39377777777777,83.0729447740315L127.40622222222223,88.57544964623445L127.60533333333333,83.9084890082359L127.79822222222222,86.78831702768326L128.16533333333334,81.46305836081315L129.0551111111111,94.13236253118438L129.20444444444445,93.0998469370839L129.26044444444446,85.4416995151137L129.29777777777778,87.65487636261362L129.584,82.08816888305815L129.60266666666666,84.48622856606353L129.72088888888888,93.3594425315432L129.83911111111112,91.62282002666682L130.54222222222222,87.73284426728523L130.62933333333334,97.048409077325L131.264,94.72222381464583L131.39466666666667,95.9728110012688L131.84266666666667,87.44064622152956L131.90488888888888,87.86817025275671L132.22222222222223,95.75888010633645L132.6702222222222,88.30305886893534L132.8071111111111,88.76585018407927L132.9128888888889,96.65008003144115L133.1991111111111,92.86053726446093L133.41066666666666,83.15855494408393L133.81511111111112,83.22016352044973L134.1511111111111,95.16495179505124L134.3128888888889,95.786715571765L134.344,92.23864943690454L134.78577777777778,88.55290751340928L135.00977777777777,91.780576648247L135.31466666666668,91.67975781755915L135.70044444444443,99.20977350551793L135.70666666666668,92.8288162043846L135.91822222222223,88.73159948075438L136.00533333333334,89.42764762196789L136.26666666666668,93.57118149580103L137.3057777777778,100.3952148587765L137.49866666666665,96.03346507196672L137.71022222222223,82.82243012287239L138.08977777777778,84.53183648863642L138.15200000000002,84.27772288194979L138.38222222222223,91.2118227858213L138.432,94.73779244259465L138.58755555555555,91.82600296670387L138.69955555555555,90.63860909912661L138.712,87.67230323781043L138.8551111111111,100.07179522367109L138.86133333333333,91.84166900575873L138.86755555555555,90.29063599133777L138.88622222222222,91.74211738357657L139.00444444444446,91.90663645128296L139.22222222222223,91.54558378163928L139.41511111111112,91.74925926329279L139.54577777777777,87.32264281035098L139.65777777777777,88.12226106930031L139.72,86.68779915971857L140.27377777777778,101.21152814310115L140.3608888888889,97.12944720141617L140.48533333333333,92.51021920344245L140.54133333333334,99.5234845777393L140.58488888888888,88.22221187671187L140.5911111111111,95.80950435288811L140.77155555555555,90.74063563779222L140.83377777777775,86.23624107533783L140.95822222222222,94.04305884478127L141.38755555555556,96.77088185166373L141.69244444444445,100.75913939799887L141.69866666666667,99.83080052028505L141.89777777777778,92.75278886751495L142.1342222222222,97.49509440023171L142.8248888888889,97.84932171089834L142.8808888888889,87.21932381623344L142.98044444444446,95.90659523818236L142.99911111111112,92.216848312272L143.0551111111111,92.58593923507269L143.22933333333333,96.9216037609503L143.44711111111113,85.81400173101129L143.52177777777777,82.31838573612094L143.76444444444445,82.63871426740218L143.92000000000002,79.8422967559454L144.0257777777778,84.90532163168419L144.4488888888889,87.46300328646274L144.5857777777778,83.36437305082548L144.76,90.82716272302338L145.096,89.42563185623435L145.36977777777776,87.5695999953395L145.92355555555557,88.1335399855473L145.92977777777776,83.2389981623212L146.5208888888889,91.16417926771321L146.8008888888889,86.70253922551026L147.55377777777778,83.17318950020929L147.59733333333332,91.49474667200907L148.37511111111112,91.76561993555015L148.6737777777778,83.14218062955453L148.9226666666667,88.95971656878119L149.07822222222222,91.14602501328518L149.19644444444444,89.5645842430422L149.22755555555554,84.85678769578254L149.37066666666666,87.62254759164537L149.50755555555554,92.88852017439162L149.63822222222223,86.1218321963817L150.06133333333335,87.31867316661955L150.39111111111112,84.2513062560506L150.752,89.38519889449864L151.02577777777776,88.16849127664482L151.05066666666667,95.12573668580974L151.2062222222222,89.60391660539996L152.35733333333334,92.46741029345469L152.45066666666668,91.01281793722899L152.46933333333334,90.05607497934258L152.60622222222221,89.85558540441099L152.64355555555554,89.10387022343279L152.94222222222223,93.13786387382746L153.03555555555556,91.79828551506519L153.28444444444443,90.12644960441399L153.32177777777778,86.05080281797333L153.4088888888889,91.83063527704589L153.47733333333335,94.46262038374468L153.53333333333333,84.13330497513026L153.81955555555555,72.15048258689964L153.888,83.40793227349887L153.92533333333333,80.48879284062056L154.29244444444444,74.46100072542059L154.46044444444445,89.57182890287729L154.60355555555554,93.47188988491571L155.0391111111111,88.71398657148949L155.17600000000002,86.27709948375174L155.38133333333332,91.9950797007654L155.48711111111112,94.36582896416083L155.53066666666666,91.85785601975401L155.77955555555556,84.3986113438681L155.86044444444445,89.50008883276286L155.89155555555556,95.07346910635113L155.92888888888888,97.21321973482561L155.94755555555554,94.46709334484653L156.42044444444446,98.31294423910744L156.42666666666665,100.14828624476101L156.43911111111112,100.51636546035252L156.70044444444446,101.11835545690711L156.71911111111112,95.10720183528207L156.912,94.37366748204525L157.08,90.68991143365979L157.09866666666667,90.79700574739886L157.12977777777778,93.47492464488391L157.47822222222223,87.98184397580482L157.57155555555556,85.5032571377844L157.62755555555555,89.77866817722679L157.64,90.78007345203544L157.94488888888887,97.29418047906552L158.032,94.3859312949244L158.29955555555554,89.00344299068705L158.57955555555554,86.13716882701975L158.83466666666666,85.94347579096262L158.91555555555556,93.74028532351853L158.92177777777778,87.18188686547995L159.0462222222222,88.71060491871167L159.05866666666668,95.66355412034723L159.08977777777778,95.70834766876115L159.15822222222224,90.68742868046527L159.8488888888889,83.32522061483292L159.97955555555555,83.19135587937127L160.40266666666665,86.27867434551911L160.4088888888889,89.81114081116755L160.42755555555556,92.42006574619705L160.43377777777778,97.44057792563794L160.67644444444446,92.43254537161016L160.73244444444444,102.46661065648327L160.88177777777776,96.7001862662249L161.0871111111111,94.16926109859202L161.24266666666665,90.00470195559205L161.46666666666667,81.6373139148853L161.7031111111111,82.07423328184692L161.952,81.67697875747525L162.00177777777776,86.46096837858137L162.20088888888887,93.5611025537641L162.28177777777776,96.84173476797704L162.67999999999998,95.73177485029842L163.08444444444444,90.48267076079425L163.22755555555557,95.4595727303202L163.75022222222222,90.20195533667307L163.76888888888888,85.18978054775515L163.79999999999998,90.78690767389027L164.2168888888889,91.08269131939208L164.32888888888888,93.93827893559376L164.79555555555558,97.3211907665898L165.0382222222222,95.91208293839173L165.04444444444445,93.99821414392741L166.02133333333333,94.0436410333377L166.28266666666667,97.64136087519576L166.2888888888889,92.90698602764866L166.69333333333336,91.511335785266L166.73066666666668,88.04879539532512L166.85511111111109,88.87464191167771L166.89244444444446,100.24490404307532L167.02311111111112,102.91935092997426L167.06044444444444,99.30367023782681L167.4337777777778,92.1624060028265L167.8008888888889,94.88686212036889L168,95.05045597924344L168.04355555555554,89.52688537030836L169.3751111111111,86.51329409992464L169.5306666666667,80.55745131459143L169.61155555555558,92.82763155494652L169.77955555555556,90.69112579025635L169.8231111111111,83.11283802905801L169.89155555555556,91.41498829809477L169.92266666666666,90.04075117384454L169.97244444444445,87.4211192022763L170.05955555555556,95.48428976817934L170.23377777777776,82.48179115885104L170.6631111111111,90.9615447077497L170.68177777777777,92.48589930666861L170.9431111111111,90.90886657052587L171.16088888888888,85.44892801210622L171.39111111111112,81.25317637986079L171.95733333333334,79.99343823459202L172.0568888888889,74.99035886870405L172.72266666666667,85.06512207884225L172.76622222222224,86.7221875186707L172.84088888888888,87.82184916241748L173.1582222222222,95.50627571862451L173.2266666666667,91.31693138806628L173.23288888888888,91.81488656174582L173.79288888888888,97.67064313082474L173.81155555555554,88.29128581201465L174.72622222222222,84.520181376598L174.7511111111111,88.60622232232957L174.75733333333332,88.52212742914546L174.86311111111112,90.58838075299974L174.95644444444443,87.01412242134379L175.01866666666666,86.07472389252968L175.0871111111111,92.15515684331253L175.11822222222222,101.52030309853869L175.14933333333335,92.82489152597553L175.17422222222223,92.15036745328572L175.21155555555555,86.46098435027943L175.3608888888889,92.19621016543526L175.42311111111113,87.21138886515864L175.58488888888888,82.8532493102732L175.59733333333332,83.5662122674061L175.86488888888888,86.2580618455916L176.008,85.04911567270396L176.32533333333333,86.05686347603654L176.47466666666665,96.32005955266895L176.59288888888887,95.3145110141752L176.68,93.0057862286376L176.88533333333334,97.78957740325161L177.58844444444446,93.26601157052687L177.89333333333332,89.11474672263215L178.27288888888887,86.01809624078017L178.39733333333334,85.84306810713666L178.4657777777778,98.68173669662815L178.59022222222222,96.87379118477004L178.96355555555556,98.35512897362192L179.04444444444445,91.52141021009238L179.27466666666666,91.26555277155222L179.39911111111113,90.61102646607709L179.46755555555555,98.99347831733446L180.00266666666667,88.12926529934971L180.0648888888889,95.44056693669545L180.94222222222223,90.3694755186891L181.17244444444444,88.25087091645621L181.1848888888889,92.85253020175703L181.36533333333335,94.00812819341186L181.60799999999998,91.140792781271L181.90666666666664,98.27467973715365L182.20533333333336,88.07297313406586L182.21777777777777,96.77962272959756L182.26755555555553,95.38769909698888L182.45422222222223,86.80039810641259L182.59733333333332,97.60843376439274L182.68444444444447,100.86874166695857L183.0391111111111,98.19382828223142L183.63644444444444,99.64559509176983L183.91644444444444,94.8506935740271L183.94133333333335,96.63659929373897L184.31466666666665,97.71793902293459L184.6008888888889,98.13878416687494L184.78755555555554,100.3432729898701L184.92444444444442,94.44087636227647L184.9742222222222,91.8279921235849L185.3662222222222,91.32183505305487L185.73333333333332,96.2117129803055L185.92000000000002,98.50395536900972L186.0568888888889,88.22801012707319L186.26222222222225,86.3618354547523L186.44266666666667,93.48885661079497L186.72266666666667,94.92773594265783L186.96533333333332,99.66915656568847L187.50044444444447,91.26089882946907L187.95466666666667,89.23300823727011L188.1102222222222,90.42749160114431L188.1911111111111,92.43368868185482L188.2471111111111,92.92221380453665L188.7386666666667,97.22302423708186L189.10577777777777,96.0915348434152L189.81511111111112,95.1472115311504L189.90844444444443,91.34520076407912L190.232,95.03696444230843L190.4,78.45884259302446L190.78577777777778,80.62306568844727L190.94133333333332,85.42483521550344L191.49511111111113,91.6697574132659L191.72533333333334,90.72805558657558L191.9431111111111,95.13943469848599L192.04266666666666,89.26124196897493L192.14844444444444,92.88368552307504L192.40355555555556,87.56435658208616L193.07555555555555,95.82404693552688L193.1751111111111,90.80698483542137L193.30577777777776,80.31359062653992L193.36177777777777,85.37771459763135L193.46133333333333,96.14326916195904L193.85333333333335,88.49850714150251L193.85955555555554,88.34870527483297L193.94666666666666,95.71584686079531L194.63111111111112,85.66699712768758L194.71200000000002,94.78174654680716L194.78044444444444,93.4445677393207L195.34044444444444,90.42508925889051L195.40266666666665,76.27117452897276L195.81955555555555,82.78939438930213L196.08088888888886,86.06612007566714L197.064,91.20679861525068L197.30044444444442,87.56338013020903L197.58666666666667,92.60732253634036L197.59911111111109,95.68530410942672L197.848,93.98365957425928L197.85422222222223,93.19054714316884L197.86044444444443,98.40754555175607L197.95999999999998,95.70586811427238L198.04088888888887,84.71429810811662L198.05333333333334,86.63110675688421L198.66933333333333,94.82938360403313L199.60266666666666,95.87987381629283L200.00088888888888,94.9924694745228L200.0382222222222,95.84177888745012L200.07555555555558,88.76611515328861L200.10044444444443,94.1769960810565L200.10666666666665,87.83073873002621L200.57333333333335,89.12165431769407L200.82222222222222,89.682651008732L201.16444444444446,93.98373723569189L201.84266666666667,91.43678462244142L201.91111111111113,91.7432785810513L201.9608888888889,86.52379009967973L202.25955555555555,94.06633488991234L202.4088888888889,95.6868861455058L202.65777777777777,96.84580103231806L202.67644444444443,93.7913940527969L202.86933333333334,94.0083189312193L202.93155555555558,96.49020576014414L202.9751111111111,98.43740994268376L203.0871111111111,100.2730263564337L203.4417777777778,102.42482621563866L203.56622222222222,103.74101743655758L203.58488888888888,96.34523787243113L203.71555555555554,99.48969052212614L204.2506666666667,96.8821596255985L204.81688888888888,96.49045527899611L204.82933333333335,93.73962430844446L205.02844444444446,90.54477653698024L205.14044444444443,94.17472027379631L206.90133333333333,89.61469971115731L207.0631111111111,93.70203070948658L207.3368888888889,100.81777534846519L207.6791111111111,102.8286573996705L208.0648888888889,87.23380985222508L208.1457777777778,90.06949525341291L208.7182222222222,92.06743334954938L208.89866666666666,75.94058932473644L209.14133333333334,88.51872234507555L209.5457777777778,89.86298808163068L210.88355555555557,88.9364799440132L211.3751111111111,98.24902734995787L211.53688888888888,86.49177869415644L211.67377777777776,88.55187335434104L211.792,86.68938821006832L211.91644444444444,95.78488451738762L211.94755555555557,97.29060216863795L212.04711111111112,97.59345903762119L212.1217777777778,98.30831862119014L212.22133333333335,95.02469490538905L212.38933333333333,91.1870242371991L212.81244444444442,104.35414865791142L213.11733333333333,97.51990958046652L213.19822222222223,88.98932183103457L213.24800000000002,95.98153074628789L213.48444444444445,96.27360874750883L213.83911111111112,90.97740094319452L214.28711111111113,86.92110238176771L214.49244444444443,91.70111819307878L214.536,89.08782163064033L214.59199999999998,94.10906849543392L214.90311111111112,98.10391854063725L214.92177777777778,93.03378452307406L215.05244444444443,89.2311562547939L215.1271111111111,90.77883551636762L215.24533333333335,92.83441143003871L215.36355555555556,90.24690296875544L216.20977777777776,89.85463289589528L216.71377777777778,88.83135229337552L216.72,89.54948583359854L216.93155555555555,90.82767414615685L217.04977777777776,86.14006472176764L217.336,90.80665157773674L217.78400000000002,90.92300027743413L217.81511111111112,94.7367232757228L217.97688888888888,90.70464807341168L218.26311111111113,95.95314107493428L218.35644444444443,91.40550631267178L218.63644444444444,94.61199070923466L218.86666666666665,96.78008938118991L219.13422222222223,92.94456404084036L219.25866666666667,94.48554573628931L219.296,99.80190546502125L219.37688888888889,92.82736297841649L219.5511111111111,89.20876331804507L219.81866666666667,85.61336738061235L220.06755555555554,81.12694758968085L220.40355555555556,95.33044066268813L220.48444444444442,94.98199974711184L220.64000000000001,97.36623663113691L220.68355555555556,93.0694010941433L220.70844444444444,85.81568506829926L221.32444444444442,82.03422560402944L221.3431111111111,76.51875589255172L221.48000000000002,86.74125242139371L221.59199999999998,93.42564477406133L221.79111111111112,94.56820658716435L222.1768888888889,93.23290568460176L222.26399999999998,90.77220229573706L222.36977777777778,91.76312894848053L222.376,89.71722506295468L222.63733333333334,85.50848618988525L223.25333333333333,98.14530678846174L223.42133333333334,96.39764311733933L223.98755555555556,92.64610527206696L224.32977777777776,93.42249640245929L224.65955555555556,96.65530691631513L225.33155555555555,95.88759069398196L225.4,100.46874863129915L226.16533333333334,84.83484637348677L226.53244444444445,89.70443196856507L226.76266666666666,91.185352446888L226.89333333333335,93.1872912487404L227.12355555555555,89.31728998506135L227.34755555555554,89.61408501658467L227.3537777777778,93.30602135099421L227.50933333333333,86.95763383164982L227.8951111111111,89.9196143255829L227.93244444444446,79.33209091370102L228.02577777777776,94.38276349999427L228.3368888888889,91.57434407988356L228.49866666666668,100.56719390121765L228.60444444444443,97.38219145285157L228.74755555555555,98.69648637432682L229.03377777777777,97.50197749479145L229.43822222222224,85.4490159668268L229.48177777777778,96.92335869462256L229.53155555555557,94.37592134631063L229.83022222222223,93.57261253419077L229.88622222222222,88.82690913606704L230.25333333333333,87.05754110784937L230.33422222222222,94.41573506344005L231.23644444444446,98.8087162913825L231.3111111111111,89.52993203886135L231.51644444444446,89.35904388621563L231.5288888888889,97.76288725453661L231.77777777777777,97.46388692982214L232.1822222222222,94.72995805790909L232.64266666666666,90.52829952975468L232.93511111111113,92.38322952087861L233.1591111111111,86.80008684991256L233.33955555555553,94.45568094729765L233.51999999999998,93.98681942176574L233.60088888888887,94.21903408508203L233.61955555555554,93.13646030322991L234.03022222222222,91.81671319681915L234.04888888888888,95.73373976977075L234.31644444444444,97.73474725258909L234.5591111111111,93.61187177090868L234.62133333333333,87.38543576395124L234.64,84.83161101021612L234.96977777777778,89.88122359147964L235.6728888888889,93.15831576200843L235.68533333333335,95.54825989092397L235.79111111111112,95.50778351817532L235.8346666666667,95.65103656210107L235.84088888888888,93.02444383683842L235.88444444444445,98.422726209891L236.2888888888889,96.40736640053278L236.3137777777778,92.65087942821697L236.46311111111112,89.75692969696885L236.53777777777776,100.27513478572037L236.61866666666666,100.61079638073788L236.66222222222223,97.31277143029351L237.16622222222222,92.22158450233132L237.37155555555557,86.32340398687995L237.39644444444443,97.17605809791436L237.56444444444443,92.05908202021739L237.57688888888887,82.0505709079481L237.99377777777778,89.33044087519553L238.03111111111113,91.05804577442132L238.13688888888888,89.36486269939789L238.57244444444447,90.72692312283853L238.63466666666665,96.1585689675154L238.74044444444445,87.6564383296705L238.784,91.24075851315405L238.80266666666665,85.44884377429544L238.84622222222222,85.65545877818131L238.8897777777778,94.96745517970666L238.95822222222222,104.5743294911446L239.80444444444444,102.91654898472078L240.03466666666665,94.1814067504702L240.37688888888889,90.98421145764581L240.42044444444443,93.31520898376938L240.8248888888889,89.09574404968832L240.98044444444443,92.9706978536209L241.03644444444444,90.49380402233443L241.11111111111111,97.45049828396735L241.22933333333336,96.66527308983206L241.3351111111111,88.71026561563254L241.42844444444447,94.02296427371121L241.67111111111112,94.6880848260006L241.7457777777778,95.44081572418534L241.90133333333333,93.4698639373983L242.08800000000002,100.29545747204642L242.13155555555556,95.53758476084082L242.49244444444443,97.25791498305641L242.56088888888888,89.84128740263877L242.77866666666665,89.69657216720937L242.8968888888889,92.48345590850973L242.94044444444444,90.35978634365902L243.2266666666667,101.9967755318026L243.376,101.59512706281107L243.55022222222223,98.48079850864951L243.5688888888889,100.75948218660571L243.7866666666667,95.18730770332424L244.2097777777778,86.91160632603489L244.36533333333335,93.8232152471269L244.57688888888887,89.40007327355245L244.59555555555553,88.30901671710532L244.8008888888889,90.44523973489969" style="fill: none;" fill="none"></path></g></g></g></g><g opacity="0.2"><g><g><g><path stroke="rgb(238, 51, 119)" stroke-width="2px" d="M31.378666666666664,43.61131007671358L31.397333333333332,49.128008317947405L31.55911111111111,18.87366027832033L31.702222222222222,63.801992130279544L32.10044444444444,74.95379204750061L32.156444444444446,64.27084214687348L32.54222222222222,74.55088086128235L32.57333333333333,68.54491968154908L32.704,51.563840699195865L32.816,63.99521465301514L33.03377777777778,73.22120286226273L33.04622222222222,72.97139389514923L33.096,75.35705865621567L33.73688888888889,70.22506017684937L33.97955555555556,74.33889521360398L34.06666666666667,87.86465747356415L34.452444444444446,77.04637117385865L34.620444444444445,69.60452432632447L34.72,90.72319329977036L34.763555555555556,74.49293638467789L35.062222222222225,88.88763238191605L35.14311111111111,79.11871774196625L35.230222222222224,69.23832244873047L35.29244444444444,82.51265777349472L35.56,87.18166275024414L35.60977777777778,76.46740914583206L35.91466666666667,73.01986927986145L36.00177777777778,69.3613941192627L36.10755555555555,76.08601958751679L36.14488888888889,79.86087174415589L36.31911111111111,80.52634997367859L36.99733333333333,74.98744047880173L37.15911111111111,74.58733023405075L37.37066666666667,95.06653047800064L37.42666666666666,80.22499943971634L37.75022222222223,76.96967418193817L37.986666666666665,83.30031646490097L38.45955555555556,92.59424872398377L38.96355555555556,65.90818340778351L39.30577777777778,88.6712861776352L39.324444444444445,68.41327543258667L39.41155555555555,92.14504773616791L39.43644444444444,63.94786388874054L39.73511111111111,73.49949867725373L39.778666666666666,93.1855444431305L40.05244444444445,86.83750767707825L40.239111111111114,81.8595026254654L40.59377777777778,88.47982485294342L40.77422222222222,68.74780757427216L40.87377777777778,81.29211039543152L40.973333333333336,72.19523603916168L41.321777777777775,77.49935449361801L41.639111111111106,90.82394231557846L41.75111111111111,91.36823208332062L41.80711111111111,77.80990357398987L41.89422222222222,99.37934906482697L41.906666666666666,78.14981479644776L41.925333333333334,74.52869082689286L42.19911111111111,65.75964863300324L42.59111111111111,73.55314095020294L42.647111111111116,64.66248590946198L42.728,68.11511309146881L42.74666666666667,75.98761529922486L42.79644444444445,74.13394905328751L43.04533333333333,88.44587935209275L43.15111111111111,86.74690146446228L43.232,95.84482617378235L43.568,80.50310428142548L43.78577777777778,71.60652906894684L44.040888888888894,78.12545509338379L44.15911111111111,66.68598575592041L44.72533333333333,82.95567865371704L44.800000000000004,81.36704618930817L44.87466666666667,93.17225058078766L44.99911111111111,80.0298830986023L45.03644444444445,84.29372234344483L45.16088888888889,80.27291781902314L45.19199999999999,81.87706686258316L45.471999999999994,94.39447958469391L45.54666666666666,94.21055109500885L45.76444444444444,81.2758405327797L45.98222222222222,62.72371454238892L45.98844444444445,88.07056910991669L46.27466666666667,82.65761179924012L46.38044444444445,82.75112504959107L46.39288888888889,73.28023482561112L46.424,70.54852647781372L46.57955555555556,94.19194180965424L46.58577777777778,90.60899658203125L46.66044444444445,84.8675546169281L46.69155555555555,76.37951899766922L46.872,82.97758222818375L46.965333333333334,78.07417876720429L47.00266666666666,88.02344114780426L47.824000000000005,72.42868496179581L48.16622222222222,83.10452641248703L48.25333333333334,85.65227444171906L48.47111111111111,72.15833045244217L49.13688888888889,80.59119601249695L49.57866666666667,92.35270465612412L49.852444444444444,85.5043338060379L50.02044444444444,92.71146388053894L50.039111111111104,86.04636372327805L50.4,82.30792380571366L50.785777777777774,98.65067989826203L51.00355555555555,84.5111242055893L51.21511111111111,71.64179546833039L51.30222222222223,92.89800764322281L51.31466666666667,76.30360711812973L51.32088888888889,98.53837699890137L51.68177777777778,90.49672020673752L52.32266666666666,85.32873387336731L52.577777777777776,73.59853954315186L52.77066666666667,78.3796458363533L53.51733333333333,89.46298183202744L53.629333333333335,84.67368490695954L53.64177777777778,68.767329287529L53.952888888888886,86.96891851425171L54.30133333333334,88.51162190437317L54.394666666666666,73.67541689872742L54.718222222222224,99.23232085704804L54.84888888888889,90.09771336317063L54.89244444444444,70.03493566513062L55.160000000000004,73.83557982444763L55.55822222222222,82.87671120166779L55.73244444444445,78.47481418848038L55.906666666666666,86.21792669296265L56.230222222222224,73.60510159730912L56.616,90.5258171081543L56.684444444444445,89.09093405008316L57.22577777777778,79.90698118209839L57.263111111111115,76.93279511928559L57.41866666666667,85.30140877962113L57.449777777777776,88.20476497411728L57.64266666666667,86.20910478830338L57.897777777777776,82.7290305018425L57.97866666666667,87.13926668167115L57.99111111111111,98.74103147983551L58.49511111111111,77.47167928218842L59.06755555555556,74.85074074268341L59.17333333333334,86.85430271625519L59.303999999999995,68.47647697925568L59.913777777777774,93.40702040195465L60.13777777777778,89.55294616222382L60.16266666666667,72.3179947257042L60.21244444444445,100.20550478696823L60.672888888888885,93.40727503299713L60.90933333333333,97.92662061452866L60.99644444444445,84.78713364601136L61.23288888888889,88.56944437026978L61.30755555555555,81.92169625759125L61.568888888888885,91.00787611007691L61.992000000000004,83.80221016407013L62.047999999999995,100.02380962371826L62.06666666666667,78.87090338468552L62.53955555555556,87.25874699354172L62.552,72.72027994394303L62.888,79.78398377895356L63.06222222222222,87.72576684951783L63.71555555555556,77.29999430179596L64.27555555555556,88.79579545259476L64.37511111111111,96.45074195861817L64.46222222222222,85.06747181415558L64.84177777777778,93.93167705535889L65.43288888888888,88.30040545463562L65.44533333333332,88.30040014982224L65.64444444444445,84.45958794355393L65.88088888888889,90.25387115478516L66.36,81.05265642404557L66.45333333333333,79.70344610214234L66.72711111111111,82.66027481555939L67.256,88.68903608322144L67.36177777777777,71.4787573337555L67.38044444444444,82.88639779090882L67.592,86.0826539516449L67.60444444444444,92.54431451559067L67.648,99.28354413509369L67.872,84.50595201253891L68.00266666666667,93.88498408794403L68.152,93.69855172634125L68.38844444444445,88.12419016361237L68.5128888888889,84.02380282878876L69.20355555555555,80.11361427307129L69.26577777777779,104.06478304862976L69.57688888888889,83.84454257488251L69.69511111111112,82.7996640920639L69.776,92.09574480056763L69.81333333333333,90.24590332508087L69.89422222222223,81.42295892238617L70.24888888888889,82.66785008907318L70.39200000000001,87.1485554099083L70.42311111111111,91.63544614315033L70.57244444444444,90.25936694145203L70.79022222222223,66.57539100646973L70.93955555555556,89.32985754013062L71.53688888888888,75.20768041610718L71.68622222222221,85.52922399044037L72.02222222222223,90.55021924972534L72.20266666666667,92.73101742267609L72.53866666666667,84.24425495862961L72.78133333333334,101.593026471138L72.8,79.3365492939949L72.87466666666666,89.63217355012894L73.06755555555556,87.91674543619156L73.71466666666666,93.56857849359513L73.76444444444444,91.34968645572663L73.85777777777778,88.86146904230118L74.46133333333334,90.71039278507233L74.6231111111111,71.19326288700104L74.76,66.02930290699005L75.33244444444443,99.3412605047226L75.38222222222221,92.97348983287812L75.63733333333333,87.52708036899567L76.01688888888889,89.58019698858261L76.20977777777779,80.0572400212288L76.608,96.57634932994843L76.72,91.85749502182007L76.78222222222222,94.19002146720887L76.78844444444445,104.35235698223114L76.90666666666667,88.23805267810822L77.04977777777778,102.63796330690384L77.168,78.53593094348908L77.47288888888889,81.13674302101136L77.5351111111111,106.13855130672455L77.55377777777778,87.93819279670716L77.64711111111112,76.80796755552292L77.85244444444444,85.61099238395691L78.46222222222222,87.05705268383026L78.68,97.6853258728981L78.94755555555555,94.48591334819794L78.98488888888889,83.90972812175751L79.40177777777777,87.06241585016251L79.57600000000001,88.31678141355515L79.63822222222223,72.97664035558701L79.85600000000001,86.83244688510895L80.27288888888889,76.60863919258118L80.472,83.44846929311753L80.83911111111111,97.39421893358231L81.05688888888889,85.92750407457352L81.12533333333333,82.65651370286942L81.19999999999999,91.46492822170258L81.30577777777778,93.57627577781678L82.01511111111111,82.64196790456772L82.2328888888889,72.43663687705994L82.27022222222222,84.37313009500504L82.69955555555555,77.90153361558914L82.97333333333333,87.0171551823616L83.15377777777778,102.99422926902771L83.18488888888889,90.59087533950806L83.24088888888889,91.14845896959305L83.80088888888889,92.90658552646637L83.81955555555555,95.49079884290695L83.99377777777778,107.58671761751175L84.05600000000001,88.83412272930146L84.41688888888888,90.21195251941681L84.63466666666667,106.51607365608216L84.84,87.77839059829712L84.84622222222222,89.89030046463013L85.21955555555556,88.61787731647492L85.99111111111111,94.80870063304901L86.00977777777777,81.15942640304566L86.35822222222222,97.98218853473664L86.52,72.94629151821137L86.53866666666666,91.018390250206L86.66933333333333,80.19824726581574L86.7128888888889,85.43941349983216L87.07377777777778,76.66377742290497L87.11111111111111,89.42000753879547L87.45955555555555,78.93970150947571L87.50933333333333,93.71201003789902L88.52355555555556,90.61368073225022L88.5671111111111,82.23832465410233L88.73511111111111,82.75027627944947L89.08355555555556,87.46002752780915L89.28266666666667,90.37675185203553L89.68088888888889,84.46566195487976L89.69955555555556,93.7549418926239L89.824,90.79585332870484L89.86755555555555,99.34296334981919L90.02933333333334,100.17101819515229L90.46488888888888,93.26189131736756L90.52088888888889,72.11216266155243L90.56444444444443,99.13563532829285L90.64533333333333,92.99224765300751L90.78222222222223,104.20112736225128L91.01866666666666,90.7927871465683L91.20533333333333,86.13841814994812L91.34844444444444,83.62973476648331L91.46044444444445,87.04273499250412L91.896,91.89220441579819L92.36266666666666,76.17750639915467L92.61155555555557,93.04258502721787L92.7608888888889,89.73531503677368L93.16533333333334,80.51702411174774L93.65066666666667,94.82018024921418L93.68177777777777,93.26867617368698L93.70044444444446,86.13043971061707L93.86222222222221,89.31848402023316L94.38488888888888,101.22212983369828L94.49066666666667,87.338059258461L94.93244444444444,98.559246134758L95.05688888888889,74.5528807759285L95.10044444444445,94.76559902429581L95.80355555555555,88.47455186843872L95.82222222222222,85.49041928052903L95.95288888888888,92.80314166545868L96.32,89.23914523124695L96.38222222222223,71.39784832000733L96.40711111111112,79.74188477993012L96.58755555555555,79.42984504699707L96.79288888888888,89.21969248056412L97.11644444444445,79.68626911640168L97.22222222222221,81.81135083436966L97.30933333333334,77.85193891525269L97.4088888888889,86.18171603679657L97.51466666666667,101.24402279853821L97.76355555555556,89.67294104099274L98.04977777777778,99.046684217453L98.056,84.81244821548462L98.19288888888889,85.06094689369202L98.23644444444444,88.87399370670319L98.41066666666666,77.74667550325394L98.47288888888889,80.56423695087433L98.57244444444444,81.77707113027573L98.62844444444445,90.32915176153183L98.71555555555555,89.10525704622269L98.952,90.45918865203858L98.97066666666666,93.2643898844719L99.18222222222222,77.55855621099472L99.20711111111112,92.54155601263047L99.35022222222221,84.83083469867707L99.38755555555556,83.81410355567932L99.39999999999999,100.73947138786316L99.64888888888888,83.7006229877472L99.68622222222223,80.54390890598297L99.76711111111112,84.0419452905655L99.79822222222222,96.57019044160843L100.19644444444445,78.23015619516373L100.31466666666667,87.98937363624573L100.37066666666666,89.05386401414872L100.65066666666667,78.70399804115296L100.79377777777778,94.88281418085099L100.80622222222223,84.46190084218979L100.81244444444444,83.52239186763764L101.17955555555555,84.64981855154038L102.16888888888889,97.76045794487L102.49866666666667,102.3741549372673L102.62311111111111,98.92659915685654L102.816,86.29896302223206L102.872,87.89112849235535L102.97777777777777,103.49948091506958L103.08355555555556,93.21942098140717L103.27644444444444,70.56030316352845L103.59377777777779,84.22682334184647L103.73688888888888,91.56087107658387L103.82400000000001,86.23544318675995L104.28444444444445,77.6538677930832L104.99377777777778,98.5723384141922L105.59111111111112,90.32451004981995L105.62222222222222,84.42215187549591L105.84622222222222,90.99757416248322L106.03911111111111,97.66927881240845L106.64266666666667,86.2309340953827L106.80444444444444,93.43727905750275L106.82933333333334,86.77178634405136L106.92888888888889,87.2920559167862L107.19022222222222,77.7285012125969L107.58844444444445,101.12961919307709L107.60711111111111,90.43286086320877L107.70666666666666,80.91281623840332L108.30399999999999,90.81826086044312L108.63377777777777,82.45861763954163L109.22488888888888,91.42410768270493L109.95911111111111,94.50837392807007L110.13333333333333,91.0063217997551L110.50044444444445,99.8523739695549L110.60000000000001,92.74177558422089L110.79288888888888,80.65295464992523L111.24088888888889,90.91519041061402L111.35911111111112,85.3617192029953L111.62666666666667,82.91596682071686L111.75111111111111,73.51052207946778L112.112,81.86545993089676L112.21777777777778,92.85130406618119L112.38577777777778,100.88254220485688L112.51644444444445,91.29505218267441L112.5911111111111,78.47606081962586L112.68444444444444,103.42488993406296L112.70933333333333,89.14756293296814L112.81511111111111,74.89222438335419L113.03911111111111,94.62432123422623L113.28800000000001,89.42277134656906L113.49333333333333,91.12617875337601L114.17777777777778,104.68877763748169L114.50755555555556,96.46006251573563L114.53244444444444,95.79484952688217L114.65688888888889,80.78055663108826L114.96177777777777,91.51511175632477L115.14222222222222,90.8295919418335L115.40355555555556,96.78152359724045L115.72088888888888,80.88312519788742L115.864,90.11611576080323L116.2311111111111,94.94141645431519L116.24977777777777,89.96433444023133L116.65422222222222,87.04118068218231L116.83466666666666,87.09510941505432L117.04622222222223,98.48515380620957L117.264,100.93129343986512L117.40711111111112,99.38973588943482L117.50666666666667,90.41762013435364L117.83644444444445,92.72650833129883L117.96088888888889,89.34078545570374L118.04177777777778,87.14281029701233L118.0791111111111,73.70832265615464L118.21600000000001,101.30729330778122L118.72622222222223,99.26713104248047L119.60355555555556,87.65017325878144L120.01422222222223,91.65029962062836L120.02044444444444,104.70954067707062L120.05777777777777,90.85911853313446L120.11377777777778,95.58344740867615L120.21955555555556,89.86503363847733L120.29422222222223,91.64664990901947L120.33155555555555,83.741459441185L120.69866666666667,108.28454459905625L121.00977777777777,94.4245631814003L121.30222222222223,91.71220679283142L121.52622222222222,98.08834846019745L121.67555555555555,86.02730352878571L121.69422222222222,84.76944739818573L122.16088888888889,102.25901396274567L122.19822222222221,76.07527734041214L122.3848888888889,85.13743169307709L122.44088888888889,100.63727946281433L122.46577777777777,87.07427741289139L122.50311111111111,91.6141526222229L123.07555555555555,95.85187096595764L123.08177777777779,95.82123036384583L123.13155555555556,91.53168399333954L123.15644444444445,89.71101368665695L123.26222222222222,83.4057655453682L123.66044444444445,79.92618460655213L123.77866666666667,74.75595433712006L123.99022222222223,99.39651544094086L124.13955555555556,87.5189321756363L124.61866666666667,80.07708532810211L125.01066666666667,85.49780358076096L125.29688888888889,88.25553734302521L125.57066666666667,94.08556969165802L125.6888888888889,78.28151209354401L126.10577777777777,72.01888282299042L126.46666666666667,78.80930919647217L126.60977777777778,93.91289271116257L127.11377777777777,91.29472858905793L127.288,79.84113783836365L127.39377777777777,82.57623065710068L127.40622222222223,92.2437862277031L127.60533333333333,80.79718191623688L127.79822222222222,88.70820237398148L128.16533333333334,77.91288591623307L129.0551111111111,102.57856531143189L129.20444444444445,92.41150320768357L129.26044444444446,80.33626790046692L129.29777777777778,89.13032759428025L129.584,78.3770305633545L129.60266666666666,86.08493502140045L129.72088888888888,99.27491850852967L129.83911111111112,90.46507169008255L130.54222222222222,85.13952709436417L130.62933333333334,103.25878561735153L131.264,93.17143363952637L131.39466666666667,96.80653579235077L131.84266666666667,81.75253636837006L131.90488888888888,88.15318627357483L132.22222222222223,101.01935334205628L132.6702222222222,83.3325113773346L132.8071111111111,89.07437772750855L132.9128888888889,101.90623326301575L133.1991111111111,90.33417541980744L133.41066666666666,76.69056673049927L133.81511111111112,83.2612359046936L134.1511111111111,103.1281439781189L134.3128888888889,96.20122475624085L134.344,89.87327201366425L134.78577777777778,86.0957462310791L135.00977777777777,93.93235607147217L135.31466666666668,91.61254526376725L135.70044444444443,104.22978396415711L135.70666666666668,88.57484467029572L135.91822222222223,86.00012166500092L136.00533333333334,89.89167971611023L136.26666666666668,96.33353741168976L137.3057777777778,104.94457043409348L137.49866666666665,93.1256318807602L137.71022222222223,74.01507349014283L138.08977777777778,85.6714407324791L138.15200000000002,84.10831381082535L138.38222222222223,95.83455605506897L138.432,97.08843888044358L138.58755555555555,89.88480998277664L138.69955555555555,89.84701318740845L138.712,85.69476599693299L138.8551111111111,108.33812321424485L138.86133333333333,86.35491819381714L138.86755555555555,89.25661398172379L138.88622222222222,92.70977164506913L139.00444444444446,92.01631582975388L139.22222222222223,91.30488200187683L139.41511111111112,91.88504291772843L139.54577777777777,84.37156517505646L139.65777777777777,88.65533990859986L139.72,85.73149121999741L140.27377777777778,110.89401413202286L140.3608888888889,94.40805990695954L140.48533333333333,89.43073387145996L140.54133333333334,104.19899482727051L140.58488888888888,80.68803007602692L140.5911111111111,100.86769933700562L140.77155555555555,87.36138982772827L140.83377777777775,83.23331136703491L140.95822222222222,99.24760402441025L141.38755555555556,98.5894305229187L141.69244444444445,103.41797776222229L141.69866666666667,99.21190793514252L141.89777777777778,88.0341144323349L142.1342222222222,100.65663142204285L142.8248888888889,98.08547325134278L142.8808888888889,80.13265855312348L142.98044444444446,101.69810951948166L142.99911111111112,89.75701702833176L143.0551111111111,92.83199985027314L143.22933333333333,99.81204677820206L143.44711111111113,78.40893371105194L143.52177777777777,79.98797507286072L143.76444444444445,82.85226662158966L143.92000000000002,77.97801841497422L144.0257777777778,88.28067154884339L144.4488888888889,89.16812438964844L144.5857777777778,80.63195289373398L144.76,95.80235583782196L145.096,88.49127794504166L145.36977777777776,86.33224542140961L145.92355555555557,88.50949997901917L145.92977777777776,79.97597028017044L146.5208888888889,96.44763333797455L146.8008888888889,83.72811253070832L147.55377777777778,80.82028968334198L147.59733333333332,97.04245145320893L148.37511111111112,91.9462021112442L148.6737777777778,77.39322109222412L148.9226666666667,92.83807386159897L149.07822222222222,92.60356397628784L149.19644444444444,88.51029039621353L149.22755555555554,81.71825666427613L149.37066666666666,89.46638752222061L149.50755555555554,96.3991685628891L149.63822222222223,81.61070687770844L150.06133333333335,88.11656714677811L150.39111111111112,82.20639498233795L150.752,92.80779398679734L151.02577777777776,87.35735286474228L151.05066666666667,99.76390029191971L151.2062222222222,85.92270321846009L152.35733333333334,94.37640608549118L152.45066666666668,90.04308969974518L152.46933333333334,89.41824634075165L152.60622222222221,89.72192568778992L152.64355555555554,88.60272676944733L152.94222222222223,95.82719297409058L153.03555555555556,90.90523327589035L153.28444444444443,89.01189233064652L153.32177777777778,83.33370496034622L153.4088888888889,95.68385691642762L153.47733333333335,96.21727712154389L153.53333333333333,77.24709470272064L153.81955555555555,64.16193432807923L153.888,90.91289873123169L153.92533333333333,78.54269988536835L154.29244444444444,70.44247264862061L154.46044444444445,99.64571435451508L154.60355555555554,96.071930539608L155.0391111111111,85.54205102920533L155.17600000000002,84.65250809192658L155.38133333333332,95.80706651210785L155.48711111111112,95.94632847309113L155.53066666666666,90.1858740568161L155.77955555555556,79.42578155994416L155.86044444444445,92.90107382535935L155.89155555555556,98.78905595541L155.92888888888888,98.6397201538086L155.94755555555554,92.63634241819382L156.42044444444446,100.87684483528137L156.42666666666665,101.3718475818634L156.43911111111112,100.7617516040802L156.70044444444446,101.51968212127686L156.71911111111112,91.09976608753205L156.912,93.8846445798874L157.08,88.23407406806946L157.09866666666667,90.86840195655823L157.12977777777778,95.26020390987397L157.47822222222223,84.31979019641877L157.57155555555556,83.85086591243744L157.62755555555555,92.62894220352173L157.64,91.44767696857453L157.94488888888887,101.63691849708557L158.032,92.44709850549698L158.29955555555554,85.41511745452881L158.57955555555554,84.2263193845749L158.83466666666666,85.81434710025788L158.91555555555556,98.93815834522248L158.92177777777778,82.80962122678757L159.0462222222222,89.72975028753281L159.05866666666668,100.29885358810425L159.08977777777778,95.73821003437043L159.15822222222224,87.3401493549347L159.8488888888889,78.41708190441132L159.97955555555555,83.10211272239685L160.40266666666665,88.33688665628434L160.4088888888889,92.16611845493317L160.42755555555556,94.15934903621674L160.43377777777778,100.7875860452652L160.67644444444446,89.0938570022583L160.73244444444444,109.15598751306534L160.88177777777776,92.85590333938599L161.0871111111111,92.48197765350342L161.24266666666665,87.22832919359207L161.46666666666667,76.05905522108078L161.7031111111111,82.36551285982132L161.952,81.41214240789414L162.00177777777776,89.65029479265213L162.20088888888887,98.29452533721924L162.28177777777776,99.02882291078568L162.67999999999998,94.99180157184601L163.08444444444444,86.98326803445816L163.22755555555557,98.77750737667084L163.75022222222222,86.69687707424164L163.76888888888888,81.84833068847657L163.79999999999998,94.51832575798035L164.2168888888889,91.27988041639328L164.32888888888888,95.84200401306153L164.79555555555558,99.57646532058716L165.0382222222222,94.97267771959305L165.04444444444445,92.72230161428452L166.02133333333333,94.07392562627793L166.28266666666667,100.03984076976776L166.2888888888889,89.75073612928391L166.69333333333336,90.58090229034424L166.73066666666668,85.74043513536454L166.85511111111109,89.42520625591278L166.89244444444446,107.8250787973404L167.02311111111112,104.70231552124024L167.06044444444444,96.89321644306183L167.4337777777778,87.40156317949295L167.8008888888889,96.70316619873047L168,95.15951855182648L168.04355555555554,85.84450496435166L169.3751111111111,84.50423325300217L169.5306666666667,76.58688945770264L169.61155555555558,101.00775171518326L169.77955555555556,89.26678861379624L169.8231111111111,78.06064618825913L169.89155555555556,96.94975514411927L169.92266666666666,89.12459309101105L169.97244444444445,85.6746978878975L170.05955555555556,100.85973681211472L170.23377777777776,73.81345875263214L170.6631111111111,96.61471374034882L170.68177777777777,93.50213570594788L170.9431111111111,89.85751141309738L171.16088888888888,81.80896897315979L171.39111111111112,78.45600862503052L171.95733333333334,79.15361280441284L172.0568888888889,71.65497262477875L172.72266666666667,91.78163088560105L172.76622222222224,87.82689781188965L172.84088888888888,88.55495692491532L173.1582222222222,100.62922675609589L173.2266666666667,88.5240351676941L173.23288888888888,92.1468566775322L173.79288888888888,101.57448084354401L173.81155555555554,82.03838093280793L174.72622222222222,82.00611175298691L174.7511111111111,91.33024961948395L174.75733333333332,88.46606416702271L174.86311111111112,91.96588296890259L174.95644444444443,84.63128353357315L175.01866666666666,85.4484582066536L175.0871111111111,96.2087788105011L175.11822222222222,107.76373393535614L175.14933333333335,87.0279504776001L175.17422222222223,91.70068473815918L175.21155555555555,82.66806228160858L175.3608888888889,96.01969404220581L175.42311111111113,83.88817466497422L175.58488888888888,79.94782294034958L175.59733333333332,84.04152090549469L175.86488888888888,88.05262823104859L176.008,84.24315155744553L176.32533333333333,86.72869534492493L176.47466666666665,103.16219027042389L176.59288888888887,94.64414532184601L176.68,91.46663637161255L176.88533333333334,100.97877151966095L177.58844444444446,90.25030101537705L177.89333333333332,86.34723682403565L178.27288888888887,83.95366258621216L178.39733333333334,85.72638268470764L178.4657777777778,107.2408490896225L178.59022222222222,95.66849417686463L178.96355555555556,99.34268749952317L179.04444444444445,86.9655977010727L179.27466666666666,91.09498114585877L179.39911111111113,90.17467559576035L179.46755555555555,104.58177955150605L180.00266666666667,80.88645662069321L180.0648888888889,100.31476802825928L180.94222222222223,86.98874790668488L181.17244444444444,86.83846784830094L181.1848888888889,95.92030305862427L181.36533333333335,94.77852685451508L181.60799999999998,89.22923583984375L181.90666666666664,103.03060437440872L182.20533333333336,81.27183539867401L182.21777777777777,102.58405579328537L182.26755555555553,94.45975000858307L182.45422222222223,81.07553077936173L182.59733333333332,104.81379086971283L182.68444444444447,103.04228026866913L183.0391111111111,96.41055269241333L183.63644444444444,100.6134396314621L183.91644444444444,91.65409256219864L183.94133333333335,97.82720310688019L184.31466666666665,98.43883217573166L184.6008888888889,98.41934759616852L184.78755555555554,101.8129322052002L184.92444444444442,90.50594527721405L184.9742222222222,90.08606929779053L185.3662222222222,90.98439700603485L185.73333333333332,99.4716315984726L185.92000000000002,100.03211696147919L186.0568888888889,81.37737996578217L186.26222222222225,85.1177190065384L186.44266666666667,98.24020404815674L186.72266666666667,95.88698883056641L186.96533333333332,102.8301036477089L187.50044444444447,85.65539367198944L187.95466666666667,87.88108117580414L188.1102222222222,91.22381384372711L188.1911111111111,93.7711534023285L188.2471111111111,93.2478972196579L188.7386666666667,100.09023119211197L189.10577777777777,95.33720858097077L189.81511111111112,94.51766265630722L189.90844444444443,88.81052691936493L190.232,97.49814022779465L190.4,67.40676136016846L190.78577777777778,82.06588108539582L190.94133333333332,88.62601490020752L191.49511111111113,95.83303887844086L191.72533333333334,90.10025436878205L191.9431111111111,98.08035410642624L192.04266666666666,85.34244681596756L192.14844444444444,95.29864789247513L192.40355555555556,84.01813728809357L193.07555555555555,101.33050717115403L193.1751111111111,87.46227676868439L193.30577777777776,73.31799448728562L193.36177777777777,88.75379724502564L193.46133333333333,103.3203055381775L193.85333333333335,83.40199912786484L193.85955555555554,88.24883736371994L193.94666666666666,100.6272745847702L194.63111111111112,78.96776397228241L194.71200000000002,100.85824615955353L194.78044444444444,92.5531152009964L195.34044444444444,88.41210360527039L195.40266666666665,66.83523137569428L195.81955555555555,87.13487429618836L196.08088888888886,88.25060386657715L197.064,94.63391764163971L197.30044444444442,85.13443447351456L197.58666666666667,95.96995080709458L197.59911111111109,97.73729182481766L197.848,92.84922988414765L197.85422222222223,92.66180552244187L197.86044444444443,101.88554449081421L197.95999999999998,93.90474982261658L198.04088888888887,77.38658477067948L198.05333333333334,87.90897918939591L198.66933333333333,100.29490150213242L199.60266666666666,96.58020062446595L200.00088888888888,94.40086658000946L200.0382222222222,96.40798516273499L200.07555555555558,84.04900599718094L200.10044444444443,97.78425003290177L200.10666666666665,83.59990049600601L200.57333333333335,89.98226470947266L200.82222222222222,90.05664880275727L201.16444444444446,96.85112805366516L201.84266666666667,89.73881621360779L201.91111111111113,91.94760788679123L201.9608888888889,83.0441311120987L202.25955555555555,99.09469808340073L202.4088888888889,96.76725364923477L202.65777777777777,97.61841095685959L202.67644444444443,91.75512273311615L202.86933333333334,94.15293551683426L202.93155555555558,98.14479697942734L202.9751111111111,99.73554606437683L203.0871111111111,101.496770632267L203.4417777777778,103.85935945510865L203.56622222222222,104.61847825050354L203.58488888888888,91.41471816301346L203.71555555555554,101.58599228858948L204.2506666666667,95.14380569458008L204.81688888888888,96.22931904792786L204.82933333333335,91.90573699474335L205.02844444444446,88.41487802267075L205.14044444444443,96.59468276500702L206.90133333333333,86.57468600273133L207.0631111111111,96.42691804170609L207.3368888888889,105.56160510778427L207.6791111111111,104.16924543380738L208.0648888888889,76.83724482059479L208.1457777777778,91.95995218753815L208.7182222222222,93.39939208030701L208.89866666666666,65.18935997486115L209.14133333333334,96.90414435863495L209.5457777777778,90.75916523933411L210.88355555555557,88.31880785226822L211.3751111111111,104.45739228725434L211.53688888888888,78.65361292362213L211.67377777777776,89.92526979446411L211.792,85.44773144721985L211.91644444444444,101.84854872226715L211.94755555555557,98.29441393613816L212.04711111111112,97.79536361694336L212.1217777777778,98.78489167690277L212.22133333333335,92.83561242818833L212.38933333333333,88.62857712507248L212.81244444444442,113.13223160505295L213.11733333333333,92.96375019550324L213.19822222222223,83.30226333141327L213.24800000000002,100.64300335645676L213.48444444444445,96.46832741498947L213.83911111111112,87.4465957403183L214.28711111111113,84.2169033408165L214.49244444444443,94.88779540061951L214.536,87.34562392234803L214.59199999999998,97.45656640529633L214.90311111111112,100.76715190410614L214.92177777777778,89.65369517803192L215.05244444444443,86.69607074260712L215.1271111111111,91.81062169075012L215.24533333333335,94.20479537248612L215.36355555555556,88.52189732789994L216.20977777777776,89.5931195139885L216.71377777777778,88.149165225029L216.72,90.02824152708054L216.93155555555555,91.6797996878624L217.04977777777776,83.01499177217484L217.336,93.91770948171616L217.78400000000002,91.00056607723236L217.81511111111112,97.27920527458191L217.97688888888888,88.0165979385376L218.26311111111113,99.45213640928269L218.35644444444443,88.37374980449677L218.63644444444444,96.74964697360993L218.86666666666665,98.22548849582672L219.13422222222223,90.38754714727402L219.25866666666667,95.5128668665886L219.296,103.34614528417588L219.37688888888889,88.17766798734665L219.5511111111111,86.79636354446411L219.81866666666667,83.2164367556572L220.06755555555554,78.13600106239319L220.40355555555556,104.799436044693L220.48444444444442,94.74970580339432L220.64000000000001,98.95572788715363L220.68355555555556,90.2048440694809L220.70844444444444,80.97987438440323L221.32444444444442,79.51325262784958L221.3431111111111,72.8417760848999L221.48000000000002,93.55625010728836L221.59199999999998,97.88190634250641L221.79111111111112,95.32991446256638L222.1768888888889,92.34270508289337L222.26399999999998,89.13173336982727L222.36977777777778,92.42374671697617L222.376,88.35328913927079L222.63733333333334,82.70266027450562L223.25333333333333,106.56985385417939L223.42133333333334,95.23253400325775L223.98755555555556,90.14508004188538L224.32977777777776,93.94009048938752L224.65955555555556,98.81051392555237L225.33155555555555,95.37577987909317L225.4,103.52285392284394L226.16533333333334,74.4122448682785L226.53244444444445,92.95082236528397L226.76266666666666,92.17263276576996L226.89333333333335,94.521917116642L227.12355555555555,86.73728914260865L227.34755555555554,89.81194837093354L227.3537777777778,95.76731224060059L227.50933333333333,82.72537548542023L227.8951111111111,91.89426798820496L227.93244444444446,72.27374197244644L228.02577777777776,104.41654522418976L228.3368888888889,89.70206446647644L228.49866666666668,106.56242711544037L228.60444444444443,95.25885648727417L228.74755555555555,99.57268298864365L229.03377777777777,96.70563824176789L229.43822222222224,77.41370828151703L229.48177777777778,104.57292051315308L229.53155555555557,92.67762978076935L229.83022222222223,93.03707332611084L229.88622222222222,85.66310687065125L230.25333333333333,85.87796242237091L230.33422222222222,99.32119770050049L231.23644444444446,101.73737044334412L231.3111111111111,83.34407587051392L231.51644444444446,89.24511845111847L231.5288888888889,103.36544950008393L231.77777777777777,97.26455338001252L232.1822222222222,92.90733880996704L232.64266666666666,87.72719384431839L232.93511111111113,93.61984951496125L233.1591111111111,83.07799173593521L233.33955555555553,99.55941034555435L233.51999999999998,93.67424507141114L233.60088888888887,94.37384386062622L233.61955555555554,92.4147444486618L234.03022222222222,90.93688179254532L234.04888888888888,98.34509081840515L234.31644444444444,99.06875224113465L234.5591111111111,90.86328811645508L234.62133333333333,83.23447842597962L234.64,83.1290611743927L234.96977777777778,93.24763197898865L235.6728888888889,95.34304387569428L235.68533333333335,97.14155597686768L235.79111111111112,95.48079926967621L235.8346666666667,95.74653859138489L235.84088888888888,91.27338201999665L235.88444444444445,102.0215811252594L236.2888888888889,95.06379319429398L236.3137777777778,90.14655478000641L236.46311111111112,87.82762987613678L236.53777777777776,107.28727151155472L236.61866666666666,100.83457077741623L236.66222222222223,95.11408812999726L237.16622222222222,88.82745988368988L237.37155555555557,82.3912836432457L237.39644444444443,104.41116083860398L237.56444444444443,88.64776463508606L237.57688888888887,75.37823016643524L237.99377777777778,94.18368752002716L238.03111111111113,92.20978237390518L238.13688888888888,88.23607398271561L238.57244444444447,91.6349634051323L238.63466666666665,99.77966619729996L238.74044444444445,81.9883512377739L238.784,93.6303053021431L238.80266666666665,81.58756728172303L238.84622222222222,85.79320211410523L238.8897777777778,101.17545278072357L238.95822222222222,110.97891236543656L239.80444444444444,101.81136198043824L240.03466666666665,88.35797859430313L240.37688888888889,88.85274792909622L240.42044444444443,94.86920733451844L240.8248888888889,86.28276742696762L240.98044444444443,95.55400038957596L241.03644444444444,88.84254146814347L241.11111111111111,102.08829445838929L241.22933333333336,96.1417896270752L241.3351111111111,83.40692729949951L241.42844444444447,97.56476337909699L241.67111111111112,95.13149852752686L241.7457777777778,95.94263632297516L241.90133333333333,92.15589607954026L242.08800000000002,104.84585316181183L242.13155555555556,92.36566962003708L242.49244444444443,98.40480179786682L242.56088888888888,84.89686901569367L242.77866666666665,89.60009534358979L242.8968888888889,94.34137840270996L242.94044444444444,88.94400663375855L243.2266666666667,109.75476832389832L243.376,101.32736141681671L243.55022222222223,96.40457947254181L243.5688888888889,102.27860463857651L243.7866666666667,91.47252471446991L244.2097777777778,81.39447207450867L244.36533333333335,98.43095452785492L244.57688888888887,86.45131195783615L244.59555555555553,87.58164567947388L244.8008888888889,91.86938841342926" style="fill: none;" fill="none"></path></g></g></g></g></g></g><g transform="translate(50, 178)" clip-path="url(#clip_1)"><clipPath id="clip_1"><rect width="280" height="22"></rect></clipPath><g><g><line x1="0" y1="0" x2="0" y2="5" style="visibility: inherit;" fill="rgb(0, 0, 0)" stroke="rgb(204, 204, 204)" stroke-width="1px"></line><line x1="31.11111111111111" y1="0" x2="31.11111111111111" y2="5" style="visibility: inherit;" fill="rgb(0, 0, 0)" stroke="rgb(204, 204, 204)" stroke-width="1px"></line><line x1="62.22222222222222" y1="0" x2="62.22222222222222" y2="5" style="visibility: inherit;" fill="rgb(0, 0, 0)" stroke="rgb(204, 204, 204)" stroke-width="1px"></line><line x1="93.33333333333333" y1="0" x2="93.33333333333333" y2="5" style="visibility: inherit;" fill="rgb(0, 0, 0)" stroke="rgb(204, 204, 204)" stroke-width="1px"></line><line x1="124.44444444444444" y1="0" x2="124.44444444444444" y2="5" style="visibility: inherit;" fill="rgb(0, 0, 0)" stroke="rgb(204, 204, 204)" stroke-width="1px"></line><line x1="155.55555555555557" y1="0" x2="155.55555555555557" y2="5" style="visibility: inherit;" fill="rgb(0, 0, 0)" stroke="rgb(204, 204, 204)" stroke-width="1px"></line><line x1="186.66666666666666" y1="0" x2="186.66666666666666" y2="5" style="visibility: inherit;" fill="rgb(0, 0, 0)" stroke="rgb(204, 204, 204)" stroke-width="1px"></line><line x1="217.77777777777777" y1="0" x2="217.77777777777777" y2="5" style="visibility: inherit;" fill="rgb(0, 0, 0)" stroke="rgb(204, 204, 204)" stroke-width="1px"></line><line x1="248.88888888888889" y1="0" x2="248.88888888888889" y2="5" style="visibility: inherit;" fill="rgb(0, 0, 0)" stroke="rgb(204, 204, 204)" stroke-width="1px"></line><line x1="280" y1="0" x2="280" y2="5" style="visibility: inherit;" fill="rgb(0, 0, 0)" stroke="rgb(204, 204, 204)" stroke-width="1px"></line></g><g transform="translate(0, 8)"><text x="0" y="0" dx="0em" dy="0.95em" style="text-anchor: middle; visibility: hidden; font-family: &quot;Helvetica Neue&quot;, sans-serif; font-size: 12px; font-weight: 200;" fill="rgb(50, 49, 63)" stroke="none" stroke-width="1px">-50k</text><text x="31.11111111111111" y="0" dx="0em" dy="0.95em" style="text-anchor: middle; visibility: inherit; font-family: &quot;Helvetica Neue&quot;, sans-serif; font-size: 12px; font-weight: 200;" fill="rgb(50, 49, 63)" stroke="none" stroke-width="1px">0</text><text x="62.22222222222222" y="0" dx="0em" dy="0.95em" style="text-anchor: middle; visibility: hidden; font-family: &quot;Helvetica Neue&quot;, sans-serif; font-size: 12px; font-weight: 200;" fill="rgb(50, 49, 63)" stroke="none" stroke-width="1px">50k</text><text x="93.33333333333333" y="0" dx="0em" dy="0.95em" style="text-anchor: middle; visibility: inherit; font-family: &quot;Helvetica Neue&quot;, sans-serif; font-size: 12px; font-weight: 200;" fill="rgb(50, 49, 63)" stroke="none" stroke-width="1px">100k</text><text x="124.44444444444444" y="0" dx="0em" dy="0.95em" style="text-anchor: middle; visibility: hidden; font-family: &quot;Helvetica Neue&quot;, sans-serif; font-size: 12px; font-weight: 200;" fill="rgb(50, 49, 63)" stroke="none" stroke-width="1px">150k</text><text x="155.55555555555557" y="0" dx="0em" dy="0.95em" style="text-anchor: middle; visibility: inherit; font-family: &quot;Helvetica Neue&quot;, sans-serif; font-size: 12px; font-weight: 200;" fill="rgb(50, 49, 63)" stroke="none" stroke-width="1px">200k</text><text x="186.66666666666666" y="0" dx="0em" dy="0.95em" style="text-anchor: middle; visibility: hidden; font-family: &quot;Helvetica Neue&quot;, sans-serif; font-size: 12px; font-weight: 200;" fill="rgb(50, 49, 63)" stroke="none" stroke-width="1px">250k</text><text x="217.77777777777777" y="0" dx="0em" dy="0.95em" style="text-anchor: middle; visibility: inherit; font-family: &quot;Helvetica Neue&quot;, sans-serif; font-size: 12px; font-weight: 200;" fill="rgb(50, 49, 63)" stroke="none" stroke-width="1px">300k</text><text x="248.88888888888889" y="0" dx="0em" dy="0.95em" style="text-anchor: middle; visibility: hidden; font-family: &quot;Helvetica Neue&quot;, sans-serif; font-size: 12px; font-weight: 200;" fill="rgb(50, 49, 63)" stroke="none" stroke-width="1px">350k</text><text x="280" y="0" dx="0em" dy="0.95em" style="text-anchor: middle; visibility: hidden; font-family: &quot;Helvetica Neue&quot;, sans-serif; font-size: 12px; font-weight: 200;" fill="rgb(50, 49, 63)" stroke="none" stroke-width="1px">400k</text></g><line x1="0" y1="0" x2="280" y2="0" fill="rgb(0, 0, 0)" stroke="rgb(204, 204, 204)" stroke-width="1px"></line></g></g></g></g></svg>