<svg viewBox="0 0 330 200" xmlns="http://www.w3.org/2000/svg"><g><g><g><g><g><line x1="50" y1="178" x2="45" y2="178" style="visibility: inherit;" fill="rgb(0, 0, 0)" stroke="rgb(204, 204, 204)" stroke-width="1px"></line><line x1="50" y1="155.75" x2="45" y2="155.75" style="visibility: inherit;" fill="rgb(0, 0, 0)" stroke="rgb(204, 204, 204)" stroke-width="1px"></line><line x1="50" y1="133.5" x2="45" y2="133.5" style="visibility: inherit;" fill="rgb(0, 0, 0)" stroke="rgb(204, 204, 204)" stroke-width="1px"></line><line x1="50" y1="111.24999999999999" x2="45" y2="111.24999999999999" style="visibility: inherit;" fill="rgb(0, 0, 0)" stroke="rgb(204, 204, 204)" stroke-width="1px"></line><line x1="50" y1="88.99999999999999" x2="45" y2="88.99999999999999" style="visibility: inherit;" fill="rgb(0, 0, 0)" stroke="rgb(204, 204, 204)" stroke-width="1px"></line><line x1="50" y1="66.75" x2="45" y2="66.75" style="visibility: inherit;" fill="rgb(0, 0, 0)" stroke="rgb(204, 204, 204)" stroke-width="1px"></line><line x1="50" y1="44.5" x2="45" y2="44.5" style="visibility: inherit;" fill="rgb(0, 0, 0)" stroke="rgb(204, 204, 204)" stroke-width="1px"></line><line x1="50" y1="22.25" x2="45" y2="22.25" style="visibility: inherit;" fill="rgb(0, 0, 0)" stroke="rgb(204, 204, 204)" stroke-width="1px"></line><line x1="50" y1="0" x2="45" y2="0" style="visibility: inherit;" fill="rgb(0, 0, 0)" stroke="rgb(204, 204, 204)" stroke-width="1px"></line></g><g transform="translate(40, 0)"><text x="0" y="178" dx="0em" dy="0.3em" style="text-anchor: end; visibility: hidden; font-family: &quot;Helvetica Neue&quot;, sans-serif; font-size: 12px; font-weight: 200;" fill="rgb(50, 49, 63)" stroke="none" stroke-width="1px">-0.2</text><text x="0" y="155.75" dx="0em" dy="0.3em" style="text-anchor: end; visibility: inherit; font-family: &quot;Helvetica Neue&quot;, sans-serif; font-size: 12px; font-weight: 200;" fill="rgb(50, 49, 63)" stroke="none" stroke-width="1px">0</text><text x="0" y="133.5" dx="0em" dy="0.3em" style="text-anchor: end; visibility: hidden; font-family: &quot;Helvetica Neue&quot;, sans-serif; font-size: 12px; font-weight: 200;" fill="rgb(50, 49, 63)" stroke="none" stroke-width="1px">0.2</text><text x="0" y="111.24999999999999" dx="0em" dy="0.3em" style="text-anchor: end; visibility: inherit; font-family: &quot;Helvetica Neue&quot;, sans-serif; font-size: 12px; font-weight: 200;" fill="rgb(50, 49, 63)" stroke="none" stroke-width="1px">0.4</text><text x="0" y="88.99999999999999" dx="0em" dy="0.3em" style="text-anchor: end; visibility: hidden; font-family: &quot;Helvetica Neue&quot;, sans-serif; font-size: 12px; font-weight: 200;" fill="rgb(50, 49, 63)" stroke="none" stroke-width="1px">0.6</text><text x="0" y="66.75" dx="0em" dy="0.3em" style="text-anchor: end; visibility: inherit; font-family: &quot;Helvetica Neue&quot;, sans-serif; font-size: 12px; font-weight: 200;" fill="rgb(50, 49, 63)" stroke="none" stroke-width="1px">0.8</text><text x="0" y="44.5" dx="0em" dy="0.3em" style="text-anchor: end; visibility: hidden; font-family: &quot;Helvetica Neue&quot;, sans-serif; font-size: 12px; font-weight: 200;" fill="rgb(50, 49, 63)" stroke="none" stroke-width="1px">1</text><text x="0" y="22.25" dx="0em" dy="0.3em" style="text-anchor: end; visibility: inherit; font-family: &quot;Helvetica Neue&quot;, sans-serif; font-size: 12px; font-weight: 200;" fill="rgb(50, 49, 63)" stroke="none" stroke-width="1px">1.2</text><text x="0" y="0" dx="0em" dy="0.3em" style="text-anchor: end; visibility: hidden; font-family: &quot;Helvetica Neue&quot;, sans-serif; font-size: 12px; font-weight: 200;" fill="rgb(50, 49, 63)" stroke="none" stroke-width="1px">1.4</text></g><line x1="50" y1="0" x2="50" y2="178" fill="rgb(0, 0, 0)" stroke="rgb(204, 204, 204)" stroke-width="1px"></line></g></g><g transform="translate(50, 0)" clip-path="url(#clip_0)"><clipPath id="clip_0"><rect width="280" height="178"></rect></clipPath><g><g><g><line x1="0" y1="0" x2="0" y2="178" fill="rgb(0, 0, 0)" stroke="rgb(60, 60, 60)" stroke-width="1px" opacity="0.25"></line><line x1="31.11111111111111" y1="0" x2="31.11111111111111" y2="178" fill="rgb(0, 0, 0)" stroke="rgb(60, 60, 60)" stroke-width="1px" opacity="0.25"></line><line x1="62.22222222222222" y1="0" x2="62.22222222222222" y2="178" fill="rgb(0, 0, 0)" stroke="rgb(60, 60, 60)" stroke-width="1px" opacity="0.25"></line><line x1="93.33333333333333" y1="0" x2="93.33333333333333" y2="178" fill="rgb(0, 0, 0)" stroke="rgb(60, 60, 60)" stroke-width="1px" opacity="0.25"></line><line x1="124.44444444444444" y1="0" x2="124.44444444444444" y2="178" fill="rgb(0, 0, 0)" stroke="rgb(60, 60, 60)" stroke-width="1px" opacity="0.25"></line><line x1="155.55555555555557" y1="0" x2="155.55555555555557" y2="178" fill="rgb(0, 0, 0)" stroke="rgb(60, 60, 60)" stroke-width="1px" opacity="0.25"></line><line x1="186.66666666666666" y1="0" x2="186.66666666666666" y2="178" fill="rgb(0, 0, 0)" stroke="rgb(60, 60, 60)" stroke-width="1px" opacity="0.25"></line><line x1="217.77777777777777" y1="0" x2="217.77777777777777" y2="178" fill="rgb(0, 0, 0)" stroke="rgb(60, 60, 60)" stroke-width="1px" opacity="0.25"></line><line x1="248.88888888888889" y1="0" x2="248.88888888888889" y2="178" fill="rgb(0, 0, 0)" stroke="rgb(60, 60, 60)" stroke-width="1px" opacity="0.25"></line><line x1="280" y1="0" x2="280" y2="178" fill="rgb(0, 0, 0)" stroke="rgb(60, 60, 60)" stroke-width="1px" opacity="0.25"></line></g><g><line x1="0" y1="178" x2="280" y2="178" fill="rgb(0, 0, 0)" stroke="rgb(60, 60, 60)" stroke-width="1px" opacity="0.25"></line><line x1="0" y1="155.75" x2="280" y2="155.75" fill="rgb(0, 0, 0)" stroke="rgb(60, 60, 60)" stroke-width="1px" opacity="0.25"></line><line x1="0" y1="133.5" x2="280" y2="133.5" fill="rgb(0, 0, 0)" stroke="rgb(60, 60, 60)" stroke-width="1px" opacity="0.25"></line><line x1="0" y1="111.24999999999999" x2="280" y2="111.24999999999999" fill="rgb(0, 0, 0)" stroke="rgb(60, 60, 60)" stroke-width="1px" opacity="0.25"></line><line x1="0" y1="88.99999999999999" x2="280" y2="88.99999999999999" fill="rgb(0, 0, 0)" stroke="rgb(60, 60, 60)" stroke-width="1px" opacity="0.25"></line><line x1="0" y1="66.75" x2="280" y2="66.75" fill="rgb(0, 0, 0)" stroke="rgb(60, 60, 60)" stroke-width="1px" opacity="0.25"></line><line x1="0" y1="44.5" x2="280" y2="44.5" fill="rgb(0, 0, 0)" stroke="rgb(60, 60, 60)" stroke-width="1px" opacity="0.25"></line><line x1="0" y1="22.25" x2="280" y2="22.25" fill="rgb(0, 0, 0)" stroke="rgb(60, 60, 60)" stroke-width="1px" opacity="0.25"></line><line x1="0" y1="0" x2="280" y2="0" fill="rgb(0, 0, 0)" stroke="rgb(60, 60, 60)" stroke-width="1px" opacity="0.25"></line></g></g></g><g><g><line x1="0" y1="155.75" x2="280" y2="155.75" fill="rgb(0, 0, 0)" stroke="rgb(153, 153, 153)" stroke-width="1.5px"></line></g></g><g><g><line x1="31.11111111111111" y1="0" x2="31.11111111111111" y2="178" fill="rgb(0, 0, 0)" stroke="rgb(153, 153, 153)" stroke-width="1.5px"></line></g></g><g><g><g><g><g><path stroke="rgb(238, 51, 119)" stroke-width="2px" d="M31.378666666666664,30.387260138988495L31.397333333333332,40.68699107851299L31.55911111111111,25.268016607333436L31.702222222222222,41.63329596325681L32.10044444444444,54.50105976191223L32.156444444444446,50.51397167652105L32.54222222222222,54.464864137110865L32.57333333333333,54.444684749297465L32.704,45.99852147802355L32.816,49.33572495147067L33.03377777777778,61.0218565133207L33.04622222222222,62.925333884909406L33.096,66.3018718509719L33.73688888888889,63.79576813783363L33.97955555555556,59.96234531205501L34.06666666666667,73.88343943231274L34.452444444444446,69.34056711063346L34.620444444444445,66.65530993909518L34.72,80.6451005405015L34.763555555555556,68.93502542279698L35.062222222222225,78.26304341744117L35.14311111111111,71.10405486413354L35.230222222222224,57.53533277287343L35.29244444444444,64.40145852907749L35.56,75.79339263763839L35.60977777777778,74.98394835359905L35.91466666666667,63.690880174699856L36.00177777777778,64.9061177980047L36.10755555555555,67.43780724153223L36.14488888888889,70.9684856333189L36.31911111111111,68.38445009381863L36.99733333333333,67.70227445996308L37.15911111111111,65.07053405776205L37.37066666666667,80.4511484801161L37.42666666666666,74.02468838689272L37.75022222222223,69.37472757755731L37.986666666666665,73.29600182199087L38.45955555555556,81.57986417422138L38.96355555555556,67.49036007825313L39.30577777777778,78.10805176378798L39.324444444444445,62.4518770880759L39.41155555555555,79.560108724525L39.43644444444444,59.26851304304219L39.73511111111111,59.93265121154633L39.778666666666666,78.66478625723776L40.05244444444445,81.32105093911909L40.239111111111114,74.4660989630843L40.59377777777778,78.18948680117231L40.77422222222222,60.977337705908226L40.87377777777778,69.80256885402123L40.973333333333336,64.61956898614851L41.321777777777775,63.81865293580327L41.639111111111106,71.69816599805367L41.75111111111111,77.23352068968299L41.80711111111111,74.50443454507067L41.89422222222222,85.89572091270715L41.906666666666666,69.38559079118262L41.925333333333334,65.60229766646104L42.19911111111111,58.960472504413445L42.59111111111111,62.59943130716337L42.647111111111116,54.4188332502232L42.728,56.634052137302774L42.74666666666667,60.79876899511315L42.79644444444445,62.302817817690766L43.04533333333333,72.00988826003184L43.15111111111111,74.03801575242085L43.232,82.913236912841L43.568,73.68562933375613L43.78577777777778,66.1818723661509L44.040888888888894,67.52517088583336L44.15911111111111,47.39157409402222L44.72533333333333,59.55813978684938L44.800000000000004,65.43913656502167L44.87466666666667,77.4242077202765L44.99911111111111,71.09087156181208L45.03644444444445,70.02530999948452L45.16088888888889,67.77379457541255L45.19199999999999,67.63864910558043L45.471999999999994,75.08184388858152L45.54666666666666,79.82107312910583L45.76444444444444,72.90083338591586L45.98222222222222,67.85082161535077L45.98844444444445,73.95198356850644L46.27466666666667,74.15431707995612L46.38044444444445,75.94954204220565L46.39288888888889,66.75767035646831L46.424,61.25084859376588L46.57955555555556,74.38685119249597L46.58577777777778,79.36356514433295L46.66044444444445,77.80352826014864L46.69155555555555,72.63021562236828L46.872,71.7996666103136L46.965333333333334,67.32892071483656L47.00266666666666,72.83642238687722L47.824000000000005,70.22197083358466L48.16622222222222,72.16339428712725L48.25333333333334,75.6098218708825L48.47111111111111,64.46026711164284L49.13688888888889,66.15011112987348L49.57866666666667,81.59488393902518L49.852444444444444,80.93423876976863L50.02044444444444,79.29968374695737L50.039111111111104,75.80240086506349L50.4,74.6245273502292L50.785777777777774,83.96312638527638L51.00355555555555,76.12285977068142L51.21511111111111,73.11751014376716L51.30222222222223,81.50260303173478L51.31466666666667,69.08519923390554L51.32088888888889,82.12352099598093L51.68177777777778,86.08526527118937L52.32266666666666,80.81691063337428L52.577777777777776,73.45448536631623L52.77066666666667,71.02245755873982L53.51733333333333,76.86441659781481L53.629333333333335,76.52566851319132L53.64177777777778,62.83574511266252L53.952888888888886,69.78417918148241L54.30133333333334,73.08727714146217L54.394666666666666,67.93909349332267L54.718222222222224,79.2248419971864L54.84888888888889,84.1785669416825L54.89244444444444,69.88577933671633L55.160000000000004,59.82009126568856L55.55822222222222,64.96665266881395L55.73244444444445,59.32888686947031L55.906666666666666,68.90222798105877L56.230222222222224,65.950302117335L56.616,75.70457038313833L56.684444444444445,77.3819442392615L57.22577777777778,73.46467315559495L57.263111111111115,64.76322571398777L57.41866666666667,70.06145774508302L57.449777777777776,75.49985028181386L57.64266666666667,78.30796543707018L57.897777777777776,74.53728243489887L57.97866666666667,76.26400114210377L57.99111111111111,82.83392046535782L58.49511111111111,73.72432415244887L59.06755555555556,67.74833980225687L59.17333333333334,71.52194691607619L59.303999999999995,58.28727366391526L59.913777777777774,77.6648010208754L60.13777777777778,78.86219776449792L60.16266666666667,65.39641075741525L60.21244444444445,81.70347912673661L60.672888888888885,81.06076613690261L60.90933333333333,85.28499631534339L60.99644444444445,78.94511330704023L61.23288888888889,79.87612487010212L61.30755555555555,74.14405262622059L61.568888888888885,80.03101918758082L61.992000000000004,76.76561331415624L62.047999999999995,84.08383222387016L62.06666666666667,75.85279760247778L62.53955555555556,80.36149510934476L62.552,63.66176380592394L62.888,66.73732363433761L63.06222222222222,75.53201119602171L63.71555555555556,68.04741016924558L64.27555555555556,73.25605920910905L64.37511111111111,83.05126662039785L64.46222222222222,75.80225058588994L64.84177777777778,81.81170691527372L65.43288888888888,78.76153919091797L65.44533333333332,77.92642251547565L65.64444444444445,75.38411995826718L65.88088888888889,80.54780650758168L66.36,77.113827508185L66.45333333333333,72.40598165849595L66.72711111111111,73.1324414933115L67.256,72.09485001660944L67.36177777777777,69.81726692238473L67.38044444444444,72.34362942126997L67.592,77.65689396916868L67.60444444444444,80.42973846518612L67.648,87.83225753733959L67.872,79.96844996742189L68.00266666666667,78.1583394417436L68.152,82.87884005344989L68.38844444444445,76.74872866347266L68.5128888888889,75.87764448553256L69.20355555555555,71.65137101066085L69.26577777777779,88.63834698240746L69.57688888888889,81.31526642934793L69.69511111111112,74.64913268644139L69.776,80.00207698447913L69.81333333333333,78.6264339749154L69.89422222222223,75.2023352320646L70.24888888888889,69.1098787311973L70.39200000000001,76.97974404590376L70.42311111111111,78.69129656810382L70.57244444444444,81.36268026454775L70.79022222222223,63.982792982751235L70.93955555555556,75.66617403697734L71.53688888888888,65.58156479804423L71.68622222222221,69.4015371050783L72.02222222222223,76.16370980129037L72.20266666666667,82.73096576208033L72.53866666666667,72.61539871642653L72.78133333333334,88.4963943735745L72.8,74.87588776055917L72.87466666666666,81.6294693982758L73.06755555555556,78.94116258466872L73.71466666666666,79.50603776214375L73.76444444444444,82.24382360195261L73.85777777777778,81.14807255532399L74.46133333333334,80.34029851542336L74.6231111111111,66.0004979896006L74.76,63.32911409745441L75.33244444444443,75.19579760555355L75.38222222222221,81.78821584214342L75.63733333333333,79.2454625562015L76.01688888888889,78.8362331765963L76.20977777777779,75.09438644361785L76.608,84.00656690602419L76.72,86.09074366452263L76.78222222222222,87.5610874607641L76.78844444444445,93.18986926732376L76.90666666666667,85.15691375636224L77.04977777777778,91.83158010801938L77.168,76.54713334068167L77.47288888888889,72.17425513535541L77.5351111111111,86.65174951660555L77.55377777777778,77.03285852475136L77.64711111111112,71.69923955660332L77.85244444444444,72.48288099949069L78.46222222222222,79.27948661341074L78.68,85.64098001795531L78.94755555555555,83.76642380864429L78.98488888888889,81.32230626130504L79.40177777777777,79.75059706304235L79.57600000000001,77.98196203543249L79.63822222222223,68.15443969779611L79.85600000000001,73.02349550530674L80.27288888888889,68.14679900211239L80.472,70.4647830472475L80.83911111111111,83.09208209399722L81.05688888888889,77.48172727956113L81.12533333333333,71.39703706198429L81.19999999999999,74.44682349083222L81.30577777777778,78.37896448301234L82.01511111111111,77.66700062126701L82.2328888888889,63.054858380440024L82.27022222222222,68.30209970529204L82.69955555555555,72.7095329882913L82.97333333333333,73.34600663372726L83.15377777777778,91.21764859483183L83.18488888888889,84.14141977399801L83.24088888888889,80.40422688949194L83.80088888888889,80.39209414632354L83.81955555555555,83.26174303734794L83.99377777777778,97.02103252349096L84.05600000000001,88.14579700683672L84.41688888888888,83.45957489611752L84.63466666666667,92.71792126119949L84.84,81.62727978992787L84.84622222222222,80.03475064106117L85.21955555555556,74.8096217992597L85.99111111111111,82.9468539340374L86.00977777777777,70.75681046776282L86.35822222222222,84.75667978975099L86.52,68.18196382583349L86.53866666666666,74.37027573371397L86.66933333333333,71.93350509915537L86.7128888888889,72.40913945581035L87.07377777777778,66.84717052636749L87.11111111111111,70.8664254852462L87.45955555555555,68.90104521546077L87.50933333333333,71.80525284899598L88.52355555555556,78.66995510416555L88.5671111111111,75.34715867025585L88.73511111111111,75.28747530870807L89.08355555555556,77.06788570222525L89.28266666666667,76.97572211836682L89.68088888888889,72.98492198552651L89.69955555555556,77.28795758233849L89.824,80.05436859268498L89.86755555555555,86.82166355247715L90.02933333333334,88.91657184718221L90.46488888888888,84.68467196487654L90.52088888888889,71.51171231732077L90.56444444444443,85.15517752355458L90.64533333333333,85.06899118020583L90.78222222222223,94.54631891387481L91.01866666666666,84.83424937541396L91.20533333333333,76.89077382312263L91.34844444444444,75.68220275849518L91.46044444444445,75.2858661063926L91.896,76.55072295162744L92.36266666666666,65.23929868735338L92.61155555555557,79.07703283467873L92.7608888888889,79.67562630192036L93.16533333333334,73.45974105066297L93.65066666666667,83.7645426311741L93.68177777777777,83.12228462968864L93.70044444444446,78.90502525319495L93.86222222222221,77.73117122431533L94.38488888888888,87.30116665514284L94.49066666666667,79.00502311945745L94.93244444444444,88.03030281567885L95.05688888888889,69.04385919294482L95.10044444444445,80.20273866423656L95.80355555555555,76.97958800760384L95.82222222222222,76.43300294505548L95.95288888888888,79.6803907558401L96.32,79.12355107784586L96.38222222222223,64.04730722594388L96.40711111111112,65.46977276916553L96.58755555555555,71.47767805383701L96.79288888888888,74.25977094501692L97.11644444444445,71.69678222251113L97.22222222222221,69.14183504526684L97.30933333333334,65.36498303272275L97.4088888888889,69.29589857879459L97.51466666666667,84.68939110924076L97.76355555555556,79.0491669606736L98.04977777777778,87.06814805792058L98.056,73.15877341479572L98.19288888888889,76.39759084582533L98.23644444444444,76.08408038914284L98.41066666666666,67.37962723016773L98.47288888888889,70.65147284960759L98.57244444444444,67.31391072192196L98.62844444444445,77.84437416163445L98.71555555555555,77.76038082407855L98.952,79.09060724563177L98.97066666666666,84.39863721921752L99.18222222222222,72.45881544905787L99.20711111111112,81.14616095168543L99.35022222222221,75.96194484191398L99.38755555555556,68.1038328562469L99.39999999999999,81.31556379216076L99.64888888888888,77.90243772334718L99.68622222222223,74.80874780085429L99.76711111111112,72.10929974423547L99.79822222222222,83.61576584977587L100.19644444444445,75.39741671483786L100.31466666666667,78.33777944008934L100.37066666666666,79.55789612833829L100.65066666666667,70.37572421671618L100.79377777777778,80.71484762347406L100.80622222222223,74.22139359381461L100.81244444444444,71.86849756883248L101.17955555555555,71.10140334803526L102.16888888888889,83.99756715889241L102.49866666666667,91.55248876093017L102.62311111111111,90.36696588467831L102.816,80.22609900324056L102.872,79.48871272360687L102.97777777777777,90.30471902312995L103.08355555555556,84.37549027491474L103.27644444444444,68.07941957588538L103.59377777777779,70.44051683853287L103.73688888888888,76.95946584109551L103.82400000000001,76.30224578763676L104.28444444444445,72.05208629344158L104.99377777777778,86.37085739959977L105.59111111111112,83.29368591185292L105.62222222222222,76.22663403700145L105.84622222222222,80.07383216182531L106.03911111111111,87.61672042016244L106.64266666666667,81.63953147412957L106.80444444444444,80.70028359723736L106.82933333333334,79.2866088520791L106.92888888888889,79.44649128601179L107.19022222222222,69.48117600971548L107.58844444444445,85.75687347886598L107.60711111111111,85.70510361408246L107.70666666666666,74.50924794103722L108.30399999999999,77.0248604942402L108.63377777777777,75.78605544285142L109.22488888888888,77.61983454114659L109.95911111111111,84.44888709142393L110.13333333333333,79.29629950684145L110.50044444444445,86.35205442492895L110.60000000000001,81.93620642139408L110.79288888888888,71.64878261333263L111.24088888888889,79.67569542028728L111.35911111111112,74.81768024006772L111.62666666666667,67.65683743373269L111.75111111111111,62.159854048552944L112.112,62.632601848865676L112.21777777777778,76.73564825321243L112.38577777777778,89.24110701427858L112.51644444444445,85.75113040703933L112.5911111111111,72.9334495087401L112.68444444444444,86.04129784484451L112.70933333333333,84.92360255094266L112.81511111111111,74.58185653973378L113.03911111111111,81.02894118066133L113.28800000000001,78.23696181629303L113.49333333333333,79.56450076283696L114.17777777777778,91.00214369846057L114.50755555555556,88.68554009299544L114.53244444444444,88.46016049902067L114.65688888888889,70.51143662540288L114.96177777777777,76.22581057512032L115.14222222222222,76.61584000096029L115.40355555555556,84.36764695567014L115.72088888888888,74.7626308354621L115.864,76.68041835438748L116.2311111111111,83.9546694386464L116.24977777777777,82.9591333599274L116.65422222222222,79.69978109126826L116.83466666666666,79.52329976608569L117.04622222222223,85.3579552074282L117.264,90.78110065658919L117.40711111111112,89.47027261396262L117.50666666666667,84.30078686114157L117.83644444444445,85.09278164838156L117.96088888888889,83.82244040383658L118.04177777777778,80.53092004483445L118.0791111111111,65.52512027671139L118.21600000000001,84.51155881424825L118.72622222222223,89.28182240661016L119.60355555555556,80.30060346160744L120.01422222222223,77.56928602649533L120.02044444444444,89.68636902290092L120.05777777777777,83.80605792052548L120.11377777777778,85.09490275600353L120.21955555555556,84.18297110882918L120.29422222222223,82.85015488420932L120.33155555555555,74.76234020890794L120.69866666666667,89.16759940028986L121.00977777777777,87.17654590821584L121.30222222222223,83.84974444117672L121.52622222222222,86.50638683520368L121.67555555555555,82.3133476749365L121.69422222222222,72.89621565641181L122.16088888888889,88.32212595403676L122.19822222222221,76.13361180329514L122.3848888888889,74.2646030326851L122.44088888888889,82.4680763896373L122.46577777777777,74.67961987718212L122.50311111111111,80.09084816819137L123.07555555555555,85.84726443507554L123.08177777777779,89.65978506651831L123.13155555555556,82.92623331724529L123.15644444444445,80.48402205538324L123.26222222222222,78.74676947169132L123.66044444444445,76.55812317082338L123.77866666666667,66.11271499375124L123.99022222222223,82.15718997231969L124.13955555555556,76.21010449811557L124.61866666666667,70.89192095512048L125.01066666666667,74.11037960097748L125.29688888888889,74.65289564508421L125.57066666666667,81.35419693918315L125.6888888888889,70.06562265885388L126.10577777777777,64.4564332609674L126.46666666666667,65.02128219983182L126.60977777777778,73.91458793732008L127.11377777777777,77.63318716884646L127.288,72.76826667249597L127.39377777777777,66.643464884998L127.40622222222223,73.34076253149571L127.60533333333333,71.69684618939425L127.79822222222222,76.6467724272786L128.16533333333334,70.546162062056L129.0551111111111,84.8723336460857L129.20444444444445,84.40520604263419L129.26044444444446,76.99138890330264L129.29777777777778,81.0670907144716L129.584,72.00981032927714L129.60266666666666,75.52566246720109L129.72088888888888,85.98310642255129L129.83911111111112,77.51184423094104L130.54222222222222,79.8853852145875L130.62933333333334,88.13516908260205L131.264,85.86061629701464L131.39466666666667,88.23047483880842L131.84266666666667,77.4014102733911L131.90488888888888,80.12561063435797L132.22222222222223,85.68546604501057L132.6702222222222,71.73125782365341L132.8071111111111,76.13390040598208L132.9128888888889,86.38282065173743L133.1991111111111,79.59608015450144L133.41066666666666,67.296538382897L133.81511111111112,69.481413149885L134.1511111111111,86.80586123528151L134.3128888888889,86.84915188277589L134.344,76.48120182285638L134.78577777777778,78.65246831587923L135.00977777777777,84.15146827086598L135.31466666666668,77.50380525940572L135.70044444444443,90.69501716575589L135.70666666666668,82.22946242662893L135.91822222222223,77.82180003989787L136.00533333333334,79.58659247823181L136.26666666666668,82.81897855010676L137.3057777777778,91.36760474823731L137.49866666666665,86.60337266656883L137.71022222222223,73.61579072607806L138.08977777777778,76.66779589705963L138.15200000000002,75.82270868143758L138.38222222222223,87.4767574787987L138.432,89.04777680519629L138.58755555555555,85.07981969489023L138.69955555555555,79.27779684095923L138.712,74.78070392262673L138.8551111111111,88.0481905869712L138.86133333333333,81.31378669766862L138.86755555555555,80.78025124859127L138.88622222222222,84.84301928834641L139.00444444444446,77.29950719935307L139.22222222222223,77.60692332928424L139.41511111111112,79.11874695219613L139.54577777777777,77.75690913835373L139.65777777777777,77.57517443553292L139.72,69.81582187396559L140.27377777777778,93.05896965973484L140.3608888888889,87.43927389905019L140.48533333333333,79.50786760360067L140.54133333333334,90.06648696029212L140.58488888888888,78.53277298138151L140.5911111111111,87.14945483833793L140.77155555555555,80.5461785162697L140.83377777777775,76.81544896523991L140.95822222222222,84.83321280602947L141.38755555555556,85.37313376595313L141.69244444444445,92.01401229294035L141.69866666666667,92.47327179647243L141.89777777777778,81.77995307817758L142.1342222222222,87.62118180721878L142.8248888888889,90.12389166903448L142.8808888888889,80.1159109840868L142.98044444444446,86.84595028440467L142.99911111111112,82.9561832462959L143.0551111111111,80.97329995891303L143.22933333333333,85.27511885210215L143.44711111111113,70.15682900327182L143.52177777777777,68.91869773418797L143.76444444444445,73.78597895980315L143.92000000000002,73.22760049474412L144.0257777777778,76.23390570073198L144.4488888888889,78.21419830238369L144.5857777777778,68.54923113431751L144.76,77.48046334980414L145.096,79.55689143895502L145.36977777777776,76.77275222444293L145.92355555555557,78.07482102475069L145.92977777777776,69.86899711474379L146.5208888888889,78.98178443127712L146.8008888888889,79.7240219228023L147.55377777777778,76.30573860854123L147.59733333333332,80.03630983352747L148.37511111111112,79.7256550561193L148.6737777777778,68.84893294854177L148.9226666666667,76.25431266301159L149.07822222222222,78.52698336491301L149.19644444444444,75.23149634281523L149.22755555555554,69.8036559735923L149.37066666666666,71.1803657557642L149.50755555555554,80.96615552588604L149.63822222222223,72.21927307122668L150.06133333333335,71.76262102553733L150.39111111111112,74.88554857186271L150.752,81.21074565753061L151.02577777777776,80.76419556242115L151.05066666666667,89.20821017365411L151.2062222222222,78.20909670726759L152.35733333333334,79.19163938755314L152.45066666666668,82.48771293220724L152.46933333333334,78.51893961929403L152.60622222222221,79.50009255013119L152.64355555555554,77.25085214337211L152.94222222222223,79.27364796324771L153.03555555555556,81.3582012471525L153.28444444444443,77.30417679118982L153.32177777777778,78.45120216257521L153.4088888888889,82.7635706577585L153.47733333333335,85.14045707539265L153.53333333333333,73.41081250769115L153.81955555555555,58.474658472586526L153.888,70.59513413836514L153.92533333333333,72.5234781977731L154.29244444444444,61.97374063540292L154.46044444444445,79.1610632769616L154.60355555555554,83.50336037009365L155.0391111111111,78.69529859196903L155.17600000000002,76.00748847513104L155.38133333333332,81.74268252586803L155.48711111111112,82.45096575691494L155.53066666666666,84.32968178182519L155.77955555555556,76.08567810273043L155.86044444444445,78.94514674630113L155.89155555555556,83.59870085690952L155.92888888888888,88.20788984527007L155.94755555555554,84.40160100372557L156.42044444444446,91.2045020320492L156.42666666666665,90.6460146162302L156.43911111111112,95.07723929895522L156.70044444444446,93.95318966274881L156.71911111111112,87.18311011459599L156.912,85.92114390002159L157.08,80.66970057911264L157.09866666666667,83.31500027826065L157.12977777777778,87.33099391957376L157.47822222222223,77.75636326332989L157.57155555555556,74.26931997760177L157.62755555555555,78.23281509130811L157.64,81.74606454551066L157.94488888888887,88.29600152444777L158.032,81.8214108797786L158.29955555555554,77.29517715882768L158.57955555555554,73.69857820157807L158.83466666666666,74.87920481576364L158.91555555555556,82.04447617774741L158.92177777777778,74.95739147522264L159.0462222222222,77.65074075642512L159.05866666666668,85.64784614993447L159.08977777777778,84.02974932592437L159.15822222222224,79.93773055951327L159.8488888888889,69.45791319362533L159.97955555555555,68.04323111316448L160.40266666666665,77.71376092668727L160.4088888888889,80.04308627520543L160.42755555555556,81.67028938521759L160.43377777777778,84.69110131378896L160.67644444444446,80.57990908370783L160.73244444444444,94.73540375727958L160.88177777777776,86.19598492224434L161.0871111111111,78.88990862067308L161.24266666666665,76.77095441876158L161.46666666666667,65.09369965636058L161.7031111111111,68.92809125480385L161.952,64.01669856189619L162.00177777777776,74.297256809588L162.20088888888887,86.01979324107L162.28177777777776,87.2389346833413L162.67999999999998,89.42560097676058L163.08444444444444,83.49044672291095L163.22755555555557,89.56536129967616L163.75022222222222,79.31749817771212L163.76888888888888,75.96975322084624L163.79999999999998,80.23182202286323L164.2168888888889,82.70644294979891L164.32888888888888,83.36969517971164L164.79555555555558,87.23149244509177L165.0382222222222,89.6044067741316L165.04444444444445,86.95101670924352L166.02133333333333,82.13122294546574L166.28266666666667,87.15710415125452L166.2888888888889,84.32439807725177L166.69333333333336,83.58782790272325L166.73066666666668,79.21500916349444L166.85511111111109,76.97209637589276L166.89244444444446,92.27014590492654L167.02311111111112,95.16387075062913L167.06044444444444,93.72182044039697L167.4337777777778,82.85953345159899L167.8008888888889,84.96623322967771L168,88.16463620902731L168.04355555555554,77.14574773884468L169.3751111111111,73.09895281603596L169.5306666666667,70.89968004866704L169.61155555555558,85.44438559132522L169.77955555555556,77.56338428981186L169.8231111111111,71.08988280406427L169.89155555555556,80.64089643284017L169.92266666666666,79.89842102557155L169.97244444444445,79.80880397510423L170.05955555555556,88.40588446836428L170.23377777777776,71.94940662137967L170.6631111111111,79.18363693854134L170.68177777777777,80.63767698010174L170.9431111111111,75.3391261829947L171.16088888888888,71.45335021551509L171.39111111111112,71.81927219901901L171.95733333333334,69.43486703981728L172.0568888888889,63.92735900600658L172.72266666666667,74.4247553999023L172.76622222222224,72.85040465215032L172.84088888888888,74.03839579311682L173.1582222222222,84.55048351620701L173.2266666666667,77.86527011646854L173.23288888888888,76.53627323847623L173.79288888888888,86.95107203023278L173.81155555555554,80.87030021566805L174.72622222222222,75.32930453605913L174.7511111111111,77.40037977889166L174.75733333333332,76.7970513530373L174.86311111111112,82.96730973930356L174.95644444444443,77.0010223999071L175.01866666666666,71.12048814950178L175.0871111111111,78.91220226191597L175.11822222222222,92.28302321753151L175.14933333333335,82.41783908971647L175.17422222222223,80.10369181123772L175.21155555555555,74.15607216452518L175.3608888888889,79.12342429854458L175.42311111111113,75.21337677517724L175.58488888888888,68.78071674696284L175.59733333333332,69.00033460852177L175.86488888888888,72.03510240136254L176.008,72.88768806921908L176.32533333333333,71.62935690827159L176.47466666666665,82.0750637839118L176.59288888888887,81.7131159023396L176.68,79.16644191209285L176.88533333333334,89.56761649633965L177.58844444444446,82.30920497332222L177.89333333333332,73.26556794049027L178.27288888888887,64.47971169233992L178.39733333333334,69.615567652705L178.4657777777778,88.28874320619212L178.59022222222222,84.84609054061931L178.96355555555556,89.0695358098871L179.04444444444445,79.80808420305753L179.27466666666666,79.17383671333513L179.39911111111113,77.4601469776238L179.46755555555555,90.45700358415465L180.00266666666667,79.12529390082685L180.0648888888889,87.37944095939766L180.94222222222223,78.49650707388071L181.17244444444444,78.11761979577601L181.1848888888889,85.5394445799496L181.36533333333335,87.5564989295684L181.60799999999998,82.46501139390799L181.90666666666664,91.67896672423015L182.20533333333336,80.38865485225251L182.21777777777777,89.8492797471449L182.26755555555553,88.58591887086094L182.45422222222223,79.18604961824202L182.59733333333332,91.43952988998802L182.68444444444447,92.74486725098575L183.0391111111111,91.77949936714445L183.63644444444444,93.30564327846636L183.91644444444444,87.62406433944173L183.94133333333335,86.90394210149553L184.31466666666665,89.07100991042338L184.6008888888889,90.90132509125026L184.78755555555554,95.33009313028158L184.92444444444442,79.08907201580644L184.9742222222222,76.71066819009161L185.3662222222222,79.67246856342544L185.73333333333332,87.31484281639572L185.92000000000002,86.23576479403303L186.0568888888889,77.33999084531516L186.26222222222225,72.3232580983609L186.44266666666667,82.46465794002891L186.72266666666667,85.04976078274203L186.96533333333332,90.70035024941903L187.50044444444447,80.16454462194815L187.95466666666667,80.9999657401815L188.1102222222222,78.50061188258229L188.1911111111111,82.09790756550429L188.2471111111111,85.51685273944139L188.7386666666667,88.42102570652484L189.10577777777777,83.90677002596665L189.81511111111112,85.21994392783564L189.90844444444443,79.66113495314566L190.232,86.81373905334651L190.4,72.90947499550892L190.78577777777778,75.08830638995772L190.94133333333332,75.04067658492328L191.49511111111113,83.16262469533444L191.72533333333334,81.44681476093672L191.9431111111111,87.23342275336323L192.04266666666666,79.0458523679373L192.14844444444444,81.06249492361533L192.40355555555556,69.9767762084579L193.07555555555555,80.38287524719142L193.1751111111111,76.3207560622259L193.30577777777776,68.85335535381493L193.36177777777777,73.76777137746119L193.46133333333333,86.10625954838474L193.85333333333335,74.44181951034814L193.85955555555554,74.21217777390778L193.94666666666666,87.4149459890902L194.63111111111112,72.33293826251743L194.71200000000002,83.01724000918674L194.78044444444444,83.39689613242074L195.34044444444444,69.53817085965125L195.40266666666665,58.2185068460053L195.81955555555555,70.41814616448664L196.08088888888886,70.18619618466292L197.064,76.33607814570583L197.30044444444442,74.11554235859838L197.58666666666667,83.59652475672613L197.59911111111109,84.46476665301184L197.848,85.41759592359487L197.85422222222223,82.37207812096764L197.86044444444443,85.7521256805503L197.95999999999998,83.4156748027024L198.04088888888887,72.44303745211829L198.05333333333334,75.81264607680507L198.66933333333333,87.96699914067057L199.60266666666666,86.83016216051207L200.00088888888888,86.68456536846011L200.0382222222222,84.49391898638666L200.07555555555558,76.26085637560155L200.10044444444443,82.87693255265816L200.10666666666665,77.70268884249633L200.57333333333335,80.3340692369068L200.82222222222222,78.5270033865342L201.16444444444446,83.65186248775997L201.84266666666667,76.74932083510033L201.91111111111113,82.69461694964835L201.9608888888889,74.16874983552721L202.25955555555555,79.64070560194503L202.4088888888889,82.5397573298512L202.65777777777777,87.80486593390694L202.67644444444443,85.24382076261517L202.86933333333334,85.69184250473212L202.93155555555558,89.05035450493983L202.9751111111111,90.0055703021514L203.0871111111111,92.8657418408961L203.4417777777778,92.17089291787032L203.56622222222222,96.12409770240738L203.58488888888888,89.73070139785747L203.71555555555554,87.9003503098096L204.2506666666667,87.33070824440341L204.81688888888888,89.10564790426105L204.82933333333335,88.1502293279108L205.02844444444446,80.4742034288381L205.14044444444443,84.9755295986785L206.90133333333333,79.20217508772427L207.0631111111111,84.01704381982252L207.3368888888889,92.64753806225366L207.6791111111111,97.31280600282314L208.0648888888889,77.64902302921915L208.1457777777778,79.45102695048296L208.7182222222222,80.23085119891341L208.89866666666666,65.19441340096066L209.14133333333334,80.79154058983832L209.5457777777778,79.77760816689694L210.88355555555557,78.48946013282283L211.3751111111111,86.33797128490824L211.53688888888888,73.92873695489651L211.67377777777776,76.45219848154738L211.792,76.949981584544L211.91644444444444,86.86922109699053L211.94755555555557,88.62904694011134L212.04711111111112,92.285559487662L212.1217777777778,90.20533560408008L212.22133333333335,89.01864049511295L212.38933333333333,82.00621892780916L212.81244444444442,98.38862238931996L213.11733333333333,82.7532058124079L213.19822222222223,76.96346631007725L213.24800000000002,86.10281238300537L213.48444444444445,85.07364200489891L213.83911111111112,80.77891411358982L214.28711111111113,74.1045740146433L214.49244444444443,82.21397475198883L214.536,80.77339518088492L214.59199999999998,85.9296083540455L214.90311111111112,88.40327899220529L214.92177777777778,79.77288592780805L215.05244444444443,72.1104640937852L215.1271111111111,77.68576718775458L215.24533333333335,78.88238876723459L215.36355555555556,77.00452656612083L216.20977777777776,72.36410337811822L216.71377777777778,76.53717943480059L216.72,77.67115153451938L216.93155555555555,81.39219376178653L217.04977777777776,71.44000210655558L217.336,79.60832841711373L217.78400000000002,84.29319791204583L217.81511111111112,88.83548806193211L217.97688888888888,81.48184325529235L218.26311111111113,88.04397177391488L218.35644444444443,79.5566290008753L218.63644444444444,84.64364288996575L218.86666666666665,86.22932702998685L219.13422222222223,77.6707755176241L219.25866666666667,84.81101812712411L219.296,94.02076840814773L219.37688888888889,87.50403357909848L219.5511111111111,78.82449272818059L219.81866666666667,72.122403111246L220.06755555555554,72.61030735818018L220.40355555555556,85.9085557222266L220.48444444444442,87.33743092059689L220.64000000000001,88.42616051888304L220.68355555555556,80.74473883094723L220.70844444444444,72.81865581227277L221.32444444444442,69.37547695081604L221.3431111111111,59.70261648075251L221.48000000000002,74.18292125672686L221.59199999999998,84.72780318999523L221.79111111111112,85.82772325453851L222.1768888888889,80.71155042540111L222.26399999999998,77.35197685794465L222.36977777777778,79.02459031099647L222.376,80.26085418961274L222.63733333333334,73.26036264201734L223.25333333333333,90.24125415166509L223.42133333333334,86.37059766980127L223.98755555555556,85.72630710674173L224.32977777777776,83.37742946653702L224.65955555555556,85.72685607814445L225.33155555555555,87.23952667531827L225.4,91.39634783910695L226.16533333333334,68.25561764378143L226.53244444444445,78.83572830970603L226.76266666666666,81.10544253275997L226.89333333333335,82.86103872710946L227.12355555555555,77.76026359698963L227.34755555555554,79.12478435834961L227.3537777777778,82.29817017634994L227.50933333333333,73.08908311613516L227.8951111111111,77.62987181976683L227.93244444444446,62.218666582048925L228.02577777777776,81.80439717123548L228.3368888888889,83.04857146064298L228.49866666666668,93.41675492850881L228.60444444444443,90.3089215089001L228.74755555555555,92.12620659784943L229.03377777777777,91.40649404472695L229.43822222222224,73.80935969689126L229.48177777777778,89.54861737087819L229.53155555555557,87.4159454049486L229.83022222222223,86.1157604224212L229.88622222222222,78.29701782134083L230.25333333333333,74.2688112114545L230.33422222222222,81.40250547546847L231.23644444444446,89.29140355415623L231.3111111111111,78.5623736648857L231.51644444444446,77.0163607108235L231.5288888888889,89.93502499888895L231.77777777777777,88.79283692531011L232.1822222222222,87.18724944826849L232.64266666666666,82.16649443064884L232.93511111111113,81.44202622534735L233.1591111111111,73.49059378410142L233.33955555555553,85.55417657218281L233.51999999999998,84.44162173399093L233.60088888888887,86.63018501332903L233.61955555555554,86.76419634434185L234.03022222222222,78.80608179892143L234.04888888888888,84.96660165677483L234.31644444444444,87.75664582626031L234.5591111111111,82.82129709035556L234.62133333333333,70.6864877923743L234.64,69.07047628102366L234.96977777777778,77.00889759456183L235.6728888888889,82.89991812386143L235.68533333333335,87.897395315679L235.79111111111112,87.74642092105235L235.8346666666667,85.84844248043093L235.84088888888888,82.05079855341353L235.88444444444445,90.48194629378571L236.2888888888889,88.24220989814381L236.3137777777778,84.06655611165755L236.46311111111112,76.71092848804948L236.53777777777776,92.72442479710722L236.61866666666666,93.9759139727789L236.66222222222223,87.56924077615093L237.16622222222222,80.59085942405443L237.37155555555557,74.41171247799387L237.39644444444443,87.86893620903963L237.56444444444443,83.2120141349859L237.57688888888887,71.41830442399291L237.99377777777778,79.3083912175914L238.03111111111113,76.89923374223788L238.13688888888888,78.73041301019224L238.57244444444447,78.94752342322361L238.63466666666665,85.89201920953947L238.74044444444445,73.98591768931371L238.784,81.46312579588502L238.80266666666665,69.80361307889783L238.84622222222222,73.70605380130037L238.8897777777778,84.51296174542993L238.95822222222222,99.51599920845781L239.80444444444444,96.54707381847204L240.03466666666665,78.54913224865079L240.37688888888889,78.59044103558492L240.42044444444443,81.47960454915219L240.8248888888889,78.73187155999443L240.98044444444443,83.22684730878552L241.03644444444444,80.60130756613049L241.11111111111111,89.28007432626259L241.22933333333336,90.43211503548055L241.3351111111111,79.78077294616949L241.42844444444447,87.0220476148091L241.67111111111112,85.58640815546362L241.7457777777778,87.21503315659463L241.90133333333333,80.72696292913795L242.08800000000002,89.05482966211176L242.13155555555556,83.83547788463727L242.49244444444443,89.84726019641833L242.56088888888888,74.7578775721434L242.77866666666665,75.67912999342452L242.8968888888889,80.24430065969854L242.94044444444444,73.74052018968354L243.2266666666667,90.91081801175312L243.376,89.19664957570727L243.55022222222223,89.23047006208773L243.5688888888889,92.82950173051786L243.7866666666667,88.40012349975757L244.2097777777778,81.63548317568561L244.36533333333335,81.8187305331908L244.57688888888887,77.94953725936739L244.59555555555553,77.26755775095116L244.8008888888889,80.53720096779303" style="fill: none;" fill="none"></path></g></g></g></g><g opacity="0.2"><g><g><g><path stroke="rgb(238, 51, 119)" stroke-width="2px" d="M31.378666666666664,30.387260138988495L31.397333333333332,44.806883454322815L31.55911111111111,16.6333909034729L31.702222222222222,51.845230281353L32.10044444444444,62.8599591255188L32.156444444444446,47.883131474256516L32.54222222222222,57.08800387382507L32.57333333333333,54.431253865361214L32.704,40.37143614888191L32.816,51.5599440485239L33.03377777777778,68.81179396808147L33.04622222222222,64.19426557421684L33.096,68.55285939574242L33.73688888888889,62.12504354119301L33.97955555555556,57.406736955046654L34.06666666666667,83.1641588807106L34.452444444444446,66.31198686361313L34.620444444444445,64.8651387989521L34.72,89.9716269671917L34.763555555555556,61.12830889225006L35.062222222222225,84.48172201216221L35.14311111111111,66.33139584958553L35.230222222222224,48.48951806128025L35.29244444444444,68.97887569665909L35.56,83.38801537454128L35.60977777777778,74.44431883096695L35.91466666666667,56.16216805577278L36.00177777777778,65.71627621352673L36.10755555555555,69.12560020387173L36.14488888888889,73.32227122783661L36.31911111111111,66.66175973415375L36.99733333333333,67.2474907040596L37.15911111111111,63.31604045629501L37.37066666666667,90.7048914283514L37.42666666666666,69.74038165807724L37.75022222222223,66.27475370466709L37.986666666666665,75.91018465161324L38.45955555555556,87.10243907570839L38.96355555555556,58.09735734760761L39.30577777777778,85.18651288747787L39.324444444444445,52.01442730426788L39.41155555555555,90.96559648215771L39.43644444444444,45.74078258872032L39.73511111111111,60.37540999054909L39.778666666666666,91.15287628769875L40.05244444444445,83.0918940603733L40.239111111111114,69.89613097906113L40.59377777777778,80.67174535989761L40.77422222222222,49.502571642398834L40.87377777777778,75.68605628609657L40.973333333333336,61.16423574090004L41.321777777777775,63.2847089022398L41.639111111111106,76.95117470622063L41.75111111111111,80.92375715076923L41.80711111111111,72.68504378199577L41.89422222222222,93.4899118244648L41.906666666666666,58.37883737683296L41.925333333333334,63.08010224997997L42.19911111111111,54.53258906304836L42.59111111111111,65.02540384232998L42.647111111111116,48.96510121226311L42.728,58.110864728689194L42.74666666666667,63.57524690032005L42.79644444444445,63.3055170327425L43.04533333333333,78.48126855492592L43.15111111111111,75.39010074734688L43.232,88.83005101978779L43.568,67.53389094769955L43.78577777777778,61.17936772108078L44.040888888888894,68.42070323228836L44.15911111111111,33.96917623281479L44.72533333333333,67.66918358206749L44.800000000000004,69.35980108380318L44.87466666666667,85.41425515711308L44.99911111111111,66.86864745616913L45.03644444444445,69.31493562459946L45.16088888888889,66.2727842926979L45.19199999999999,67.54855212569237L45.471999999999994,80.04397374391556L45.54666666666666,82.98055928945541L45.76444444444444,68.28734022378922L45.98222222222222,64.4841471016407L45.98844444444445,78.01942487061024L46.27466666666667,74.28920608758926L46.38044444444445,77.14635868370533L46.39288888888889,60.62975589931011L46.424,57.579634085297585L46.57955555555556,83.14418625831604L46.58577777777778,82.6813744455576L46.66044444444445,76.76350367069244L46.69155555555555,69.18134053051472L46.872,71.24596726894379L46.965333333333334,64.34842345118523L47.00266666666666,76.50809016823769L47.824000000000005,68.47900313138962L48.16622222222222,73.45767658948898L48.25333333333334,77.90744026005268L48.47111111111111,57.027230605483055L49.13688888888889,67.27667380869389L49.57866666666667,91.89139914512634L49.852444444444444,80.49380865693092L50.02044444444444,78.20998039841652L50.039111111111104,73.47087894380093L50.4,73.83927834033966L50.785777777777774,90.18885907530785L51.00355555555555,70.89601536095142L51.21511111111111,71.11394372582436L51.30222222222223,87.09266495704651L51.31466666666667,60.80693003535271L51.32088888888889,90.81573550403118L51.68177777777778,88.72642812132835L52.32266666666666,77.30467420816422L52.577777777777776,68.54620185494423L52.77066666666667,69.40110568702221L53.51733333333333,80.75905595719814L53.629333333333335,76.29983645677567L53.64177777777778,53.70912951231003L53.952888888888886,74.41646856069565L54.30133333333334,75.28934244811535L54.394666666666666,64.5069710612297L54.718222222222224,86.74867433309555L54.84888888888889,87.48105023801327L54.89244444444444,60.35725426673889L55.160000000000004,53.109632551670074L55.55822222222222,68.39769360423088L55.73244444444445,55.570376336574554L55.906666666666666,75.28445538878441L56.230222222222224,63.982351541519165L56.616,82.2074158936739L56.684444444444445,78.50019347667694L57.22577777777778,70.85315909981728L57.263111111111115,58.962260752916336L57.41866666666667,73.59361243247986L57.449777777777776,79.12544530630112L57.64266666666667,80.18004220724106L57.897777777777776,72.02349376678467L57.97866666666667,77.41514694690704L57.99111111111111,87.21386668086052L58.49511111111111,67.65125994384289L59.06755555555556,63.76435023546219L59.17333333333334,74.03768499195576L59.303999999999995,49.46415816247463L59.913777777777774,90.58315259218216L60.13777777777778,79.66046226024628L60.16266666666667,56.41921941936016L60.21244444444445,92.57485803961754L60.672888888888885,80.6322908103466L60.90933333333333,88.10114976763725L60.99644444444445,74.7185246348381L61.23288888888889,80.49679924547672L61.30755555555555,70.32267113029957L61.568888888888885,83.95566356182098L61.992000000000004,74.58867606520653L62.047999999999995,88.96264483034611L62.06666666666667,70.36544118821621L62.53955555555556,83.36729344725609L62.552,52.52860960364342L62.888,68.78769685328007L63.06222222222222,81.39513623714447L63.71555555555556,63.057676151394844L64.27555555555556,76.72849190235138L64.37511111111111,89.58140489459038L64.46222222222222,70.96957322955132L64.84177777777778,85.8180111348629L65.43288888888888,76.7280940413475L65.44533333333332,77.36967806518078L65.64444444444445,73.68925158679485L65.88088888888889,83.99026420712471L66.36,74.82450817525387L66.45333333333333,69.26741775870323L66.72711111111111,73.61674804985523L67.256,71.4031223654747L67.36177777777777,68.29887819290161L67.38044444444444,74.02787108719349L67.592,81.19907033443451L67.60444444444444,82.27830146253109L67.648,92.76727025210857L67.872,74.72591158747673L68.00266666666667,76.95159909129143L68.152,86.02584046125412L68.38844444444445,72.66198773682117L68.5128888888889,75.29692170023918L69.20355555555555,68.83385536074638L69.26577777777779,99.96299763023853L69.57688888888889,76.43321272730827L69.69511111111112,70.20504352450371L69.776,83.57070651650429L69.81333333333333,77.70933863520622L69.89422222222223,72.91960273683071L70.24888888888889,65.04824106395245L70.39200000000001,82.22632092237473L70.42311111111111,79.83233158290386L70.57244444444444,83.14360272884369L70.79022222222223,52.396201461553574L70.93955555555556,83.45509473979473L71.53688888888888,58.858491972088814L71.68622222222221,71.94818530976772L72.02222222222223,80.67182493209839L72.20266666666667,87.10913640260696L72.53866666666667,65.87168735265732L72.78133333333334,99.08372481167316L72.8,65.79555001854897L72.87466666666666,86.13185715675354L73.06755555555556,77.14895804226398L73.71466666666666,79.88262121379375L73.76444444444444,84.06901416182518L73.85777777777778,80.4175718575716L74.46133333333334,79.80178248882294L74.6231111111111,56.44063097238541L74.76,61.548191502690315L75.33244444444443,83.10691994428635L75.38222222222221,86.18316133320332L75.63733333333333,77.5502936989069L76.01688888888889,78.5634135901928L76.20977777777779,72.59982195496559L76.608,89.9480205476284L76.72,87.48019483685493L76.78222222222222,88.54131665825844L76.78844444444445,96.94239047169685L76.90666666666667,79.80161008238792L77.04977777777778,96.28135767579079L77.168,66.35750216245651L77.47288888888889,69.25900299847126L77.5351111111111,96.30341243743896L77.55377777777778,70.62026453018188L77.64711111111112,68.14349357783794L77.85244444444444,73.00530862808228L78.46222222222222,83.81055702269077L78.68,89.88197562098503L78.94755555555555,82.51671966910362L78.98488888888889,79.69289456307888L79.40177777777777,78.7027909308672L79.57600000000001,76.80287201702595L79.63822222222223,61.60275813937187L79.85600000000001,76.2695327103138L80.27288888888889,64.89566799998283L80.472,72.01010574400425L80.83911111111111,91.51028145849705L81.05688888888889,73.74149073660374L81.12533333333333,67.34057691693306L81.19999999999999,76.48001444339752L81.30577777777778,81.00039181113243L82.01511111111111,77.1923580467701L82.2328888888889,53.31343021988869L82.27022222222222,71.80026058852673L82.69955555555555,75.64782184362411L82.97333333333333,73.77032239735126L83.15377777777778,103.13207656890154L83.18488888888889,79.42393389344215L83.24088888888889,77.91276496648788L83.80088888888889,80.38400565087795L83.81955555555555,85.17484229803085L83.99377777777778,106.19389218091965L84.05600000000001,82.22897332906723L84.41688888888888,80.33542682230473L84.63466666666667,98.89015217125416L84.84,74.23351880908012L84.84622222222222,78.97306454181671L85.21955555555556,71.32620257139206L85.99111111111111,88.37167535722256L86.00977777777777,62.63011482357979L86.35822222222222,94.08992600440979L86.52,57.13215318322182L86.53866666666666,78.49581700563431L86.66933333333333,70.30899134278297L86.7128888888889,72.72622902691364L87.07377777777778,63.13919124007225L87.11111111111111,73.54592879116535L87.45955555555555,67.59079170227051L87.50933333333333,73.74139127135277L88.52355555555556,83.24642327427864L88.5671111111111,73.13196104764938L88.73511111111111,75.24768640100956L89.08355555555556,78.25482596457005L89.28266666666667,76.91427972912788L89.68088888888889,70.32438856363297L89.69955555555556,80.15664798021317L89.824,81.89864259958267L89.86755555555555,91.33319352567196L90.02933333333334,90.31317737698555L90.46488888888888,81.86340537667274L90.52088888888889,62.72973921895027L90.56444444444443,94.25082099437714L90.64533333333333,85.01153361797333L90.78222222222223,100.86453740298748L91.01866666666666,78.3595363497734L91.20533333333333,71.5951234549284L91.34844444444444,74.87648871541023L91.46044444444445,75.02164167165756L91.896,77.39396084845066L92.36266666666666,57.69834917783737L92.61155555555557,88.30218893289566L92.7608888888889,80.07468861341476L93.16533333333334,69.31581754982471L93.65066666666667,90.63441035151482L93.68177777777777,82.69411262869835L93.70044444444446,76.09351900219917L93.86222222222221,76.9486018717289L94.38488888888888,93.68116360902786L94.49066666666667,73.47426076233387L94.93244444444444,94.04715594649315L95.05688888888889,56.38623011112213L95.10044444444445,87.64199164509773L95.80355555555555,74.83082090318203L95.82222222222222,76.06861290335655L95.95288888888888,81.84531596302986L96.32,78.75232462584972L96.38222222222223,53.996477991342545L96.40711111111112,66.41808313131332L96.58755555555555,75.48294824361801L96.79288888888888,76.11449953913689L97.11644444444445,69.98812307417393L97.22222222222221,67.438536927104L97.30933333333334,62.84708169102669L97.4088888888889,71.91650894284248L97.51466666666667,94.95171946287155L97.76355555555556,75.28901752829552L98.04977777777778,92.4141354560852L98.056,63.88585698604584L98.19288888888889,78.55680246651173L98.23644444444444,75.8750734180212L98.41066666666666,61.576658457517624L98.47288888888889,72.83270326256752L98.57244444444444,65.08886930346489L98.62844444444445,84.8646831214428L98.71555555555555,77.70438526570797L98.952,79.97742486000061L98.97066666666666,87.93732386827469L99.18222222222222,64.49893426895142L99.20711111111112,86.93772462010384L99.35022222222221,72.50580076873302L99.38755555555556,62.865091532468796L99.39999999999999,90.12338441610336L99.64888888888888,75.62702034413815L99.68622222222223,72.74628785252571L99.76711111111112,70.30966770648956L99.79822222222222,91.28674325346947L100.19644444444445,69.91851729154587L100.31466666666667,80.29802125692368L100.37066666666666,80.37130725383759L100.65066666666667,64.25427627563477L100.79377777777778,87.60759656131268L100.80622222222223,69.89242424070835L100.81244444444444,70.29990021884441L101.17955555555555,70.59000720083714L102.16888888888889,92.59500969946384L102.49866666666667,96.58910316228867L102.62311111111111,89.5766173005104L102.816,73.46552108228207L102.872,78.99712187051773L102.97777777777777,97.51538988947868L103.08355555555556,80.42267110943794L103.27644444444444,57.21537244319916L103.59377777777779,72.01458168029785L103.73688888888888,81.30543184280396L103.82400000000001,75.86409908533096L104.28444444444445,69.2186466306448L104.99377777777778,95.91670480370522L105.59111111111112,81.24223825335503L105.62222222222222,71.51526612043381L105.84622222222222,82.63863091170788L106.03911111111111,92.6453125923872L106.64266666666667,77.65473884344101L106.80444444444444,80.07411834597588L106.82933333333334,78.34415902197361L106.92888888888889,79.55307957530022L107.19022222222222,62.83763249218464L107.58844444444445,96.60733845829964L107.60711111111111,85.67059037089348L107.70666666666666,67.04534415900707L108.30399999999999,78.70193552970886L108.63377777777777,74.96018540859222L109.22488888888888,78.84235394001007L109.95911111111111,89.00158879160881L110.13333333333333,75.86124111711979L110.50044444444445,91.0558910369873L110.60000000000001,78.99230775237083L110.79288888888888,64.79050007462502L111.24088888888889,85.0269706249237L111.35911111111112,71.5790034532547L111.62666666666667,62.882942229509354L111.75111111111111,58.49519845843315L112.112,62.94776704907417L112.21777777777778,86.13767918944359L112.38577777777778,97.57807952165604L112.51644444444445,83.4244793355465L112.5911111111111,64.38832890987396L112.68444444444444,94.77986340224743L112.70933333333333,84.17847235500813L112.81511111111111,67.68735919892788L113.03911111111111,85.3269976079464L113.28800000000001,76.37564224004745L113.49333333333333,80.44952672719955L114.17777777777778,98.62723898887634L114.50755555555556,87.14113768935204L114.53244444444444,88.30990743637085L114.65688888888889,58.54562070965767L114.96177777777777,80.0353932082653L115.14222222222222,76.87585961818695L115.40355555555556,89.53551825881004L115.72088888888888,68.35928675532341L115.864,77.9589433670044L116.2311111111111,88.80417016148567L116.24977777777777,82.2954426407814L116.65422222222222,77.52687957882881L116.83466666666666,79.40564554929733L117.04622222222223,89.24772550165653L117.264,94.39653095602989L117.40711111111112,88.59638725221157L117.50666666666667,80.85446302592754L117.83644444444445,85.62077817320824L117.96088888888889,82.97554624080658L118.04177777777778,78.33657313883305L118.0791111111111,55.521253764629364L118.21600000000001,97.16918450593948L118.72622222222223,92.46199813485146L119.60355555555556,74.31312416493893L120.01422222222223,75.74840773642063L120.02044444444444,97.76442435383797L120.05777777777777,79.88585051894188L120.11377777777778,85.95413264632225L120.21955555555556,83.57501667737961L120.29422222222223,81.96161073446274L120.33155555555555,69.37046375870705L120.69866666666667,98.77110552787781L121.00977777777777,85.84917691349983L121.30222222222223,81.631876796484L121.52622222222222,88.27748176455498L121.67555555555555,79.51798823475838L121.69422222222222,66.61812764406204L122.16088888888889,98.60606615245342L122.19822222222221,68.00793570280075L122.3848888888889,73.01859718561172L122.44088888888889,87.93705862760544L122.46577777777777,69.48731553554535L122.50311111111111,83.69833369553089L123.07555555555555,89.684875279665L123.08177777777779,92.20146548748016L123.13155555555556,78.43719881772995L123.15644444444445,78.85588121414185L123.26222222222222,77.5886010825634L123.66044444444445,75.09902563691139L123.77866666666667,59.14910954236984L123.99022222222223,92.85350662469864L124.13955555555556,72.24538084864616L124.61866666666667,67.34646525979042L125.01066666666667,76.25601869821548L125.29688888888889,75.01457300782204L125.57066666666667,85.82173113524914L125.6888888888889,62.5399064719677L126.10577777777777,60.716973662376404L126.46666666666667,65.39784815907478L126.60977777777778,79.84345842897892L127.11377777777777,80.11225332319736L127.288,69.52498634159565L127.39377777777777,62.56026369333267L127.40622222222223,77.80562762916088L127.60533333333333,70.6009019613266L127.79822222222222,79.94672325253487L128.16533333333334,66.47908848524094L129.0551111111111,94.42311470210552L129.20444444444445,84.09378764033318L129.26044444444446,72.04884414374828L129.29777777777778,83.78422525525093L129.584,65.97162340581417L129.60266666666666,77.86956389248371L129.72088888888888,92.95473572611809L129.83911111111112,71.86433610320091L130.54222222222222,81.46774587035179L130.62933333333334,93.63502499461174L131.264,84.34424777328968L131.39466666666667,89.8103805333376L131.84266666666667,70.18203389644623L131.90488888888888,81.94174420833588L132.22222222222223,89.39203631877899L132.6702222222222,62.42845234274864L132.8071111111111,79.06899546086788L132.9128888888889,93.21543414890766L133.1991111111111,75.07158648967743L133.41066666666666,59.096843868494034L133.81511111111112,70.93799632787704L134.1511111111111,98.35549329221249L134.3128888888889,86.87801231443882L134.344,69.56923511624336L134.78577777777778,80.0999793112278L135.00977777777777,87.81746824085712L135.31466666666668,73.07202991843224L135.70044444444443,99.489158436656L135.70666666666668,76.58575926721096L135.91822222222223,74.88335844874382L136.00533333333334,80.7631207704544L136.26666666666668,84.97390259802341L137.3057777777778,97.06668888032436L137.49866666666665,83.4272179454565L137.71022222222223,64.95740276575089L138.08977777777778,78.70246601104736L138.15200000000002,75.2593172043562L138.38222222222223,95.24612334370613L138.432,90.09512302279472L138.58755555555555,82.43451495468616L138.69955555555555,75.40978160500526L138.712,71.78264197707176L138.8551111111111,96.89318169653416L138.86133333333333,76.82418410480022L138.86755555555555,80.42456094920635L138.88622222222222,87.55153131484985L139.00444444444446,72.27049914002419L139.22222222222223,77.811867415905L139.41511111111112,80.12662936747074L139.54577777777777,76.8490172624588L139.65777777777777,77.4540179669857L139.72,64.64292016625404L140.27377777777778,108.55440151691437L140.3608888888889,83.69281005859375L140.48533333333333,74.22026340663433L140.54133333333334,97.10556653141975L140.58488888888888,70.84363032877445L140.5911111111111,92.89390940964222L140.77155555555555,76.14399430155754L140.83377777777775,74.32829593122005L140.95822222222222,90.17838869988918L141.38755555555556,85.7330810725689L141.69244444444445,96.44126464426517L141.69866666666667,92.77944479882717L141.89777777777778,74.6510739326477L142.1342222222222,91.51533429324627L142.8248888888889,91.79236491024494L142.8808888888889,73.44392386078835L142.98044444444446,91.33264315128326L142.99911111111112,80.36300522089005L143.0551111111111,79.65137776732445L143.22933333333333,88.14299811422825L143.44711111111113,60.07796910405159L143.52177777777777,68.0932768881321L143.76444444444445,77.03083311021328L143.92000000000002,72.85534818470478L144.0257777777778,78.23810917139053L144.4488888888889,79.53439337015152L144.5857777777778,62.10591968894005L144.76,83.4346181601286L145.096,80.94117683172226L145.36977777777776,74.91665941476822L145.92355555555557,78.94286689162254L145.92977777777776,64.39844784140587L146.5208888888889,85.05697597563267L146.8008888888889,80.2188469171524L147.55377777777778,74.02688306570053L147.59733333333332,82.52335731685162L148.37511111111112,79.51855187118053L148.6737777777778,61.597784876823425L148.9226666666667,81.19123247265816L149.07822222222222,80.04209716618061L149.19644444444444,73.03450499475002L149.22755555555554,66.1850957274437L149.37066666666666,72.09817227721214L149.50755555555554,87.49001537263393L149.63822222222223,66.38801810145378L150.06133333333335,71.4581863284111L150.39111111111112,76.967500269413L150.752,85.42754371464252L151.02577777777776,80.46649549901485L151.05066666666667,94.83755324780941L151.2062222222222,70.87635439634323L152.35733333333334,79.84666784107685L152.45066666666668,84.68509529531002L152.46933333333334,75.87309074401855L152.60622222222221,80.1541945040226L152.64355555555554,75.75135853886604L152.94222222222223,80.62217850983143L153.03555555555556,82.74790343642235L153.28444444444443,74.60149382054806L153.32177777777778,79.2158857434988L153.4088888888889,85.6384829878807L153.47733333333335,86.72504802048206L153.53333333333333,65.59104946255684L153.81955555555555,48.517222449183464L153.888,78.6754512488842L153.92533333333333,73.8090409040451L154.29244444444444,54.940582260489464L154.46044444444445,90.61927837133408L154.60355555555554,86.39822509884834L155.0391111111111,75.4899240732193L155.17600000000002,74.21561506390572L155.38133333333332,85.56614522635937L155.48711111111112,82.92315457761288L155.53066666666666,85.58215913176537L155.77955555555556,70.58967565000057L155.86044444444445,80.85145917534828L155.89155555555556,86.70107026398182L155.92888888888888,91.2806825041771L155.94755555555554,81.8640751093626L156.42044444444446,95.73976938426495L156.42666666666665,90.27368967235088L156.43911111111112,98.03138908743858L156.70044444444446,93.20382323861122L156.71911111111112,82.66972374916077L156.912,85.07983309030533L157.08,77.16873836517334L157.09866666666667,85.078533411026L157.12977777777778,90.0083230137825L157.47822222222223,71.37327615916729L157.57155555555556,71.94462445378304L157.62755555555555,80.87514516711235L157.64,84.08823084831238L157.94488888888887,92.66262617707253L158.032,77.50501711666584L158.29955555555554,74.27768801152706L158.57955555555554,71.30084556341171L158.83466666666666,75.66628922522068L158.91555555555556,86.82132375240326L158.92177777777778,70.23266834020615L159.0462222222222,79.44630694389343L159.05866666666668,90.97924974560738L159.08977777777778,82.95101810991764L159.15822222222224,77.20971804857254L159.8488888888889,62.47136828303337L159.97955555555555,67.10010972619057L160.40266666666665,84.16078080236912L160.4088888888889,81.59596984088421L160.42755555555556,82.75509145855904L160.43377777777778,86.70497593283653L160.67644444444446,77.83911426365376L160.73244444444444,104.17240020632744L160.88177777777776,80.50303903222084L161.0871111111111,74.01919108629227L161.24266666666665,75.35831828415394L161.46666666666667,57.308863148093224L161.7031111111111,71.48435232043266L161.952,60.74243676662445L162.00177777777776,81.1509623080492L162.20088888888887,93.83481752872467L162.28177777777776,88.0516956448555L162.67999999999998,90.88337850570679L163.08444444444444,79.53367722034454L163.22755555555557,93.61530435085297L163.75022222222222,72.48558942973614L163.76888888888888,73.73792324960232L163.79999999999998,83.07320122420788L164.2168888888889,84.35619023442268L164.32888888888888,83.81186333298683L164.79555555555558,89.80602395534515L165.0382222222222,91.18634966015816L165.04444444444445,85.18208999931812L166.02133333333333,78.91802710294724L166.28266666666667,90.5076916217804L166.2888888888889,82.43592736124992L166.69333333333336,83.09678111970425L166.73066666666668,76.29979667067528L166.85511111111109,75.47682118415833L166.89244444444446,102.46884559094906L167.02311111111112,97.0930206477642L167.06044444444444,92.76045356690884L167.4337777777778,75.61800879240036L167.8008888888889,86.37069974839687L168,90.29690486192703L168.04355555555554,69.79982209205627L169.3751111111111,70.40108953416348L169.5306666666667,69.43349820375443L169.61155555555558,95.14085595309734L169.77955555555556,72.3093834221363L169.8231111111111,66.77421514689922L169.89155555555556,87.00823885202408L169.92266666666666,79.40343742072582L169.97244444444445,79.74905927479267L170.05955555555556,94.137271463871L170.23377777777776,60.97842139005661L170.6631111111111,84.00645714998245L170.68177777777777,81.60703700780869L170.9431111111111,71.80675898492336L171.16088888888888,68.862832903862L171.39111111111112,72.06322018802166L171.95733333333334,67.84526360034943L172.0568888888889,60.25568698346615L172.72266666666667,81.42301966249943L172.76622222222224,71.80083748698235L172.84088888888888,74.8303898870945L173.1582222222222,91.55854199826717L173.2266666666667,73.40846118330956L173.23288888888888,75.65027531981468L173.79288888888888,93.89427122473717L173.81155555555554,76.81645233929157L174.72622222222222,71.63530741631985L174.7511111111111,78.78109660744667L174.75733333333332,76.39483240246773L174.86311111111112,87.08081533014774L174.95644444444443,73.02349750697613L175.01866666666666,67.20013198256493L175.0871111111111,84.10667833685875L175.11822222222222,101.19690385460854L175.14933333333335,75.8410496711731L175.17422222222223,78.56092695891857L175.21155555555555,70.19099240005016L175.3608888888889,82.43499238789082L175.42311111111113,72.60667842626572L175.58488888888888,64.49227672815323L175.59733333333332,69.14674651622772L175.86488888888888,74.05828092992306L176.008,73.45607851445675L176.32533333333333,70.79046946763992L176.47466666666665,89.03886836767197L176.59288888888887,81.47181731462479L176.68,77.46865925192833L176.88533333333334,96.50173288583755L177.58844444444446,77.4702639579773L177.89333333333332,67.23647658526897L178.27288888888887,58.622474193573L178.39733333333334,73.03947162628174L178.4657777777778,100.73752690851688L178.59022222222222,82.55098876357079L178.96355555555556,91.88516598939896L179.04444444444445,73.63378313183784L179.27466666666666,78.7510050535202L179.39911111111113,76.31768715381622L179.46755555555555,99.12157465517521L180.00266666666667,71.57082077860832L180.0648888888889,92.88220566511154L180.94222222222223,72.57455115020275L181.17244444444444,77.86502827703953L181.1848888888889,90.48732776939869L181.36533333333335,88.90120182931423L181.60799999999998,79.07068637013435L181.90666666666664,97.82160361111164L182.20533333333336,72.8617802709341L182.21777777777777,96.1563630104065L182.26755555555553,87.74367828667164L182.45422222222223,72.91947011649609L182.59733333333332,99.60851673781872L182.68444444444447,93.61509215831757L183.0391111111111,91.13592077791691L183.63644444444444,94.32307255268097L183.91644444444444,83.83634504675865L183.94133333333335,86.4238606095314L184.31466666666665,90.51572178304195L184.6008888888889,92.12153521180153L184.78755555555554,98.28260515630245L184.92444444444442,68.26172460615635L184.9742222222222,75.12506563961506L185.3662222222222,81.647002145648L185.73333333333332,92.40975898504257L185.92000000000002,85.51637944579124L186.0568888888889,71.40947487950325L186.26222222222225,68.97876960039139L186.44266666666667,89.22559116780758L186.72266666666667,86.7731626778841L186.96533333333332,94.46740989387035L187.50044444444447,73.14067420363426L187.95466666666667,81.55691315233707L188.1102222222222,76.83437597751617L188.1911111111111,84.49610468745232L188.2471111111111,87.79614952206612L188.7386666666667,90.35714101791382L189.10577777777777,80.89726623892784L189.81511111111112,86.09539319574833L189.90844444444443,75.95526230335236L190.232,91.58214178681374L190.4,63.63996562361717L190.78577777777778,76.54086065292358L190.94133333333332,75.008923381567L191.49511111111113,88.57725676894188L191.72533333333334,80.30294147133827L191.9431111111111,91.09116141498089L192.04266666666666,73.58747211098671L192.14844444444444,82.40692329406738L192.40355555555556,62.58629706501961L193.07555555555555,87.32027460634708L193.1751111111111,73.61267660558224L193.30577777777776,63.87508821487427L193.36177777777777,77.04404872655869L193.46133333333333,94.33191832900047L193.85333333333335,66.6655261516571L193.85955555555554,74.05908328294754L193.94666666666666,96.21679146587849L194.63111111111112,62.278266444802284L194.71200000000002,90.1401078402996L194.78044444444444,83.65000021457672L195.34044444444444,60.29902067780495L195.40266666666665,50.672064170241356L195.81955555555555,78.5512390434742L196.08088888888886,70.03156286478043L197.064,80.43599945306778L197.30044444444442,72.63518516719341L197.58666666666667,89.9171796888113L197.59911111111109,85.04359458386898L197.848,86.0528154373169L197.85422222222223,80.34173291921616L197.86044444444443,88.00549072027206L197.95999999999998,81.85804088413715L198.04088888888887,65.12794588506222L198.05333333333334,78.05905182659626L198.66933333333333,96.06990118324757L199.60266666666666,86.07227084040642L200.00088888888888,86.58750084042549L200.0382222222222,83.03348806500435L200.07555555555558,70.77214796841145L200.10044444444443,87.28765000402927L200.10666666666665,74.25319303572178L200.57333333333335,82.08832283318043L200.82222222222222,77.32229281961918L201.16444444444446,87.06843522191048L201.84266666666667,72.1476263999939L201.91111111111113,86.65814769268036L201.9608888888889,68.48483842611313L202.25955555555555,83.28867611289024L202.4088888888889,84.47245848178864L202.65777777777777,91.3149383366108L202.67644444444443,83.53645731508732L202.86933333333334,85.99052366614342L202.93155555555558,91.28936250507832L202.9751111111111,90.6423808336258L203.0871111111111,94.77252286672592L203.4417777777778,91.7076603025198L203.56622222222222,98.75956755876541L203.58488888888888,85.46843719482422L203.71555555555554,86.68011625111103L204.2506666666667,86.95094686746597L204.81688888888888,90.28894101083279L204.82933333333335,87.51328361034393L205.02844444444446,75.35685282945633L205.14044444444443,87.97641371190548L206.90133333333333,75.35327208042145L207.0631111111111,87.22695630788803L207.3368888888889,98.40120089054108L207.6791111111111,100.42298462986946L208.0648888888889,64.53983438014984L208.1457777777778,80.65236289799213L208.7182222222222,80.75073403120041L208.89866666666666,55.170121535658836L209.14133333333334,91.1896253824234L209.5457777777778,79.10165321826935L210.88355555555557,77.63069477677345L211.3751111111111,91.57031205296516L211.53688888888888,65.65591406822205L211.67377777777776,78.13450616598129L211.792,77.28183698654175L211.91644444444444,93.48204743862152L211.94755555555557,89.80226416885853L212.04711111111112,94.72323451936245L212.1217777777778,88.81851968169212L212.22133333333335,88.22751042246819L212.38933333333333,77.33127121627331L212.81244444444442,109.31022469699383L213.11733333333333,72.3295947611332L213.19822222222223,73.10363997519016L213.24800000000002,92.19570976495743L213.48444444444445,84.38752841949463L213.83911111111112,77.91576218605042L214.28711111111113,69.65501394867897L214.49244444444443,87.62024191021919L214.536,79.81300880014896L214.59199999999998,89.36708380281925L214.90311111111112,90.05239275097847L214.92177777777778,74.01929055154324L215.05244444444443,67.00218287110329L215.1271111111111,81.40263591706753L215.24533333333335,79.68013648688793L215.36355555555556,75.75261843204498L216.20977777777776,69.2704879194498L216.71377777777778,79.31923013925552L216.72,78.4271329343319L216.93155555555555,83.87288857996464L217.04977777777776,64.80520766973495L217.336,85.05387929081917L217.78400000000002,87.41644424200058L217.81511111111112,91.86368149518967L217.97688888888888,76.57941338419914L218.26311111111113,92.41872411966324L218.35644444444443,73.8984004855156L218.63644444444444,88.03498548269272L218.86666666666665,87.28644979000092L219.13422222222223,71.96507450938225L219.25866666666667,89.57117986679077L219.296,100.16060192883015L219.37688888888889,83.15954369306564L219.5511111111111,73.03813216090202L219.81866666666667,67.65434336662292L220.06755555555554,72.93557685613632L220.40355555555556,94.77405463159084L220.48444444444442,88.29001438617706L220.64000000000001,89.15198025107384L220.68355555555556,75.62379103899002L220.70844444444444,67.53460046648979L221.32444444444442,67.08002437651157L221.3431111111111,53.2540428340435L221.48000000000002,83.83645777404308L221.59199999999998,91.75772447884083L221.79111111111112,86.56100329756737L222.1768888888889,77.3007685393095L222.26399999999998,75.11226114630699L222.36977777777778,80.1396659463644L222.376,81.08503010869026L222.63733333333334,68.5933682769537L223.25333333333333,101.56184849143028L223.42133333333334,83.79016001522541L223.98755555555556,85.29678006470203L224.32977777777776,81.81151103973389L224.65955555555556,87.29314048588276L225.33155555555555,88.24797374010086L225.4,94.16756194829941L226.16533333333334,52.828464180231094L226.53244444444445,85.88913542032242L226.76266666666666,82.61858534812927L226.89333333333335,84.03143619000912L227.12355555555555,74.35974684357643L227.34755555555554,80.03446486592293L227.3537777777778,84.4137607216835L227.50933333333333,66.94969174265862L227.8951111111111,80.6570642888546L227.93244444444446,51.94452975690365L228.02577777777776,94.86155089735985L228.3368888888889,83.87802098691463L228.49866666666668,100.32887724041939L228.60444444444443,88.23703256249428L228.74755555555555,93.33772999048233L229.03377777777777,90.92668567597866L229.43822222222224,62.07793679833412L229.48177777777778,100.04145582020283L229.53155555555557,85.99416409432888L229.83022222222223,85.24897043406963L229.88622222222222,73.08452275395393L230.25333333333333,71.58334013819695L230.33422222222222,86.15830165147781L231.23644444444446,94.55066893994808L231.3111111111111,71.40968707203865L231.51644444444446,75.98568540811539L231.5288888888889,98.54746785759926L231.77777777777777,88.03137820959091L232.1822222222222,86.11685779690742L232.64266666666666,78.8193244189024L232.93511111111113,80.95904742181301L233.1591111111111,68.1896388232708L233.33955555555553,93.59656509757042L233.51999999999998,83.69991850852966L233.60088888888887,88.08922719955444L233.61955555555554,86.85353723168373L234.03022222222222,73.50067210197449L234.04888888888888,89.07361489534378L234.31644444444444,89.61667527258396L234.5591111111111,79.53106459975243L234.62133333333333,62.59661492705345L234.64,67.99313527345657L234.96977777777778,82.30117847025394L235.6728888888889,86.82726514339447L235.68533333333335,91.22904677689075L235.79111111111112,87.64577132463455L235.8346666666667,84.58312352001667L235.84088888888888,79.51903593540192L235.88444444444445,96.10271145403385L236.2888888888889,86.74905230104923L236.3137777777778,81.2827869206667L236.46311111111112,71.80717673897743L236.53777777777776,103.4000890031457L236.61866666666666,94.81024008989334L236.66222222222223,83.29812531173229L237.16622222222222,75.93860518932343L237.37155555555557,70.2922811806202L237.39644444444443,96.8404186964035L237.56444444444443,80.10739941895008L237.57688888888887,63.55583128333092L237.99377777777778,84.56844907999039L238.03111111111113,75.2931287586689L238.13688888888888,79.95119918882847L238.57244444444447,79.09226369857788L238.63466666666665,90.52168306708336L238.74044444444445,66.04851667582989L238.784,86.44793120026588L238.80266666666665,62.03060460090637L238.84622222222222,76.30768094956875L238.8897777777778,91.7175670415163L238.95822222222222,109.51802418380976L239.80444444444444,94.5677902251482L240.03466666666665,66.55050453543663L240.37688888888889,78.61798022687435L240.42044444444443,83.40571355819702L240.8248888888889,76.9000495672226L240.98044444444443,86.22349780797958L241.03644444444444,78.85094773769379L241.11111111111111,95.06591883301735L241.22933333333336,91.20014217495918L241.3351111111111,72.67987821996212L241.42844444444447,91.84956406056881L241.67111111111112,84.62931518256664L241.7457777777778,88.30078315734863L241.90133333333333,76.40158277750015L242.08800000000002,94.60674081742764L242.13155555555556,80.3559100329876L242.49244444444443,93.85511507093906L242.56088888888888,64.69828915596008L242.77866666666665,76.29329827427864L242.8968888888889,83.28774777054787L242.94044444444444,69.4046665430069L243.2266666666667,102.35768322646618L243.376,88.05387061834335L243.55022222222223,89.25301705300808L243.5688888888889,95.22885617613792L243.7866666666667,85.44720467925072L244.2097777777778,77.12572295963764L244.36533333333335,81.94089543819427L244.57688888888887,75.37007507681847L244.59555555555553,76.81290474534035L244.8008888888889,82.71696311235428" style="fill: none;" fill="none"></path></g></g></g></g></g></g><g transform="translate(50, 178)" clip-path="url(#clip_1)"><clipPath id="clip_1"><rect width="280" height="22"></rect></clipPath><g><g><line x1="0" y1="0" x2="0" y2="5" style="visibility: inherit;" fill="rgb(0, 0, 0)" stroke="rgb(204, 204, 204)" stroke-width="1px"></line><line x1="31.11111111111111" y1="0" x2="31.11111111111111" y2="5" style="visibility: inherit;" fill="rgb(0, 0, 0)" stroke="rgb(204, 204, 204)" stroke-width="1px"></line><line x1="62.22222222222222" y1="0" x2="62.22222222222222" y2="5" style="visibility: inherit;" fill="rgb(0, 0, 0)" stroke="rgb(204, 204, 204)" stroke-width="1px"></line><line x1="93.33333333333333" y1="0" x2="93.33333333333333" y2="5" style="visibility: inherit;" fill="rgb(0, 0, 0)" stroke="rgb(204, 204, 204)" stroke-width="1px"></line><line x1="124.44444444444444" y1="0" x2="124.44444444444444" y2="5" style="visibility: inherit;" fill="rgb(0, 0, 0)" stroke="rgb(204, 204, 204)" stroke-width="1px"></line><line x1="155.55555555555557" y1="0" x2="155.55555555555557" y2="5" style="visibility: inherit;" fill="rgb(0, 0, 0)" stroke="rgb(204, 204, 204)" stroke-width="1px"></line><line x1="186.66666666666666" y1="0" x2="186.66666666666666" y2="5" style="visibility: inherit;" fill="rgb(0, 0, 0)" stroke="rgb(204, 204, 204)" stroke-width="1px"></line><line x1="217.77777777777777" y1="0" x2="217.77777777777777" y2="5" style="visibility: inherit;" fill="rgb(0, 0, 0)" stroke="rgb(204, 204, 204)" stroke-width="1px"></line><line x1="248.88888888888889" y1="0" x2="248.88888888888889" y2="5" style="visibility: inherit;" fill="rgb(0, 0, 0)" stroke="rgb(204, 204, 204)" stroke-width="1px"></line><line x1="280" y1="0" x2="280" y2="5" style="visibility: inherit;" fill="rgb(0, 0, 0)" stroke="rgb(204, 204, 204)" stroke-width="1px"></line></g><g transform="translate(0, 8)"><text x="0" y="0" dx="0em" dy="0.95em" style="text-anchor: middle; visibility: hidden; font-family: &quot;Helvetica Neue&quot;, sans-serif; font-size: 12px; font-weight: 200;" fill="rgb(50, 49, 63)" stroke="none" stroke-width="1px">-50k</text><text x="31.11111111111111" y="0" dx="0em" dy="0.95em" style="text-anchor: middle; visibility: inherit; font-family: &quot;Helvetica Neue&quot;, sans-serif; font-size: 12px; font-weight: 200;" fill="rgb(50, 49, 63)" stroke="none" stroke-width="1px">0</text><text x="62.22222222222222" y="0" dx="0em" dy="0.95em" style="text-anchor: middle; visibility: hidden; font-family: &quot;Helvetica Neue&quot;, sans-serif; font-size: 12px; font-weight: 200;" fill="rgb(50, 49, 63)" stroke="none" stroke-width="1px">50k</text><text x="93.33333333333333" y="0" dx="0em" dy="0.95em" style="text-anchor: middle; visibility: inherit; font-family: &quot;Helvetica Neue&quot;, sans-serif; font-size: 12px; font-weight: 200;" fill="rgb(50, 49, 63)" stroke="none" stroke-width="1px">100k</text><text x="124.44444444444444" y="0" dx="0em" dy="0.95em" style="text-anchor: middle; visibility: hidden; font-family: &quot;Helvetica Neue&quot;, sans-serif; font-size: 12px; font-weight: 200;" fill="rgb(50, 49, 63)" stroke="none" stroke-width="1px">150k</text><text x="155.55555555555557" y="0" dx="0em" dy="0.95em" style="text-anchor: middle; visibility: inherit; font-family: &quot;Helvetica Neue&quot;, sans-serif; font-size: 12px; font-weight: 200;" fill="rgb(50, 49, 63)" stroke="none" stroke-width="1px">200k</text><text x="186.66666666666666" y="0" dx="0em" dy="0.95em" style="text-anchor: middle; visibility: hidden; font-family: &quot;Helvetica Neue&quot;, sans-serif; font-size: 12px; font-weight: 200;" fill="rgb(50, 49, 63)" stroke="none" stroke-width="1px">250k</text><text x="217.77777777777777" y="0" dx="0em" dy="0.95em" style="text-anchor: middle; visibility: inherit; font-family: &quot;Helvetica Neue&quot;, sans-serif; font-size: 12px; font-weight: 200;" fill="rgb(50, 49, 63)" stroke="none" stroke-width="1px">300k</text><text x="248.88888888888889" y="0" dx="0em" dy="0.95em" style="text-anchor: middle; visibility: hidden; font-family: &quot;Helvetica Neue&quot;, sans-serif; font-size: 12px; font-weight: 200;" fill="rgb(50, 49, 63)" stroke="none" stroke-width="1px">350k</text><text x="280" y="0" dx="0em" dy="0.95em" style="text-anchor: middle; visibility: hidden; font-family: &quot;Helvetica Neue&quot;, sans-serif; font-size: 12px; font-weight: 200;" fill="rgb(50, 49, 63)" stroke="none" stroke-width="1px">400k</text></g><line x1="0" y1="0" x2="280" y2="0" fill="rgb(0, 0, 0)" stroke="rgb(204, 204, 204)" stroke-width="1px"></line></g></g></g></g></svg>