<svg viewBox="0 0 330 200" xmlns="http://www.w3.org/2000/svg"><g><g><g><g><g><line x1="60" y1="178" x2="55" y2="178" style="visibility: inherit;" fill="rgb(0, 0, 0)" stroke="rgb(204, 204, 204)" stroke-width="1px"></line><line x1="60" y1="163.16666666666666" x2="55" y2="163.16666666666666" style="visibility: inherit;" fill="rgb(0, 0, 0)" stroke="rgb(204, 204, 204)" stroke-width="1px"></line><line x1="60" y1="148.33333333333331" x2="55" y2="148.33333333333331" style="visibility: inherit;" fill="rgb(0, 0, 0)" stroke="rgb(204, 204, 204)" stroke-width="1px"></line><line x1="60" y1="133.5" x2="55" y2="133.5" style="visibility: inherit;" fill="rgb(0, 0, 0)" stroke="rgb(204, 204, 204)" stroke-width="1px"></line><line x1="60" y1="118.66666666666666" x2="55" y2="118.66666666666666" style="visibility: inherit;" fill="rgb(0, 0, 0)" stroke="rgb(204, 204, 204)" stroke-width="1px"></line><line x1="60" y1="103.83333333333333" x2="55" y2="103.83333333333333" style="visibility: inherit;" fill="rgb(0, 0, 0)" stroke="rgb(204, 204, 204)" stroke-width="1px"></line><line x1="60" y1="88.99999999999999" x2="55" y2="88.99999999999999" style="visibility: inherit;" fill="rgb(0, 0, 0)" stroke="rgb(204, 204, 204)" stroke-width="1px"></line><line x1="60" y1="74.16666666666669" x2="55" y2="74.16666666666669" style="visibility: inherit;" fill="rgb(0, 0, 0)" stroke="rgb(204, 204, 204)" stroke-width="1px"></line><line x1="60" y1="59.333333333333314" x2="55" y2="59.333333333333314" style="visibility: inherit;" fill="rgb(0, 0, 0)" stroke="rgb(204, 204, 204)" stroke-width="1px"></line><line x1="60" y1="44.5" x2="55" y2="44.5" style="visibility: inherit;" fill="rgb(0, 0, 0)" stroke="rgb(204, 204, 204)" stroke-width="1px"></line><line x1="60" y1="29.666666666666686" x2="55" y2="29.666666666666686" style="visibility: inherit;" fill="rgb(0, 0, 0)" stroke="rgb(204, 204, 204)" stroke-width="1px"></line><line x1="60" y1="14.833333333333314" x2="55" y2="14.833333333333314" style="visibility: inherit;" fill="rgb(0, 0, 0)" stroke="rgb(204, 204, 204)" stroke-width="1px"></line><line x1="60" y1="0" x2="55" y2="0" style="visibility: inherit;" fill="rgb(0, 0, 0)" stroke="rgb(204, 204, 204)" stroke-width="1px"></line></g><g transform="translate(50, 0)"><text x="0" y="178" dx="0em" dy="0.3em" style="text-anchor: end; visibility: hidden; font-family: &quot;Helvetica Neue&quot;, sans-serif; font-size: 12px; font-weight: 200;" fill="rgb(50, 49, 63)" stroke="none" stroke-width="1px">-5e-3</text><text x="0" y="163.16666666666666" dx="0em" dy="0.3em" style="text-anchor: end; visibility: inherit; font-family: &quot;Helvetica Neue&quot;, sans-serif; font-size: 12px; font-weight: 200;" fill="rgb(50, 49, 63)" stroke="none" stroke-width="1px">0</text><text x="0" y="148.33333333333331" dx="0em" dy="0.3em" style="text-anchor: end; visibility: hidden; font-family: &quot;Helvetica Neue&quot;, sans-serif; font-size: 12px; font-weight: 200;" fill="rgb(50, 49, 63)" stroke="none" stroke-width="1px">5e-3</text><text x="0" y="133.5" dx="0em" dy="0.3em" style="text-anchor: end; visibility: inherit; font-family: &quot;Helvetica Neue&quot;, sans-serif; font-size: 12px; font-weight: 200;" fill="rgb(50, 49, 63)" stroke="none" stroke-width="1px">0.01</text><text x="0" y="118.66666666666666" dx="0em" dy="0.3em" style="text-anchor: end; visibility: hidden; font-family: &quot;Helvetica Neue&quot;, sans-serif; font-size: 12px; font-weight: 200;" fill="rgb(50, 49, 63)" stroke="none" stroke-width="1px">0.015</text><text x="0" y="103.83333333333333" dx="0em" dy="0.3em" style="text-anchor: end; visibility: inherit; font-family: &quot;Helvetica Neue&quot;, sans-serif; font-size: 12px; font-weight: 200;" fill="rgb(50, 49, 63)" stroke="none" stroke-width="1px">0.02</text><text x="0" y="88.99999999999999" dx="0em" dy="0.3em" style="text-anchor: end; visibility: hidden; font-family: &quot;Helvetica Neue&quot;, sans-serif; font-size: 12px; font-weight: 200;" fill="rgb(50, 49, 63)" stroke="none" stroke-width="1px">0.025</text><text x="0" y="74.16666666666669" dx="0em" dy="0.3em" style="text-anchor: end; visibility: inherit; font-family: &quot;Helvetica Neue&quot;, sans-serif; font-size: 12px; font-weight: 200;" fill="rgb(50, 49, 63)" stroke="none" stroke-width="1px">0.03</text><text x="0" y="59.333333333333314" dx="0em" dy="0.3em" style="text-anchor: end; visibility: hidden; font-family: &quot;Helvetica Neue&quot;, sans-serif; font-size: 12px; font-weight: 200;" fill="rgb(50, 49, 63)" stroke="none" stroke-width="1px">0.035</text><text x="0" y="44.5" dx="0em" dy="0.3em" style="text-anchor: end; visibility: inherit; font-family: &quot;Helvetica Neue&quot;, sans-serif; font-size: 12px; font-weight: 200;" fill="rgb(50, 49, 63)" stroke="none" stroke-width="1px">0.04</text><text x="0" y="29.666666666666686" dx="0em" dy="0.3em" style="text-anchor: end; visibility: hidden; font-family: &quot;Helvetica Neue&quot;, sans-serif; font-size: 12px; font-weight: 200;" fill="rgb(50, 49, 63)" stroke="none" stroke-width="1px">0.045</text><text x="0" y="14.833333333333314" dx="0em" dy="0.3em" style="text-anchor: end; visibility: inherit; font-family: &quot;Helvetica Neue&quot;, sans-serif; font-size: 12px; font-weight: 200;" fill="rgb(50, 49, 63)" stroke="none" stroke-width="1px">0.05</text><text x="0" y="0" dx="0em" dy="0.3em" style="text-anchor: end; visibility: hidden; font-family: &quot;Helvetica Neue&quot;, sans-serif; font-size: 12px; font-weight: 200;" fill="rgb(50, 49, 63)" stroke="none" stroke-width="1px">0.055</text></g><line x1="60" y1="0" x2="60" y2="178" fill="rgb(0, 0, 0)" stroke="rgb(204, 204, 204)" stroke-width="1px"></line></g></g><g transform="translate(60, 0)" clip-path="url(#clip_0)"><clipPath id="clip_0"><rect width="270" height="178"></rect></clipPath><g><g><g><line x1="0" y1="0" x2="0" y2="178" fill="rgb(0, 0, 0)" stroke="rgb(60, 60, 60)" stroke-width="1px" opacity="0.25"></line><line x1="19.285714285714285" y1="0" x2="19.285714285714285" y2="178" fill="rgb(0, 0, 0)" stroke="rgb(60, 60, 60)" stroke-width="1px" opacity="0.25"></line><line x1="38.57142857142857" y1="0" x2="38.57142857142857" y2="178" fill="rgb(0, 0, 0)" stroke="rgb(60, 60, 60)" stroke-width="1px" opacity="0.25"></line><line x1="57.857142857142854" y1="0" x2="57.857142857142854" y2="178" fill="rgb(0, 0, 0)" stroke="rgb(60, 60, 60)" stroke-width="1px" opacity="0.25"></line><line x1="77.14285714285714" y1="0" x2="77.14285714285714" y2="178" fill="rgb(0, 0, 0)" stroke="rgb(60, 60, 60)" stroke-width="1px" opacity="0.25"></line><line x1="96.42857142857143" y1="0" x2="96.42857142857143" y2="178" fill="rgb(0, 0, 0)" stroke="rgb(60, 60, 60)" stroke-width="1px" opacity="0.25"></line><line x1="115.71428571428571" y1="0" x2="115.71428571428571" y2="178" fill="rgb(0, 0, 0)" stroke="rgb(60, 60, 60)" stroke-width="1px" opacity="0.25"></line><line x1="135" y1="0" x2="135" y2="178" fill="rgb(0, 0, 0)" stroke="rgb(60, 60, 60)" stroke-width="1px" opacity="0.25"></line><line x1="154.28571428571428" y1="0" x2="154.28571428571428" y2="178" fill="rgb(0, 0, 0)" stroke="rgb(60, 60, 60)" stroke-width="1px" opacity="0.25"></line><line x1="173.57142857142858" y1="0" x2="173.57142857142858" y2="178" fill="rgb(0, 0, 0)" stroke="rgb(60, 60, 60)" stroke-width="1px" opacity="0.25"></line><line x1="192.85714285714286" y1="0" x2="192.85714285714286" y2="178" fill="rgb(0, 0, 0)" stroke="rgb(60, 60, 60)" stroke-width="1px" opacity="0.25"></line><line x1="212.14285714285714" y1="0" x2="212.14285714285714" y2="178" fill="rgb(0, 0, 0)" stroke="rgb(60, 60, 60)" stroke-width="1px" opacity="0.25"></line><line x1="231.42857142857142" y1="0" x2="231.42857142857142" y2="178" fill="rgb(0, 0, 0)" stroke="rgb(60, 60, 60)" stroke-width="1px" opacity="0.25"></line><line x1="250.71428571428572" y1="0" x2="250.71428571428572" y2="178" fill="rgb(0, 0, 0)" stroke="rgb(60, 60, 60)" stroke-width="1px" opacity="0.25"></line><line x1="270" y1="0" x2="270" y2="178" fill="rgb(0, 0, 0)" stroke="rgb(60, 60, 60)" stroke-width="1px" opacity="0.25"></line></g><g><line x1="0" y1="178" x2="270" y2="178" fill="rgb(0, 0, 0)" stroke="rgb(60, 60, 60)" stroke-width="1px" opacity="0.25"></line><line x1="0" y1="163.16666666666666" x2="270" y2="163.16666666666666" fill="rgb(0, 0, 0)" stroke="rgb(60, 60, 60)" stroke-width="1px" opacity="0.25"></line><line x1="0" y1="148.33333333333331" x2="270" y2="148.33333333333331" fill="rgb(0, 0, 0)" stroke="rgb(60, 60, 60)" stroke-width="1px" opacity="0.25"></line><line x1="0" y1="133.5" x2="270" y2="133.5" fill="rgb(0, 0, 0)" stroke="rgb(60, 60, 60)" stroke-width="1px" opacity="0.25"></line><line x1="0" y1="118.66666666666666" x2="270" y2="118.66666666666666" fill="rgb(0, 0, 0)" stroke="rgb(60, 60, 60)" stroke-width="1px" opacity="0.25"></line><line x1="0" y1="103.83333333333333" x2="270" y2="103.83333333333333" fill="rgb(0, 0, 0)" stroke="rgb(60, 60, 60)" stroke-width="1px" opacity="0.25"></line><line x1="0" y1="88.99999999999999" x2="270" y2="88.99999999999999" fill="rgb(0, 0, 0)" stroke="rgb(60, 60, 60)" stroke-width="1px" opacity="0.25"></line><line x1="0" y1="74.16666666666669" x2="270" y2="74.16666666666669" fill="rgb(0, 0, 0)" stroke="rgb(60, 60, 60)" stroke-width="1px" opacity="0.25"></line><line x1="0" y1="59.333333333333314" x2="270" y2="59.333333333333314" fill="rgb(0, 0, 0)" stroke="rgb(60, 60, 60)" stroke-width="1px" opacity="0.25"></line><line x1="0" y1="44.5" x2="270" y2="44.5" fill="rgb(0, 0, 0)" stroke="rgb(60, 60, 60)" stroke-width="1px" opacity="0.25"></line><line x1="0" y1="29.666666666666686" x2="270" y2="29.666666666666686" fill="rgb(0, 0, 0)" stroke="rgb(60, 60, 60)" stroke-width="1px" opacity="0.25"></line><line x1="0" y1="14.833333333333314" x2="270" y2="14.833333333333314" fill="rgb(0, 0, 0)" stroke="rgb(60, 60, 60)" stroke-width="1px" opacity="0.25"></line><line x1="0" y1="0" x2="270" y2="0" fill="rgb(0, 0, 0)" stroke="rgb(60, 60, 60)" stroke-width="1px" opacity="0.25"></line></g></g></g><g><g><line x1="0" y1="163.16666666666666" x2="270" y2="163.16666666666666" fill="rgb(0, 0, 0)" stroke="rgb(153, 153, 153)" stroke-width="1.5px"></line></g></g><g><g><line x1="19.285714285714285" y1="0" x2="19.285714285714285" y2="178" fill="rgb(0, 0, 0)" stroke="rgb(153, 153, 153)" stroke-width="1.5px"></line></g></g><g><g><g><g><g><path stroke="rgb(255, 112, 67)" stroke-width="2px" d="M19.45157142857143,122.77519589538375L19.463142857142856,120.39938376145437L19.56342857142857,123.77119603517409L19.652142857142856,126.5558348371209L19.933714285714284,128.5934427952514L20.172857142857143,128.05219003736886L20.19214285714286,121.98222295080836L20.273142857142858,123.66034744101154L20.34257142857143,125.4228116134629L20.47757142857143,125.72816960471704L20.485285714285716,127.77271744409339L20.516142857142857,128.3733525534146L21.11785714285714,124.33913271189881L21.357,123.22306679684259L21.52285714285714,122.72071414701219L21.549857142857142,122.28081424864332L21.735,115.57216793122078L21.78514285714286,118.39250657787483L22.04357142857143,119.12414860032202L22.074428571428573,122.61651056710684L22.383,121.10155839558024L22.406142857142857,122.729546081518L22.514142857142858,122.61995361315346L23.034857142857145,120.12754009074149L23.200714285714284,110.75497521779955L23.401285714285713,111.97757204700723L23.547857142857143,115.94804525740048L23.841,114.94254689577839L24.153428571428574,119.38720887552603L24.365571428571428,114.4374848935926L24.377142857142857,106.17680645985915L24.431142857142856,91.39504721143618L24.44657142857143,98.38210027330243L24.631714285714285,105.8464060915097L24.658714285714286,107.20414004827569L24.828428571428574,108.27546706771214L24.944142857142854,113.73966672608505L25.275857142857145,108.436863936697L25.399285714285714,112.09484175327665L25.812,111.92160836723087L25.977857142857143,114.4635434788983L25.989428571428572,111.58175513660437L26.402142857142856,111.32983836434276L26.52942857142857,107.06290683912022L26.683714285714288,107.79235995975834L26.799428571428574,114.84862977459949L27.142714285714284,117.18502016490454L27.374142857142857,112.47757048472575L27.725142857142856,108.93439350758078L27.771428571428572,106.99667115548127L27.894857142857145,109.73395529711901L28.01442857142857,106.59481897546725L28.188000000000002,107.37272006130677L28.504285714285714,113.62300477141675L28.68557142857143,114.56398514537793L28.751142857142856,110.73704770880066L28.758857142857142,107.8411893557132L28.778142857142857,106.80183420244565L28.87457142857143,100.8675503273624L28.87842857142857,104.55994631686733L28.924714285714288,106.05560251676398L28.944000000000003,104.41370363793781L29.055857142857143,112.23837620573457L29.645999999999997,112.77305667633145L29.85814285714286,114.76010021190443L30.733714285714285,106.89309537482615L31.00757142857143,109.28539617005403L31.019142857142857,106.6060937244301L31.482,104.42826913189519L31.748142857142856,110.13367674435155L31.809857142857144,107.10216916214414L31.813714285714287,106.75666547881157L32.03742857142857,98.65220030983244L32.71242857142857,105.04629984601311L33.24471428571429,104.6606276498475L33.252428571428574,107.18956187364887L33.44528571428572,104.54896989065864L33.719142857142856,112.720153253864L34.00071428571428,103.58028619880919L34.02771428571429,99.32788723446197L34.440428571428576,102.35889528038462L34.54842857142857,106.59140681133087L34.857,109.44021529498943L35.09614285714286,108.25574899738976L35.47414285714285,108.5363509616809L35.613,106.9569750603968L35.94085714285714,111.68087470741673L36.261,107.592370033532L36.615857142857145,110.73221818423448L36.681428571428576,103.46335236320601L36.76242857142857,101.29648828559938L37.27928571428571,98.09889113935127L37.294714285714285,104.33050888498005L37.32557142857143,107.13364193073537L37.757571428571424,108.99663692850844L37.811571428571426,113.88635517441615L37.95814285714286,104.50806569923988L38.16642857142857,91.72386210880694L38.46342857142857,94.1361236039123L38.768142857142855,95.95964923878438L38.77585714285714,103.88370743222987L38.98414285714286,108.85849987563265L39.09214285714286,105.00290247458284L39.906,97.9128911315882L39.96,90.5330407213857L40.19528571428572,96.5700463568185L40.69285714285714,104.02747288137758L41.19428571428572,105.85391404702315L41.364000000000004,101.30535562917024L41.691857142857145,104.36356863032438L41.90785714285715,90.14030025393163L41.93485714285714,94.61501480335231L42.07371428571429,94.9579960884307L42.393857142857144,96.76469133585617L42.937714285714286,80.63170676801556L43.203857142857146,82.9006854675648L43.277142857142856,91.01172714923445L43.54714285714286,97.30950681663329L43.63585714285714,97.22572893975241L43.882714285714286,101.83779417720277L44.43814285714286,98.20957461643322L44.64642857142857,97.84914581367237L44.75828571428571,95.83337205284154L45.117,87.64880760689566L45.12857142857143,94.10427703567339L45.17485714285714,91.64374855225081L45.72642857142857,88.63565775592006L46.15842857142857,94.46651187840429L46.25871428571429,97.54522573433316L46.729285714285716,92.89765387266077L46.88742857142857,98.88282118532575L47.48914285714286,100.21337923483163L47.763,100.82993358220325L48.025285714285715,106.95058450606862L48.06385714285714,99.37530743980845L48.075428571428574,98.78035280448857L48.13328571428572,96.124505987819L48.26057142857143,92.81304513477642L48.96257142857143,94.48325392244273L49.329,93.06888197444685L49.36757142857143,89.8065687154699L49.50257142857143,94.7584791601679L50.111999999999995,96.41575135117657L50.40128571428571,96.78994219497373L50.841,91.92794522839108L50.99914285714286,87.56156707622996L51.54685714285714,83.72837685039673L51.56614285714286,84.30025880629441L51.600857142857144,91.75535014427476L51.95957142857143,85.57188141638105L52.06757142857143,90.23696440037527L52.106142857142856,95.7432549709664L52.46485714285714,76.7478749124956L52.596000000000004,86.13951648684852L52.82742857142857,85.31421569831676L53.53328571428571,84.13382795262837L53.64514285714286,93.15478440806372L53.72614285714286,98.45432597012382L53.753142857142855,90.35474449561673L53.97685714285714,94.11045903662823L54.216,99.27641597807397L55.00671428571429,89.11545529019826L55.22271428571428,87.4969724618514L55.34614285714286,93.53582673687455L55.681714285714285,87.23242768298815L55.809,81.05642764559128L56.14071428571429,77.95947096620444L56.19085714285715,79.82120008989837L56.538000000000004,87.94926018153427L56.626714285714286,93.05163037757951L56.69614285714285,95.99220884629615L57.255428571428574,92.3699423201195L57.50228571428571,95.63848321898648L58.084714285714284,92.30696228899878L58.185,84.18505287423723L58.92557142857143,89.08801077160236L58.95257142857143,90.34246583394008L59.4,83.63221246368765L59.708571428571425,79.17719943444182L59.87442857142857,72.11329811287074L60.202285714285715,83.03313664777366L60.32185714285714,93.9677682808039L60.38357142857143,102.32652755425357L60.60342857142857,105.39240566102256L60.780857142857144,94.77657550995104L60.78471428571429,93.17227413510017L60.869571428571426,88.44144122553705L61.10485714285714,87.70734768759908L61.13957142857143,77.7660680471959L61.34014285714286,85.1243368690671L61.35171428571428,92.26146978172429L61.498285714285714,79.96103992879053L61.586999999999996,87.95663552077407L61.61014285714286,86.82516103044227L61.61785714285714,93.71619419885721L61.79528571428571,98.65763421932684L62.11157142857142,94.39231830088194L62.18485714285715,89.746120119579L62.21957142857143,85.40306308139604L62.481857142857145,87.70342972439074L62.48957142857143,81.20113908784515L62.721000000000004,81.17198450189983L63.33428571428571,85.07912531289752L63.538714285714285,86.3407172806658L63.615857142857145,90.75189758226858L63.73542857142857,93.85339625608276L63.77014285714286,100.29937165835311L63.90128571428571,96.60920474246427L64.21757142857143,100.82767709681562L64.36028571428571,101.94314674390854L64.64571428571429,96.97683129819335L65.08542857142857,73.26373592085899L65.4557142857143,81.55526684364038L65.475,88.7661797114632L65.61385714285714,84.31199475577004L65.73342857142856,83.61317496766961L66.10757142857143,75.71486984056425L66.20785714285715,85.46693276084775L66.285,94.32855706443776L66.69385714285714,91.92028884806466L67.13742857142857,85.6277076644792L67.34185714285715,91.00698707062564L68.16342857142858,93.9778791083409L68.958,88.66511149089617L69.19714285714285,93.90959546793152L69.498,91.06029507117658L69.56357142857142,82.88214032906605L69.66771428571428,67.63958559071015L69.74871428571429,69.84757349869602L69.795,82.65154697188333L69.85285714285715,78.2193044147209L70.35428571428571,83.60622909196111L70.983,90.98832614736493L70.99842857142856,86.16983803719323L71.37642857142856,78.817372800569L71.53842857142857,85.13811024526372L71.73514285714286,89.6890216678358L71.82385714285714,88.21812316536767L72.05142857142857,85.58175307965196L72.55671428571429,73.46503581676436L72.84214285714286,73.84934942666818L73.59814285714285,81.45864566710073L74.142,81.29701358008272L74.39657142857143,93.1603417372379L74.42357142857142,91.02833995276728L74.52385714285714,74.2725933892769L74.59328571428571,75.35824785549893L74.82085714285714,68.3525955334472L75.01371428571429,75.55198450417323L75.72728571428571,65.589026742365L75.75042857142857,76.4000006376819L75.86614285714286,76.8455872710019L75.90085714285713,88.67233538878777L75.93942857142858,88.60511791856777L76.29428571428572,88.44864296804879L76.32900000000001,95.98161419068384L76.41,90.02631790440047L76.65685714285715,90.3444506257818L76.73014285714285,91.22034302135582L77.49385714285714,89.82567305433915L77.841,92.6152812902222L78.17271428571428,91.85002123698133L78.39642857142857,93.38670398623469L78.97114285714287,92.58115252950225L78.97885714285715,77.77292462447346L79.10228571428571,84.45659620022215L79.22185714285715,84.68038028551402L80.001,82.16582921389698L80.09357142857144,89.4168396586813L80.12828571428571,92.90420690544272L80.34042857142857,84.62120799442823L80.97685714285714,71.31264428826586L81.37028571428571,74.16928030967166L81.45128571428572,68.77105883113214L81.96428571428571,85.15122673323752L82.24199999999999,85.88161230530937L82.32685714285714,93.67189282544415L82.39242857142857,95.05474493126846L82.56985714285715,98.83248687518105L82.95171428571427,87.39763457615652L83.69228571428572,96.45038531247465L84.12042857142858,86.67765813285324L84.1242857142857,91.16125705270497L84.30942857142857,87.90431610799945L84.47142857142856,79.81989593142538L85.11557142857143,76.51138844192586L85.23514285714286,76.65438940982358L85.36628571428571,78.61758555090628L85.78285714285714,65.52948521246236L85.91014285714286,82.06414297820956L85.98728571428572,89.7888598338872L86.07985714285715,83.61007320957043L86.08371428571428,90.08207280880207L86.09528571428572,93.5277846084793L86.16857142857143,97.46147598187684L86.42314285714286,94.42176211691235L86.57357142857143,86.96718825787109L86.61214285714286,77.0513650172341L86.95542857142857,69.41067004164387L87.00942857142857,71.33983006056346L87.1212857142857,73.20785719738124L87.15214285714286,82.28243658693067L87.264,78.78803876490254L87.64585714285714,80.84310617119586L88.53685714285714,79.80063144109955L88.64485714285715,73.19355175738916L88.78757142857144,78.93950402843187L88.92257142857143,86.81149752601323L88.96885714285715,78.47308043240113L89.21571428571428,87.61677389104327L89.73642857142858,92.58121736303465L89.94471428571428,81.20925364964504L90.45771428571429,83.65332358523187L90.46157142857143,87.39770325190212L91.00157142857142,88.30944770475061L91.46828571428571,89.46400160531103L91.49528571428571,94.06522761348823L91.97742857142858,85.9187806242542L92.4132857142857,86.6802734450799L92.59457142857143,81.02256272731039L92.76042857142856,67.51140519279923L93.02271428571429,77.96415288427681L93.22714285714287,81.6589044045163L93.62057142857142,85.02364178165313L94.6002857142857,86.68821550805082L94.62342857142858,86.60851328610605L95.04385714285715,77.50584851725436L95.09785714285714,71.2287672183327L95.39485714285713,72.76747107534085L95.41799999999999,78.35741508620067L95.74971428571428,76.88240323732545L95.83842857142857,59.07289961141497L96.10842857142858,64.54696752724338L96.19328571428571,68.45239857294536L96.32057142857143,73.8556548086308L96.41314285714286,76.71466733381168L96.56742857142856,73.69420269945273L96.63685714285715,72.05658932021662L96.66,74.38240131531998L96.67157142857144,67.08593630867111L96.96471428571428,67.56966679340744L96.96857142857144,74.36053171284682L97.14985714285714,78.92546518958223L97.26942857142856,79.85160034586954L97.37357142857144,79.41140440219621L97.38514285714285,79.78671356904893L97.40442857142857,76.59070113818878L97.67828571428572,78.8159827372692L97.72071428571428,88.60153154023064L97.90971428571429,87.8372686892007L98.12957142857142,85.2620152864409L98.30314285714286,83.21483559907789L98.46128571428572,87.54455096623091L98.51142857142858,85.1860841995525L98.51528571428571,83.9095968099066L98.60014285714286,81.06318530092409L98.66185714285713,81.11488531619175L99.09,79.66317019814171L99.171,79.4462688244616L99.43714285714286,80.87688367032418L99.44871428571429,85.99964175500517L99.45257142857143,79.34704062269954L99.63771428571428,65.61316363767878L99.73028571428571,75.35340516024488L100.23942857142856,83.86159199031388L100.59814285714286,79.59884906938987L100.845,80.8455458152174L101.0957142857143,82.55533316043291L101.18442857142857,77.69046449248358L101.50842857142858,82.22394848615545L101.52,82.23265150636801L101.53928571428571,85.10850677162628L101.79771428571429,82.19431962730619L101.86714285714285,82.22609829204559L102.15642857142856,78.26709035414821L102.30685714285714,72.03106786436855L102.9162857142857,81.93324430759958L103.08214285714286,85.71100855852889L103.356,81.27720594993669L103.45628571428571,73.55374524945876L103.53728571428572,77.39228689246293L103.56042857142857,78.16232080999762L104.16985714285714,77.80895155714207L105.09171428571429,79.6746972086802L105.14185714285715,69.96667566792817L105.27300000000001,71.98590683776129L105.41957142857143,74.89670988721446L105.52757142857143,78.76076049289779L105.96728571428572,89.14445229976381L106.10228571428571,78.35950939620936L106.245,73.30626387257618L106.59599999999999,79.40738830879872L107.09742857142858,83.06999038606216L107.38671428571429,83.01812729904648L107.73385714285715,75.21892143887041L107.74542857142856,75.0213220244751L108.32785714285714,70.68536721424891L108.53614285714285,72.86490769439915L108.5747142857143,78.14129549614974L108.70585714285714,82.93972207219832L108.74442857142857,77.5370912399576L108.84471428571429,82.9776996670178L109.01828571428571,82.65136032191981L109.107,90.25897035929404L109.39628571428571,87.83643847266539L109.46957142857143,89.72427761987669L109.65085714285713,69.53664655945195L110.0867142857143,76.33100635684427L110.27571428571429,81.04043784465527L110.58814285714286,85.13172574575425L110.63057142857143,81.22411087395162L110.70771428571427,79.854734636792L110.98928571428571,78.408993179072L111.20914285714287,82.07532695698882L111.62185714285715,70.87838023564107L112.16571428571429,74.32067158218754L112.31614285714286,73.55986948349L112.428,73.69914971215282L112.76357142857142,68.20136233224125L112.94871428571429,74.84900722933004L112.95642857142857,61.00924807408765L113.103,66.59765997699488L113.1917142857143,60.285925081401615L113.46557142857142,68.690284696835L114.00942857142856,74.0743646726714L114.25628571428572,81.30051745806375L114.63428571428571,85.59956613084219L114.66514285714285,85.07855736553994L115.33628571428572,90.05527322594519L115.46357142857143,91.28887753350055L115.74900000000001,87.07452566422533L115.89942857142857,85.3933407982042L116.23114285714286,82.75791990577284L116.60914285714286,90.74348497680286L116.65928571428572,79.57921851252395L116.69399999999999,77.15345151965744L116.99871428571429,74.92267074432924L117.22628571428572,64.96604666062369L117.66600000000001,67.75762869982823L117.72385714285714,67.88789804817578L118.02857142857144,73.598456320413L118.36414285714285,81.85732818479224L118.85014285714286,86.3670779238237L118.98514285714286,90.05453264634369L119.27057142857143,91.15193149598772L119.74885714285713,82.74810947270593L119.82985714285715,79.76617041205208L119.92628571428571,72.7552537062258L120.17314285714286,73.31054731439494L120.22714285714285,80.57709689079289L120.70157142857143,74.87916234814266L120.744,79.22271843562407L121.12971428571429,69.87630296832255L121.38814285714287,74.89551119060872L122.15957142857143,80.66082001061176L122.64942857142857,88.3171935458835L122.6532857142857,82.67724134603279L122.76514285714286,80.79697684891504L122.77285714285715,82.21803075043846L123.15471428571429,75.04863366664543L123.98014285714287,77.94076222388601L124.00328571428571,74.08580269937906L124.02642857142857,79.33223026509202L124.04185714285714,74.57119357694258L124.04571428571428,77.33359788721245L124.48928571428571,79.07362978676224L125.3802857142857,72.97009146423699L125.7582857142857,71.41669368075267L125.79685714285715,82.53837134238245L125.82385714285714,82.37598001040715L125.89328571428571,84.1322658314965L126.28285714285714,79.3962247443991L126.61457142857144,85.85575485464713L126.96557142857142,62.84456560156811L126.97328571428571,67.41997866417212L127.09671428571428,73.51398720593399L127.16614285714286,68.47825887948956L128.2577142857143,49.869414632423826L128.358,61.0655807802503L128.52771428571427,55.07370795504798L128.979,71.42048294363349L129.02914285714286,72.06818292151648L129.38400000000001,75.69602584706202L129.49585714285715,76.92651203890514L129.6462857142857,69.88680458637003L131.031,73.7145485087549L131.13128571428572,82.2879362625469L131.21614285714287,80.32820047672129L131.28942857142857,75.54978066326501L131.38585714285713,77.54368400359941L131.44757142857142,80.8808143940655L131.49385714285714,74.8036540711177L131.922,64.30905598983682L132.16114285714286,66.88083553067158L132.96342857142858,66.23092434655412L132.99042857142857,62.816928979858474L133.02514285714287,69.00858238365534L133.218,74.69879516577491L133.22957142857143,66.03696607320967L133.31057142857142,66.23648621898568L133.43014285714287,69.88479218440263L133.50342857142857,73.4393673492889L134.028,72.59635527651034L134.34042857142856,79.62853533955726L134.34428571428572,75.61170284310369L134.47542857142858,78.90454297478628L135.00385714285716,64.73528623312095L135.02314285714286,70.55696704425043L135.12342857142858,70.37946021221654L135.30085714285715,64.0766599972799L135.35871428571429,59.324344901229225L135.67499999999998,65.65757269739225L135.84085714285715,77.92440929161977L135.94114285714286,67.53155318387829L136.0992857142857,63.08789831492395L136.26514285714285,60.706940788585484L136.77428571428572,71.41764703406406L136.81671428571428,78.42684873847273L137.21014285714284,69.89055503353342L137.3644285714286,73.43382013804636L137.727,73.36803587158671L137.781,87.59959859379222L137.85042857142855,82.59510009722764L139.06157142857143,78.00630600394916L139.26600000000002,75.68320570672816L140.427,58.46102017731627L140.5697142857143,63.640835461444624L141.54557142857144,70.86154202864188L141.64585714285715,65.05457554009924L141.97757142857142,62.31396249779485L142.2282857142857,61.9055366189187L142.25528571428572,69.66226602221958L142.28614285714286,80.64872571205358L142.47128571428573,71.1199544332937L142.506,77.75722849244966L142.73357142857145,75.26558320050493L142.7837142857143,79.88557819321787L143.3892857142857,75.87584428863742L143.5165714285714,73.09639920121641L143.67857142857142,67.54147099649634L144.39600000000002,61.15058092194235L144.75857142857143,69.5459404821243L144.80871428571427,76.90931909789916L145.07485714285716,78.79866771604785L145.2522857142857,78.79920853399932L145.44128571428573,78.62193892433463L145.65728571428573,75.39339166502688L146.16642857142858,74.78976298443793L146.19728571428573,70.94478348934045L146.58300000000003,75.06534640616212L146.62928571428571,64.77509003257376L146.70642857142857,74.91051865046592L147.16157142857142,72.75608398571833L147.26571428571427,73.46106560461853L147.27342857142858,69.15907939731959L147.62057142857145,59.53625186161129L147.89057142857143,59.76059289699354L147.99471428571428,67.46094447131291L148.02171428571427,56.47004006955228L148.1297142857143,42.097328064758784L148.65428571428572,37.407135993988845L149.00914285714288,52.20605773175846L149.3832857142857,56.69472283191537L149.418,58.0914431834244L149.46428571428572,62.165044642926645L149.53757142857145,72.58736634697998L149.60314285714287,65.04075594015805L149.81142857142856,71.81749953290556L149.85771428571428,75.38850934482058L149.95414285714284,72.53694066709146L150.09685714285715,74.01925398094971L150.498,66.14192947258663L150.57128571428572,54.2508317063855L150.5982857142857,53.58183874471625L150.7757142857143,50.380049664479344L150.9762857142857,60.33768675448607L150.98785714285714,48.70586746566758L151.12285714285716,63.859310525456664L151.82485714285716,74.79334903029576L151.82871428571428,71.16409649412617L151.9097142857143,79.89927109655213L152.12185714285715,78.68526231791458L152.45742857142858,72.13423198985586L152.46128571428574,73.5327806921454L152.60785714285714,78.50306870251805L152.74285714285713,75.02042900150963L152.7775714285714,73.40846405402391L153.45257142857142,68.40132487997752L153.819,68.95082427572414L154.59428571428572,68.46196910447603L154.73314285714287,77.58615637346142L154.9722857142857,74.1471035313052L155.2692857142857,61.40267763325225L155.574,52.252222437393584L155.655,64.21603198770597L155.68585714285715,66.76332614972542L155.736,73.164038910395L155.7437142857143,65.49869104063077L156.14485714285712,73.10721506577073L156.15257142857143,83.25744257411164L156.48814285714286,76.79111895188174L156.49971428571428,74.26606360012977L157.2634285714286,74.42915505529258L157.29042857142858,68.40311125334588L157.54500000000002,67.50756782144204L157.5642857142857,64.39461782286503L157.96542857142856,72.34275515303972L158.031,78.90046704168695L158.28942857142857,75.60143517070361L158.36657142857143,68.30917471218119L158.77928571428572,62.584074981419306L159.0377142857143,46.30283484304434L159.09557142857145,67.03374840087385L159.1572857142857,77.35638551374292L159.20742857142858,58.09897840098549L159.34242857142857,72.82415525759862L159.4427142857143,56.12359169709052L160.34142857142857,71.15963334592597L160.57285714285715,67.03611643564156L160.68857142857144,67.97820001314948L160.76185714285714,71.46955427808088L161.10514285714285,65.70588259865357L161.25557142857144,70.72478685261514L161.27100000000002,74.66683902034187L161.3057142857143,74.23648671521161L161.42528571428574,67.32527014939039L161.64514285714284,57.25661788380971L162.20828571428572,64.08405281601446L162.65571428571428,53.7189581205334L162.783,65.82778620083445L163.20342857142856,68.63926561688967L163.75885714285712,64.38239279199992L163.89,56.54878619596968L164.95071428571427,46.183435197386814L165.11657142857143,63.49238932274599L165.3827142857143,73.81079294965357L166.60157142857142,79.66912607164596L166.81371428571427,74.91656986362585L166.87157142857143,65.77609145732829L167.26885714285714,68.76251937503879L167.5542857142857,72.89182941648522L167.616,75.6879694851229L167.65842857142857,65.67166985225616L167.78957142857143,56.082294834565744L168.09814285714285,63.0733027336468L168.33342857142856,69.02727535630085L168.3372857142857,64.3324122961252L168.56099999999998,56.88530303453737L168.63814285714287,49.132716993979614L168.804,61.9706355634284L169.101,50.46815861481143L169.64485714285715,56.443801910982785L169.73357142857142,62.70972998518123L169.73742857142855,62.155503208905714L170.262,51.623371503037376L170.6322857142857,60.983370257188156L170.85985714285712,66.9976151125248L170.9022857142857,66.31832115272378L171.99771428571427,85.29950393787836L172.42585714285713,81.96092216900078L172.53385714285716,82.8103215678399L172.73057142857144,72.29811507168603L173.10471428571427,74.11908706249707L173.2242857142857,57.15277255309769L173.24357142857144,58.77294001022865L173.30914285714286,62.16926504993374L173.65242857142857,57.1442182709213L174.4392857142857,62.474696096744296L174.717,58.135262936532186L175.12199999999999,58.525414260335566L175.45757142857144,46.33609627809594L175.50385714285716,51.893335488199L175.62728571428573,57.03193446005909L175.7352857142857,52.43450210097747L176.07085714285716,59.56158453188331L176.10942857142857,53.25352444228723L176.13257142857142,62.869924574954496L176.148,68.66157627892287L176.26757142857144,64.86107763325249L176.2752857142857,57.4247871796791L176.3292857142857,60.81566627187557L176.3524285714286,58.063395369229866L176.63400000000001,69.547950982955L177.5867142857143,58.835582844360786L177.92614285714285,62.875854028430055L178.02642857142857,70.09997987538566L178.37357142857144,66.77715619279934L178.47771428571428,57.45342557156479L178.74771428571427,68.58510686769722L179.01000000000002,70.16689065981687L179.3262857142857,72.33309731814533L179.51142857142855,59.35221947391791L179.57314285714287,74.47733022665956L179.78142857142856,73.76277027862854L180.41014285714286,75.55255368453814L180.441,65.91316079757145L180.68785714285715,64.68671783801832L180.792,72.32775803007834L181.3127142857143,62.77965197919697L181.3397142857143,65.24922271147703L181.40914285714285,70.69028335159223L181.80642857142857,76.93062827991567L181.899,67.6466291070409L181.93757142857143,79.11612128339772L181.99157142857143,68.76643440796472L182.2307142857143,80.8495064636481L182.59714285714284,74.10099929533872L183.0252857142857,76.25291681465988L183.09471428571428,68.38448919163635L183.1332857142857,72.89002601786349L183.21428571428572,67.08816954781948L183.6347142857143,56.12066872094276L183.90471428571428,59.7362715294413L184.28271428571426,65.16345173460954L184.88057142857141,60.68346757497021L185.00785714285712,57.798761336837L185.07342857142856,69.09040568401444L185.22385714285713,70.33025054115075L186.219,66.11792114761283L186.975,69.17251781654444L187.1447142857143,54.046662720235716L187.2797142857143,59.06201600960446L187.39542857142857,57.604738678126836L187.488,64.33261855875809L187.61142857142858,72.74289988240812L187.88914285714287,62.00501862423347L187.99328571428572,61.29123634650345L188.0087142857143,70.91800645522696L188.06657142857142,79.05850562869959L188.16685714285714,77.10777633042804L188.25171428571429,75.49348501554135L188.91128571428573,60.62568026298884L188.9267142857143,48.209346424626915L188.97685714285714,55.213350117854844L189.28542857142855,55.48710037508758L189.30085714285713,66.91144909603884L189.43971428571427,70.9111005990316L189.77528571428573,73.90906225812094L189.80228571428572,72.54518245461577L189.972,78.48028208297289L190.17642857142857,82.47953712830024L190.32685714285714,58.51031722161618L190.56214285714285,43.298635030985565L190.9362857142857,54.40586382460636L191.08285714285714,66.59492552466419L191.26028571428571,61.91394960594509L191.26414285714284,68.45021279680134L191.4917142857143,55.94607581512574L191.81571428571428,64.16066598882142L191.9082857142857,61.11302974615414L192.0972857142857,71.45309753493818L192.15128571428573,74.48288376098682L192.72214285714284,71.64974709927526L192.83785714285713,72.72982824293466L193.06542857142855,69.42066076068696L193.26214285714283,71.60574929616024L194.05671428571426,64.27322569112681L194.09142857142857,52.80682480506522L194.29585714285716,55.92133668366526L194.81657142857142,58.404000808617184L194.95542857142857,54.794263424369134L195.35271428571428,55.79496135824466L195.399,58.02542549280453L195.83485714285715,66.8474164083091L196.09714285714287,62.04792056925024L196.23214285714286,71.57412595816606L196.8107142857143,64.02527383924418L196.84542857142856,60.09813403861261L196.94957142857143,68.64230890140855L197.06528571428572,62.51100516358568L197.19642857142856,68.46002598825824L197.37,57.64534415537358L197.40085714285715,60.36114221454207L197.50885714285712,66.4401614763769L197.9447142857143,67.19709073693151L198.00642857142856,60.80232309017933L198.24557142857145,62.97377371419087L198.31114285714287,57.12552577035795L198.64285714285717,70.76108402477007L198.6775714285714,73.07643590847434L199.4027142857143,59.29304524946083L199.6032857142857,65.47950262241284L200.71414285714286,65.06669897087049L200.79514285714285,66.47128048090714L201.339,69.85175485540576L201.50485714285713,73.58537783898402L201.70928571428573,76.20723737286022L201.7362857142857,77.64100890759522L201.81342857142857,68.70698161365925L201.91371428571426,69.93333761458996L202.26085714285713,64.41666607399027L202.46142857142857,69.07349820140546L202.69285714285712,72.99711602650211L202.71985714285717,75.33915638161973L202.8317142857143,78.34685199101733L203.03614285714286,75.10085599803905L203.05157142857144,74.21939990332113L203.1017142857143,76.43388175414239L203.15571428571428,74.07885540195048L203.24828571428571,62.28501384258911L203.29457142857143,55.912374719782534L203.41799999999998,58.1879827528023L203.445,67.45944693180857L203.49900000000002,75.36442486242218L203.93485714285714,57.40157475349761L203.97728571428573,70.4937389668472L204.00042857142856,65.87511363287653L204.15857142857143,65.22375070249964L204.174,58.78110015906452L204.22799999999998,63.82802070489065L204.31671428571428,62.17519243942023L204.7255714285714,59.1045479559083L204.89142857142858,61.74586911101217L205.13057142857144,64.8915368324463L205.1922857142857,65.20414172247717L205.308,70.54954818667375L206.05628571428574,64.56240551341415L206.22985714285713,54.60800416868234L206.415,57.7572773214259L206.44585714285714,62.789089952870896L206.86242857142858,73.44918652472776L206.9395714285714,72.33445538142055L207.68785714285715,46.68298265770315L208.22014285714286,57.55030196369832L209.3387142857143,57.020499303705364L209.547,61.17755934880189L209.64342857142856,71.34062369437623L210.12942857142858,61.35433442853852L210.44185714285715,52.301108857768554L210.67714285714285,62.69623897320696L210.75042857142856,61.824898051301645L210.978,66.38796839341322L211.42542857142857,69.89820911024887L211.73014285714285,59.86003541669179L212.16985714285713,59.742047179068706L212.3627142857143,68.22257804770803L212.50542857142858,61.920299593008764L212.72142857142856,58.45346374714207L212.78314285714285,55.8213743035227L212.89885714285714,57.60835186029851L213.18042857142856,49.47481280397602L213.62014285714287,53.31738075712062L213.95957142857142,63.77593121686819L214.22185714285715,64.54565322056956L214.57285714285715,63.30732909831731L214.58057142857143,70.02463957067326L214.6037142857143,68.36802718875406L215.30571428571426,58.14805652005036L215.92285714285714,58.124535786922124L216.0617142857143,67.66538690595749L216.50528571428572,67.15854990722093L216.5207142857143,70.93297169650407L216.87942857142858,77.40939240879702L217.09157142857143,73.38070640301837L217.32299999999998,71.13336818617263L217.68942857142858,68.68547637185462L218.4762857142857,63.57338218840563L218.8967142857143,69.2603475498315L219.0664285714286,60.20444040976899L219.08185714285716,73.12523656974L219.11271428571428,74.87371763521291L219.6835714285714,59.321582875254904L219.86485714285715,65.22420534785778L220.11942857142859,64.8885216730606L220.12714285714284,64.06277913954486L220.77514285714284,65.64935351475056L220.9872857142857,75.20802188553796L221.09528571428572,72.15655105097126L221.22257142857143,68.55900654862145L221.31514285714283,66.3151165584911L221.3537142857143,69.39961026153104L221.82814285714284,76.51250011349401L221.8975714285714,75.71033545906155L222.18685714285715,77.30166483168686L222.33342857142858,74.49213372217547L222.49157142857143,63.234988893351556L222.88114285714286,45.254364145963365L222.95442857142856,45.447333182793216L223.35557142857144,47.03996138924444L223.48285714285714,57.501750637019185L223.72971428571427,45.87668813800286L223.76828571428572,55.93765654287023L224.07299999999998,60.97694593144227L224.13085714285714,62.326077322996284L224.27357142857142,65.11991885950364L225.26485714285712,68.18112488776563L225.29571428571427,64.77775826368799L225.52328571428572,56.56264631140672L225.5772857142857,57.20114877336289L226.21757142857143,59.63007363585473L226.44128571428573,67.17816772406007L226.4682857142857,51.818063110180915L226.4837142857143,60.401439623078645L226.49914285714286,69.51434016687132L226.89642857142854,70.08761431651784L227.043,62.619109403356774L227.1702857142857,70.23719387924564L227.21271428571427,70.33012559717433L227.664,71.34428978982888L227.853,77.3787017386555L227.91085714285714,82.3761778566082L227.99185714285713,70.91479436116455L228.0497142857143,41.537806063237014L228.28114285714287,47.71698967377873L228.50485714285713,38.99292607164702L228.99471428571428,59.2696891331056L229.37271428571427,60.541021845939525L229.84714285714287,60.59121705027587L229.986,47.34145885466833L230.07085714285714,50.490776569203334L230.24057142857143,49.27278099291868L230.2907142857143,51.08508465985466L230.3485714285714,46.522115613818244L230.68800000000002,56.32182297456269L230.904,60.474316159971565L231.18942857142855,71.13827495182832L231.363,70.21846123181949L232.17685714285716,73.79070733175578L232.5857142857143,74.05487347753386L232.5972857142857,61.31333574719156L232.69757142857142,60.25510370373881L232.81714285714287,54.32323758188976L233.50757142857142,67.8347377203947L233.52685714285715,67.10904394525562L233.5577142857143,71.41429626507525L234.18257142857144,53.35561863320845L234.387,43.47833757244214L234.49885714285713,29.3153885442575L234.78814285714287,45.03497194480261L235.14685714285716,51.37273378510095L235.15842857142857,63.44814126693497L235.64057142857143,66.63460893533603L236.46214285714285,74.34066753547573L236.58942857142856,59.308764469392216L236.7514285714286,54.17585376407729L236.87485714285714,42.34447377625722L236.95585714285713,42.92286012790771L237.19885714285715,57.61338676147962L237.24514285714287,51.58816808144233L237.29914285714284,58.73725032615651L237.32614285714286,61.266549329805315L237.33385714285714,71.84761017214137L237.6347142857143,66.67870993803466L238.32514285714285,66.13689362838184L238.45242857142858,64.6878862927416L238.5912857142857,57.9124695847467L238.71471428571428,46.890155736011394L239.14285714285714,40.049942447782826L239.28557142857142,54.99760525864838L240.06085714285715,48.18444059357532L240.15342857142858,56.977190119418424L240.3,62.33720405045723L240.32314285714284,60.308745697003076L240.408,57.958337091323614L240.68185714285715,71.6226563451192L240.9557142857143,52.04805214390167L241.01357142857145,56.02920113117503L241.1447142857143,65.72888928618632L241.36457142857142,63.55138434350452L241.79271428571428,69.63815337546644L241.9392857142857,76.81404981292076L242.07814285714286,76.88271279698682L242.50242857142857,66.59450616379225L243.351,52.32418241266198L244.14171428571427,62.12907342014981L244.33842857142858,56.81949278055592L244.701,53.47105019095916L245.14842857142858,46.52439253809081L245.36057142857143,57.11005430886364L245.4762857142857,58.51139075042336L245.49171428571427,57.98152609158474L245.65371428571427,57.5791723499035L245.77714285714285,56.267726197004436L245.88128571428572,58.321877837673895L245.94685714285714,54.64461373120312L246.00471428571427,62.95037956732371L246.04328571428573,59.90650704124286L246.3672857142857,53.167201339912694L246.915,54.738546273934205L246.97671428571428,54.452431324220115L246.98828571428572,53.78708757942702L246.99985714285714,53.88849657169452L247.08471428571428,60.27039403155328L247.52828571428572,55.94189658026825L247.87928571428571,66.54428782221237L248.06057142857145,47.841248521148515L248.2457142857143,63.99686393277209L248.5272857142857,57.82126411678212L249.0827142857143,52.80020441143802L249.26785714285717,47.444109806591825L249.32957142857143,53.31701484273346L249.44528571428572,58.77927371631348L249.6342857142857,57.531671850504196L249.68442857142855,47.63320061879659L249.70371428571428,58.67035843025033L249.7577142857143,59.27559117331336L250.01614285714285,63.78347877177137L250.18585714285715,57.373900937115366L250.29000000000002,57.70740115865581L250.5792857142857,51.11023612950949" style="fill: none;" fill="none"></path></g></g></g></g><g opacity="0.2"><g><g><g><path stroke="rgb(255, 112, 67)" stroke-width="2px" d="M19.45157142857143,122.77519589538375L19.463142857142856,118.97389648109674L19.56342857142857,127.008135817945L19.652142857142856,129.83057006821036L19.933714285714284,131.2537437453866L20.172857142857143,127.30344262222448L20.19214285714286,113.30207289755343L20.273142857142858,126.10706905772288L20.34257142857143,128.02210392678776L20.47757142857143,126.18159063408771L20.485285714285716,130.82099530473351L20.516142857142857,129.27103658765554L21.11785714285714,118.30097537736097L21.357,121.55115441357096L21.52285714285714,121.96777566894889L21.549857142857142,121.62127465258041L21.735,105.51203732937573L21.78514285714286,122.62229846417904L22.04357142857143,120.22150017569462L22.074428571428573,127.85473430156708L22.383,118.82921322186787L22.406142857142857,125.17147404079635L22.514142857142858,122.45556707431872L23.034857142857145,116.3889493321379L23.200714285714284,96.69619452456632L23.401285714285713,113.81146207700172L23.547857142857143,121.90374491363764L23.841,113.43430089702208L24.153428571428574,126.05419775098562L24.365571428571428,107.01290165632962L24.377142857142857,93.78579154858986L24.431142857142856,69.22241127987704L24.44657142857143,108.86267903198798L24.631714285714285,117.04286428416768L24.658714285714286,109.24074092507361L24.828428571428574,109.88245756924151L24.944142857142854,121.93596612910429L25.275857142857145,100.48265980184077L25.399285714285714,117.58180845777193L25.812,111.6617582887411L25.977857142857143,118.27644614130259L25.989428571428572,107.25907262663046L26.402142857142856,110.95196320613225L26.52942857142857,100.66250955313443L26.683714285714288,108.88653964052597L26.799428571428574,125.43303449576099L27.142714285714284,120.68960575014353L27.374142857142857,105.41639596472183L27.725142857142856,103.61962804198264L27.771428571428572,104.09008762737115L27.894857142857145,113.83988150954245L28.01442857142857,101.88611449301241L28.188000000000002,108.53957169006267L28.504285714285714,122.99843183656533L28.68557142857143,115.97545570631821L28.751142857142856,104.99664155393837L28.758857142857142,103.49740182608365L28.778142857142857,105.24280147254466L28.87457142857143,91.96612451473871L28.87842857142857,110.09854030112425L28.924714285714288,108.29908681660889L28.944000000000003,101.95085531969865L29.055857142857143,123.97538505742946L29.645999999999997,113.57507738222678L29.85814285714286,117.74066551526387L30.733714285714285,95.0925881192088L31.00757142857143,112.8738473628958L31.019142857142857,102.58714005599418L31.482,101.16153224309285L31.748142857142856,118.69178816303611L31.809857142857144,102.55490778883298L31.813714285714287,106.23840995381275L32.03742857142857,86.49550255636373L32.71242857142857,114.63744915028413L33.24471428571429,104.08211935559908L33.252428571428574,110.9829632093509L33.44528571428572,100.5880819161733L33.719142857142856,124.97692829867204L34.00071428571428,89.87048561622699L34.02771428571429,92.94928878794113L34.440428571428576,106.90540734926859L34.54842857142857,112.94017410775025L34.857,113.71342802047728L35.09614285714286,106.47904955099025L35.47414285714285,108.95725390811761L35.613,104.58791120847066L35.94085714285714,118.76672417794664L36.261,101.45961302270491L36.615857142857145,115.44199041028817L36.681428571428576,92.56005363166331L36.76242857142857,98.04619216918944L37.27928571428571,93.30249541997908L37.294714285714285,113.6779355034232L37.32557142857143,111.33834149936834L37.757571428571424,111.79112942516802L37.811571428571426,121.22093254327774L37.95814285714286,90.44063148647545L38.16642857142857,72.54755672315758L38.46342857142857,97.75451584657033L38.768142857142855,98.69493769109248L38.77585714285714,115.76979472239812L38.98414285714286,116.32068854073682L39.09214285714286,99.21950637300809L39.906,87.27787411709625L39.96,79.46326510608196L40.19528571428572,105.62555480996767L40.69285714285714,115.21361266821623L41.19428571428572,108.59357579549153L41.364000000000004,94.48251800239085L41.691857142857145,108.9508881320556L41.90785714285715,68.8053976893425L41.93485714285714,101.32708662748335L42.07371428571429,95.47246801604827L42.393857142857144,99.47473420699437L42.937714285714286,56.43222991625467L43.203857142857146,86.30415351688862L43.277142857142856,103.17828967173894L43.54714285714286,106.75617631773153L43.63585714285714,97.10006212443112L43.882714285714286,108.75589203337827L44.43814285714286,92.76724527527888L44.64642857142857,97.30850260953108L44.75828571428571,92.80971141159533L45.117,75.37196093797684L45.12857142857143,103.78748117884L45.17485714285714,87.95295582711697L45.72642857142857,84.12352156142396L46.15842857142857,103.2127930621306L46.25871428571429,102.16329651822646L46.729285714285716,85.92629608015218L46.88742857142857,107.86057215432325L47.48914285714286,102.20921630909045L47.763,101.75476510326067L48.025285714285715,116.13156089186668L48.06385714285714,88.01239184041816L48.075428571428574,97.88792085150877L48.13328571428572,92.14073576281467L48.26057142857143,87.84585385521251L48.96257142857143,96.98856710394223L49.329,90.94732405245303L49.36757142857143,84.91309882700443L49.50257142857143,102.18634482721487L50.111999999999995,98.90165963768958L50.40128571428571,97.3512284606695L50.841,84.6349497785171L50.99914285714286,81.0119998479883L51.54685714285714,77.97859151164693L51.56614285714286,85.15808174014091L51.600857142857144,102.93798715124527L51.95957142857143,76.29667832454047L52.06757142857143,97.2345888763666L52.106142857142856,104.00269082685311L52.46485714285714,48.254804824789375L52.596000000000004,100.22697884837785L52.82742857142857,84.07626451551914L53.53328571428571,82.3632463340958L53.64514285714286,106.68621909121671L53.72614285714286,106.40363831321397L53.753142857142855,78.2053722838561L53.97685714285714,99.74403084814547L54.216,107.02535139024256L55.00671428571429,73.8740142583847L55.22271428571428,85.06924821933112L55.34614285714286,102.59410814940928L55.681714285714285,77.77732910215855L55.809,71.79242758949599L56.14071428571429,73.31403594712418L56.19085714285715,82.61379377543926L56.538000000000004,100.14135031898816L56.626714285714286,100.70518567164738L56.69614285714285,100.40307654937108L57.255428571428574,86.93654253085452L57.50228571428571,100.54129456728695L58.084714285714284,87.30968089401722L58.185,72.00218875209492L58.92557142857143,96.44244761765002L58.95257142857143,92.22414842744668L59.4,73.56683240830898L59.708571428571425,72.49467989057302L59.87442857142857,61.517446130514145L60.202285714285715,99.41289445012806L60.32185714285714,110.36971573034921L60.38357142857143,114.8646664644281L60.60342857142857,109.99122282117604L60.780857142857144,78.85283028334379L60.78471428571429,90.76582207282384L60.869571428571426,81.3451918611924L61.10485714285714,86.60620738069215L61.13957142857143,62.854148586591094L61.34014285714286,96.16174010187386L61.35171428571428,102.96716915071009L61.498285714285714,61.51039514938989L61.586999999999996,99.95002890874942L61.61014285714286,85.12794929494461L61.61785714285714,104.05274395147958L61.79528571428571,106.06979425003131L62.11157142857142,87.99434442321459L62.18485714285715,82.77682284762463L62.21957142857143,78.88847752412161L62.481857142857145,91.15397968888281L62.48957142857143,71.44770313302678L62.721000000000004,81.12825262298188L63.33428571428571,90.93983652939399L63.538714285714285,88.23310523231822L63.615857142857145,97.36866803467272L63.73542857142857,98.50564426680405L63.77014285714286,109.96833476175864L63.90128571428571,91.07395436863104L64.21757142857143,107.15538562834261L64.36028571428571,103.61635121454795L64.64571428571429,89.52735812962054L65.08542857142857,37.694092854857445L65.4557142857143,93.99256322781244L65.475,99.58254901319741L65.61385714285714,77.63071732223034L65.73342857142856,82.56494528551897L66.10757142857143,63.86741214990616L66.20785714285715,100.09502714127301L66.285,107.62099351982275L66.69385714285714,88.30788652350503L67.13742857142857,76.18883588910103L67.34185714285715,99.07590617984532L68.16342857142858,98.4342171649138L68.958,80.69596006472906L69.19714285714285,101.77632143348454L69.498,86.78634447604418L69.56357142857142,70.61490821590027L69.66771428571428,44.77575348317623L69.74871428571429,73.15955536067486L69.795,101.8575071816643L69.85285714285715,71.57094057897729L70.35428571428571,91.68661610782145L70.983,102.06147173047064L70.99842857142856,78.9421058719357L71.37642857142856,67.78867494563264L71.53842857142857,94.61921641230582L71.73514285714286,96.5153888016939L71.82385714285714,86.01177541166544L72.05142857142857,81.62719795107841L72.55671428571429,55.2899599224329L72.84214285714286,74.42581984152397L73.59814285714285,92.87259002774952L74.142,81.05456544955572L74.39657142857143,110.95533397297064L74.42357142857142,87.83033727606136L74.52385714285714,49.138973544041306L74.59328571428571,76.98672955483198L74.82085714285714,57.84411705036959L75.01371428571429,86.3510679602623L75.72728571428571,50.64459009965262L75.75042857142857,92.61646148065725L75.86614285714286,77.51396722098193L75.90085714285713,106.41245756546655L75.93942857142858,88.50429171323776L76.29428571428572,88.21393054227033L76.32900000000001,107.28107102463642L76.41,81.09337347497544L76.65685714285715,90.82164970785378L76.73014285714285,92.53418161471684L77.49385714285714,87.73366810381413L77.841,96.79969364404677L78.17271428571428,90.70213115712006L78.39642857142857,95.69172811011472L78.97114285714287,91.37282534440358L78.97885714285715,55.56058276693025L79.10228571428571,94.48210356384514L79.22185714285715,85.01605641345185L80.001,78.39400260647139L80.09357142857144,100.29335532585779L80.12828571428571,98.13525777558485L80.34042857142857,72.1967096279065L80.97685714285714,51.34979872902235L81.37028571428571,78.45423434178036L81.45128571428572,60.673726613322884L81.96428571428571,109.72147858639558L82.24199999999999,86.97719066341716L82.32685714285714,105.35731360564628L82.39242857142857,97.1290230900049L82.56985714285715,104.49909979104994L82.95171428571427,70.24535612761974L83.69228571428572,110.0295114169518L84.12042857142858,72.01856736342114L84.1242857142857,97.88665543248256L84.30942857142857,83.01890469094118L84.47142857142856,67.69326566656432L85.11557142857143,71.54862720767659L85.23514285714286,76.8688908616702L85.36628571428571,81.56237976253033L85.78285714285714,45.897334704796464L85.91014285714286,106.86612962683041L85.98728571428572,101.37593511740366L86.07985714285715,74.34189327309531L86.08371428571428,99.79007220764954L86.09528571428572,98.69635230799516L86.16857142857143,103.3620130419731L86.42314285714286,89.86219131946562L86.57357142857143,75.78532746930918L86.61214285714286,62.17763015627861L86.95542857142857,57.949627578258514L87.00942857142857,74.23357008894286L87.1212857142857,76.00989790260792L87.15214285714286,95.89430567125478L87.264,73.54644203186035L87.64585714285714,83.92570728063583L88.53685714285714,78.23691934595507L88.64485714285715,63.282932231823594L88.78757142857144,87.55843243499595L88.92257142857143,98.61948777238527L88.96885714285715,65.96545479198298L89.21571428571428,101.33231407900651L89.73642857142858,100.0278825710217L89.94471428571428,64.15130807956061L90.45771428571429,87.31942848861217L90.46157142857143,93.0142727519075L91.00157142857142,89.67706438402334L91.46828571428571,91.19583245615163L91.49528571428571,100.96706662575403L91.97742857142858,73.69911014040312L92.4132857142857,87.82251267631847L92.59457142857143,72.53599665065607L92.76042857142856,47.244668891032546L93.02271428571429,93.6432744214932L93.22714285714287,87.20103168487549L93.62057142857142,90.07074784735838L94.6002857142857,89.18507609764734L94.62342857142858,86.4889599531889L95.04385714285715,63.851851363976806L95.09785714285714,61.81314526995024L95.39485714285713,75.07552686085305L95.41799999999999,86.74233110249043L95.74971428571428,74.66988546401262L95.83842857142857,32.35864417254925L96.10842857142858,72.75806940098605L96.19328571428571,74.31054514149827L96.32057142857143,81.96053916215897L96.41314285714286,81.00318612158298L96.56742857142856,69.16350574791431L96.63685714285715,69.6001692513625L96.66,77.871119307975L96.67157142857144,56.1412387986978L96.96471428571428,68.29526252051195L96.96857142857144,84.54682909200591L97.14985714285714,85.77286540468532L97.26942857142856,81.24080308030051L97.37357142857144,78.75111048668623L97.38514285714285,80.34967731932801L97.40442857142857,71.79668249189854L97.67828571428572,82.15390513588986L97.72071428571428,103.27985474467276L97.90971428571429,86.69087441265583L98.12957142857142,81.39913518230122L98.30314285714286,80.1440660680334L98.46128571428572,94.03912401696046L98.51142857142858,81.6483840495348L98.51528571428571,81.99486572543782L98.60014285714286,76.79356803745031L98.66185714285713,81.19243533909321L99.09,77.48559752106667L99.171,79.12091676394147L99.43714285714286,83.02280593911809L99.44871428571429,93.68377888202666L99.45257142857143,69.36813892424107L99.63771428571428,45.01234816014767L99.73028571428571,89.96376744409402L100.23942857142856,96.62387223541735L100.59814285714286,73.20473468800387L100.845,82.71559093395871L101.0957142857143,85.12001417825621L101.18442857142857,70.39316149055958L101.50842857142858,89.02417447666326L101.52,82.2457060366869L101.53928571428571,89.42228966951369L101.79771428571429,77.82303891082606L101.86714285714285,82.27376628915471L102.15642857142856,72.32857844730219L102.30685714285714,62.67703412969908L102.9162857142857,96.78650897244611L103.08214285714286,91.37765493492284L103.356,74.62650203704834L103.45628571428571,61.96855419874191L103.53728571428572,83.1500993569692L103.56042857142857,79.31737168629965L104.16985714285714,77.27889767785868L105.09171428571429,82.47331568598747L105.14185714285715,55.40464335680008L105.27300000000001,75.01475359251103L105.41957142857143,79.26291446139416L105.52757142857143,84.55683640142283L105.96728571428572,104.71999001006284L106.10228571428571,62.18209504087767L106.245,65.7263955871264L106.59599999999999,88.55907496313253L107.09742857142858,88.56389350195724L107.38671428571429,82.94033266852301L107.73385714285715,63.5201126486063L107.74542857142856,74.7249229028821L108.32785714285714,64.18143499890962L108.53614285714285,76.13421841462454L108.5747142857143,86.05587719877559L108.70585714285714,90.13736193627118L108.74442857142857,69.43314499159655L108.84471428571429,91.13861230760811L109.01828571428571,82.16185130427283L109.107,101.67038541535536L109.39628571428571,84.20264064272246L109.46957142857143,92.55603634069362L109.65085714285713,39.25519996881485L110.0867142857143,86.52254605293274L110.27571428571429,88.10458507637182L110.58814285714286,91.26865759740272L110.63057142857143,75.36268856624764L110.70771428571427,77.80067028105259L110.98928571428571,76.24038099249205L111.20914285714287,87.574827623864L111.62185714285715,54.08296015361944L112.16571428571429,79.48410860200724L112.31614285714286,72.41866633544367L112.428,73.90807005514702L112.76357142857142,59.954681262373924L112.94871428571429,84.82047457496327L112.95642857142857,40.249609341224044L113.103,74.98027783135575L113.1917142857143,50.81832273801169L113.46557142857142,81.2968241199851L114.00942857142856,82.15048463642597L114.25628571428572,92.13974663615225L114.63428571428571,92.04813914000987L114.66514285714285,84.29704421758652L115.33628571428572,97.52034701655307L115.46357142857143,93.13928399483362L115.74900000000001,80.75299786031246L115.89942857142857,82.87156349917254L116.23114285714286,78.8047885671258L116.60914285714286,102.72183258334795L116.65928571428572,62.832818816105515L116.69399999999999,73.51480103035769L116.99871428571429,71.57649958133698L117.22628571428572,50.031110535065324L117.66600000000001,71.94500175863504L117.72385714285714,68.08330207069716L118.02857142857144,82.16429372876883L118.36414285714285,94.24563598136106L118.85014285714286,93.13170253237088L118.98514285714286,95.58571473012367L119.27057142857143,92.79802977045377L119.74885714285713,70.14237643778324L119.82985714285715,75.29326182107133L119.92628571428571,62.23887864748636L120.17314285714286,74.14348772664866L120.22714285714285,91.47692125538984L120.70157142857143,66.33226053416729L120.744,85.73805256684619L121.12971428571429,55.856679767370224L121.38814285714287,82.42432352403802L122.15957142857143,89.30878324061631L122.64942857142857,99.80175384879111L122.6532857142857,74.21731304625672L122.76514285714286,77.97658010323843L122.77285714285715,84.3496116027236L123.15471428571429,64.29453804095587L123.98014285714287,82.27895505974692L124.00328571428571,68.30336341261864L124.02642857142857,87.20187161366144L124.04185714285714,67.42963854471844L124.04571428571428,81.47720435261726L124.48928571428571,81.68367763608694L125.3802857142857,63.81478398044905L125.7582857142857,69.08659700552624L125.79685714285715,99.2208878348271L125.82385714285714,82.1323930124442L125.89328571428571,86.76669456313053L126.28285714285714,72.29216311375302L126.61457142857144,95.5450500200192L126.96557142857142,28.327781721949577L126.97328571428571,74.2830982580781L127.09671428571428,82.6550000185768L127.16614285714286,60.92466638982296L128.2577142857143,21.956148261825234L128.358,77.85983000199002L128.52771428571427,46.085898717244476L128.979,95.94064542651175L129.02914285714286,73.03973288834095L129.38400000000001,81.13779023538035L129.49585714285715,78.77224132666987L129.6462857142857,59.32724340756735L131.031,79.45616439233225L131.13128571428572,95.14801789323488L131.21614285714287,77.38859679798287L131.28942857142857,68.3821509430806L131.38585714285713,80.53453901410103L131.44757142857142,85.88650997976461L131.49385714285714,65.687913586696L131.922,48.56715886791548L132.16114285714286,70.73850484192371L132.96342857142858,65.25605757037798L132.99042857142857,57.695935929814965L133.02514285714287,78.29606248935065L133.218,83.2341143389543L133.22957142857143,53.044222434361785L133.31057142857142,66.53576643764973L133.43014285714287,75.357251132528L133.50342857142857,78.77123009661835L134.028,71.33183716734251L134.34042857142856,90.17680543412764L134.34428571428572,69.58645409842333L134.47542857142858,83.8438031723102L135.00385714285716,43.48140112062296L135.02314285714286,79.2894882609447L135.12342857142858,70.11319996416569L135.30085714285715,54.62245967487493L135.35871428571429,52.195872257153184L135.67499999999998,75.15741439163685L135.84085714285715,96.32466418296097L135.94114285714286,51.94226902226606L136.0992857142857,56.4224160114924L136.26514285714285,57.1355044990778L136.77428571428572,87.48370640228191L136.81671428571428,88.94065129508573L137.21014285714284,57.086114476124436L137.3644285714286,78.74871779481572L137.727,73.2693594718973L137.781,108.9469426771005L137.85042857142855,75.08835235238075L139.06157142857143,71.12311486403149L139.26600000000002,72.19855526089668L140.427,32.62774188319841L140.5697142857143,71.41055838763714L141.54557142857144,81.69260187943777L141.64585714285715,56.34412580728531L141.97757142857142,58.20304293433824L142.2282857142857,61.29289780060449L142.25528571428572,81.29736012717089L142.28614285714286,97.12841524680455L142.47128571428573,56.826797515153885L142.506,87.71313958118358L142.73357142857145,71.52811526258787L142.7837142857143,86.81557068228722L143.3892857142857,69.86124343176684L143.5165714285714,68.9272315700849L143.67857142857142,59.20907868941626L144.39600000000002,51.56424581011137L144.75857142857143,82.13897982239723L144.80871428571427,87.95438702156144L145.07485714285716,81.63269064327082L145.2522857142857,78.80001976092657L145.44128571428573,78.35603450983763L145.65728571428573,70.5505707760652L146.16642857142858,73.88431996355456L146.19728571428573,65.17731424669424L146.58300000000003,81.24619078139466L146.62928571428571,49.339705472191184L146.70642857142857,90.1136615773042L147.16157142857142,69.52443198859692L147.26571428571427,74.51853803296885L147.27342857142858,62.706100086371094L147.62057142857145,45.102010558048875L147.89057142857143,60.097104450066894L147.99471428571428,79.01147183279198L148.02171428571427,39.983683466911316L148.1297142857143,20.53826005756855L148.65428571428572,30.371847887833923L149.00914285714288,74.40444033841294L149.3832857142857,63.427720482150704L149.418,60.186523710687965L149.46428571428572,68.27544683218002L149.53757142857145,88.22084890305996L149.60314285714287,53.72084032992521L149.81142857142856,81.98261492202681L149.85771428571428,80.74502406269312L149.95414285714284,68.25958765049776L150.09685714285715,76.2427239517371L150.498,54.325942710042L150.57128571428572,36.414185057083756L150.5982857142857,52.57834930221239L150.7757142857143,45.57736604412398L150.9762857142857,75.27414238949618L150.98785714285714,31.258138532439858L151.12285714285716,86.58947511514026L151.82485714285716,91.19440678755441L151.82871428571428,65.72021768987179L151.9097142857143,93.00203300019105L152.12185714285715,76.86424914995831L152.45742857142858,62.307686497767776L152.46128571428574,75.63060374557972L152.60785714285714,85.958500718077L152.74285714285713,69.79646944999695L152.7775714285714,70.99051663279533L153.45257142857142,60.89061611890793L153.819,69.77507336934408L154.59428571428572,67.7286863476038L154.73314285714287,91.27243727693954L154.9722857142857,68.98852426807088L155.2692857142857,42.28603878617287L155.574,38.52653964360556L155.655,82.16174631317458L155.68585714285715,70.58426739275455L155.736,82.76510805139941L155.7437142857143,54.000669235984475L156.14485714285712,84.52000110348067L156.15257142857143,98.48278383662303L156.48814285714286,67.0916335185369L156.49971428571428,70.47848057250184L157.2634285714286,74.67379223803681L157.29042857142858,59.36404555042586L157.54500000000002,66.16425267358622L157.5642857142857,59.72519282499948L157.96542857142856,84.26496114830178L158.031,88.73703487465778L158.28942857142857,70.65288736422858L158.36657142857143,57.37078402439752L158.77928571428572,53.99642538527647L159.0377142857143,21.880974635481834L159.09557142857145,98.13011873761812L159.1572857142857,92.84034118304649L159.20742857142858,29.212867731849343L159.34242857142857,94.91192054251829L159.4427142857143,31.072746356328338L160.34142857142857,93.71369581917921L160.57285714285715,60.8508410702149L160.68857142857144,69.3913253794114L160.76185714285714,76.70658567547798L161.10514285714285,57.060375079512596L161.25557142857144,78.25314323355755L161.27100000000002,80.57991727193198L161.3057142857143,73.59095825751623L161.42528571428574,56.95844530065855L161.64514285714284,42.153639485438674L162.20828571428572,74.32520521432161L162.65571428571428,38.17131607731184L162.783,83.99102832128605L163.20342857142856,72.85648474097252L163.75885714285712,57.99708355466524L163.89,44.79837630192438L164.95071428571427,30.63540869951248L165.11657142857143,89.45582051078478L165.3827142857143,89.28839839001496L166.60157142857142,88.45662575463453L166.81371428571427,67.78773555159569L166.87157142857143,52.06537384788194L167.26885714285714,73.24216125160456L167.5542857142857,79.08579447865486L167.616,79.88217958807945L167.65842857142857,50.64722040295601L167.78957142857143,41.69823230803013L168.09814285714285,73.55981458226842L168.33342857142856,77.95823429028195L168.3372857142857,57.29011770586172L168.56099999999998,45.71463914215565L168.63814285714287,37.50383793314299L168.804,81.22751341760159L169.101,33.21444319188595L169.64485714285715,65.40726685523987L169.73357142857142,72.10862209647894L169.73742857142855,61.324163044492394L170.262,35.82517394423485L170.6322857142857,75.02336838841438L170.85985714285712,76.01898239552975L170.9022857142857,65.29938021302223L171.99771428571427,113.77127811561027L172.42585714285713,76.95304951568446L172.53385714285716,84.0844206660986L172.73057142857144,56.52980532745519L173.10471428571427,76.85054504871368L173.2242857142857,31.703300788998604L173.24357142857144,61.203191195925086L173.30914285714286,67.26375260949135L173.65242857142857,49.60664810240269L174.4392857142857,70.47041283547878L174.717,51.62611319621405L175.12199999999999,59.11064124604067L175.45757142857144,28.052119304736465L175.50385714285716,60.22919430335364L175.62728571428573,64.73983291784921L175.7352857142857,45.53835356235504L176.07085714285716,70.25220817824206L176.10942857142857,43.79143430789313L176.13257142857142,77.29452477395535L176.148,77.34905383487543L176.26757142857144,59.16032966474691L176.2752857142857,46.27035149931908L176.3292857142857,65.90198491017023L176.3524285714286,53.93498901526132L176.63400000000001,86.77478440354267L177.5867142857143,42.767030636469514L177.92614285714285,68.93626080453396L178.02642857142857,80.93616864581904L178.37357142857144,61.79292066891989L178.47771428571428,43.46782963971296L178.74771428571427,85.28262881189585L179.01000000000002,72.53956634799641L179.3262857142857,75.58240730563801L179.51142857142855,39.88090270757675L179.57314285714287,97.164996355772L179.78142857142856,72.69093035658202L180.41014285714286,78.23722879340252L180.441,51.45407146712145L180.68785714285715,62.847053398688644L180.792,83.78931831816834L181.3127142857143,48.45749290287495L181.3397142857143,68.95357880989712L181.40914285714285,78.85187431176504L181.80642857142857,86.29114567240077L181.899,53.72063034772873L181.93757142857143,96.32035954793294L181.99157142857143,53.241904094815254L182.2307142857143,98.97411454717317L182.59714285714284,63.978238542874664L183.0252857142857,79.48079309364161L183.09471428571428,56.58184775710106L183.1332857142857,79.64833125720423L183.21428571428572,58.38538484275341L183.6347142857143,39.669417480627686L183.90471428571428,65.15967574218908L184.28271428571426,73.30422204236191L184.88057142857141,53.96349133551121L185.00785714285712,53.471701979637146L185.07342857142856,86.02787220478058L185.22385714285713,72.19001782685518L186.219,59.79942705730596L186.975,73.75441281994185L187.1447142857143,31.357880075772613L187.2797142857143,66.58504594365755L187.39542857142857,55.41882268091044L187.488,74.42443837970495L187.61142857142858,85.3583218678832L187.88914285714287,45.89819673697153L187.99328571428572,60.220562929908425L188.0087142857143,85.35816161831218L188.06657142857142,91.26925438890854L188.16685714285714,74.18168238302073L188.25171428571429,73.07204804321131L188.91128571428573,38.32397313416004L188.9267142857143,29.584845667084068L188.97685714285714,65.71935565769672L189.28542857142855,55.89772576093674L189.30085714285713,84.04797217746577L189.43971428571427,76.91057785352072L189.77528571428573,78.40600474675497L189.80228571428572,70.49936274935803L189.972,87.38293152550855L190.17642857142857,88.47841969629127L190.32685714285714,22.556487361590058L190.56214285714285,20.481111745039613L190.9362857142857,71.06670701503754L191.08285714285714,84.8785180747509L191.26028571428571,54.8924857278665L191.26414285714284,78.25460758308571L191.4917142857143,37.18987034261227L191.81571428571428,76.48255124936503L191.9082857142857,56.541575382153184L192.0972857142857,86.9631992181142L192.15128571428573,79.02756310005984L192.72214285714284,67.4000421067079L192.83785714285713,74.34994995842379L193.06542857142855,64.45690953731537L193.26214285714283,74.88338209937018L194.05671428571426,53.27444028357664L194.09142857142857,35.6072234759728L194.29585714285716,60.59310450156531L194.81657142857142,62.12799699604511L194.95542857142857,49.37965734799704L195.35271428571428,57.296008259058L195.399,61.3711216946443L195.83485714285715,80.080402781566L196.09714285714287,54.84867681066194L196.23214285714286,85.86343404153982L196.8107142857143,52.70199566086134L196.84542857142856,54.20742433766523L196.94957142857143,81.45857119560242L197.06528571428572,53.31404955685139L197.19642857142856,77.38355722526711L197.37,41.42332140604654L197.40085714285715,64.43483930329481L197.50885714285712,75.55869036912918L197.9447142857143,68.33248462776345L198.00642857142856,51.21017162005106L198.24557142857145,66.23094965020815L198.31114285714287,48.353153854608536L198.64285714285717,91.21442140638827L198.6775714285714,76.54946373403072L199.4027142857143,38.61795926094055L199.6032857142857,74.7591886818409L200.71414285714286,64.44749349355698L200.79514285714285,68.57815274596214L201.339,74.92246641715369L201.50485714285713,79.18581231435141L201.70928571428573,80.14002667367458L201.7362857142857,79.79166620969772L201.81342857142857,55.30594067275524L201.91371428571426,71.77287161598605L202.26085714285713,56.14165876309076L202.46142857142857,76.05874639252823L202.69285714285712,78.88254276414713L202.71985714285717,78.85221691429615L202.8317142857143,82.8583954051137L203.03614285714286,70.23186200857162L203.05157142857144,72.8972157612443L203.1017142857143,79.75560453037423L203.15571428571428,70.54631587366265L203.24828571428571,44.59425150354704L203.29457142857143,46.35341603557268L203.41799999999998,61.601394802331924L203.445,81.36664320031804L203.49900000000002,87.22189175834257L203.93485714285714,30.45729959011078L203.97728571428573,90.13198528687158L204.00042857142856,58.94717563192049L204.15857142857143,64.24670630693436L204.174,49.1171243439118L204.22799999999998,71.39840152362984L204.31671428571428,59.695950041214616L204.7255714285714,54.49858123064041L204.89142857142858,65.70785084366798L205.13057142857144,69.61003841459751L205.1922857142857,65.6730490575234L205.308,78.5676578829686L206.05628571428574,55.58169150352478L206.22985714285713,39.676402151584625L206.415,62.48118705054125L206.44585714285714,70.33680890003842L206.86242857142858,89.43933138251303L206.9395714285714,70.66235866645974L207.68785714285715,8.205773572127015L208.22014285714286,73.85128092269105L209.3387142857143,56.225795313715935L209.547,67.41314941644669L209.64342857142856,86.58522021273771L210.12942857142858,46.37490052978197L210.44185714285715,38.72127050161362L210.67714285714285,78.28893414636454L210.75042857142856,60.51788666844368L210.978,73.23257390658063L211.42542857142857,75.16357018550238L211.73014285714285,44.802774876356125L212.16985714285713,59.56506482263407L212.3627142857143,80.943374350667L212.50542857142858,52.46688191095987L212.72142857142856,53.253209978342056L212.78314285714285,51.87324013809362L212.89885714285714,60.28881819546223L213.18042857142856,37.274504219492286L213.62014285714287,59.081232686837524L213.95957142857142,79.46375690648955L214.22185714285715,65.70023622612158L214.57285714285715,61.44984291493893L214.58057142857143,80.10060527920723L214.6037142857143,65.88310861587524L215.30571428571426,42.818100516994804L215.92285714285714,58.08925468722978L216.0617142857143,81.9766635845105L216.50528571428572,66.39829440911612L216.5207142857143,76.59460438042879L216.87942857142858,87.12402347723642L217.09157142857143,67.33767739435038L217.32299999999998,67.76236086090407L217.68942857142858,65.0136386503776L218.4762857142857,55.90524091323218L218.8967142857143,77.7907955919703L219.0664285714286,46.62057969967523L219.08185714285716,92.50643080969651L219.11271428571428,77.49643923342228L219.6835714285714,35.99338073531786L219.86485714285715,74.07813905676207L220.11942857142859,64.38499616086483L220.12714285714284,62.82416533927122L220.77514285714284,68.02921507755917L220.9872857142857,89.54602444171904L221.09528571428572,67.57934479912123L221.22257142857143,63.162689795096725L221.31514285714283,62.94928157329559L221.3537142857143,74.02635081609091L221.82814285714284,87.18183489143848L221.8975714285714,74.50708847741288L222.18685714285715,79.68865889062485L222.33342857142858,70.27783705790839L222.49157142857143,46.34927165011564L222.88114285714286,18.283427024881036L222.95442857142856,45.73678673803806L223.35557142857144,49.428903698921204L223.48285714285714,73.1944345086813L223.72971428571427,28.439094389478356L223.76828571428572,71.02910915017128L224.07299999999998,68.53588001430035L224.13085714285714,64.34977441032729L224.27357142857142,69.31068116426468L225.26485714285712,72.77293393015862L225.29571428571427,59.67270832757154L225.52328571428572,44.23997838298479L225.5772857142857,58.15890246629715L226.21757142857143,63.27346092959246L226.44128571428573,78.50030885636806L226.4682857142857,28.7779061893622L226.4837142857143,73.27650439242524L226.49914285714286,83.18369098256034L226.89642857142854,70.94752554098767L227.043,51.41635203361511L227.1702857142857,81.66432059307894L227.21271428571427,70.46952317406735L227.664,72.86553607881069L227.853,86.43031966189542L227.91085714285714,89.87239203353722L227.99185714285713,53.72271911799908L228.0497142857143,-2.5276763836542955L228.28114285714287,56.985765089591354L228.50485714285713,25.906830668449402L228.99471428571428,89.68483372529347L229.37271428571427,62.44802091519037L229.84714285714287,60.66650985678038L229.986,27.466821561257035L230.07085714285714,55.21475314100584L230.24057142857143,47.44578762849173L230.2907142857143,53.80354016025862L230.3485714285714,39.677662044763565L230.68800000000002,71.02138401567936L230.904,66.70305593808493L231.18942857142855,87.13421313961345L231.363,68.8387406518062L232.17685714285716,79.14907648166022L232.5857142857143,74.45112269620103L232.5972857142857,42.201029151678085L232.69757142857142,58.66775563855967L232.81714285714287,45.42543839911619L233.50757142857142,88.10198792815208L233.52685714285715,66.020503282547L233.5577142857143,77.87217474480471L234.18257142857144,26.267602185408265L234.387,28.662415981292725L234.49885714285713,8.070965001980454L234.78814285714287,68.61434704562029L235.14685714285716,60.87937654554844L235.15842857142857,81.56125248968601L235.64057142857143,71.41431043793759L236.46214285714285,85.89975543568531L236.58942857142856,36.760909870266914L236.7514285714286,46.476487706104905L236.87485714285714,24.597403794527054L236.95585714285713,43.79043965538344L237.19885714285715,79.64917671183747L237.24514285714287,42.550340061386436L237.29914285714284,69.46087369322777L237.32614285714286,65.06049783527851L237.33385714285714,87.7192014356454L237.6347142857143,58.925359586874634L238.32514285714285,65.32416916390261L238.45242857142858,62.51437528928122L238.5912857142857,47.74934452275434L238.71471428571428,30.356684962908417L239.14285714285714,29.789622515439987L239.28557142857142,77.41909947494668L240.06085714285715,37.96469359596571L240.15342857142858,70.1663144081831L240.3,70.37722494701546L240.32314285714284,57.26605816682181L240.408,54.432724182804435L240.68185714285715,92.11913522581258L240.9557142857143,22.686145842075348L241.01357142857145,62.000924612085015L241.1447142857143,80.27842151870331L241.36457142857142,60.285126929481834L241.79271428571428,78.76830692340931L241.9392857142857,87.5778944691022L242.07814285714286,76.98570727308592L242.50242857142857,51.162196214000375L243.351,30.918696785966546L244.14171428571427,76.83640993138155L244.33842857142858,48.855121821165085L244.701,48.448386306564004L245.14842857142858,36.1044060587883L245.36057142857143,72.98854696502289L245.4762857142857,60.61339541276297L245.49171428571427,57.1867291033268L245.65371428571427,56.97564173738161L245.77714285714285,54.30055696765581L245.88128571428572,61.40310529867807L245.94685714285714,49.12871757149696L246.00471428571427,75.4090283215046L246.04328571428573,55.3406982521216L246.3672857142857,43.058242787917465L246.915,57.095563674966485L246.97671428571428,54.023258899648994L246.98828571428572,52.78907196223736L246.99985714285714,54.04061006009579L247.08471428571428,69.84324022134146L247.52828571428572,49.44915040334067L247.87928571428571,82.44787468512854L248.06057142857145,19.78668956955275L248.2457142857143,88.23028705020744L248.5272857142857,48.55786439279714L249.0827142857143,45.26861485342184L249.26785714285717,39.40996789932251L249.32957142857143,62.12637239694595L249.44528571428572,66.97266202668351L249.6342857142857,55.66026905179024L249.68442857142855,32.78549377123514L249.70371428571428,75.2260951474309L249.7577142857143,60.18344028790793L250.01614285714285,70.54531016945839L250.18585714285715,47.7595341851314L250.29000000000002,58.20765149096647L250.5792857142857,41.21448858579001" style="fill: none;" fill="none"></path></g></g></g></g></g></g><g transform="translate(60, 178)" clip-path="url(#clip_1)"><clipPath id="clip_1"><rect width="270" height="22"></rect></clipPath><g><g><line x1="0" y1="0" x2="0" y2="5" style="visibility: inherit;" fill="rgb(0, 0, 0)" stroke="rgb(204, 204, 204)" stroke-width="1px"></line><line x1="19.285714285714285" y1="0" x2="19.285714285714285" y2="5" style="visibility: inherit;" fill="rgb(0, 0, 0)" stroke="rgb(204, 204, 204)" stroke-width="1px"></line><line x1="38.57142857142857" y1="0" x2="38.57142857142857" y2="5" style="visibility: inherit;" fill="rgb(0, 0, 0)" stroke="rgb(204, 204, 204)" stroke-width="1px"></line><line x1="57.857142857142854" y1="0" x2="57.857142857142854" y2="5" style="visibility: inherit;" fill="rgb(0, 0, 0)" stroke="rgb(204, 204, 204)" stroke-width="1px"></line><line x1="77.14285714285714" y1="0" x2="77.14285714285714" y2="5" style="visibility: inherit;" fill="rgb(0, 0, 0)" stroke="rgb(204, 204, 204)" stroke-width="1px"></line><line x1="96.42857142857143" y1="0" x2="96.42857142857143" y2="5" style="visibility: inherit;" fill="rgb(0, 0, 0)" stroke="rgb(204, 204, 204)" stroke-width="1px"></line><line x1="115.71428571428571" y1="0" x2="115.71428571428571" y2="5" style="visibility: inherit;" fill="rgb(0, 0, 0)" stroke="rgb(204, 204, 204)" stroke-width="1px"></line><line x1="135" y1="0" x2="135" y2="5" style="visibility: inherit;" fill="rgb(0, 0, 0)" stroke="rgb(204, 204, 204)" stroke-width="1px"></line><line x1="154.28571428571428" y1="0" x2="154.28571428571428" y2="5" style="visibility: inherit;" fill="rgb(0, 0, 0)" stroke="rgb(204, 204, 204)" stroke-width="1px"></line><line x1="173.57142857142858" y1="0" x2="173.57142857142858" y2="5" style="visibility: inherit;" fill="rgb(0, 0, 0)" stroke="rgb(204, 204, 204)" stroke-width="1px"></line><line x1="192.85714285714286" y1="0" x2="192.85714285714286" y2="5" style="visibility: inherit;" fill="rgb(0, 0, 0)" stroke="rgb(204, 204, 204)" stroke-width="1px"></line><line x1="212.14285714285714" y1="0" x2="212.14285714285714" y2="5" style="visibility: inherit;" fill="rgb(0, 0, 0)" stroke="rgb(204, 204, 204)" stroke-width="1px"></line><line x1="231.42857142857142" y1="0" x2="231.42857142857142" y2="5" style="visibility: inherit;" fill="rgb(0, 0, 0)" stroke="rgb(204, 204, 204)" stroke-width="1px"></line><line x1="250.71428571428572" y1="0" x2="250.71428571428572" y2="5" style="visibility: inherit;" fill="rgb(0, 0, 0)" stroke="rgb(204, 204, 204)" stroke-width="1px"></line><line x1="270" y1="0" x2="270" y2="5" style="visibility: inherit;" fill="rgb(0, 0, 0)" stroke="rgb(204, 204, 204)" stroke-width="1px"></line></g><g transform="translate(0, 8)"><text x="0" y="0" dx="0em" dy="0.95em" style="text-anchor: middle; visibility: hidden; font-family: &quot;Helvetica Neue&quot;, sans-serif; font-size: 12px; font-weight: 200;" fill="rgb(50, 49, 63)" stroke="none" stroke-width="1px">-50k</text><text x="19.285714285714285" y="0" dx="0em" dy="0.95em" style="text-anchor: middle; visibility: inherit; font-family: &quot;Helvetica Neue&quot;, sans-serif; font-size: 12px; font-weight: 200;" fill="rgb(50, 49, 63)" stroke="none" stroke-width="1px">0</text><text x="38.57142857142857" y="0" dx="0em" dy="0.95em" style="text-anchor: middle; visibility: hidden; font-family: &quot;Helvetica Neue&quot;, sans-serif; font-size: 12px; font-weight: 200;" fill="rgb(50, 49, 63)" stroke="none" stroke-width="1px">50k</text><text x="57.857142857142854" y="0" dx="0em" dy="0.95em" style="text-anchor: middle; visibility: inherit; font-family: &quot;Helvetica Neue&quot;, sans-serif; font-size: 12px; font-weight: 200;" fill="rgb(50, 49, 63)" stroke="none" stroke-width="1px">100k</text><text x="77.14285714285714" y="0" dx="0em" dy="0.95em" style="text-anchor: middle; visibility: hidden; font-family: &quot;Helvetica Neue&quot;, sans-serif; font-size: 12px; font-weight: 200;" fill="rgb(50, 49, 63)" stroke="none" stroke-width="1px">150k</text><text x="96.42857142857143" y="0" dx="0em" dy="0.95em" style="text-anchor: middle; visibility: inherit; font-family: &quot;Helvetica Neue&quot;, sans-serif; font-size: 12px; font-weight: 200;" fill="rgb(50, 49, 63)" stroke="none" stroke-width="1px">200k</text><text x="115.71428571428571" y="0" dx="0em" dy="0.95em" style="text-anchor: middle; visibility: hidden; font-family: &quot;Helvetica Neue&quot;, sans-serif; font-size: 12px; font-weight: 200;" fill="rgb(50, 49, 63)" stroke="none" stroke-width="1px">250k</text><text x="135" y="0" dx="0em" dy="0.95em" style="text-anchor: middle; visibility: inherit; font-family: &quot;Helvetica Neue&quot;, sans-serif; font-size: 12px; font-weight: 200;" fill="rgb(50, 49, 63)" stroke="none" stroke-width="1px">300k</text><text x="154.28571428571428" y="0" dx="0em" dy="0.95em" style="text-anchor: middle; visibility: hidden; font-family: &quot;Helvetica Neue&quot;, sans-serif; font-size: 12px; font-weight: 200;" fill="rgb(50, 49, 63)" stroke="none" stroke-width="1px">350k</text><text x="173.57142857142858" y="0" dx="0em" dy="0.95em" style="text-anchor: middle; visibility: inherit; font-family: &quot;Helvetica Neue&quot;, sans-serif; font-size: 12px; font-weight: 200;" fill="rgb(50, 49, 63)" stroke="none" stroke-width="1px">400k</text><text x="192.85714285714286" y="0" dx="0em" dy="0.95em" style="text-anchor: middle; visibility: hidden; font-family: &quot;Helvetica Neue&quot;, sans-serif; font-size: 12px; font-weight: 200;" fill="rgb(50, 49, 63)" stroke="none" stroke-width="1px">450k</text><text x="212.14285714285714" y="0" dx="0em" dy="0.95em" style="text-anchor: middle; visibility: inherit; font-family: &quot;Helvetica Neue&quot;, sans-serif; font-size: 12px; font-weight: 200;" fill="rgb(50, 49, 63)" stroke="none" stroke-width="1px">500k</text><text x="231.42857142857142" y="0" dx="0em" dy="0.95em" style="text-anchor: middle; visibility: hidden; font-family: &quot;Helvetica Neue&quot;, sans-serif; font-size: 12px; font-weight: 200;" fill="rgb(50, 49, 63)" stroke="none" stroke-width="1px">550k</text><text x="250.71428571428572" y="0" dx="0em" dy="0.95em" style="text-anchor: middle; visibility: inherit; font-family: &quot;Helvetica Neue&quot;, sans-serif; font-size: 12px; font-weight: 200;" fill="rgb(50, 49, 63)" stroke="none" stroke-width="1px">600k</text><text x="270" y="0" dx="0em" dy="0.95em" style="text-anchor: middle; visibility: hidden; font-family: &quot;Helvetica Neue&quot;, sans-serif; font-size: 12px; font-weight: 200;" fill="rgb(50, 49, 63)" stroke="none" stroke-width="1px">650k</text></g><line x1="0" y1="0" x2="270" y2="0" fill="rgb(0, 0, 0)" stroke="rgb(204, 204, 204)" stroke-width="1px"></line></g></g></g></g></svg>