<svg viewBox="0 0 330 200" xmlns="http://www.w3.org/2000/svg"><g><g><g><g><g><line x1="50" y1="178" x2="45" y2="178" style="visibility: inherit;" fill="rgb(0, 0, 0)" stroke="rgb(204, 204, 204)" stroke-width="1px"></line><line x1="50" y1="160.2" x2="45" y2="160.2" style="visibility: inherit;" fill="rgb(0, 0, 0)" stroke="rgb(204, 204, 204)" stroke-width="1px"></line><line x1="50" y1="142.4" x2="45" y2="142.4" style="visibility: inherit;" fill="rgb(0, 0, 0)" stroke="rgb(204, 204, 204)" stroke-width="1px"></line><line x1="50" y1="124.6" x2="45" y2="124.6" style="visibility: inherit;" fill="rgb(0, 0, 0)" stroke="rgb(204, 204, 204)" stroke-width="1px"></line><line x1="50" y1="106.8" x2="45" y2="106.8" style="visibility: inherit;" fill="rgb(0, 0, 0)" stroke="rgb(204, 204, 204)" stroke-width="1px"></line><line x1="50" y1="89" x2="45" y2="89" style="visibility: inherit;" fill="rgb(0, 0, 0)" stroke="rgb(204, 204, 204)" stroke-width="1px"></line><line x1="50" y1="71.2" x2="45" y2="71.2" style="visibility: inherit;" fill="rgb(0, 0, 0)" stroke="rgb(204, 204, 204)" stroke-width="1px"></line><line x1="50" y1="53.400000000000006" x2="45" y2="53.400000000000006" style="visibility: inherit;" fill="rgb(0, 0, 0)" stroke="rgb(204, 204, 204)" stroke-width="1px"></line><line x1="50" y1="35.60000000000002" x2="45" y2="35.60000000000002" style="visibility: inherit;" fill="rgb(0, 0, 0)" stroke="rgb(204, 204, 204)" stroke-width="1px"></line><line x1="50" y1="17.799999999999983" x2="45" y2="17.799999999999983" style="visibility: inherit;" fill="rgb(0, 0, 0)" stroke="rgb(204, 204, 204)" stroke-width="1px"></line><line x1="50" y1="0" x2="45" y2="0" style="visibility: inherit;" fill="rgb(0, 0, 0)" stroke="rgb(204, 204, 204)" stroke-width="1px"></line></g><g transform="translate(40, 0)"><text x="0" y="178" dx="0em" dy="0.3em" style="text-anchor: end; visibility: hidden; font-family: &quot;Helvetica Neue&quot;, sans-serif; font-size: 12px; font-weight: 200;" fill="rgb(50, 49, 63)" stroke="none" stroke-width="1px">-0.2</text><text x="0" y="160.2" dx="0em" dy="0.3em" style="text-anchor: end; visibility: inherit; font-family: &quot;Helvetica Neue&quot;, sans-serif; font-size: 12px; font-weight: 200;" fill="rgb(50, 49, 63)" stroke="none" stroke-width="1px">0</text><text x="0" y="142.4" dx="0em" dy="0.3em" style="text-anchor: end; visibility: hidden; font-family: &quot;Helvetica Neue&quot;, sans-serif; font-size: 12px; font-weight: 200;" fill="rgb(50, 49, 63)" stroke="none" stroke-width="1px">0.2</text><text x="0" y="124.6" dx="0em" dy="0.3em" style="text-anchor: end; visibility: inherit; font-family: &quot;Helvetica Neue&quot;, sans-serif; font-size: 12px; font-weight: 200;" fill="rgb(50, 49, 63)" stroke="none" stroke-width="1px">0.4</text><text x="0" y="106.8" dx="0em" dy="0.3em" style="text-anchor: end; visibility: hidden; font-family: &quot;Helvetica Neue&quot;, sans-serif; font-size: 12px; font-weight: 200;" fill="rgb(50, 49, 63)" stroke="none" stroke-width="1px">0.6</text><text x="0" y="89" dx="0em" dy="0.3em" style="text-anchor: end; visibility: inherit; font-family: &quot;Helvetica Neue&quot;, sans-serif; font-size: 12px; font-weight: 200;" fill="rgb(50, 49, 63)" stroke="none" stroke-width="1px">0.8</text><text x="0" y="71.2" dx="0em" dy="0.3em" style="text-anchor: end; visibility: hidden; font-family: &quot;Helvetica Neue&quot;, sans-serif; font-size: 12px; font-weight: 200;" fill="rgb(50, 49, 63)" stroke="none" stroke-width="1px">1</text><text x="0" y="53.400000000000006" dx="0em" dy="0.3em" style="text-anchor: end; visibility: inherit; font-family: &quot;Helvetica Neue&quot;, sans-serif; font-size: 12px; font-weight: 200;" fill="rgb(50, 49, 63)" stroke="none" stroke-width="1px">1.2</text><text x="0" y="35.60000000000002" dx="0em" dy="0.3em" style="text-anchor: end; visibility: hidden; font-family: &quot;Helvetica Neue&quot;, sans-serif; font-size: 12px; font-weight: 200;" fill="rgb(50, 49, 63)" stroke="none" stroke-width="1px">1.4</text><text x="0" y="17.799999999999983" dx="0em" dy="0.3em" style="text-anchor: end; visibility: inherit; font-family: &quot;Helvetica Neue&quot;, sans-serif; font-size: 12px; font-weight: 200;" fill="rgb(50, 49, 63)" stroke="none" stroke-width="1px">1.6</text><text x="0" y="0" dx="0em" dy="0.3em" style="text-anchor: end; visibility: hidden; font-family: &quot;Helvetica Neue&quot;, sans-serif; font-size: 12px; font-weight: 200;" fill="rgb(50, 49, 63)" stroke="none" stroke-width="1px">1.8</text></g><line x1="50" y1="0" x2="50" y2="178" fill="rgb(0, 0, 0)" stroke="rgb(204, 204, 204)" stroke-width="1px"></line></g></g><g transform="translate(50, 0)" clip-path="url(#clip_0)"><clipPath id="clip_0"><rect width="280" height="178"></rect></clipPath><g><g><g><line x1="0" y1="0" x2="0" y2="178" fill="rgb(0, 0, 0)" stroke="rgb(60, 60, 60)" stroke-width="1px" opacity="0.25"></line><line x1="20" y1="0" x2="20" y2="178" fill="rgb(0, 0, 0)" stroke="rgb(60, 60, 60)" stroke-width="1px" opacity="0.25"></line><line x1="40" y1="0" x2="40" y2="178" fill="rgb(0, 0, 0)" stroke="rgb(60, 60, 60)" stroke-width="1px" opacity="0.25"></line><line x1="60" y1="0" x2="60" y2="178" fill="rgb(0, 0, 0)" stroke="rgb(60, 60, 60)" stroke-width="1px" opacity="0.25"></line><line x1="80" y1="0" x2="80" y2="178" fill="rgb(0, 0, 0)" stroke="rgb(60, 60, 60)" stroke-width="1px" opacity="0.25"></line><line x1="100" y1="0" x2="100" y2="178" fill="rgb(0, 0, 0)" stroke="rgb(60, 60, 60)" stroke-width="1px" opacity="0.25"></line><line x1="120" y1="0" x2="120" y2="178" fill="rgb(0, 0, 0)" stroke="rgb(60, 60, 60)" stroke-width="1px" opacity="0.25"></line><line x1="140" y1="0" x2="140" y2="178" fill="rgb(0, 0, 0)" stroke="rgb(60, 60, 60)" stroke-width="1px" opacity="0.25"></line><line x1="160" y1="0" x2="160" y2="178" fill="rgb(0, 0, 0)" stroke="rgb(60, 60, 60)" stroke-width="1px" opacity="0.25"></line><line x1="180" y1="0" x2="180" y2="178" fill="rgb(0, 0, 0)" stroke="rgb(60, 60, 60)" stroke-width="1px" opacity="0.25"></line><line x1="200" y1="0" x2="200" y2="178" fill="rgb(0, 0, 0)" stroke="rgb(60, 60, 60)" stroke-width="1px" opacity="0.25"></line><line x1="220" y1="0" x2="220" y2="178" fill="rgb(0, 0, 0)" stroke="rgb(60, 60, 60)" stroke-width="1px" opacity="0.25"></line><line x1="240" y1="0" x2="240" y2="178" fill="rgb(0, 0, 0)" stroke="rgb(60, 60, 60)" stroke-width="1px" opacity="0.25"></line><line x1="260" y1="0" x2="260" y2="178" fill="rgb(0, 0, 0)" stroke="rgb(60, 60, 60)" stroke-width="1px" opacity="0.25"></line><line x1="280" y1="0" x2="280" y2="178" fill="rgb(0, 0, 0)" stroke="rgb(60, 60, 60)" stroke-width="1px" opacity="0.25"></line></g><g><line x1="0" y1="178" x2="280" y2="178" fill="rgb(0, 0, 0)" stroke="rgb(60, 60, 60)" stroke-width="1px" opacity="0.25"></line><line x1="0" y1="160.2" x2="280" y2="160.2" fill="rgb(0, 0, 0)" stroke="rgb(60, 60, 60)" stroke-width="1px" opacity="0.25"></line><line x1="0" y1="142.4" x2="280" y2="142.4" fill="rgb(0, 0, 0)" stroke="rgb(60, 60, 60)" stroke-width="1px" opacity="0.25"></line><line x1="0" y1="124.6" x2="280" y2="124.6" fill="rgb(0, 0, 0)" stroke="rgb(60, 60, 60)" stroke-width="1px" opacity="0.25"></line><line x1="0" y1="106.8" x2="280" y2="106.8" fill="rgb(0, 0, 0)" stroke="rgb(60, 60, 60)" stroke-width="1px" opacity="0.25"></line><line x1="0" y1="89" x2="280" y2="89" fill="rgb(0, 0, 0)" stroke="rgb(60, 60, 60)" stroke-width="1px" opacity="0.25"></line><line x1="0" y1="71.2" x2="280" y2="71.2" fill="rgb(0, 0, 0)" stroke="rgb(60, 60, 60)" stroke-width="1px" opacity="0.25"></line><line x1="0" y1="53.400000000000006" x2="280" y2="53.400000000000006" fill="rgb(0, 0, 0)" stroke="rgb(60, 60, 60)" stroke-width="1px" opacity="0.25"></line><line x1="0" y1="35.60000000000002" x2="280" y2="35.60000000000002" fill="rgb(0, 0, 0)" stroke="rgb(60, 60, 60)" stroke-width="1px" opacity="0.25"></line><line x1="0" y1="17.799999999999983" x2="280" y2="17.799999999999983" fill="rgb(0, 0, 0)" stroke="rgb(60, 60, 60)" stroke-width="1px" opacity="0.25"></line><line x1="0" y1="0" x2="280" y2="0" fill="rgb(0, 0, 0)" stroke="rgb(60, 60, 60)" stroke-width="1px" opacity="0.25"></line></g></g></g><g><g><line x1="0" y1="160.2" x2="280" y2="160.2" fill="rgb(0, 0, 0)" stroke="rgb(153, 153, 153)" stroke-width="1.5px"></line></g></g><g><g><line x1="20" y1="0" x2="20" y2="178" fill="rgb(0, 0, 0)" stroke="rgb(153, 153, 153)" stroke-width="1.5px"></line></g></g><g><g><g><g><g><path stroke="rgb(255, 112, 67)" stroke-width="2px" d="M20.172,29.82523531913759L20.183999999999997,64.55794726759196L20.288,71.8547623982235L20.38,86.162065993863L20.671999999999997,75.424103490484L20.92,77.03473923661527L20.94,82.40389044556242L21.024,80.95221713387416L21.096,87.19265838048942L21.236,96.77946985090085L21.244,98.0088925173265L21.276,102.12530020053157L21.9,112.1452630586876L22.148,111.53093518848658L22.32,118.81614053614848L22.348,112.0711545376962L22.54,123.55047208845603L22.592000000000002,116.03732485512143L22.86,122.95606350001702L22.892000000000003,122.84916474925495L23.212,118.46301684669378L23.236,118.5047643594771L23.348,117.81690786811464L23.888,114.73809170586449L24.06,119.45333082522419L24.267999999999997,116.54414698642536L24.42,119.55523641708979L24.724,124.14524688424285L25.048000000000002,111.95234106287852L25.267999999999997,121.41278365846738L25.28,116.14703278071933L25.336,126.9066502380023L25.352,114.57542478612359L25.543999999999997,116.24850032576057L25.572,123.76386623575308L25.748,125.56694121905682L25.868,122.40009535110255L26.212,116.57653299527378L26.34,116.57076873990808L26.768,117.23750121332671L26.939999999999998,111.76979324222636L26.952,114.14597637649105L27.38,117.82383523091012L27.512,115.95633715659413L27.672,122.43099851121274L27.792,128.31312864763328L28.148,126.14161873179171L28.388,105.34587574624514L28.752,107.19914990322401L28.8,113.1921612528845L28.928,112.79544562028956L29.052,118.58457439380848L29.232000000000003,118.41300085805602L29.56,124.39505008711696L29.747999999999998,125.4682384649181L29.816,129.4746573209339L29.824,117.99141749856054L29.844,116.1185772533246L29.944,122.2155909296892L29.948,125.50522918921857L29.996000000000002,128.73076561821796L30.016000000000002,132.55998118241615L30.132,122.04228027057628L30.744,122.77588746662128L30.964,120.79195577213281L31.872,129.5551162487812L32.156,123.02978439370077L32.168,123.39910693192054L32.647999999999996,127.11039130701762L32.924,132.10234683522071L32.988,125.44268340211204L32.992000000000004,129.39801018918212L33.224000000000004,131.7612905042449L33.924,128.8028852592158L34.476,125.84599865259216L34.484,119.46735020626477L34.684000000000005,120.22690543501909L34.967999999999996,119.25498491388163L35.26,128.29380337990284L35.288000000000004,125.5138843500433L35.716,125.11188420795307L35.827999999999996,118.14048541750256L36.147999999999996,121.75273414829816L36.396,126.96947472798493L36.788,127.9420387405614L36.931999999999995,129.36471799245237L37.272,128.54318006057L37.604,126.85338318358932L37.972,123.6320533800785L38.040000000000006,119.92089744381096L38.124,116.73017287714472L38.66,119.56842972793098L38.676,118.61762547944733L38.708,126.35039386305064L39.156,131.88133621783763L39.211999999999996,133.62448823077506L39.364,133.12578965677633L39.58,132.66838203819879L39.888000000000005,133.5271856531637L40.204,136.63727485091312L40.212,125.19342639297739L40.428,122.93973955542143L40.540000000000006,126.90950190919814L41.38399999999999,132.70921716510162L41.44,127.61526528727356L41.684,128.9184789212426L42.2,128.6973729867864L42.72,127.14390428180268L42.896,124.85838480064135L43.236000000000004,122.55166263621366L43.46,128.5587749006827L43.488,134.0522953154134L43.632,129.86514391669556L43.964,130.60574766975L44.528,137.13378025163027L44.804,132.22328635375985L44.879999999999995,132.25356112194828L45.16,125.34666768951877L45.251999999999995,130.25994241859712L45.508,123.71088446036694L46.083999999999996,121.99944733176063L46.300000000000004,124.37113072510618L46.416,130.27208651802573L46.788,135.6036811679699L46.800000000000004,131.9686298900901L46.848,137.27504508579128L47.419999999999995,137.78288056066248L47.868,133.4964913154281L47.972,125.58209214834193L48.46,131.57917175309552L48.624,128.06234864244874L49.248,132.3471457758547L49.532000000000004,134.9552224683166L49.804,125.71897720619442L49.844,132.2861275799537L49.856,126.8294639472642L49.916000000000004,128.91075869586936L50.048,127.31317002169413L50.775999999999996,130.5915617191322L51.156,126.94764787694974L51.196,122.01302535260416L51.336,123.82855197027146L51.967999999999996,130.79156633040202L52.268,130.68073888195093L52.724,132.92756012900196L52.888000000000005,128.09388912095739L53.455999999999996,134.98380025132963L53.476,133.56312776031774L53.512,134.14922414554763L53.884,133.52527586897378L53.996,138.84662243771652L54.036,137.54038631825506L54.408,137.31908748572386L54.544,132.4894158054907L54.784,126.76632329759114L55.516,132.40911648712822L55.632000000000005,135.8646355738775L55.716,134.66046833697177L55.744,133.07155828775893L55.976,129.5493765348311L56.224000000000004,125.68601060832238L57.044,127.48974511459289L57.268,130.17246499201545L57.396,132.57342441881232L57.744,129.92897441866717L57.876,132.0648405056162L58.22,136.73663031941433L58.272000000000006,133.5496054809438L58.632,128.0926007509915L58.724000000000004,129.20712731842326L58.796,128.21707903959827L59.376,117.58589754354045L59.632,123.59942156464508L60.236,127.77329750770718L60.339999999999996,127.34635613390441L61.108000000000004,126.96228907602212L61.136,132.74675393639313L61.6,132.50485283934063L61.92,130.5701917386233L62.092,128.4938723478424L62.432,128.18317926607773L62.556,125.6842456667557L62.62,126.83578457170336L62.848,128.18013679107196L63.032,132.40848696780301L63.036,125.96378650279104L63.124,128.44706656224287L63.368,125.71475962690565L63.403999999999996,131.13341588194402L63.612,132.20595142373583L63.623999999999995,137.40735143380846L63.775999999999996,138.10101014827183L63.868,133.06975404771856L63.892,128.11111394854004L63.9,132.00024276430378L64.084,133.84705647382123L64.41199999999999,132.16563934894194L64.488,133.57131308085792L64.524,132.72286804060383L64.79599999999999,135.6070524832025L64.804,132.42487414243308L65.044,132.1831331036239L65.67999999999999,137.09772506128246L65.892,140.1832181666523L65.97200000000001,138.47741385306296L66.096,130.1629702854477L66.13199999999999,134.50710105826394L66.268,133.0143746300336L66.596,131.9752467539189L66.744,129.68280571378932L67.04,130.12118516253034L67.496,135.5331527631676L67.88,135.71764811999773L67.89999999999999,130.3706599588822L68.044,132.15328536007587L68.16799999999999,136.79291194900145L68.556,133.88458918943564L68.66,133.78410041460134L68.74,134.4250461872145L69.164,139.28769574139858L69.624,136.81528262123075L69.836,135.9504407085455L70.688,140.37214645251493L71.512,142.96392423692262L71.76,133.50197781075784L72.072,126.67721649259178L72.13999999999999,129.8907278957954L72.248,136.6900141097898L72.332,136.4604556881067L72.38,129.73695502297144L72.44,134.45634204397237L72.96,132.30476836591743L73.61200000000001,134.88409558552374L73.628,136.51001695643586L74.02,131.68176230580045L74.18799999999999,137.39236788505573L74.39200000000001,136.80093029352582L74.484,134.9993432760987L74.72,136.825040488288L75.244,135.5947787623675L75.54,135.18649518138596L76.324,137.29944721130386L76.888,136.47667157690438L77.152,131.17319661879964L77.17999999999999,131.4448570806052L77.284,131.2854374097744L77.356,129.59888374370095L77.592,132.93998804308032L77.792,136.34035710344943L78.53200000000001,139.9887878873958L78.556,137.82342689389074L78.676,136.33450062247564L78.712,137.37899425013333L78.75200000000001,134.54209182967824L79.12,138.46493365234187L79.156,138.6284425655964L79.24,138.10053112983482L79.49600000000001,133.82116505908834L79.57199999999999,128.23180064086836L80.364,131.1897460420413L80.724,133.29791868206757L81.068,128.14237373636306L81.3,122.90469478586994L81.896,119.44259972464849L81.904,122.6641637557257L82.032,125.81741614064626L82.156,128.02894013953835L82.964,134.66389112849612L83.06,137.38386620270956L83.096,137.13271888487188L83.316,135.87932105775266L83.976,137.1067798418736L84.384,136.19777945059153L84.468,137.0033804427243L85,138.34648896042447L85.288,127.38258052816356L85.37599999999999,131.0408489808462L85.444,137.66044614821803L85.628,134.0217149311908L86.024,132.74772545901584L86.792,138.05879290704516L87.236,140.7141902661597L87.24,138.3617726741001L87.432,136.70420424090418L87.6,135.65641028133984L88.268,140.64769564418765L88.392,138.74904281585677L88.52799999999999,131.84835589819707L88.96000000000001,137.54981760796045L89.092,137.06069386849484L89.172,134.90336283236553L89.268,137.12666606897L89.27199999999999,137.42406254287891L89.284,138.46574422166543L89.36,132.98932344463944L89.62400000000001,133.60084416596578L89.77999999999999,132.0677761490851L89.82,127.02917849634345L90.176,137.97996462830457L90.232,137.18552622943255L90.348,139.9830746445008L90.38,141.18714436727453L90.496,137.92614666007572L90.892,136.11716507782108L91.816,137.24516919678192L91.928,136.14888341561402L92.07600000000001,136.1469523914781L92.21600000000001,133.05898864794534L92.264,128.31808963137127L92.52,128.5173927278355L93.06,135.20898269480676L93.27600000000001,132.75920780698186L93.808,135.3035980761035L93.812,132.1044763672342L94.372,136.54398818182887L94.856,139.06179698805775L94.88399999999999,134.4062372165964L95.384,134.12294064748562L95.836,135.8948506509559L96.024,128.7730255529461L96.196,126.07990656406749L96.46799999999999,128.48942517585198L96.68,131.20289443818712L97.088,132.73472333960524L98.104,134.6898411858844L98.128,130.88545323781773L98.56400000000001,134.50981876356963L98.61999999999999,135.48728545846677L98.928,133.9429630466827L98.952,135.20098617723752L99.29599999999999,136.8252133479784L99.388,137.45507364458263L99.668,135.4766447650577L99.756,136.25664088649663L99.888,135.67686895324653L99.984,137.34405295010725L100.14399999999999,132.98000873778057L100.21600000000001,136.83198404582615L100.24,139.64892430348561L100.25200000000001,139.558313530942L100.556,143.02395598903905L100.56,143.16430167326695L100.74799999999999,141.62760160427908L100.87199999999999,141.0632702759601L100.98,136.96348982642274L100.99199999999999,140.0966783427607L101.01199999999999,141.3973567571289L101.296,136.04328397310059L101.34,138.87157771704364L101.536,139.65354367803195L101.764,138.5138943046967L101.944,133.9483775097513L102.108,134.78391327133082L102.16000000000001,134.0974392680544L102.164,131.2386439125668L102.252,136.1487666941244L102.31599999999999,135.76885711291783L102.75999999999999,131.33829921447844L102.84400000000001,128.53729364135035L103.11999999999999,129.8706603387485L103.132,132.73275362369358L103.136,129.29946548770033L103.328,137.14833708304263L103.424,135.70907099543868L103.952,132.16756515681064L104.324,135.56666568386146L104.58,141.0964263753151L104.84,139.14720413422916L104.932,141.223852140524L105.268,133.33347384382367L105.28,128.81165583758997L105.3,131.49820832389264L105.568,136.5161196516613L105.64,135.6935425166285L105.94,138.08389808797813L106.096,139.87981800951945L106.728,138.62664768408766L106.9,138.9977458364429L107.184,135.17521079341543L107.288,139.3644698545931L107.372,141.38017279896727L107.396,143.78178718563075L108.028,134.4620092372665L108.984,129.80892362240368L109.036,135.57494839336522L109.17200000000001,134.30743821326524L109.324,137.60829086699266L109.436,134.27768589495525L109.892,131.3794737830097L110.032,134.05157099093998L110.18,135.649884699142L110.544,133.52892957112553L111.06400000000001,127.94488214720107L111.364,131.2633329991628L111.724,137.04514199162298L111.73599999999999,135.7256757883118L112.33999999999999,135.36444135593692L112.556,137.00824091963364L112.596,136.38743699152704L112.732,134.93352704858444L112.772,133.32359876880443L112.876,132.3669581142032L113.056,129.8385043506005L113.14800000000001,127.0206748750316L113.448,132.711862670571L113.524,135.2611496837082L113.712,138.6417283040966L114.164,135.3347334207705L114.36,131.02321406731673L114.684,130.27013400393525L114.728,136.98408252595544L114.80799999999999,134.09494156479047L115.10000000000001,131.4315645792437L115.328,130.84992577900604L115.756,135.75158737343617L116.32,133.23742192412658L116.476,137.64821220174576L116.592,138.3252123328158L116.94,140.44777841640166L117.132,137.85459396882447L117.14,141.52873860265964L117.292,139.4581659273276L117.384,141.90209576582726L117.668,143.91523139414676L118.232,140.50598886929447L118.488,140.798765308395L118.88,131.9993113009542L118.91199999999999,134.2113318925148L119.608,130.69425444394622L119.74000000000001,128.80505954855843L120.036,133.04379343649248L120.192,136.26653527295886L120.536,133.98246966526688L120.928,134.21985239699947L120.97999999999999,135.57130735943L121.01599999999999,136.8429887868719L121.33200000000001,139.29849464045506L121.56800000000001,134.08973532406412L122.024,136.2869438248153L122.08399999999999,134.46281471236202L122.4,128.4580555628756L122.74799999999999,126.51036444610472L123.252,128.78391162220308L123.392,135.1273722437839L123.688,130.70172248290896L124.184,128.73357438330007L124.268,126.76372396996112L124.368,133.34897771984632L124.62400000000001,131.04772890991148L124.68,137.47438593617784L125.172,139.2137261909944L125.216,140.3969058193387L125.616,132.48617727027067L125.884,131.3563083366497L126.684,131.79256329750677L127.19200000000001,135.7468679643611L127.196,137.27258558135867L127.31200000000001,131.13957426465535L127.32000000000001,132.99288941810715L127.71600000000001,138.55491193050258L128.572,139.15234528609582L128.596,137.7336944069175L128.62,136.99969887767483L128.636,139.5168681730881L128.64,137.59686044872134L129.1,136.1798814464827L130.024,133.63231608922598L130.416,137.04979337129186L130.45600000000002,140.54179912014718L130.484,141.7551563859219L130.55599999999998,143.54785421849698L130.96,140.59704635239487L131.304,140.89654437599685L131.668,140.8534129124767L131.676,143.2626131321124L131.804,138.66531158835483L131.876,135.65751425117725L133.00799999999998,134.754034522119L133.112,138.7143216377156L133.28799999999998,142.99760667834622L133.756,136.6936795065042L133.808,135.25996142800074L134.17600000000002,138.11763556584967L134.292,128.86172151914388L134.448,135.30738830060454L135.88400000000001,139.2399134414833L135.988,132.42445670708665L136.076,131.16825432744412L136.152,131.17809288481945L136.252,134.46423851597353L136.316,139.50557366578605L136.364,138.73378559570804L136.808,142.38113096011458L137.056,136.84653144748674L137.888,140.39558199329178L137.916,138.69247403194308L137.952,141.29438775330664L138.15200000000002,139.94296320885348L138.164,134.92043252831655L138.248,131.04217118529056L138.37199999999999,130.60736068074448L138.448,130.50633280744876L138.992,127.04436841053203L139.316,128.74769579912683L139.32,130.40133530107414L139.456,133.0083869517283L140.00400000000002,136.16921505334597L140.024,138.07187929035794L140.128,136.05361481357556L140.312,136.07519026189414L140.372,134.4960835837684L140.7,137.5379877771951L140.872,134.51642998254403L140.976,140.01792531011165L141.14000000000001,135.78307993172206L141.312,131.17407953595279L141.84,133.3067683974216L141.884,130.33338762994464L142.29199999999997,121.87598668620501L142.45200000000003,129.1684549205632L142.828,131.73321950633112L142.884,132.9477281749176L142.956,135.43009487151664L144.212,134.09072898721433L144.424,136.63286586818538L145.62800000000001,135.80558421026137L145.776,137.3582593298582L146.78799999999998,138.69031680683065L146.892,139.9903352252231L147.23600000000002,141.44589463303006L147.496,133.95050892966697L147.524,139.70846104942387L147.556,140.9958866245903L147.748,139.4600452594374L147.78400000000002,133.58276467874137L148.02,130.93593863340908L148.072,135.9704234927457L148.7,131.47765841541062L148.832,132.31224021468978L149,133.9922238466407L149.74400000000003,135.2649549816409L150.12,134.02215727891678L150.172,137.32705644682738L150.448,135.59591838548L150.632,137.43334834354766L150.828,130.40702114926367L151.05200000000002,133.05204183594338L151.58,134.8437012167928L151.61200000000002,134.03326855970366L152.012,135.27100010915365L152.06,139.61293635370592L152.14000000000001,139.17479668499385L152.612,141.87221571946952L152.71999999999997,142.0442546006728L152.728,136.7649914668017L153.08800000000002,136.64264367377837L153.36800000000002,136.10097487661886L153.476,131.49501147683648L153.504,134.3637336410057L153.616,139.45864788871833L154.16,138.209804075848L154.52800000000002,137.42334605806528L154.916,137.1026435753909L154.952,134.82801174767062L155,137.13306700853852L155.07600000000002,140.98047615568845L155.144,135.3311689631999L155.35999999999999,139.18015741210345L155.408,140.79172933519578L155.50799999999998,136.06284290087638L155.656,139.21941915352593L156.072,134.75189582109124L156.148,134.93686270952028L156.17600000000002,130.31573923253896L156.35999999999999,137.60655660405087L156.56799999999998,140.267912183847L156.57999999999998,142.37474143066763L156.72,138.77248274301743L157.448,133.98932961115395L157.452,139.290165408189L157.536,143.21715571685726L157.756,140.7932438314205L158.104,142.3192687058595L158.108,141.7410540165989L158.26,142.47100338116218L158.4,140.0860027645524L158.43599999999998,129.3902604016361L159.136,128.72046782450064L159.516,132.86390492127052L160.32000000000002,137.09945909145898L160.464,140.0052274987902L160.712,135.6191061142567L161.02,134.95308944484492L161.336,132.76256171286641L161.42000000000002,133.07672835719907L161.452,135.069551337554L161.504,132.7269908289873L161.512,132.38458580856107L161.928,135.4345179193293L161.936,138.43792365628929L162.284,131.5694177832511L162.296,130.30038988389416L163.08800000000002,130.8812086975446L163.116,132.15280223344985L163.38,126.62382529530062L163.39999999999998,127.89361099692067L163.816,128.22256614620613L163.88400000000001,133.5228731730886L164.152,138.11324707146332L164.232,133.38023657963186L164.66,136.87472970584338L164.928,136.46167805254044L164.988,139.1769731179451L165.052,139.72253327462525L165.104,140.53222066577345L165.244,138.30238825807612L165.34799999999998,135.0173029513934L166.28,132.299230068432L166.52,134.69049266428155L166.64000000000001,131.90984604507923L166.71599999999998,135.07743735641384L167.072,135.80379822450962L167.228,133.99189316867643L167.24400000000003,134.78325033449443L167.28,135.69147107042855L167.404,139.13373237751713L167.632,136.22072019995923L168.216,129.6760672189097L168.68,131.07038838489655L168.812,130.01328153385998L169.248,129.5175112472432L169.82399999999998,138.25917921164375L169.96,138.41540062128746L171.05999999999997,137.83282227813748L171.232,137.24447061001985L171.508,141.86581282722787L172.772,139.34150205676457L172.992,123.39576916351737L173.052,129.5039002016474L173.464,129.4297415849739L173.76,134.3806533764108L173.824,132.24335054339792L173.868,130.94321999896658L174.00400000000002,136.27991722076592L174.324,135.50332339316282L174.56799999999998,136.74575572317644L174.572,139.4216080659974L174.804,136.65094125475576L174.88400000000001,138.68982564214522L175.05599999999998,137.46264176132473L175.364,129.30278406955117L175.928,132.33438257704566L176.02,126.06247637945646L176.02399999999997,122.10941397594354L176.568,118.44597966818179L176.952,124.94881033985712L177.188,131.46978687577783L177.23199999999997,132.62952795108163L178.368,136.30230655241016L178.81199999999998,137.46071593623162L178.924,136.76318810856822L179.12800000000001,134.01061824128914L179.516,133.292954766547L179.64,135.20302495467385L179.66000000000003,136.349242656873L179.728,141.55696445551297L180.084,141.81404830006824L180.89999999999998,141.28142394297163L181.188,139.09155408425832L181.60799999999998,137.52387748172106L181.95600000000002,136.02623534685506L182.00400000000002,139.51786004475434L182.132,139.7019100533228L182.244,139.48999837793713L182.592,138.60766768787983L182.632,126.83331895550896L182.656,128.63456687617784L182.672,128.9099208241015L182.79600000000002,132.23957108290847L182.804,134.29719316739948L182.85999999999999,131.06331097232766L182.88400000000001,135.51836812464873L183.176,136.06676099758434L184.16400000000002,140.842745923168L184.516,138.64953050086888L184.62,143.39631066840883L184.98000000000002,141.51885790182348L185.088,132.08930718513247L185.368,135.58749474532556L185.64000000000001,137.09415987877338L185.968,139.59894740312274L186.16,142.23461560326203L186.224,140.276497559055L186.44,141.82567546028156L187.09199999999998,140.01614949737942L187.124,141.2405257787404L187.38000000000002,140.07149114883526L187.488,134.90801889584412L188.02800000000002,134.10719983390538L188.056,138.08390755898697L188.12800000000001,135.6238859668192L188.54,135.46172993509867L188.636,132.39068949180185L188.67600000000002,133.8202067420324L188.732,130.16726928266527L188.98,136.13670173354532L189.35999999999999,140.3918894879078L189.804,140.42106211376517L189.876,141.4842250406285L189.916,139.87571575281262L190,134.6127638985946L190.436,135.90306713880506L190.716,129.88429443539027L191.10799999999998,132.06741905987766L191.72799999999998,137.4869651232988L191.85999999999999,137.75273797004405L191.928,137.54374525480856L192.084,139.9182896157109L193.11599999999999,139.19492117285748L193.9,139.3460761935712L194.076,138.65120379395492L194.216,139.79810220639234L194.33599999999998,142.95177157187655L194.43200000000002,144.03530849971887L194.56,142.6575723752887L194.848,135.30297853621906L194.956,138.0622588448111L194.97199999999998,138.22534377767943L195.03199999999998,136.11079844352187L195.136,140.29351179192412L195.224,134.4152579974529L195.90800000000002,133.6686783046363L195.924,139.6599707896017L195.976,140.35887252536435L196.296,137.52109793452632L196.31199999999998,132.6415576245082L196.456,130.8750422349985L196.804,134.89643444010113L196.832,134.89802837484177L197.008,138.51490892716106L197.22000000000003,140.89938195674335L197.376,136.26057255821655L197.61999999999998,140.33661008690137L198.008,144.21142996319733L198.16,139.59504253726365L198.344,135.1235415927241L198.348,135.97644237707078L198.584,132.33569481867562L198.92,132.24385087310083L199.01600000000002,131.841708918922L199.212,134.55354174286893L199.268,133.46891897386772L199.85999999999999,133.36686247746027L199.98,131.65981765365527L200.216,132.38388431415513L200.42,137.0312251457307L201.244,136.07910228304465L201.28,135.28631335098981L201.49200000000002,131.87302319049502L202.032,126.32996536874572L202.176,130.0515890501964L202.588,136.56880587715077L202.636,136.27656944500308L203.088,142.07492303375543L203.36,139.87318957045161L203.5,139.34146912094644L204.10000000000002,140.80640792844707L204.136,141.6557634580017L204.244,137.49886983560805L204.364,132.6250633402305L204.5,133.77593920729382L204.68,140.7577102834095L204.712,142.11013696397004L204.82399999999998,135.9333283579627L205.276,130.06701920964L205.33999999999997,132.87492971025512L205.58800000000002,133.50579632045392L205.656,137.53725799633003L206,140.17272734947764L206.036,138.5238534516559L206.788,132.48604006686602L206.996,134.52160497855422L208.148,134.26725412101314L208.232,133.0886056988881L208.79600000000002,134.56853815611873L208.968,136.15205945668623L209.18,137.41292873560192L209.208,136.32116260730507L209.28799999999998,135.15575548054744L209.392,130.52832872177345L209.752,128.94876694265116L209.96,127.06560242404406L210.2,129.69832827466647L210.228,130.7870595372791L210.34400000000002,132.71347366553994L210.55599999999998,133.2282810663131L210.572,129.98017354815883L210.62400000000002,133.04762651210834L210.68,131.54770716718323L210.77599999999998,132.498361989805L210.824,136.8541116314822L210.952,136.38122947679122L210.98,135.93234861174918L211.036,135.50541090416726L211.488,136.9573599949349L211.532,138.04148110359125L211.55599999999998,133.3918866003109L211.72,137.6537461855741L211.736,136.9832384144504L211.792,134.57450267286532L211.884,139.3769701803412L212.308,138.34735288409507L212.48000000000002,137.0442260801084L212.728,129.43474006529374L212.79199999999997,126.03295422003103L212.91199999999998,129.30080308440586L213.68800000000002,132.55502430631674L213.868,140.34791653355333L214.06,138.5173080670856L214.09199999999998,139.38760909962787L214.524,134.7300680776127L214.60399999999998,138.68030335186052L215.38,140.9991432576068L215.932,142.28413290552425L217.092,136.61686619265154L217.308,131.54418178166912L217.408,134.0473975334523L217.912,139.32667770826566L218.236,137.18184124018995L218.48,139.66207407347113L218.55599999999998,138.6448289229378L218.792,134.56874645673662L219.256,130.93577576710837L219.572,132.2961743583325L220.028,138.071102147701L220.228,140.29193207824386L220.376,136.85252865555378L220.6,136.12750745536383L220.664,134.6700481863111L220.784,130.39172850676118L221.076,135.287758239673L221.53199999999998,137.39343545828248L221.884,138.89605545278778L222.156,143.05055731878514L222.52,139.27034711328645L222.52800000000002,138.49321730308236L222.552,132.42790728910268L223.27999999999997,135.1929116183728L223.92,130.8651713141328L224.064,134.47861699989593L224.524,133.94796510655377L224.54,129.52476454328712L224.912,131.94726521582135L225.132,125.57771063811022L225.37199999999999,131.15808908800147L225.752,135.43770240223324L226.56799999999998,138.21085260674903L227.00400000000002,136.9398897359702L227.18,138.1748681396206L227.196,137.9917121297097L227.22799999999998,139.12697387015675L227.82,142.8996981744519L228.008,138.52468929556318L228.27200000000002,139.6247387806613L228.28,133.96258842706908L228.952,137.23623684978622L229.172,138.32375615677915L229.284,135.64601995135357L229.416,138.46219424238808L229.512,136.8624445118368L229.55200000000002,129.4913743971503L230.04399999999998,120.92780136577584L230.11599999999999,122.24279964156327L230.416,132.19820845715628L230.568,136.13155990476864L230.732,137.34983912965927L231.136,139.09326955474182L231.212,141.73235849497775L231.62800000000001,142.44551054095064L231.76000000000002,140.58902658376L232.016,133.91284097524226L232.056,135.80890478546465L232.37199999999999,139.87938129696278L232.432,141.55954429264682L232.57999999999998,138.0277679416884L233.60799999999998,136.05237345298224L233.64,135.1251193833357L233.876,134.3475944180492L233.932,131.76198367233297L234.596,135.88694472763075L234.828,135.75228313477714L234.85600000000002,135.35454373760152L234.872,135.4548299312778L234.88799999999998,132.99315914393588L235.29999999999998,125.3446651558943L235.452,130.9566570008318L235.584,133.2012909987283L235.628,135.4104908239074L236.09599999999998,134.2004202610986L236.292,132.68844011346914L236.352,132.0775672299887L236.43599999999998,133.4682013978496L236.49599999999998,138.44558226883024L236.736,131.15543346774345L236.968,135.01395198089938L237.476,137.38813855161106L237.868,136.6886435312619L238.36,134.4419019486064L238.504,127.20020402345384L238.592,134.64889784260583L238.768,135.04866712334152L238.82000000000002,139.28455124999522L238.88,134.6316832036104L239.23200000000003,135.7555427438215L239.456,138.57009656823848L239.75199999999998,134.19322407482372L239.932,134.28011370324077L240.776,140.93579482688298L241.2,141.80948518785112L241.212,137.0474189154641L241.316,130.40483513547997L241.44,131.3334942333342L242.156,135.64643231942898L242.17600000000002,134.60129716822294L242.20800000000003,138.03286514060966L242.85600000000002,137.71582881317897L243.06799999999998,128.93164806667784L243.184,132.45637698116195L243.484,134.68133695091183L243.85600000000002,138.9583231804691L243.868,135.00597084033026L244.368,136.89364981214723L245.22,134.04150736546825L245.352,135.60596697340196L245.52,134.16368281608692L245.648,139.66749089101478L245.732,139.70262764060215L245.98399999999998,137.41314464189836L246.032,141.3001740883483L246.088,140.79528525416217L246.11599999999999,138.7384708389292L246.12400000000002,139.3581375565916L246.436,140.93863401215015L247.15200000000002,137.3687841308161L247.284,135.17519258809352L247.428,131.17087758870284L247.55599999999998,136.3544157510481L248,141.32978371056805L248.148,143.2080294494205L248.952,143.75953726079305L249.048,143.82648928705598L249.20000000000002,144.9707831415161L249.224,145.3577992947474L249.31199999999998,137.859908658956L249.596,133.2463972131577L249.88,135.58942446352046L249.94,138.05949406648278L250.076,137.8721068121469L250.304,143.1601739464686L250.74800000000002,131.36463979592833L250.89999999999998,134.5966405898983L251.044,127.99200199309914L251.484,134.62021828331905L252.364,137.26164272092794L253.184,137.82252994455703L253.388,136.53049624012596L253.764,137.10420412329844L254.228,135.88988316838748L254.448,138.22254243841653L254.56799999999998,138.27154471368124L254.58399999999997,142.16466924363692L254.752,141.237335751142L254.88,136.94316520552988L254.988,133.7720569554636L255.05599999999998,133.6893408574861L255.11599999999999,134.8903718804241L255.156,137.48595450490242L255.49200000000002,142.07462987881615L256.06,140.77804242600033L256.124,136.30288116830008L256.136,136.48572461305508L256.14799999999997,137.70847283183605L256.236,139.25457409130973L256.696,130.92096432392265L257.06,137.15703085150994L257.248,138.72966943911717L257.44,132.38471697289947L257.732,134.05983619284154L258.308,135.70071188921645L258.5,135.37101647326298L258.564,133.57844394367305L258.684,137.42656243873458L258.88,139.03867494364275L258.932,139.86284563600833L258.952,135.40454086339363L259.008,133.58670338079864L259.276,139.03751162818392L259.452,133.47107929546428L259.56,130.13236467456096L259.86,130.6692969871478" style="fill: none;" fill="none"></path></g></g></g></g><g opacity="0.2"><g><g><g><path stroke="rgb(255, 112, 67)" stroke-width="2px" d="M20.172,29.82523531913759L20.183999999999997,85.39757443666458L20.288,78.85970492362976L20.38,102.98745502233506L20.671999999999997,61.40461964607239L20.92,79.26282830238343L20.94,90.08186258077622L21.024,78.8356635093689L21.096,96.39609707593918L21.236,111.01476759910584L21.244,99.84187574386597L21.276,108.27751041650772L21.9,127.14249042868614L22.148,110.6106469154358L22.32,129.73538507223128L22.348,101.95843262672425L22.54,140.76459075212478L22.592000000000002,104.76951159238816L22.86,133.33311746716498L22.892000000000003,122.68882639408112L23.212,111.88403553962708L23.236,118.5673842549324L23.348,116.78513671159745L23.888,110.11990393400193L24.06,126.52615599036217L24.267999999999997,112.18038363456726L24.42,124.07186285853386L24.724,131.03025553822516L25.048000000000002,93.66299356222153L25.267999999999997,135.60344232320784L25.28,108.24840821027756L25.336,143.046074283123L25.352,96.07858808040619L25.543999999999997,118.75811351537705L25.572,135.03691477775573L25.748,128.27155364751815L25.868,117.64982659816742L26.212,107.84118951559067L26.34,116.56212235689163L26.768,118.2375999212265L26.939999999999998,103.56823129653931L26.952,117.71025107502938L27.38,123.34062350988388L27.512,113.15509004592896L27.672,132.14299054145812L27.792,137.13632385134696L28.148,122.8843538582325L28.388,74.15226126909256L28.752,109.97906113862992L28.8,122.18167827725411L28.928,112.20037217140198L29.052,127.26826755404473L29.232000000000003,118.1556405544281L29.56,133.36812393069266L29.747999999999998,127.07802103161812L29.816,135.48428560495375L29.824,100.76655776500702L29.844,113.30931688547135L29.944,131.36111144423484L29.948,130.43968657851218L29.996000000000002,133.56907026171683L30.016000000000002,138.30380452871321L30.132,106.26572890281678L30.744,123.87629826068878L30.964,117.81605823040009L31.872,142.6998569637537L32.156,113.24178661108017L32.168,123.95309073925019L32.647999999999996,132.67731786966323L32.924,139.59028012752532L32.988,115.45318825244904L32.992000000000004,135.3310003697872L33.224000000000004,135.30621097683905L33.924,124.36527739167214L34.476,121.41066874265671L34.484,109.89937753677368L34.684000000000005,121.36623827815056L34.967999999999996,117.79710413217545L35.26,141.85203107893466L35.288000000000004,121.34400580525399L35.716,124.50888399481774L35.827999999999996,107.68338723182679L36.147999999999996,127.17110724449158L36.396,134.7945855975151L36.788,129.4008847594261L36.931999999999995,131.49873687028884L37.272,127.31087316274643L37.604,124.31868786811829L37.972,118.80005867481232L38.040000000000006,114.35416353940964L38.124,111.94408602714539L38.66,123.82581500411034L38.676,117.19141910672188L38.708,137.94954643845557L39.156,140.1777497500181L39.211999999999996,136.2392162501812L39.364,132.37774179577826L39.58,131.98227061033248L39.888000000000005,134.8153910756111L40.204,141.30240864753722L40.212,108.02765370607376L40.428,119.55920929908753L40.540000000000006,132.8641454398632L41.38399999999999,141.40879004895686L41.44,119.97433747053147L41.684,130.8732993721962L42.2,128.36571408510207L42.72,124.81370122432709L42.896,121.43010557889939L43.236000000000004,119.09157938957215L43.46,137.56944329738616L43.488,142.29257593750953L43.632,123.58441681861878L43.964,131.71665329933165L44.528,146.92582912445067L44.804,124.8575455069542L44.879999999999995,132.29897327423095L45.16,114.98632754087448L45.251999999999995,137.62985451221465L45.508,113.8872975230217L46.083999999999996,119.43229163885117L46.300000000000004,127.92865581512451L46.416,139.12352020740508L46.788,143.60107314288615L46.800000000000004,126.51605297327042L46.848,145.23466787934302L47.419999999999995,138.54463377296923L47.868,127.06690744757653L47.972,113.71049339771271L48.46,140.57479116022586L48.624,122.78711397647858L49.248,138.77434147596358L49.532000000000004,138.8673375070095L49.804,111.86460931301117L49.844,142.13685314059256L49.856,118.64446849822998L49.916000000000004,132.03270081877707L50.048,124.91678701043129L50.775999999999996,135.5091492652893L51.156,121.48177711367607L51.196,114.61109156608582L51.336,126.55184189677239L51.967999999999996,141.23608787059783L52.268,130.51449770927428L52.724,136.29779199957846L52.888000000000005,120.84338260889054L53.455999999999996,145.31866694688796L53.476,131.43211902379988L53.512,135.02836872339248L53.884,132.589353454113L53.996,146.8286422908306L54.036,135.58103213906287L54.408,136.98713923692702L54.544,125.244908285141L54.784,118.18168453574181L55.516,140.87330627143382L55.632000000000005,141.04791420400142L55.716,132.85421748161315L55.744,130.68819321393966L55.976,124.26610390543938L56.224000000000004,119.89096171855927L57.044,130.19534687399863L57.268,134.19654480814933L57.396,136.17486355900763L57.744,125.9622994184494L57.876,135.26863963603972L58.22,143.74431504011153L58.272000000000006,128.76906822323798L58.632,119.90709365606308L58.724000000000004,130.8789171695709L58.796,126.73200662136078L59.376,101.63912529945374L59.632,132.61970759630202L60.236,134.03411142230033L60.339999999999996,126.70594407320023L61.108000000000004,126.38618848919869L61.136,141.42345122694968L61.6,132.1420011937618L61.92,127.6682000875473L62.092,125.37939326167107L62.432,127.71713964343071L62.556,121.93584526777268L62.62,128.56309292912482L62.848,130.1966651201248L63.032,138.75101223289965L63.036,116.29673580527306L63.124,132.17198665142058L63.368,121.61629922389984L63.403999999999996,139.26140026450156L63.612,133.81475473642348L63.623999999999995,145.20945144891738L63.775999999999996,139.14149821996688L63.868,125.52286989688874L63.892,120.67315379977227L63.9,137.83393598794936L64.084,136.61727703809737L64.41199999999999,129.643513661623L64.488,135.6798236787319L64.524,131.4502004802227L64.79599999999999,139.93332914710044L64.804,127.651606631279L65.044,131.82052154541014L65.67999999999999,144.4696129977703L65.892,144.81145782470702L65.97200000000001,135.91870738267897L66.096,117.69130493402481L66.13199999999999,141.02329721748828L66.268,130.77528498768805L66.596,130.41655493974685L66.744,126.24414415359497L67.04,130.77875433564185L67.496,143.65110416412352L67.88,135.9943911552429L67.89999999999999,122.35017771720887L68.044,134.82722346186637L68.16799999999999,143.75235183238982L68.556,129.52210505008696L68.66,133.63336725234984L68.74,135.38646484613417L69.164,146.58167007267474L69.624,133.106662940979L69.836,134.65317783951758L70.688,147.00470506846904L71.512,146.85159091353415L71.76,119.3090581715107L72.072,116.44007451534272L72.13999999999999,134.7109950006008L72.248,146.88894343078135L72.332,136.11611805558204L72.38,119.65170402526856L72.44,141.53542257547377L72.96,129.07740784883498L73.61200000000001,138.7530864149332L73.628,138.94889901280402L74.02,124.43938032984734L74.18799999999999,145.95827625393866L74.39200000000001,135.91377390623092L74.484,132.29696274995803L74.72,139.56358630657195L75.244,133.7493861734867L75.54,134.57406980991362L76.324,140.46887525618075L76.888,135.24250812530516L77.152,123.21798418164254L77.17999999999999,131.8523477733135L77.284,131.0463079035282L77.356,127.06905324459076L77.592,137.95164449214934L77.792,141.4409106940031L78.53200000000001,145.46143406331538L78.556,134.5753854036331L78.676,134.101111215353L78.712,138.94573469161986L78.75200000000001,130.28673819899558L79.12,144.34919638633727L79.156,138.8737059354782L79.24,137.30866397619246L79.49600000000001,127.4021159529686L79.57199999999999,119.84775401353836L80.364,135.62666414380072L80.724,136.460177642107L81.068,120.40905631780625L81.3,115.04817636013031L81.896,114.24945713281632L81.904,127.49650980234146L82.032,130.5472947180271L82.156,131.3462261378765L82.964,144.61631761193274L83.06,141.46382881402968L83.096,136.75599790811538L83.316,133.9992243170738L83.976,138.94796801805495L84.384,134.83427886366843L84.468,138.21178193092345L85,140.3611517369747L85.288,110.93671787977219L85.37599999999999,136.52825165987014L85.444,147.58984189927577L85.628,128.56361810564994L86.024,130.8367412507534L86.792,146.02539407908915L87.236,144.6972863048315L87.24,134.83314628601073L87.432,134.21785159111022L87.6,134.08471934199332L88.268,148.13462368845938L88.392,135.90106357336043L88.52799999999999,121.49732552170754L88.96000000000001,146.1020101726055L89.092,136.3270082592964L89.172,131.66736627817153L89.268,140.46162092387675L89.27199999999999,137.8701572537422L89.284,140.02826673984526L89.36,124.77469227910042L89.62400000000001,134.5181252479553L89.77999999999999,129.76817412376403L89.82,119.47128201723099L90.176,154.40614382624625L90.232,135.99386863112449L90.348,144.17939726710318L90.38,142.99324895143508L90.496,133.03465009927748L90.892,133.40369270443915L91.816,138.93717537522315L91.928,134.50445474386214L92.07600000000001,136.1440558552742L92.21600000000001,128.42704303264617L92.264,121.20674110651017L92.52,128.81634737253188L93.06,145.24636764526366L93.27600000000001,129.0845454752445L93.808,139.1201834797859L93.812,127.30579380393029L94.372,143.20325590372084L94.856,142.83851019740104L94.88399999999999,127.42289755940438L95.384,133.69799579381942L95.836,138.5527156561613L96.024,118.09028790593148L96.196,122.04022808074951L96.46799999999999,132.10370309352874L96.68,135.27309833168982L97.088,135.0324666917324L98.104,137.62251795530318L98.128,125.1788713157177L98.56400000000001,139.94636705219744L98.61999999999999,136.95348550081252L98.928,131.62647942900657L98.952,137.08802087306975L99.29599999999999,139.26155410408973L99.388,138.39986408948897L99.668,132.50900144577025L99.756,137.426635068655L99.888,134.80721105337142L99.984,139.84482894539832L100.14399999999999,126.43394241929055L100.21600000000001,142.6099470078945L100.24,143.87433468997477L100.25200000000001,139.42239737212657L100.556,148.22241967618464L100.56,143.3748201996088L100.74799999999999,139.32255150079726L100.87199999999999,140.2167732834816L100.98,130.81381915211676L100.99199999999999,144.7964611172676L101.01199999999999,143.34837437868117L101.296,128.0121747970581L101.34,143.1140183329582L101.536,140.82649261951445L101.764,136.80442024469374L101.944,127.10010231733322L102.108,136.0372169137001L102.16000000000001,133.0677282631397L102.164,126.9504508793354L102.252,143.5139508664608L102.31599999999999,135.19899274110793L102.75999999999999,124.69246236681938L102.84400000000001,124.33578528165818L103.11999999999999,131.87071038484572L103.132,137.0258935511112L103.136,124.14953328371048L103.328,148.9216444760561L103.424,133.55017186403273L103.952,126.85530639886856L104.324,140.6653164744377L104.58,149.3910674124956L104.84,136.22337077260016L104.932,144.33882414996623L105.268,121.4979063987732L105.28,122.02892882823944L105.3,135.52803705334662L105.568,144.04298664331435L105.64,134.45967681407927L105.94,141.66943144500254L106.096,142.5736978918314L106.728,136.74689219594L106.9,139.55439306497573L107.184,129.4414082288742L107.288,145.64835844635962L107.372,144.40372721552848L107.396,147.38420876562594L108.028,120.48234231472016L108.984,122.82929520010948L109.036,144.22398554980754L109.17200000000001,132.40617294311522L109.324,142.55956984758376L109.436,129.28177843689917L109.892,127.03215561509133L110.032,138.05971680283545L110.18,138.04735526144503L110.544,130.3474968791008L111.06400000000001,119.5688110113144L111.364,136.24100927710532L111.724,145.7178554803133L111.73599999999999,133.74647648334502L112.33999999999999,134.82258970737456L112.556,139.47394026517867L112.596,135.45623109936713L112.732,132.75266213417052L112.772,130.90870634913443L112.876,130.93199713230132L113.056,126.04582370519638L113.14800000000001,122.79393066167832L113.448,141.24864436388015L113.524,139.08508020341395L113.712,143.7125962346792L114.164,130.37424109578131L114.36,124.55593503713608L114.684,129.14051390886306L114.728,147.0550053089857L114.80799999999999,129.76123012304305L115.10000000000001,127.43649910092354L115.328,129.9774675786495L115.756,143.1040797650814L116.32,129.4661737501621L116.476,144.26439761817454L116.592,139.34071252942084L116.94,143.63162754178046L117.132,133.96481729745864L117.14,147.03995555341243L117.292,136.35230691432952L117.384,145.56799052357673L117.668,146.93493483662604L118.232,135.39212508201598L118.488,141.23792996704577L118.88,118.80013028979302L118.91199999999999,137.52936277985572L119.608,125.41863827109337L119.74000000000001,125.97126720547676L120.036,139.4018942683935L120.192,141.10064802765845L120.536,130.55637125372886L120.928,134.57592649459838L120.97999999999999,137.59848980307578L121.01599999999999,138.75051092803477L121.33200000000001,142.98175342082976L121.56800000000001,126.27659634947777L122.024,139.58275657594203L122.08399999999999,131.7266210436821L122.4,119.45091683864594L122.74799999999999,123.58882777094841L123.252,132.19423238635062L123.392,144.64256317615508L123.688,124.0632478415966L124.184,125.78135223388672L124.268,123.8089483499527L124.368,143.2268583446741L124.62400000000001,127.59585569500923L124.68,147.11437147557734L125.172,141.8227365732193L125.216,142.1716752618551L125.616,120.62008444666863L125.884,129.66150493621825L126.684,132.4469457387924L127.19200000000001,141.6783249646425L127.196,139.561162006855L127.31200000000001,121.94005728960038L127.32000000000001,135.7728621482849L127.71600000000001,146.89794569909571L128.572,140.04849531948565L128.596,135.60571808815L128.62,135.8987055838108L128.636,143.29262211620807L128.64,134.71684886217116L129.1,134.05441294312476L130.024,129.8109680533409L130.416,142.17600929439067L130.45600000000002,145.77980774343013L130.484,143.57519228458403L130.55599999999998,146.23690096735953L130.96,136.17083455324172L131.304,141.34579141139983L131.668,140.78871571719645L131.676,146.87641346156596L131.804,131.76935927271842L131.876,131.1458182454109L133.00799999999998,133.39881492853164L133.112,144.65475231111049L133.28799999999998,149.42253423929213L133.756,127.23778874874115L133.808,133.1093843102455L134.17600000000002,142.40414677262305L134.292,114.97785044908524L134.448,144.97588847279548L135.88400000000001,145.1387011528015L135.988,122.20127160549164L136.076,129.28395075798034L136.152,131.1928507208824L136.252,139.39345696270465L136.316,147.06757639050483L136.364,137.57610349059104L136.808,147.85214900672435L137.056,128.544632178545L137.888,145.7191578119993L137.916,136.13781208992003L137.952,145.19725833535193L138.15200000000002,137.91582639217376L138.164,127.38663650751114L138.248,125.22477917075157L138.37199999999999,129.9551449239254L138.448,130.35479099750518L138.992,121.85142181515694L139.316,131.30268688201903L139.32,132.88179455399512L139.456,136.91896442770957L140.00400000000002,140.9104572057724L140.024,140.92587564587592L140.128,133.026218098402L140.312,136.10755343437194L140.372,132.1274235665798L140.7,142.10084406733512L140.872,129.9840932905674L140.976,148.27016830146312L141.14000000000001,129.43081186413764L141.312,124.26057894229889L141.84,136.50580168962478L141.884,125.87331647872925L142.29199999999997,109.18988527059555L142.45200000000003,140.10715727210044L142.828,135.58036638498305L142.884,134.7694911777973L142.956,139.1536449164152L144.212,132.08168016076087L144.424,140.44607118964194L145.62800000000001,134.5646617233753L145.776,139.6872720092535L146.78799999999998,140.68840302228926L146.892,141.9403628528118L147.23600000000002,143.62923374474047L147.496,122.70743037462235L147.524,148.3453892290592L147.556,142.92702498733996L147.748,137.15628321170806L147.78400000000002,124.7668438076973L148.02,126.96569956541062L148.072,143.52215078175067L148.7,124.73851079940796L148.832,133.56411291360854L149,136.5121992945671L149.74400000000003,137.17405168414115L150.12,132.15796072483062L150.172,142.28440519869326L150.448,132.99921129345893L150.632,140.18949328064917L150.828,119.86753035783768L151.05200000000002,137.01957286596297L151.58,137.53119028806685L151.61200000000002,132.81761957406997L152.012,137.12759743332862L152.06,146.1258407205343L152.14000000000001,138.51758718192576L152.612,145.918344271183L152.71999999999997,142.3023129224777L152.728,128.84609676599501L153.08800000000002,136.45912198424338L153.36800000000002,135.28847168087958L153.476,124.58606637716294L153.504,138.66681688725947L153.616,147.10101926028727L154.16,136.33653835654258L154.52800000000002,136.24365903139113L154.916,136.62158985137938L154.952,131.41606400609015L155,140.59064989984034L155.07600000000002,146.75158987641333L155.144,126.85720817446709L155.35999999999999,144.95364008545874L155.408,143.20908721983432L155.50799999999998,128.96951324939727L155.656,143.95428353250026L156.072,128.05061082243918L156.148,135.21431304216384L156.17600000000002,123.38405401706696L156.35999999999999,148.54278266131877L156.56799999999998,144.25994555354117L156.57999999999998,145.53498530089854L156.72,133.36909471154212L157.448,126.81459991335869L157.452,147.24141910374163L157.536,149.10764117985963L157.756,137.15737600326537L158.104,144.60830601751803L158.108,140.87373198270797L158.26,143.56592742800711L158.4,136.50850183963774L158.43599999999998,113.34664685726166L159.136,127.71577895879746L159.516,139.0790605664253L160.32000000000002,143.45279034674166L160.464,144.36388010978698L160.712,129.0399240374565L161.02,133.95406444072722L161.336,129.47677011489867L161.42000000000002,133.54797832369803L161.452,138.05878580808638L161.504,129.2131500661373L161.512,131.87097827792167L161.928,140.00941608548163L161.936,142.94303226172923L162.284,121.26665897369385L162.296,128.3968480348587L163.08800000000002,131.75243691802024L163.116,134.06019253730773L163.38,118.33035988807679L163.39999999999998,129.79828954935073L163.816,128.71599887013434L163.88400000000001,141.47333371341227L164.152,144.9988079190254L164.232,126.28072084188462L164.66,142.11646939516066L164.928,135.84210057258605L164.988,143.24991571605204L165.052,140.54087350964545L165.104,141.74675175249575L165.244,134.95763964653014L165.34799999999998,130.08967499136924L166.28,128.22212074398993L166.52,138.27738655805587L166.64000000000001,127.73887611627579L166.71599999999998,139.82882432341574L167.072,136.89333952665328L167.228,131.2740355849266L167.24400000000003,135.97028608322142L167.28,137.05380217432975L167.404,144.29712433815L167.632,131.85120193362235L168.216,119.85908774733544L168.68,133.1618701338768L168.812,128.42762125730513L169.248,128.77385581731795L169.82399999999998,151.3716811582446L169.96,138.64973273575305L171.05999999999997,136.95895476341246L171.232,136.3619431078434L171.508,148.79782615303992L172.772,135.55503590106963L172.992,99.47716982364655L173.052,138.66609675884246L173.464,129.3185036599636L173.76,141.8070210635662L173.824,129.03739629387854L173.868,128.99302418231963L174.00400000000002,144.28496305346488L174.324,134.33843265175818L174.56799999999998,138.60940421819686L174.572,143.4353865802288L174.804,132.49494103789328L174.88400000000001,141.7481522232294L175.05599999999998,135.62186594009398L175.364,117.06299753189087L175.928,136.88178033828734L176.02,116.65461708307267L176.02399999999997,116.17982037067414L176.568,112.95082820653916L176.952,134.70305634737014L177.188,141.25125167965888L177.23199999999997,134.3691395640373L178.368,141.8114744544029L178.81199999999998,139.19833001196383L178.924,135.71689636707305L179.12800000000001,129.88176344037055L179.516,132.2164595544338L179.64,138.06813023686408L179.66000000000003,138.0685692101717L179.728,149.3685471534729L180.084,142.1996740669012L180.89999999999998,140.4824874073267L181.188,135.80674929618834L181.60799999999998,135.17236257791518L181.95600000000002,133.77977214455603L182.00400000000002,144.75529709160327L182.132,139.97798506617545L182.244,139.17213086485862L182.592,137.28417165279387L182.632,109.17179585695267L182.656,131.33643875718116L182.672,129.32295174598693L182.79600000000002,137.23404647111892L182.804,137.38362629413604L182.85999999999999,126.21248767971993L182.88400000000001,142.20095385313033L183.176,136.88935030698775L184.16400000000002,148.00672331154345L184.516,135.35970736742019L184.62,150.51648091971873L184.98000000000002,138.70267875194548L185.088,117.94498111009598L185.368,140.83477608561515L185.64000000000001,139.35415757894515L185.968,143.3561286896467L186.16,146.18811790347098L186.224,137.33932049274443L186.44,144.14944231212138L187.09199999999998,137.3018605530262L187.124,143.0770902007818L187.38000000000002,138.31793920397757L187.488,127.16281051635742L188.02800000000002,132.9059712409973L188.056,144.0489691466093L188.12800000000001,131.9338535785675L188.54,135.21849588751792L188.636,127.78412882685662L188.67600000000002,135.96448261737822L188.732,124.68786309361458L188.98,145.09085040986537L189.35999999999999,146.7746711194515L189.804,140.46482105255126L189.876,143.07896943092345L189.916,137.46295182108878L190,126.71833611726761L190.436,137.8385219991207L190.716,120.8561353802681L191.10799999999998,135.34210599660872L191.72799999999998,145.6162842184305L191.85999999999999,138.15139724016188L191.928,137.23025618195533L192.084,143.48010615706443L193.11599999999999,138.10986850857734L193.9,139.5728087246418L194.076,137.60889519453048L194.216,141.51844982504844L194.33599999999998,147.68227562010287L194.43200000000002,145.66061389148234L194.56,140.59096818864344L194.848,124.2710877776146L194.956,142.2011793076992L194.97199999999998,138.46997117698191L195.03199999999998,132.93898044228553L195.136,146.5675818145275L195.224,125.59787730574608L195.90800000000002,132.54880876541137L195.924,148.64690951704978L195.976,141.40722512900828L196.296,133.26443604826926L196.31199999999998,125.32224715948105L196.456,128.22526915073394L196.804,140.92852274775504L196.832,134.90041927695273L197.008,143.94022975564002L197.22000000000003,144.47609150111674L197.376,129.30235846042632L197.61999999999998,146.45066637992858L198.008,150.02365977764129L198.16,132.6704613983631L198.344,128.41629017591475L198.348,137.25579355359076L198.584,126.87457348108292L198.92,132.1060849547386L199.01600000000002,131.23849598765372L199.212,138.62129097878932L199.268,131.8419848203659L199.85999999999999,133.2137777328491L199.98,129.09925041794776L200.216,133.46998430490493L200.42,144.00223639309405L201.244,134.65091798901557L201.28,134.09712995290755L201.49200000000002,126.75308794975281L202.032,118.01537863612175L202.176,135.63402457237243L202.588,146.3446311175823L202.636,135.83821479678153L203.088,150.77245341688393L203.36,136.5705893754959L203.5,138.54388844668864L204.10000000000002,143.00381613969802L204.136,142.92979675233363L204.244,131.26352940201758L204.364,125.31435359716416L204.5,135.50225300788878L204.68,151.230366897583L204.712,144.13877698481082L204.82399999999998,126.66811544895172L205.276,121.26755548715592L205.33999999999997,137.08679546117781L205.58800000000002,134.4520962357521L205.656,143.58445051014422L206,144.12593137919902L206.036,136.05054260492324L206.788,123.42931998968125L206.996,137.5749523460865L208.148,133.88572783470153L208.232,131.32063306570052L208.79600000000002,136.7884368419647L208.968,138.52734140753745L209.18,139.30423265397548L209.208,134.68351341485976L209.28799999999998,133.40764479041098L209.392,123.58718858361244L209.752,126.57942427396775L209.96,124.24085564613343L210.2,133.64741705060004L210.228,132.4201564311981L210.34400000000002,135.60309485793113L210.55599999999998,134.00049216747283L210.572,125.10801227092743L210.62400000000002,137.6488059580326L210.68,129.29782814979552L210.77599999999998,133.9243442237377L210.824,143.38773609399794L210.952,135.67190624475478L210.98,135.25902731418608L211.036,134.8650043427944L211.488,139.13528363108634L211.532,139.6676627665758L211.55599999999998,126.41749484539032L211.72,144.04653556346892L211.736,135.9774767577648L211.792,130.96139906048774L211.884,146.580671441555L212.308,136.80292693972586L212.48000000000002,135.08953587412833L212.728,118.02051104307175L212.79199999999997,120.930275452137L212.91199999999998,134.20257638096808L213.68800000000002,137.43635613918303L213.868,152.03725487440823L214.06,135.77139536738395L214.09199999999998,140.6930606484413L214.524,127.74375654459L214.60399999999998,144.60565626323222L215.38,144.47740311622618L215.932,144.2116173774004L217.092,128.1159661233425L217.308,123.93515516519547L217.408,137.80222116112708L217.912,147.24559797048568L218.236,133.9645865380764L218.48,143.38242332339286L218.55599999999998,137.11896119713782L218.792,128.45462275743483L219.256,125.48631973266602L219.572,134.33677224516867L220.028,146.73349383175372L220.228,143.62317697405814L220.376,131.6934235215187L220.6,135.03997565507888L220.664,132.483859282732L220.784,123.9742489874363L221.076,142.63180283904074L221.53199999999998,140.5519512861967L221.884,141.14998544454573L222.156,149.28231011778115L222.52,133.60003180503844L222.52800000000002,137.32752258777617L222.552,123.32994226813317L223.27999999999997,139.34041811227797L223.92,124.37356085777283L224.064,139.8987855285406L224.524,133.15198726654052L224.54,122.88996369838715L224.912,135.58101622462272L225.132,116.0233787715435L225.37199999999999,139.52865676283835L225.752,141.85712237358092L226.56799999999998,142.3705779135227L227.00400000000002,135.03344542980193L227.18,140.0273357450962L227.196,137.71697811484336L227.22799999999998,140.82986648082732L227.82,148.55878463089465L228.008,131.96217597723006L228.27200000000002,141.2748130083084L228.28,125.46936289668083L228.952,142.1467094838619L229.172,139.95503511726855L229.284,131.62941564321517L229.416,142.6864556789398L229.512,134.4628199160099L229.55200000000002,118.43476922512055L230.04399999999998,108.08244181871414L230.11599999999999,124.21529705524445L230.416,147.1313216805458L230.568,142.03158707618712L230.732,139.17725796699523L231.136,141.70841519236563L231.212,145.6909919053316L231.62800000000001,143.51523860991L231.76000000000002,137.804300647974L232.016,123.89856256246567L232.056,138.6530005007982L232.37199999999999,145.98509606420993L232.432,144.07978878617286L232.57999999999998,132.73010341525077L233.60799999999998,133.089281719923L233.64,133.7342382788658L233.876,133.18130697011946L233.932,127.88356755375862L234.596,142.07438631057738L234.828,135.55029074549674L234.85600000000002,134.75793464183806L234.872,135.6052592217922L234.88799999999998,129.30065296292304L235.29999999999998,113.87192417383194L235.452,139.37464476823806L235.584,136.56824199557303L235.628,138.724290561676L236.09599999999998,132.38531441688536L236.292,130.42046989202498L236.352,131.16125790476798L236.43599999999998,135.55415264964103L236.49599999999998,145.91165357530116L236.736,120.22021026611328L236.968,140.80172975063323L237.476,140.9494184076786L237.868,135.63940100073813L238.36,131.0717895746231L238.504,116.33765713572502L238.592,145.82193857133387L238.768,135.64832104444503L238.82000000000002,145.63837743997573L238.88,127.6523811340332L239.23200000000003,137.44133205413817L239.456,142.79192730486392L239.75199999999998,127.62791533470154L239.932,134.41044814586638L240.776,150.91931651234626L241.2,143.12002072930335L241.212,129.9043195068836L241.316,120.4409594655037L241.44,132.7264828801155L242.156,142.1158394485712L242.17600000000002,133.03359444141387L242.20800000000003,143.18021709918975L242.85600000000002,137.24027432203292L243.06799999999998,115.75537694692612L243.184,137.7434703528881L243.484,138.01877690553664L243.85600000000002,145.37380252480506L243.868,129.07744233012198L244.368,139.72516826987265L245.22,129.76329369544982L245.352,137.95265638530253L245.52,132.00025658011435L245.648,147.9232030034065L245.732,139.75533276498317L245.98399999999998,133.97892014384269L246.032,147.13071825802325L246.088,140.03795200288295L246.11599999999999,135.6532492160797L246.12400000000002,140.28763763308524L246.436,143.30937869548796L247.15200000000002,132.014009308815L247.284,131.8848052740097L247.428,125.16440508961678L247.55599999999998,144.12972299456595L248,148.79283564984797L248.148,146.0253980576992L248.952,144.58679897785186L249.048,143.92691732645034L249.20000000000002,146.68722392320632L249.224,145.9383235245943L249.31199999999998,126.61307270526886L249.596,126.3261300444603L249.88,139.1039653390646L249.94,141.76459847092627L250.076,137.59102593064307L250.304,151.09227464795111L250.74800000000002,113.67133857011795L250.89999999999998,139.44464178085326L251.044,118.0850440979004L251.484,144.5625427186489L252.364,141.22377937734126L253.184,138.66386078000068L253.388,134.5924456834793L253.764,137.96476594805716L254.228,134.06840173602103L254.448,141.72153134346007L254.56799999999998,138.34504812657832L254.58399999999997,148.0043560385704L254.752,139.84633551239966L254.88,130.50190938711165L254.988,129.01539458036422L255.05599999999998,133.56526671051978L255.11599999999999,136.69191841483115L255.156,141.37932844161986L255.49200000000002,148.95764293968676L256.06,138.83316124677657L256.124,129.5901392817497L256.136,136.7599897801876L256.14799999999997,139.54259516000747L256.236,141.57372598052024L256.696,118.42054967284203L257.06,146.51113064289092L257.248,141.08862732052802L257.44,122.86728827357292L257.732,136.57251502275466L258.308,138.16202543377875L258.5,134.8764733493328L258.564,130.88958514928817L258.684,143.19874018132685L258.88,141.45684370100497L258.932,141.09910167455672L258.952,128.71708370447158L259.008,130.85994715690612L259.276,147.21372399926184L259.452,125.12143079638481L259.56,125.12429274320603L259.86,131.47469545602797" style="fill: none;" fill="none"></path></g></g></g></g></g><g><g opacity="0.0570167"><span style="white-space: normal;" fill="rgb(0, 0, 0)" stroke="none" stroke-width="1px">Alt + Scroll to Zoom</span></g></g></g><g transform="translate(50, 178)" clip-path="url(#clip_1)"><clipPath id="clip_1"><rect width="280" height="22"></rect></clipPath><g><g><line x1="0" y1="0" x2="0" y2="5" style="visibility: inherit;" fill="rgb(0, 0, 0)" stroke="rgb(204, 204, 204)" stroke-width="1px"></line><line x1="20" y1="0" x2="20" y2="5" style="visibility: inherit;" fill="rgb(0, 0, 0)" stroke="rgb(204, 204, 204)" stroke-width="1px"></line><line x1="40" y1="0" x2="40" y2="5" style="visibility: inherit;" fill="rgb(0, 0, 0)" stroke="rgb(204, 204, 204)" stroke-width="1px"></line><line x1="60" y1="0" x2="60" y2="5" style="visibility: inherit;" fill="rgb(0, 0, 0)" stroke="rgb(204, 204, 204)" stroke-width="1px"></line><line x1="80" y1="0" x2="80" y2="5" style="visibility: inherit;" fill="rgb(0, 0, 0)" stroke="rgb(204, 204, 204)" stroke-width="1px"></line><line x1="100" y1="0" x2="100" y2="5" style="visibility: inherit;" fill="rgb(0, 0, 0)" stroke="rgb(204, 204, 204)" stroke-width="1px"></line><line x1="120" y1="0" x2="120" y2="5" style="visibility: inherit;" fill="rgb(0, 0, 0)" stroke="rgb(204, 204, 204)" stroke-width="1px"></line><line x1="140" y1="0" x2="140" y2="5" style="visibility: inherit;" fill="rgb(0, 0, 0)" stroke="rgb(204, 204, 204)" stroke-width="1px"></line><line x1="160" y1="0" x2="160" y2="5" style="visibility: inherit;" fill="rgb(0, 0, 0)" stroke="rgb(204, 204, 204)" stroke-width="1px"></line><line x1="180" y1="0" x2="180" y2="5" style="visibility: inherit;" fill="rgb(0, 0, 0)" stroke="rgb(204, 204, 204)" stroke-width="1px"></line><line x1="200" y1="0" x2="200" y2="5" style="visibility: inherit;" fill="rgb(0, 0, 0)" stroke="rgb(204, 204, 204)" stroke-width="1px"></line><line x1="220" y1="0" x2="220" y2="5" style="visibility: inherit;" fill="rgb(0, 0, 0)" stroke="rgb(204, 204, 204)" stroke-width="1px"></line><line x1="240" y1="0" x2="240" y2="5" style="visibility: inherit;" fill="rgb(0, 0, 0)" stroke="rgb(204, 204, 204)" stroke-width="1px"></line><line x1="260" y1="0" x2="260" y2="5" style="visibility: inherit;" fill="rgb(0, 0, 0)" stroke="rgb(204, 204, 204)" stroke-width="1px"></line><line x1="280" y1="0" x2="280" y2="5" style="visibility: inherit;" fill="rgb(0, 0, 0)" stroke="rgb(204, 204, 204)" stroke-width="1px"></line></g><g transform="translate(0, 8)"><text x="0" y="0" dx="0em" dy="0.95em" style="text-anchor: middle; visibility: hidden; font-family: &quot;Helvetica Neue&quot;, sans-serif; font-size: 12px; font-weight: 200;" fill="rgb(50, 49, 63)" stroke="none" stroke-width="1px">-50k</text><text x="20" y="0" dx="0em" dy="0.95em" style="text-anchor: middle; visibility: inherit; font-family: &quot;Helvetica Neue&quot;, sans-serif; font-size: 12px; font-weight: 200;" fill="rgb(50, 49, 63)" stroke="none" stroke-width="1px">0</text><text x="40" y="0" dx="0em" dy="0.95em" style="text-anchor: middle; visibility: hidden; font-family: &quot;Helvetica Neue&quot;, sans-serif; font-size: 12px; font-weight: 200;" fill="rgb(50, 49, 63)" stroke="none" stroke-width="1px">50k</text><text x="60" y="0" dx="0em" dy="0.95em" style="text-anchor: middle; visibility: inherit; font-family: &quot;Helvetica Neue&quot;, sans-serif; font-size: 12px; font-weight: 200;" fill="rgb(50, 49, 63)" stroke="none" stroke-width="1px">100k</text><text x="80" y="0" dx="0em" dy="0.95em" style="text-anchor: middle; visibility: hidden; font-family: &quot;Helvetica Neue&quot;, sans-serif; font-size: 12px; font-weight: 200;" fill="rgb(50, 49, 63)" stroke="none" stroke-width="1px">150k</text><text x="100" y="0" dx="0em" dy="0.95em" style="text-anchor: middle; visibility: inherit; font-family: &quot;Helvetica Neue&quot;, sans-serif; font-size: 12px; font-weight: 200;" fill="rgb(50, 49, 63)" stroke="none" stroke-width="1px">200k</text><text x="120" y="0" dx="0em" dy="0.95em" style="text-anchor: middle; visibility: hidden; font-family: &quot;Helvetica Neue&quot;, sans-serif; font-size: 12px; font-weight: 200;" fill="rgb(50, 49, 63)" stroke="none" stroke-width="1px">250k</text><text x="140" y="0" dx="0em" dy="0.95em" style="text-anchor: middle; visibility: inherit; font-family: &quot;Helvetica Neue&quot;, sans-serif; font-size: 12px; font-weight: 200;" fill="rgb(50, 49, 63)" stroke="none" stroke-width="1px">300k</text><text x="160" y="0" dx="0em" dy="0.95em" style="text-anchor: middle; visibility: hidden; font-family: &quot;Helvetica Neue&quot;, sans-serif; font-size: 12px; font-weight: 200;" fill="rgb(50, 49, 63)" stroke="none" stroke-width="1px">350k</text><text x="180" y="0" dx="0em" dy="0.95em" style="text-anchor: middle; visibility: inherit; font-family: &quot;Helvetica Neue&quot;, sans-serif; font-size: 12px; font-weight: 200;" fill="rgb(50, 49, 63)" stroke="none" stroke-width="1px">400k</text><text x="200" y="0" dx="0em" dy="0.95em" style="text-anchor: middle; visibility: hidden; font-family: &quot;Helvetica Neue&quot;, sans-serif; font-size: 12px; font-weight: 200;" fill="rgb(50, 49, 63)" stroke="none" stroke-width="1px">450k</text><text x="220" y="0" dx="0em" dy="0.95em" style="text-anchor: middle; visibility: inherit; font-family: &quot;Helvetica Neue&quot;, sans-serif; font-size: 12px; font-weight: 200;" fill="rgb(50, 49, 63)" stroke="none" stroke-width="1px">500k</text><text x="240" y="0" dx="0em" dy="0.95em" style="text-anchor: middle; visibility: hidden; font-family: &quot;Helvetica Neue&quot;, sans-serif; font-size: 12px; font-weight: 200;" fill="rgb(50, 49, 63)" stroke="none" stroke-width="1px">550k</text><text x="260" y="0" dx="0em" dy="0.95em" style="text-anchor: middle; visibility: inherit; font-family: &quot;Helvetica Neue&quot;, sans-serif; font-size: 12px; font-weight: 200;" fill="rgb(50, 49, 63)" stroke="none" stroke-width="1px">600k</text><text x="280" y="0" dx="0em" dy="0.95em" style="text-anchor: middle; visibility: hidden; font-family: &quot;Helvetica Neue&quot;, sans-serif; font-size: 12px; font-weight: 200;" fill="rgb(50, 49, 63)" stroke="none" stroke-width="1px">650k</text></g><line x1="0" y1="0" x2="280" y2="0" fill="rgb(0, 0, 0)" stroke="rgb(204, 204, 204)" stroke-width="1px"></line></g></g></g></g></svg>