<svg viewBox="0 0 330 200" xmlns="http://www.w3.org/2000/svg"><g><g><g><g><g><line x1="50" y1="178" x2="45" y2="178" style="visibility: inherit;" fill="rgb(0, 0, 0)" stroke="rgb(204, 204, 204)" stroke-width="1px"></line><line x1="50" y1="160.2" x2="45" y2="160.2" style="visibility: inherit;" fill="rgb(0, 0, 0)" stroke="rgb(204, 204, 204)" stroke-width="1px"></line><line x1="50" y1="142.4" x2="45" y2="142.4" style="visibility: inherit;" fill="rgb(0, 0, 0)" stroke="rgb(204, 204, 204)" stroke-width="1px"></line><line x1="50" y1="124.6" x2="45" y2="124.6" style="visibility: inherit;" fill="rgb(0, 0, 0)" stroke="rgb(204, 204, 204)" stroke-width="1px"></line><line x1="50" y1="106.8" x2="45" y2="106.8" style="visibility: inherit;" fill="rgb(0, 0, 0)" stroke="rgb(204, 204, 204)" stroke-width="1px"></line><line x1="50" y1="89" x2="45" y2="89" style="visibility: inherit;" fill="rgb(0, 0, 0)" stroke="rgb(204, 204, 204)" stroke-width="1px"></line><line x1="50" y1="71.2" x2="45" y2="71.2" style="visibility: inherit;" fill="rgb(0, 0, 0)" stroke="rgb(204, 204, 204)" stroke-width="1px"></line><line x1="50" y1="53.400000000000006" x2="45" y2="53.400000000000006" style="visibility: inherit;" fill="rgb(0, 0, 0)" stroke="rgb(204, 204, 204)" stroke-width="1px"></line><line x1="50" y1="35.60000000000002" x2="45" y2="35.60000000000002" style="visibility: inherit;" fill="rgb(0, 0, 0)" stroke="rgb(204, 204, 204)" stroke-width="1px"></line><line x1="50" y1="17.799999999999983" x2="45" y2="17.799999999999983" style="visibility: inherit;" fill="rgb(0, 0, 0)" stroke="rgb(204, 204, 204)" stroke-width="1px"></line><line x1="50" y1="0" x2="45" y2="0" style="visibility: inherit;" fill="rgb(0, 0, 0)" stroke="rgb(204, 204, 204)" stroke-width="1px"></line></g><g transform="translate(40, 0)"><text x="0" y="178" dx="0em" dy="0.3em" style="text-anchor: end; visibility: hidden; font-family: &quot;Helvetica Neue&quot;, sans-serif; font-size: 12px; font-weight: 200;" fill="rgb(50, 49, 63)" stroke="none" stroke-width="1px">-0.1</text><text x="0" y="160.2" dx="0em" dy="0.3em" style="text-anchor: end; visibility: inherit; font-family: &quot;Helvetica Neue&quot;, sans-serif; font-size: 12px; font-weight: 200;" fill="rgb(50, 49, 63)" stroke="none" stroke-width="1px">0</text><text x="0" y="142.4" dx="0em" dy="0.3em" style="text-anchor: end; visibility: hidden; font-family: &quot;Helvetica Neue&quot;, sans-serif; font-size: 12px; font-weight: 200;" fill="rgb(50, 49, 63)" stroke="none" stroke-width="1px">0.1</text><text x="0" y="124.6" dx="0em" dy="0.3em" style="text-anchor: end; visibility: inherit; font-family: &quot;Helvetica Neue&quot;, sans-serif; font-size: 12px; font-weight: 200;" fill="rgb(50, 49, 63)" stroke="none" stroke-width="1px">0.2</text><text x="0" y="106.8" dx="0em" dy="0.3em" style="text-anchor: end; visibility: hidden; font-family: &quot;Helvetica Neue&quot;, sans-serif; font-size: 12px; font-weight: 200;" fill="rgb(50, 49, 63)" stroke="none" stroke-width="1px">0.3</text><text x="0" y="89" dx="0em" dy="0.3em" style="text-anchor: end; visibility: inherit; font-family: &quot;Helvetica Neue&quot;, sans-serif; font-size: 12px; font-weight: 200;" fill="rgb(50, 49, 63)" stroke="none" stroke-width="1px">0.4</text><text x="0" y="71.2" dx="0em" dy="0.3em" style="text-anchor: end; visibility: hidden; font-family: &quot;Helvetica Neue&quot;, sans-serif; font-size: 12px; font-weight: 200;" fill="rgb(50, 49, 63)" stroke="none" stroke-width="1px">0.5</text><text x="0" y="53.400000000000006" dx="0em" dy="0.3em" style="text-anchor: end; visibility: inherit; font-family: &quot;Helvetica Neue&quot;, sans-serif; font-size: 12px; font-weight: 200;" fill="rgb(50, 49, 63)" stroke="none" stroke-width="1px">0.6</text><text x="0" y="35.60000000000002" dx="0em" dy="0.3em" style="text-anchor: end; visibility: hidden; font-family: &quot;Helvetica Neue&quot;, sans-serif; font-size: 12px; font-weight: 200;" fill="rgb(50, 49, 63)" stroke="none" stroke-width="1px">0.7</text><text x="0" y="17.799999999999983" dx="0em" dy="0.3em" style="text-anchor: end; visibility: inherit; font-family: &quot;Helvetica Neue&quot;, sans-serif; font-size: 12px; font-weight: 200;" fill="rgb(50, 49, 63)" stroke="none" stroke-width="1px">0.8</text><text x="0" y="0" dx="0em" dy="0.3em" style="text-anchor: end; visibility: hidden; font-family: &quot;Helvetica Neue&quot;, sans-serif; font-size: 12px; font-weight: 200;" fill="rgb(50, 49, 63)" stroke="none" stroke-width="1px">0.9</text></g><line x1="50" y1="0" x2="50" y2="178" fill="rgb(0, 0, 0)" stroke="rgb(204, 204, 204)" stroke-width="1px"></line></g></g><g transform="translate(50, 0)" clip-path="url(#clip_0)"><clipPath id="clip_0"><rect width="280" height="178"></rect></clipPath><g><g><g><line x1="0" y1="0" x2="0" y2="178" fill="rgb(0, 0, 0)" stroke="rgb(60, 60, 60)" stroke-width="1px" opacity="0.25"></line><line x1="20" y1="0" x2="20" y2="178" fill="rgb(0, 0, 0)" stroke="rgb(60, 60, 60)" stroke-width="1px" opacity="0.25"></line><line x1="40" y1="0" x2="40" y2="178" fill="rgb(0, 0, 0)" stroke="rgb(60, 60, 60)" stroke-width="1px" opacity="0.25"></line><line x1="60" y1="0" x2="60" y2="178" fill="rgb(0, 0, 0)" stroke="rgb(60, 60, 60)" stroke-width="1px" opacity="0.25"></line><line x1="80" y1="0" x2="80" y2="178" fill="rgb(0, 0, 0)" stroke="rgb(60, 60, 60)" stroke-width="1px" opacity="0.25"></line><line x1="100" y1="0" x2="100" y2="178" fill="rgb(0, 0, 0)" stroke="rgb(60, 60, 60)" stroke-width="1px" opacity="0.25"></line><line x1="120" y1="0" x2="120" y2="178" fill="rgb(0, 0, 0)" stroke="rgb(60, 60, 60)" stroke-width="1px" opacity="0.25"></line><line x1="140" y1="0" x2="140" y2="178" fill="rgb(0, 0, 0)" stroke="rgb(60, 60, 60)" stroke-width="1px" opacity="0.25"></line><line x1="160" y1="0" x2="160" y2="178" fill="rgb(0, 0, 0)" stroke="rgb(60, 60, 60)" stroke-width="1px" opacity="0.25"></line><line x1="180" y1="0" x2="180" y2="178" fill="rgb(0, 0, 0)" stroke="rgb(60, 60, 60)" stroke-width="1px" opacity="0.25"></line><line x1="200" y1="0" x2="200" y2="178" fill="rgb(0, 0, 0)" stroke="rgb(60, 60, 60)" stroke-width="1px" opacity="0.25"></line><line x1="220" y1="0" x2="220" y2="178" fill="rgb(0, 0, 0)" stroke="rgb(60, 60, 60)" stroke-width="1px" opacity="0.25"></line><line x1="240" y1="0" x2="240" y2="178" fill="rgb(0, 0, 0)" stroke="rgb(60, 60, 60)" stroke-width="1px" opacity="0.25"></line><line x1="260" y1="0" x2="260" y2="178" fill="rgb(0, 0, 0)" stroke="rgb(60, 60, 60)" stroke-width="1px" opacity="0.25"></line><line x1="280" y1="0" x2="280" y2="178" fill="rgb(0, 0, 0)" stroke="rgb(60, 60, 60)" stroke-width="1px" opacity="0.25"></line></g><g><line x1="0" y1="178" x2="280" y2="178" fill="rgb(0, 0, 0)" stroke="rgb(60, 60, 60)" stroke-width="1px" opacity="0.25"></line><line x1="0" y1="160.2" x2="280" y2="160.2" fill="rgb(0, 0, 0)" stroke="rgb(60, 60, 60)" stroke-width="1px" opacity="0.25"></line><line x1="0" y1="142.4" x2="280" y2="142.4" fill="rgb(0, 0, 0)" stroke="rgb(60, 60, 60)" stroke-width="1px" opacity="0.25"></line><line x1="0" y1="124.6" x2="280" y2="124.6" fill="rgb(0, 0, 0)" stroke="rgb(60, 60, 60)" stroke-width="1px" opacity="0.25"></line><line x1="0" y1="106.8" x2="280" y2="106.8" fill="rgb(0, 0, 0)" stroke="rgb(60, 60, 60)" stroke-width="1px" opacity="0.25"></line><line x1="0" y1="89" x2="280" y2="89" fill="rgb(0, 0, 0)" stroke="rgb(60, 60, 60)" stroke-width="1px" opacity="0.25"></line><line x1="0" y1="71.2" x2="280" y2="71.2" fill="rgb(0, 0, 0)" stroke="rgb(60, 60, 60)" stroke-width="1px" opacity="0.25"></line><line x1="0" y1="53.400000000000006" x2="280" y2="53.400000000000006" fill="rgb(0, 0, 0)" stroke="rgb(60, 60, 60)" stroke-width="1px" opacity="0.25"></line><line x1="0" y1="35.60000000000002" x2="280" y2="35.60000000000002" fill="rgb(0, 0, 0)" stroke="rgb(60, 60, 60)" stroke-width="1px" opacity="0.25"></line><line x1="0" y1="17.799999999999983" x2="280" y2="17.799999999999983" fill="rgb(0, 0, 0)" stroke="rgb(60, 60, 60)" stroke-width="1px" opacity="0.25"></line><line x1="0" y1="0" x2="280" y2="0" fill="rgb(0, 0, 0)" stroke="rgb(60, 60, 60)" stroke-width="1px" opacity="0.25"></line></g></g></g><g><g><line x1="0" y1="160.2" x2="280" y2="160.2" fill="rgb(0, 0, 0)" stroke="rgb(153, 153, 153)" stroke-width="1.5px"></line></g></g><g><g><line x1="20" y1="0" x2="20" y2="178" fill="rgb(0, 0, 0)" stroke="rgb(153, 153, 153)" stroke-width="1.5px"></line></g></g><g><g><g><g><g><path stroke="rgb(255, 112, 67)" stroke-width="2px" d="M20.172,54.1841320514679L20.183999999999997,49.58982547819616L20.288,31.528228950500505L20.38,42.07707952672948L20.671999999999997,52.634976086609925L20.92,56.767721568008L20.94,61.41971667217284L21.024,60.962429924349365L21.096,59.76758140844129L21.236,65.39331886604901L21.244,69.28057654451528L21.276,73.0232628739007L21.9,79.29400000186466L22.148,77.57152871556482L22.32,84.10940197907715L22.348,81.6299432927675L22.54,82.33253362929545L22.592000000000002,81.01312617456978L22.86,82.73711472601669L22.892000000000003,79.37168185133883L23.212,79.07841945703878L23.236,79.6700721283588L23.348,77.44613518237317L23.888,76.36200500053125L24.06,77.08878459919737L24.267999999999997,76.16158805987908L24.42,78.66610067820264L24.724,84.12398453265489L25.048000000000002,78.49146516517418L25.267999999999997,82.46893482041455L25.28,77.33892311613957L25.336,82.66278248934503L25.352,75.3091676699843L25.543999999999997,75.2462692092354L25.572,83.66863181231065L25.748,85.40605283882738L25.868,80.5799176746346L26.212,75.3214132908671L26.34,72.71250699199277L26.768,80.93969808150614L26.939999999999998,77.57549695060607L26.952,74.40187225597933L27.38,74.3132443586203L27.512,73.27992695785815L27.672,78.54891595309462L27.792,86.99622486802267L28.148,78.41390793036487L28.388,73.17725995356645L28.752,78.328069496074L28.8,79.23911083694162L28.928,80.16329618547329L29.052,80.78837202223701L29.232000000000003,84.97809609790914L29.56,77.2228536952669L29.747999999999998,78.31876368696369L29.816,80.02584791287772L29.824,79.07527344766231L29.844,75.5672758945399L29.944,82.0114281540264L29.948,85.32024994165613L29.996000000000002,84.05752460641209L30.016000000000002,80.08580907155593L30.132,80.72730424862813L30.744,77.63105761803214L30.964,80.93011660931722L31.872,85.35204510902295L32.156,89.44394611009915L32.168,87.18583004170037L32.647999999999996,92.98667834575997L32.924,83.97253119454398L32.988,81.55778250876435L32.992000000000004,88.26884180655102L33.224000000000004,89.28905078858148L33.924,84.05587233239419L34.476,84.77377620896105L34.484,79.39905808186772L34.684000000000005,78.6079461492076L34.967999999999996,77.29510362130252L35.26,83.35652329910903L35.288000000000004,76.86587099545665L35.716,79.79080024429241L35.827999999999996,78.16268095891523L36.147999999999996,76.10571543169527L36.396,80.81154785509412L36.788,80.1256862089366L36.931999999999995,83.34769053967776L37.272,85.23121886558522L37.604,80.07741094772334L37.972,80.3533728953857L38.040000000000006,82.50008354882353L38.124,79.5447027152774L38.66,83.75770148909075L38.676,78.90407148644915L38.708,88.24525275496L39.156,90.91840068976494L39.211999999999996,89.88717644977817L39.364,88.81851097564846L39.58,88.14485684288115L39.888000000000005,92.06598427327019L40.204,88.3491860820743L40.212,79.5966481372054L40.428,81.22432885672663L40.540000000000006,84.275340002215L41.38399999999999,89.06667337980039L41.44,86.13759166578153L41.684,89.05574361908258L42.2,85.80465834872616L42.72,82.97523726425582L42.896,82.92817942024477L43.236000000000004,84.80744526696925L43.46,88.49998389907316L43.488,90.23761978165886L43.632,87.8453325224911L43.964,87.30796322065561L44.528,93.3648916580556L44.804,89.37404152025451L44.879999999999995,88.86837602299255L45.16,85.86424954796912L45.251999999999995,87.4633409551685L45.508,80.29851017307668L46.083999999999996,82.51113857454914L46.300000000000004,86.13156417862689L46.416,87.38416223917075L46.788,92.21159168478053L46.800000000000004,86.58375745532634L46.848,87.50629624317719L47.419999999999995,89.2821015679278L47.868,90.21718184014786L47.972,83.88394599354642L48.46,88.20120924709069L48.624,86.51660906551975L49.248,90.02511920975861L49.532000000000004,94.19653710870278L49.804,94.49797729222972L49.844,97.90146885138154L49.856,93.20761148107886L49.916000000000004,85.64792814715409L50.048,85.30194251336876L50.775999999999996,84.87057925104035L51.156,87.82088056587538L51.196,82.08559281935311L51.336,84.51313309735069L51.967999999999996,90.18592082062965L52.268,91.72066738247636L52.724,88.55005492472507L52.888000000000005,87.2128177076808L53.455999999999996,94.15898075522371L53.476,91.28193945659035L53.512,91.0668162332346L53.884,92.3514962855798L53.996,99.2597484793557L54.036,94.65715588845569L54.408,98.44955085824584L54.544,95.9427919382492L54.784,91.76992104498382L55.516,92.49160568027399L55.632000000000005,93.81868970935763L55.716,89.02146213856471L55.744,83.8160503769346L55.976,81.16986943152118L56.224000000000004,80.06457422772985L57.044,81.93990308880771L57.268,85.5158881165979L57.396,87.89301301827417L57.744,90.38136889094343L57.876,93.3662465951099L58.22,95.92058254607046L58.272000000000006,96.47088545636848L58.632,90.93734080121824L58.724000000000004,88.77845251158422L58.796,88.22429533240525L59.376,83.88219390056925L59.632,87.05359896744724L60.236,87.91119430974388L60.339999999999996,89.23263485023537L61.108000000000004,82.30946986430382L61.136,88.43027718873915L61.6,87.14188683517037L61.92,88.73447049431358L62.092,85.90127628786774L62.432,82.91339987840303L62.556,81.56688947156697L62.62,81.69924230263013L62.848,84.3684957247101L63.032,90.99766344434754L63.036,88.83316626195155L63.124,88.3498750617745L63.368,85.15780244890705L63.403999999999996,86.88662616863165L63.612,88.26305712017009L63.623999999999995,89.71865008802764L63.775999999999996,90.35930068094464L63.868,87.8766409850057L63.892,86.17331211423492L63.9,91.8571018067337L64.084,86.908059177836L64.41199999999999,83.79759770991815L64.488,85.82404806114681L64.524,85.89186116872696L64.79599999999999,89.34449466239495L64.804,86.33355215174605L65.044,84.89677033294826L65.67999999999999,90.92244972151275L65.892,96.04680515624139L65.97200000000001,97.57867683230073L66.096,92.7351874235763L66.13199999999999,90.67198406478727L66.268,92.246979663497L66.596,88.15924115045416L66.744,87.4349486819717L67.04,83.03686702679472L67.496,90.24291351575182L67.88,91.36956591569498L67.89999999999999,88.57003884293506L68.044,88.88811956392448L68.16799999999999,91.7127059897585L68.556,89.63305553679486L68.66,90.74752625039112L68.74,89.80424564487274L69.164,94.48109861735425L69.624,92.91981483294917L69.836,89.17692135330648L70.688,91.18213169191249L71.512,91.91406315096597L71.76,87.56496378379094L72.072,84.96097660897391L72.13999999999999,88.67303293727767L72.248,93.50149258722622L72.332,91.9565977427349L72.38,86.50125357228431L72.44,93.64615097950646L72.96,92.38468537396639L73.61200000000001,93.56674076596767L73.628,94.29266718792837L74.02,92.73556962351752L74.18799999999999,94.32855813229534L74.39200000000001,89.19285100295814L74.484,89.89888524052306L74.72,92.25153114698412L75.244,94.47260138453294L75.54,92.36222230113296L76.324,94.77554709623307L76.888,90.4585063201788L77.152,91.72078586951513L77.17999999999999,91.01404844603312L77.284,90.75779936123712L77.356,87.70780216579928L77.592,95.56538615063009L77.792,95.56378344437584L78.53200000000001,97.6353402646846L78.556,90.26899722769656L78.676,87.34774389478443L78.712,92.33082325108575L78.75200000000001,93.04682414321736L79.12,94.62565520637415L79.156,93.03419535179842L79.24,90.39396961700862L79.49600000000001,87.79325156791177L79.57199999999999,83.76920598854521L80.364,83.70929035490691L80.724,87.3639802798387L81.068,81.7418386426423L81.3,80.85351710121954L81.896,81.67689281345085L81.904,83.86564060712263L82.032,86.06144472041372L82.156,86.49060860203888L82.964,92.30029861764423L83.06,91.32025760076232L83.096,87.34134322680109L83.316,86.64734196112796L83.976,93.04635112432386L84.384,93.60330148784963L84.468,96.06042831569106L85,98.25171996491665L85.288,91.76318873249002L85.37599999999999,91.07378896524018L85.444,95.80522607117597L85.628,93.34748892277302L86.024,89.26650481873645L86.792,90.39123240860636L87.236,95.8033797773858L87.24,91.8674267597878L87.432,91.95285714554095L87.6,93.63737617544713L88.268,98.71084894783725L88.392,95.50375324992793L88.52799999999999,88.6731248575953L88.96000000000001,91.90678291073486L89.092,90.49532874435809L89.172,88.80921991354602L89.268,87.36176631740557L89.27199999999999,88.72504188234703L89.284,91.04713825234828L89.36,90.97245660215054L89.62400000000001,91.272918817934L89.77999999999999,90.83337114187277L89.82,88.1876497669947L90.176,97.11773093247007L90.232,95.85301082434411L90.348,98.93005961121412L90.38,100.7748056575137L90.496,96.63235795524582L90.892,96.67851603524008L91.816,97.50245276269983L91.928,94.46017634855312L92.07600000000001,95.96638396255138L92.21600000000001,89.15077113909699L92.264,84.9974528587054L92.52,82.7551382372493L93.06,87.9597553294727L93.27600000000001,88.19816910993032L93.808,88.72593305451258L93.812,84.76625191415896L94.372,84.62786922481985L94.856,81.32865220563014L94.88399999999999,86.69938229952096L95.384,88.21961820264958L95.836,89.43076873386086L96.024,88.67064717629064L96.196,85.47548265468185L96.46799999999999,87.10025718218746L96.68,85.88943693164983L97.088,86.68084710791109L98.104,88.27359775754452L98.128,88.48617110760594L98.56400000000001,85.57748183555354L98.61999999999999,90.12381514160008L98.928,89.78432746558292L98.952,85.09326138871253L99.29599999999999,90.37310917125549L99.388,90.1016038879538L99.668,88.72352287201788L99.756,87.10959910052243L99.888,89.1675963133408L99.984,89.99459878264867L100.14399999999999,86.01818690573573L100.21600000000001,91.16663679287078L100.24,94.60924707415845L100.25200000000001,92.24963340379682L100.556,95.46883555661373L100.56,97.09998982674318L100.74799999999999,96.563651027241L100.87199999999999,93.19111959335723L100.98,92.02832792399833L100.99199999999999,91.91415693162985L101.01199999999999,92.48076781391563L101.296,87.78254936670938L101.34,88.45738961300658L101.536,94.7830193209732L101.764,89.3842346339276L101.944,87.71119724207226L102.108,88.15919401224318L102.16000000000001,91.48310412630953L102.164,88.08409735241841L102.252,93.3721726028878L102.31599999999999,92.9340822082018L102.75999999999999,87.41597639687392L102.84400000000001,83.309045028493L103.11999999999999,86.66947581756425L103.132,90.42461604588219L103.136,93.76978301711671L103.328,98.91918728654261L103.424,95.43605572405264L103.952,89.76592640413526L104.324,90.90055068214943L104.58,93.02582381177074L104.84,90.31823989634589L104.932,94.13464354088828L105.268,91.88952171451405L105.28,86.79657559661004L105.3,89.33542538802584L105.568,89.59333568764185L105.64,91.58512813301358L105.94,94.40166437179728L106.096,95.8183330556803L106.728,94.01477112418729L106.9,92.0068273237128L107.184,90.91416448180551L107.288,97.99450823440955L107.372,100.50894444927458L107.396,98.73957950201562L108.028,94.51429926828702L108.984,88.2145321147213L109.036,93.34180997947274L109.17200000000001,87.43726556265007L109.324,91.98176086880952L109.436,85.58094097219819L109.892,87.55359934474775L110.032,87.15577008429615L110.18,84.49513239206941L110.544,80.84953856076045L111.06400000000001,83.04080493691707L111.364,86.30558445598568L111.724,92.10504369345836L111.73599999999999,88.7123801780196L112.33999999999999,88.30470834687065L112.556,91.29843282291121L112.596,90.11545672648447L112.732,91.3365616049367L112.772,87.76599174296842L112.876,85.45281149361125L113.056,86.90019878276343L113.14800000000001,87.47329734163378L113.448,93.66734287260111L113.524,93.4461812133678L113.712,96.74668092936803L114.164,94.05549206859189L114.36,90.48734488085697L114.684,89.84585358378762L114.728,96.3935456900446L114.80799999999999,96.48628222397853L115.10000000000001,92.943622542929L115.328,90.55980751604518L115.756,94.24990686470676L116.32,90.94736371931081L116.476,92.6671101051369L116.592,93.35552856193773L116.94,98.03214727441545L117.132,92.22335407376335L117.14,97.12533611083059L117.292,91.58668989434258L117.384,96.78427590903293L117.668,96.53609587417036L118.232,95.3225330261349L118.488,96.53682700562234L118.88,92.31709468703126L118.91199999999999,89.14944158280287L119.608,86.2119984810614L119.74000000000001,85.36162737995764L120.036,89.0373820351981L120.192,94.51809451385874L120.536,89.93897024514996L120.928,89.63776369406416L120.97999999999999,90.7920130271532L121.01599999999999,91.79343432538617L121.33200000000001,95.12424380274362L121.56800000000001,95.59063996965733L122.024,95.817312830061L122.08399999999999,92.36971139989512L122.4,81.81380136538873L122.74799999999999,84.56401408034165L123.252,88.7059950418329L123.392,92.55094309252834L123.688,90.16220569850407L124.184,89.22947028303982L124.268,82.8309185494473L124.368,90.59617712911907L124.62400000000001,89.31016850243178L124.68,93.5408453260074L125.172,97.2375510569936L125.216,95.71038897732053L125.616,85.03404992043468L125.884,86.62940739404853L126.684,89.35235447652158L127.19200000000001,90.1225245700301L127.196,95.20403478062279L127.31200000000001,87.4035705227621L127.32000000000001,87.98243303173587L127.71600000000001,93.0254185669053L128.572,92.17384539559056L128.596,92.67425779887778L128.62,87.88328061812366L128.636,92.18458327718524L128.64,88.04090491454569L129.1,89.82340059471589L130.024,92.84948081131257L130.416,93.03666369411634L130.45600000000002,95.28470826800637L130.484,97.34217108163817L130.55599999999998,98.64078184171667L130.96,96.92965245845409L131.304,96.02239254356915L131.668,96.16970150495466L131.676,93.85482605472147L131.804,92.38552437409722L131.876,93.61242420068362L133.00799999999998,90.78080761069643L133.112,94.66286418696991L133.28799999999998,99.2679967562005L133.756,91.12767320630819L133.808,91.42152864073438L134.17600000000002,92.0714068361206L134.292,81.31711123157045L134.448,87.01334799866974L135.88400000000001,94.10486430133045L135.988,88.43552920225059L136.076,89.0747678864169L136.152,89.7218839328389L136.252,92.65120585446958L136.316,94.50268147281052L136.364,95.36862875635174L136.808,102.47757531651703L137.056,94.49882284551171L137.888,94.78919656604116L137.916,92.76870703893653L137.952,94.61681745647043L138.15200000000002,96.53504120706708L138.164,94.79631629108901L138.248,91.33355807852456L138.37199999999999,92.2116496824724L138.448,91.04570474287883L138.992,90.11893049991737L139.316,90.33270683834917L139.32,89.28927728980759L139.456,91.19885245710599L140.00400000000002,90.6085464510321L140.024,93.51309485632177L140.128,91.3326725017905L140.312,94.02284154485939L140.372,91.25179113144445L140.7,93.92206455466014L140.872,90.02597414253272L140.976,95.94026903866599L141.14000000000001,92.55103278970044L141.312,87.9502244807203L141.84,92.45922022443528L141.884,88.34364193786094L142.29199999999997,82.03805975263661L142.45200000000003,87.63975711432306L142.828,88.90578165392404L142.884,88.39435035908417L142.956,88.0475654347193L144.212,90.16663547894072L144.424,93.27378059232659L145.62800000000001,92.82250388624922L145.776,91.91336935140286L146.78799999999998,91.41975697384831L146.892,98.14107042137717L147.23600000000002,97.1816322945591L147.496,89.10960394281364L147.524,95.23102030121218L147.556,94.78447245218116L147.748,94.57501551781748L147.78400000000002,88.91033743664417L148.02,86.49841897275921L148.072,90.42925799719617L148.7,86.17722762603836L148.832,86.93789988624617L149,90.9602009216998L149.74400000000003,91.74534970760666L150.12,92.84294592762187L150.172,93.34306798114892L150.448,92.34129120430062L150.632,94.8627804656071L150.828,87.80861047621026L151.05200000000002,90.26704414198073L151.58,93.40243666356369L151.61200000000002,92.83154128662089L152.012,88.73013636750781L152.06,96.40423911859274L152.14000000000001,96.02595958024074L152.612,99.07678512161857L152.71999999999997,94.71591391698054L152.728,89.1229728659125L153.08800000000002,88.52230550528358L153.36800000000002,90.05989092875L153.476,87.2639886801748L153.504,89.74262220533541L153.616,98.89107959074886L154.16,99.72580412270493L154.52800000000002,95.79582104707876L154.916,95.82482747092915L154.952,93.09278898629589L155,95.98058329816486L155.07600000000002,95.83553843257323L155.144,90.92557888840138L155.35999999999999,91.66315523633062L155.408,93.09357400327146L155.50799999999998,92.98396206134092L155.656,89.73933427949865L156.072,89.60054835212301L156.148,91.96266632874054L156.17600000000002,90.01245643138434L156.35999999999999,98.0867486848804L156.56799999999998,98.1897672494872L156.57999999999998,99.76328044895075L156.72,97.0854739818796L157.448,90.90575025998501L157.452,95.80383839203684L157.536,98.73894395109278L157.756,96.32275320575393L158.104,99.66167258194541L158.108,95.01818003518255L158.26,95.3218773070745L158.4,88.88193797730042L158.43599999999998,77.41675608433863L159.136,81.52767552064407L159.516,85.90993534282772L160.32000000000002,92.19813561174827L160.464,94.5724586995456L160.712,92.49842839431842L161.02,88.28633633728076L161.336,90.70742376014739L161.42000000000002,90.54798374274462L161.452,93.46374770700389L161.504,94.20835772454413L161.512,93.97051634847922L161.928,97.21350256955505L161.936,97.71396182272365L162.284,91.66694116052108L162.296,91.12748394165109L163.08800000000002,92.59819881053967L163.116,96.3476523204577L163.38,93.011330468889L163.39999999999998,88.88975514855142L163.816,86.24465178660246L163.88400000000001,88.83955452449139L164.152,93.32167636398684L164.232,93.54778456595069L164.66,94.5965691370161L164.928,94.78102066769551L164.988,96.27998671206446L165.052,96.71191679282552L165.104,97.60297360207775L165.244,89.78680865160311L165.34799999999998,88.97281270618251L166.28,83.6709187161625L166.52,88.66645616362695L166.64000000000001,86.82943429273489L166.71599999999998,91.4211235196717L167.072,93.36242748685642L167.228,93.6034827124355L167.24400000000003,92.97901763744818L167.28,91.5989215554456L167.404,93.54037753711106L167.632,91.18496211034035L168.216,87.92552321232543L168.68,89.24267297909965L168.812,88.15095509723609L169.248,93.33639446756712L169.82399999999998,97.34167192376538L169.96,97.45121108768514L171.05999999999997,95.51096820877868L171.232,95.84993923215197L171.508,96.40026937310772L172.772,91.35576633921193L172.992,79.85260506338433L173.052,84.86782515446279L173.464,83.91118694066961L173.76,87.803761395931L173.824,89.96030256814943L173.868,88.76853176633826L174.00400000000002,92.89509607243723L174.324,86.07909382395856L174.56799999999998,90.97447770722457L174.572,95.24374455623477L174.804,95.25956716068177L174.88400000000001,98.28612028794043L175.05599999999998,93.17954866907925L175.364,90.30620764268596L175.928,91.64151649101471L176.02,85.93480978741584L176.02399999999997,82.7329577155968L176.568,78.14554753470782L176.952,82.00761382203319L177.188,88.89545109999789L177.23199999999997,89.21348974664576L178.368,92.12464245772104L178.81199999999998,93.56156056771124L178.924,89.05810064345266L179.12800000000001,89.31060628336469L179.516,87.07105203295826L179.64,91.16184616461443L179.66000000000003,91.84558230146794L179.728,97.20193225327151L180.084,99.96589192737947L180.89999999999998,97.18509379500038L181.188,90.87471859618357L181.60799999999998,91.61517561533648L181.95600000000002,89.20767975961327L182.00400000000002,97.28912900635696L182.132,98.3029091808146L182.244,98.1909894545642L182.592,97.71706452845142L182.632,90.71826934622887L182.656,90.77886772517658L182.672,88.17915676334081L182.79600000000002,92.027126974455L182.804,93.14015111600845L182.85999999999999,87.15118233010465L182.88400000000001,92.30044119623479L183.176,89.60024679820047L184.16400000000002,97.77712105465118L184.516,95.57458348007312L184.62,95.3653890593726L184.98000000000002,97.60695865058176L185.088,93.89256407680078L185.368,91.04349121249892L185.64000000000001,93.39011205194697L185.968,94.48573714350646L186.16,99.4779425779282L186.224,98.70967049594516L186.44,97.30689916608212L187.09199999999998,96.44955746172356L187.124,97.529297665587L187.38000000000002,95.19318425883705L187.488,94.69056325572643L188.02800000000002,90.77591620813556L188.056,88.75751175719945L188.12800000000001,88.38533408068686L188.54,87.902452346224L188.636,88.62611453803683L188.67600000000002,92.07838994188491L188.732,88.88742486669649L188.98,91.36353800793903L189.35999999999999,94.77718939125788L189.804,97.16064230525643L189.876,95.78252833321186L189.916,92.13944910785253L190,86.18407332671102L190.436,91.21769113881837L190.716,89.64805877413423L191.10799999999998,90.25613999966426L191.72799999999998,92.80913725735928L191.85999999999999,95.63693122888915L191.928,95.06459251418896L192.084,96.4808637867879L193.11599999999999,93.03369800153442L193.9,94.72994237365168L194.076,95.2452764870038L194.216,97.38671493776503L194.33599999999998,95.9761238160602L194.43200000000002,101.26012819664906L194.56,98.66382521663446L194.848,94.76954261704886L194.956,95.92998667385939L194.97199999999998,95.3213835992024L195.03199999999998,93.94189475283656L195.136,95.2514322465994L195.224,94.97524568714726L195.90800000000002,91.34081176565901L195.924,97.13773560790311L195.976,98.34248243014866L196.296,94.57866153145345L196.31199999999998,92.3368945468933L196.456,91.51888666328614L196.804,95.5635255013515L196.832,92.25505861727055L197.008,93.20499380759988L197.22000000000003,95.23295105178711L197.376,91.13020282673571L197.61999999999998,94.8660888581737L198.008,100.19814534123326L198.16,92.81651728114834L198.344,90.19604681468816L198.348,88.6761909445334L198.584,87.56760677100472L198.92,85.42832713843138L199.01600000000002,87.92203051043005L199.212,86.39072338934213L199.268,85.81060264703913L199.85999999999999,88.33822285531333L199.98,88.17937576889021L200.216,83.67796590875997L200.42,93.30757517666466L201.244,93.72869508177547L201.28,92.03025666183535L201.49200000000002,94.25152428213539L202.032,90.89972298183311L202.176,94.0945844747917L202.588,95.33085774053907L202.636,94.86985287350284L203.088,97.52492536355176L203.36,97.02306410103513L203.5,98.35522299545688L204.10000000000002,98.05928656064083L204.136,97.50819369198447L204.244,98.43670969511012L204.364,93.95134166541659L204.5,94.92876639642097L204.68,99.80820724652874L204.712,96.6729878073136L204.82399999999998,91.0331369856119L205.276,86.96214706296445L205.33999999999997,86.76560048696231L205.58800000000002,88.44296992562313L205.656,87.66854663814367L206,88.77356148317611L206.036,91.38635667178129L206.788,87.5499800730532L206.996,88.70903770737563L208.148,91.42657802946992L208.232,91.79030005483406L208.79600000000002,89.041733629397L208.968,90.53917566233363L209.18,92.97860429342681L209.208,91.3275445369249L209.28799999999998,90.0578182069877L209.392,86.74146437695141L209.752,86.81895695239614L209.96,83.59121345824188L210.2,86.84651129332893L210.228,91.21549776606389L210.34400000000002,91.38467388279811L210.55599999999998,87.52361975745903L210.572,83.11743826530305L210.62400000000002,87.55429720677094L210.68,85.26166594384405L210.77599999999998,95.03077440952238L210.824,97.85148226198541L210.952,92.3934959636747L210.98,93.67926922718402L211.036,90.3864207034094L211.488,92.09620946912663L211.532,91.75083515088973L211.55599999999998,91.41485212946664L211.72,95.97587284746605L211.736,93.80502151312135L211.792,96.0351493338448L211.884,99.55459711907518L212.308,87.1087289974583L212.48000000000002,86.65134925875026L212.728,85.50299160500144L212.79199999999997,83.13611122143135L212.91199999999998,89.2290947018377L213.68800000000002,91.06294451107455L213.868,97.71386737078353L214.06,96.03544711619571L214.09199999999998,95.21119671076508L214.524,93.83031824713927L214.60399999999998,91.0704995887636L215.38,93.65456961257213L215.932,94.22480942882868L217.092,89.41597103403672L217.308,85.86081435755888L217.408,90.23154675529003L217.912,97.03850786903857L218.236,94.19734402787303L218.48,90.18921299631367L218.55599999999998,89.24746556672436L218.792,89.41909017797101L219.256,86.20229575297707L219.572,88.60928386486454L220.028,91.35620097420741L220.228,94.19091916622003L220.376,89.03122590387629L220.6,93.10940615656834L220.664,92.16093455030239L220.784,83.51592463894914L221.076,90.92029218342442L221.53199999999998,92.62637167731845L221.884,92.35259782290413L222.156,97.69741191754314L222.52,94.64668096953375L222.52800000000002,96.65906831415738L222.552,89.44769185538438L223.27999999999997,91.88118435475437L223.92,88.0810629745317L224.064,91.46212996840434L224.524,88.82437621712658L224.54,86.88392066931709L224.912,88.40427334771147L225.132,83.6076654700374L225.37199999999999,89.41332377123447L225.752,89.41667417244679L226.56799999999998,95.32449283812383L227.00400000000002,90.50596749433244L227.18,93.20560996799686L227.196,93.68853574913156L227.22799999999998,89.70502425862199L227.82,95.21954552193192L228.008,95.77893264686888L228.27200000000002,90.68784268138305L228.28,87.80009086273608L228.952,92.95706403340398L229.172,92.54981010487973L229.284,92.34448419887602L229.416,94.24150588320957L229.512,93.85082711581747L229.55200000000002,90.61765977504467L230.04399999999998,86.91332963444363L230.11599999999999,85.91597156606656L230.416,90.35850020457829L230.568,92.1159097254844L230.732,93.35547220591138L231.136,95.41079509665626L231.212,96.40714588886534L231.62800000000001,96.9409463639619L231.76000000000002,91.2826107213236L232.016,90.34480950530394L232.056,89.47736088094724L232.37199999999999,94.17347967897425L232.432,94.01394539519887L232.57999999999998,95.131259526281L233.60799999999998,94.80912378637102L233.64,95.77521567349498L233.876,89.82928405764618L233.932,88.87630209543062L234.596,93.34153083573432L234.828,93.2599540734926L234.85600000000002,95.44349416879648L234.872,96.52599504940412L234.88799999999998,95.66988980861127L235.29999999999998,89.95292830998672L235.452,89.01582272848471L235.584,82.8201064395963L235.628,89.10467313576096L236.09599999999998,93.86464202194425L236.292,90.60405257099278L236.352,92.25838405819778L236.43599999999998,93.84573316414382L236.49599999999998,98.55878637218014L236.736,88.83402723540982L236.968,92.69843101066422L237.476,90.78662677027032L237.868,90.93667082916048L238.36,90.35980158883538L238.504,82.27175900124435L238.592,90.88389087666825L238.768,93.75455926507564L238.82000000000002,96.2270693984619L238.88,92.20087746900268L239.23200000000003,92.14036365104883L239.456,95.10261173578006L239.75199999999998,90.15393252570571L239.932,90.47083621143784L240.776,96.80271099638634L241.2,98.71405648846442L241.212,94.05878355776676L241.316,86.1409366576398L241.44,87.85674722960738L242.156,91.9910453603932L242.17600000000002,91.15763092793635L242.20800000000003,93.81415205930242L242.85600000000002,95.94807988723855L243.06799999999998,90.64161743593657L243.184,93.9577808539417L243.484,90.79100295545737L243.85600000000002,93.88677392865469L243.868,91.56634373226909L244.368,91.81140565609425L245.22,92.28448937258416L245.352,94.31647719574745L245.52,95.59904543419346L245.648,100.72124092972078L245.732,100.12700759169935L245.98399999999998,96.78319136856484L246.032,99.82265976285032L246.088,98.0143897057479L246.11599999999999,95.38755607610379L246.12400000000002,93.21165125850102L246.436,95.34134849359549L247.15200000000002,91.72671993523811L247.284,89.69730236977324L247.428,87.66521444112054L247.55599999999998,92.15365654820198L248,97.88919992085691L248.148,96.75679435513257L248.952,96.43508216727876L249.048,95.53666320913496L249.20000000000002,95.48540852232851L249.224,102.060744062448L249.31199999999998,95.47128411733178L249.596,85.00386811139026L249.88,91.89260076070929L249.94,90.57668511501016L250.076,93.29893916386999L250.304,99.57850815259599L250.74800000000002,94.1506207835864L250.89999999999998,90.72629445387071L251.044,84.95454377170292L251.484,88.55638441464833L252.364,91.33107746733148L253.184,91.12798787291598L253.388,91.45601624212117L253.764,93.3281060621825L254.228,91.8382682946734L254.448,94.13650950356794L254.56799999999998,93.91918071129604L254.58399999999997,99.0817479897659L254.752,96.7820736103726L254.88,95.37640059074596L254.988,92.7633810572674L255.05599999999998,93.16708413439096L255.11599999999999,92.22921417043865L255.156,92.85361818484223L255.49200000000002,96.81204185969685L256.06,94.92849160961542L256.124,94.79227553923269L256.136,93.4601716752013L256.14799999999997,91.87304483861688L256.236,93.62329106218196L256.696,88.07236030987845L257.06,93.46374473626582L257.248,95.31800619635086L257.44,95.19573619766892L257.732,97.61883635284819L258.308,100.0810905442376L258.5,98.80718010817402L258.564,93.86328808638116L258.684,96.699584799842L258.88,94.54731405129192L258.932,94.79633997172212L258.952,93.44223772937116L259.008,93.47964992674623L259.276,97.2489272555854L259.452,93.5209010053364L259.56,90.31568096212669L259.86,90.04702898819521" style="fill: none;" fill="none"></path></g></g></g></g><g opacity="0.2"><g><g><g><path stroke="rgb(255, 112, 67)" stroke-width="2px" d="M20.172,54.1841320514679L20.183999999999997,46.83324153423311L20.288,14.189096283912676L20.38,54.4825278043747L20.671999999999997,66.41936583518982L20.92,62.48479635715485L20.94,68.07214410305023L21.024,60.29570145606995L21.096,58.0054119348526L21.236,73.74688334465027L21.244,75.0762059211731L21.276,78.6169248342514L21.9,88.67963064908982L22.148,74.99119628667832L22.32,93.9085268497467L22.348,77.91250396966934L22.54,83.3861218214035L22.592000000000002,79.03434998989106L22.86,85.32283492088318L22.892000000000003,74.32384015321732L23.212,78.63854194879532L23.236,80.55753166675568L23.348,74.11027367115021L23.888,74.73582257032395L24.06,78.17894883155823L24.267999999999997,74.77079720497132L24.42,82.42286319732666L24.724,92.31080193519593L25.048000000000002,70.0426913022995L25.267999999999997,88.4351371049881L25.28,69.64390726089478L25.336,90.64857048988343L25.352,64.27874631881714L25.543999999999997,75.15192152261734L25.572,96.30217535495758L25.748,88.01218433380127L25.868,73.34071500301361L26.212,67.43365676403046L26.34,68.79914755821228L26.768,93.28048468828202L26.939999999999998,72.52919526100159L26.952,69.64143521785736L27.38,74.18030251264572L27.512,71.72995085716248L27.672,86.45239944458008L27.792,99.6671882390976L28.148,65.5404325246811L28.388,65.32228798866272L28.752,86.05428380966187L28.8,80.60567284822464L28.928,81.54957420825959L29.052,81.72598577737809L29.232000000000003,91.26268221139908L29.56,65.58999009132386L29.747999999999998,79.96262867450714L29.816,82.58647425174713L29.824,77.64941174983979L29.844,70.30527956485749L29.944,91.67765654325486L29.948,90.28348262310028L29.996000000000002,82.16343660354615L30.016000000000002,74.12823576927185L30.132,81.68954701423645L30.744,72.98668767213822L30.964,85.87870509624481L31.872,91.98493785858155L32.156,95.58179761171341L32.168,83.79865593910218L32.647999999999996,101.68795080184937L32.924,70.45131046772003L32.988,77.93565948009491L32.992000000000004,98.33543075323105L33.224000000000004,90.8193642616272L33.924,76.20610464811325L34.476,85.85063202381134L34.484,71.33698089122773L34.684000000000005,77.42127825021744L34.967999999999996,75.32583982944489L35.26,92.44865281581879L35.288000000000004,67.12989253997803L35.716,84.17819411754608L35.827999999999996,75.72050203084946L36.147999999999996,73.02026714086533L36.396,87.87029649019242L36.788,79.09689373970032L36.931999999999995,88.18069703578949L37.272,88.05651135444641L37.604,72.34669907093048L37.972,80.76731581687928L38.040000000000006,85.72014952898026L38.124,75.1116314649582L38.66,90.0771996498108L38.676,71.62362648248673L38.708,102.25702465772629L39.156,94.92812259197235L39.211999999999996,88.34034008979798L39.364,87.21551276445389L39.58,87.13437564373017L39.888000000000005,97.94767541885376L40.204,82.77398879528046L40.212,66.46784121990204L40.428,83.66584993600846L40.540000000000006,88.85185672044754L41.38399999999999,96.25367344617844L41.44,81.74396909475327L41.684,93.43297154903412L42.2,80.92803044319153L42.72,78.73110563755036L42.896,82.85759265422821L43.236000000000004,87.62634403705597L43.46,94.038791847229L43.488,92.84407360553742L43.632,84.25690163373947L43.964,86.50190926790238L44.528,102.45028431415558L44.804,83.38776631355286L44.879999999999995,88.10987777709961L45.16,81.35805983543396L45.251999999999995,89.86197806596756L45.508,69.55126399993897L46.083999999999996,85.83008117675782L46.300000000000004,91.5622025847435L46.416,89.26305932998658L46.788,99.4527358531952L46.800000000000004,78.14200611114502L46.848,88.89010442495346L47.419999999999995,91.94580955505371L47.868,91.61980224847794L47.972,74.38409222364426L48.46,94.67710412740708L48.624,83.9897087931633L49.248,95.28788442611695L49.532000000000004,100.45366395711899L49.804,94.95013756752014L49.844,103.00670619010926L49.856,86.16682542562485L49.916000000000004,74.30840314626694L50.048,84.78296406269074L50.775999999999996,84.22353435754776L51.156,92.2463325381279L51.196,73.4826611995697L51.336,88.15444351434708L51.967999999999996,98.6951024055481L52.268,94.02278722524643L52.724,83.79413623809815L52.888000000000005,85.20696188211441L53.455999999999996,104.57822532653809L53.476,86.96637750864029L53.512,90.74413139820099L53.884,94.2785163640976L53.996,109.62212677001953L54.036,87.75326700210572L54.408,104.13814331293106L54.544,92.18265355825424L54.784,85.51061470508576L55.516,93.57413263320923L55.632000000000005,95.8093157529831L55.716,81.82562078237534L55.744,76.00793273448944L55.976,77.20059801340103L56.224000000000004,78.40663142204285L57.044,84.7528963804245L57.268,90.87986565828324L57.396,91.45870037078858L57.744,94.11390269994736L57.876,97.84356315135956L58.22,99.7520864725113L58.272000000000006,97.2963398218155L58.632,82.63702381849289L58.724000000000004,85.54012007713318L58.796,87.39305956363678L59.376,77.36904175281525L59.632,91.81070656776429L60.236,89.19758732318878L60.339999999999996,91.2147956609726L61.108000000000004,71.9247223854065L61.136,97.61148817539215L61.6,85.2093013048172L61.92,91.12334598302841L62.092,81.65148497819901L62.432,78.43158526420594L62.556,79.54712386131287L62.62,81.89777154922486L62.848,88.37237585783005L63.032,100.94141502380371L63.036,85.58642048835755L63.124,87.62493826150894L63.368,80.36969352960587L63.403999999999996,89.47986174821854L63.612,90.32770354747773L63.623999999999995,91.902039539814L63.775999999999996,91.32027657032013L63.868,84.15265144109726L63.892,83.61831880807877L63.9,100.38278634548188L64.084,79.48449523448944L64.41199999999999,79.13190550804138L64.488,88.86372358798981L64.524,85.9935808300972L64.79599999999999,94.52344490289688L64.804,81.81713838577271L65.044,82.74159760475159L65.67999999999999,99.96096880435944L65.892,103.73333830833435L65.97200000000001,99.87648434638977L66.096,85.46995331048966L66.13199999999999,87.5771790266037L66.268,94.60947306156159L66.596,82.0276333808899L66.744,86.34850997924805L67.04,76.43974454402924L67.496,101.05198324918747L67.88,93.05954451560974L67.89999999999999,84.37074823379517L68.044,89.36524064540863L68.16799999999999,95.94958562850952L68.556,86.5135798573494L68.66,92.41923232078553L68.74,88.38932473659516L69.164,101.49637807607651L69.624,90.57788915634156L69.836,83.56258113384247L70.688,94.18994719982148L71.512,93.0119603395462L71.76,81.04131473302841L72.072,81.05499584674835L72.13999999999999,94.24111742973328L72.248,100.74418206214905L72.332,89.63925547599793L72.38,78.31823731660843L72.44,104.36349709033966L72.96,90.49248696565628L73.61200000000001,95.33982385396958L73.628,95.38155682086945L74.02,90.39992327690125L74.18799999999999,96.71804089546204L74.39200000000001,81.48929030895233L74.484,90.95793659687043L74.72,95.78050000667572L75.244,97.80420674085617L75.54,89.19665367603302L76.324,98.39553428888321L76.888,83.98294515609741L77.152,93.6142051935196L77.17999999999999,89.95394231081009L77.284,90.37342573404312L77.356,83.13280637264252L77.592,107.35176212787628L77.792,95.56137938499451L78.53200000000001,100.74267549514771L78.556,79.21948267221451L78.676,82.96586389541626L78.712,99.80544228553772L78.75200000000001,94.1208254814148L79.12,96.99390180110932L79.156,90.64700556993485L79.24,86.43363101482392L79.49600000000001,83.89217449426651L79.57199999999999,77.7331376194954L80.364,83.61941690444947L80.724,92.84601516723633L81.068,73.30862618684769L81.3,79.52103478908539L81.896,82.9119563817978L81.904,87.14876229763031L82.032,89.35515089035034L82.156,87.13435442447663L82.964,101.01483364105225L83.06,89.85019607543946L83.096,81.37297166585923L83.316,85.60634006261826L83.976,102.64486486911774L84.384,94.43872703313828L84.468,99.74611855745316L85,101.53865743875504L85.288,82.0303918838501L85.37599999999999,90.03968931436539L85.444,102.90238173007965L85.628,89.66088320016861L86.024,83.14502866268158L86.792,92.07832379341126L87.236,103.92160083055497L87.24,85.96349723339081L87.432,92.08100272417069L87.6,96.1641547203064L88.268,106.32105810642243L88.392,90.69310970306397L88.52799999999999,78.42718226909638L88.96000000000001,96.75726999044419L89.092,88.37814749479294L89.172,86.28005666732788L89.268,85.19058592319489L89.27199999999999,90.76995522975922L89.284,94.53028280735016L89.36,90.86043412685395L89.62400000000001,91.7236121416092L89.77999999999999,90.17404962778092L89.82,84.21906770467758L90.176,110.51285268068314L90.232,93.95593066215515L90.348,103.54563279151917L90.38,103.54192472696305L90.496,90.41868640184403L90.892,96.74775315523148L91.816,98.73835785388947L91.928,89.89676172733307L92.07600000000001,98.22569538354874L92.21600000000001,78.92735190391541L92.264,78.76747543811798L92.52,79.39166630506516L93.06,95.76668096780777L93.27600000000001,88.55578978061676L93.808,89.51757897138596L93.812,78.82673020362854L94.372,84.42029519081116L94.856,76.37982667684555L94.88399999999999,94.75547744035721L95.384,90.49997205734253L95.836,91.2474945306778L96.024,87.5304648399353L96.196,80.68273587226868L96.46799999999999,89.5374189734459L96.68,84.07320655584336L97.088,87.86796237230301L98.104,90.66272373199463L98.128,88.80503113269806L98.56400000000001,81.21444792747498L98.61999999999999,96.94331510066986L98.928,89.27509595155716L98.952,78.05666227340699L99.29599999999999,98.29288084506989L99.388,89.69434596300125L99.668,86.65640134811402L99.756,84.68871344327927L99.888,92.25459213256836L99.984,91.23510248661042L100.14399999999999,80.05356909036637L100.21600000000001,98.8893116235733L100.24,99.77316249608994L100.25200000000001,88.7102128982544L100.556,100.29763878583908L100.56,99.54672123193741L100.74799999999999,95.75914282798767L100.87199999999999,88.13232244253159L100.98,90.28414041996002L100.99199999999999,91.74290044307709L101.01199999999999,93.33068413734436L101.296,80.73522169589997L101.34,89.4696499824524L101.536,104.27146388292313L101.764,81.28605760335923L101.944,85.20164115428925L102.108,88.83118916749955L102.16000000000001,96.46896929740906L102.164,82.98558719158173L102.252,101.30428547859192L102.31599999999999,92.2769466161728L102.75999999999999,79.13881767988205L102.84400000000001,77.14864797592163L103.11999999999999,91.71012200117111L103.132,96.05732638835907L103.136,98.78753347396851L103.328,106.64329369068146L103.424,90.21135838031769L103.952,81.26073242425919L104.324,92.60248709917069L104.58,96.2137335062027L104.84,86.25686402320862L104.932,99.85924900770188L105.268,88.5218389749527L105.28,79.15715641975403L105.3,93.14370007514954L105.568,89.98020113706589L105.64,94.57281680107117L105.94,98.62646872997284L106.096,97.94333608150482L106.728,91.30942822694779L106.9,88.9949116230011L107.184,89.27517021894455L107.288,108.61502386331559L107.372,104.28059877157212L107.396,96.08553208112717L108.028,88.1763789176941L108.984,78.76488138437271L109.036,101.03272677659989L109.17200000000001,78.58044893741608L109.324,98.79850382804871L109.436,75.97971112728119L109.892,90.51258690357209L110.032,86.55902619361878L110.18,80.50417585372925L110.544,75.381147813797L111.06400000000001,86.32770450115204L111.364,91.20275373458863L111.724,100.80423254966736L111.73599999999999,83.62338490486145L112.33999999999999,87.69320060014725L112.556,95.78901953697205L112.596,88.34099258184433L112.732,93.16821892261505L112.772,82.41013695001602L112.876,81.9830411195755L113.056,89.0712797164917L113.14800000000001,88.33294517993927L113.448,102.95841116905213L113.524,93.11443872451783L113.712,101.69743050336838L114.164,90.01870877742768L114.36,85.13512409925461L114.684,88.8836166381836L114.728,106.21508384943009L114.80799999999999,96.62538702487946L115.10000000000001,87.62963302135468L115.328,86.98408497571945L115.756,99.78505588769913L116.32,85.99354900121689L116.476,95.24672968387604L116.592,94.38815624713898L116.94,105.04707534313202L117.132,83.51016427278519L117.14,104.47830916643143L117.292,83.2787205696106L117.384,104.58065493106842L117.668,96.16382582187653L118.232,93.50218875408173L118.488,98.35826797485352L118.88,85.9874962091446L118.91199999999999,84.39796192646027L119.608,81.80583382844925L119.74000000000001,84.086070728302L120.036,94.55101401805878L120.192,102.73916323184967L120.536,83.0702838420868L120.928,89.18595386743546L120.97999999999999,92.5233870267868L121.01599999999999,93.2955662727356L121.33200000000001,100.12045801877976L121.56800000000001,96.29023422002793L122.024,96.1573221206665L122.08399999999999,87.1983092546463L122.4,65.97993631362915L122.74799999999999,88.689333152771L123.252,94.91896648406983L123.392,98.31836516857148L123.688,86.57909960746765L124.184,87.83036715984345L124.268,73.23309094905854L124.368,102.24406499862671L124.62400000000001,87.38115556240082L124.68,99.88686056137085L125.172,102.7826096534729L125.216,93.41964585781098L125.616,69.0195413351059L125.884,89.0224436044693L126.684,93.43677510023117L127.19200000000001,91.27777971029282L127.196,102.82630009651184L127.31200000000001,75.70287413597107L127.32000000000001,88.85072679519654L127.71600000000001,100.58989686965943L128.572,90.89648563861847L128.596,93.4248764038086L128.62,80.6968148469925L128.636,98.63653726577759L128.64,81.8253873705864L129.1,92.49714411497116L130.024,97.38860113620758L130.416,93.317438018322L130.45600000000002,98.6567751288414L130.484,100.42836530208588L130.55599999999998,100.58869798183441L130.96,94.36295838356018L131.304,94.66150267124176L131.668,96.39066494703293L131.676,90.38251287937165L131.804,90.18157185316086L131.876,95.4527739405632L133.00799999999998,86.53338272571564L133.112,100.48594905138016L133.28799999999998,106.17569561004639L133.756,78.91718788146973L133.808,91.86231179237366L134.17600000000002,93.04622412919998L134.292,65.18566782474518L134.448,95.5577031493187L135.88400000000001,104.7421387553215L135.988,79.93152655363083L136.076,90.03362591266632L136.152,90.69255800247193L136.252,97.04518873691559L136.316,97.27989490032196L136.364,96.66754968166352L136.808,113.14099515676499L137.056,82.53069413900376L137.888,95.22475714683533L137.916,89.73797274827957L137.952,97.3889830827713L138.15200000000002,99.41237683296204L138.164,92.18822891712189L138.248,86.13942075967789L138.37199999999999,93.52878708839417L138.448,89.29678733348847L138.992,88.72876913547516L139.316,90.65337134599686L139.32,87.72413296699524L139.456,94.06321520805359L140.00400000000002,89.72308744192124L140.024,97.86991746425629L140.128,88.0620389699936L140.312,98.05809510946274L140.372,87.09521551132202L140.7,97.92747468948365L140.872,84.18183852434159L140.976,104.81171138286591L141.14000000000001,87.46717841625214L141.312,81.04901201725006L141.84,99.22271384000778L141.884,82.17027450799942L142.29199999999997,72.57968647480011L142.45200000000003,96.04230315685273L142.828,90.8048184633255L142.884,87.62720341682434L142.956,87.527388048172L144.212,93.34524054527283L144.424,97.9344982624054L145.62800000000001,92.14558882713318L145.776,90.5496675491333L146.78799999999998,90.67933840751648L146.892,108.22304059267044L147.23600000000002,95.74247510433197L147.496,77.00156141519547L147.524,104.41314483880997L147.556,94.11465067863465L147.748,94.26083011627198L147.78400000000002,80.41332031488419L148.02,82.88054127693177L148.072,96.32551653385163L148.7,79.79918206930161L148.832,88.07890827655793L149,96.99365247488022L149.74400000000003,92.92307288646698L150.12,94.48934025764466L150.172,94.09325106143952L150.448,90.83862603902817L150.632,98.64501435756684L150.828,77.22735549211502L151.05200000000002,93.95469464063645L151.58,98.10552544593811L151.61200000000002,91.97519822120667L152.012,82.5780289888382L152.06,107.91539324522019L152.14000000000001,95.45854027271271L152.612,103.6530234336853L152.71999999999997,88.1746071100235L152.728,80.73356128931046L153.08800000000002,87.62130446434021L153.36800000000002,92.36626906394959L153.476,83.07013530731201L153.504,93.46057249307633L153.616,112.61376566886902L154.16,100.97789092063904L154.52800000000002,89.90084643363953L154.916,95.86833710670471L154.952,88.99473125934601L155,100.31227476596833L155.07600000000002,95.6179711341858L155.144,83.56063957214356L155.35999999999999,92.76951975822449L155.408,95.23920215368271L155.50799999999998,92.81954414844513L155.656,84.87239260673523L156.072,89.39236946105957L156.148,95.50584329366684L156.17600000000002,87.08714158535004L156.35999999999999,110.19818706512451L156.56799999999998,98.3442950963974L156.57999999999998,102.12355024814606L156.72,93.06876428127289L157.448,81.6361646771431L157.452,103.1509705901146L157.536,103.14160228967667L157.756,92.69846708774567L158.104,104.67005164623261L158.108,88.0529412150383L158.26,95.77742321491242L158.4,79.22202898263932L158.43599999999998,60.21898324489594L159.136,87.69405467510224L159.516,92.48332507610321L160.32000000000002,101.63043601512909L160.464,98.13394333124161L160.712,89.38738293647766L161.02,81.96819825172425L161.336,94.33905489444733L161.42000000000002,90.30882371664048L161.452,97.8373936533928L161.504,95.3252727508545L161.512,93.61375428438187L161.928,102.07798190116883L161.936,98.4646507024765L162.284,82.59641016721726L162.296,90.3182981133461L163.08800000000002,94.80427111387253L163.116,101.97183258533478L163.38,88.00684769153595L163.39999999999998,82.70739216804505L163.816,82.27699674367905L163.88400000000001,92.73190863132477L164.152,100.04485912322998L164.232,93.88694686889649L164.66,96.1697459936142L164.928,95.0576979637146L164.988,98.52843577861786L165.052,97.35981191396714L165.104,98.93955881595612L165.244,78.06256122589112L165.34799999999998,87.75181878805161L166.28,75.71807773113251L166.52,96.15976233482361L166.64000000000001,84.07390148639679L166.71599999999998,98.30865736007691L167.072,96.27438343763352L167.228,93.96506555080414L167.24400000000003,92.0423200249672L167.28,89.52877743244171L167.404,96.45256150960923L167.632,87.65183897018433L168.216,83.03636486530304L168.68,91.21839762926102L168.812,86.51337827444077L169.248,101.11455352306366L169.82399999999998,103.34958810806275L169.96,97.61551983356476L171.05999999999997,92.60060389041901L171.232,96.35839576721192L171.508,97.22576458454132L172.772,83.78901178836823L172.992,62.59786314964295L173.052,92.39065529108048L173.464,82.47622961997986L173.76,93.64262307882309L173.824,93.19511432647705L173.868,86.98087556362152L174.00400000000002,99.0849425315857L174.324,75.85509045124054L174.56799999999998,98.31755353212357L174.572,101.64764482975006L174.804,95.2833010673523L174.88400000000001,102.82594997882843L175.05599999999998,85.51969124078751L175.364,85.99619610309601L175.928,93.64447976350785L176.02,77.37474973201752L176.02399999999997,77.9301796078682L176.568,71.26443226337433L176.952,87.80071325302124L177.188,99.22720701694489L177.23199999999997,89.69054771661759L178.368,96.49137152433396L178.81199999999998,95.71693773269654L178.924,82.30291075706482L179.12800000000001,89.68936474323273L179.516,83.71172065734864L179.64,97.2980373620987L179.66000000000003,92.8711865067482L179.728,105.23645718097687L180.084,104.11183143854142L180.89999999999998,93.01389659643174L181.188,81.40915579795838L181.60799999999998,92.72586114406586L181.95600000000002,85.59643597602845L182.00400000000002,109.41130287647248L182.132,99.82357944250107L182.244,98.0231098651886L182.592,97.00617713928223L182.632,80.22007657289505L182.656,90.86976529359818L182.672,84.27959032058716L182.79600000000002,97.79908229112625L182.804,94.80968732833863L182.85999999999999,78.16772915124893L182.88400000000001,100.02432949543L183.176,85.54995520114899L184.16400000000002,110.04243243932724L184.516,92.27077711820603L184.62,95.05159742832184L184.98000000000002,100.96931303739548L185.088,88.3209722161293L185.368,86.76988191604615L185.64000000000001,96.91004331111908L185.968,96.12917478084564L186.16,106.96625072956085L186.224,97.55726237297058L186.44,95.20274217128754L187.09199999999998,95.1635449051857L187.124,99.14890797138214L187.38000000000002,91.68901414871216L187.488,93.93663175106049L188.02800000000002,84.90394563674927L188.056,85.72990508079529L188.12800000000001,87.82706756591797L188.54,87.17812974452973L188.636,89.71160782575608L188.67600000000002,97.25680304765702L188.732,84.10097725391388L188.98,95.07770771980286L189.35999999999999,99.89766646623612L189.804,100.73582167625428L189.876,93.71535737514496L189.916,86.67483026981354L190,77.25100965499878L190.436,98.76811785697937L190.716,87.293610227108L191.10799999999998,91.16826183795929L191.72799999999998,96.63863314390183L191.85999999999999,99.87862218618393L191.928,94.20608444213867L192.084,98.60527069568634L193.11599999999999,87.86294932365418L193.9,97.27430893182755L194.076,96.01827765703202L194.216,100.59887261390686L194.33599999999998,93.86023713350296L194.43200000000002,109.18613476753235L194.56,94.76937074661255L194.848,88.92811871767044L194.956,97.67065275907517L194.97199999999998,94.40847898721695L195.03199999999998,91.87266148328781L195.136,97.21573848724366L195.224,94.56096584796906L195.90800000000002,85.88916088342667L195.924,105.83312137126923L195.976,100.149602663517L196.296,88.93293018341065L196.31199999999998,88.9742440700531L196.456,90.29187483787537L196.804,101.63048375844956L196.832,87.29235829114914L197.008,94.62989659309387L197.22000000000003,98.27488691806793L197.376,84.97608048915863L197.61999999999998,100.46991790533066L198.008,108.1962300658226L198.16,81.74407519102097L198.344,86.26534111499787L198.348,86.3964071393013L198.584,85.90473051071167L198.92,82.21940768957138L199.01600000000002,91.66258556842804L199.212,84.09376270771027L199.268,84.9404215335846L199.85999999999999,92.12965316772461L199.98,87.94110513925553L200.216,76.92585111856461L200.42,107.75198907852173L201.244,94.36037493944168L201.28,89.4825990319252L201.49200000000002,97.58342571258545L202.032,85.8720210313797L202.176,98.88687671422959L202.588,97.18526763916016L202.636,94.17834557294846L203.088,101.50753409862519L203.36,96.27027220726013L203.5,100.35346133708954L204.10000000000002,97.61538190841675L204.136,96.68155438899994L204.244,99.82948369979859L204.364,87.22328962087632L204.5,96.39490349292755L204.68,107.12736852169037L204.712,91.97015864849091L204.82399999999998,82.57336075305939L205.276,80.85566217899323L205.33999999999997,86.47078062295914L205.58800000000002,90.95902408361435L205.656,86.50691170692444L206,90.4310837507248L206.036,95.30554945468903L206.788,81.7954151749611L206.996,90.44762415885926L208.148,95.50288851261139L208.232,92.33588309288025L208.79600000000002,84.91888399124146L208.968,92.78533871173859L209.18,96.63774724006653L209.208,88.85095490217209L209.28799999999998,88.15322871208191L209.392,81.76693363189698L209.752,86.9351958155632L209.96,78.7495982170105L210.2,91.72945804595948L210.228,97.76897747516632L210.34400000000002,91.63843805789948L210.55599999999998,81.73203856945038L210.572,76.5081660270691L210.62400000000002,94.20958561897278L210.68,81.82271904945374L210.77599999999998,109.68443710803986L210.824,102.08254404067993L210.952,84.20651651620865L210.98,95.60792912244797L211.036,85.4471479177475L211.488,94.66089261770249L211.532,91.2327736735344L211.55599999999998,90.910877597332L211.72,102.81740392446518L211.736,90.54874451160431L211.792,99.38034106492997L211.884,104.83376879692078L212.308,68.43992681503296L212.48000000000002,85.96527965068817L212.728,83.78045512437821L212.79199999999997,79.5857906460762L212.91199999999998,98.36856992244721L213.68800000000002,93.81371922492981L213.868,107.69025166034699L214.06,93.51781673431397L214.09199999999998,93.97482110261917L214.524,91.7590005517006L214.60399999999998,86.9307716012001L215.38,97.53067464828491L215.932,95.0801691532135L217.092,82.20271344184876L217.308,80.5280793428421L217.408,96.78764535188675L217.912,107.24894953966141L218.236,89.93559826612473L218.48,84.17701644897461L218.55599999999998,87.8348444223404L218.792,89.676527094841L219.256,81.37710411548615L219.572,92.21976603269577L220.028,95.47657663822174L220.228,98.4429964542389L220.376,81.29168601036072L220.6,99.22667653560639L220.664,90.73822714090348L220.784,70.54840977191925L221.076,102.02684350013733L221.53199999999998,95.18549091815949L221.884,91.94193704128266L222.156,105.71463305950165L222.52,90.07058454751969L222.52800000000002,99.67764933109284L222.552,78.63062716722489L223.27999999999997,95.53142310380936L223.92,82.3808809041977L224.064,96.53373045921326L224.524,84.86774559020996L224.54,83.97323734760285L224.912,90.68480236530304L225.132,76.41275365352631L225.37199999999999,98.1218112230301L225.752,89.42169977426529L226.56799999999998,104.18622083663941L227.00400000000002,83.27817947864533L227.18,97.2550736784935L227.196,94.41292442083359L227.22799999999998,83.72975702285767L227.82,103.49132741689682L228.008,96.6180133342743L228.27200000000002,83.0512077331543L228.28,83.46846313476563L228.952,100.69252378940583L229.172,91.93892921209336L229.284,92.03649533987046L229.416,97.08703840970993L229.512,93.26480896472931L229.55200000000002,85.7679087638855L230.04399999999998,81.35683442354203L230.11599999999999,84.41993446350098L230.416,97.02229316234589L230.568,94.75202400684357L230.732,95.21481592655182L231.136,98.4937794327736L231.212,97.90167207717896L231.62800000000001,97.74164707660675L231.76000000000002,82.79510725736618L232.016,88.93810768127442L232.056,88.17618794441223L232.37199999999999,101.21765787601471L232.432,93.77464396953583L232.57999999999998,96.80723072290421L233.60799999999998,94.32592017650605L233.64,97.22435350418091L233.876,80.91038663387299L233.932,87.44682915210724L234.596,100.03937394618988L234.828,93.13758893013001L234.85600000000002,98.71880431175232L234.872,98.14974637031555L234.88799999999998,94.38573194742203L235.29999999999998,81.37748606204987L235.452,87.61016435623169L235.584,73.52653200626374L235.628,98.53152318000794L236.09599999999998,101.00459535121918L236.292,85.71316839456559L236.352,94.73988128900528L236.43599999999998,96.2267568230629L236.49599999999998,105.62836618423462L236.736,74.24688853025437L236.968,98.49503667354584L237.476,87.91892040967942L237.868,91.16173691749573L238.36,89.49449772834778L238.504,70.13969511985779L238.592,103.80208868980408L238.768,98.06056184768677L238.82000000000002,99.93583459854126L238.88,86.16158957481385L239.23200000000003,92.04959292411804L239.456,99.5459838628769L239.75199999999998,82.73091371059418L239.932,90.94619174003601L240.776,106.30052317380905L241.2,101.58107472658158L241.212,87.07587416172028L241.316,74.26416630744934L241.44,90.43046308755875L242.156,98.19249255657196L242.17600000000002,89.9075092792511L242.20800000000003,97.79893375635147L242.85600000000002,99.14897162914276L243.06799999999998,82.68192375898361L243.184,98.9320259809494L243.484,86.04083610773087L243.85600000000002,98.53043038845063L243.868,88.08569843769074L244.368,92.17899854183197L245.22,92.99411494731903L245.352,97.3644589304924L245.52,97.52289779186249L245.648,108.40453417301178L245.732,99.23565758466721L245.98399999999998,91.76746703386307L246.032,104.38186235427857L246.088,95.3019846200943L246.11599999999999,91.44730563163758L246.12400000000002,89.94779403209687L246.436,98.53589434623719L247.15200000000002,86.30477709770203L247.284,86.65317602157593L247.428,84.61708254814148L247.55599999999998,98.88631970882416L248,106.49251497983933L248.148,95.05818600654602L248.952,95.95251388549805L249.048,94.18903477191925L249.20000000000002,95.40852649211884L249.224,111.92374737262726L249.31199999999998,85.58709419965744L249.596,69.30274410247803L249.88,102.22569973468781L249.94,88.60281164646149L250.076,97.38232023715973L250.304,108.99786163568497L250.74800000000002,86.00878973007202L250.89999999999998,85.58980495929718L251.044,76.29691774845124L251.484,93.95914537906647L252.364,95.4931170463562L253.184,90.82335348129273L253.388,91.94805879592896L253.764,96.13624079227448L254.228,89.60351164340973L254.448,97.58387131690979L254.56799999999998,93.59318752288819L254.58399999999997,106.8255989074707L254.752,93.33256204128266L254.88,93.267891061306L254.988,88.84385175704956L255.05599999999998,93.7726387500763L255.11599999999999,90.8224092245102L255.156,93.7902242064476L255.49200000000002,102.74967737197876L256.06,92.10316623449326L256.124,94.5879514336586L256.136,91.46201587915421L256.14799999999997,89.49235458374024L256.236,96.2486603975296L256.696,79.74596418142319L257.06,101.55082137584687L257.248,98.09939838647843L257.44,95.012331199646L257.732,101.25348658561707L258.308,103.77447183132172L258.5,96.89631445407868L258.564,86.44745005369187L258.684,100.95402987003327L258.88,91.3189079284668L258.932,95.1698788523674L258.952,91.41108436584473L259.008,93.53576822280884L259.276,102.90284324884415L259.452,87.92886162996292L259.56,85.50785089731217L259.86,89.64405102729798" style="fill: none;" fill="none"></path></g></g></g></g></g></g><g transform="translate(50, 178)" clip-path="url(#clip_1)"><clipPath id="clip_1"><rect width="280" height="22"></rect></clipPath><g><g><line x1="0" y1="0" x2="0" y2="5" style="visibility: inherit;" fill="rgb(0, 0, 0)" stroke="rgb(204, 204, 204)" stroke-width="1px"></line><line x1="20" y1="0" x2="20" y2="5" style="visibility: inherit;" fill="rgb(0, 0, 0)" stroke="rgb(204, 204, 204)" stroke-width="1px"></line><line x1="40" y1="0" x2="40" y2="5" style="visibility: inherit;" fill="rgb(0, 0, 0)" stroke="rgb(204, 204, 204)" stroke-width="1px"></line><line x1="60" y1="0" x2="60" y2="5" style="visibility: inherit;" fill="rgb(0, 0, 0)" stroke="rgb(204, 204, 204)" stroke-width="1px"></line><line x1="80" y1="0" x2="80" y2="5" style="visibility: inherit;" fill="rgb(0, 0, 0)" stroke="rgb(204, 204, 204)" stroke-width="1px"></line><line x1="100" y1="0" x2="100" y2="5" style="visibility: inherit;" fill="rgb(0, 0, 0)" stroke="rgb(204, 204, 204)" stroke-width="1px"></line><line x1="120" y1="0" x2="120" y2="5" style="visibility: inherit;" fill="rgb(0, 0, 0)" stroke="rgb(204, 204, 204)" stroke-width="1px"></line><line x1="140" y1="0" x2="140" y2="5" style="visibility: inherit;" fill="rgb(0, 0, 0)" stroke="rgb(204, 204, 204)" stroke-width="1px"></line><line x1="160" y1="0" x2="160" y2="5" style="visibility: inherit;" fill="rgb(0, 0, 0)" stroke="rgb(204, 204, 204)" stroke-width="1px"></line><line x1="180" y1="0" x2="180" y2="5" style="visibility: inherit;" fill="rgb(0, 0, 0)" stroke="rgb(204, 204, 204)" stroke-width="1px"></line><line x1="200" y1="0" x2="200" y2="5" style="visibility: inherit;" fill="rgb(0, 0, 0)" stroke="rgb(204, 204, 204)" stroke-width="1px"></line><line x1="220" y1="0" x2="220" y2="5" style="visibility: inherit;" fill="rgb(0, 0, 0)" stroke="rgb(204, 204, 204)" stroke-width="1px"></line><line x1="240" y1="0" x2="240" y2="5" style="visibility: inherit;" fill="rgb(0, 0, 0)" stroke="rgb(204, 204, 204)" stroke-width="1px"></line><line x1="260" y1="0" x2="260" y2="5" style="visibility: inherit;" fill="rgb(0, 0, 0)" stroke="rgb(204, 204, 204)" stroke-width="1px"></line><line x1="280" y1="0" x2="280" y2="5" style="visibility: inherit;" fill="rgb(0, 0, 0)" stroke="rgb(204, 204, 204)" stroke-width="1px"></line></g><g transform="translate(0, 8)"><text x="0" y="0" dx="0em" dy="0.95em" style="text-anchor: middle; visibility: hidden; font-family: &quot;Helvetica Neue&quot;, sans-serif; font-size: 12px; font-weight: 200;" fill="rgb(50, 49, 63)" stroke="none" stroke-width="1px">-50k</text><text x="20" y="0" dx="0em" dy="0.95em" style="text-anchor: middle; visibility: inherit; font-family: &quot;Helvetica Neue&quot;, sans-serif; font-size: 12px; font-weight: 200;" fill="rgb(50, 49, 63)" stroke="none" stroke-width="1px">0</text><text x="40" y="0" dx="0em" dy="0.95em" style="text-anchor: middle; visibility: hidden; font-family: &quot;Helvetica Neue&quot;, sans-serif; font-size: 12px; font-weight: 200;" fill="rgb(50, 49, 63)" stroke="none" stroke-width="1px">50k</text><text x="60" y="0" dx="0em" dy="0.95em" style="text-anchor: middle; visibility: inherit; font-family: &quot;Helvetica Neue&quot;, sans-serif; font-size: 12px; font-weight: 200;" fill="rgb(50, 49, 63)" stroke="none" stroke-width="1px">100k</text><text x="80" y="0" dx="0em" dy="0.95em" style="text-anchor: middle; visibility: hidden; font-family: &quot;Helvetica Neue&quot;, sans-serif; font-size: 12px; font-weight: 200;" fill="rgb(50, 49, 63)" stroke="none" stroke-width="1px">150k</text><text x="100" y="0" dx="0em" dy="0.95em" style="text-anchor: middle; visibility: inherit; font-family: &quot;Helvetica Neue&quot;, sans-serif; font-size: 12px; font-weight: 200;" fill="rgb(50, 49, 63)" stroke="none" stroke-width="1px">200k</text><text x="120" y="0" dx="0em" dy="0.95em" style="text-anchor: middle; visibility: hidden; font-family: &quot;Helvetica Neue&quot;, sans-serif; font-size: 12px; font-weight: 200;" fill="rgb(50, 49, 63)" stroke="none" stroke-width="1px">250k</text><text x="140" y="0" dx="0em" dy="0.95em" style="text-anchor: middle; visibility: inherit; font-family: &quot;Helvetica Neue&quot;, sans-serif; font-size: 12px; font-weight: 200;" fill="rgb(50, 49, 63)" stroke="none" stroke-width="1px">300k</text><text x="160" y="0" dx="0em" dy="0.95em" style="text-anchor: middle; visibility: hidden; font-family: &quot;Helvetica Neue&quot;, sans-serif; font-size: 12px; font-weight: 200;" fill="rgb(50, 49, 63)" stroke="none" stroke-width="1px">350k</text><text x="180" y="0" dx="0em" dy="0.95em" style="text-anchor: middle; visibility: inherit; font-family: &quot;Helvetica Neue&quot;, sans-serif; font-size: 12px; font-weight: 200;" fill="rgb(50, 49, 63)" stroke="none" stroke-width="1px">400k</text><text x="200" y="0" dx="0em" dy="0.95em" style="text-anchor: middle; visibility: hidden; font-family: &quot;Helvetica Neue&quot;, sans-serif; font-size: 12px; font-weight: 200;" fill="rgb(50, 49, 63)" stroke="none" stroke-width="1px">450k</text><text x="220" y="0" dx="0em" dy="0.95em" style="text-anchor: middle; visibility: inherit; font-family: &quot;Helvetica Neue&quot;, sans-serif; font-size: 12px; font-weight: 200;" fill="rgb(50, 49, 63)" stroke="none" stroke-width="1px">500k</text><text x="240" y="0" dx="0em" dy="0.95em" style="text-anchor: middle; visibility: hidden; font-family: &quot;Helvetica Neue&quot;, sans-serif; font-size: 12px; font-weight: 200;" fill="rgb(50, 49, 63)" stroke="none" stroke-width="1px">550k</text><text x="260" y="0" dx="0em" dy="0.95em" style="text-anchor: middle; visibility: inherit; font-family: &quot;Helvetica Neue&quot;, sans-serif; font-size: 12px; font-weight: 200;" fill="rgb(50, 49, 63)" stroke="none" stroke-width="1px">600k</text><text x="280" y="0" dx="0em" dy="0.95em" style="text-anchor: middle; visibility: hidden; font-family: &quot;Helvetica Neue&quot;, sans-serif; font-size: 12px; font-weight: 200;" fill="rgb(50, 49, 63)" stroke="none" stroke-width="1px">650k</text></g><line x1="0" y1="0" x2="280" y2="0" fill="rgb(0, 0, 0)" stroke="rgb(204, 204, 204)" stroke-width="1px"></line></g></g></g></g></svg>