<svg viewBox="0 0 330 200" xmlns="http://www.w3.org/2000/svg"><g><g><g><g><g><line x1="50" y1="178" x2="45" y2="178" style="visibility: inherit;" fill="rgb(0, 0, 0)" stroke="rgb(204, 204, 204)" stroke-width="1px"></line><line x1="50" y1="163.16666666666666" x2="45" y2="163.16666666666666" style="visibility: inherit;" fill="rgb(0, 0, 0)" stroke="rgb(204, 204, 204)" stroke-width="1px"></line><line x1="50" y1="148.33333333333334" x2="45" y2="148.33333333333334" style="visibility: inherit;" fill="rgb(0, 0, 0)" stroke="rgb(204, 204, 204)" stroke-width="1px"></line><line x1="50" y1="133.5" x2="45" y2="133.5" style="visibility: inherit;" fill="rgb(0, 0, 0)" stroke="rgb(204, 204, 204)" stroke-width="1px"></line><line x1="50" y1="118.66666666666667" x2="45" y2="118.66666666666667" style="visibility: inherit;" fill="rgb(0, 0, 0)" stroke="rgb(204, 204, 204)" stroke-width="1px"></line><line x1="50" y1="103.83333333333334" x2="45" y2="103.83333333333334" style="visibility: inherit;" fill="rgb(0, 0, 0)" stroke="rgb(204, 204, 204)" stroke-width="1px"></line><line x1="50" y1="89.00000000000001" x2="45" y2="89.00000000000001" style="visibility: inherit;" fill="rgb(0, 0, 0)" stroke="rgb(204, 204, 204)" stroke-width="1px"></line><line x1="50" y1="74.16666666666669" x2="45" y2="74.16666666666669" style="visibility: inherit;" fill="rgb(0, 0, 0)" stroke="rgb(204, 204, 204)" stroke-width="1px"></line><line x1="50" y1="59.33333333333336" x2="45" y2="59.33333333333336" style="visibility: inherit;" fill="rgb(0, 0, 0)" stroke="rgb(204, 204, 204)" stroke-width="1px"></line><line x1="50" y1="44.50000000000003" x2="45" y2="44.50000000000003" style="visibility: inherit;" fill="rgb(0, 0, 0)" stroke="rgb(204, 204, 204)" stroke-width="1px"></line><line x1="50" y1="29.666666666666686" x2="45" y2="29.666666666666686" style="visibility: inherit;" fill="rgb(0, 0, 0)" stroke="rgb(204, 204, 204)" stroke-width="1px"></line><line x1="50" y1="14.833333333333343" x2="45" y2="14.833333333333343" style="visibility: inherit;" fill="rgb(0, 0, 0)" stroke="rgb(204, 204, 204)" stroke-width="1px"></line><line x1="50" y1="0" x2="45" y2="0" style="visibility: inherit;" fill="rgb(0, 0, 0)" stroke="rgb(204, 204, 204)" stroke-width="1px"></line></g><g transform="translate(40, 0)"><text x="0" y="178" dx="0em" dy="0.3em" style="text-anchor: end; visibility: hidden; font-family: &quot;Helvetica Neue&quot;, sans-serif; font-size: 12px; font-weight: 200;" fill="rgb(50, 49, 63)" stroke="none" stroke-width="1px">-0.1</text><text x="0" y="163.16666666666666" dx="0em" dy="0.3em" style="text-anchor: end; visibility: inherit; font-family: &quot;Helvetica Neue&quot;, sans-serif; font-size: 12px; font-weight: 200;" fill="rgb(50, 49, 63)" stroke="none" stroke-width="1px">0</text><text x="0" y="148.33333333333334" dx="0em" dy="0.3em" style="text-anchor: end; visibility: hidden; font-family: &quot;Helvetica Neue&quot;, sans-serif; font-size: 12px; font-weight: 200;" fill="rgb(50, 49, 63)" stroke="none" stroke-width="1px">0.1</text><text x="0" y="133.5" dx="0em" dy="0.3em" style="text-anchor: end; visibility: inherit; font-family: &quot;Helvetica Neue&quot;, sans-serif; font-size: 12px; font-weight: 200;" fill="rgb(50, 49, 63)" stroke="none" stroke-width="1px">0.2</text><text x="0" y="118.66666666666667" dx="0em" dy="0.3em" style="text-anchor: end; visibility: hidden; font-family: &quot;Helvetica Neue&quot;, sans-serif; font-size: 12px; font-weight: 200;" fill="rgb(50, 49, 63)" stroke="none" stroke-width="1px">0.3</text><text x="0" y="103.83333333333334" dx="0em" dy="0.3em" style="text-anchor: end; visibility: inherit; font-family: &quot;Helvetica Neue&quot;, sans-serif; font-size: 12px; font-weight: 200;" fill="rgb(50, 49, 63)" stroke="none" stroke-width="1px">0.4</text><text x="0" y="89.00000000000001" dx="0em" dy="0.3em" style="text-anchor: end; visibility: hidden; font-family: &quot;Helvetica Neue&quot;, sans-serif; font-size: 12px; font-weight: 200;" fill="rgb(50, 49, 63)" stroke="none" stroke-width="1px">0.5</text><text x="0" y="74.16666666666669" dx="0em" dy="0.3em" style="text-anchor: end; visibility: inherit; font-family: &quot;Helvetica Neue&quot;, sans-serif; font-size: 12px; font-weight: 200;" fill="rgb(50, 49, 63)" stroke="none" stroke-width="1px">0.6</text><text x="0" y="59.33333333333336" dx="0em" dy="0.3em" style="text-anchor: end; visibility: hidden; font-family: &quot;Helvetica Neue&quot;, sans-serif; font-size: 12px; font-weight: 200;" fill="rgb(50, 49, 63)" stroke="none" stroke-width="1px">0.7</text><text x="0" y="44.50000000000003" dx="0em" dy="0.3em" style="text-anchor: end; visibility: inherit; font-family: &quot;Helvetica Neue&quot;, sans-serif; font-size: 12px; font-weight: 200;" fill="rgb(50, 49, 63)" stroke="none" stroke-width="1px">0.8</text><text x="0" y="29.666666666666686" dx="0em" dy="0.3em" style="text-anchor: end; visibility: hidden; font-family: &quot;Helvetica Neue&quot;, sans-serif; font-size: 12px; font-weight: 200;" fill="rgb(50, 49, 63)" stroke="none" stroke-width="1px">0.9</text><text x="0" y="14.833333333333343" dx="0em" dy="0.3em" style="text-anchor: end; visibility: inherit; font-family: &quot;Helvetica Neue&quot;, sans-serif; font-size: 12px; font-weight: 200;" fill="rgb(50, 49, 63)" stroke="none" stroke-width="1px">1</text><text x="0" y="0" dx="0em" dy="0.3em" style="text-anchor: end; visibility: hidden; font-family: &quot;Helvetica Neue&quot;, sans-serif; font-size: 12px; font-weight: 200;" fill="rgb(50, 49, 63)" stroke="none" stroke-width="1px">1.1</text></g><line x1="50" y1="0" x2="50" y2="178" fill="rgb(0, 0, 0)" stroke="rgb(204, 204, 204)" stroke-width="1px"></line></g></g><g transform="translate(50, 0)" clip-path="url(#clip_0)"><clipPath id="clip_0"><rect width="280" height="178"></rect></clipPath><g><g><g><line x1="0" y1="0" x2="0" y2="178" fill="rgb(0, 0, 0)" stroke="rgb(60, 60, 60)" stroke-width="1px" opacity="0.25"></line><line x1="20" y1="0" x2="20" y2="178" fill="rgb(0, 0, 0)" stroke="rgb(60, 60, 60)" stroke-width="1px" opacity="0.25"></line><line x1="40" y1="0" x2="40" y2="178" fill="rgb(0, 0, 0)" stroke="rgb(60, 60, 60)" stroke-width="1px" opacity="0.25"></line><line x1="60" y1="0" x2="60" y2="178" fill="rgb(0, 0, 0)" stroke="rgb(60, 60, 60)" stroke-width="1px" opacity="0.25"></line><line x1="80" y1="0" x2="80" y2="178" fill="rgb(0, 0, 0)" stroke="rgb(60, 60, 60)" stroke-width="1px" opacity="0.25"></line><line x1="100" y1="0" x2="100" y2="178" fill="rgb(0, 0, 0)" stroke="rgb(60, 60, 60)" stroke-width="1px" opacity="0.25"></line><line x1="120" y1="0" x2="120" y2="178" fill="rgb(0, 0, 0)" stroke="rgb(60, 60, 60)" stroke-width="1px" opacity="0.25"></line><line x1="140" y1="0" x2="140" y2="178" fill="rgb(0, 0, 0)" stroke="rgb(60, 60, 60)" stroke-width="1px" opacity="0.25"></line><line x1="160" y1="0" x2="160" y2="178" fill="rgb(0, 0, 0)" stroke="rgb(60, 60, 60)" stroke-width="1px" opacity="0.25"></line><line x1="180" y1="0" x2="180" y2="178" fill="rgb(0, 0, 0)" stroke="rgb(60, 60, 60)" stroke-width="1px" opacity="0.25"></line><line x1="200" y1="0" x2="200" y2="178" fill="rgb(0, 0, 0)" stroke="rgb(60, 60, 60)" stroke-width="1px" opacity="0.25"></line><line x1="220" y1="0" x2="220" y2="178" fill="rgb(0, 0, 0)" stroke="rgb(60, 60, 60)" stroke-width="1px" opacity="0.25"></line><line x1="240" y1="0" x2="240" y2="178" fill="rgb(0, 0, 0)" stroke="rgb(60, 60, 60)" stroke-width="1px" opacity="0.25"></line><line x1="260" y1="0" x2="260" y2="178" fill="rgb(0, 0, 0)" stroke="rgb(60, 60, 60)" stroke-width="1px" opacity="0.25"></line><line x1="280" y1="0" x2="280" y2="178" fill="rgb(0, 0, 0)" stroke="rgb(60, 60, 60)" stroke-width="1px" opacity="0.25"></line></g><g><line x1="0" y1="178" x2="280" y2="178" fill="rgb(0, 0, 0)" stroke="rgb(60, 60, 60)" stroke-width="1px" opacity="0.25"></line><line x1="0" y1="163.16666666666666" x2="280" y2="163.16666666666666" fill="rgb(0, 0, 0)" stroke="rgb(60, 60, 60)" stroke-width="1px" opacity="0.25"></line><line x1="0" y1="148.33333333333334" x2="280" y2="148.33333333333334" fill="rgb(0, 0, 0)" stroke="rgb(60, 60, 60)" stroke-width="1px" opacity="0.25"></line><line x1="0" y1="133.5" x2="280" y2="133.5" fill="rgb(0, 0, 0)" stroke="rgb(60, 60, 60)" stroke-width="1px" opacity="0.25"></line><line x1="0" y1="118.66666666666667" x2="280" y2="118.66666666666667" fill="rgb(0, 0, 0)" stroke="rgb(60, 60, 60)" stroke-width="1px" opacity="0.25"></line><line x1="0" y1="103.83333333333334" x2="280" y2="103.83333333333334" fill="rgb(0, 0, 0)" stroke="rgb(60, 60, 60)" stroke-width="1px" opacity="0.25"></line><line x1="0" y1="89.00000000000001" x2="280" y2="89.00000000000001" fill="rgb(0, 0, 0)" stroke="rgb(60, 60, 60)" stroke-width="1px" opacity="0.25"></line><line x1="0" y1="74.16666666666669" x2="280" y2="74.16666666666669" fill="rgb(0, 0, 0)" stroke="rgb(60, 60, 60)" stroke-width="1px" opacity="0.25"></line><line x1="0" y1="59.33333333333336" x2="280" y2="59.33333333333336" fill="rgb(0, 0, 0)" stroke="rgb(60, 60, 60)" stroke-width="1px" opacity="0.25"></line><line x1="0" y1="44.50000000000003" x2="280" y2="44.50000000000003" fill="rgb(0, 0, 0)" stroke="rgb(60, 60, 60)" stroke-width="1px" opacity="0.25"></line><line x1="0" y1="29.666666666666686" x2="280" y2="29.666666666666686" fill="rgb(0, 0, 0)" stroke="rgb(60, 60, 60)" stroke-width="1px" opacity="0.25"></line><line x1="0" y1="14.833333333333343" x2="280" y2="14.833333333333343" fill="rgb(0, 0, 0)" stroke="rgb(60, 60, 60)" stroke-width="1px" opacity="0.25"></line><line x1="0" y1="0" x2="280" y2="0" fill="rgb(0, 0, 0)" stroke="rgb(60, 60, 60)" stroke-width="1px" opacity="0.25"></line></g></g></g><g><g><line x1="0" y1="163.16666666666666" x2="280" y2="163.16666666666666" fill="rgb(0, 0, 0)" stroke="rgb(153, 153, 153)" stroke-width="1.5px"></line></g></g><g><g><line x1="20" y1="0" x2="20" y2="178" fill="rgb(0, 0, 0)" stroke="rgb(153, 153, 153)" stroke-width="1.5px"></line></g></g><g><g><g><g><g><path style="fill: none;" stroke="rgb(255, 112, 67)" stroke-width="2px" d="M20.172,31.15990444024405L20.183999999999997,38.89700239151716L20.288,26.29479963884873L20.38,39.86853491872844L20.671999999999997,45.097646330535184L20.92,49.07577083664762L20.94,54.711799712115365L21.024,53.85523094311482L21.096,54.94848346956461L21.236,62.83373037935773L21.244,66.49314419644091L21.276,70.9871881764677L21.9,79.53261781118891L22.148,77.88686648272757L22.32,85.76098457657255L22.348,81.44424195283365L22.54,85.82263074110698L22.592000000000002,82.23284128273096L22.86,85.97940417980602L22.892000000000003,83.15670514727307L23.212,81.44269596955493L23.236,81.95779505304503L23.348,79.87468226105186L23.888,77.93250478534115L24.06,80.06303753128863L24.267999999999997,78.32675710181874L24.42,81.43740132450534L24.724,87.51061328277885L25.048000000000002,78.77477008504361L25.267999999999997,85.21805924207727L25.28,79.14649353174741L25.336,87.09567619098733L25.352,76.89219327959704L25.543999999999997,77.43479218563333L25.572,86.96533636233102L25.748,89.01956799945641L25.868,83.96949442671536L26.212,77.61970868403357L26.34,75.46198955707625L26.768,82.53935799471606L26.939999999999998,77.92599448075664L26.952,76.05896002666177L27.38,77.20979715986115L27.512,75.70486351783666L27.672,82.25755684206804L27.792,91.29297269617197L28.148,83.42888646832291L28.388,72.10956348658728L28.752,77.00194849387123L28.8,79.74913289041741L28.928,80.40073628758563L29.052,82.83564292313474L29.232000000000003,86.27377749834156L29.56,81.83634327264379L29.747999999999998,83.11203473257156L29.816,85.85094451574864L29.824,81.21657245756113L29.844,77.66376644015817L29.944,85.03655959550902L29.948,88.90891684324185L29.996000000000002,88.9393026186862L30.016000000000002,86.89773516777184L30.132,83.96553599589876L30.744,81.63253982715098L30.964,83.73037888120983L31.872,90.29703968472108L32.156,91.54380716705417L32.168,89.77175593668679L32.647999999999996,95.83200190242802L32.924,90.01272278891012L32.988,85.76538916746382L32.992000000000004,92.67465255053602L33.224000000000004,94.27206469014344L33.924,88.95692119062977L34.476,88.56761657234652L34.484,81.97511509480053L34.684000000000005,81.55583463960076L34.967999999999996,80.17868398936501L35.26,88.19710541950809L35.288000000000004,81.8403236777811L35.716,84.15891951190804L35.827999999999996,80.4995197963757L36.147999999999996,80.00370839309946L36.396,85.65822747392806L36.788,85.41226663019272L36.931999999999995,88.56359972850092L37.272,89.88298100409276L37.604,85.00443266735891L37.972,84.17632637166831L38.040000000000006,84.69185439990274L38.124,81.15462627557702L38.66,85.59555482396158L38.676,81.26508776860639L38.708,91.6410106650027L39.156,95.72159670776323L39.211999999999996,95.4677418211273L39.364,94.36406188840698L39.58,93.5862921057246L39.888000000000005,97.15222912896287L40.204,95.10071115018097L40.212,84.0319355268548L40.428,84.661977859692L40.540000000000006,88.5084653093554L41.38399999999999,94.39903069302265L41.44,90.223246284911L41.684,93.11962820803461L42.2,90.37397408713106L42.72,87.50743647553048L42.896,86.68363835098856L43.236000000000004,87.4960764746816L43.46,92.50444631383525L43.488,95.80602319998964L43.632,92.41844690618967L43.964,92.22654052244458L44.528,99.36932742794454L44.804,94.41813295801539L44.879999999999995,94.04739196133649L45.16,89.27314693350814L45.251999999999995,92.24306001634929L45.508,84.11240881902894L46.083999999999996,85.36764491929368L46.300000000000004,89.17342552741621L46.416,92.1741647831614L46.788,97.93329880110514L46.800000000000004,92.06403129183508L46.848,94.58931616276458L47.419999999999995,96.22339094080502L47.868,95.60298105318132L47.972,87.70254359387627L48.46,93.27605137274625L48.624,90.7298716210085L49.248,95.08854738291649L49.532000000000004,99.43717134445835L49.804,96.64022631516018L49.844,101.62764396113133L49.856,95.89423176750725L49.916000000000004,90.27498125893982L50.048,89.43757213669885L50.775999999999996,90.17925040037157L51.156,91.41612453526689L51.196,84.97553522944311L51.336,87.62842073972938L51.967999999999996,94.6850346382613L52.268,95.9289183888528L52.724,94.01137294016439L52.888000000000005,91.26395538037316L53.455999999999996,99.32989484420595L53.476,96.46166192899851L53.512,96.5150319541139L53.884,97.34669800229725L53.996,104.90068388955507L54.036,100.65731026119022L54.408,103.64889589976885L54.544,99.99699575125148L54.784,94.6077781821428L55.516,97.08421084315408L55.632000000000005,99.38705944437285L55.716,95.01448015025356L55.744,90.10649956654171L55.976,86.74606847797233L56.224000000000004,84.56303002854823L57.044,86.67624389183904L57.268,90.54237962396374L57.396,93.353831410198L57.744,94.51446145760333L57.876,97.6829338033238L58.22,101.35332454597389L58.272000000000006,100.75887728942693L58.632,94.36923034119563L58.724000000000004,92.96717746930096L58.796,92.19006679381991L59.376,85.00981107111416L59.632,89.67349931054696L60.236,91.76279644441635L60.339999999999996,92.68107338511167L61.108000000000004,86.8082624262366L61.136,93.84336305772027L61.6,92.65551723508892L61.92,93.31550800881102L62.092,90.22708884923448L62.432,87.68822754253223L62.556,85.78783047693538L62.62,86.32376473246555L62.848,89.01158857602998L63.032,95.89226494784629L63.036,91.93226265841012L63.124,92.33362462480835L63.368,88.75912453150734L63.403999999999996,91.95632381091109L63.612,93.49765327880536L63.623999999999995,96.48013148691112L63.775999999999996,97.18372488013419L63.868,93.47773349280067L63.892,90.39975602623765L63.9,96.46707917370566L64.084,92.98318649004798L64.41199999999999,89.80933567288061L64.488,91.94337272486614L64.524,91.69535444085712L64.79599999999999,95.54544618867786L64.804,91.94309044168165L65.044,90.66504512798252L65.67999999999999,97.34417778594174L65.892,102.64928016072241L65.97200000000001,103.37929331663685L66.096,96.58707928301953L66.13199999999999,96.34801684404648L66.268,97.14448798448983L66.596,93.41275368979262L66.744,92.05060760687205L67.04,88.50683508223543L67.496,96.19729672217122L67.88,97.23913024074088L67.89999999999999,93.15991830551377L68.044,93.9969229363824L68.16799999999999,97.8937925058658L68.556,95.15181806234848L68.66,96.09580671319364L68.74,95.5676966599365L69.164,101.07391543935181L69.624,98.91724491368001L69.836,95.53678169002295L70.688,98.6965458203365L71.512,100.14385226621289L71.76,93.391841645563L72.072,88.93268451423904L72.13999999999999,93.05634479521589L72.248,99.2702787923746L72.332,97.91738832441564L72.38,91.19411854216018L72.44,98.69916906516886L72.96,96.95769135094366L73.61200000000001,98.83942429186911L73.628,99.962245046866L74.02,97.01848269290053L74.18799999999999,100.281112333852L74.39200000000001,95.82696376287021L74.484,95.8074418547337L74.72,98.36336448446421L75.244,99.74358596795108L75.54,97.85076336697722L76.324,100.60423185012331L76.888,96.73163095463272L77.152,96.07502137829238L77.17999999999999,95.56596770610041L77.284,95.21550824677325L77.356,92.11708704492675L77.592,99.7437461963965L77.792,100.91186414271635L78.53200000000001,103.80449105964131L78.556,96.99813822308795L78.676,94.06968127925963L78.712,98.62954529468081L78.75200000000001,98.28024259215908L79.12,100.90276644829702L79.156,99.66871888759012L79.24,97.26278406772381L79.49600000000001,93.67065528070945L79.57199999999999,88.4585429531496L80.364,89.38762056244381L80.724,93.14986757484856L81.068,86.74240963487496L81.3,84.26393139061533L81.896,83.79201950846436L81.904,86.61578840942178L82.032,89.53012499966816L82.156,90.62605454380471L82.964,97.66654056224323L83.06,97.79275243230519L83.096,94.41071200816548L83.316,93.37316426306198L83.976,99.04828195970792L84.384,99.22369023880287L84.468,101.51284023158307L85,103.868519962028L85.288,94.81042599292319L85.37599999999999,95.49430051413212L85.444,101.65061164876043L85.628,98.4084750710739L86.024,94.5258186915803L86.792,97.27870998338588L87.236,102.62510051462489L87.24,98.58341929992103L87.432,98.08580311346091L87.6,99.0998829496386L88.268,104.97499732330336L88.392,101.67024779809454L88.52799999999999,93.68764530316754L88.96000000000001,98.21740667042592L89.092,96.9608265718865L89.172,94.87525011068867L89.268,94.37924600223474L89.27199999999999,95.64680043407145L89.284,97.94633549182333L89.36,96.07829593258332L89.62400000000001,96.51732251229227L89.77999999999999,95.6027356854022L89.82,91.66885485277218L90.176,102.72264881546683L90.232,101.41354882487884L90.348,104.91961212815384L90.38,106.90363187310024L90.496,102.34712011446709L90.892,101.7928671608179L91.816,102.85027021387077L91.928,99.91657608877932L92.07600000000001,101.19983361242998L92.21600000000001,94.53019405650372L92.264,89.44710191834336L92.52,87.69065916189572L93.06,94.28319395968728L93.27600000000001,93.60842085315434L93.808,94.90857529103944L93.812,90.56119094367935L94.372,91.93026874110768L94.856,90.02596260892751L94.88399999999999,92.97272341124655L95.384,94.10442332032785L95.836,95.70815888406912L96.024,92.67249304073303L96.196,89.04459238460014L96.46799999999999,91.2540096227945L96.68,91.1679554055902L97.088,92.35489777748423L98.104,94.34221832766913L98.128,93.25083544739952L98.56400000000001,91.98953646553876L98.61999999999999,96.07258411725356L98.928,95.28259872484205L98.952,91.82066604547501L99.29599999999999,96.7545741461881L99.388,96.64922668118288L99.668,94.86872102565971L99.756,93.80330875564063L99.888,95.3520652714279L99.984,96.61125735419434L100.14399999999999,91.82779768294559L100.21600000000001,97.39397544773301L100.24,101.21342644162107L100.25200000000001,99.18039566914517L100.556,103.02069723193017L100.56,104.46072760572532L100.74799999999999,103.52436997105977L100.87199999999999,100.53044698800822L100.98,98.19265918830742L100.99199999999999,99.14379056036299L101.01199999999999,100.03354506734904L101.296,94.34479685451923L101.34,95.89885670637891L101.536,101.4270487310239L101.764,96.53530278693131L101.944,93.60902938181455L102.108,94.28251975139557L102.16000000000001,96.81182831144677L102.164,93.02000963061859L102.252,99.04921475670622L102.31599999999999,98.55776200466487L102.75999999999999,92.4752275493133L102.84400000000001,88.11803062437305L103.11999999999999,91.36999791271485L103.132,95.47892881278395L103.136,97.08887558486582L103.328,103.92766815805349L103.424,100.59400380681303L103.952,94.73093380747449L104.324,96.78817482522057L104.58,100.40872351962881L104.84,97.5112107553396L104.932,101.35943902085106L105.268,96.88104584942191L105.28,91.12969333606917L105.3,94.1553003828404L105.568,96.02829079870448L105.64,97.41408447649519L105.94,100.53818962708974L106.096,102.28620541733025L106.728,100.41502457047415L106.9,98.88432640146165L107.184,96.67742668178249L107.288,103.93551473569813L107.372,106.72197119843132L107.396,106.05188844075502L108.028,99.42246353708128L108.984,92.63095874835506L109.036,98.77715811282071L109.17200000000001,93.4442972013335L109.324,98.34621543500704L109.436,91.92131517815919L109.892,92.65104584587613L110.032,93.15629604673187L110.18,91.44660369087737L110.544,87.73213202672888L111.06400000000001,87.71514950742935L111.364,91.54168926408259L111.724,98.26284600534262L111.73599999999999,94.99481538477475L112.33999999999999,94.51299843515714L112.556,97.56659849480249L112.596,96.40023221569534L112.732,96.95717401900258L112.772,93.41804375409106L112.876,91.19871469036154L113.056,91.5604225259746L113.14800000000001,91.13676723212352L113.448,98.18342250011574L113.524,98.85832238647666L113.712,102.63466042947766L114.164,99.32364379568098L114.36,94.93656332017898L114.684,94.17141660484822L114.728,101.84626966973039L114.80799999999999,100.9536566312704L115.10000000000001,97.1064175909118L115.328,94.94435793233055L115.756,99.59734387440764L116.32,96.02438143835435L116.476,98.92396256096742L116.592,99.72400775015902L116.94,104.30122162775527L117.132,98.62940525140165L117.14,103.86990585600813L117.292,98.59211827124446L117.384,103.70652465505573L117.668,104.21277386635447L118.232,102.0919778864974L118.488,103.23761283485459L118.88,96.80951322194954L118.91199999999999,94.90453831996733L119.608,91.30919119902183L119.74000000000001,89.97698750409126L120.036,94.43195562946383L120.192,100.06505597067427L120.536,95.47458790401151L120.928,95.34263723289688L120.97999999999999,96.69917567091616L121.01599999999999,97.94545870731733L121.33200000000001,101.5284815294174L121.56800000000001,100.13110797381168L122.024,101.06636411016643L122.08399999999999,97.58597144722219L122.4,86.81634508712656L122.74799999999999,88.50025345371307L123.252,92.73230182420895L123.392,98.06934954697898L123.688,94.60900488282252L124.184,93.1336566137374L124.268,87.13000297111874L124.368,95.76108178831699L124.62400000000001,93.92510007225016L124.68,99.62921704691175L125.172,103.2610965083531L125.216,102.404571249713L125.616,90.82398074942598L125.884,91.80191946473383L126.684,94.24528603820004L127.19200000000001,96.24347778797943L127.196,100.95844260041396L127.31200000000001,92.40431932916928L127.32000000000001,93.51158083067749L127.71600000000001,99.53222902568031L128.572,99.03619027903784L128.596,98.96104206306403L128.62,94.75012738900979L128.636,99.14979757108847L128.64,95.0705407295936L129.1,96.09232927367968L130.024,97.73435583316812L130.416,99.02173393927136L130.45600000000002,102.11471428451212L130.484,104.23290685401722L130.55599999999998,105.92142968328614L130.96,103.48820770751527L131.304,102.8642883557345L131.668,102.85761336038107L131.676,101.75449346830206L131.804,99.02811017431671L131.876,99.02274818895968L133.00799999999998,96.26886324691006L133.112,100.8799873348508L133.28799999999998,106.11539992629093L133.756,97.31222356719933L133.808,97.08243458288806L134.17600000000002,98.59469589482485L134.292,86.55363094542864L134.448,93.41385327419307L135.88400000000001,100.6534307319363L135.988,93.7000324756964L136.076,93.80419828679547L136.152,94.32284983507624L136.252,97.86930321760079L136.316,101.10932937328279L136.364,101.54330341258205L136.808,108.63073333644007L137.056,100.14976656760655L137.888,101.57151165997514L137.916,99.30299963193454L137.952,101.74135360104233L138.15200000000002,102.91784947504038L138.164,99.75142596993508L138.248,95.57403865357438L138.37199999999999,96.17908443351705L138.448,95.19156123006415L138.992,93.26104605677172L139.316,94.04212898303535L139.32,93.7037327227362L139.456,96.1805275442621L140.00400000000002,96.67136839801596L140.024,99.7551561660043L140.128,97.26449472903043L140.312,99.48198012033401L140.372,96.62264133007902L140.7,99.89350251661686L140.872,95.70090791567335L140.976,102.41135527879499L141.14000000000001,98.15315852278772L141.312,92.77091462839228L141.84,97.29286081847697L141.884,92.90712902897884L142.29199999999997,84.79066498649692L142.45200000000003,91.90728471819108L142.828,93.81689752425876L142.884,93.86669960391201L142.956,94.38014465235676L144.212,95.67663634019897L144.424,99.10168804842912L145.62800000000001,98.36375250887087L145.776,98.14959681314951L146.78799999999998,98.21837702760732L146.892,104.22377788247448L147.23600000000002,103.89572906030287L147.496,94.66853362440906L147.524,101.72781496119406L147.556,101.83976665062849L147.748,101.10562791977213L147.78400000000002,94.45915667148762L148.02,91.55448852339785L148.072,96.53144858892401L148.7,91.47045436669772L148.832,92.3686448087457L149,96.25278323591728L149.74400000000003,97.29936175962874L150.12,97.84173692914202L150.172,99.39695393037212L150.448,97.99454101517645L150.632,100.70826072252699L150.828,92.48679444048948L151.05200000000002,95.40101920080672L151.58,98.60804707117373L151.61200000000002,97.842930294916L152.012,94.85827394198078L152.06,102.64921973469276L152.14000000000001,102.23861785524538L152.612,105.66933940525922L152.71999999999997,102.09615238513194L152.728,95.65410354140785L153.08800000000002,95.06464954855076L153.36800000000002,96.16653660521129L153.476,92.33979671548936L153.504,95.30661216587504L153.616,104.55676812257775L154.16,104.81264025564835L154.52800000000002,101.34949737745035L154.916,101.28921077623473L154.952,98.26128321076139L155,101.45649844319446L155.07600000000002,102.67021109607313L155.144,96.65774317153193L155.35999999999999,98.58926916659613L155.408,100.33633119190179L155.50799999999998,98.65443558886315L155.656,97.01018298106194L156.072,95.36596540870349L156.148,97.33659778194873L156.17600000000002,94.16770225857049L156.35999999999999,103.31054257608066L156.56799999999998,104.33329842442241L156.57999999999998,106.28867716364444L156.72,102.93218437893617L157.448,96.242700457951L157.452,102.0732389492078L157.536,105.87183216426473L157.756,103.04430064686359L158.104,106.30265426513488L158.108,102.24733055359285L158.26,102.76857964233257L158.4,96.5895513377728L158.43599999999998,83.46192454986624L159.136,86.6393912932844L159.516,91.67516837725468L160.32000000000002,98.32474149987755L160.464,101.31755533054861L160.712,98.10996114155886L161.02,94.3141564623986L161.336,95.55580197750375L161.42000000000002,95.58747755475152L161.452,98.69429099353536L161.504,98.56594950234324L161.512,98.21528696780662L161.928,101.97246193745887L161.936,103.44139637068405L162.284,96.08037847786443L162.296,95.19519615874269L163.08800000000002,96.6152130447164L163.116,100.13349134618052L163.38,95.5057538840811L163.39999999999998,92.47880555552089L163.816,90.42394471185513L163.88400000000001,94.38592055251463L164.152,99.63465105380772L164.232,98.20894402396378L164.66,100.21913755813259L164.928,100.15375710454991L164.988,102.41164918498642L165.052,103.00505883548527L165.104,103.92121511531197L165.244,96.73808948496375L165.34799999999998,94.88122877855734L166.28,89.63214294143302L166.52,94.57155930217773L166.64000000000001,92.11853490203622L166.71599999999998,97.01826265611254L167.072,98.84931904370389L167.228,98.47132447338981L167.24400000000003,98.23443267132967L167.28,97.3849413954385L167.404,100.1156848130525L167.632,97.13148995585645L168.216,92.26787873316252L168.68,93.7784513684617L168.812,92.57686192507585L169.248,96.7468630912803L169.82399999999998,102.97719803906894L169.96,103.08138610993277L171.05999999999997,101.21849748337934L171.232,101.39140064822438L171.508,103.4420479613948L172.772,98.42614944051157L172.992,83.50117721917502L173.052,89.67086757081115L173.464,88.86388393754183L173.76,93.77864459264926L173.824,94.87730762427243L173.868,93.4007080022406L174.00400000000002,98.5704632534928L174.324,92.6665504495907L174.56799999999998,97.18995225353689L174.572,101.61615191652568L174.804,100.66854539367074L174.88400000000001,103.83153751801957L175.05599999999998,99.23119102703438L175.364,94.05927704246983L175.928,96.21244366450398L176.02,89.39754727373493L176.02399999999997,85.40888102187698L176.568,80.31223166386675L176.952,85.74503086646631L177.188,93.6886254269296L177.23199999999997,94.33684120089298L178.368,98.08196694956511L178.81199999999998,99.64884154383117L178.924,95.66769622793065L179.12800000000001,94.9080341201838L179.516,92.81162252476709L179.64,96.7724776851191L179.66000000000003,97.73243054869099L179.728,103.94894491308327L180.084,106.3128128052159L180.89999999999998,103.84459207457725L181.188,97.83429149390713L181.60799999999998,97.93073296309385L181.95600000000002,95.36432611402398L182.00400000000002,103.29052893394149L182.132,104.22238729838878L182.244,104.03549702035L182.592,103.38208445151615L182.632,93.59342998806618L182.656,94.2924271973609L182.672,92.24674416895543L182.79600000000002,96.54426743179063L182.804,98.12048110717238L182.85999999999999,92.06866710992874L182.88400000000001,97.83097445336315L183.176,95.82103251636427L184.16400000000002,104.1735276692335L184.516,101.62720938801114L184.62,103.0712615228455L184.98000000000002,104.29680391411546L185.088,98.01167035258153L185.368,96.8591645766676L185.64000000000001,99.32481195585214L185.968,101.08359429472458L186.16,106.05741794447366L186.224,104.84011072838463L186.44,104.18395488415653L187.09199999999998,102.87527832361755L187.124,104.13499130193013L187.38000000000002,101.79241905242375L187.488,99.69061540939514L188.02800000000002,96.1137275499787L188.056,95.76963994121668L188.12800000000001,94.6666915966041L188.54,94.24143946287833L188.636,93.77439094852092L188.67600000000002,97.18514136038631L188.732,93.2566087696696L188.98,97.37026344858079L189.35999999999999,101.5996260074127L189.804,103.60632013642876L189.876,102.77293638804014L189.916,99.22339526266926L190,92.47725576232517L190.436,97.04720250410227L190.716,93.75099500601921L191.10799999999998,95.01257346025366L191.72799999999998,98.92418695659197L191.85999999999999,101.35484909517024L191.928,100.8646929353622L192.084,102.84263312956577L193.11599999999999,99.70781157100728L193.9,101.18700511664868L194.076,101.30919758524927L194.216,103.50110699760775L194.33599999999998,103.36955046272989L194.43200000000002,108.16770636012187L194.56,105.58692663294094L194.848,99.83647013931683L194.956,101.71969805893826L194.97199999999998,101.31502479754404L195.03199999999998,99.50130468473346L195.136,101.97707081952997L195.224,99.77942509126251L195.90800000000002,96.42753097616585L195.924,103.19331788541646L195.976,104.46525913191897L196.296,100.38418677079517L196.31199999999998,96.94665540830992L196.456,95.69614083911998L196.804,100.42212888009959L196.832,97.65878470981687L197.008,99.68569963124138L197.22000000000003,102.19048501022702L197.376,97.10541105450022L197.61999999999998,101.50127078402537L198.008,107.29179263894855L198.16,99.66258670956951L198.344,95.96495663367348L198.348,95.01539074128452L198.584,92.81546790646861L198.92,91.04319398749283L199.01600000000002,92.97199371148196L199.212,92.65154881490696L199.268,91.82172288028457L199.85999999999999,93.87988799131746L199.98,93.1839004118254L200.216,89.6575351491974L200.42,99.2422475736582L201.244,99.23914553252322L201.28,97.50218594587325L201.49200000000002,98.23105043480683L202.032,93.60261008526815L202.176,97.48748613229951L202.588,100.69512412248986L202.636,100.22469330608212L203.088,104.414148478385L203.36,103.23802149812948L203.5,104.21854567043327L204.10000000000002,104.42249992000467L204.136,104.22673927450622L204.244,103.65759217364258L204.364,98.26452640467487L204.5,99.49241686129731L204.68,105.83180149951077L204.712,103.68350770011642L204.82399999999998,96.95509248138526L205.276,91.61094794170694L205.33999999999997,92.35115573106192L205.58800000000002,93.97010913271495L205.656,94.6393349177368L206,96.50685026288397L206.036,98.14613131706137L206.788,92.86763122096193L206.996,94.54296640404782L208.148,96.72073462316625L208.232,96.63797651554685L208.79600000000002,94.85771823421445L208.968,96.65209538437124L209.18,99.11835113782007L209.208,97.38571472337833L209.28799999999998,95.89446868521566L209.392,91.59449769271967L209.752,91.10497052995498L209.96,87.81074391719582L210.2,91.42068747431169L210.228,95.4361290519444L210.34400000000002,96.23428503980287L210.55599999999998,93.17211490656962L210.572,88.41318685483554L210.62400000000002,93.14412517153197L210.68,90.72184991123063L210.77599999999998,99.12069026995769L210.824,102.8913342179998L210.952,98.19676374328998L210.98,99.16497044324598L211.036,96.31814331944618L211.488,98.13713612438738L211.532,98.27615866034131L211.55599999999998,96.42321450493078L211.72,101.64142896124527L211.736,99.57666956616724L211.792,100.65743199527236L211.884,105.18286457184934L212.308,94.4527509998718L212.48000000000002,93.65042995163435L212.728,90.17269659091215L212.79199999999997,87.06793203383198L212.91199999999998,93.26142796136644L213.68800000000002,95.8444403663737L213.868,103.93473613195394L214.06,101.94159663080836L214.09199999999998,101.56998013869723L214.524,98.9200351322639L214.60399999999998,97.93135634769688L215.38,100.72943847006376L215.932,101.68730348324267L217.092,95.78819799011245L217.308,91.15545863063312L217.408,95.68295673619416L217.912,103.0652529324534L218.236,99.9374041115508L218.48,97.47601597042475L218.55599999999998,96.34778712907391L218.792,95.15492843023314L219.256,91.28082634467708L219.572,93.68992611244614L220.028,97.90341107333876L220.228,101.04835459163891L220.376,95.5706323657698L220.6,98.71010850315888L220.664,97.4207359737889L220.784,88.79938903173225L221.076,96.56103679768495L221.53199999999998,98.70387457946292L221.884,99.02889676375798L222.156,104.87159123112924L222.52,101.0630532270084L222.52800000000002,102.51458615653178L222.552,94.475053309952L223.27999999999997,97.37353099558044L223.92,92.7640662740069L224.064,96.83380747340505L224.524,94.45626106164289L224.54,91.38368675491074L224.912,93.4905288341494L225.132,87.35002525585006L225.37199999999999,94.03696394326553L225.752,95.45405488627513L226.56799999999998,101.27606012871283L227.00400000000002,96.86540431450061L227.18,99.48148649535727L227.196,99.8874772445489L227.22799999999998,96.95504809157823L227.82,102.73029643736346L228.008,101.76762911344805L228.27200000000002,97.89005815187241L228.28,93.5920860083847L228.952,98.98871300490394L229.172,99.05963603976387L229.284,97.98069395814152L229.416,100.48228184895007L229.512,99.61224647273394L229.55200000000002,94.47634081786735L230.04399999999998,88.57044051138081L230.11599999999999,88.17363075046255L230.416,95.20216314571209L230.568,97.96373904492722L230.732,99.34651591427884L231.136,101.55052479534008L231.212,103.2614776438196L231.62800000000001,103.95199119323807L231.76000000000002,98.6701922929743L232.016,95.6051721721764L232.056,95.5646244575506L232.37199999999999,100.86007762888624L232.432,101.29393169247838L232.57999999999998,101.06173641461372L233.60799999999998,100.15013213740731L233.64,100.62910633357531L233.876,95.3739139620791L233.932,93.72108464147628L234.596,98.82923988922029L234.828,98.7541132038251L234.85600000000002,100.36434939297531L234.872,101.34277882253623L234.88799999999998,99.85436537708142L235.29999999999998,92.54360005167305L235.452,93.59599980259247L235.584,89.21920423832124L235.628,95.1932072507933L236.09599999999998,98.76156199778688L236.292,95.5705813654596L236.352,96.77055502067016L236.43599999999998,98.49958545047049L236.49599999999998,103.93937284992937L236.736,93.43625194577459L236.968,97.89914013593246L237.476,97.19875020374168L237.868,97.09697833809838L238.36,95.86759019188237L238.504,86.64740509366287L238.592,96.32282713597193L238.768,98.84221706119285L238.82000000000002,102.32366615132753L238.88,97.39473608888943L239.23200000000003,97.76792556300418L239.456,101.19541251413816L239.75199999999998,95.66587654602206L239.932,95.95432820231721L240.776,103.4673122861644L241.2,105.35265055688185L241.212,99.82219264939604L241.316,91.00449920913685L241.44,92.71423513027692L242.156,97.66468725800117L242.17600000000002,96.61816975394647L242.20800000000003,99.99732077272591L242.85600000000002,101.57962260336791L243.06799999999998,94.18012571548095L243.184,98.0476875397444L243.484,96.228956553909L243.85600000000002,100.26611624175678L243.868,97.07535010982178L244.368,97.92472826486005L245.22,97.40677920805518L245.352,99.5464303920295L245.52,100.10881068883099L245.648,106.152752172417L245.732,105.67216236877437L245.98399999999998,102.19594100408553L246.032,105.99438145931242L246.088,104.35493922934342L246.11599999999999,101.49295264108225L246.12400000000002,99.93915955001064L246.436,102.21489532256493L247.15200000000002,98.01004578350606L247.284,95.58042120344612L247.428,92.51836832805776L247.55599999999998,97.93146907753332L248,104.33534337361604L248.148,104.09249128468802L248.952,103.974168782838L249.048,103.29176724676758L249.20000000000002,103.65728706155899L249.224,109.2555966140907L249.31199999999998,101.25333071323719L249.596,91.06097048464906L249.88,97.48471680448547L249.94,97.23138216634251L250.076,99.48596302370026L250.304,106.47073819060998L250.74800000000002,98.0460904229872L250.89999999999998,96.30569611723381L251.044,89.2947009249637L251.484,94.45419921343185L252.364,97.57556641021166L253.184,97.64231173149028L253.388,97.45844275127617L253.764,99.1930116794751L254.228,97.51197176271157L254.448,100.2576544270524L254.56799999999998,100.0998873106008L254.58399999999997,105.69708668339445L254.752,103.46956866471882L254.88,100.86022623472759L254.988,97.63594355638833L255.05599999999998,97.92640542461085L255.11599999999999,97.58672039592429L255.156,98.95703317851323L255.49200000000002,103.75158181665638L256.06,101.75761701789479L256.124,100.15095326181441L256.136,99.09848840361548L256.14799999999997,98.18397117053895L256.236,100.18978664315996L256.696,92.76449830355601L257.06,99.38901865694338L257.248,101.36493377018023L257.44,99.22883503513366L257.732,101.77558181013761L258.308,104.34931468959311L258.5,103.151043701146L258.564,98.4629737583641L258.684,102.1365711399621L258.88,100.87414542289812L258.932,101.30689914297405L258.952,98.74756470086979L259.008,98.17582210359657L259.276,103.15636189654082L259.452,98.16214758877722L259.56,94.37989303305606L259.86,94.30200822056251" fill="none"></path></g></g></g></g><g opacity="0.2"><g><g><g><path style="fill: none;" stroke="rgb(255, 112, 67)" stroke-width="2px" d="M20.172,31.159904440244077L20.183999999999997,43.539261162281065L20.288,14.196684996287047L20.38,55.83124760786694L20.671999999999997,51.924774189790114L20.92,54.57894915342332L20.94,62.77141118049623L21.024,52.606345454851805L21.096,56.560818592707335L21.236,74.54240306218468L21.244,71.94907430807751L21.276,77.7037977576256L21.9,92.32285995284718L22.148,75.42146368821464L22.32,97.56290598710379L22.348,74.97217251857124L22.54,92.38836113611859L22.592000000000002,76.84906854232155L22.86,91.59867777427039L22.892000000000003,78.92291460434598L23.212,78.87177620331448L23.236,82.73042672872545L23.348,76.75005420049034L23.888,75.01926157871884L24.06,83.258821507295L24.267999999999997,75.72234386205675L24.42,86.10335969924928L24.724,96.62042189637822L25.048000000000002,65.67101333538693L25.267999999999997,94.88298941651982L25.28,70.03914697964989L25.336,99.01944859822592L25.352,61.58697013060254L25.543999999999997,78.24869050582252L25.572,101.26115221778554L25.748,92.10091540217401L25.868,76.39438414573671L26.212,68.09503012895586L26.34,72.22541087865831L26.768,93.15541062752408L26.939999999999998,71.00594921906792L26.952,73.25840834776562L27.38,78.93605285882951L27.512,73.44746305545173L27.672,92.08659682671231L27.792,104.8460964759191L28.148,71.63275712728502L28.388,55.130579014619215L28.752,84.34052600463234L28.8,83.8699094851812L28.928,81.37814138333005L29.052,86.4880028764407L29.232000000000003,91.43097936113676L29.56,75.18019193410875L29.747999999999998,85.02557192246121L29.816,89.95930919051172L29.824,74.26501437028251L29.844,72.33455741405488L29.944,96.09574932853383L29.948,94.71745271484059L29.996000000000002,88.98488128185274L30.016000000000002,83.83538399140042L30.132,79.56723723808926L30.744,78.13304557402931L30.964,86.8771374622981L31.872,100.14703088998796L32.156,93.4139583905538L32.168,87.11367909113568L32.647999999999996,104.9223708510399L32.924,81.28380411863328L32.988,79.39438873529436L32.992000000000004,103.03854762514433L33.224000000000004,96.66818289955458L33.924,80.98420594135922L34.476,87.98365964492164L34.484,72.08636287848157L34.684000000000005,80.92691395680112L34.967999999999996,78.1129580140114L35.26,100.22473756472272L35.288000000000004,72.30515106519066L35.716,87.63681326309842L35.827999999999996,75.01042022307716L36.147999999999996,79.25999128818513L36.396,94.14000609517099L36.788,85.0433253645897L36.931999999999995,93.29059937596323L37.272,91.86205291748048L37.604,77.68661016225816L37.972,82.9341669281324L38.040000000000006,85.46514644225441L38.124,75.84878408908845L38.66,92.25694764653844L38.676,74.76938718557359L38.708,107.20489500959715L39.156,101.842475771904L39.211999999999996,95.08695949117345L39.364,92.70854198932649L39.58,92.41963743170103L39.888000000000005,102.50113466382028L40.204,92.02343418200812L40.212,67.42877209186555L40.428,85.60704135894777L40.540000000000006,94.2781964838505L41.38399999999999,103.23487876852354L41.44,83.9595696727435L41.684,97.46420109272005L42.2,86.25549290577572L42.72,83.20763005812965L42.896,85.44794116417569L43.236000000000004,88.71473366022111L43.46,100.01700107256573L43.488,100.75838852922124L43.632,87.33708246548973L43.964,91.93868094682695L44.528,110.0835077861945L44.804,86.99134125312172L44.879999999999995,93.49128046631814L45.16,82.11177939176561L45.251999999999995,96.69792964061102L45.508,71.91643202304842L46.083999999999996,87.25049906969072L46.300000000000004,94.8820964396L46.416,96.67527366677922L46.788,106.57199982802075L46.800000000000004,83.26013002792996L46.848,98.37724346915883L47.419999999999995,98.67450310786566L47.868,94.67236622174582L47.972,75.85188740491868L48.46,101.63631304105124L48.624,86.91060199340187L49.248,101.62656102577847L49.532000000000004,105.96010728677115L49.804,92.4448087712129L49.844,109.10877043008806L49.856,87.29411347707115L49.916000000000004,81.84610549608868L50.048,88.18145845333737L50.775999999999996,91.29176779588065L51.156,93.27143573760988L51.196,75.31465127070747L51.336,91.60774900515875L51.967999999999996,105.2699554860592L52.268,97.79474401474L52.724,91.13505476713182L52.888000000000005,87.14282904068631L53.455999999999996,111.42880403995515L53.476,92.15931255618733L53.512,96.59508699178697L53.884,98.59419707457226L53.996,116.23166272044182L54.036,94.29224981864294L54.408,108.13627435763678L54.544,94.51914552847546L54.784,86.52395182847978L55.516,100.79885983467103L55.632000000000005,102.84133234620096L55.716,88.45561120907468L55.744,82.74452869097394L55.976,81.70542184511822L56.224000000000004,81.2884723544121L57.044,89.84606468677522L57.268,96.34158322215082L57.396,97.57100908954939L57.744,96.25540652871133L57.876,102.43564232190451L58.22,106.858910659949L58.272000000000006,99.86720640460652L58.632,84.78475991884869L58.724000000000004,90.86409816145898L58.796,91.02440078059834L59.376,74.23942748705548L59.632,96.66903166969618L60.236,94.89674214522046L60.339999999999996,94.05848879615468L61.108000000000004,77.99904598792396L61.136,104.39601400494577L61.6,90.87374850114188L61.92,94.3054941693942L62.092,85.59446010986966L62.432,83.87993558247886L62.556,82.93723487854005L62.62,87.12766611576082L62.848,93.04332434137663L63.032,106.21327950557074L63.036,85.9922592242559L63.124,92.93566757440568L63.368,83.3973743915558L63.403999999999996,96.75212273001672L63.612,95.80964748064679L63.623999999999995,100.95384879906973L63.775999999999996,98.23911496996881L63.868,87.9187464118004L63.892,85.78278982639314L63.9,105.56806389490765L64.084,87.75734746456148L64.41199999999999,85.04855944712959L64.488,95.14442830284437L64.524,91.32332701484364L64.79599999999999,101.32058381040892L64.804,86.53955682118736L65.044,88.74797715743385L65.67999999999999,107.36287677288057L65.892,110.60693372289342L65.97200000000001,104.47431305050851L66.096,86.39875823259355L66.13199999999999,95.98942318558694L66.268,98.33919469515484L66.596,87.81515224774681L66.744,90.0073884824912L67.04,83.19117629528047L67.496,107.73298918207487L67.88,98.8018805185954L67.89999999999999,87.04110040267311L68.044,95.25242988268536L68.16799999999999,103.73909686009091L68.556,91.0388563970725L68.66,97.51178968946141L68.74,94.7755315800508L69.164,109.33324360847475L69.624,95.68223912517232L69.836,90.46608685453734L70.688,103.43619201580685L71.512,102.31481193502745L71.76,83.26382571458818L72.072,82.24394881725313L72.13999999999999,99.24183521668118L72.248,108.59117978811265L72.332,95.88805262247723L72.38,81.10921386877698L72.44,109.95674484968187L72.96,94.34547477960588L73.61200000000001,101.66202370325726L73.628,101.64647617936136L74.02,92.60283916195235L74.18799999999999,105.1750567952792L74.39200000000001,89.14574090639752L74.484,95.77815899252893L74.72,102.19724842906L75.244,101.81391819318137L75.54,95.01152946551642L76.324,104.73443457484247L76.888,90.9227296113968L77.152,95.09010701378187L77.17999999999999,94.80238719781241L77.284,94.6898190577825L77.356,87.469455242157L77.592,111.18373492360116L77.792,102.6640410621961L78.53200000000001,108.14343143502873L78.556,86.78860896825792L78.676,89.67699586351713L78.712,105.46934131781262L78.75200000000001,97.75628853837651L79.12,104.8365522325039L79.156,97.81764754652978L79.24,93.65388183792433L79.49600000000001,88.28246210018796L79.57199999999999,80.64037446180981L80.364,90.78123697638513L80.724,98.79323809345564L81.068,77.13122272491456L81.3,80.54621402422589L81.896,83.0841516852379L81.904,90.85144176085791L82.032,93.90162988503775L82.156,92.26994886000952L82.964,108.22726958990098L83.06,97.98207023739816L83.096,89.33765137195589L83.316,91.81684264540674L83.976,107.56095850467683L84.384,99.48680265744528L84.468,104.94656522075337L85,107.4020395576954L85.288,81.22328503926597L85.37599999999999,96.5201122959455L85.444,110.88507835070294L85.628,93.54527020454408L86.024,88.7018341223399L86.792,101.40804692109427L87.236,110.6446863114834L87.24,92.52089747786523L87.432,97.33937883377077L87.6,100.62100270390512L88.268,113.78766888380052L88.392,96.71312351028126L88.52799999999999,81.71374156077705L88.96000000000001,105.01204872131349L89.092,95.07595642407736L89.172,91.74688541889192L89.268,93.63523983955385L89.27199999999999,97.54813208182654L89.284,101.39563807845117L89.36,93.27623659372331L89.62400000000001,97.17586238185567L89.77999999999999,94.2308554450671L89.82,85.76803360382718L90.176,119.30333975950879L90.232,99.4498988389969L90.348,110.17870708306631L90.38,109.87966149051985L90.496,95.51235247651738L90.892,100.96148773034415L91.816,104.43637479345006L91.928,95.51603490114213L92.07600000000001,103.124719897906L92.21600000000001,84.5257347226143L92.264,81.82246371110283L92.52,85.05599502722424L93.06,104.17199615637463L93.27600000000001,92.59626119335493L93.808,96.8588069478671L93.812,84.04011442263923L94.372,93.98388543725015L94.856,87.16950341065727L94.88399999999999,97.39286461472513L95.384,95.8019731839498L95.836,98.11376222968103L96.024,88.11899427572888L96.196,83.60274140040082L96.46799999999999,94.56813548008603L96.68,91.03887407978377L97.088,94.13531133532526L98.104,97.32319915294649L98.128,91.6137611269951L98.56400000000001,90.09758799274763L98.61999999999999,102.19715559482576L98.928,94.09762063622476L98.952,86.62776702642442L99.29599999999999,104.15543629725775L99.388,96.49120548367502L99.668,92.19796254237494L99.756,92.20519035061201L99.888,97.67520004510881L99.984,98.50004547834398L100.14399999999999,84.65260817607246L100.21600000000001,105.74324209491414L100.24,106.94260293245317L100.25200000000001,96.1308495104313L100.556,108.78114957610768L100.56,106.62077316641809L100.74799999999999,102.11983351906142L100.87199999999999,96.03956251343092L100.98,94.6859774887562L100.99199999999999,100.57048761844636L101.01199999999999,101.36817682782811L101.296,85.81167453527452L101.34,98.22994648416838L101.536,109.7193367679914L101.764,89.1976838707924L101.944,89.21961927413942L102.108,95.29275530576707L102.16000000000001,100.6057911515236L102.164,87.3322816093763L102.252,108.09302244583768L102.31599999999999,97.82058287660283L102.75999999999999,83.35142586628598L102.84400000000001,81.58223523696266L103.11999999999999,96.24794884522757L103.132,101.64232516288759L103.136,99.5037957429886L103.328,114.18585701783499L103.424,95.59350727995238L103.952,85.93632880846661L104.324,99.87403635183972L104.58,105.83954656124116L104.84,93.1649416089058L104.932,107.13178141911825L105.268,90.16345609227818L105.28,82.50266456604005L105.3,98.69371095299722L105.568,98.83777642250062L105.64,99.49277499318124L105.94,105.22434735298158L106.096,104.90822910269102L106.728,97.60825330018999L106.9,96.58827914794287L107.184,93.36707710226378L107.288,114.82264681657156L107.372,110.9016558925311L107.396,105.04676430424055L108.028,89.47832618157071L108.984,82.44370156526567L109.036,107.99645715951921L109.17200000000001,85.44500583410264L109.324,105.6990927855174L109.436,82.28396479288739L109.892,93.74564184745154L110.032,93.91417134801549L110.18,88.88206515709561L110.544,82.16042453050615L111.06400000000001,87.68967572848004L111.364,97.28149889906248L111.724,108.34458111723265L111.73599999999999,90.09276945392293L112.33999999999999,93.79027301073076L112.556,102.14699858427049L112.596,94.65068279703459L112.732,97.79258672396344L112.772,88.1093483567238L112.876,87.86972109476727L113.056,92.10298427939416L113.14800000000001,90.50128429134688L113.448,108.75340540210408L113.524,99.87067221601805L113.712,108.29916749397916L114.164,94.35711884498598L114.36,88.35594260692598L114.684,93.0236965318521L114.728,113.35854926705362L114.80799999999999,99.61473707358044L115.10000000000001,91.3355590303739L115.328,91.70126844445866L115.756,106.57682278752328L116.32,90.66493778427443L116.476,103.27333424488705L116.592,100.92407553394636L116.94,111.16704244414967L117.132,90.12168068687123L117.14,111.73065676291785L117.292,90.67543689409894L117.384,111.37813423077267L117.668,104.97214768330258L118.232,98.91078391671182L118.488,104.95606525739035L118.88,87.16736380259198L118.91199999999999,92.04707596699399L119.608,85.91617051760358L119.74000000000001,87.97868196169537L120.036,101.1144078175227L120.192,108.51470648248991L120.536,88.58888580401741L120.928,95.14471122622491L120.97999999999999,98.73398332794508L121.01599999999999,99.81488326191904L121.33200000000001,106.90301576256753L121.56800000000001,98.03504764040312L122.024,102.46924831469855L122.08399999999999,92.36538245280585L122.4,70.6619055469831L122.74799999999999,91.02611600359282L123.252,99.08037437995276L123.392,106.07492113113405L123.688,89.4184878865878L124.184,90.92063421010972L124.268,78.12452250719072L124.368,108.7077000141144L124.62400000000001,91.17112749814989L124.68,108.18539250890416L125.172,108.70891570051512L125.216,101.11978336175284L125.616,73.45309499899548L125.884,93.26882753769559L126.684,97.91033589839937L127.19200000000001,99.24076541264853L127.196,108.03088981906575L127.31200000000001,79.57313442230226L127.32000000000001,95.1724730829398L127.71600000000001,108.56320131818455L128.572,98.29213215907416L128.596,98.84831973910333L128.62,88.43375537792843L128.636,105.74930284420651L128.64,88.9516554673513L129.1,97.62501208980879L130.024,100.1973956724008L130.416,100.95280109842619L130.45600000000002,106.75418480237326L130.484,107.41019570827486L130.55599999999998,108.45421392718953L130.96,99.83837474385899L131.304,101.92840932806334L131.668,102.8476008673509L131.676,100.09981363018355L131.804,94.93853523333868L131.876,99.01470521092416L133.00799999999998,92.13803583383562L133.112,107.79667346676192L133.28799999999998,113.96851881345114L133.756,84.10745902856193L133.808,96.73775110642117L134.17600000000002,100.86308786273004L134.292,68.49203352133435L134.448,103.70418676733972L135.88400000000001,111.51279691855115L135.988,83.26993509133659L136.076,93.96044700344405L136.152,95.10082715749742L136.252,103.18898329138757L136.316,105.96936860680582L136.364,102.19426447153093L136.808,119.2618782222271L137.056,87.42831641435625L137.888,103.70412929852804L137.916,95.90023158987364L137.952,105.39888455470404L138.15200000000002,104.68259328603746L138.164,95.00179071227711L138.248,89.3079576790333L138.37199999999999,97.08665310343108L138.448,93.71027642488481L138.992,90.36527329683305L139.316,95.21375337243082L139.32,93.19613833228749L139.456,99.89571977655095L140.00400000000002,97.40762967864674L140.024,104.38083781798682L140.128,93.52850257356963L140.312,102.8082082072894L140.372,92.33363314469656L140.7,104.79979429642361L140.872,89.41201601425809L140.976,112.47702632347745L141.14000000000001,91.7658633887768L141.312,84.69754878679913L141.84,104.07578010360402L141.884,86.32853134473167L142.29199999999997,72.61596892277402L142.45200000000003,102.58221431573233L142.828,96.6813167333603L142.884,93.94140272339186L142.956,95.15031222502392L144.212,97.62137387196225L144.424,104.23926561077437L145.62800000000001,97.25684919953348L145.776,97.8283632695675L146.78799999999998,98.32154734929404L146.892,113.23187916477522L147.23600000000002,103.40365582704545L147.496,80.82774047056836L147.524,112.31673696637155L147.556,102.00769418478014L147.748,100.00441982348761L147.78400000000002,84.48944979906084L148.02,87.1974863012632L148.072,103.99688868721327L148.7,83.87896303335827L148.832,93.71593047181767L149,102.07899087667467L149.74400000000003,98.8692295451959L150.12,98.65529968341193L150.172,101.7297794322173L150.448,95.89092164238295L150.632,104.77884028355282L150.828,80.15459501743318L151.05200000000002,99.77235634128255L151.58,103.41858887672426L151.61200000000002,96.69525513052942L152.012,90.38128941257796L152.06,114.33563842376074L152.14000000000001,101.62271503607434L152.612,110.81542173027994L152.71999999999997,96.73637185494107L152.728,85.9910302758217L153.08800000000002,94.18046855926515L153.36800000000002,97.81936719020209L153.476,86.59968688090645L153.504,99.75683534145357L153.616,118.43200205763182L154.16,105.19644845525426L154.52800000000002,96.15478306015333L154.916,101.19878087441128L154.952,93.71939186255139L155,106.24932129184407L155.07600000000002,104.49078007539114L155.144,87.63904128472012L155.35999999999999,101.48655815919241L155.408,102.95692422986032L155.50799999999998,96.1315921843052L155.656,94.5438040693601L156.072,92.89963905016583L156.148,100.2925463418166L156.17600000000002,89.41435897350313L156.35999999999999,117.02480305234593L156.56799999999998,105.86743219693503L156.57999999999998,109.22174527247748L156.72,97.8974452018738L157.448,86.20847457647325L157.452,110.81904668609303L157.536,111.56972198685011L157.756,98.80300337076189L158.104,111.19018469254178L158.108,96.16434498627981L158.26,103.55045327544214L158.4,87.32100888093315L158.43599999999998,63.77048436800641L159.136,91.40559140841168L159.516,99.22883400321008L160.32000000000002,108.29910118381184L160.464,105.80677607655527L160.712,93.2985698580742L161.02,88.62044944365822L161.336,97.4182702501615L161.42000000000002,95.63499092062315L161.452,103.35451115171116L161.504,98.37343726555508L161.512,97.68929316600165L161.928,107.60822439193727L161.936,105.64479802052182L162.284,85.03885163863502L162.296,93.86742268006009L163.08800000000002,98.74523837367695L163.116,105.41090879837674L163.38,88.56414769093197L163.39999999999998,87.93838306268059L163.816,87.34165344635647L163.88400000000001,100.32888431350392L164.152,107.50774680574736L164.232,96.07038347919783L164.66,103.23442785938582L164.928,100.05568642417592L164.988,105.79848730564119L165.052,103.89517331123353L165.104,105.295449535052L165.244,85.96340103944145L165.34799999999998,92.09593771894774L166.28,81.75851418574653L166.52,101.9806838432948L166.64000000000001,88.43899830182396L166.71599999999998,104.367854287227L167.072,101.59590362509093L167.228,97.90433261791867L167.24400000000003,97.87909496823949L167.28,96.11070448160173L167.404,104.21179993947348L167.632,92.65519767006239L168.216,84.97246189912163L168.68,96.0443103214105L168.812,90.77447775999707L169.248,103.00186484058699L169.82399999999998,112.32270046075186L169.96,103.2376682162285L171.05999999999997,98.42416454354924L171.232,101.65075539549193L171.508,106.51801893115045L172.772,90.90230165918669L172.992,61.11371888717018L173.052,98.92540309826535L173.464,87.65340848763786L173.76,101.15078557531041L173.824,96.52530217170717L173.868,91.1858085691929L174.00400000000002,106.32509613037111L174.324,83.81068124373756L174.56799999999998,103.97505495945614L174.572,108.25545141100885L174.804,99.24713560938837L174.88400000000001,108.57602570454281L175.05599999999998,92.33067129055661L175.364,86.30140606562298L175.928,99.44219359755517L176.02,79.1752026875814L176.02399999999997,79.42588164409004L176.568,72.66725762685142L176.952,93.89422967036566L177.188,105.60401726762456L177.23199999999997,95.30916486183804L178.368,103.69965557257336L178.81199999999998,101.99915343523027L178.924,89.69597825407983L179.12800000000001,93.7685409585635L179.516,89.66700513164204L179.64,102.71376042564711L179.66000000000003,99.17235984404883L179.728,113.27371645967168L180.084,109.85861464341482L180.89999999999998,100.14226097861928L181.188,88.81884062290193L181.60799999999998,98.07539516687395L181.95600000000002,91.51471584041914L182.00400000000002,115.17983316381773L182.132,105.62017484505972L182.244,103.75516160329184L182.592,102.40196559826535L182.632,78.9104482928912L182.656,95.34092301130296L182.672,89.17821962634724L182.79600000000002,102.99055232604346L182.804,100.484801620245L182.85999999999999,82.99094611406328L182.88400000000001,106.47443546851477L183.176,92.80611961086592L184.16400000000002,116.70227039853734L184.516,97.80773196617764L184.62,105.23733972509703L184.98000000000002,106.13511750102045L185.088,88.58397001028062L185.368,95.13040591279668L185.64000000000001,103.02328302462897L185.968,103.7217678030332L186.16,113.51815341909727L186.224,103.01414990425111L186.44,103.19972111781439L187.09199999999998,100.91226348280908L187.124,106.02456076939902L187.38000000000002,98.27856067816418L187.488,96.5379099448522L188.02800000000002,90.7483957608541L188.056,95.25350852807364L188.12800000000001,93.01226907968523L188.54,93.6035612622897L188.636,93.0738181769848L188.67600000000002,102.3012669781844L188.732,87.36380988359453L188.98,103.54074546694757L189.35999999999999,107.94366984566054L189.804,106.6163613299529L189.876,101.52286076545717L189.916,93.89908357461294L190,82.35804651180905L190.436,103.9021226167679L190.716,88.80668375889462L191.10799999999998,96.90494114160539L191.72799999999998,104.79160720109941L191.85999999999999,105.00084230303766L191.928,100.12945869565011L192.084,105.80954342087111L193.11599999999999,95.00557923316957L193.9,103.40579543511075L194.076,101.49248628815016L194.216,106.78897111614546L194.33599999999998,103.17221566041312L194.43200000000002,115.36494020620984L194.56,101.71575704216959L194.848,91.21078539888066L194.956,104.5445399383704L194.97199999999998,100.70801490545274L195.03199999999998,96.78072451551756L195.136,105.69072002172472L195.224,96.48295649886133L195.90800000000002,91.39968980352086L195.924,113.34199824929239L195.976,106.37317100167276L196.296,94.26257822910947L196.31199999999998,91.79035836458208L196.456,93.82036898533505L196.804,107.51111094156903L196.832,93.51376845439276L197.008,102.72607201337816L197.22000000000003,105.94766307870549L197.376,89.47780012091002L197.61999999999998,108.09506037831308L198.008,115.97757542133331L198.16,88.21877781550091L198.344,90.41851151982945L198.348,93.59104190270108L198.584,89.51558365424475L198.92,88.38478310902916L199.01600000000002,95.86519329746565L199.212,92.17088147004446L199.268,90.57698397835097L199.85999999999999,96.9671356578668L199.98,92.1399190425873L200.216,84.3679872552554L200.42,113.61931621034941L201.244,99.23449247082075L201.28,94.89674656589827L201.49200000000002,99.32434716820718L202.032,86.65994956096016L202.176,103.31480020284654L202.588,105.50658110777539L202.636,99.5190470814705L203.088,110.69833123683931L203.36,101.47383102774621L203.5,105.68933192888898L204.10000000000002,104.72843129436177L204.136,103.93309830625853L204.244,102.80387152234715L204.364,90.17492775122327L204.5,101.33425254623097L204.68,115.34087845683098L204.712,100.4610670010249L204.82399999999998,86.86246965328854L205.276,83.59473113218945L205.33999999999997,93.46146741509439L205.58800000000002,96.39853923519453L205.656,95.64317359526953L206,99.30812328060469L206.036,100.60505289832753L206.788,84.94988107681276L206.996,97.05596917867662L208.148,99.98738695184392L208.232,96.51383935411772L208.79600000000002,92.18733081221582L208.968,99.34366110960644L209.18,102.8177347679933L209.208,94.78676010171574L209.28799999999998,93.65759962797166L209.392,85.14454120397569L209.752,90.37067978580794L209.96,82.86940399805707L210.2,96.83560280998549L210.228,101.45929141839346L210.34400000000002,97.43151902159056L210.55599999999998,88.57885970671974L210.572,81.27479477723442L210.62400000000002,100.24053264657658L210.68,87.08843702077867L210.77599999999998,111.71895080804826L210.824,108.54730014006299L210.952,91.15490803122522L210.98,100.61728049317998L211.036,92.04790263374647L211.488,100.86562533179921L211.532,98.4846924642722L211.55599999999998,93.643798271815L211.72,109.468750645717L211.736,96.47953047355017L211.792,102.27857563893002L211.884,111.97101343671483L212.308,78.35758064190549L212.48000000000002,92.4469483792782L212.728,84.95609654982887L212.79199999999997,82.41078519821168L212.91199999999998,102.55167185266814L213.68800000000002,99.7189589738846L213.868,116.07017978032431L214.06,98.95188737909001L214.09199999999998,101.01255540053052L214.524,94.94511762261392L214.60399999999998,96.44833817084631L215.38,104.92656165361406L215.932,103.12410100301108L217.092,86.9395397504171L217.308,84.20634959141415L217.408,102.47420389453572L217.912,114.13869722684225L218.236,95.2456308801969L218.48,93.78393375873567L218.55599999999998,94.65544386704764L218.792,93.36564038197201L219.256,85.46967321634294L219.572,97.30357576409978L220.028,104.2236385146777L220.228,105.76576986908914L220.376,87.35404902696611L220.6,103.41932270924252L220.664,95.48667717973393L220.784,75.86736861864728L221.076,108.20350844661397L221.53199999999998,101.91813125212988L221.884,99.51643004020056L222.156,113.63563293218614L222.52,95.35024622082712L222.52800000000002,104.69188555081686L222.552,82.41575404008232L223.27999999999997,101.72124752402307L223.92,85.84986919164659L224.064,102.93841927250227L224.524,90.88994144399962L224.54,86.77482529481254L224.912,96.6507919530074L225.132,78.13926988840105L225.37199999999999,104.06737197438878L225.752,97.57969130078953L226.56799999999998,110.00906799236935L227.00400000000002,90.24942059318226L227.18,103.40560976664227L227.196,100.49646336833638L227.22799999999998,92.55640436212224L227.82,111.39316895604135L228.008,100.32362812757493L228.27200000000002,92.07370170950891L228.28,87.14512779315315L228.952,107.08365349968275L229.172,99.16602059205374L229.284,96.36228083570799L229.416,104.23466368516287L229.512,98.30719340840977L229.55200000000002,86.77248233556749L230.04399999999998,79.71159005165102L230.11599999999999,87.5784161090851L230.416,105.74496173858644L230.568,102.10610289374989L230.732,101.42068121830624L231.136,104.85653811693193L231.212,105.8279069165389L231.62800000000001,104.98776151736578L231.76000000000002,90.74749394257864L232.016,91.00764199097952L232.056,95.50380288561186L232.37199999999999,108.80325738588971L232.432,101.9447127878666L232.57999999999998,100.71344349781674L233.60799999999998,98.78272572159769L233.64,101.34756762782735L233.876,87.49112540483476L233.932,91.24184066057207L234.596,106.4914727608363L234.828,98.64142317573231L234.85600000000002,102.7797036767006L234.872,102.81042296687764L234.88799999999998,97.6217452088992L235.29999999999998,81.5774520635605L235.452,95.17459942897162L235.584,82.65401089191438L235.628,104.15421176950139L236.09599999999998,104.11409411827725L236.292,90.78411041696867L236.352,98.570515503486L236.43599999999998,101.09313109517099L236.49599999999998,112.09905394911767L236.736,77.6815705895424L236.968,104.5934724211693L237.476,96.14816530545554L237.868,96.94432053963345L238.36,94.02350797255835L238.504,72.81712744633359L238.592,110.83596019943556L238.768,102.62130194902421L238.82000000000002,107.54583978652956L238.88,90.00134099523228L239.23200000000003,98.3277097741763L239.456,106.33664294083914L239.75199999999998,87.37157259384793L239.932,96.38700568675996L240.776,114.73678841193518L241.2,108.18065796295804L241.212,91.52650578816733L241.316,77.77795904874803L241.44,95.27883901198706L242.156,105.09036544958752L242.17600000000002,95.04839349786442L242.20800000000003,105.06604730089506L242.85600000000002,103.95307534933092L243.06799999999998,83.08088038365048L243.184,103.84903027613959L243.484,93.50086007515591L243.85600000000002,106.32185577352843L243.868,92.2892009119193L244.368,99.19879549741746L245.22,96.62985562284788L245.352,102.75590716799101L245.52,100.95238113403322L245.648,115.218664397796L245.732,104.95127766331038L245.98399999999998,96.98160895705225L246.032,111.6920421421528L246.088,101.89577588438989L246.11599999999999,97.19997275869054L246.12400000000002,97.60846991340321L246.436,105.62849898139638L247.15200000000002,91.70277147491774L247.284,91.93598433335623L247.428,87.92528901497525L247.55599999999998,106.05112020174664L248,113.94115481774014L248.148,103.72821315129599L248.952,103.796685030063L249.048,102.26816494266194L249.20000000000002,104.2055667837461L249.224,117.65306094288826L249.31199999999998,89.24993186195692L249.596,75.77243014176689L249.88,107.1203362842401L249.94,96.85138020912808L250.076,102.8678343097369L250.304,116.94790094097456L250.74800000000002,85.40911877155305L250.89999999999998,93.69510465860368L251.044,78.77820813655855L251.484,102.19344664613408L252.364,102.25761720538141L253.184,97.74242971340817L253.388,97.18263928095502L253.764,101.79486507177354L254.228,94.99041188756627L254.448,104.37617842356366L254.56799999999998,99.8632366359234L254.58399999999997,114.09288574258488L254.752,100.12829163670541L254.88,96.94621258974077L254.988,92.79951953887941L255.05599999999998,98.36209822694462L255.11599999999999,97.07719285289448L255.156,101.01250235239667L255.49200000000002,110.94340477387112L256.06,98.7666698197524L256.124,97.74095762769383L256.136,97.51979111631712L256.14799999999997,96.81219532092413L256.236,103.19850985209149L256.696,81.62656579415005L257.06,109.32579918702444L257.248,104.32880644003552L257.44,96.0246869325638L257.732,105.59570197264355L258.308,108.20991400877637L258.5,101.35363721847536L258.564,91.43086884419125L258.684,107.64696721235913L258.88,98.98050684730214L258.932,101.95602972308797L258.952,94.90856303771338L259.008,97.31820820768675L259.276,110.62717158595723L259.452,90.67082612713179L259.56,88.70651119947435L259.86,94.18518100182217" fill="none"></path></g></g></g></g></g></g><g transform="translate(50, 178)" clip-path="url(#clip_1)"><clipPath id="clip_1"><rect width="280" height="22"></rect></clipPath><g><g><line x1="0" y1="0" x2="0" y2="5" style="visibility: inherit;" fill="rgb(0, 0, 0)" stroke="rgb(204, 204, 204)" stroke-width="1px"></line><line x1="20" y1="0" x2="20" y2="5" style="visibility: inherit;" fill="rgb(0, 0, 0)" stroke="rgb(204, 204, 204)" stroke-width="1px"></line><line x1="40" y1="0" x2="40" y2="5" style="visibility: inherit;" fill="rgb(0, 0, 0)" stroke="rgb(204, 204, 204)" stroke-width="1px"></line><line x1="60" y1="0" x2="60" y2="5" style="visibility: inherit;" fill="rgb(0, 0, 0)" stroke="rgb(204, 204, 204)" stroke-width="1px"></line><line x1="80" y1="0" x2="80" y2="5" style="visibility: inherit;" fill="rgb(0, 0, 0)" stroke="rgb(204, 204, 204)" stroke-width="1px"></line><line x1="100" y1="0" x2="100" y2="5" style="visibility: inherit;" fill="rgb(0, 0, 0)" stroke="rgb(204, 204, 204)" stroke-width="1px"></line><line x1="120" y1="0" x2="120" y2="5" style="visibility: inherit;" fill="rgb(0, 0, 0)" stroke="rgb(204, 204, 204)" stroke-width="1px"></line><line x1="140" y1="0" x2="140" y2="5" style="visibility: inherit;" fill="rgb(0, 0, 0)" stroke="rgb(204, 204, 204)" stroke-width="1px"></line><line x1="160" y1="0" x2="160" y2="5" style="visibility: inherit;" fill="rgb(0, 0, 0)" stroke="rgb(204, 204, 204)" stroke-width="1px"></line><line x1="180" y1="0" x2="180" y2="5" style="visibility: inherit;" fill="rgb(0, 0, 0)" stroke="rgb(204, 204, 204)" stroke-width="1px"></line><line x1="200" y1="0" x2="200" y2="5" style="visibility: inherit;" fill="rgb(0, 0, 0)" stroke="rgb(204, 204, 204)" stroke-width="1px"></line><line x1="220" y1="0" x2="220" y2="5" style="visibility: inherit;" fill="rgb(0, 0, 0)" stroke="rgb(204, 204, 204)" stroke-width="1px"></line><line x1="240" y1="0" x2="240" y2="5" style="visibility: inherit;" fill="rgb(0, 0, 0)" stroke="rgb(204, 204, 204)" stroke-width="1px"></line><line x1="260" y1="0" x2="260" y2="5" style="visibility: inherit;" fill="rgb(0, 0, 0)" stroke="rgb(204, 204, 204)" stroke-width="1px"></line><line x1="280" y1="0" x2="280" y2="5" style="visibility: inherit;" fill="rgb(0, 0, 0)" stroke="rgb(204, 204, 204)" stroke-width="1px"></line></g><g transform="translate(0, 8)"><text x="0" y="0" dx="0em" dy="0.95em" style="text-anchor: middle; visibility: hidden; font-family: &quot;Helvetica Neue&quot;, sans-serif; font-size: 12px; font-weight: 200;" fill="rgb(50, 49, 63)" stroke="none" stroke-width="1px">-50k</text><text x="20" y="0" dx="0em" dy="0.95em" style="text-anchor: middle; visibility: inherit; font-family: &quot;Helvetica Neue&quot;, sans-serif; font-size: 12px; font-weight: 200;" fill="rgb(50, 49, 63)" stroke="none" stroke-width="1px">0</text><text x="40" y="0" dx="0em" dy="0.95em" style="text-anchor: middle; visibility: hidden; font-family: &quot;Helvetica Neue&quot;, sans-serif; font-size: 12px; font-weight: 200;" fill="rgb(50, 49, 63)" stroke="none" stroke-width="1px">50k</text><text x="60" y="0" dx="0em" dy="0.95em" style="text-anchor: middle; visibility: inherit; font-family: &quot;Helvetica Neue&quot;, sans-serif; font-size: 12px; font-weight: 200;" fill="rgb(50, 49, 63)" stroke="none" stroke-width="1px">100k</text><text x="80" y="0" dx="0em" dy="0.95em" style="text-anchor: middle; visibility: hidden; font-family: &quot;Helvetica Neue&quot;, sans-serif; font-size: 12px; font-weight: 200;" fill="rgb(50, 49, 63)" stroke="none" stroke-width="1px">150k</text><text x="100" y="0" dx="0em" dy="0.95em" style="text-anchor: middle; visibility: inherit; font-family: &quot;Helvetica Neue&quot;, sans-serif; font-size: 12px; font-weight: 200;" fill="rgb(50, 49, 63)" stroke="none" stroke-width="1px">200k</text><text x="120" y="0" dx="0em" dy="0.95em" style="text-anchor: middle; visibility: hidden; font-family: &quot;Helvetica Neue&quot;, sans-serif; font-size: 12px; font-weight: 200;" fill="rgb(50, 49, 63)" stroke="none" stroke-width="1px">250k</text><text x="140" y="0" dx="0em" dy="0.95em" style="text-anchor: middle; visibility: inherit; font-family: &quot;Helvetica Neue&quot;, sans-serif; font-size: 12px; font-weight: 200;" fill="rgb(50, 49, 63)" stroke="none" stroke-width="1px">300k</text><text x="160" y="0" dx="0em" dy="0.95em" style="text-anchor: middle; visibility: hidden; font-family: &quot;Helvetica Neue&quot;, sans-serif; font-size: 12px; font-weight: 200;" fill="rgb(50, 49, 63)" stroke="none" stroke-width="1px">350k</text><text x="180" y="0" dx="0em" dy="0.95em" style="text-anchor: middle; visibility: inherit; font-family: &quot;Helvetica Neue&quot;, sans-serif; font-size: 12px; font-weight: 200;" fill="rgb(50, 49, 63)" stroke="none" stroke-width="1px">400k</text><text x="200" y="0" dx="0em" dy="0.95em" style="text-anchor: middle; visibility: hidden; font-family: &quot;Helvetica Neue&quot;, sans-serif; font-size: 12px; font-weight: 200;" fill="rgb(50, 49, 63)" stroke="none" stroke-width="1px">450k</text><text x="220" y="0" dx="0em" dy="0.95em" style="text-anchor: middle; visibility: inherit; font-family: &quot;Helvetica Neue&quot;, sans-serif; font-size: 12px; font-weight: 200;" fill="rgb(50, 49, 63)" stroke="none" stroke-width="1px">500k</text><text x="240" y="0" dx="0em" dy="0.95em" style="text-anchor: middle; visibility: hidden; font-family: &quot;Helvetica Neue&quot;, sans-serif; font-size: 12px; font-weight: 200;" fill="rgb(50, 49, 63)" stroke="none" stroke-width="1px">550k</text><text x="260" y="0" dx="0em" dy="0.95em" style="text-anchor: middle; visibility: inherit; font-family: &quot;Helvetica Neue&quot;, sans-serif; font-size: 12px; font-weight: 200;" fill="rgb(50, 49, 63)" stroke="none" stroke-width="1px">600k</text><text x="280" y="0" dx="0em" dy="0.95em" style="text-anchor: middle; visibility: hidden; font-family: &quot;Helvetica Neue&quot;, sans-serif; font-size: 12px; font-weight: 200;" fill="rgb(50, 49, 63)" stroke="none" stroke-width="1px">650k</text></g><line x1="0" y1="0" x2="280" y2="0" fill="rgb(0, 0, 0)" stroke="rgb(204, 204, 204)" stroke-width="1px"></line></g></g></g></g></svg>