<svg viewBox="0 0 330 200" xmlns="http://www.w3.org/2000/svg"><g><g><g><g><g><line x1="60" y1="178" x2="55" y2="178" style="visibility: inherit;" fill="rgb(0, 0, 0)" stroke="rgb(204, 204, 204)" stroke-width="1px"></line><line x1="60" y1="165.28571428571428" x2="55" y2="165.28571428571428" style="visibility: inherit;" fill="rgb(0, 0, 0)" stroke="rgb(204, 204, 204)" stroke-width="1px"></line><line x1="60" y1="152.57142857142856" x2="55" y2="152.57142857142856" style="visibility: inherit;" fill="rgb(0, 0, 0)" stroke="rgb(204, 204, 204)" stroke-width="1px"></line><line x1="60" y1="139.85714285714286" x2="55" y2="139.85714285714286" style="visibility: inherit;" fill="rgb(0, 0, 0)" stroke="rgb(204, 204, 204)" stroke-width="1px"></line><line x1="60" y1="127.14285714285714" x2="55" y2="127.14285714285714" style="visibility: inherit;" fill="rgb(0, 0, 0)" stroke="rgb(204, 204, 204)" stroke-width="1px"></line><line x1="60" y1="114.42857142857142" x2="55" y2="114.42857142857142" style="visibility: inherit;" fill="rgb(0, 0, 0)" stroke="rgb(204, 204, 204)" stroke-width="1px"></line><line x1="60" y1="101.71428571428571" x2="55" y2="101.71428571428571" style="visibility: inherit;" fill="rgb(0, 0, 0)" stroke="rgb(204, 204, 204)" stroke-width="1px"></line><line x1="60" y1="88.99999999999999" x2="55" y2="88.99999999999999" style="visibility: inherit;" fill="rgb(0, 0, 0)" stroke="rgb(204, 204, 204)" stroke-width="1px"></line><line x1="60" y1="76.28571428571428" x2="55" y2="76.28571428571428" style="visibility: inherit;" fill="rgb(0, 0, 0)" stroke="rgb(204, 204, 204)" stroke-width="1px"></line><line x1="60" y1="63.57142857142854" x2="55" y2="63.57142857142854" style="visibility: inherit;" fill="rgb(0, 0, 0)" stroke="rgb(204, 204, 204)" stroke-width="1px"></line><line x1="60" y1="50.85714285714283" x2="55" y2="50.85714285714283" style="visibility: inherit;" fill="rgb(0, 0, 0)" stroke="rgb(204, 204, 204)" stroke-width="1px"></line><line x1="60" y1="38.14285714285714" x2="55" y2="38.14285714285714" style="visibility: inherit;" fill="rgb(0, 0, 0)" stroke="rgb(204, 204, 204)" stroke-width="1px"></line><line x1="60" y1="25.428571428571388" x2="55" y2="25.428571428571388" style="visibility: inherit;" fill="rgb(0, 0, 0)" stroke="rgb(204, 204, 204)" stroke-width="1px"></line><line x1="60" y1="12.714285714285694" x2="55" y2="12.714285714285694" style="visibility: inherit;" fill="rgb(0, 0, 0)" stroke="rgb(204, 204, 204)" stroke-width="1px"></line><line x1="60" y1="0" x2="55" y2="0" style="visibility: inherit;" fill="rgb(0, 0, 0)" stroke="rgb(204, 204, 204)" stroke-width="1px"></line></g><g transform="translate(50, 0)"><text x="0" y="178" dx="0em" dy="0.3em" style="text-anchor: end; visibility: hidden; font-family: &quot;Helvetica Neue&quot;, sans-serif; font-size: 12px; font-weight: 200;" fill="rgb(50, 49, 63)" stroke="none" stroke-width="1px">-0.01</text><text x="0" y="165.28571428571428" dx="0em" dy="0.3em" style="text-anchor: end; visibility: inherit; font-family: &quot;Helvetica Neue&quot;, sans-serif; font-size: 12px; font-weight: 200;" fill="rgb(50, 49, 63)" stroke="none" stroke-width="1px">-5e-3</text><text x="0" y="152.57142857142856" dx="0em" dy="0.3em" style="text-anchor: end; visibility: hidden; font-family: &quot;Helvetica Neue&quot;, sans-serif; font-size: 12px; font-weight: 200;" fill="rgb(50, 49, 63)" stroke="none" stroke-width="1px">0</text><text x="0" y="139.85714285714286" dx="0em" dy="0.3em" style="text-anchor: end; visibility: inherit; font-family: &quot;Helvetica Neue&quot;, sans-serif; font-size: 12px; font-weight: 200;" fill="rgb(50, 49, 63)" stroke="none" stroke-width="1px">5e-3</text><text x="0" y="127.14285714285714" dx="0em" dy="0.3em" style="text-anchor: end; visibility: hidden; font-family: &quot;Helvetica Neue&quot;, sans-serif; font-size: 12px; font-weight: 200;" fill="rgb(50, 49, 63)" stroke="none" stroke-width="1px">0.01</text><text x="0" y="114.42857142857142" dx="0em" dy="0.3em" style="text-anchor: end; visibility: inherit; font-family: &quot;Helvetica Neue&quot;, sans-serif; font-size: 12px; font-weight: 200;" fill="rgb(50, 49, 63)" stroke="none" stroke-width="1px">0.015</text><text x="0" y="101.71428571428571" dx="0em" dy="0.3em" style="text-anchor: end; visibility: hidden; font-family: &quot;Helvetica Neue&quot;, sans-serif; font-size: 12px; font-weight: 200;" fill="rgb(50, 49, 63)" stroke="none" stroke-width="1px">0.02</text><text x="0" y="88.99999999999999" dx="0em" dy="0.3em" style="text-anchor: end; visibility: inherit; font-family: &quot;Helvetica Neue&quot;, sans-serif; font-size: 12px; font-weight: 200;" fill="rgb(50, 49, 63)" stroke="none" stroke-width="1px">0.025</text><text x="0" y="76.28571428571428" dx="0em" dy="0.3em" style="text-anchor: end; visibility: hidden; font-family: &quot;Helvetica Neue&quot;, sans-serif; font-size: 12px; font-weight: 200;" fill="rgb(50, 49, 63)" stroke="none" stroke-width="1px">0.03</text><text x="0" y="63.57142857142854" dx="0em" dy="0.3em" style="text-anchor: end; visibility: inherit; font-family: &quot;Helvetica Neue&quot;, sans-serif; font-size: 12px; font-weight: 200;" fill="rgb(50, 49, 63)" stroke="none" stroke-width="1px">0.035</text><text x="0" y="50.85714285714283" dx="0em" dy="0.3em" style="text-anchor: end; visibility: hidden; font-family: &quot;Helvetica Neue&quot;, sans-serif; font-size: 12px; font-weight: 200;" fill="rgb(50, 49, 63)" stroke="none" stroke-width="1px">0.04</text><text x="0" y="38.14285714285714" dx="0em" dy="0.3em" style="text-anchor: end; visibility: inherit; font-family: &quot;Helvetica Neue&quot;, sans-serif; font-size: 12px; font-weight: 200;" fill="rgb(50, 49, 63)" stroke="none" stroke-width="1px">0.045</text><text x="0" y="25.428571428571388" dx="0em" dy="0.3em" style="text-anchor: end; visibility: hidden; font-family: &quot;Helvetica Neue&quot;, sans-serif; font-size: 12px; font-weight: 200;" fill="rgb(50, 49, 63)" stroke="none" stroke-width="1px">0.05</text><text x="0" y="12.714285714285694" dx="0em" dy="0.3em" style="text-anchor: end; visibility: inherit; font-family: &quot;Helvetica Neue&quot;, sans-serif; font-size: 12px; font-weight: 200;" fill="rgb(50, 49, 63)" stroke="none" stroke-width="1px">0.055</text><text x="0" y="0" dx="0em" dy="0.3em" style="text-anchor: end; visibility: hidden; font-family: &quot;Helvetica Neue&quot;, sans-serif; font-size: 12px; font-weight: 200;" fill="rgb(50, 49, 63)" stroke="none" stroke-width="1px">0.06</text></g><line x1="60" y1="0" x2="60" y2="178" fill="rgb(0, 0, 0)" stroke="rgb(204, 204, 204)" stroke-width="1px"></line></g></g><g transform="translate(60, 0)" clip-path="url(#clip_0)"><clipPath id="clip_0"><rect width="270" height="178"></rect></clipPath><g><g><g><line x1="0" y1="0" x2="0" y2="178" fill="rgb(0, 0, 0)" stroke="rgb(60, 60, 60)" stroke-width="1px" opacity="0.25"></line><line x1="19.285714285714285" y1="0" x2="19.285714285714285" y2="178" fill="rgb(0, 0, 0)" stroke="rgb(60, 60, 60)" stroke-width="1px" opacity="0.25"></line><line x1="38.57142857142857" y1="0" x2="38.57142857142857" y2="178" fill="rgb(0, 0, 0)" stroke="rgb(60, 60, 60)" stroke-width="1px" opacity="0.25"></line><line x1="57.857142857142854" y1="0" x2="57.857142857142854" y2="178" fill="rgb(0, 0, 0)" stroke="rgb(60, 60, 60)" stroke-width="1px" opacity="0.25"></line><line x1="77.14285714285714" y1="0" x2="77.14285714285714" y2="178" fill="rgb(0, 0, 0)" stroke="rgb(60, 60, 60)" stroke-width="1px" opacity="0.25"></line><line x1="96.42857142857143" y1="0" x2="96.42857142857143" y2="178" fill="rgb(0, 0, 0)" stroke="rgb(60, 60, 60)" stroke-width="1px" opacity="0.25"></line><line x1="115.71428571428571" y1="0" x2="115.71428571428571" y2="178" fill="rgb(0, 0, 0)" stroke="rgb(60, 60, 60)" stroke-width="1px" opacity="0.25"></line><line x1="135" y1="0" x2="135" y2="178" fill="rgb(0, 0, 0)" stroke="rgb(60, 60, 60)" stroke-width="1px" opacity="0.25"></line><line x1="154.28571428571428" y1="0" x2="154.28571428571428" y2="178" fill="rgb(0, 0, 0)" stroke="rgb(60, 60, 60)" stroke-width="1px" opacity="0.25"></line><line x1="173.57142857142858" y1="0" x2="173.57142857142858" y2="178" fill="rgb(0, 0, 0)" stroke="rgb(60, 60, 60)" stroke-width="1px" opacity="0.25"></line><line x1="192.85714285714286" y1="0" x2="192.85714285714286" y2="178" fill="rgb(0, 0, 0)" stroke="rgb(60, 60, 60)" stroke-width="1px" opacity="0.25"></line><line x1="212.14285714285714" y1="0" x2="212.14285714285714" y2="178" fill="rgb(0, 0, 0)" stroke="rgb(60, 60, 60)" stroke-width="1px" opacity="0.25"></line><line x1="231.42857142857142" y1="0" x2="231.42857142857142" y2="178" fill="rgb(0, 0, 0)" stroke="rgb(60, 60, 60)" stroke-width="1px" opacity="0.25"></line><line x1="250.71428571428572" y1="0" x2="250.71428571428572" y2="178" fill="rgb(0, 0, 0)" stroke="rgb(60, 60, 60)" stroke-width="1px" opacity="0.25"></line><line x1="270" y1="0" x2="270" y2="178" fill="rgb(0, 0, 0)" stroke="rgb(60, 60, 60)" stroke-width="1px" opacity="0.25"></line></g><g><line x1="0" y1="178" x2="270" y2="178" fill="rgb(0, 0, 0)" stroke="rgb(60, 60, 60)" stroke-width="1px" opacity="0.25"></line><line x1="0" y1="165.28571428571428" x2="270" y2="165.28571428571428" fill="rgb(0, 0, 0)" stroke="rgb(60, 60, 60)" stroke-width="1px" opacity="0.25"></line><line x1="0" y1="152.57142857142856" x2="270" y2="152.57142857142856" fill="rgb(0, 0, 0)" stroke="rgb(60, 60, 60)" stroke-width="1px" opacity="0.25"></line><line x1="0" y1="139.85714285714286" x2="270" y2="139.85714285714286" fill="rgb(0, 0, 0)" stroke="rgb(60, 60, 60)" stroke-width="1px" opacity="0.25"></line><line x1="0" y1="127.14285714285714" x2="270" y2="127.14285714285714" fill="rgb(0, 0, 0)" stroke="rgb(60, 60, 60)" stroke-width="1px" opacity="0.25"></line><line x1="0" y1="114.42857142857142" x2="270" y2="114.42857142857142" fill="rgb(0, 0, 0)" stroke="rgb(60, 60, 60)" stroke-width="1px" opacity="0.25"></line><line x1="0" y1="101.71428571428571" x2="270" y2="101.71428571428571" fill="rgb(0, 0, 0)" stroke="rgb(60, 60, 60)" stroke-width="1px" opacity="0.25"></line><line x1="0" y1="88.99999999999999" x2="270" y2="88.99999999999999" fill="rgb(0, 0, 0)" stroke="rgb(60, 60, 60)" stroke-width="1px" opacity="0.25"></line><line x1="0" y1="76.28571428571428" x2="270" y2="76.28571428571428" fill="rgb(0, 0, 0)" stroke="rgb(60, 60, 60)" stroke-width="1px" opacity="0.25"></line><line x1="0" y1="63.57142857142854" x2="270" y2="63.57142857142854" fill="rgb(0, 0, 0)" stroke="rgb(60, 60, 60)" stroke-width="1px" opacity="0.25"></line><line x1="0" y1="50.85714285714283" x2="270" y2="50.85714285714283" fill="rgb(0, 0, 0)" stroke="rgb(60, 60, 60)" stroke-width="1px" opacity="0.25"></line><line x1="0" y1="38.14285714285714" x2="270" y2="38.14285714285714" fill="rgb(0, 0, 0)" stroke="rgb(60, 60, 60)" stroke-width="1px" opacity="0.25"></line><line x1="0" y1="25.428571428571388" x2="270" y2="25.428571428571388" fill="rgb(0, 0, 0)" stroke="rgb(60, 60, 60)" stroke-width="1px" opacity="0.25"></line><line x1="0" y1="12.714285714285694" x2="270" y2="12.714285714285694" fill="rgb(0, 0, 0)" stroke="rgb(60, 60, 60)" stroke-width="1px" opacity="0.25"></line><line x1="0" y1="0" x2="270" y2="0" fill="rgb(0, 0, 0)" stroke="rgb(60, 60, 60)" stroke-width="1px" opacity="0.25"></line></g></g></g><g><g><line x1="0" y1="152.57142857142856" x2="270" y2="152.57142857142856" fill="rgb(0, 0, 0)" stroke="rgb(153, 153, 153)" stroke-width="1.5px"></line></g></g><g><g><line x1="19.285714285714285" y1="0" x2="19.285714285714285" y2="178" fill="rgb(0, 0, 0)" stroke="rgb(153, 153, 153)" stroke-width="1.5px"></line></g></g><g><g><g><g><g><path stroke="rgb(0, 153, 136)" stroke-width="2px" d="M19.45157142857143,119.13536979045185L19.463142857142856,116.65064493353876L19.56342857142857,120.0678789860163L19.652142857142856,122.25132631714456L19.933714285714284,124.50799841451209L20.172857142857143,122.09741213247347L20.19214285714286,122.0089091108726L20.273142857142858,119.75039187605594L20.34257142857143,120.26855835545743L20.47757142857143,121.9761238585517L20.485285714285716,122.86341215674298L20.516142857142857,117.31376081778404L21.11785714285714,114.65870000359442L21.357,112.86907338318899L21.52285714285714,115.25595056156611L21.549857142857142,113.38910903577062L21.735,104.91685741728266L21.78514285714286,107.89396752488007L22.04357142857143,108.94718842917938L22.074428571428573,113.53173698487639L22.383,106.41229406658267L22.406142857142857,107.65443427108221L22.514142857142858,110.4685664068721L23.034857142857145,108.35234265005307L23.200714285714284,104.72790236252327L23.401285714285713,104.74768554488591L23.547857142857143,109.61545819187043L23.841,99.95215191210137L24.153428571428574,105.36768188413058L24.365571428571428,103.96647602353758L24.377142857142857,98.36983214800432L24.431142857142856,91.70763944026511L24.44657142857143,93.63056579760541L24.631714285714285,104.88209779559055L24.658714285714286,103.34690339820119L24.828428571428574,105.26142556564906L24.944142857142854,105.42233224606416L25.275857142857145,99.31448107646833L25.399285714285714,99.88678599429045L25.812,104.2017006851227L25.977857142857143,102.10199429258809L25.989428571428572,101.73034866730697L26.402142857142856,99.8365725889446L26.52942857142857,93.6252062513856L26.683714285714288,95.89495661946135L26.799428571428574,107.7406838152488L27.142714285714284,111.24108133356208L27.374142857142857,94.60694276178621L27.725142857142856,90.44926265716167L27.771428571428572,92.0586712606619L27.894857142857145,94.1447859900911L28.01442857142857,97.60168153535203L28.188000000000002,97.11722406684564L28.504285714285714,104.69225123670809L28.68557142857143,104.5244656534591L28.751142857142856,105.02002918675508L28.758857142857142,99.33778939058936L28.778142857142857,98.77030477218621L28.87457142857143,84.80330903987065L28.87842857142857,96.62291545718614L28.924714285714288,98.27603987446734L28.944000000000003,98.76531706431886L29.055857142857143,107.22719277101224L29.645999999999997,108.32042281576693L29.85814285714286,105.12907185951352L30.733714285714285,94.26739773926074L31.00757142857143,101.64613453373371L31.019142857142857,90.48368917648304L31.482,96.93634663619324L31.748142857142856,105.11767553385329L31.809857142857144,100.75034652887275L31.813714285714287,100.96883976043374L32.03742857142857,88.80204424521342L32.71242857142857,99.978244037899L33.24471428571429,99.77465572330544L33.252428571428574,105.53383698554964L33.44528571428572,101.77438913594821L33.719142857142856,109.20583494216372L34.00071428571428,101.59550665019306L34.02771428571429,96.05514708339513L34.440428571428576,96.64009534276973L34.54842857142857,102.7887189581009L34.857,105.88342454352882L35.09614285714286,103.45461976598122L35.47414285714285,106.32613675664886L35.613,97.8321501606119L35.94085714285714,105.5573311002702L36.261,101.45104141497359L36.615857142857145,107.06041763069868L36.681428571428576,100.87913738738837L36.76242857142857,93.43401637040967L37.27928571428571,93.50919025159662L37.294714285714285,102.43966338669543L37.32557142857143,102.98440322021472L37.757571428571424,104.63435436724411L37.811571428571426,106.57192903051576L37.95814285714286,87.71601384766248L38.16642857142857,79.08692454480638L38.46342857142857,89.51107214364811L38.768142857142855,91.82317499337526L38.77585714285714,98.93123651551377L38.98414285714286,106.76471233768133L39.09214285714286,100.90861800515655L39.906,91.12512516801017L39.96,82.56144052205833L40.19528571428572,96.65443745125388L40.69285714285714,103.58644644140254L41.19428571428572,104.82888905351125L41.364000000000004,93.6607178742053L41.691857142857145,91.93321121482924L41.90785714285715,72.68386835072273L41.93485714285714,86.9428387867535L42.07371428571429,84.1861372210291L42.393857142857144,88.71257027316062L42.937714285714286,76.46959587749741L43.203857142857146,89.28366613996499L43.277142857142856,93.27611505930611L43.54714285714286,88.5749975636544L43.63585714285714,87.67306696951161L43.882714285714286,90.30549116180532L44.43814285714286,83.57531915972535L44.64642857142857,88.6111149351309L44.75828571428571,87.73284449576519L45.117,74.70826799119898L45.12857142857143,90.4132457946696L45.17485714285714,83.12154945631656L45.72642857142857,80.49198447255795L46.15842857142857,91.95961090191179L46.25871428571429,98.25737285066094L46.729285714285716,91.9499369429061L46.88742857142857,99.11752095798971L47.48914285714286,98.84785819556727L47.763,92.16764759537429L48.025285714285715,101.55341175772914L48.06385714285714,85.64669408261616L48.075428571428574,87.24146012295931L48.13328571428572,89.0609483577283L48.26057142857143,89.63139815019598L48.96257142857143,92.52985061333816L49.329,86.55832335630124L49.36757142857143,83.09243842261374L49.50257142857143,90.74264175101766L50.111999999999995,90.87894203014746L50.40128571428571,89.85105002024797L50.841,74.84467489418142L50.99914285714286,77.14998550771377L51.54685714285714,72.0159150219593L51.56614285714286,78.82656178926533L51.600857142857144,89.34832779928941L51.95957142857143,82.28543871672623L52.06757142857143,88.92157690026744L52.106142857142856,88.9226232503645L52.46485714285714,73.1717303306917L52.596000000000004,82.02509739471287L52.82742857142857,79.17807817888242L53.53328571428571,76.35531526805325L53.64514285714286,89.22945672189027L53.72614285714286,88.10418027605546L53.753142857142855,84.54776706809741L53.97685714285714,91.79721325826338L54.216,99.41283252954018L55.00671428571429,86.50362345538633L55.22271428571428,90.26365522131162L55.34614285714286,95.83591605061227L55.681714285714285,84.97547754125229L55.809,75.59900269981507L56.14071428571429,70.47526371310663L56.19085714285715,72.6668243265229L56.538000000000004,85.37632078595128L56.626714285714286,91.88967090088421L56.69614285714285,98.20536604561582L57.255428571428574,88.77522752215023L57.50228571428571,92.89589892155037L58.084714285714284,88.46497638411904L58.185,73.86946764203086L58.92557142857143,80.49925893093018L58.95257142857143,79.48525289627148L59.4,69.47809361078946L59.708571428571425,68.60527061883055L59.87442857142857,66.07934156272756L60.202285714285715,87.46773736902512L60.32185714285714,91.648773098332L60.38357142857143,97.26046602671465L60.60342857142857,101.78169249478738L60.780857142857144,89.41363957801678L60.78471428571429,85.79918456954871L60.869571428571426,81.78701721184697L61.10485714285714,82.90067198723423L61.13957142857143,73.84172899918843L61.34014285714286,84.65400405911016L61.35171428571428,92.65171678680002L61.498285714285714,67.80474989029608L61.586999999999996,87.98895755034961L61.61014285714286,82.01985229614571L61.61785714285714,94.31967827404814L61.79528571428571,98.08645401530431L62.11157142857142,90.47247930065835L62.18485714285715,82.53233514037716L62.21957142857143,75.42674359233544L62.481857142857145,84.3080754019587L62.48957142857143,82.18088936955805L62.721000000000004,81.41352029758266L63.33428571428571,88.91905091309717L63.538714285714285,88.15947031647204L63.615857142857145,86.21150021422004L63.73542857142857,89.54710434997459L63.77014285714286,91.60064743877629L63.90128571428571,94.15831020216048L64.21757142857143,96.57591507033466L64.36028571428571,97.51733192709042L64.64571428571429,88.75081124226176L65.08542857142857,61.24688402144082L65.4557142857143,78.7360231042168L65.475,81.01692921801312L65.61385714285714,49.396677651681955L65.73342857142856,70.2105090861235L66.10757142857143,57.98086834159916L66.20785714285715,76.93056840766157L66.285,87.11617371609142L66.69385714285714,83.77866888199095L67.13742857142857,73.93894465967412L67.34185714285715,88.86378090150626L68.16342857142858,91.559819504461L68.958,75.09511666887653L69.19714285714285,86.32724166271547L69.498,85.43731930610805L69.56357142857142,69.70051854496958L69.66771428571428,50.499732912733634L69.74871428571429,67.04362352791746L69.795,85.09093069333306L69.85285714285715,71.92179607214774L70.35428571428571,80.59641380113403L70.983,92.1191210718463L70.99842857142856,80.33575656385972L71.37642857142856,68.0883385956868L71.53842857142857,80.57702833978387L71.73514285714286,86.93312066593418L71.82385714285714,80.82463275625055L72.05142857142857,81.08599332011097L72.55671428571429,64.68538179071429L72.84214285714286,67.47445017411695L73.59814285714285,82.23051469621242L74.142,75.43234765085734L74.39657142857143,93.33682265316992L74.42357142857142,86.064076182132L74.52385714285714,78.75729771771289L74.59328571428571,74.35550110580114L74.82085714285714,60.92373452657239L75.01371428571429,74.90137294446652L75.72728571428571,64.95618345942188L75.75042857142857,80.49939653716915L75.86614285714286,86.63848502982061L75.90085714285713,92.60559901912372L75.93942857142858,92.63726377443786L76.29428571428572,84.76407449568691L76.32900000000001,92.76336996463235L76.41,83.645575765599L76.65685714285715,78.79077374363537L76.73014285714285,79.55270210786783L77.49385714285714,81.3190329024842L77.841,89.45699208817342L78.17271428571428,89.45157695179337L78.39642857142857,90.07714462169923L78.97114285714287,85.40841716824397L78.97885714285715,66.99787701316613L79.10228571428571,85.8076064036208L79.22185714285715,82.45701058306253L80.001,78.94585505464853L80.09357142857144,90.67862393990826L80.12828571428571,90.99469776224505L80.34042857142857,83.20283507103005L80.97685714285714,61.04146134033654L81.37028571428571,70.25829343510468L81.45128571428572,60.32522956478573L81.96428571428571,85.96723117098115L82.24199999999999,81.01177370230602L82.32685714285714,91.98058591741136L82.39242857142857,92.81283908214152L82.56985714285715,94.63289931069207L82.95171428571427,74.00581927501176L83.69228571428572,95.96954938943674L84.12042857142858,74.53013492040886L84.1242857142857,87.23623273281333L84.30942857142857,85.69069971048066L84.47142857142856,66.15553712721245L85.11557142857143,66.57859307137502L85.23514285714286,73.26920631712483L85.36628571428571,76.53518961401248L85.78285714285714,59.8696671172098L85.91014285714286,83.91882778581441L85.98728571428572,91.77337602583296L86.07985714285715,81.34478168978808L86.08371428571428,90.47964608559246L86.09528571428572,90.79293487368574L86.16857142857143,95.7976916289272L86.42314285714286,94.95424873384177L86.57357142857143,82.97259400317576L86.61214285714286,73.80433920434913L86.95542857142857,77.41593845309677L87.00942857142857,67.0424125863558L87.1212857142857,75.22589479593503L87.15214285714286,88.04324848734562L87.264,81.74280063381228L87.64585714285714,82.18710940905585L88.53685714285714,81.74276018840767L88.64485714285715,61.97633965805534L88.78757142857144,74.82184333316913L88.92257142857143,87.55679712748925L88.96885714285715,65.46474300361518L89.21571428571428,81.23673277086183L89.73642857142858,90.17899055546417L89.94471428571428,75.02786859266035L90.45771428571429,72.84921321286728L90.46157142857143,79.18396302382024L91.00157142857142,82.63211343273613L91.46828571428571,82.89828354948794L91.49528571428571,89.41575308688383L91.97742857142858,78.15219797965189L92.4132857142857,85.89956202176872L92.59457142857143,67.80252233628637L92.76042857142856,62.53580683491879L93.02271428571429,78.645874427986L93.22714285714287,78.16102704068723L93.62057142857142,82.56952144368769L94.6002857142857,84.58374214918837L94.62342857142858,80.88979867314154L95.04385714285715,69.01538573418568L95.09785714285714,74.70218821210611L95.39485714285713,72.02367895637273L95.41799999999999,79.17068539690985L95.74971428571428,72.56368695975716L95.83842857142857,52.783706890384124L96.10842857142858,66.27232860485023L96.19328571428571,71.69436861501711L96.32057142857143,77.87708208702065L96.41314285714286,79.20589081003234L96.56742857142856,71.90836798598525L96.63685714285715,71.09898841077435L96.66,70.85817923254082L96.67157142857144,68.46344664422908L96.96471428571428,67.97729740119982L96.96857142857144,80.3468960291085L97.14985714285714,83.27300478907745L97.26942857142856,84.01180036436729L97.37357142857144,83.20095524049854L97.38514285714285,80.53021202754371L97.40442857142857,76.46564057335952L97.67828571428572,74.63627482769597L97.72071428571428,89.7897315844036L97.90971428571429,85.5556821409802L98.12957142857142,84.15269698507775L98.30314285714286,81.69645401702059L98.46128571428572,85.84243916517786L98.51142857142858,80.64432687465579L98.51528571428571,78.84823963490533L98.60014285714286,74.53025392982609L98.66185714285713,76.23546904924525L99.09,74.84683634878401L99.171,74.35287268674851L99.43714285714286,79.94091089368737L99.44871428571429,83.46707714319577L99.45257142857143,78.47618459791936L99.63771428571428,57.82445192247174L99.73028571428571,69.06117606382529L100.23942857142856,83.17388267008845L100.59814285714286,73.05031848057035L100.845,74.71257400894588L101.0957142857143,74.86452255359205L101.18442857142857,65.35122876960683L101.50842857142858,75.4740161398709L101.52,70.5868177078884L101.53928571428571,76.18966333675412L101.79771428571429,78.63301444352022L101.86714285714285,77.56367546822484L102.15642857142856,73.00358782185883L102.30685714285714,67.60954597553545L102.9162857142857,84.14030746461466L103.08214285714286,83.89014063726754L103.356,74.14101811457601L103.45628571428571,57.82298474508379L103.53728571428572,65.9366982650104L103.56042857142857,71.30165744537058L104.16985714285714,71.65694262754212L105.09171428571429,75.68150941825992L105.14185714285715,64.11114457509608L105.27300000000001,69.2081368209815L105.41957142857143,71.23855021961114L105.52757142857143,80.46641362625819L105.96728571428572,92.64345676838171L106.10228571428571,63.282603121923074L106.245,64.70370963073269L106.59599999999999,77.45337733399042L107.09742857142858,79.50259401451869L107.38671428571429,77.94562387770655L107.73385714285715,71.36029757212667L107.74542857142856,71.67588579771488L108.32785714285714,65.16660663276795L108.53614285714285,68.83450869664077L108.5747142857143,75.10788160256638L108.70585714285714,79.68649732050136L108.74442857142857,71.20558815958263L108.84471428571429,81.73174945447282L109.01828571428571,82.81558917109969L109.107,85.3235694900942L109.39628571428571,81.39822148794528L109.46957142857143,84.04364128856554L109.65085714285713,66.43182352704142L110.0867142857143,71.01129906555374L110.27571428571429,77.95379575505852L110.58814285714286,84.60968913458926L110.63057142857143,73.06788574500422L110.70771428571427,71.39904160891531L110.98928571428571,74.02117787892585L111.20914285714287,75.82723576577774L111.62185714285715,52.114258064125764L112.16571428571429,71.18504036852651L112.31614285714286,72.31332755811017L112.428,69.37952165466773L112.76357142857142,58.77730734412759L112.94871428571429,74.83103860863858L112.95642857142857,61.65322169981778L113.103,74.36132002686128L113.1917142857143,64.8361434177005L113.46557142857142,70.13954229169292L114.00942857142856,76.4134425016201L114.25628571428572,80.37618706038279L114.63428571428571,83.03372206169922L114.66514285714285,80.09469485220448L115.33628571428572,86.32218597463763L115.46357142857143,83.65755744217348L115.74900000000001,78.94891625448045L115.89942857142857,77.64655851047824L116.23114285714286,79.70678130348587L116.60914285714286,90.43960724780698L116.65928571428572,73.1088897577741L116.69399999999999,71.47648077574642L116.99871428571429,70.56110511596482L117.22628571428572,64.6540242232756L117.66600000000001,64.3730848249091L117.72385714285714,63.83456014431118L118.02857142857144,73.96147317934955L118.36414285714285,84.71960086211844L118.85014285714286,84.77152807136204L118.98514285714286,87.08259150759878L119.27057142857143,89.75655380935072L119.74885714285713,74.14019209308522L119.82985714285715,76.46218660027735L119.92628571428571,74.86027581343006L120.17314285714286,65.79606652937768L120.22714285714285,82.01487975774893L120.70157142857143,69.14886290215924L120.744,78.22388975261752L121.12971428571429,66.9381710297004L121.38814285714287,74.18335039938033L122.15957142857143,78.03544736471731L122.64942857142857,85.81558219973172L122.6532857142857,79.69666121045037L122.76514285714286,84.01089687814313L122.77285714285715,86.15396438947177L123.15471428571429,73.85685795793987L123.98014285714287,71.87781034296489L124.00328571428571,70.44570328547847L124.02642857142857,78.30295539429075L124.04185714285714,72.72691421719506L124.04571428571428,79.85611534151849L124.48928571428571,71.46502817627015L125.3802857142857,58.89859987110951L125.7582857142857,65.21842758807534L125.79685714285715,85.04770818703001L125.82385714285714,79.17491674733637L125.89328571428571,78.799267481019L126.28285714285714,66.74625980069236L126.61457142857144,77.67456360443433L126.96557142857142,57.35957891117276L126.97328571428571,66.01912480569746L127.09671428571428,76.34013440259187L127.16614285714286,72.55259908485141L128.2577142857143,34.834626454815435L128.358,55.383915724693935L128.52771428571427,42.05255234249287L128.979,70.70771520907252L129.02914285714286,67.30517603160197L129.38400000000001,72.05490751914112L129.49585714285715,75.90880917876306L129.6462857142857,59.33223442440111L131.031,64.45146303825953L131.13128571428572,79.6790107032649L131.21614285714287,76.99392364798241L131.28942857142857,64.89627157741943L131.38585714285713,73.3701855768244L131.44757142857142,80.39238981196632L131.49385714285714,67.80723070219894L131.922,56.77068924637645L132.16114285714286,71.44565961169292L132.96342857142858,68.76737674040432L132.99042857142857,61.151801399809884L133.02514285714287,70.14431949595378L133.218,65.98337534068784L133.22957142857143,57.76840381281224L133.31057142857142,61.39367006744459L133.43014285714287,64.20173301281167L133.50342857142857,67.92222324290242L134.028,72.69774019573335L134.34042857142856,80.72237719154325L134.34428571428572,73.87185044112191L134.47542857142858,68.21484683306824L135.00385714285716,53.98439207699336L135.02314285714286,68.47344246091446L135.12342857142858,68.20413767614477L135.30085714285715,58.299713751945944L135.35871428571429,54.90207698339043L135.67499999999998,62.89474517206732L135.84085714285715,79.71101520612278L135.94114285714286,57.61147041779533L136.0992857142857,55.74085866532576L136.26514285714285,52.89020274528603L136.77428571428572,70.83187418431962L136.81671428571428,74.9764468912604L137.21014285714284,64.81364935330127L137.3644285714286,72.18666475718418L137.727,73.20069204707168L137.781,90.6669693027647L137.85042857142855,80.07233778376226L139.06157142857143,70.19024709586411L139.26600000000002,70.36387737595963L140.427,36.37142587504357L140.5697142857143,55.7109137822395L141.54557142857144,69.01835728525795L141.64585714285715,59.09962349356793L141.97757142857142,56.25075029166034L142.2282857142857,56.51120567879245L142.25528571428572,66.31578474608384L142.28614285714286,81.71538911551023L142.47128571428573,61.5458638514953L142.506,78.54562163506881L142.73357142857145,70.23802628152968L142.7837142857143,77.47108744850262L143.3892857142857,65.3200335618391L143.5165714285714,60.39677838720445L143.67857142857142,52.53922439964779L144.39600000000002,51.29406799785589L144.75857142857143,66.17234426815513L144.80871428571427,77.74656182303566L145.07485714285716,77.04618170640114L145.2522857142857,78.43338839665407L145.44128571428573,74.96976125903781L145.65728571428573,73.46367326388754L146.16642857142858,68.75211825034162L146.19728571428573,67.92689779112905L146.58300000000003,75.94611317868528L146.62928571428571,60.216777871727075L146.70642857142857,75.7639639079431L147.16157142857142,73.54752004401465L147.26571428571427,77.49180490987416L147.27342857142858,65.97404895567801L147.62057142857145,59.625594215964895L147.89057142857143,52.910695186775584L147.99471428571428,65.55100075691378L148.02171428571427,57.21027337399326L148.1297142857143,38.87496928215617L148.65428571428572,34.63931525513337L149.00914285714288,59.222948809665496L149.3832857142857,58.71278911780256L149.418,63.14266919048434L149.46428571428572,62.93922996785676L149.53757142857145,76.52278263419299L149.60314285714287,69.07523771856283L149.81142857142856,80.25429682200205L149.85771428571428,83.60028642748387L149.95414285714284,71.53413120641149L150.09685714285715,78.4859462767197L150.498,71.04683374947294L150.57128571428572,57.74699124188757L150.5982857142857,53.61072482775546L150.7757142857143,46.74782554409404L150.9762857142857,66.18229141843348L150.98785714285714,53.81200001585154L151.12285714285716,74.26688795636589L151.82485714285716,79.01765573277555L151.82871428571428,67.09661259241408L151.9097142857143,75.96867797483291L152.12185714285715,74.09970579599484L152.45742857142858,66.64925596877846L152.46128571428574,69.81301048787117L152.60785714285714,79.87086535507255L152.74285714285713,73.83327336203295L152.7775714285714,76.22315275506669L153.45257142857142,72.31520258634173L153.819,66.49908163419347L154.59428571428572,61.35943766712964L154.73314285714287,75.62818082795754L154.9722857142857,60.45777413696531L155.2692857142857,54.55085315798202L155.574,48.79222174000816L155.655,67.9531230897191L155.68585714285715,69.03398950067805L155.736,72.62984258145008L155.7437142857143,54.230220317823196L156.14485714285712,69.72909742209896L156.15257142857143,86.376668630495L156.48814285714286,77.29803228657474L156.49971428571428,75.96492130314576L157.2634285714286,71.82248933870842L157.29042857142858,64.86722429923485L157.54500000000002,62.63601936432629L157.5642857142857,71.46278723065646L157.96542857142856,81.3245627503407L158.031,84.72543959388099L158.28942857142857,76.70658660728745L158.36657142857143,63.72773261813495L158.77928571428572,53.73962991330579L159.0377142857143,21.10311404708162L159.09557142857145,63.34356535923021L159.1572857142857,78.38400848744072L159.20742857142858,52.77667559513837L159.34242857142857,74.97976200257354L159.4427142857143,45.028478064606446L160.34142857142857,72.94796111494523L160.57285714285715,63.41188046658125L160.68857142857144,66.84833996084112L160.76185714285714,71.70581035393047L161.10514285714285,68.60197714683156L161.25557142857144,76.46498424397602L161.27100000000002,74.76165680096652L161.3057142857143,67.9307133288853L161.42528571428574,64.7748981573565L161.64514285714284,51.61969959343433L162.20828571428572,68.45636629731014L162.65571428571428,61.02793149306311L162.783,69.64257124184287L163.20342857142856,72.36284234485797L163.75885714285712,65.25009768096174L163.89,54.739661937789094L164.95071428571427,38.104780956441545L165.11657142857143,66.64373165257435L165.3827142857143,73.62739611564001L166.60157142857142,80.76337266495422L166.81371428571427,73.22425840111808L166.87157142857143,59.76136815785547L167.26885714285714,67.55280581978062L167.5542857142857,71.06688381352294L167.616,75.97890382427708L167.65842857142857,66.2973199088977L167.78957142857143,49.440572053462205L168.09814285714285,62.21369971984282L168.33342857142856,74.36851784335748L168.3372857142857,68.7801995463202L168.56099999999998,60.98878309448109L168.63814285714287,45.1750907340145L168.804,63.029130341577925L169.101,50.211278779948245L169.64485714285715,61.63667915579883L169.73357142857142,64.00228579993501L169.73742857142855,58.16851656952821L170.262,55.704766235882474L170.6322857142857,69.33368405983225L170.85985714285712,75.86661466303191L170.9022857142857,59.770668750944026L171.99771428571427,88.71630316612811L172.42585714285713,77.25479564011881L172.53385714285716,77.71878163365268L172.73057142857144,68.76650342455036L173.10471428571427,74.00546013075606L173.2242857142857,47.010418127439976L173.24357142857144,50.92910934761805L173.30914285714286,42.02994841588651L173.65242857142857,43.95623596496341L174.4392857142857,55.22032359435937L174.717,49.601686303878665L175.12199999999999,59.93884207552125L175.45757142857144,27.628692930209155L175.50385714285716,40.904837550825874L175.62728571428573,61.15250651451798L175.7352857142857,56.2677013691777L176.07085714285716,68.24089806798297L176.10942857142857,53.516055057538324L176.13257142857142,70.73500749486679L176.148,71.23813851738313L176.26757142857144,65.67630608050617L176.2752857142857,50.77026514279281L176.3292857142857,62.44465194342932L176.3524285714286,61.353140610961006L176.63400000000001,69.52436688766906L177.5867142857143,46.71564332336595L177.92614285714285,61.97027982066521L178.02642857142857,72.35939365769177L178.37357142857144,62.56935169413727L178.47771428571428,51.81528646764599L178.74771428571427,71.40660048957217L179.01000000000002,68.64758739701273L179.3262857142857,69.5619843252043L179.51142857142855,47.35711108152512L179.57314285714287,76.78696832871498L179.78142857142856,78.32219484006362L180.41014285714286,75.94509821272177L180.441,61.5624038661968L180.68785714285715,63.68715019991373L180.792,71.38514600668215L181.3127142857143,50.69549138024708L181.3397142857143,62.37551902715752L181.40914285714285,76.40597114925767L181.80642857142857,80.08539723669135L181.899,67.40082698106907L181.93757142857143,73.80196670125268L181.99157142857143,66.30773329480057L182.2307142857143,79.32200718675621L182.59714285714284,73.91588279223554L183.0252857142857,75.81979415945369L183.09471428571428,54.98067203273381L183.1332857142857,71.67515803448929L183.21428571428572,70.06535426378703L183.6347142857143,64.34393630777267L183.90471428571428,61.458259330750224L184.28271428571426,66.38825520679639L184.88057142857141,59.562483904269186L185.00785714285712,58.516576780452496L185.07342857142856,77.89057403022443L185.22385714285713,75.38206867178324L186.219,65.29868269795479L186.975,76.5646270397675L187.1447142857143,56.19493023034276L187.2797142857143,68.7653790969703L187.39542857142857,62.93236246627497L187.488,63.4316647100752L187.61142857142858,72.21370784321364L187.88914285714287,60.47199993738249L187.99328571428572,59.05029826099587L188.0087142857143,71.57588822424094L188.06657142857142,81.41669106708126L188.16685714285714,76.51166256202579L188.25171428571429,73.25990798560392L188.91128571428573,55.55839797395369L188.9267142857143,38.65137742574174L188.97685714285714,54.31225410149558L189.28542857142855,52.773498995998025L189.30085714285713,68.14926406867671L189.43971428571427,77.24108722515992L189.77528571428573,71.44237226898139L189.80228571428572,70.65868659875656L189.972,78.69355250990563L190.17642857142857,79.18935796571529L190.32685714285714,49.75886319856943L190.56214285714285,40.98083079739283L190.9362857142857,55.20760274965825L191.08285714285714,72.92983290199712L191.26028571428571,64.71358620042454L191.26414285714284,69.37360513630593L191.4917142857143,48.9735041805458L191.81571428571428,60.79441853897039L191.9082857142857,60.24953453697127L192.0972857142857,81.61531020542071L192.15128571428573,82.66497566082965L192.72214285714284,75.21505172108027L192.83785714285713,68.48337792066215L193.06542857142855,72.67821664807474L193.26214285714283,72.85374941620425L194.05671428571426,65.04941796254677L194.09142857142857,41.57201377944773L194.29585714285716,49.62665465092451L194.81657142857142,59.57047496711101L194.95542857142857,42.23688534232787L195.35271428571428,48.31979052301227L195.399,54.47996670264962L195.83485714285715,65.61965781553172L196.09714285714287,65.8078497839684L196.23214285714286,81.99382303399133L196.8107142857143,60.66641574229283L196.84542857142856,52.89262778581798L196.94957142857143,67.61946296544377L197.06528571428572,63.078847046670745L197.19642857142856,69.19922576599697L197.37,56.53971680049308L197.40085714285715,63.30683875129873L197.50885714285712,67.16063554986532L197.9447142857143,69.93378984407555L198.00642857142856,59.45916360578751L198.24557142857145,62.59380914979474L198.31114285714287,51.72941229712001L198.64285714285717,72.18265390015625L198.6775714285714,76.96008198321937L199.4027142857143,57.14023473406266L199.6032857142857,67.62974208582641L200.71414285714286,60.94515489761284L200.79514285714285,63.416549464106424L201.339,70.81482994245793L201.50485714285713,72.0653120709664L201.70928571428573,73.90550078342326L201.7362857142857,72.41994884140706L201.81342857142857,61.1154917195819L201.91371428571426,67.91629877066427L202.26085714285713,62.43972436111919L202.46142857142857,70.82974761335751L202.69285714285712,73.32308626700633L202.71985714285717,78.35616460737974L202.8317142857143,70.87680751714349L203.03614285714286,70.67605962323726L203.05157142857144,65.0140377165437L203.1017142857143,68.3208858195993L203.15571428571428,66.9069608805768L203.24828571428571,57.1806015046287L203.29457142857143,56.05470861425252L203.41799999999998,61.316737444634526L203.445,66.99468181530902L203.49900000000002,75.19082268448209L203.93485714285714,57.565929023765804L203.97728571428573,76.26668952722794L204.00042857142856,69.42224131694073L204.15857142857143,68.889714637651L204.174,54.61849000821667L204.22799999999998,74.63889828999332L204.31671428571428,48.53126487491042L204.7255714285714,52.29812418364487L204.89142857142858,65.42960482075158L205.13057142857144,65.2237544003784L205.1922857142857,70.24996088945078L205.308,73.30243008677303L206.05628571428574,58.03906445753512L206.22985714285713,38.86451849901309L206.415,43.99831623488686L206.44585714285714,56.88795489588132L206.86242857142858,71.99183596152989L206.9395714285714,71.06349449376407L207.68785714285715,48.81016645212458L208.22014285714286,57.37073871388685L209.3387142857143,48.84799171048263L209.547,56.614245818856205L209.64342857142856,74.2842278436604L210.12942857142858,59.3934477090295L210.44185714285715,52.58748643021464L210.67714285714285,61.938978435848284L210.75042857142856,56.121618248779356L210.978,71.09613736069268L211.42542857142857,67.60080226357348L211.73014285714285,60.494397257719115L212.16985714285713,63.503057681076626L212.3627142857143,75.26880221368984L212.50542857142858,64.95131435684635L212.72142857142856,53.826364751853205L212.78314285714285,51.78625742897441L212.89885714285714,58.493953646157635L213.18042857142856,43.34237268008172L213.62014285714287,49.95894460454534L213.95957142857142,70.52736438712883L214.22185714285715,61.78818282275532L214.57285714285715,66.09342773728366L214.58057142857143,75.82710496119633L214.6037142857143,69.60032190466143L215.30571428571426,52.2233323006911L215.92285714285714,52.244902775080874L216.0617142857143,65.66836957691642L216.50528571428572,67.67217049366504L216.5207142857143,74.2944541843527L216.87942857142858,80.67758305216148L217.09157142857143,71.00091699640534L217.32299999999998,69.63940646487421L217.68942857142858,68.49387299200784L218.4762857142857,53.71251568639063L218.8967142857143,67.91560345468434L219.0664285714286,52.72047489713634L219.08185714285716,72.59048618351675L219.11271428571428,73.12870462697279L219.6835714285714,58.41008597710628L219.86485714285715,62.286823915976726L220.11942857142859,61.086975245973534L220.12714285714284,61.25157628797959L220.77514285714284,68.63874122353069L220.9872857142857,79.27610425208961L221.09528571428572,73.67510026601649L221.22257142857143,68.0799517380929L221.31514285714283,66.09061229163211L221.3537142857143,65.88601270887771L221.82814285714284,79.75419705908334L221.8975714285714,79.31760151477417L222.18685714285715,72.0219902123964L222.33342857142858,75.22307528019911L222.49157142857143,62.045297263762336L222.88114285714286,31.05127288988126L222.95442857142856,33.300535188195965L223.35557142857144,38.592330036421316L223.48285714285714,63.09185549446616L223.72971428571427,49.72157648818873L223.76828571428572,56.439816146135485L224.07299999999998,65.15073897545001L224.13085714285714,69.98535741467205L224.27357142857142,64.43175056757954L225.26485714285712,72.43494345107361L225.29571428571427,62.2605997199165L225.52328571428572,50.970975213507415L225.5772857142857,60.43508579292849L226.21757142857143,61.95713962924631L226.44128571428573,77.0842161165448L226.4682857142857,49.236982259905886L226.4837142857143,60.143061090156905L226.49914285714286,72.32174202050587L226.89642857142854,65.13927923737295L227.043,57.45226123315281L227.1702857142857,71.82604337557456L227.21271428571427,70.01660922922979L227.664,64.43073538672812L227.853,72.65713492667288L227.91085714285714,82.70210143324833L227.99185714285713,75.7249377422558L228.0497142857143,27.00007018572481L228.28114285714287,39.00723286576766L228.50485714285713,28.247059988835815L228.99471428571428,65.14718151802197L229.37271428571427,61.466747726145584L229.84714285714287,63.799739585377026L229.986,45.191140564419015L230.07085714285714,51.543838186772675L230.24057142857143,54.363749594687505L230.2907142857143,46.422091764688105L230.3485714285714,41.95713765095286L230.68800000000002,58.502874578007194L230.904,62.97502752172248L231.18942857142855,76.97211150991978L231.363,68.57821906871818L232.17685714285716,77.22761838854527L232.5857142857143,69.89975212247496L232.5972857142857,52.64979838451842L232.69757142857142,62.12275206523151L232.81714285714287,50.28141836231042L233.50757142857142,69.9468938318523L233.52685714285715,74.52097177564202L233.5577142857143,77.74550079088193L234.18257142857144,55.2441422873823L234.387,39.94486808685244L234.49885714285713,23.659963218288453L234.78814285714287,50.64675035649353L235.14685714285716,61.482490365003784L235.15842857142857,71.82881284441645L235.64057142857143,71.7932115326624L236.46214285714285,76.91906235906114L236.58942857142856,60.72883407306011L236.7514285714286,59.872574908233446L236.87485714285714,45.05531954844096L236.95585714285713,46.41371276750738L237.19885714285715,66.43854724973272L237.24514285714287,52.2679943699319L237.29914285714284,52.52305963896998L237.32614285714286,55.40588407961697L237.33385714285714,69.78030729889142L237.6347142857143,66.88812919582347L238.32514285714285,67.06148916986892L238.45242857142858,62.24910137684637L238.5912857142857,58.39186040584272L238.71471428571428,43.53823994634726L239.14285714285714,30.06690282184013L239.28557142857142,55.42350332618149L240.06085714285715,47.134919918300255L240.15342857142858,51.18700273644646L240.3,63.96899650305909L240.32314285714284,51.75496434210186L240.408,58.9230621257107L240.68185714285715,74.03388252565273L240.9557142857143,35.874841451340075L241.01357142857145,50.330629237938595L241.1447142857143,66.90957053085967L241.36457142857142,65.26055407215618L241.79271428571428,71.46915379383805L241.9392857142857,75.49346388069249L242.07814285714286,74.3370706534455L242.50242857142857,63.46574198389328L243.351,48.16321041770769L244.14171428571427,62.67628115592454L244.33842857142858,58.15768708061397L244.701,45.0847582884621L245.14842857142858,43.27008674414918L245.36057142857143,59.47775082423786L245.4762857142857,55.55107884375339L245.49171428571427,47.50325564337717L245.65371428571427,52.11851538138764L245.77714285714285,54.828489190578566L245.88128571428572,60.30022627448358L245.94685714285714,54.739481097940725L246.00471428571427,67.29848729714828L246.04328571428573,62.03639385786256L246.3672857142857,52.101356371985275L246.915,56.40848283331876L246.97671428571428,56.556417685195925L246.98828571428572,59.74632576307317L246.99985714285714,49.45410518044778L247.08471428571428,62.46674734317793L247.52828571428572,54.26767374092323L247.87928571428571,72.90363795819617L248.06057142857145,43.33787569139068L248.2457142857143,71.20806150671166L248.5272857142857,53.87148755831619L249.0827142857143,51.28891740713895L249.26785714285717,44.867248542717874L249.32957142857143,54.328027807433415L249.44528571428572,62.72292902181904L249.6342857142857,55.023996869877706L249.68442857142855,39.76341489105505L249.70371428571428,65.80967619393189L249.7577142857143,64.71018990880954L250.01614285714285,67.91383027266714L250.18585714285715,57.60628310647395L250.29000000000002,58.49452251431343L250.47514285714288,52.53680426828008" style="fill: none;" fill="none"></path></g></g></g></g><g opacity="0.2"><g><g><g><path stroke="rgb(0, 153, 136)" stroke-width="2px" d="M19.45157142857143,119.13536979045185L19.463142857142856,115.65675499077352L19.56342857142857,121.98153005540371L19.652142857142856,123.61379745176859L19.933714285714284,125.97393260896206L20.172857142857143,120.50681088013307L20.19214285714286,121.95014876872301L20.273142857142858,118.2471806226032L20.34257142857143,120.61377628466911L20.47757142857143,123.11420244191373L20.485285714285716,123.45487566292286L20.516142857142857,113.61414843797682L21.11785714285714,112.88868915715388L21.357,111.67599697623933L21.52285714285714,116.84719774233443L21.549857142857142,112.14454935491084L21.735,99.26869209749357L21.78514285714286,109.87870725563593L22.04357142857143,109.64933565046104L22.074428571428573,116.58810260466166L22.383,101.66599883990627L22.406142857142857,108.4825277371066L22.514142857142858,112.34465449409825L23.034857142857145,106.94152681316646L23.200714285714284,102.31160883818353L23.401285714285713,104.7608743331262L23.547857142857143,112.86063995638064L23.841,93.50994772570472L24.153428571428574,108.97803519879068L24.365571428571428,103.03233878314494L24.377142857142857,94.63873623098644L24.431142857142856,87.26617763510771L24.44657142857143,94.91251670249869L24.631714285714285,112.38311912758009L24.658714285714286,102.32344046660832L24.828428571428574,106.53777367728095L24.944142857142854,105.52960336634091L25.275857142857145,95.2425802967378L25.399285714285714,100.26832260617188L25.812,107.07831047901085L25.977857142857143,100.70219003089836L25.989428571428572,101.48258491711955L26.402142857142856,98.57405520336967L26.52942857142857,89.48429535967962L26.683714285714288,97.40812353151183L26.799428571428574,115.6378352791071L27.142714285714284,113.57467967910425L27.374142857142857,83.517517047269L27.725142857142856,87.67747592074528L27.771428571428572,93.13161032966204L27.894857142857145,95.53552914304392L28.01442857142857,99.906278565526L28.188000000000002,96.79425242117472L28.504285714285714,109.74226934994968L28.68557142857143,104.41260859795979L28.751142857142856,105.35040487561906L28.758857142857142,95.5496295264789L28.778142857142857,98.39198169325078L28.87457142857143,75.49197855166025L28.87842857142857,104.5026530687298L28.924714285714288,99.37812281932148L28.944000000000003,99.0915018575532L29.055857142857143,112.86844324214117L29.645999999999997,109.04924284560339L29.85814285714286,103.00150455534457L30.733714285714285,87.02628165909222L31.00757142857143,106.56529239671569L31.019142857142857,83.04205893831592L31.482,101.23811827600001L31.748142857142856,110.57189479896L31.809857142857144,97.83879385888575L31.813714285714287,101.11450191480772L32.03742857142857,80.69084723506654L32.71242857142857,107.42904389968939L33.24471428571429,99.63893018024307L33.252428571428574,109.37329116037913L33.44528571428572,99.26809056954723L33.719142857142856,114.16013214630739L34.00071428571428,96.52195445554595L34.02771428571429,92.36157403886317L34.440428571428576,97.03006084901945L34.54842857142857,106.88780136832169L34.857,107.94656160048075L35.09614285714286,101.8354165809495L35.47414285714285,108.24048141709395L35.613,92.1694924299206L35.94085714285714,110.70745172670908L36.261,98.71351495810917L36.615857142857145,110.80000177451542L36.681428571428576,96.75828389184814L36.76242857142857,88.47060235909052L37.27928571428571,93.55930617238792L37.294714285714285,108.39331214342798L37.32557142857143,103.34756310922758L37.757571428571424,105.73432179859705L37.811571428571426,107.86364547269683L37.95814285714286,75.1454037257603L38.16642857142857,73.33419834290231L38.46342857142857,96.46050387620924L38.768142857142855,93.36457689319337L38.77585714285714,103.66994419693945L38.98414285714286,111.9870295524597L39.09214285714286,97.0045551168067L39.906,84.60279660991259L39.96,76.85231742475713L40.19528571428572,106.04976873738424L40.69285714285714,108.20778576816829L41.19428571428572,105.65718412825039L41.364000000000004,86.21527042133465L41.691857142857145,90.78154010857853L41.90785714285715,59.85097310798507L41.93485714285714,96.44881907744066L42.07371428571429,82.34833617721284L42.393857142857144,91.73019230791499L42.937714285714286,68.30761294705525L43.203857142857146,97.82637964827673L43.277142857142856,95.93774767220019L43.54714285714286,85.44091923321996L43.63585714285714,87.07177990674971L43.882714285714286,92.06044062333446L44.43814285714286,79.08853782500539L44.64642857142857,91.96831211873462L44.75828571428571,87.14733086952141L45.117,66.0252169881548L45.12857142857143,100.88323099698337L45.17485714285714,78.26041856408118L45.72642857142857,78.7389411500522L46.15842857142857,99.60469518814767L46.25871428571429,102.4558808164937L46.729285714285716,87.74497967106953L46.88742857142857,103.89591030137878L47.48914285714286,98.66808302061897L47.763,87.7141738619123L48.025285714285715,107.81058786596569L48.06385714285714,75.04221563254083L48.075428571428574,88.30463748318806L48.13328571428572,90.27394051424093L48.26057142857143,90.01169801184108L48.96257142857143,94.46215225543293L49.329,82.57730518494333L49.36757142857143,80.78184846682205L49.50257142857143,95.84277730328695L50.111999999999995,90.96980888290064L50.40128571428571,89.165788680315L50.841,64.84042481013707L50.99914285714286,78.68685925006865L51.54685714285714,68.59320136478968L51.56614285714286,83.36699296746934L51.600857142857144,96.3628384726388L51.95957142857143,77.57684599501744L52.06757142857143,93.34566902262823L52.106142857142856,88.92332081709588L52.46485714285714,62.67113505090984L52.596000000000004,87.9273421040603L52.82742857142857,77.28006536832876L53.53328571428571,74.47347332750047L53.64514285714286,97.81221769111495L53.72614285714286,87.35399597883223L53.753142857142855,82.17682492945875L53.97685714285714,96.63017738504068L54.216,104.48991204372473L55.00671428571429,77.8974840726171L55.22271428571428,92.77034306526183L55.34614285714286,99.55075660347937L55.681714285714285,77.73518520167895L55.809,69.34801947219029L56.14071428571429,67.05943772196768L56.19085714285715,74.12786473546709L56.538000000000004,93.8493184255702L56.626714285714286,96.2319043108395L56.69614285714285,102.41582947543688L57.255428571428574,82.48846850650649L57.50228571428571,95.64301318781715L58.084714285714284,85.5110280258315L58.185,64.13912848063877L58.92557142857143,84.9191197901964L58.95257142857143,78.80924887316566L59.4,62.806654087134746L59.708571428571425,68.02338862419127L59.87442857142857,64.39538885865892L60.202285714285715,101.7266679065568L60.32185714285714,94.43613025120325L60.38357142857143,101.0015946456364L60.60342857142857,104.79584347350256L60.780857142857144,81.16827096683636L60.78471428571429,83.38954789723668L60.869571428571426,79.11223897337912L61.10485714285714,83.6431085041591L61.13957142857143,67.80243367382458L61.34014285714286,91.8621874323913L61.35171428571428,97.9835252719266L61.498285714285714,51.240105292626765L61.586999999999996,101.44509599038533L61.61014285714286,78.04044879334312L61.61785714285714,102.51956225931643L61.79528571428571,100.59763784280844L62.11157142857142,85.39649615756102L62.18485714285715,77.23890570018972L62.21957142857143,70.68968256030763L62.481857142857145,90.22896327504088L62.48957142857143,80.7627653479576L62.721000000000004,80.90194091626576L63.33428571428571,93.92273799010684L63.538714285714285,87.6530832520553L63.615857142857145,84.91285347938536L63.73542857142857,91.77084044047763L63.77014285714286,92.96967616464408L63.90128571428571,95.86341871108326L64.21757142857143,98.18765164911746L64.36028571428571,98.14494316492761L64.64571428571429,82.90646411904267L65.08542857142857,42.910932540893526L65.4557142857143,90.39544915940078L65.475,82.53753329387732L65.61385714285714,28.316509940794532L65.73342857142856,84.0863967090845L66.10757142857143,49.82777451191629L66.20785714285715,89.56370178503649L66.285,93.90657725504465L66.69385714285714,81.55366565925732L67.13742857142857,67.37912851146288L67.34185714285715,98.81367172939436L68.16342857142858,93.35717857309749L68.958,64.1186481118202L69.19714285714285,93.81532499194144L69.498,84.84403773503642L69.56357142857142,59.209318037543966L69.66771428571428,37.69920915790965L69.74871428571429,78.07288393804005L69.795,97.12246880361012L69.85285714285715,63.14237299135752L70.35428571428571,86.3794922871249L70.983,99.8009259189878L70.99842857142856,72.48018022520199L71.37642857142856,59.923393283571514L71.53842857142857,88.90282150251522L71.73514285714286,91.17051555003437L71.82385714285714,76.75230748312812L72.05142857142857,81.26023369601793L72.55671428571429,53.75164077111653L72.84214285714286,69.33382909638539L73.59814285714285,92.06789104427608L74.142,70.90023628728729L74.39657142857143,105.27313932137828L74.42357142857142,81.2155785347734L74.52385714285714,73.88611207476683L74.59328571428571,71.4209700311933L74.82085714285714,51.969223473753246L75.01371428571429,84.21979855639592L75.72728571428571,58.32605713605879L75.75042857142857,90.86153858900069L75.86614285714286,90.73121069158825L75.90085714285713,96.58367501199244L75.93942857142858,92.65837361131395L76.29428571428572,79.51528164318628L76.32900000000001,98.09623361059597L76.41,77.56704629957675L76.65685714285715,75.55423906232629L76.73014285714285,80.06065435068946L77.49385714285714,82.49658676556177L77.841,94.88229821196623L78.17271428571428,89.44796686087335L78.39642857142857,90.49418973496981L78.97114285714287,82.29593219927378L78.97885714285715,54.724183576447615L79.10228571428571,98.34742599725722L79.22185714285715,80.22328003602367L80.001,76.60508470237254L80.09357142857144,98.50046986341475L80.12828571428571,91.2054136438029L80.34042857142857,78.00825994355336L80.97685714285714,46.26721218654086L81.37028571428571,76.40284816495009L81.45128571428572,53.70318698457308L81.96428571428571,103.0618989084448L82.24199999999999,77.70813538985591L82.32685714285714,99.29312739414827L82.39242857142857,93.36767452529497L82.56985714285715,95.84627279639243L82.95171428571427,60.2544325845582L83.69228571428572,110.61203613238675L84.12042857142858,60.23719194105692L84.1242857142857,95.70696460774965L84.30942857142857,84.6603443622589L84.47142857142856,53.13209540503364L85.11557142857143,66.86063036748341L85.23514285714286,77.72961514762468L85.36628571428571,78.7125118119376L85.78285714285714,48.75931878600801L85.91014285714286,99.95160156488417L85.98728571428572,97.00974151917866L86.07985714285715,74.39238546575817L86.08371428571428,96.56955568279537L86.09528571428572,91.00179406574793L86.16857142857143,99.13419613242148L86.42314285714286,94.39195347045148L86.57357142857143,74.98482418273176L86.61214285714286,67.69216933846472L86.95542857142857,79.82367128559521L87.00942857142857,60.126728675195125L87.1212857142857,80.6815496023212L87.15214285714286,96.58815094828604L87.264,77.54250206479004L87.64585714285714,82.4833152592182L88.53685714285714,81.44652737464223L88.64485714285715,48.7987259711538L88.78757142857144,83.38551244991164L88.92257142857143,96.04676632370266L88.96885714285715,50.73670692103248L89.21571428571428,91.75139261569294L89.73642857142858,96.14049574519905L89.94471428571428,64.92712061745777L90.45771428571429,71.39677629300526L90.46157142857143,83.40712956445556L91.00157142857142,84.93088037201336L91.46828571428571,83.07573029398917L91.49528571428571,93.76073277848106L91.97742857142858,70.64316124149731L92.4132857142857,91.06447138317992L92.59457142857143,55.737829212631496L92.76042857142856,59.02466316734041L93.02271428571429,89.38591949003082L93.22714285714287,77.83779544915471L93.62057142857142,85.50851771235465L94.6002857142857,85.9265559528555L94.62342857142858,78.42716968911033L95.04385714285715,61.099110441548476L95.09785714285714,78.49338986405304L95.39485714285713,70.23800611921719L95.41799999999999,83.9353563572679L95.74971428571428,68.15902133498872L95.83842857142857,39.59705351080211L96.10842857142858,75.26474308116093L96.19328571428571,75.30906195512839L96.32057142857143,81.99889106835637L96.41314285714286,80.09176329204014L96.56742857142856,67.04335276995386L96.63685714285715,70.55940202730041L96.66,70.69763978038515L96.67157142857144,66.86695825202122L96.96471428571428,67.65319790584698L96.96857142857144,88.59329511438096L97.14985714285714,85.22374396239007L97.26942857142856,84.50433074789386L97.37357142857144,82.66039182458604L97.38514285714285,78.7497165522405L97.40442857142857,73.75592627057007L97.67828571428572,73.41669766392025L97.72071428571428,99.89203608887534L97.90971428571429,82.73298251203127L98.12957142857142,83.21737354780946L98.30314285714286,80.05895870498247L98.46128571428572,88.60642926394938L98.51142857142858,77.17891868097439L98.51528571428571,77.65084814173832L98.60014285714286,71.6515967931066L98.66185714285713,77.372279128858L99.09,73.92108121514319L99.171,74.02356357872485L99.43714285714286,83.66626969831329L99.44871428571429,85.81785464286803L99.45257142857143,75.1489229010684L99.63771428571428,44.05663013883998L99.73028571428571,76.55232549139431L100.23942857142856,92.58235374093054L100.59814285714286,66.3012756875583L100.845,75.82074436119623L101.0957142857143,74.96582158335617L101.18442857142857,59.00903291361671L101.50842857142858,82.22254105338028L101.52,67.32868541990007L101.53928571428571,79.92489375599793L101.79771428571429,80.26191518136433L101.86714285714285,76.85078281802788L102.15642857142856,69.96352939094814L102.30685714285714,64.01351807798656L102.9162857142857,95.1608151240008L103.08214285714286,83.72336275236945L103.356,67.64160309944833L103.45628571428571,46.94429583208901L103.53728571428572,71.3458406116281L103.56042857142857,74.87829689894403L104.16985714285714,71.89379941565647L105.09171428571429,78.36455394540513L105.14185714285715,56.39756801298685L105.27300000000001,72.6061316515718L105.41957142857143,72.59215915203093L105.52757142857143,86.61832256402288L105.96728571428572,100.7614855297974L106.10228571428571,43.70870069095065L106.245,65.65111396993908L106.59599999999999,85.95315580282892L107.09742857142858,80.86873846820421L107.38671428571429,76.90764378649845L107.73385714285715,66.97008003507341L107.74542857142856,71.88627794810704L108.32785714285714,60.82708718947001L108.53614285714285,71.27977673922265L108.5747142857143,79.29013020651679L108.70585714285714,82.7389077991247L108.74442857142857,65.55164871897014L108.84471428571429,88.74919031773294L109.01828571428571,83.53814898218427L109.107,86.99555636942385L109.39628571428571,78.78132281984601L109.46957142857143,85.80725448897905L109.65085714285713,54.690611686025335L110.0867142857143,74.06428275789531L110.27571428571429,82.58212688139506L110.58814285714286,89.04695138760974L110.63057142857143,65.37335015194755L110.70771428571427,70.28647885152272L110.98928571428571,75.76926872559956L111.20914285714287,77.03127435701232L111.62185714285715,36.30560626302446L112.16571428571429,83.89889523812703L112.31614285714286,73.0655190178326L112.428,67.42365105237278L112.76357142857142,51.709164470434175L112.94871428571429,85.53352611831255L112.95642857142857,52.868010427270605L113.103,82.83338557822361L113.1917142857143,58.48602567825998L113.46557142857142,73.67514154102119L114.00942857142856,80.59604264157157L114.25628571428572,83.01801676622458L114.63428571428571,84.80541206257682L114.66514285714285,78.135343379208L115.33628571428572,90.4738467229264L115.46357142857143,81.8811384205307L115.74900000000001,75.80982212935174L115.89942857142857,76.77832001447676L116.23114285714286,81.08026316549096L116.60914285714286,97.59482454402105L116.65928571428572,61.555078097752144L116.69399999999999,70.38820812106131L116.99871428571429,69.9508546761104L117.22628571428572,60.715970294816145L117.66600000000001,64.18579189266475L117.72385714285714,63.47554369057926L118.02857142857144,80.71274853604179L118.36414285714285,91.89168598396436L118.85014285714286,84.80614621085778L118.98514285714286,88.62330046508993L119.27057142857143,91.53919534385203L119.74885714285713,63.72928428224154L119.82985714285715,78.01018293840542L119.92628571428571,73.79233528886522L120.17314285714286,59.753260340009405L120.22714285714285,92.82742190999643L120.70157142857143,60.571518331766114L120.744,84.27390765292301L121.12971428571429,59.414358547755626L121.38814285714287,79.01346997916697L122.15957142857143,80.6035120082753L122.64942857142857,91.002338756408L122.6532857142857,75.61738055092945L122.76514285714286,86.88705398993831L122.77285714285715,87.58267606369085L123.15471428571429,65.65878700358525L123.98014285714287,70.55844526631489L124.00328571428571,69.49096524715422L124.02642857142857,83.54112346683229L124.04185714285714,69.00955343246459L124.04571428571428,84.60891609106744L124.48928571428571,65.8709700661046L125.3802857142857,50.52098100100244L125.7582857142857,69.43164606605256L125.79685714285715,98.26722858633312L125.82385714285714,75.25972245420726L125.89328571428571,78.54883463680743L126.28285714285714,58.71092134714125L126.61457142857144,84.9600994735956L126.96557142857142,43.81625578233172L126.97328571428571,71.79215540204729L127.09671428571428,83.22080746718815L127.16614285714286,70.0275755396911L128.2577142857143,9.689311368124834L128.358,69.08344190461293L128.52771428571427,33.16497675435883L128.979,89.81115712012561L129.02914285714286,65.03681657995494L129.38400000000001,75.22139517750057L129.49585714285715,78.47807695184434L129.6462857142857,48.28118458815982L131.031,67.86428211416515L131.13128571428572,89.8307091466018L131.21614285714287,75.20386561112743L131.28942857142857,56.83117019704409L131.38585714285713,79.01946157642773L131.44757142857142,85.07385930206094L131.49385714285714,59.41712462902068L131.922,49.41299494249478L132.16114285714286,81.22897318857055L132.96342857142858,66.98185482621192L132.99042857142857,56.07475117274693L133.02514285714287,76.13933156004973L133.218,63.20941257051058L133.22957142857143,52.29175612756184L133.31057142857142,63.8105142371995L133.43014285714287,66.07377497638973L133.50342857142857,70.40255006296292L134.028,75.88141816428728L134.34042857142856,86.07213518874984L134.34428571428572,69.30483260750769L134.47542857142858,64.44351109436579L135.00385714285716,44.4974222396101L135.02314285714286,78.13280938352857L135.12342857142858,68.02460115296498L135.30085714285715,51.696764469146714L135.35871428571429,52.63698580435343L135.67499999999998,68.22319063118525L135.84085714285715,90.92186189549308L135.94114285714286,42.87844055891034L136.0992857142857,54.49378416367939L136.26514285714285,50.98976546525954L136.77428571428572,82.79298847700868L136.81671428571428,77.73949536255427L137.21014285714284,58.03845099466186L137.3644285714286,77.10200835977281L137.727,73.87671024033001L137.781,102.31115413989338L137.85042857142855,73.00925010442732L139.06157142857143,63.60218663726533L139.26600000000002,70.47963089602332L140.427,13.709791541099548L140.5697142857143,68.60390572037014L141.54557142857144,77.88998628727026L141.64585714285715,52.487134299107936L141.97757142857142,54.351501490388586L142.2282857142857,56.684842603547224L142.25528571428572,72.85217079094477L142.28614285714286,91.98179202846117L142.47128571428573,48.099513675485326L142.506,89.87879349078449L142.73357142857145,64.69962937917026L142.7837142857143,82.29312822648457L143.3892857142857,57.2193309707301L143.5165714285714,57.11460827078136L143.67857142857142,47.30085507461001L144.39600000000002,50.46396372999462L144.75857142857143,76.09119511502128L144.80871428571427,85.46270685962267L145.07485714285716,76.5792616286448L145.2522857142857,79.35819285682268L145.44128571428573,72.66067650062695L145.65728571428573,72.45961460045405L146.16642857142858,65.61108157464436L146.19728571428573,67.37675081832066L146.58300000000003,81.29225677038941L146.62928571428571,49.730554333754924L146.70642857142857,86.12875459875379L147.16157142857142,72.06989080139569L147.26571428571427,80.12132815378051L147.27342857142858,58.295544986213955L147.62057142857145,55.393291056156144L147.89057142857143,48.434095833982724L147.99471428571428,73.97787113700593L148.02171428571427,51.64978845204624L148.1297142857143,26.651433220931438L148.65428571428572,31.81554590378488L149.00914285714288,75.61203784602027L149.3832857142857,58.37268265656061L149.418,66.09592257227214L149.46428571428572,62.803603819438365L149.53757142857145,85.57848441175051L149.60314285714287,64.11020777480941L149.81142857142856,87.7070028909615L149.85771428571428,85.83094616447175L149.95414285714284,63.49002772569655L150.09685714285715,83.12048965692519L150.498,66.0874253979751L150.57128571428572,48.88042957016398L150.5982857142857,50.853213885000756L150.7757142857143,42.17255935498645L150.9762857142857,79.13860200132642L150.98785714285714,45.56513908079691L151.12285714285716,87.9034799167088L151.82485714285716,82.184834250382L151.82871428571428,59.14925049883976L151.9097142857143,81.88338822977882L152.12185714285715,72.85372434343608L152.45742857142858,61.68228941730089L152.46128571428574,71.92218016726628L152.60785714285714,86.57610193320683L152.74285714285713,69.80821203333988L152.7775714285714,77.81640568375586L153.45257142857142,69.7099024738584L153.819,62.62166766609462L154.59428571428572,57.93300835575374L154.73314285714287,85.14067626850944L154.9722857142857,50.34416967630385L155.2692857142857,50.61290583865981L155.574,44.953134128025596L155.655,80.72705732285975L155.68585714285715,69.75456710798397L155.736,75.02707796863146L155.7437142857143,41.96380547540528L156.14485714285712,80.0616821582828L156.15257142857143,97.47504943609236L156.48814285714286,71.24560805729456L156.49971428571428,75.07618064752646L157.2634285714286,69.06086802908352L157.29042857142858,60.230380939585814L157.54500000000002,61.14854940772055L157.5642857142857,77.34729914154325L157.96542857142856,87.89907976346355L158.031,86.99269082290783L158.28942857142857,71.36068461622509L158.36657142857143,55.075163292033324L158.77928571428572,47.08089477675301L159.0377142857143,-0.6545631970678301L159.09557142857145,91.50386623399596L159.1572857142857,88.4109705729144L159.20742857142858,35.705120333603446L159.34242857142857,89.78181960753031L159.4427142857143,25.06095543929507L160.34142857142857,91.56094981517109L160.57285714285715,57.05449336767195L160.68857142857144,69.13931295701435L160.76185714285714,74.94412394932337L161.10514285714285,66.5327550087656L161.25557142857144,81.70698897540568L161.27100000000002,73.6261051722935L161.3057142857143,63.3767510141645L161.42528571428574,62.67102137633732L161.64514285714284,42.849567217486225L162.20828571428572,79.68081076656068L162.65571428571428,56.075641623565105L162.783,75.38566440769604L163.20342857142856,74.17635641353469L163.75885714285712,60.50826790503092L163.89,47.732704775673994L164.95071428571427,27.014860302209826L165.11657142857143,85.66969878332954L165.3827142857143,78.28317242435045L166.60157142857142,85.52069036449704L166.81371428571427,68.19818222522734L166.87157142857143,50.78610799568038L167.26885714285714,72.74709759439739L167.5542857142857,73.4096024760178L167.616,79.2535838314465L167.65842857142857,59.84293063197816L167.78957142857143,38.202740149838576L168.09814285714285,70.72911816409655L168.33342857142856,82.47172992570057L168.3372857142857,65.05465401496204L168.56099999999998,55.79450545992168L168.63814285714287,34.63262916037013L168.804,74.93182341328688L169.101,41.66604440552845L169.64485714285715,69.25361273969921L169.73357142857142,65.57935689602579L169.73742857142855,54.279337082590374L170.262,54.06226601345196L170.6322857142857,78.41962927579878L170.85985714285712,80.22190173183168L170.9022857142857,49.040038142885464L171.99771428571427,108.01339277625083L172.42585714285713,69.61379062277928L172.53385714285716,78.02810562934194L172.73057142857144,62.79831795181545L173.10471428571427,77.49809793489318L173.2242857142857,29.013723458562566L173.24357142857144,53.54157016107014L173.30914285714286,36.097174461398794L173.65242857142857,45.24042766434803L174.4392857142857,62.729715347290025L174.717,45.85592811022485L175.12199999999999,66.83027925661631L175.45757142857144,6.088593500001082L175.50385714285716,49.755600631237L175.62728571428573,74.6509524903127L175.7352857142857,53.01116460561751L176.07085714285716,76.22302920051983L176.10942857142857,43.69949305057523L176.13257142857142,82.21430911975246L176.148,71.57355919906071L176.26757142857144,61.96841778925486L176.2752857142857,40.832904517650576L176.3292857142857,70.227576477187L176.3524285714286,60.62546638931545L176.63400000000001,74.97185107214108L177.5867142857143,31.509827613830538L177.92614285714285,72.14003748553138L178.02642857142857,79.28546954904283L178.37357142857144,56.04265705176762L178.47771428571428,44.64590964998516L178.74771428571427,84.46747650418962L179.01000000000002,66.80824533530644L179.3262857142857,70.17158227733202L179.51142857142855,32.55386225240571L179.57314285714287,96.4068731601749L179.78142857142856,79.34567918096269L180.41014285714286,74.36036712782722L180.441,51.973940968513475L180.68785714285715,65.10364775572504L180.792,76.51714321119442L181.3127142857143,36.902388295956996L181.3397142857143,70.1622041250978L181.40914285714285,85.75960589732442L181.80642857142857,82.53834796164716L181.899,58.94444681065421L181.93757142857143,78.06939318137508L181.99157142857143,61.31157769049915L182.2307142857143,87.99818978139332L182.59714285714284,70.31179986255508L183.0252857142857,77.08906840426579L183.09471428571428,41.08792394825389L183.1332857142857,82.80481536899293L183.21428571428572,68.99215174998554L183.6347142857143,60.529657670429756L183.90471428571428,59.534474679401924L184.28271428571426,69.67491912416048L184.88057142857141,55.011969702584395L185.00785714285712,57.8193053645747L185.07342857142856,90.80657219673904L185.22385714285713,73.70973176615577L186.219,58.57642538206916L186.975,84.07525660097598L187.1447142857143,42.61513235739298L187.2797142857143,77.14567834138869L187.39542857142857,59.04368471247807L187.488,63.76453287260871L187.61142857142858,78.0684032653059L187.88914285714287,52.644194666828426L187.99328571428572,58.102497143404804L188.0087142857143,79.92628153307095L188.06657142857142,87.97722629564147L188.16685714285714,73.24164355865545L188.25171428571429,71.0920716013227L188.91128571428573,43.75739129952021L188.9267142857143,27.380030393600435L188.97685714285714,64.75283855199812L189.28542857142855,51.74766225899967L189.30085714285713,78.39977411712918L189.43971428571427,83.30230266281536L189.77528571428573,67.57656229819568L189.80228571428572,70.13622948527335L189.972,84.05012978400502L190.17642857142857,79.51989493625503L190.32685714285714,30.138533353805514L190.56214285714285,35.12880919660839L190.9362857142857,64.69211738450184L191.08285714285714,84.74465300355638L191.26028571428571,59.236088399376186L191.26414285714284,72.4802844268935L191.4917142857143,35.37343687670571L191.81571428571428,68.67502811125345L191.9082857142857,59.886278535638525L192.0972857142857,95.8591606510537L192.15128571428573,83.36475263110228L192.72214285714284,70.24843576124735L192.83785714285713,63.99559538705006L193.06542857142855,75.47477579968314L193.26214285714283,72.97077126162391L194.05671428571426,59.846530326775124L194.09142857142857,25.920410990715L194.29585714285716,54.99641523190907L194.81657142857142,66.19968851123537L194.95542857142857,30.68115892580576L195.35271428571428,52.37506064346857L195.399,58.58675082240785L195.83485714285715,73.04611855745314L196.09714285714287,65.9333110962595L196.23214285714286,92.78447186733993L196.8107142857143,46.44814421449388L196.84542857142856,47.71010248150142L196.94957142857143,77.4373530851943L197.06528571428572,60.05176976748875L197.19642857142856,73.27947824554782L197.37,48.10004415682383L197.40085714285715,67.81825338516916L197.50885714285712,69.72983341557637L197.9447142857143,71.78255937354903L198.00642857142856,52.47607944692882L198.24557142857145,64.68357284579957L198.31114285714287,44.48648106200352L198.64285714285717,85.81814830218042L198.6775714285714,80.14503403859477L199.4027142857143,43.927003234624834L199.6032857142857,74.62274698700222L200.71414285714286,56.4887634388038L200.79514285714285,65.06414584176879L201.339,75.74701692802563L201.50485714285713,72.8989668233054L201.70928571428573,75.13229325839451L201.7362857142857,71.4295808800629L201.81342857142857,53.579186971698476L201.91371428571426,72.45017013805251L202.26085714285713,58.78867475475582L202.46142857142857,76.42309644818305L202.69285714285712,74.98531203610554L202.71985714285717,81.71155016762867L202.8317142857143,65.890569456986L203.03614285714286,70.54222769396644L203.05157142857144,61.23935644541467L203.1017142857143,70.52545122163635L203.15571428571428,65.96434425456181L203.24828571428571,50.696361920663264L203.29457142857143,55.304113354001714L203.41799999999998,64.82475666488918L203.445,70.77997806242533L203.49900000000002,80.65491659726415L203.93485714285714,45.81599991662159L203.97728571428573,88.73386319620266L204.00042857142856,64.85927584341593L204.15857142857143,68.53469685145787L204.174,45.10434025526044L204.22799999999998,87.98583714451108L204.31671428571428,31.1261759315218L204.7255714285714,54.809363722801194L204.89142857142858,74.18392524548939L205.13057142857144,65.08652078679629L205.1922857142857,73.60076521549905L205.308,75.33740955165453L206.05628571428574,47.86348737137658L206.22985714285713,26.08148785999842L206.415,47.42084805880273L206.44585714285714,65.48104733654431L206.86242857142858,82.06109000529561L206.9395714285714,70.44460018192018L207.68785714285715,33.97461442436489L208.22014285714286,63.077786888395025L209.3387142857143,43.16616037487981L209.547,61.79174855777195L209.64342857142856,86.0642158601965L210.12942857142858,49.466260952608906L210.44185714285715,48.050178911004735L210.67714285714285,68.17330643960408L210.75042857142856,52.24337812406674L210.978,81.0791501019682L211.42542857142857,65.27057886549404L211.73014285714285,55.756793920482906L212.16985714285713,65.5088312966483L212.3627142857143,83.11263190209864L212.50542857142858,58.07298911895069L212.72142857142856,46.40973168185778L212.78314285714285,50.42618588038853L212.89885714285714,62.96575112427982L213.18042857142856,33.241318702697725L213.62014285714287,54.36999255418776L213.95957142857142,84.2396442421845L214.22185714285715,55.962061779839644L214.57285714285715,68.9635910136359L214.58057142857143,82.31622311047144L214.6037142857143,65.44913320030483L215.30571428571426,40.63867256471087L215.92285714285714,52.259283091340734L216.0617142857143,74.61734744480677L216.50528571428572,69.00803777149744L216.5207142857143,78.7093099781445L216.87942857142858,84.93300229736737L217.09157142857143,64.54980629256792L217.32299999999998,68.73173277718678L217.68942857142858,67.73018401009693L218.4762857142857,43.85827748264583L218.8967142857143,77.38432863354682L219.0664285714286,42.59038919210431L219.08185714285716,85.83716037443705L219.11271428571428,73.48751692261013L219.6835714285714,48.59767354386193L219.86485714285715,64.87131587522369L220.11942857142859,60.287076132638106L220.12714285714284,61.361310315983616L220.77514285714284,73.56351784723144L220.9872857142857,86.3676796044622L221.09528571428572,69.94109760863438L221.22257142857143,64.34985271947723L221.31514285714283,64.76438599399157L221.3537142857143,65.74961298704146L221.82814285714284,88.99965329255376L221.8975714285714,79.02653781856809L222.18685714285715,67.15824934414454L222.33342857142858,77.35713199206761L222.49157142857143,53.26011191947117L222.88114285714286,10.388589973960592L222.95442857142856,34.80004338707241L223.35557142857144,42.12019326857157L223.48285714285714,79.42487246649604L223.72971428571427,40.808057150670436L223.76828571428572,60.91864258476666L224.07299999999998,70.95802086165972L224.13085714285714,73.20843637415341L224.27357142857142,60.7293460028512L225.26485714285712,77.77040537340298L225.29571428571427,55.47770389914511L225.52328571428572,43.44455887590135L225.5772857142857,66.74449284587587L226.21757142857143,62.97184218679155L226.44128571428573,87.16893377474375L226.4682857142857,30.672159688813338L226.4837142857143,67.41378031032424L226.49914285714286,80.44086264073847L226.89642857142854,60.35097071528433L227.043,52.327582563672735L227.1702857142857,81.40856480385575L227.21271428571427,68.8103197983333L227.664,60.706819491727L227.853,78.14140128663607L227.91085714285714,89.39874577096529L227.99185714285713,71.07349528159412L228.0497142857143,-5.483174851962502L228.28114285714287,47.01200798579623L228.50485714285713,21.073611404214574L228.99471428571428,89.74726253747939L229.37271428571427,59.01312519822801L229.84714285714287,65.35506749153136L229.986,32.78540788378032L230.07085714285714,55.77896993500843L230.24057142857143,56.24369053329738L230.2907142857143,41.12765321135518L230.3485714285714,38.98050157512935L230.68800000000002,69.53336586271013L230.904,65.95646281753267L231.18942857142855,86.30350083538464L231.363,62.9822907745838L232.17685714285716,82.9938846017633L232.5857142857143,65.01450794509478L232.5972857142857,41.14982922588075L232.69757142857142,68.43805451904024L232.81714285714287,42.38719589369637L233.50757142857142,83.05721081154685L233.52685714285715,77.57035707150186L233.5577142857143,79.89518680104187L234.18257142857144,40.24323661838258L234.387,29.74535195316585L234.49885714285713,12.80335997257913L234.78814285714287,68.63794178196362L235.14685714285716,68.70631703734396L235.15842857142857,78.72636116402488L235.64057142857143,71.76947732482637L236.46214285714285,80.336296243327L236.58942857142856,49.935348549059455L236.7514285714286,59.30173546501568L236.87485714285714,35.17714930857929L236.95585714285713,47.319308246885015L237.19885714285715,79.78843690454958L237.24514285714287,42.82095911673136L237.29914285714284,52.693103151662L237.32614285714286,57.327767040048315L237.33385714285714,79.36325611174105L237.6347142857143,64.96001046044483L238.32514285714285,67.17706248589924L238.45242857142858,59.04084284816469L238.5912857142857,55.8203664251736L238.71471428571428,33.63582630668367L239.14285714285714,21.086011405502035L239.28557142857142,72.3279036624091L240.06085714285715,41.60919764637944L240.15342857142858,53.88839128187723L240.3,72.49032568080082L240.32314285714284,43.612276234797065L240.408,63.701793981449924L240.68185714285715,84.10776279228072L240.9557142857143,10.435480735131677L241.01357142857145,59.96782109567097L241.1447142857143,77.9621980594737L241.36457142857142,64.16120976635388L241.79271428571428,75.60822027495928L241.9392857142857,78.17633727192877L242.07814285714286,73.5661418352808L242.50242857142857,56.21818953752516L243.351,37.96152270691735L244.14171428571427,72.3516616480691L244.33842857142858,55.14529103040694L244.701,36.369472427027546L245.14842857142858,42.06030571460721L245.36057142857143,70.28286021096363L245.4762857142857,52.9332975234304L245.49171428571427,42.1380401764597L245.65371428571427,55.19535520672797L245.77714285714285,56.6351383967059L245.88128571428572,63.94805099708691L245.94685714285714,51.03231764691215L246.00471428571427,75.67115809661999L246.04328571428573,58.52833156500543L246.3672857142857,45.477998048067064L246.915,59.27990047420772L246.97671428571428,56.65504091978072L246.98828571428572,61.87293114832468L246.99985714285714,42.592624792030875L247.08471428571428,71.14184211833134L247.52828571428572,48.80162467275346L247.87928571428571,85.32761410304478L248.06057142857145,23.62736751352037L248.2457142857143,89.78818538359232L248.5272857142857,42.313771592719206L249.0827142857143,49.56720397302081L249.26785714285717,40.58613596643718L249.32957142857143,60.635213983910404L249.44528571428572,68.31952983140944L249.6342857142857,49.891375435250126L249.68442857142855,29.58969357184L249.70371428571428,83.17385039584975L249.7577142857143,63.97719905206135L250.01614285714285,70.04959051523889L250.18585714285715,50.734584995678475L250.29000000000002,59.08668211953979L250.47514285714288,48.56499210425784" style="fill: none;" fill="none"></path></g></g></g></g></g></g><g transform="translate(60, 178)" clip-path="url(#clip_1)"><clipPath id="clip_1"><rect width="270" height="22"></rect></clipPath><g><g><line x1="0" y1="0" x2="0" y2="5" style="visibility: inherit;" fill="rgb(0, 0, 0)" stroke="rgb(204, 204, 204)" stroke-width="1px"></line><line x1="19.285714285714285" y1="0" x2="19.285714285714285" y2="5" style="visibility: inherit;" fill="rgb(0, 0, 0)" stroke="rgb(204, 204, 204)" stroke-width="1px"></line><line x1="38.57142857142857" y1="0" x2="38.57142857142857" y2="5" style="visibility: inherit;" fill="rgb(0, 0, 0)" stroke="rgb(204, 204, 204)" stroke-width="1px"></line><line x1="57.857142857142854" y1="0" x2="57.857142857142854" y2="5" style="visibility: inherit;" fill="rgb(0, 0, 0)" stroke="rgb(204, 204, 204)" stroke-width="1px"></line><line x1="77.14285714285714" y1="0" x2="77.14285714285714" y2="5" style="visibility: inherit;" fill="rgb(0, 0, 0)" stroke="rgb(204, 204, 204)" stroke-width="1px"></line><line x1="96.42857142857143" y1="0" x2="96.42857142857143" y2="5" style="visibility: inherit;" fill="rgb(0, 0, 0)" stroke="rgb(204, 204, 204)" stroke-width="1px"></line><line x1="115.71428571428571" y1="0" x2="115.71428571428571" y2="5" style="visibility: inherit;" fill="rgb(0, 0, 0)" stroke="rgb(204, 204, 204)" stroke-width="1px"></line><line x1="135" y1="0" x2="135" y2="5" style="visibility: inherit;" fill="rgb(0, 0, 0)" stroke="rgb(204, 204, 204)" stroke-width="1px"></line><line x1="154.28571428571428" y1="0" x2="154.28571428571428" y2="5" style="visibility: inherit;" fill="rgb(0, 0, 0)" stroke="rgb(204, 204, 204)" stroke-width="1px"></line><line x1="173.57142857142858" y1="0" x2="173.57142857142858" y2="5" style="visibility: inherit;" fill="rgb(0, 0, 0)" stroke="rgb(204, 204, 204)" stroke-width="1px"></line><line x1="192.85714285714286" y1="0" x2="192.85714285714286" y2="5" style="visibility: inherit;" fill="rgb(0, 0, 0)" stroke="rgb(204, 204, 204)" stroke-width="1px"></line><line x1="212.14285714285714" y1="0" x2="212.14285714285714" y2="5" style="visibility: inherit;" fill="rgb(0, 0, 0)" stroke="rgb(204, 204, 204)" stroke-width="1px"></line><line x1="231.42857142857142" y1="0" x2="231.42857142857142" y2="5" style="visibility: inherit;" fill="rgb(0, 0, 0)" stroke="rgb(204, 204, 204)" stroke-width="1px"></line><line x1="250.71428571428572" y1="0" x2="250.71428571428572" y2="5" style="visibility: inherit;" fill="rgb(0, 0, 0)" stroke="rgb(204, 204, 204)" stroke-width="1px"></line><line x1="270" y1="0" x2="270" y2="5" style="visibility: inherit;" fill="rgb(0, 0, 0)" stroke="rgb(204, 204, 204)" stroke-width="1px"></line></g><g transform="translate(0, 8)"><text x="0" y="0" dx="0em" dy="0.95em" style="text-anchor: middle; visibility: hidden; font-family: &quot;Helvetica Neue&quot;, sans-serif; font-size: 12px; font-weight: 200;" fill="rgb(50, 49, 63)" stroke="none" stroke-width="1px">-50k</text><text x="19.285714285714285" y="0" dx="0em" dy="0.95em" style="text-anchor: middle; visibility: inherit; font-family: &quot;Helvetica Neue&quot;, sans-serif; font-size: 12px; font-weight: 200;" fill="rgb(50, 49, 63)" stroke="none" stroke-width="1px">0</text><text x="38.57142857142857" y="0" dx="0em" dy="0.95em" style="text-anchor: middle; visibility: hidden; font-family: &quot;Helvetica Neue&quot;, sans-serif; font-size: 12px; font-weight: 200;" fill="rgb(50, 49, 63)" stroke="none" stroke-width="1px">50k</text><text x="57.857142857142854" y="0" dx="0em" dy="0.95em" style="text-anchor: middle; visibility: inherit; font-family: &quot;Helvetica Neue&quot;, sans-serif; font-size: 12px; font-weight: 200;" fill="rgb(50, 49, 63)" stroke="none" stroke-width="1px">100k</text><text x="77.14285714285714" y="0" dx="0em" dy="0.95em" style="text-anchor: middle; visibility: hidden; font-family: &quot;Helvetica Neue&quot;, sans-serif; font-size: 12px; font-weight: 200;" fill="rgb(50, 49, 63)" stroke="none" stroke-width="1px">150k</text><text x="96.42857142857143" y="0" dx="0em" dy="0.95em" style="text-anchor: middle; visibility: inherit; font-family: &quot;Helvetica Neue&quot;, sans-serif; font-size: 12px; font-weight: 200;" fill="rgb(50, 49, 63)" stroke="none" stroke-width="1px">200k</text><text x="115.71428571428571" y="0" dx="0em" dy="0.95em" style="text-anchor: middle; visibility: hidden; font-family: &quot;Helvetica Neue&quot;, sans-serif; font-size: 12px; font-weight: 200;" fill="rgb(50, 49, 63)" stroke="none" stroke-width="1px">250k</text><text x="135" y="0" dx="0em" dy="0.95em" style="text-anchor: middle; visibility: inherit; font-family: &quot;Helvetica Neue&quot;, sans-serif; font-size: 12px; font-weight: 200;" fill="rgb(50, 49, 63)" stroke="none" stroke-width="1px">300k</text><text x="154.28571428571428" y="0" dx="0em" dy="0.95em" style="text-anchor: middle; visibility: hidden; font-family: &quot;Helvetica Neue&quot;, sans-serif; font-size: 12px; font-weight: 200;" fill="rgb(50, 49, 63)" stroke="none" stroke-width="1px">350k</text><text x="173.57142857142858" y="0" dx="0em" dy="0.95em" style="text-anchor: middle; visibility: inherit; font-family: &quot;Helvetica Neue&quot;, sans-serif; font-size: 12px; font-weight: 200;" fill="rgb(50, 49, 63)" stroke="none" stroke-width="1px">400k</text><text x="192.85714285714286" y="0" dx="0em" dy="0.95em" style="text-anchor: middle; visibility: hidden; font-family: &quot;Helvetica Neue&quot;, sans-serif; font-size: 12px; font-weight: 200;" fill="rgb(50, 49, 63)" stroke="none" stroke-width="1px">450k</text><text x="212.14285714285714" y="0" dx="0em" dy="0.95em" style="text-anchor: middle; visibility: inherit; font-family: &quot;Helvetica Neue&quot;, sans-serif; font-size: 12px; font-weight: 200;" fill="rgb(50, 49, 63)" stroke="none" stroke-width="1px">500k</text><text x="231.42857142857142" y="0" dx="0em" dy="0.95em" style="text-anchor: middle; visibility: hidden; font-family: &quot;Helvetica Neue&quot;, sans-serif; font-size: 12px; font-weight: 200;" fill="rgb(50, 49, 63)" stroke="none" stroke-width="1px">550k</text><text x="250.71428571428572" y="0" dx="0em" dy="0.95em" style="text-anchor: middle; visibility: inherit; font-family: &quot;Helvetica Neue&quot;, sans-serif; font-size: 12px; font-weight: 200;" fill="rgb(50, 49, 63)" stroke="none" stroke-width="1px">600k</text><text x="270" y="0" dx="0em" dy="0.95em" style="text-anchor: middle; visibility: hidden; font-family: &quot;Helvetica Neue&quot;, sans-serif; font-size: 12px; font-weight: 200;" fill="rgb(50, 49, 63)" stroke="none" stroke-width="1px">650k</text></g><line x1="0" y1="0" x2="270" y2="0" fill="rgb(0, 0, 0)" stroke="rgb(204, 204, 204)" stroke-width="1px"></line></g></g></g></g></svg>