<svg viewBox="0 0 330 200" xmlns="http://www.w3.org/2000/svg"><g><g><g><g><g><line x1="50" y1="178" x2="45" y2="178" style="visibility: inherit;" fill="rgb(0, 0, 0)" stroke="rgb(204, 204, 204)" stroke-width="1px"></line><line x1="50" y1="160.2" x2="45" y2="160.2" style="visibility: inherit;" fill="rgb(0, 0, 0)" stroke="rgb(204, 204, 204)" stroke-width="1px"></line><line x1="50" y1="142.4" x2="45" y2="142.4" style="visibility: inherit;" fill="rgb(0, 0, 0)" stroke="rgb(204, 204, 204)" stroke-width="1px"></line><line x1="50" y1="124.6" x2="45" y2="124.6" style="visibility: inherit;" fill="rgb(0, 0, 0)" stroke="rgb(204, 204, 204)" stroke-width="1px"></line><line x1="50" y1="106.8" x2="45" y2="106.8" style="visibility: inherit;" fill="rgb(0, 0, 0)" stroke="rgb(204, 204, 204)" stroke-width="1px"></line><line x1="50" y1="89" x2="45" y2="89" style="visibility: inherit;" fill="rgb(0, 0, 0)" stroke="rgb(204, 204, 204)" stroke-width="1px"></line><line x1="50" y1="71.2" x2="45" y2="71.2" style="visibility: inherit;" fill="rgb(0, 0, 0)" stroke="rgb(204, 204, 204)" stroke-width="1px"></line><line x1="50" y1="53.400000000000006" x2="45" y2="53.400000000000006" style="visibility: inherit;" fill="rgb(0, 0, 0)" stroke="rgb(204, 204, 204)" stroke-width="1px"></line><line x1="50" y1="35.60000000000002" x2="45" y2="35.60000000000002" style="visibility: inherit;" fill="rgb(0, 0, 0)" stroke="rgb(204, 204, 204)" stroke-width="1px"></line><line x1="50" y1="17.799999999999983" x2="45" y2="17.799999999999983" style="visibility: inherit;" fill="rgb(0, 0, 0)" stroke="rgb(204, 204, 204)" stroke-width="1px"></line><line x1="50" y1="0" x2="45" y2="0" style="visibility: inherit;" fill="rgb(0, 0, 0)" stroke="rgb(204, 204, 204)" stroke-width="1px"></line></g><g transform="translate(40, 0)"><text x="0" y="178" dx="0em" dy="0.3em" style="text-anchor: end; visibility: hidden; font-family: &quot;Helvetica Neue&quot;, sans-serif; font-size: 12px; font-weight: 200;" fill="rgb(50, 49, 63)" stroke="none" stroke-width="1px">-0.2</text><text x="0" y="160.2" dx="0em" dy="0.3em" style="text-anchor: end; visibility: inherit; font-family: &quot;Helvetica Neue&quot;, sans-serif; font-size: 12px; font-weight: 200;" fill="rgb(50, 49, 63)" stroke="none" stroke-width="1px">0</text><text x="0" y="142.4" dx="0em" dy="0.3em" style="text-anchor: end; visibility: hidden; font-family: &quot;Helvetica Neue&quot;, sans-serif; font-size: 12px; font-weight: 200;" fill="rgb(50, 49, 63)" stroke="none" stroke-width="1px">0.2</text><text x="0" y="124.6" dx="0em" dy="0.3em" style="text-anchor: end; visibility: inherit; font-family: &quot;Helvetica Neue&quot;, sans-serif; font-size: 12px; font-weight: 200;" fill="rgb(50, 49, 63)" stroke="none" stroke-width="1px">0.4</text><text x="0" y="106.8" dx="0em" dy="0.3em" style="text-anchor: end; visibility: hidden; font-family: &quot;Helvetica Neue&quot;, sans-serif; font-size: 12px; font-weight: 200;" fill="rgb(50, 49, 63)" stroke="none" stroke-width="1px">0.6</text><text x="0" y="89" dx="0em" dy="0.3em" style="text-anchor: end; visibility: inherit; font-family: &quot;Helvetica Neue&quot;, sans-serif; font-size: 12px; font-weight: 200;" fill="rgb(50, 49, 63)" stroke="none" stroke-width="1px">0.8</text><text x="0" y="71.2" dx="0em" dy="0.3em" style="text-anchor: end; visibility: hidden; font-family: &quot;Helvetica Neue&quot;, sans-serif; font-size: 12px; font-weight: 200;" fill="rgb(50, 49, 63)" stroke="none" stroke-width="1px">1</text><text x="0" y="53.400000000000006" dx="0em" dy="0.3em" style="text-anchor: end; visibility: inherit; font-family: &quot;Helvetica Neue&quot;, sans-serif; font-size: 12px; font-weight: 200;" fill="rgb(50, 49, 63)" stroke="none" stroke-width="1px">1.2</text><text x="0" y="35.60000000000002" dx="0em" dy="0.3em" style="text-anchor: end; visibility: hidden; font-family: &quot;Helvetica Neue&quot;, sans-serif; font-size: 12px; font-weight: 200;" fill="rgb(50, 49, 63)" stroke="none" stroke-width="1px">1.4</text><text x="0" y="17.799999999999983" dx="0em" dy="0.3em" style="text-anchor: end; visibility: inherit; font-family: &quot;Helvetica Neue&quot;, sans-serif; font-size: 12px; font-weight: 200;" fill="rgb(50, 49, 63)" stroke="none" stroke-width="1px">1.6</text><text x="0" y="0" dx="0em" dy="0.3em" style="text-anchor: end; visibility: hidden; font-family: &quot;Helvetica Neue&quot;, sans-serif; font-size: 12px; font-weight: 200;" fill="rgb(50, 49, 63)" stroke="none" stroke-width="1px">1.8</text></g><line x1="50" y1="0" x2="50" y2="178" fill="rgb(0, 0, 0)" stroke="rgb(204, 204, 204)" stroke-width="1px"></line></g></g><g transform="translate(50, 0)" clip-path="url(#clip_0)"><clipPath id="clip_0"><rect width="280" height="178"></rect></clipPath><g><g><g><line x1="0" y1="0" x2="0" y2="178" fill="rgb(0, 0, 0)" stroke="rgb(60, 60, 60)" stroke-width="1px" opacity="0.25"></line><line x1="20" y1="0" x2="20" y2="178" fill="rgb(0, 0, 0)" stroke="rgb(60, 60, 60)" stroke-width="1px" opacity="0.25"></line><line x1="40" y1="0" x2="40" y2="178" fill="rgb(0, 0, 0)" stroke="rgb(60, 60, 60)" stroke-width="1px" opacity="0.25"></line><line x1="60" y1="0" x2="60" y2="178" fill="rgb(0, 0, 0)" stroke="rgb(60, 60, 60)" stroke-width="1px" opacity="0.25"></line><line x1="80" y1="0" x2="80" y2="178" fill="rgb(0, 0, 0)" stroke="rgb(60, 60, 60)" stroke-width="1px" opacity="0.25"></line><line x1="100" y1="0" x2="100" y2="178" fill="rgb(0, 0, 0)" stroke="rgb(60, 60, 60)" stroke-width="1px" opacity="0.25"></line><line x1="120" y1="0" x2="120" y2="178" fill="rgb(0, 0, 0)" stroke="rgb(60, 60, 60)" stroke-width="1px" opacity="0.25"></line><line x1="140" y1="0" x2="140" y2="178" fill="rgb(0, 0, 0)" stroke="rgb(60, 60, 60)" stroke-width="1px" opacity="0.25"></line><line x1="160" y1="0" x2="160" y2="178" fill="rgb(0, 0, 0)" stroke="rgb(60, 60, 60)" stroke-width="1px" opacity="0.25"></line><line x1="180" y1="0" x2="180" y2="178" fill="rgb(0, 0, 0)" stroke="rgb(60, 60, 60)" stroke-width="1px" opacity="0.25"></line><line x1="200" y1="0" x2="200" y2="178" fill="rgb(0, 0, 0)" stroke="rgb(60, 60, 60)" stroke-width="1px" opacity="0.25"></line><line x1="220" y1="0" x2="220" y2="178" fill="rgb(0, 0, 0)" stroke="rgb(60, 60, 60)" stroke-width="1px" opacity="0.25"></line><line x1="240" y1="0" x2="240" y2="178" fill="rgb(0, 0, 0)" stroke="rgb(60, 60, 60)" stroke-width="1px" opacity="0.25"></line><line x1="260" y1="0" x2="260" y2="178" fill="rgb(0, 0, 0)" stroke="rgb(60, 60, 60)" stroke-width="1px" opacity="0.25"></line><line x1="280" y1="0" x2="280" y2="178" fill="rgb(0, 0, 0)" stroke="rgb(60, 60, 60)" stroke-width="1px" opacity="0.25"></line></g><g><line x1="0" y1="178" x2="280" y2="178" fill="rgb(0, 0, 0)" stroke="rgb(60, 60, 60)" stroke-width="1px" opacity="0.25"></line><line x1="0" y1="160.2" x2="280" y2="160.2" fill="rgb(0, 0, 0)" stroke="rgb(60, 60, 60)" stroke-width="1px" opacity="0.25"></line><line x1="0" y1="142.4" x2="280" y2="142.4" fill="rgb(0, 0, 0)" stroke="rgb(60, 60, 60)" stroke-width="1px" opacity="0.25"></line><line x1="0" y1="124.6" x2="280" y2="124.6" fill="rgb(0, 0, 0)" stroke="rgb(60, 60, 60)" stroke-width="1px" opacity="0.25"></line><line x1="0" y1="106.8" x2="280" y2="106.8" fill="rgb(0, 0, 0)" stroke="rgb(60, 60, 60)" stroke-width="1px" opacity="0.25"></line><line x1="0" y1="89" x2="280" y2="89" fill="rgb(0, 0, 0)" stroke="rgb(60, 60, 60)" stroke-width="1px" opacity="0.25"></line><line x1="0" y1="71.2" x2="280" y2="71.2" fill="rgb(0, 0, 0)" stroke="rgb(60, 60, 60)" stroke-width="1px" opacity="0.25"></line><line x1="0" y1="53.400000000000006" x2="280" y2="53.400000000000006" fill="rgb(0, 0, 0)" stroke="rgb(60, 60, 60)" stroke-width="1px" opacity="0.25"></line><line x1="0" y1="35.60000000000002" x2="280" y2="35.60000000000002" fill="rgb(0, 0, 0)" stroke="rgb(60, 60, 60)" stroke-width="1px" opacity="0.25"></line><line x1="0" y1="17.799999999999983" x2="280" y2="17.799999999999983" fill="rgb(0, 0, 0)" stroke="rgb(60, 60, 60)" stroke-width="1px" opacity="0.25"></line><line x1="0" y1="0" x2="280" y2="0" fill="rgb(0, 0, 0)" stroke="rgb(60, 60, 60)" stroke-width="1px" opacity="0.25"></line></g></g></g><g><g><line x1="0" y1="160.2" x2="280" y2="160.2" fill="rgb(0, 0, 0)" stroke="rgb(153, 153, 153)" stroke-width="1.5px"></line></g></g><g><g><line x1="20" y1="0" x2="20" y2="178" fill="rgb(0, 0, 0)" stroke="rgb(153, 153, 153)" stroke-width="1.5px"></line></g></g><g><g><g><g><g><path stroke="rgb(0, 153, 136)" stroke-width="2px" d="M20.172,36.95846934318544L20.183999999999997,70.75681467056275L20.288,78.52852950462928L20.38,84.92144122487807L20.671999999999997,67.35363950433371L20.92,73.62041340370915L20.94,77.21173677077049L21.024,81.08464848100729L21.096,88.86897522753841L21.236,104.35578553922466L21.244,106.01219712808926L21.276,107.10088971261578L21.9,116.84790985805992L22.148,110.22576544404085L22.32,123.3751247433306L22.348,108.8500097390316L22.54,125.12992071754832L22.592000000000002,111.3631876840896L22.86,124.29228932692408L22.892000000000003,125.8817053426573L23.212,120.99250963044688L23.236,120.97282301189028L23.348,121.17364237561657L23.888,116.39715352978901L24.06,121.50964181133689L24.267999999999997,117.22210632665947L24.42,118.66942189022126L24.724,127.2132357704628L25.048000000000002,114.03763395257923L25.267999999999997,124.07345934514619L25.28,112.09312465430509L25.336,129.82558197654103L25.352,108.35398214926886L25.543999999999997,115.86113378473371L25.572,127.02357935455753L25.748,125.00643741427783L25.868,121.84474957441856L26.212,113.05718489589519L26.34,109.19372827173163L26.768,118.09441067242977L26.939999999999998,102.53409649238729L26.952,111.81616579932269L27.38,120.96641026632904L27.512,116.33634356457756L27.672,127.40739133794612L27.792,132.31729387696387L28.148,126.02315959237339L28.388,94.8427461453371L28.752,107.63147613795968L28.8,113.80788359917152L28.928,115.13878965249438L29.052,123.92359933921011L29.232000000000003,122.44631395128692L29.56,125.82316255246528L29.747999999999998,125.09097391356997L29.816,130.2236891817648L29.824,117.31342982099846L29.844,110.12767018336612L29.944,119.7802030514024L29.948,127.73099655907718L29.996000000000002,132.7590186588024L30.016000000000002,133.3003220626535L30.132,117.88981805836448L30.744,117.90067705073074L30.964,121.49823228064423L31.872,133.9911666903625L32.156,123.97508252754727L32.168,124.06678589540687L32.647999999999996,132.22738630635726L32.924,135.2414466971683L32.988,124.18095403768729L32.992000000000004,128.487118060025L33.224000000000004,132.79307022596694L33.924,127.80931926451245L34.476,125.17781215700356L34.484,114.78133223689733L34.684000000000005,119.84833645239328L34.967999999999996,121.31489096170607L35.26,132.79257818713165L35.288000000000004,125.09069894534102L35.716,123.1221788250675L35.827999999999996,114.06841429087598L36.147999999999996,118.49367592657836L36.396,127.72803496013177L36.788,128.63325673536497L36.931999999999995,126.25375529128725L37.272,126.05322769005463L37.604,127.27079150088375L37.972,120.36815044406154L38.040000000000006,117.63091157246868L38.124,115.84250291653171L38.66,121.07673380878646L38.676,123.25858420692713L38.708,131.89648261413112L39.156,137.41976883131318L39.211999999999996,138.47132609851383L39.364,132.24872695949563L39.58,132.13044076501086L39.888000000000005,134.05906954264145L40.204,140.67587582530777L40.212,117.69927387262265L40.428,118.68592711935392L40.540000000000006,127.53416078666828L41.38399999999999,134.50611942283305L41.44,125.63477611371674L41.684,128.74200778058685L42.2,130.27344197889772L42.72,128.02494466169918L42.896,127.85969159072336L43.236000000000004,120.02497231509565L43.46,130.43676219521473L43.488,139.4961233613432L43.632,134.5169161581016L43.964,129.92272259803676L44.528,140.5325651230894L44.804,130.67907328973143L44.879999999999995,132.60625208763253L45.16,128.80776000081687L45.251999999999995,132.8209721341101L45.508,120.87744266090264L46.083999999999996,116.82380687831828L46.300000000000004,125.14961927508907L46.416,134.1248311685546L46.788,137.21070269711907L46.800000000000004,129.0595380773866L46.848,134.7192464347968L47.419999999999995,135.4320734284834L47.868,130.73439142197435L47.972,119.52397734677817L48.46,131.13237583460818L48.624,127.16049920369151L49.248,135.5392791177788L49.532000000000004,137.36206826372776L49.804,125.73870500963463L49.844,134.9716977311831L49.856,125.91905630285189L49.916000000000004,130.12198252461212L50.048,129.79296347412213L50.775999999999996,134.48480145419734L51.156,129.12306997809847L51.196,122.89213321580107L51.336,124.11439732223198L51.967999999999996,133.07875530147334L52.268,132.7933530987254L52.724,133.9676268840214L52.888000000000005,123.99564781881891L53.455999999999996,137.7430024192632L53.476,131.12463302913906L53.512,134.36135510326864L53.884,134.33062251616096L53.996,143.59834389938345L54.036,138.98307424526783L54.408,140.61953685002078L54.544,136.90465399867912L54.784,127.66504556753881L55.516,134.3941169544802L55.632000000000005,139.22183657168333L55.716,135.72665812682703L55.744,131.48049875264005L55.976,129.4949018993562L56.224000000000004,124.95603199277662L57.044,130.70603222955998L57.268,131.53447974367833L57.396,132.8021752871827L57.744,129.57171381385152L57.876,132.0997380660813L58.22,140.1771493733661L58.272000000000006,135.23349222186152L58.632,126.39675924159266L58.724000000000004,131.6218226980256L58.796,130.33662767454334L59.376,115.6286450983856L59.632,125.77619176871674L60.236,132.33473081615406L60.339999999999996,128.7614756227606L61.108000000000004,123.62120937828516L61.136,134.73759878505982L61.6,133.90693653674808L61.92,129.16573513687408L62.092,130.0140323934585L62.432,129.4199057232392L62.556,124.66785515113878L62.62,128.10734811848087L62.848,130.83747052838677L63.032,136.50266755219408L63.036,126.69356940744763L63.124,131.44131391190865L63.368,123.75681065020315L63.403999999999996,134.04098407148263L63.612,134.69751027035292L63.623999999999995,142.64065396232436L63.775999999999996,140.57829208867958L63.868,129.30641017753766L63.892,119.71028673727864L63.9,133.96198996456286L64.084,136.86385993600615L64.41199999999999,132.53005595302872L64.488,134.39557863512155L64.524,131.02124791756677L64.79599999999999,134.98869877940578L64.804,130.01327378823822L65.044,129.5822303536513L65.67999999999999,138.31021985900315L65.892,143.26546458320584L65.97200000000001,140.0584141779612L66.096,131.50222857191844L66.13199999999999,138.82245499569052L66.268,135.68818307907532L66.596,131.01269939458825L66.744,132.05085235324088L67.04,129.53610914264752L67.496,139.32942788447792L67.88,138.80604967950126L67.89999999999999,129.55416363190946L68.044,130.8671262681935L68.16799999999999,138.68848215939417L68.556,128.1683486688209L68.66,129.63568382334998L68.74,132.52925047545548L69.164,140.04760486411618L69.624,136.6055775734884L69.836,135.00129678976944L70.688,142.4940086620347L71.512,144.24337663540427L71.76,128.4201767487891L72.072,122.76318640405208L72.13999999999999,134.11589246270765L72.248,142.98377218674702L72.332,140.91307418398492L72.38,131.2546694543061L72.44,139.04494998737562L72.96,133.74203928583617L73.61200000000001,137.49408880004785L73.628,139.53331957928143L74.02,132.1921539146574L74.18799999999999,140.23994564489016L74.39200000000001,139.05646376222566L74.484,134.50695080840666L74.72,138.37246876690418L75.244,137.1323288203622L75.54,135.05030498509984L76.324,138.1746894276356L76.888,136.06673663998504L77.152,130.20629273233754L77.17999999999999,132.590933508388L77.284,134.04081268100413L77.356,129.85400121127952L77.592,135.6134718080973L77.792,140.1997679372873L78.53200000000001,143.12186092755184L78.556,140.25434810885184L78.676,131.49676805642602L78.712,135.65113840483568L78.75200000000001,131.12510315093573L79.12,139.80215233291457L79.156,139.1834017158559L79.24,137.4483389616414L79.49600000000001,131.8378897345227L79.57199999999999,119.90126057530091L80.364,130.4720760022189L80.724,136.27625003713712L81.068,129.71994417531627L81.3,121.40086070864733L81.896,117.44298684584831L81.904,120.46604920143974L82.032,126.94881989763218L82.156,130.67530208629782L82.964,138.46966438632177L83.06,141.4338270016152L83.096,140.4884450671132L83.316,138.74557255375606L83.976,138.65932957120032L84.384,137.53659022882496L84.468,140.7496968143579L85,141.38129519674766L85.288,124.47731823147768L85.37599999999999,133.13855940390204L85.444,142.39865494306315L85.628,135.60082173679444L86.024,133.40544541134108L86.792,141.1351800273008L87.236,143.3911535815456L87.24,139.44212936584387L87.432,137.1808055381943L87.6,135.33047923727707L88.268,144.02175998919756L88.392,140.37305436942398L88.52799999999999,128.67716072286535L88.96000000000001,139.64914089773245L89.092,135.60295264376856L89.172,134.0759312639779L89.268,136.68752231936242L89.27199999999999,138.3986928941432L89.284,138.16940012223017L89.36,130.7262540576716L89.62400000000001,133.8796231090172L89.77999999999999,133.04930403109964L89.82,120.43796836565565L90.176,141.10823894478133L90.232,137.6704765428593L90.348,141.0822728534337L90.38,142.5366358276127L90.496,134.7299034832286L90.892,133.7246952401943L91.816,137.55927383312968L91.928,136.5283635366336L92.07600000000001,138.77352472497523L92.21600000000001,129.0148090050757L92.264,126.0967957777238L92.52,128.85491420556926L93.06,137.8620515695406L93.27600000000001,133.72553841317466L93.808,135.55999909577676L93.812,130.63730276440742L94.372,139.11935484852458L94.856,140.76506616173612L94.88399999999999,132.2424295198855L95.384,132.30900106358277L95.836,134.5105575475206L96.024,127.76038910282094L96.196,127.33717203192884L96.46799999999999,133.11430940172266L96.68,136.21674860295133L97.088,138.12920225690397L98.104,138.3557186358396L98.128,128.40710802528156L98.56400000000001,134.7740280467387L98.61999999999999,136.69065345299703L98.928,135.0505938640136L98.952,138.142253583308L99.29599999999999,138.33908625290232L99.388,136.2878903295415L99.668,132.9935727129705L99.756,136.81012574594524L99.888,136.94744338814937L99.984,140.2181520323933L100.14399999999999,132.33508081599L100.21600000000001,138.27779834335615L100.24,140.6853726473076L100.25200000000001,141.5059410749524L100.556,145.45010908240673L100.56,141.97811169264554L100.74799999999999,141.09573488985632L100.87199999999999,140.6318804139103L100.98,136.758184623488L100.99199999999999,139.2007712095055L101.01199999999999,141.94226608272683L101.296,133.16424515007452L101.34,136.44931754254705L101.536,139.52194704148533L101.764,136.34477336539175L101.944,128.312026966148L102.108,133.72652199527954L102.16000000000001,132.72927409991158L102.164,131.51034362667613L102.252,138.77921493790075L102.31599999999999,136.0981531709096L102.75999999999999,128.12033193110074L102.84400000000001,125.5543178701347L103.11999999999999,129.91021250939153L103.132,133.79637913527404L103.136,136.03825252223933L103.328,142.49569983191859L103.424,137.11562762740283L103.952,131.33000422073613L104.324,135.7010347906876L104.58,142.72016238944246L104.84,139.2925134959877L104.932,141.02543260526897L105.268,132.2198589590082L105.28,127.57414323198356L105.3,131.97986334128205L105.568,136.6848594809096L105.64,135.5503052470891L105.94,140.18639337828986L106.096,141.7918543760428L106.728,136.79181750911272L106.9,137.51530933816352L107.184,133.99413183029142L107.288,141.13541529772937L107.372,144.76398114561343L107.396,145.23222928642952L108.028,132.1541122007359L108.984,126.46762644004778L109.036,137.2124621592043L109.17200000000001,134.08703899590483L109.324,137.03994339906498L109.436,134.07991956672402L109.892,130.92501006444823L110.032,134.57833887227588L110.18,137.29201270297455L110.544,132.98236448150988L111.06400000000001,127.0801323270087L111.364,133.01294809958478L111.724,141.2655250725394L111.73599999999999,138.91850593198322L112.33999999999999,137.37811493201644L112.556,138.1137263044659L112.596,137.0284610289313L112.732,134.30285218667893L112.772,130.30121778492892L112.876,132.02367737032876L113.056,130.0342545606212L113.14800000000001,128.56115572363203L113.448,134.59504545831706L113.524,136.2106919046403L113.712,141.91321161135676L114.164,135.8999427141533L114.36,127.52181367523613L114.684,129.18850599029517L114.728,140.9316547487134L114.80799999999999,138.1535094203136L115.10000000000001,135.24176791912643L115.328,134.3141360020889L115.756,139.25929639900735L116.32,134.84886106238767L116.476,141.8961296992938L116.592,140.66159264335792L116.94,142.76789496795243L117.132,138.52641192180278L117.14,143.6758169756427L117.292,141.48379918460427L117.384,145.28270869483305L117.668,145.0362956139634L118.232,139.96884112132352L118.488,141.14856808929744L118.88,123.91147939502838L118.91199999999999,131.85125111317492L119.608,130.64688998093547L119.74000000000001,128.4823940035913L120.036,134.66269489396467L120.192,138.62567682094914L120.536,133.74091283014434L120.928,134.03261749478585L120.97999999999999,137.49887046350005L121.01599999999999,139.28982362025167L121.33200000000001,141.37670554289494L121.56800000000001,134.2429986610781L122.024,137.55325496970698L122.08399999999999,134.50131932329768L122.4,124.10397808842512L122.74799999999999,127.16396692153872L123.252,132.5291862430456L123.392,137.99333448299893L123.688,124.94724491194539L124.184,122.2576947878029L124.268,126.84799790184601L124.368,137.6271178428368L124.62400000000001,131.73522092239205L124.68,140.7614317809985L125.172,140.89625252506914L125.216,141.41585643896175L125.616,127.82936206105833L125.884,132.32001657463505L126.684,132.84707472315387L127.19200000000001,138.24894248303158L127.196,140.565655874834L127.31200000000001,128.9670808337631L127.32000000000001,131.49460435718305L127.71600000000001,140.75746424043183L128.572,140.8565106385708L128.596,139.99564083909036L128.62,133.40631223239518L128.636,138.674139762195L128.64,138.60336531590306L129.1,138.37924346999677L130.024,131.9159505704099L130.416,136.41851207590318L130.45600000000002,141.83732577672092L130.484,141.42387918158565L130.55599999999998,144.97203250556865L130.96,140.1609679604756L131.304,140.12451753418395L131.668,141.3509271053503L131.676,140.5794965182952L131.804,135.0692338182613L131.876,131.87258807476698L133.00799999999998,133.26357233904338L133.112,137.89731006595508L133.28799999999998,145.6719970100046L133.756,134.68227698894026L133.808,131.82967749155236L134.17600000000002,138.32930364098814L134.292,122.74344960723982L134.448,136.67241880168385L135.88400000000001,140.36071550317553L135.988,127.1063493004161L136.076,128.12326258980107L136.152,129.7797570620492L136.252,135.6293451477891L136.316,144.03549880017067L136.364,140.03020667047986L136.808,143.74421227002816L137.056,135.30071811208992L137.888,141.81292516342748L137.916,139.35136718413014L137.952,143.4647956447235L138.15200000000002,139.84603864496674L138.164,133.82718770840057L138.248,128.57373802438693L138.37199999999999,130.2001948073519L138.448,131.12554351270248L138.992,128.14904969763776L139.316,131.31312520556457L139.32,131.26510272047045L139.456,134.88131841191102L140.00400000000002,140.67159304109592L140.024,140.21059011672887L140.128,138.0378936988312L140.312,137.9306728022177L140.372,134.14894772596674L140.7,140.7002095573247L140.872,133.30901160331968L140.976,142.21730217553142L141.14000000000001,133.77508701887513L141.312,124.95426406584892L141.84,132.75722793707337L141.884,126.86017131713663L142.29199999999997,117.88413081847682L142.45200000000003,132.14828258189777L142.828,134.58194234861224L142.884,133.86009823756729L142.956,137.601129191229L144.212,132.53818544352424L144.424,137.09941862187532L145.62800000000001,136.31538873895704L145.776,139.24670328312993L146.78799999999998,140.2047048346753L146.892,141.94059308237055L147.23600000000002,141.68976590898126L147.496,129.40131807790792L147.524,141.70491878247896L147.556,143.2422492498423L147.748,139.26347510315043L147.78400000000002,130.73024579325144L148.02,129.41565017596412L148.072,137.67352697152108L148.7,133.46705362875545L148.832,132.8288191893867L149,135.4244429973432L149.74400000000003,134.5266913270024L150.12,132.5408913840877L150.172,138.31534729321905L150.448,135.03733100183848L150.632,138.13072907522536L150.828,123.80028852778759L151.05200000000002,134.14055261714492L151.58,138.50560020607008L151.61200000000002,135.83137075702865L152.012,134.02218746106035L152.06,139.5232150584865L152.14000000000001,138.98636467100812L152.612,142.62395745075398L152.71999999999997,141.6658458286788L152.728,135.46098916150197L153.08800000000002,136.1269307145161L153.36800000000002,134.96670986567665L153.476,133.27974798740837L153.504,136.7612643649653L153.616,144.0212146695644L154.16,140.54441777810217L154.52800000000002,136.39180045026444L154.916,138.59069276053867L154.952,134.62108794053063L155,138.39809131820863L155.07600000000002,144.08217609723357L155.144,129.4073800309497L155.35999999999999,137.28924551781012L155.408,140.8540412355502L155.50799999999998,133.9812163551267L155.656,138.1655623741792L156.072,136.21937516958897L156.148,138.54480654371335L156.17600000000002,129.993704697182L156.35999999999999,141.18562361049263L156.56799999999998,143.24889550704802L156.57999999999998,143.7513512011331L156.72,143.02930151982952L157.448,134.00819411819714L157.452,141.66306408741292L157.536,146.208961208853L157.756,140.71713098613137L158.104,142.38218660067605L158.108,141.30602961961858L158.26,143.25069437219474L158.4,135.44767397480715L158.43599999999998,123.42191959078117L159.136,126.40916515372199L159.516,134.0101912996451L160.32000000000002,140.23472474957626L160.464,143.17791347501722L160.712,135.79135101079166L161.02,132.43986444806742L161.336,132.44485483541365L161.42000000000002,131.41295506268452L161.452,135.56927946114425L161.504,135.1845812090392L161.512,133.49997148188572L161.928,136.93650760282128L161.936,139.89932747812688L162.284,130.21287485135247L162.296,128.81109224348324L163.08800000000002,129.92672675406558L163.116,132.1881131702885L163.38,125.27517326093614L163.39999999999998,129.75398786750196L163.816,129.49627172623775L163.88400000000001,137.43188489367446L164.152,142.6466287511185L164.232,130.88965369532883L164.66,139.14970035580944L164.928,137.18705307852488L164.988,140.1520155537576L165.052,141.82351907982232L165.104,143.62945948320152L165.244,134.86202951700497L165.34799999999998,131.021805970792L166.28,130.7757299311654L166.52,136.6399962285239L166.64000000000001,133.09756518638446L166.71599999999998,137.98141086115962L167.072,138.38906338339856L167.228,135.81958796312733L167.24400000000003,135.6840949914071L167.28,136.65938383901965L167.404,142.4482400541101L167.632,136.0316223265566L168.216,126.13719991214424L168.68,129.4369519737059L168.812,128.63148727284647L169.248,132.8577629727792L169.82399999999998,144.09230664154575L169.96,140.98580723436945L171.05999999999997,139.3963140536637L171.232,138.55046208577517L171.508,145.33089705378677L172.772,138.02786558616503L172.992,120.96743204016823L173.052,132.82316536553438L173.464,131.15869817593787L173.76,137.57322105768955L173.824,132.86875932933344L173.868,133.3212012760697L174.00400000000002,139.52341603608363L174.324,134.36232623327348L174.56799999999998,137.28128081031073L174.572,139.6094900300798L174.804,134.86230572305908L174.88400000000001,139.17484197136875L175.05599999999998,137.20726791189955L175.364,124.62019335813063L175.928,133.67440308287436L176.02,125.8624131439316L176.02399999999997,116.1445256089444L176.568,108.48693098208408L176.952,121.23193570526878L177.188,134.73505128861444L177.23199999999997,133.8538486728707L178.368,139.36643322804127L178.81199999999998,138.33107457676948L178.924,138.47957819072175L179.12800000000001,131.81261896359035L179.516,130.31312444634082L179.64,135.89389442553855L179.66000000000003,136.86605805536405L179.728,144.79170794757323L180.084,144.91806067932492L180.89999999999998,142.18189577145912L181.188,136.58765368335858L181.60799999999998,132.85199266264206L181.95600000000002,134.51027540520576L182.00400000000002,142.37906135303078L182.132,142.44896172278047L182.244,144.5175461852269L182.592,139.86047080611058L182.632,119.9945702761605L182.656,127.94257892728623L182.672,127.697997476104L182.79600000000002,135.25437562403803L182.804,136.2171734115987L182.85999999999999,123.71382720555897L182.88400000000001,135.3548314992032L183.176,138.2995030881342L184.16400000000002,144.9967406732391L184.516,139.83010714938445L184.62,145.72270847853105L184.98000000000002,138.7109634470784L185.088,126.55110979365679L185.368,134.1476832174753L185.64000000000001,136.10683292839906L185.968,140.78368050254971L186.16,144.44645233431496L186.224,141.22649072817578L186.44,142.9244863401318L187.09199999999998,139.72477771800615L187.124,141.7356678814167L187.38000000000002,137.07625925542808L187.488,131.5592485380248L188.02800000000002,130.43590729403797L188.056,139.82615483410478L188.12800000000001,136.09806106451083L188.54,134.80194255019398L188.636,132.2063408239888L188.67600000000002,134.6141461640281L188.732,127.74973181246452L188.98,138.50752848350498L189.35999999999999,143.42295682832992L189.804,142.74874668997683L189.876,143.5900791435725L189.916,140.8885733496859L190,134.3364098565465L190.436,137.08871620006107L190.716,127.37022887828645L191.10799999999998,135.0414942213404L191.72799999999998,142.23020514998865L191.85999999999999,140.68210775734596L191.928,140.17564250183744L192.084,141.31383365969913L193.11599999999999,140.4925500159703L193.9,140.85724012991756L194.076,139.46287368830428L194.216,140.95868031738752L194.33599999999998,143.8977274730148L194.43200000000002,144.89927737173804L194.56,142.82825666390804L194.848,131.32396687874376L194.956,138.66207958403896L194.97199999999998,138.76566196359664L195.03199999999998,135.07322270742046L195.136,139.92191072055095L195.224,133.07909124711512L195.90800000000002,134.17474948135757L195.924,143.50032843576963L195.976,144.06847454697726L196.296,136.5215090826783L196.31199999999998,130.7796269136919L196.456,134.62843563390786L196.804,137.11778065376686L196.832,136.47265235230606L197.008,140.64417696970813L197.22000000000003,140.6220207801585L197.376,136.6244171329786L197.61999999999998,143.5034515062352L198.008,147.24885440684875L198.16,139.33485838022835L198.344,131.97980587898496L198.348,133.3612305979681L198.584,131.6705694334011L198.92,133.41252642934722L199.01600000000002,129.565652216932L199.212,136.50916863618724L199.268,135.59665310954426L199.85999999999999,135.07530503024805L199.98,131.3791178299989L200.216,131.9801366930805L200.42,139.07506151042787L201.244,135.24710823830927L201.28,134.06700266216978L201.49200000000002,130.82265699948783L202.032,126.64671902595327L202.176,130.72049390887565L202.588,141.0201112863038L202.636,138.5437601791467L203.088,146.4783592469154L203.36,140.37057431247464L203.5,138.76816769443604L204.10000000000002,140.8465706857151L204.136,141.25911872216489L204.244,136.1021971659995L204.364,131.02502509900478L204.5,134.57137182453693L204.68,144.12631684402393L204.712,144.50964028302735L204.82399999999998,136.1102009930766L205.276,127.64026671443607L205.33999999999997,132.88198729790935L205.58800000000002,134.50839268460945L205.656,137.67795767623215L206,140.21969641263496L206.036,138.37112745569235L206.788,130.44048954338265L206.996,133.9254436258095L208.148,133.01471831574509L208.232,130.41058214098007L208.79600000000002,131.45656165039455L208.968,133.35917074623075L209.18,137.92184470869051L209.208,136.02802791824718L209.28799999999998,135.5921033916107L209.392,127.46541196812117L209.752,125.56349375052818L209.96,119.99707002442506L210.2,129.19464638750324L210.228,129.09063149182228L210.34400000000002,133.70159301554452L210.55599999999998,136.26624608912186L210.572,130.34231586328394L210.62400000000002,133.0363398666034L210.68,131.81649155238668L210.77599999999998,137.10360893753926L210.824,141.36739309012L210.952,138.476526791569L210.98,136.61546180753567L211.036,139.889716821546L211.488,140.55841859802985L211.532,140.59813024968062L211.55599999999998,132.0226075755364L211.72,139.73706610150361L211.736,138.43878409841548L211.792,137.5413012301083L211.884,143.18472723862152L212.308,139.93995846112816L212.48000000000002,136.6809383614868L212.728,128.83230037148834L212.79199999999997,124.49067473195409L212.91199999999998,129.72704623970355L213.68800000000002,134.78855256689772L213.868,144.54756704520457L214.06,141.07405837218474L214.09199999999998,142.58319485740068L214.524,136.17773612481835L214.60399999999998,141.56513218658162L215.38,143.30811906904773L215.932,142.46029143274149L217.092,133.8509239516271L217.308,130.9864100631719L217.408,132.59081073986073L217.912,141.138061200327L218.236,137.30762515375864L218.48,141.72308443073373L218.55599999999998,138.70974639608042L218.792,131.3788397226873L219.256,126.7092392601229L219.572,131.2905763521853L220.028,139.97112422943366L220.228,141.30695312643152L220.376,138.66531943569223L220.6,139.06693157390612L220.664,134.73535488897903L220.784,124.27452749273914L221.076,134.9865740381151L221.53199999999998,138.65965908259034L221.884,139.75413906788776L222.156,144.38317871000748L222.52,137.08322360597603L222.52800000000002,138.56010696205516L222.552,130.29513321603545L223.27999999999997,138.31248114142898L223.92,128.3280315793915L224.064,135.60134993403608L224.524,133.69307466232559L224.54,132.7664314714423L224.912,135.12652661551442L225.132,127.3295472778853L225.37199999999999,134.43719893189177L225.752,139.24680537200732L226.56799999999998,141.0980590036184L227.00400000000002,137.04170549832466L227.18,139.00218412169886L227.196,138.74179150537282L227.22799999999998,140.95972474485885L227.82,145.5258399670134L228.008,139.81153812427561L228.27200000000002,141.63140715249077L228.28,132.39253875568588L228.952,139.99636087816984L229.172,141.12131051640523L229.284,136.09680014340404L229.416,141.21334304427435L229.512,137.57090831126902L229.55200000000002,125.93788171659364L230.04399999999998,114.59382666210513L230.11599999999999,119.46845333520645L230.416,137.2482034704847L230.568,140.94963899937324L230.732,140.38725583945535L231.136,142.12394352354534L231.212,141.24290123143962L231.62800000000001,143.16972894910643L231.76000000000002,140.55840199090508L232.016,132.94460356512653L232.056,134.69091098538632L232.37199999999999,142.4834850344324L232.432,143.45264849735355L232.57999999999998,138.01451875358046L233.60799999999998,135.80261271750618L233.64,134.36010010185117L233.876,132.3831463155837L233.932,132.33276662340523L234.596,138.64448191090727L234.828,132.63470414942228L234.85600000000002,134.661946103834L234.872,135.2446329966636L234.88799999999998,134.18668380798704L235.29999999999998,123.4631087272239L235.452,128.9008757519274L235.584,127.16854030798073L235.628,134.03554608110665L236.09599999999998,135.1043759722872L236.292,134.1777768619602L236.352,135.37069595129273L236.43599999999998,135.4720950089732L236.49599999999998,141.90954342456018L236.736,128.73413982499184L236.968,136.8134341113112L237.476,138.42646547167863L237.868,136.31715737902866L238.36,132.97328514227766L238.504,123.70621207026441L238.592,137.0209921895178L238.768,137.8349479954923L238.82000000000002,142.96567431197502L238.88,134.28463539046422L239.23200000000003,132.26018401925714L239.456,138.81388363637507L239.75199999999998,133.52991864958597L239.932,133.66017800442057L240.776,144.05969238647492L241.2,145.42661017445195L241.212,135.52109765039867L241.316,126.36960748166635L241.44,130.6311258281501L242.156,138.23649565320142L242.17600000000002,137.12090856329968L242.20800000000003,140.56623496133633L242.85600000000002,138.94259814150553L243.06799999999998,125.43488529136744L243.184,133.08513350232826L243.484,136.5253316839313L243.85600000000002,141.7342296047916L243.868,132.71509710486373L244.368,136.83983133767305L245.22,135.90941658748886L245.352,139.51848103874406L245.52,136.93466570803912L245.648,144.22624740055954L245.732,142.5760492547423L245.98399999999998,139.50456548508288L246.032,143.07262641321134L246.088,140.29612064532643L246.11599999999999,140.66859297343973L246.12400000000002,137.48944755271626L246.436,140.78496475488168L247.15200000000002,137.88601527917473L247.284,133.76528812689816L247.428,125.70934553759588L247.55599999999998,136.1408491665812L248,144.31137283006078L248.148,145.19390665951875L248.952,145.50729800964797L249.048,142.92500114343724L249.20000000000002,145.11232798477872L249.224,146.56333678754513L249.31199999999998,134.58598023689726L249.596,127.67676356568708L249.88,132.96135940128474L249.94,138.77045912454093L250.076,138.34299679879175L250.304,146.31333257688613L250.74800000000002,124.72510335736882L250.89999999999998,131.32549458620315L251.044,129.2601473934546L251.484,140.31177161483345L252.364,141.92581986545872L253.184,139.3047480800126L253.388,137.32577817830935L253.764,139.0854229787727L254.228,136.1301293746527L254.448,141.12885981324894L254.56799999999998,138.02966853310102L254.58399999999997,143.70703474135968L254.752,139.51050234139672L254.88,133.7047514641313L254.988,132.54411612367744L255.05599999999998,133.92781176652954L255.11599999999999,132.746391653166L255.156,136.91034933413894L255.49200000000002,144.10911429439318L256.06,142.47643884743982L256.124,135.0993426443169L256.136,135.41425231818474L256.14799999999997,139.60807758976665L256.236,139.30525932594L256.696,125.04904245012546L257.06,138.26828952321824L257.248,141.2733682651894L257.44,132.52014082032747L257.732,134.4300523207915L258.308,139.88181419914295L258.5,137.5737572095606L258.564,135.11961778846634L258.684,140.02696691809993L258.88,140.53521533870259L258.932,140.70141655549827L258.952,134.44062596815994L259.008,134.10994057281084L259.276,141.7735490807822L259.452,133.9964143828126L259.56,129.26392361225973L259.752,133.97453353405908" style="fill: none;" fill="none"></path></g></g></g></g><g opacity="0.2"><g><g><g><path stroke="rgb(0, 153, 136)" stroke-width="2px" d="M20.172,36.95846934318544L20.183999999999997,84.27615280151367L20.288,82.88068981170655L20.38,88.9106181383133L20.671999999999997,55.941595506668094L20.92,77.75548149347306L20.94,79.59614564180374L21.024,83.66235936880112L21.096,94.05512536764145L21.236,114.67761923074723L21.244,107.11635572910309L21.276,107.82665432691574L21.9,123.34581426978112L22.148,105.81103212833405L22.32,132.14134074449538L22.348,99.16661013364792L22.54,135.98319004178046L22.592000000000002,102.18536723852158L22.86,132.91168982982634L22.892000000000003,126.94131599068642L23.212,117.73304585814476L23.236,120.95969859957695L23.348,121.30752195119858L23.888,113.2128276348114L24.06,124.91796733140946L24.267999999999997,114.36374933719635L24.42,119.63429893255234L24.724,132.90911169052123L25.048000000000002,105.25389940738678L25.267999999999997,130.76400960683821L25.28,104.10623486042023L25.336,141.6472201913595L25.352,94.03958226442337L25.543999999999997,120.8659015417099L25.572,134.46520973443984L25.748,123.66167612075806L25.868,119.73695768117905L26.212,107.1988084435463L26.34,106.61809052228928L26.768,124.02819893956185L26.939999999999998,92.1605537056923L26.952,118.00421200394631L27.38,127.06657324433327L27.512,113.2496324300766L27.672,134.78808985352515L27.792,135.59056223630904L28.148,121.82707006931305L28.388,74.05580384731293L28.752,116.15729613304138L28.8,117.92548857331276L28.928,116.02606035470963L29.052,129.78013913035392L29.232000000000003,121.4614570260048L29.56,128.07439495325087L29.747999999999998,124.60284815430641L29.816,133.64549936056136L29.824,108.70659024715424L29.844,105.3371637582779L29.944,126.21522496342659L29.948,133.03152556419371L29.996000000000002,136.1110333919525L30.016000000000002,133.66119099855422L30.132,107.61614872217179L30.744,117.90791637897492L30.964,123.89660243391991L31.872,142.31978963017463L32.156,117.29769308567047L32.168,124.12792147397995L32.647999999999996,137.66778658032416L32.924,137.25082029104232L32.988,116.80729226469994L32.992000000000004,131.35789407491683L33.224000000000004,135.66370500326155L33.924,124.48681862354279L34.476,123.42347408533097L34.484,107.8503456234932L34.684000000000005,123.22633926272393L34.967999999999996,122.29259396791458L35.26,140.4443696707487L35.288000000000004,119.95611278414727L35.716,121.80983207821846L35.827999999999996,108.03257126808167L36.147999999999996,121.44385035037995L36.396,133.88427431583403L36.788,129.23673791885375L36.931999999999995,124.66742099523545L37.272,125.91954262256623L37.604,128.08250070810317L37.972,115.7663897395134L38.040000000000006,115.80608565807343L38.124,114.65023047924042L38.66,124.56622107028961L38.676,124.71315113902092L38.708,137.65508155226706L39.156,141.1019596427679L39.211999999999996,139.17236427664756L39.364,128.1003275334835L39.58,132.05158330202102L39.888000000000005,135.34482206106185L40.204,145.08708001375197L40.212,102.38153923749924L40.428,119.34369595050812L40.540000000000006,133.43298323154448L41.38399999999999,139.1540918469429L41.44,119.72054724097252L41.684,130.81349555850028L42.2,131.29439811110495L42.72,126.52594645023346L42.896,127.7495228767395L43.236000000000004,114.80182613134384L43.46,137.37795544862746L43.488,145.53569747209548L43.632,131.19744468927382L43.964,126.85992689132691L44.528,147.6057934731245L44.804,124.11007873415947L44.879999999999995,133.89103795289992L45.16,126.27543194293976L45.251999999999995,135.4964468896389L45.508,112.91508967876435L46.083999999999996,114.12138302326203L46.300000000000004,130.70016087293624L46.416,140.1083057641983L46.788,139.2679503828287L46.800000000000004,123.62542833089829L46.848,138.49238533973693L47.419999999999995,135.90729142427443L47.868,127.60260341763497L47.972,112.05036796331406L48.46,138.87130815982817L48.624,124.51258144974709L49.248,141.12513239383696L49.532000000000004,138.57726102769374L49.804,117.98979617357254L49.844,141.1270262122154L49.856,119.88396201729775L49.916000000000004,132.92393333911895L50.048,129.5736174404621L50.775999999999996,137.61269344091414L51.156,125.54858232736588L51.196,118.73817537426949L51.336,124.9292400598526L51.967999999999996,139.05499395430087L52.268,132.6030849635601L52.724,134.75047607421874L52.888000000000005,117.34766177535057L53.455999999999996,146.90790548622607L53.476,126.71238676905632L53.512,136.519169819355L53.884,134.31013412475585L53.996,149.77682482153176L54.036,135.90622780919074L54.408,141.71051191985606L54.544,134.428065431118L54.784,121.50530661344528L55.516,138.88016454577445L55.632000000000005,142.4403163164854L55.716,133.39653916358947L55.744,128.64972583651542L55.976,128.1711706638336L56.224000000000004,121.93011872172356L57.044,134.5393657207489L57.268,132.08677808642386L57.396,133.64730564951896L57.744,127.41807283163071L57.876,133.7850875675678L58.22,145.56209024488925L58.272000000000006,131.93772078752517L58.632,120.50560392141342L58.724000000000004,135.10519833564757L58.796,129.47983099222182L59.376,105.82332338094712L59.632,132.5412228822708L60.236,136.70709018111228L60.339999999999996,126.37930549383164L61.108000000000004,120.19436521530152L61.136,142.14852505624293L61.6,133.35316170454024L61.92,126.00493420362473L62.092,130.57956389784812L62.432,129.0238212764263L62.556,121.49982143640518L62.62,130.40034343004226L62.848,132.65755213499068L63.032,140.27946556806563L63.036,120.1541706442833L63.124,134.60647691488265L63.368,118.6338084757328L63.403999999999996,140.89709968566893L63.612,135.1351944029331L63.623999999999995,147.93608309030532L63.775999999999996,139.2033841729164L63.868,121.79182223677635L63.892,113.3128711104393L63.9,143.463125449419L64.084,138.79843991696833L64.41199999999999,129.6408532977104L64.488,135.63926042318343L64.524,128.77169410586356L64.79599999999999,137.63366602063178L64.804,126.69632379412651L65.044,129.29486806392669L65.67999999999999,144.12887952923774L65.892,146.5689610660076L65.97200000000001,137.9203805744648L66.096,125.79810483455658L66.13199999999999,143.7026059448719L66.268,133.5986684679985L66.596,127.89571027159691L66.744,132.74295432567595L67.04,127.85961366891861L67.496,145.85830704569815L67.88,138.4571308761835L67.89999999999999,123.38623960018158L68.044,131.7424346923828L68.16799999999999,143.90271942019461L68.556,121.15492634177208L68.66,130.61390725970267L68.74,134.45829491019248L69.164,145.0598411232233L69.624,134.3108927130699L69.836,133.9317762672901L70.688,147.48914991021155L71.512,145.409621950984L71.76,117.87137682437897L72.072,118.99185950756073L72.13999999999999,141.684363168478L72.248,148.89569200277327L72.332,139.53260884881018L72.38,124.81573296785355L72.44,144.2384703427553L72.96,130.20676548480986L73.61200000000001,139.99545514285563L73.628,140.89280676543711L74.02,127.29804347157479L74.18799999999999,145.60514013171195L74.39200000000001,138.26747584044932L74.484,131.4739421725273L74.72,140.94948073923587L75.244,136.3055688560009L75.54,133.66228909492492L76.324,140.25761238932608L76.888,134.66143478155135L77.152,126.29933012723923L77.17999999999999,134.18069402575492L77.284,135.00739879608153L77.356,127.06279356479645L77.592,139.4531188726425L77.792,143.25729869008063L78.53200000000001,145.0699229210615L78.556,138.34267289638518L78.676,125.65838135480881L78.712,138.4207186371088L78.75200000000001,128.10774631500243L79.12,145.58685178756713L79.156,138.7709013044834L79.24,136.29163045883178L79.49600000000001,128.09759024977683L79.57199999999999,111.94350780248642L80.364,137.5192862868309L80.724,140.14569939374923L81.068,125.34907360076905L81.3,115.85480506420136L81.896,114.80440427064896L81.904,122.48142410516739L82.032,131.2706670284271L82.156,133.15962354540824L82.964,143.66590591967105L83.06,143.40993541181086L83.096,139.8581904441118L83.316,137.5836575448513L83.976,138.60183424949645L84.384,136.78809733390807L84.468,142.89176787137984L85,141.80236078500747L85.288,113.20800025463105L85.37599999999999,138.91272018551825L85.444,148.57205196917056L85.628,131.06893293261527L86.024,131.94186119437217L86.792,146.2883364379406L87.236,144.89513595104216L87.24,136.80944655537604L87.432,135.67325631976126L87.6,134.09692836999892L88.268,149.81594715714454L88.392,137.9405839562416L88.52799999999999,120.87989829182625L88.96000000000001,146.96379434764384L89.092,132.90549380779265L89.172,133.05791701078414L89.268,138.42858302295207L89.27199999999999,139.5394732773304L89.284,138.01653827428817L89.36,125.76415668129921L89.62400000000001,135.9818691432476L89.77999999999999,132.49575797915458L89.82,112.03041125535965L90.176,154.88841933086513L90.232,135.3786349415779L90.348,143.35680372714995L90.38,143.50621114373206L90.496,129.5254152536392L90.892,133.05455641150473L91.816,140.11565956175326L91.928,135.8410900056362L92.07600000000001,140.27029885053634L92.21600000000001,122.50899852514267L92.264,124.15145362615586L92.52,130.6936598241329L93.06,143.86680981218814L93.27600000000001,130.96786297559737L93.808,136.78297288417815L93.812,127.35550521016121L94.372,144.774056237936L94.856,141.86220703721045L94.88399999999999,126.56067175865174L95.384,132.3533820927143L95.836,135.9782618701458L96.024,123.26027680635453L96.196,127.0550273180008L96.46799999999999,136.9657343149185L96.68,138.28504140377044L97.088,139.40417135953902L98.104,138.50672955513L98.128,121.77470095157624L98.56400000000001,139.01864139437674L98.61999999999999,137.96840372383593L98.928,133.9572208046913L98.952,140.2033600628376L99.29599999999999,138.47030803263186L99.388,134.9204263806343L99.668,130.79736096858977L99.756,139.3544944345951L99.888,137.0389884829521L99.984,142.39862446188926L100.14399999999999,127.07970000505448L100.21600000000001,142.2396100282669L100.24,142.2904221832752L100.25200000000001,142.05298669338225L100.556,148.0795544207096L100.56,139.66344676613807L100.74799999999999,140.50748368799685L100.87199999999999,140.32264409661292L100.98,134.17572076320647L100.99199999999999,140.82916226685046L101.01199999999999,143.76992933154105L101.296,127.312231194973L101.34,138.6393658041954L101.536,141.57036670744418L101.764,134.22665758132933L101.944,122.9568626999855L102.108,137.3361853480339L102.16000000000001,132.06444216966628L102.164,130.69772331118583L102.252,143.62512914538382L102.31599999999999,134.31077865958213L102.75999999999999,122.80178443789482L102.84400000000001,123.84364182949066L103.11999999999999,132.8141422688961L103.132,136.38715688586234L103.136,137.5328347802162L103.328,146.80066470503806L103.424,133.5289128243923L103.952,127.47292194962502L104.324,138.61505517065524L104.58,147.39958078861235L104.84,137.00741423368453L104.932,142.18071201145648L105.268,126.34947652816773L105.28,124.47699941396714L105.3,134.91701008081435L105.568,139.82152357399463L105.64,134.79393575787543L105.94,143.27711879909037L106.096,142.8621617078781L106.728,133.458459597826L106.9,137.99763722419738L107.184,131.64668015837668L107.288,145.89627094268798L107.372,147.1830250442028L107.396,145.5443947136402L108.028,123.43536747694016L108.984,122.67663593292237L109.036,144.37568597197532L109.17200000000001,132.0034235537052L109.324,139.00854633450507L109.436,132.10657034516333L109.892,128.82173706293105L110.032,137.01389141082763L110.18,139.10112859010695L110.544,130.10926566720008L111.06400000000001,123.1453108906746L111.364,136.96815861463546L111.724,146.76724305450915L111.73599999999999,137.35382650494574L112.33999999999999,136.35118759870528L112.556,138.60413388609885L112.596,136.30495084524154L112.732,132.48577962517737L112.772,127.63346151709557L112.876,133.1719837605953L113.056,128.70797268748282L113.14800000000001,127.57908983230591L113.448,138.61763861477374L113.524,137.28778953552245L113.712,145.71489141583442L114.164,131.89109678268431L114.36,121.93639431595803L114.684,130.29963420033454L114.728,148.76042058765887L114.80799999999999,136.30141253471373L115.10000000000001,133.30060691833495L115.328,133.69571472406386L115.756,142.556069996953L116.32,131.90857083797454L116.476,146.59430879056453L116.592,139.83856793940066L116.94,144.17209651768206L117.132,135.698756557703L117.14,147.10875367820262L117.292,140.02245399057864L117.384,147.81531503498553L117.668,144.87202022671698L118.232,136.59053812623023L118.488,141.9350527346134L118.88,112.42008693218231L118.91199999999999,137.14443225860595L119.608,129.8439825594425L119.74000000000001,127.03939668536187L120.036,138.7828954875469L120.192,141.2676647722721L120.536,130.48440350294112L120.928,134.22708727121352L120.97999999999999,139.80970577597617L121.01599999999999,140.4837923914194L121.33200000000001,142.76796015799044L121.56800000000001,129.48719407320021L122.024,139.76009250879287L122.08399999999999,132.4666955590248L122.4,117.17241726517678L122.74799999999999,129.20395947694777L123.252,136.10599912405013L123.392,141.63609997630118L123.688,116.24985186457634L124.184,120.46466137170792L124.268,129.90819997787474L124.368,144.8131978034973L124.62400000000001,127.80728964209557L124.68,146.7789056867361L125.172,140.98613302111625L125.216,141.76225904822348L125.616,118.77169914245606L125.884,135.31378625035285L126.684,133.19844682216643L127.19200000000001,141.85018765628337L127.196,142.11013146936892L127.31200000000001,121.23469747304917L127.32000000000001,133.17962003946303L127.71600000000001,146.93270416259764L128.572,140.92254157066344L128.596,139.4217276394367L128.62,129.01342649459838L128.636,142.18602478206157L128.64,138.5561823517084L129.1,138.22982890605925L130.024,127.60708863735199L130.416,139.42021974623202L130.45600000000002,145.4498682439327L130.484,141.14824811816214L130.55599999999998,147.33746805489062L130.96,136.95359159708022L131.304,140.1002172499895L131.668,142.16853348612784L131.676,140.06520946025847L131.804,131.39572535157203L131.876,129.74149091243743L133.00799999999998,134.1908951818943L133.112,140.98646855056285L133.28799999999998,150.8551216393709L133.756,127.35579697489739L133.808,129.92794449329375L134.17600000000002,142.66238774061202L134.292,112.35288025140763L134.448,145.95839826464652L135.88400000000001,142.81957997083663L135.988,118.27010516524315L136.076,128.80120478272437L136.152,130.8840867102146L136.252,139.52907053828238L136.316,149.63960123509167L136.364,137.36001191735267L136.808,146.22021600306033L137.056,129.67172200679778L137.888,146.15439653098582L137.916,137.71032853126525L137.952,146.20708128511905L138.15200000000002,137.4335339784622L138.164,129.81462041735648L138.248,125.07143823504448L138.37199999999999,131.28449932932853L138.448,131.74244264960288L138.992,126.16472048759461L139.316,133.42250887751578L139.32,131.2330877304077L139.456,137.2921288728714L140.00400000000002,144.5317761272192L140.024,139.90325483381747L140.128,136.58942942023276L140.312,137.8591922044754L140.372,131.62779767513274L140.7,145.0677174448967L140.872,128.38154630064963L140.976,148.15616255700587L141.14000000000001,128.14694358110427L141.312,119.07371543049813L141.84,137.95920385122298L141.884,122.9288002371788L142.29199999999997,111.90010381937027L142.45200000000003,141.6577170908451L142.828,136.20438219308852L142.884,133.378868830204L142.956,140.09514982700347L144.212,129.16288961172103L144.424,140.14024074077605L145.62800000000001,135.79270215034484L145.776,141.20091297924517L146.78799999999998,140.84337253570556L146.892,143.0978519141674L147.23600000000002,141.52254779338836L147.496,121.20901952385903L147.524,149.90731925219296L147.556,144.26713622808455L147.748,136.61095900535582L147.78400000000002,125.04142625331879L148.02,128.5392530977726L148.072,143.17877816855906L148.7,130.6627380669117L148.832,132.40332956314086L149,137.15485886931418L149.74400000000003,133.92819021344184L150.12,131.2170247554779L150.172,142.16498456597327L150.448,132.85198680758475L150.632,140.19299445748328L150.828,114.24666149616242L151.05200000000002,141.0340620100498L151.58,141.41563193202018L151.61200000000002,134.04855112433432L152.012,132.81606526374816L152.06,143.1905667901039L152.14000000000001,138.6284644126892L152.612,145.04901930391787L152.71999999999997,141.02710474729537L152.728,131.32441805005072L153.08800000000002,136.57089174985884L153.36800000000002,134.1932292997837L153.476,132.15510673522948L153.504,139.08227528333663L153.616,148.8611815392971L154.16,138.226553183794L154.52800000000002,133.62338889837264L154.916,140.05662096738814L154.952,131.9746847271919L155,140.91609356999396L155.07600000000002,147.87156594991683L155.144,119.62418265342713L155.35999999999999,142.54382250905036L155.408,143.2305717140436L155.50799999999998,129.399333101511L155.656,140.95512638688086L156.072,134.92191703319548L156.148,140.09509412646293L156.17600000000002,124.29297013282776L156.35999999999999,148.64690288603305L156.56799999999998,144.62441010475158L156.57999999999998,144.0863216638565L156.72,142.5479350656271L157.448,127.99412251710892L157.452,146.76631073355674L157.536,149.23955928981303L157.756,137.0559108376503L158.104,143.49222367703914L158.108,140.58859163224696L158.26,144.54713754057883L158.4,130.24566037654876L158.43599999999998,115.40475000143051L159.136,128.40066219568251L159.516,139.07754206359385L160.32000000000002,144.384413716197L160.464,145.14003929197787L160.712,130.86697603464125L161.02,130.20554007291793L161.336,132.44818176031112L161.42000000000002,130.72502188086509L161.452,138.34016239345073L161.504,134.92811570763587L161.512,132.37689833045005L161.928,139.22753168344497L161.936,141.8745407283306L162.284,123.75523976683617L162.296,127.8765705049038L163.08800000000002,130.6704830944538L163.116,133.6957041144371L163.38,120.66654665470124L163.39999999999998,132.73986427187918L163.816,129.32446096539496L163.88400000000001,142.7222936719656L164.152,146.1231246560812L164.232,123.0516703248024L164.66,144.65639812946318L164.928,135.87862156033515L164.988,142.12865720391272L165.052,142.93785476386546L165.104,144.83341975212096L165.244,129.01707620620726L165.34799999999998,128.46165693998336L166.28,130.61167923808097L166.52,140.54950709342955L166.64000000000001,130.73594449162482L166.71599999999998,141.23730797767638L167.072,138.66083173155783L167.228,134.10660434961318L167.24400000000003,135.5937663435936L167.28,137.30957640409468L167.404,146.30747753083705L167.632,131.75387717485427L168.216,119.54091830253601L168.68,131.63678668141364L168.812,128.09451080560683L169.248,135.67528010606765L169.82399999999998,151.58200242072343L169.96,138.91480762958525L171.05999999999997,138.3366519331932L171.232,137.98656077384948L171.508,149.85118703246116L172.772,133.1591779410839L172.992,109.59380967617035L173.052,140.72698758244513L173.464,130.04905338287352L173.76,141.849569645524L173.824,129.73245151042937L173.868,133.62282924056052L174.00400000000002,143.6582258760929L174.324,130.9215996980667L174.56799999999998,139.22725052833556L174.572,141.16162950992583L174.804,131.69751618504523L174.88400000000001,142.04986613690852L175.05599999999998,135.8955518722534L175.364,116.2288103222847L175.928,139.71054289937018L176.02,120.6544198513031L176.02399999999997,109.66593391895294L176.568,103.38186789751053L176.952,129.72860552072524L177.188,143.7371283441782L177.23199999999997,133.26638026237487L178.368,143.041489598155L178.81199999999998,137.64083547592162L178.924,138.57858060002326L179.12800000000001,127.36797947883606L179.516,129.31346143484114L179.64,139.6144077450037L179.66000000000003,137.51416714191436L179.728,150.07547454237937L180.084,145.00229583382605L180.89999999999998,140.35778583288192L181.188,132.8581589579582L181.60799999999998,130.36155198216437L181.95600000000002,135.61579723358153L182.00400000000002,147.6249186515808L182.132,142.49556196928023L182.244,145.89660249352454L182.592,136.75575388669967L182.632,106.75063658952713L182.656,133.24125136137008L182.672,127.53494317531586L182.79600000000002,140.29196105599402L182.804,136.8590386033058L182.85999999999999,115.37826306819916L182.88400000000001,143.11550102829932L183.176,140.26261748075484L184.16400000000002,149.4615657299757L184.516,136.385684800148L184.62,149.65110936462878L184.98000000000002,134.03646675944327L185.088,118.44454069137574L185.368,139.21206550002097L185.64000000000001,137.41293273568152L185.968,143.90157888531684L186.16,146.88830022215842L186.224,139.07984965741633L186.44,144.05648341476916L187.09199999999998,137.59163863658904L187.124,143.0762613236904L187.38000000000002,133.96998683810233L187.488,127.8812413930893L188.02800000000002,129.68701313138007L188.056,146.086319860816L188.12800000000001,133.61266521811484L188.54,133.9378635406494L188.636,130.47593967318534L188.67600000000002,136.21934972405433L188.732,123.17345557808876L188.98,145.67939293086528L189.35999999999999,146.69990905821322L189.804,142.2992732644081L189.876,144.15096744596957L189.916,139.08756948709487L190,129.9683008611202L190.436,138.92358709573745L190.716,120.89123733043671L191.10799999999998,140.1556711167097L191.72799999999998,147.0226791024208L191.85999999999999,139.6500428289175L191.928,139.83799899816512L192.084,142.07262776494025L193.11599999999999,139.94502758681773L193.9,141.10036687254905L194.076,138.53329606056212L194.216,141.95588473677634L194.33599999999998,145.857092243433L194.43200000000002,145.5669773042202L194.56,141.44757619202136L194.848,123.6544403553009L194.956,143.55415472090243L194.97199999999998,138.83471688330172L195.03199999999998,132.61159653663634L195.136,143.1543693959713L195.224,128.51721159815787L195.90800000000002,134.90518830418586L195.924,149.71738107204436L195.976,144.44723862111567L196.296,131.49019877314566L196.31199999999998,126.95170546770096L196.456,137.1943081140518L196.804,138.7773440003395L196.832,136.04256681799887L197.008,143.4251933813095L197.22000000000003,140.60724998712539L197.376,133.9593480348587L197.61999999999998,148.08947442173957L198.008,149.74578967392443L198.16,134.0588610291481L198.344,127.0764375448227L198.348,134.28218041062354L198.584,130.54346199035643L198.92,134.5738310933113L199.01600000000002,127.00106940865517L199.212,141.1381795823574L199.268,134.98830942511557L199.85999999999999,134.7277396440506L199.98,128.91499302983283L200.216,132.38081593513488L200.42,143.80501138865947L201.244,132.69513939023017L201.28,133.28026561141013L201.49200000000002,128.65975989103316L202.032,123.86276037693024L202.176,133.4363438308239L202.588,147.88652287125586L202.636,136.89285944104194L203.088,151.7680919587612L203.36,136.29871768951415L203.5,137.69989661574363L204.10000000000002,142.2321726799011L204.136,141.53415074646472L204.244,132.66424946188926L204.364,127.6402437210083L204.5,136.93560297489165L204.68,150.4962801903486L204.712,144.76518924236296L204.82399999999998,130.51057479977607L205.276,121.99364386200905L205.33999999999997,136.37646768689154L205.58800000000002,135.5926629424095L205.656,139.79100100398063L206,141.91418890357016L206.036,137.1387481510639L206.788,125.15339760184288L206.996,136.24874634742736L208.148,132.40756810903548L208.232,128.67449135780333L208.79600000000002,132.15388132333754L208.968,134.62757681012152L209.18,140.96362735033034L209.208,134.76548339128493L209.28799999999998,135.3014870405197L209.392,122.04761768579483L209.752,124.29554827213288L209.96,116.28612087368965L210.2,135.3263639628887L210.228,129.02128822803496L210.34400000000002,136.77556736469268L210.55599999999998,137.97601480484008L210.572,126.39302904605866L210.62400000000002,134.83235586881636L210.68,131.00325934290885L210.77599999999998,140.6283538609743L210.824,144.20991585850715L210.952,136.549282592535L210.98,135.37475181818007L211.036,142.07255349755286L211.488,141.00421978235244L211.532,140.62460468411444L211.55599999999998,126.30559245944023L211.72,144.88003845214843L211.736,137.57326276302337L211.792,136.9429793179035L211.884,146.94701124429702L212.308,137.77677927613257L212.48000000000002,134.5082582950592L212.728,123.5998750448227L212.79199999999997,121.59625763893128L212.91199999999998,133.2179605782032L213.68800000000002,138.1628901183605L213.868,151.05357669740914L214.06,138.75838592350482L214.09199999999998,143.58928584754466L214.524,131.90743030309676L214.60399999999998,145.15672956109046L215.38,144.47011032402514L215.932,141.89507300853728L217.092,128.11134563088416L217.308,129.07673413753508L217.408,133.66041119098662L217.912,146.83622817397116L218.236,134.75400112271308L218.48,144.6667239487171L218.55599999999998,136.7008543729782L218.792,126.4915686070919L219.256,123.59617228507996L219.572,134.3448010802269L220.028,145.7581561475992L220.228,142.19750572443007L220.376,136.9042303085327L220.6,139.334672999382L220.664,131.84763709902762L220.784,117.30064256191254L221.076,142.12793840169905L221.53199999999998,141.1083824455738L221.884,140.4837923914194L222.156,147.46920513808726L222.52,132.21658686995505L222.52800000000002,139.54469586610793L222.552,124.78515071868897L223.27999999999997,143.657379758358L223.92,121.6717318713665L224.064,140.45022883713244L224.524,132.42089114785193L224.54,132.14866934418677L224.912,136.69992337822913L225.132,122.13156105279923L225.37199999999999,139.17563336789607L225.752,142.45320966541766L226.56799999999998,142.33222809135913L227.00400000000002,134.3374698281288L227.18,140.309169870615L227.196,138.5681964278221L227.22799999999998,142.4383469045162L227.82,148.5699167817831L228.008,136.0020035624504L228.27200000000002,142.84465317130088L228.28,126.23329315781594L228.952,145.0655756264925L229.172,141.87127694189547L229.284,132.74712656140326L229.416,144.62437164485453L229.512,135.14261848926543L229.55200000000002,118.18253065347672L230.04399999999998,107.03112329244614L230.11599999999999,122.7182044506073L230.416,149.10137022733687L230.568,143.4172626852989L230.732,140.0123337328434L231.136,143.28173531293868L231.212,140.65553970336913L231.62800000000001,144.45428076088427L231.76000000000002,138.81751735210418L232.016,127.86873794794083L232.056,135.85511593222617L232.37199999999999,147.6785344004631L232.432,144.0987574726343L232.57999999999998,134.3890989243984L233.60799999999998,134.32800869345664L233.64,133.39842502474784L233.876,131.06517712473868L233.932,132.29918016195296L234.596,142.8522921025753L234.828,128.62818564176558L234.85600000000002,136.01344074010848L234.872,135.63309092521666L234.88799999999998,133.4813843488693L235.29999999999998,116.31405867338181L235.452,132.52605376839637L235.584,126.0136500120163L235.628,138.61354992985724L236.09599999999998,135.81692923307418L236.292,133.56004412174224L236.352,136.16597534418105L236.43599999999998,135.53969438076018L236.49599999999998,146.20117570161818L236.736,119.95053742527962L236.968,142.19963030219077L237.476,139.5018197119236L237.868,134.91095198392867L238.36,130.74403698444365L238.504,117.52816335558892L238.592,145.89751226902007L238.768,138.37758519947528L238.82000000000002,146.3861585229635L238.88,128.497276109457L239.23200000000003,130.91054977178572L239.456,143.1830167144537L239.75199999999998,130.00727532505988L239.932,133.7470175743103L240.776,150.99270197451114L241.2,146.33788869976996L241.212,128.91742263436316L241.316,120.2686140358448L241.44,133.47213805913924L242.156,143.30674220323561L242.17600000000002,136.37718383669852L242.20800000000003,142.8631192266941L242.85600000000002,137.86017359495162L243.06799999999998,116.42974339127541L243.184,138.18529897630214L243.484,138.8187971383333L243.85600000000002,145.2068282186985L243.868,126.7023421049118L244.368,139.5896541595459L245.22,135.2891400873661L245.352,141.9245240062475L245.52,135.21212215423583L245.648,149.08730186223983L245.732,141.47591715753077L245.98399999999998,137.45690963864325L246.032,145.45133369863032L246.088,138.4451168000698L246.11599999999999,140.91690785884856L246.12400000000002,135.37001727223395L246.436,142.98197622299193L247.15200000000002,135.9533822953701L247.284,131.0181366920471L247.428,120.33871714472771L247.55599999999998,143.09518491923808L248,149.75838860571383L248.148,145.78226254582404L248.952,145.71622557640075L249.048,141.20346989929675L249.20000000000002,146.57054587900637L249.224,147.5306759893894L249.31199999999998,126.60107586979866L249.596,123.07061911821366L249.88,136.48442329168319L249.94,142.64319227337836L250.076,138.05802191495894L250.304,151.62688976228236L250.74800000000002,110.3329505443573L250.89999999999998,135.725755405426L251.044,127.88324926495552L251.484,147.6795210957527L252.364,143.00185203254222L253.184,137.55736688971518L253.388,136.0064649105072L253.764,140.25851951241492L254.228,134.15993363857268L254.448,144.4613467723131L254.56799999999998,135.96354101300238L254.58399999999997,147.49194554686545L254.752,136.7128140747547L254.88,129.8342508792877L254.988,131.7703592300415L255.05599999999998,134.85027552843093L255.11599999999999,131.95877824425696L255.156,139.68632112145423L255.49200000000002,148.90829093456267L256.06,141.3879885494709L256.124,130.18127850890158L256.136,135.6241921007633L256.14799999999997,142.40396110415458L256.236,139.1033804833889L256.696,115.54489786624909L257.06,147.0811209052801L257.248,143.27675409317015L257.44,126.68465585708618L257.732,135.7033266544342L258.308,143.5163221180439L258.5,136.035052549839L258.564,133.48352484107016L258.684,143.2985330045223L258.88,140.87404761910437L258.932,140.8122173666954L258.952,130.26676557660102L259.008,133.8894836425781L259.276,146.88262141942977L259.452,128.81165791749953L259.56,126.10892976522446L259.752,137.11494014859198" style="fill: none;" fill="none"></path></g></g></g></g></g></g><g transform="translate(50, 178)" clip-path="url(#clip_1)"><clipPath id="clip_1"><rect width="280" height="22"></rect></clipPath><g><g><line x1="0" y1="0" x2="0" y2="5" style="visibility: inherit;" fill="rgb(0, 0, 0)" stroke="rgb(204, 204, 204)" stroke-width="1px"></line><line x1="20" y1="0" x2="20" y2="5" style="visibility: inherit;" fill="rgb(0, 0, 0)" stroke="rgb(204, 204, 204)" stroke-width="1px"></line><line x1="40" y1="0" x2="40" y2="5" style="visibility: inherit;" fill="rgb(0, 0, 0)" stroke="rgb(204, 204, 204)" stroke-width="1px"></line><line x1="60" y1="0" x2="60" y2="5" style="visibility: inherit;" fill="rgb(0, 0, 0)" stroke="rgb(204, 204, 204)" stroke-width="1px"></line><line x1="80" y1="0" x2="80" y2="5" style="visibility: inherit;" fill="rgb(0, 0, 0)" stroke="rgb(204, 204, 204)" stroke-width="1px"></line><line x1="100" y1="0" x2="100" y2="5" style="visibility: inherit;" fill="rgb(0, 0, 0)" stroke="rgb(204, 204, 204)" stroke-width="1px"></line><line x1="120" y1="0" x2="120" y2="5" style="visibility: inherit;" fill="rgb(0, 0, 0)" stroke="rgb(204, 204, 204)" stroke-width="1px"></line><line x1="140" y1="0" x2="140" y2="5" style="visibility: inherit;" fill="rgb(0, 0, 0)" stroke="rgb(204, 204, 204)" stroke-width="1px"></line><line x1="160" y1="0" x2="160" y2="5" style="visibility: inherit;" fill="rgb(0, 0, 0)" stroke="rgb(204, 204, 204)" stroke-width="1px"></line><line x1="180" y1="0" x2="180" y2="5" style="visibility: inherit;" fill="rgb(0, 0, 0)" stroke="rgb(204, 204, 204)" stroke-width="1px"></line><line x1="200" y1="0" x2="200" y2="5" style="visibility: inherit;" fill="rgb(0, 0, 0)" stroke="rgb(204, 204, 204)" stroke-width="1px"></line><line x1="220" y1="0" x2="220" y2="5" style="visibility: inherit;" fill="rgb(0, 0, 0)" stroke="rgb(204, 204, 204)" stroke-width="1px"></line><line x1="240" y1="0" x2="240" y2="5" style="visibility: inherit;" fill="rgb(0, 0, 0)" stroke="rgb(204, 204, 204)" stroke-width="1px"></line><line x1="260" y1="0" x2="260" y2="5" style="visibility: inherit;" fill="rgb(0, 0, 0)" stroke="rgb(204, 204, 204)" stroke-width="1px"></line><line x1="280" y1="0" x2="280" y2="5" style="visibility: inherit;" fill="rgb(0, 0, 0)" stroke="rgb(204, 204, 204)" stroke-width="1px"></line></g><g transform="translate(0, 8)"><text x="0" y="0" dx="0em" dy="0.95em" style="text-anchor: middle; visibility: hidden; font-family: &quot;Helvetica Neue&quot;, sans-serif; font-size: 12px; font-weight: 200;" fill="rgb(50, 49, 63)" stroke="none" stroke-width="1px">-50k</text><text x="20" y="0" dx="0em" dy="0.95em" style="text-anchor: middle; visibility: inherit; font-family: &quot;Helvetica Neue&quot;, sans-serif; font-size: 12px; font-weight: 200;" fill="rgb(50, 49, 63)" stroke="none" stroke-width="1px">0</text><text x="40" y="0" dx="0em" dy="0.95em" style="text-anchor: middle; visibility: hidden; font-family: &quot;Helvetica Neue&quot;, sans-serif; font-size: 12px; font-weight: 200;" fill="rgb(50, 49, 63)" stroke="none" stroke-width="1px">50k</text><text x="60" y="0" dx="0em" dy="0.95em" style="text-anchor: middle; visibility: inherit; font-family: &quot;Helvetica Neue&quot;, sans-serif; font-size: 12px; font-weight: 200;" fill="rgb(50, 49, 63)" stroke="none" stroke-width="1px">100k</text><text x="80" y="0" dx="0em" dy="0.95em" style="text-anchor: middle; visibility: hidden; font-family: &quot;Helvetica Neue&quot;, sans-serif; font-size: 12px; font-weight: 200;" fill="rgb(50, 49, 63)" stroke="none" stroke-width="1px">150k</text><text x="100" y="0" dx="0em" dy="0.95em" style="text-anchor: middle; visibility: inherit; font-family: &quot;Helvetica Neue&quot;, sans-serif; font-size: 12px; font-weight: 200;" fill="rgb(50, 49, 63)" stroke="none" stroke-width="1px">200k</text><text x="120" y="0" dx="0em" dy="0.95em" style="text-anchor: middle; visibility: hidden; font-family: &quot;Helvetica Neue&quot;, sans-serif; font-size: 12px; font-weight: 200;" fill="rgb(50, 49, 63)" stroke="none" stroke-width="1px">250k</text><text x="140" y="0" dx="0em" dy="0.95em" style="text-anchor: middle; visibility: inherit; font-family: &quot;Helvetica Neue&quot;, sans-serif; font-size: 12px; font-weight: 200;" fill="rgb(50, 49, 63)" stroke="none" stroke-width="1px">300k</text><text x="160" y="0" dx="0em" dy="0.95em" style="text-anchor: middle; visibility: hidden; font-family: &quot;Helvetica Neue&quot;, sans-serif; font-size: 12px; font-weight: 200;" fill="rgb(50, 49, 63)" stroke="none" stroke-width="1px">350k</text><text x="180" y="0" dx="0em" dy="0.95em" style="text-anchor: middle; visibility: inherit; font-family: &quot;Helvetica Neue&quot;, sans-serif; font-size: 12px; font-weight: 200;" fill="rgb(50, 49, 63)" stroke="none" stroke-width="1px">400k</text><text x="200" y="0" dx="0em" dy="0.95em" style="text-anchor: middle; visibility: hidden; font-family: &quot;Helvetica Neue&quot;, sans-serif; font-size: 12px; font-weight: 200;" fill="rgb(50, 49, 63)" stroke="none" stroke-width="1px">450k</text><text x="220" y="0" dx="0em" dy="0.95em" style="text-anchor: middle; visibility: inherit; font-family: &quot;Helvetica Neue&quot;, sans-serif; font-size: 12px; font-weight: 200;" fill="rgb(50, 49, 63)" stroke="none" stroke-width="1px">500k</text><text x="240" y="0" dx="0em" dy="0.95em" style="text-anchor: middle; visibility: hidden; font-family: &quot;Helvetica Neue&quot;, sans-serif; font-size: 12px; font-weight: 200;" fill="rgb(50, 49, 63)" stroke="none" stroke-width="1px">550k</text><text x="260" y="0" dx="0em" dy="0.95em" style="text-anchor: middle; visibility: inherit; font-family: &quot;Helvetica Neue&quot;, sans-serif; font-size: 12px; font-weight: 200;" fill="rgb(50, 49, 63)" stroke="none" stroke-width="1px">600k</text><text x="280" y="0" dx="0em" dy="0.95em" style="text-anchor: middle; visibility: hidden; font-family: &quot;Helvetica Neue&quot;, sans-serif; font-size: 12px; font-weight: 200;" fill="rgb(50, 49, 63)" stroke="none" stroke-width="1px">650k</text></g><line x1="0" y1="0" x2="280" y2="0" fill="rgb(0, 0, 0)" stroke="rgb(204, 204, 204)" stroke-width="1px"></line></g></g></g></g></svg>