<svg viewBox="0 0 330 200" xmlns="http://www.w3.org/2000/svg"><g><g><g><g><g><line x1="50" y1="178" x2="45" y2="178" style="visibility: inherit;" fill="rgb(0, 0, 0)" stroke="rgb(204, 204, 204)" stroke-width="1px"></line><line x1="50" y1="160.2" x2="45" y2="160.2" style="visibility: inherit;" fill="rgb(0, 0, 0)" stroke="rgb(204, 204, 204)" stroke-width="1px"></line><line x1="50" y1="142.4" x2="45" y2="142.4" style="visibility: inherit;" fill="rgb(0, 0, 0)" stroke="rgb(204, 204, 204)" stroke-width="1px"></line><line x1="50" y1="124.6" x2="45" y2="124.6" style="visibility: inherit;" fill="rgb(0, 0, 0)" stroke="rgb(204, 204, 204)" stroke-width="1px"></line><line x1="50" y1="106.8" x2="45" y2="106.8" style="visibility: inherit;" fill="rgb(0, 0, 0)" stroke="rgb(204, 204, 204)" stroke-width="1px"></line><line x1="50" y1="89" x2="45" y2="89" style="visibility: inherit;" fill="rgb(0, 0, 0)" stroke="rgb(204, 204, 204)" stroke-width="1px"></line><line x1="50" y1="71.2" x2="45" y2="71.2" style="visibility: inherit;" fill="rgb(0, 0, 0)" stroke="rgb(204, 204, 204)" stroke-width="1px"></line><line x1="50" y1="53.400000000000006" x2="45" y2="53.400000000000006" style="visibility: inherit;" fill="rgb(0, 0, 0)" stroke="rgb(204, 204, 204)" stroke-width="1px"></line><line x1="50" y1="35.60000000000002" x2="45" y2="35.60000000000002" style="visibility: inherit;" fill="rgb(0, 0, 0)" stroke="rgb(204, 204, 204)" stroke-width="1px"></line><line x1="50" y1="17.799999999999983" x2="45" y2="17.799999999999983" style="visibility: inherit;" fill="rgb(0, 0, 0)" stroke="rgb(204, 204, 204)" stroke-width="1px"></line><line x1="50" y1="0" x2="45" y2="0" style="visibility: inherit;" fill="rgb(0, 0, 0)" stroke="rgb(204, 204, 204)" stroke-width="1px"></line></g><g transform="translate(40, 0)"><text x="0" y="178" dx="0em" dy="0.3em" style="text-anchor: end; visibility: hidden; font-family: &quot;Helvetica Neue&quot;, sans-serif; font-size: 12px; font-weight: 200;" fill="rgb(50, 49, 63)" stroke="none" stroke-width="1px">-0.1</text><text x="0" y="160.2" dx="0em" dy="0.3em" style="text-anchor: end; visibility: inherit; font-family: &quot;Helvetica Neue&quot;, sans-serif; font-size: 12px; font-weight: 200;" fill="rgb(50, 49, 63)" stroke="none" stroke-width="1px">0</text><text x="0" y="142.4" dx="0em" dy="0.3em" style="text-anchor: end; visibility: hidden; font-family: &quot;Helvetica Neue&quot;, sans-serif; font-size: 12px; font-weight: 200;" fill="rgb(50, 49, 63)" stroke="none" stroke-width="1px">0.1</text><text x="0" y="124.6" dx="0em" dy="0.3em" style="text-anchor: end; visibility: inherit; font-family: &quot;Helvetica Neue&quot;, sans-serif; font-size: 12px; font-weight: 200;" fill="rgb(50, 49, 63)" stroke="none" stroke-width="1px">0.2</text><text x="0" y="106.8" dx="0em" dy="0.3em" style="text-anchor: end; visibility: hidden; font-family: &quot;Helvetica Neue&quot;, sans-serif; font-size: 12px; font-weight: 200;" fill="rgb(50, 49, 63)" stroke="none" stroke-width="1px">0.3</text><text x="0" y="89" dx="0em" dy="0.3em" style="text-anchor: end; visibility: inherit; font-family: &quot;Helvetica Neue&quot;, sans-serif; font-size: 12px; font-weight: 200;" fill="rgb(50, 49, 63)" stroke="none" stroke-width="1px">0.4</text><text x="0" y="71.2" dx="0em" dy="0.3em" style="text-anchor: end; visibility: hidden; font-family: &quot;Helvetica Neue&quot;, sans-serif; font-size: 12px; font-weight: 200;" fill="rgb(50, 49, 63)" stroke="none" stroke-width="1px">0.5</text><text x="0" y="53.400000000000006" dx="0em" dy="0.3em" style="text-anchor: end; visibility: inherit; font-family: &quot;Helvetica Neue&quot;, sans-serif; font-size: 12px; font-weight: 200;" fill="rgb(50, 49, 63)" stroke="none" stroke-width="1px">0.6</text><text x="0" y="35.60000000000002" dx="0em" dy="0.3em" style="text-anchor: end; visibility: hidden; font-family: &quot;Helvetica Neue&quot;, sans-serif; font-size: 12px; font-weight: 200;" fill="rgb(50, 49, 63)" stroke="none" stroke-width="1px">0.7</text><text x="0" y="17.799999999999983" dx="0em" dy="0.3em" style="text-anchor: end; visibility: inherit; font-family: &quot;Helvetica Neue&quot;, sans-serif; font-size: 12px; font-weight: 200;" fill="rgb(50, 49, 63)" stroke="none" stroke-width="1px">0.8</text><text x="0" y="0" dx="0em" dy="0.3em" style="text-anchor: end; visibility: hidden; font-family: &quot;Helvetica Neue&quot;, sans-serif; font-size: 12px; font-weight: 200;" fill="rgb(50, 49, 63)" stroke="none" stroke-width="1px">0.9</text></g><line x1="50" y1="0" x2="50" y2="178" fill="rgb(0, 0, 0)" stroke="rgb(204, 204, 204)" stroke-width="1px"></line></g></g><g transform="translate(50, 0)" clip-path="url(#clip_0)"><clipPath id="clip_0"><rect width="280" height="178"></rect></clipPath><g><g><g><line x1="0" y1="0" x2="0" y2="178" fill="rgb(0, 0, 0)" stroke="rgb(60, 60, 60)" stroke-width="1px" opacity="0.25"></line><line x1="20" y1="0" x2="20" y2="178" fill="rgb(0, 0, 0)" stroke="rgb(60, 60, 60)" stroke-width="1px" opacity="0.25"></line><line x1="40" y1="0" x2="40" y2="178" fill="rgb(0, 0, 0)" stroke="rgb(60, 60, 60)" stroke-width="1px" opacity="0.25"></line><line x1="60" y1="0" x2="60" y2="178" fill="rgb(0, 0, 0)" stroke="rgb(60, 60, 60)" stroke-width="1px" opacity="0.25"></line><line x1="80" y1="0" x2="80" y2="178" fill="rgb(0, 0, 0)" stroke="rgb(60, 60, 60)" stroke-width="1px" opacity="0.25"></line><line x1="100" y1="0" x2="100" y2="178" fill="rgb(0, 0, 0)" stroke="rgb(60, 60, 60)" stroke-width="1px" opacity="0.25"></line><line x1="120" y1="0" x2="120" y2="178" fill="rgb(0, 0, 0)" stroke="rgb(60, 60, 60)" stroke-width="1px" opacity="0.25"></line><line x1="140" y1="0" x2="140" y2="178" fill="rgb(0, 0, 0)" stroke="rgb(60, 60, 60)" stroke-width="1px" opacity="0.25"></line><line x1="160" y1="0" x2="160" y2="178" fill="rgb(0, 0, 0)" stroke="rgb(60, 60, 60)" stroke-width="1px" opacity="0.25"></line><line x1="180" y1="0" x2="180" y2="178" fill="rgb(0, 0, 0)" stroke="rgb(60, 60, 60)" stroke-width="1px" opacity="0.25"></line><line x1="200" y1="0" x2="200" y2="178" fill="rgb(0, 0, 0)" stroke="rgb(60, 60, 60)" stroke-width="1px" opacity="0.25"></line><line x1="220" y1="0" x2="220" y2="178" fill="rgb(0, 0, 0)" stroke="rgb(60, 60, 60)" stroke-width="1px" opacity="0.25"></line><line x1="240" y1="0" x2="240" y2="178" fill="rgb(0, 0, 0)" stroke="rgb(60, 60, 60)" stroke-width="1px" opacity="0.25"></line><line x1="260" y1="0" x2="260" y2="178" fill="rgb(0, 0, 0)" stroke="rgb(60, 60, 60)" stroke-width="1px" opacity="0.25"></line><line x1="280" y1="0" x2="280" y2="178" fill="rgb(0, 0, 0)" stroke="rgb(60, 60, 60)" stroke-width="1px" opacity="0.25"></line></g><g><line x1="0" y1="178" x2="280" y2="178" fill="rgb(0, 0, 0)" stroke="rgb(60, 60, 60)" stroke-width="1px" opacity="0.25"></line><line x1="0" y1="160.2" x2="280" y2="160.2" fill="rgb(0, 0, 0)" stroke="rgb(60, 60, 60)" stroke-width="1px" opacity="0.25"></line><line x1="0" y1="142.4" x2="280" y2="142.4" fill="rgb(0, 0, 0)" stroke="rgb(60, 60, 60)" stroke-width="1px" opacity="0.25"></line><line x1="0" y1="124.6" x2="280" y2="124.6" fill="rgb(0, 0, 0)" stroke="rgb(60, 60, 60)" stroke-width="1px" opacity="0.25"></line><line x1="0" y1="106.8" x2="280" y2="106.8" fill="rgb(0, 0, 0)" stroke="rgb(60, 60, 60)" stroke-width="1px" opacity="0.25"></line><line x1="0" y1="89" x2="280" y2="89" fill="rgb(0, 0, 0)" stroke="rgb(60, 60, 60)" stroke-width="1px" opacity="0.25"></line><line x1="0" y1="71.2" x2="280" y2="71.2" fill="rgb(0, 0, 0)" stroke="rgb(60, 60, 60)" stroke-width="1px" opacity="0.25"></line><line x1="0" y1="53.400000000000006" x2="280" y2="53.400000000000006" fill="rgb(0, 0, 0)" stroke="rgb(60, 60, 60)" stroke-width="1px" opacity="0.25"></line><line x1="0" y1="35.60000000000002" x2="280" y2="35.60000000000002" fill="rgb(0, 0, 0)" stroke="rgb(60, 60, 60)" stroke-width="1px" opacity="0.25"></line><line x1="0" y1="17.799999999999983" x2="280" y2="17.799999999999983" fill="rgb(0, 0, 0)" stroke="rgb(60, 60, 60)" stroke-width="1px" opacity="0.25"></line><line x1="0" y1="0" x2="280" y2="0" fill="rgb(0, 0, 0)" stroke="rgb(60, 60, 60)" stroke-width="1px" opacity="0.25"></line></g></g></g><g><g><line x1="0" y1="160.2" x2="280" y2="160.2" fill="rgb(0, 0, 0)" stroke="rgb(153, 153, 153)" stroke-width="1.5px"></line></g></g><g><g><line x1="20" y1="0" x2="20" y2="178" fill="rgb(0, 0, 0)" stroke="rgb(153, 153, 153)" stroke-width="1.5px"></line></g></g><g><g><g><g><g><path stroke="rgb(0, 153, 136)" stroke-width="2px" d="M20.172,49.236459922790544L20.183999999999997,49.13873010362897L20.288,24.51638048245357L20.38,45.20489086059516L20.671999999999997,58.38727237639442L20.92,65.00007917085367L20.94,66.61695205509822L21.024,60.972212010792845L21.096,55.16046745528463L21.236,62.54487652618485L21.244,67.97391574001125L21.276,74.00268320808233L21.9,82.47117862060355L22.148,79.07446827547221L22.32,86.15396486460988L22.348,81.02429082827516L22.54,85.73385873338711L22.592000000000002,82.69101344378275L22.86,82.1371448270483L22.892000000000003,77.37846684437083L23.212,73.99014022759943L23.236,73.70344833725858L23.348,72.82887934382477L23.888,73.46108728877903L24.06,74.64232341871924L24.267999999999997,75.01259623857523L24.42,81.26087578821385L24.724,87.93546193242196L25.048000000000002,79.32701911208584L25.267999999999997,84.90714228343633L25.28,69.82200171546108L25.336,83.84294739086079L25.352,71.41121283180878L25.543999999999997,73.23591696742129L25.572,86.96422635842559L25.748,88.04709104748248L25.868,81.24347628296087L26.212,71.59635248160626L26.34,73.42793702354537L26.768,84.85192038246198L26.939999999999998,79.37868080309315L26.952,73.35482607909552L27.38,69.32164844444797L27.512,70.90968479463025L27.672,78.03552736261909L27.792,88.74038858500889L28.148,75.24645724331445L28.388,69.11244080557469L28.752,79.67155313449719L28.8,80.13423709375705L28.928,80.19791851084649L29.052,79.13079792039083L29.232000000000003,86.51856364638203L29.56,72.01867378008602L29.747999999999998,77.37418019394968L29.816,80.1365748581127L29.824,76.60813895928206L29.844,74.57820213980412L29.944,84.38220934846774L29.948,87.06651543608814L29.996000000000002,83.49664295050108L30.016000000000002,79.22934457911094L30.132,79.45350567918238L30.744,78.16143386451887L30.964,80.60585276162023L31.872,87.60334642996548L32.156,90.74308479257488L32.168,85.70064947298393L32.647999999999996,93.5178795063147L32.924,81.83854931925332L32.988,77.5561576570455L32.992000000000004,88.74318200212255L33.224000000000004,90.856183785842L33.924,83.68246732022212L34.476,85.32329858408708L34.484,77.00634721464449L34.684000000000005,79.6687975261471L34.967999999999996,74.9676131333455L35.26,85.19552658420979L35.288000000000004,76.42515069334578L35.716,81.56915308987647L35.827999999999996,79.20970118346034L36.147999999999996,77.05373024583744L36.396,84.63516823625918L36.788,79.73466237774036L36.931999999999995,85.94822471614893L37.272,83.43705653379845L37.604,77.62710310630197L37.972,79.95171697303532L38.040000000000006,84.68742449349116L38.124,79.21857347514612L38.66,86.74755630980484L38.676,76.65165368275068L38.708,90.54069303018339L39.156,92.6860893263121L39.211999999999996,89.43113214070398L39.364,90.49681373474915L39.58,90.16798119877943L39.888000000000005,95.70466568841603L40.204,90.91794386535511L40.212,76.27498138677925L40.428,79.2202069263929L40.540000000000006,84.20179104730582L41.38399999999999,91.96559271305838L41.44,86.244436509967L41.684,91.23434774699217L42.2,81.88308087755206L42.72,80.06944361753847L42.896,81.4214438169304L43.236000000000004,85.58397898074402L43.46,88.35817223309046L43.488,93.58194875049021L43.632,87.07682457418214L43.964,88.6008035844603L44.528,98.90071371340906L44.804,87.36459263143603L44.879999999999995,86.52130314420725L45.16,74.07101359967812L45.251999999999995,82.19872456313938L45.508,74.93566669750916L46.083999999999996,81.39419458122535L46.300000000000004,85.34258090103262L46.416,88.45415226397752L46.788,95.50612871479129L46.800000000000004,86.81686729364053L46.848,89.34335112163407L47.419999999999995,91.95598768547767L47.868,92.06478943091868L47.972,80.64924481098747L48.46,88.21289229943314L48.624,87.40864948969667L49.248,92.19772522585227L49.532000000000004,98.24825491005831L49.804,92.27085595248005L49.844,101.03569293307407L49.856,93.0412453376736L49.916000000000004,82.25821124885422L50.048,81.99131404627936L50.775999999999996,80.14974750705392L51.156,86.35958941152823L51.196,78.63352160521798L51.336,85.25592239168665L51.967999999999996,92.70805490123185L52.268,93.33024782700122L52.724,85.44307117288423L52.888000000000005,86.59374407698755L53.455999999999996,96.8532310945592L53.476,93.0533897440752L53.512,90.31701705619179L53.884,93.00859604900869L53.996,101.58459246327794L54.036,91.90408639498679L54.408,99.39432317093264L54.544,92.34507365971903L54.784,89.7690653115515L55.516,96.73884148955362L55.632000000000005,95.25611831092843L55.716,88.83097555694584L55.744,81.67486696743013L55.976,81.98265321693039L56.224000000000004,78.65133477624741L57.044,80.18542776177918L57.268,83.44432182101644L57.396,87.49563167011038L57.744,90.0805261227103L57.876,96.09385123144038L58.22,96.96585679487566L58.272000000000006,96.277565881555L58.632,88.319929112174L58.724000000000004,87.71370872544365L58.796,87.40465365047103L59.376,79.38568052051403L59.632,86.20637839316504L60.236,87.06696749162346L60.339999999999996,89.62390551261771L61.108000000000004,79.32559359905191L61.136,90.42593545769479L61.6,86.39792538823615L61.92,89.03712139106564L62.092,83.03722823610615L62.432,78.79085853000764L62.556,77.54997493465855L62.62,81.36552447255497L62.848,86.33413317988732L63.032,93.98928808764782L63.036,86.16942190486658L63.124,86.34709244234747L63.368,84.54937251036719L63.403999999999996,86.02949783971054L63.612,88.54050161667723L63.623999999999995,90.99313627889975L63.775999999999996,91.03056887790054L63.868,87.81373289745842L63.892,85.28132434813894L63.9,92.87815899025884L64.084,85.2373963799933L64.41199999999999,80.16311486112512L64.488,85.6594524039723L64.524,87.8870312743941L64.79599999999999,92.04422157023585L64.804,86.62237087811724L65.044,83.51648014674859L65.67999999999999,91.34623321966441L65.892,98.86607661992754L65.97200000000001,97.82378896057783L66.096,86.74684079003404L66.13199999999999,87.67746453409222L66.268,91.09433740665447L66.596,86.26917893524937L66.744,84.67591602657625L67.04,80.06387121619538L67.496,92.53481472707493L67.88,91.52326676836293L67.89999999999999,87.39140294548146L68.044,88.42648859165617L68.16799999999999,92.87537133750322L68.556,89.89427244209053L68.66,90.8156047397566L68.74,91.79318010066795L69.164,97.99733190955658L69.624,93.15607439685638L69.836,86.90850233240437L70.688,91.00010151069766L71.512,92.92110358159306L71.76,87.50810350291157L72.072,83.331391442268L72.13999999999999,87.133462968051L72.248,94.14609114749415L72.332,91.8025918611812L72.38,83.2086213067741L72.44,95.21646832289579L72.96,93.06064259077026L73.61200000000001,93.07820896253949L73.628,94.06838188070442L74.02,92.21989750583325L74.18799999999999,94.06615149386468L74.39200000000001,84.47176039698816L74.484,86.93302212668696L74.72,91.62699184542195L75.244,95.13998898079114L75.54,91.62289287253269L76.324,96.01582706135133L76.888,89.89867897813168L77.152,91.2097792537397L77.17999999999999,89.87480482226157L77.284,89.54066858913717L77.356,86.9265544415562L77.592,100.03725527052278L77.792,96.17743184615848L78.53200000000001,99.2293731739111L78.556,85.48764133652001L78.676,84.68419339259445L78.712,93.64439580758405L78.75200000000001,93.32051411755877L79.12,95.90126698926288L79.156,90.75890540486654L79.24,87.1915339875463L79.49600000000001,84.53972098542226L79.57199999999999,82.35837729816824L80.364,81.95376255848085L80.724,86.74666753426423L81.068,77.11260050064416L81.3,76.4015599899534L81.896,80.93281199904456L81.904,86.79918222893149L82.032,87.8705412430321L82.156,87.11737082651277L82.964,96.40988737365015L83.06,90.9789491368151L83.096,82.55934762767221L83.316,85.42275195762025L83.976,95.82456001537841L84.384,93.81487920958918L84.468,96.82437729390112L85,99.24628050864398L85.288,88.02629302954936L85.37599999999999,88.8314440163623L85.444,96.34900845657391L85.628,91.76892037538927L86.024,84.23383411227958L86.792,90.81594284081179L87.236,98.8467670937527L87.24,92.37817097267107L87.432,92.16525611623365L87.6,95.32156244176322L88.268,102.28908074719786L88.392,95.68776196091603L88.52799999999999,85.16112327038937L88.96000000000001,91.53871404433129L89.092,90.73894588193845L89.172,86.60716735061625L89.268,86.9592361590728L89.27199999999999,87.68304145421443L89.284,91.46092928205275L89.36,90.22775379242239L89.62400000000001,90.90118393588756L89.77999999999999,90.08304272527971L89.82,87.9660610327541L90.176,101.16732662715194L90.232,96.86331990400026L90.348,100.96549200550345L90.38,97.49305440718186L90.496,92.27715304110151L90.892,95.03975371684115L91.816,95.8735068915903L91.928,92.33406363958595L92.07600000000001,94.16944731805515L92.21600000000001,86.74458242787438L92.264,81.70763715558654L92.52,78.64142381450894L93.06,86.53146186312581L93.27600000000001,87.29943894799767L93.808,89.43715324901031L93.812,83.45870886525506L94.372,83.48744957479236L94.856,81.50972677720546L94.88399999999999,91.69876426558875L95.384,91.05196966688308L95.836,93.32513103787292L96.024,90.29042491795296L96.196,82.79795525980661L96.46799999999999,84.50759941463738L96.68,84.14191884567367L97.088,84.8377719504437L98.104,88.52585520199143L98.128,88.51928224822365L98.56400000000001,85.06434629543814L98.61999999999999,91.39930622571387L98.928,90.34556108949057L98.952,82.12307501648851L99.29599999999999,91.32147018756466L99.388,96.30483838497001L99.668,90.96850379061063L99.756,86.59516788940174L99.888,90.14817487089056L99.984,90.1242414621044L100.14399999999999,84.86698012699797L100.21600000000001,92.91851648469812L100.24,97.25416354568819L100.25200000000001,92.46717177642194L100.556,97.90140571837746L100.56,100.44059987642416L100.74799999999999,95.69402160874228L100.87199999999999,94.05584284635869L100.98,90.82362243641413L100.99199999999999,93.05359612269797L101.01199999999999,93.0490647084061L101.296,84.94628329303042L101.34,88.267852974042L101.536,98.51310613159525L101.764,90.55731122972247L101.944,88.55484211874673L102.108,88.04159073524742L102.16000000000001,93.64367946502793L102.164,86.47387998627515L102.252,94.01424277276551L102.31599999999999,92.27849838435951L102.75999999999999,85.26078880667805L102.84400000000001,83.53874832248735L103.11999999999999,87.81719811620732L103.132,93.12156845594414L103.136,95.2794137249985L103.328,102.98868299049532L103.424,95.52464351384796L103.952,86.22164429080073L104.324,93.14638069729638L104.58,95.38658858243876L104.84,90.06656780125401L104.932,96.13903496695241L105.268,90.85873281889232L105.28,83.5141127297603L105.3,89.52860834874006L105.568,90.13879622808017L105.64,93.56066360708442L105.94,96.70305263374792L106.096,96.99142358769794L106.728,94.78922525592573L106.9,91.84761053064635L107.184,86.89784503594704L107.288,99.28951221472292L107.372,100.72758230593311L107.396,99.30040137301488L108.028,89.92096594623963L108.984,83.41515334626929L109.036,93.04940951260286L109.17200000000001,83.85201062835199L109.324,94.90113337388412L109.436,83.53663383861692L109.892,87.06195693310225L110.032,89.03903491853127L110.18,83.4864116444526L110.544,80.40968108234159L111.06400000000001,83.56922907375238L111.364,86.93566092071111L111.724,95.97956138061356L111.73599999999999,86.78875362081081L112.33999999999999,87.62198447387517L112.556,92.08197708527686L112.596,90.44841176430559L112.732,93.05437756363621L112.772,87.92197065188118L112.876,85.08721419745137L113.056,88.16291975328704L113.14800000000001,86.96181927184017L113.448,96.75288977567257L113.524,93.11947573877931L113.712,98.43872611704492L114.164,92.79570751501332L114.36,89.27418374186043L114.684,87.70156001236155L114.728,98.48864822779541L114.80799999999999,95.66397920050004L115.10000000000001,88.25802612939587L115.328,87.3426747776632L115.756,94.71871839911L116.32,87.69351915419205L116.476,92.5110141861443L116.592,94.95193084907548L116.94,100.19413136892325L117.132,89.68204201957705L117.14,97.68301850756455L117.292,86.79393509229203L117.384,97.9796532948819L117.668,97.50566051562654L118.232,94.08561984284731L118.488,95.96296533101405L118.88,92.17557307860694L118.91199999999999,90.83158500822958L119.608,84.44983814014029L119.74000000000001,85.29217009406499L120.036,91.1831406373231L120.192,97.4943659026801L120.536,89.35437959032772L120.928,89.99243213493632L120.97999999999999,91.806790854768L121.01599999999999,88.96683400242965L121.33200000000001,95.06904738414065L121.56800000000001,94.83372546858699L122.024,95.61556886604274L122.08399999999999,90.56389538356005L122.4,78.92542320373988L122.74799999999999,83.2678041644229L123.252,89.02926383286054L123.392,94.89357375967239L123.688,88.39952964253321L124.184,85.8800391652866L124.268,76.69889843379195L124.368,91.843497938771L124.62400000000001,89.91421124730863L124.68,95.99251085199656L125.172,99.24111995092132L125.216,95.31670271869937L125.616,79.29436113165393L125.884,83.88852837294966L126.684,89.34289502465975L127.19200000000001,90.22160233721833L127.196,96.56107797807734L127.31200000000001,84.1656667526018L127.32000000000001,86.60453404646918L127.71600000000001,94.95601020042818L128.572,91.88454859091729L128.596,91.99904084378039L128.62,88.55143352339091L128.636,92.77910197094846L128.64,84.02276271230286L129.1,87.53713602402331L130.024,94.88009190312435L130.416,94.02292796989842L130.45600000000002,96.21383224257056L130.484,99.79209667495182L130.55599999999998,98.99292045375225L130.96,96.86055703695821L131.304,95.96327722285672L131.668,94.89332402552955L131.676,93.57003772102115L131.804,90.69499201235104L131.876,95.65452093862267L133.00799999999998,89.92423415097701L133.112,98.34873156036181L133.28799999999998,103.22839393649596L133.756,89.34651130928236L133.808,91.23310653882679L134.17600000000002,92.3860703361728L134.292,76.9167994075099L134.448,87.9602665063969L135.88400000000001,98.03446019638507L135.988,88.335822783903L136.076,89.09340280731348L136.152,89.04624710973036L136.252,94.86627515672022L136.316,96.10192875193903L136.364,97.22704178065996L136.808,107.01973229158298L137.056,92.40932866854818L137.888,93.9691217848593L137.916,89.90975986277796L137.952,94.11960591139689L138.15200000000002,97.21391066337543L138.164,92.16652043352492L138.248,88.13194002107765L138.37199999999999,90.67956526357328L138.448,88.7861645940081L138.992,87.0054994584376L139.316,87.84579207663752L139.32,88.18177225973217L139.456,91.77671796713673L140.00400000000002,89.84904678835234L140.024,94.73600421338782L140.128,88.55619430458349L140.312,93.60576896157185L140.372,87.72423524890868L140.7,92.17047430290592L140.872,89.00484671598201L140.976,98.06129676582624L141.14000000000001,90.13532775355264L141.312,85.7970716894185L141.84,93.56361943962237L141.884,87.82676238728388L142.29199999999997,78.62580184822411L142.45200000000003,89.51075886680734L142.828,89.9406194956861L142.884,87.15707396871893L142.956,87.05686768773019L144.212,90.93182975722479L144.424,95.26519605904073L145.62800000000001,92.42861560260951L145.776,90.41310006012797L146.78799999999998,90.59852260919524L146.892,100.66903528917675L147.23600000000002,98.5187231506858L147.496,86.40353700264113L147.524,98.42914990800148L147.556,94.79678775079063L147.748,94.48117153647348L147.78400000000002,88.55110696793717L148.02,84.60034957981557L148.072,91.46046093406856L148.7,82.91827734352184L148.832,86.18424654341153L149,92.68016764774487L149.74400000000003,93.25653962713308L150.12,91.92139715044429L150.172,94.69952346837016L150.448,92.26459749045172L150.632,96.30718647361675L150.828,86.72566340256087L151.05200000000002,89.42652069206378L151.58,93.04363173435266L151.61200000000002,92.17086692647193L152.012,87.6508886130494L152.06,99.84369285471607L152.14000000000001,97.19207804349014L152.612,100.72390985785702L152.71999999999997,93.84866951345913L152.728,84.50565687513159L153.08800000000002,86.57423056163711L153.36800000000002,89.2632230273816L153.476,85.45887974230182L153.504,89.27128082167201L153.616,103.04941803793547L154.16,101.96914098016596L154.52800000000002,95.5326455678629L154.916,94.85693930491156L154.952,91.692001560149L155,97.73248598449128L155.07600000000002,96.38680847594219L155.144,89.99653683069977L155.35999999999999,93.15500444079889L155.408,94.87528551302535L155.50799999999998,93.46168923172229L155.656,92.8239959780092L156.072,90.18924835458259L156.148,91.92565356069747L156.17600000000002,87.8254399068115L156.35999999999999,101.04118832139007L156.56799999999998,98.70839535390469L156.57999999999998,101.06302326120985L156.72,95.06857841411454L157.448,86.5670429388651L157.452,97.28842550913369L157.536,100.45339996496787L157.756,96.33397502771994L158.104,101.9318013901392L158.108,92.41032298782982L158.26,94.25600171557872L158.4,87.06598239847742L158.43599999999998,71.06278001669536L159.136,80.07473620654538L159.516,87.85075073910315L160.32000000000002,96.34621478824837L160.464,97.60085263454526L160.712,91.22343001923407L161.02,87.69401572927413L161.336,91.9989142560346L161.42000000000002,92.24538862798147L161.452,95.12916136540386L161.504,91.85626308742131L161.512,92.34739935566172L161.928,98.1433337170648L161.936,97.31164773777198L162.284,86.58886505872039L162.296,88.39964868032943L163.08800000000002,90.97257394871717L163.116,98.08098698886873L163.38,92.00420346273042L163.39999999999998,87.68583374505464L163.816,83.3442971630304L163.88400000000001,88.88505682164069L164.152,95.16792983457897L164.232,95.05715389031351L164.66,94.90193896205498L164.928,94.40226954424888L164.988,96.49915150008404L165.052,95.91538250049673L165.104,96.1563448365558L165.244,86.6898509000154L165.34799999999998,85.30774699109442L166.28,77.40670869452813L166.52,88.36231903832379L166.64000000000001,83.43221260468651L166.71599999999998,91.91839848820564L167.072,93.44736625220058L167.228,91.63715114699077L167.24400000000003,92.26257780117302L167.28,90.1416241952678L167.404,94.33069778716168L167.632,89.5770684601291L168.216,86.12364370828566L168.68,88.89205319883702L168.812,87.21833038330985L169.248,93.27712598562603L169.82399999999998,99.44153708982613L169.96,97.39880111045895L171.05999999999997,95.81827192714715L171.232,95.69073261424266L171.508,97.42703901689991L172.772,91.09010039870638L172.992,69.22110077502211L173.052,82.24821086550504L173.464,82.38015229950251L173.76,88.47991641859174L173.824,90.35472257653856L173.868,87.57302069870624L174.00400000000002,93.94337336622871L174.324,83.08646956762949L174.56799999999998,92.10249918493145L174.572,98.00218185819193L174.804,96.219010527281L174.88400000000001,99.9599869065873L175.05599999999998,91.12208747837512L175.364,86.63362409581173L175.928,90.59534157796473L176.02,81.94206869714964L176.02399999999997,80.6956422047357L176.568,79.56654148882788L176.952,84.98215106084412L177.188,93.44545558196094L177.23199999999997,90.37612236301814L178.368,95.1083055359551L178.81199999999998,95.14044973065172L178.924,87.6888970677444L179.12800000000001,89.19589667814529L179.516,86.49629422862354L179.64,91.80986314471174L179.66000000000003,91.96735560200854L179.728,100.1015805288245L180.084,102.80239011701305L180.89999999999998,97.15378628037912L181.188,90.84766546353715L181.60799999999998,91.76009441322095L181.95600000000002,86.58723868014815L182.00400000000002,98.91905736876488L182.132,98.12549236517336L182.244,96.91477292339478L182.592,97.23209549729218L182.632,86.72405348040338L182.656,87.67303800430963L182.672,86.22498249470023L182.79600000000002,92.52512716555131L182.804,94.07684545955472L182.85999999999999,84.91648284610675L182.88400000000001,93.19594052957125L183.176,87.72919428080966L184.16400000000002,101.83565823447962L184.516,95.07186826472388L184.62,95.38828166009944L184.98000000000002,99.5954113264162L185.088,92.5822979863198L185.368,91.65455236179476L185.64000000000001,95.65098442213872L185.968,98.34590302855626L186.16,103.20388102829796L186.224,100.01804868817466L186.44,97.7232341060644L187.09199999999998,96.02071682491325L187.124,97.47136959901819L187.38000000000002,94.72929398723987L187.488,93.217170060907L188.02800000000002,86.47721150685716L188.056,85.15123221464701L188.12800000000001,86.19605815008381L188.54,86.03631026107112L188.636,87.19800760490911L188.67600000000002,92.42953880208022L188.732,87.75409318358614L188.98,91.66876937210922L189.35999999999999,95.27185688042785L189.804,96.49190344581662L189.876,94.92085451272989L189.916,88.98238782559977L190,81.75462468971867L190.436,87.07738532348498L190.716,86.9017030617556L191.10799999999998,88.12925593459451L191.72799999999998,92.21562602600989L191.85999999999999,95.94171026262258L191.928,93.93015866960135L192.084,96.90245800528943L193.11599999999999,90.60984982694792L193.9,94.77063296018287L194.076,95.5789785010745L194.216,97.30484359674175L194.33599999999998,95.72956537410626L194.43200000000002,103.6234796802402L194.56,97.5939828531027L194.848,92.71983510081292L194.956,94.41969133068848L194.97199999999998,92.67942623873444L195.03199999999998,92.07547754200256L195.136,94.81439897597613L195.224,93.26426508021665L195.90800000000002,87.50681698637133L195.924,97.77103826648762L195.976,97.88231370070287L196.296,92.86249253359917L196.31199999999998,90.38094396196796L196.456,87.6030840142687L196.804,95.6647496121772L196.832,90.28092277358563L197.008,93.49995743874943L197.22000000000003,96.69666118003623L197.376,87.56820912113865L197.61999999999998,95.4970152368191L198.008,102.01137538631929L198.16,91.03172259601027L198.344,86.83972775090562L198.348,86.82936267037721L198.584,85.23023961694848L198.92,82.29340461695915L199.01600000000002,89.21192096314718L199.212,85.80435921129342L199.268,84.37903902600905L199.85999999999999,89.3644001105257L199.98,88.583247605913L200.216,83.58237661995615L200.42,99.16009393087279L201.244,97.52541151663164L201.28,94.64754009970228L201.49200000000002,95.82705811074655L202.032,88.7608538715493L202.176,94.5646202933173L202.588,95.9357228617422L202.636,92.84351608437507L203.088,98.14277351729953L203.36,97.90358087870632L203.5,96.89862273634733L204.10000000000002,97.61102905393149L204.136,97.56748889017307L204.244,97.70777856082998L204.364,90.09693145978962L204.5,92.49962805123533L204.68,101.4792673834618L204.712,95.2093392303966L204.82399999999998,85.86182857240766L205.276,81.31795468125951L205.33999999999997,84.63105193771605L205.58800000000002,88.35378215232566L205.656,89.30759840933113L206,90.28648297201644L206.036,94.15423114304166L206.788,85.25058810712665L206.996,86.21133046389329L208.148,91.2377581987409L208.232,93.59949096336476L208.79600000000002,89.26865855890318L208.968,91.17534376318376L209.18,93.34976236794441L209.208,90.65292234648884L209.28799999999998,89.85020002217937L209.392,85.43573247707623L209.752,87.28121839013393L209.96,84.41862744032024L210.2,87.7045181343503L210.228,93.30935973443775L210.34400000000002,89.63936195102607L210.55599999999998,85.03355086695066L210.572,80.09498298029466L210.62400000000002,88.38100223008936L210.68,83.85611585404136L210.77599999999998,96.90592286358539L210.824,100.1768901195934L210.952,91.914746488206L210.98,95.59355278534588L211.036,87.88321041076539L211.488,92.38776284777784L211.532,94.1150342191206L211.55599999999998,92.06456586698478L211.72,98.0577800463827L211.736,93.93201360985405L211.792,96.4522484051576L211.884,101.28335051486455L212.308,82.07170702437388L212.48000000000002,84.12085595218272L212.728,82.04325349842681L212.79199999999997,80.46139787640244L212.91199999999998,91.22504351459372L213.68800000000002,92.62713814863534L213.868,100.15024437860238L214.06,95.25892220002646L214.09199999999998,94.91396911089514L214.524,93.05329428889311L214.60399999999998,88.02445920935456L215.38,94.05699035497976L215.932,95.19632879007844L217.092,87.2206128673116L217.308,83.65159465139547L217.408,88.61071001317279L217.912,99.44018446455867L218.236,92.0845940027653L218.48,85.5908372439551L218.55599999999998,86.84658653408717L218.792,88.90974271166495L219.256,84.66439718670912L219.572,89.34492573526408L220.028,92.22832795058451L220.228,95.26540791143879L220.376,85.4317512192325L220.6,93.19665611418073L220.664,91.4870548940976L220.784,80.81970733313877L221.076,94.1002114483083L221.53199999999998,94.64999778065541L221.884,94.6892961493868L222.156,101.19734955277993L222.52,93.92765965162498L222.52800000000002,96.81582279562467L222.552,84.36390751743124L223.27999999999997,90.21520006236953L223.92,85.9293516094586L224.064,93.22891930322254L224.524,86.52949856273494L224.54,89.46319891354308L224.912,90.10819550808615L225.132,79.8018482019756L225.37199999999999,90.77488146504776L225.752,89.56902321609265L226.56799999999998,97.94948256505492L227.00400000000002,90.05499510484124L227.18,94.48466409570847L227.196,95.16471197655548L227.22799999999998,88.67576768895289L227.82,98.0988197394224L228.008,95.03120343478568L228.27200000000002,89.99286493218759L228.28,85.02771484198897L228.952,92.85592135645042L229.172,90.89001885118918L229.284,92.64119305158789L229.416,94.60853174028847L229.512,93.46310406326474L229.55200000000002,89.61933318853069L230.04399999999998,83.52174571704741L230.11599999999999,83.67770024280499L230.416,90.78444347755412L230.568,92.88028246075432L230.732,93.30852202856747L231.136,95.51556121144378L231.212,97.51411600364719L231.62800000000001,98.49591422181716L231.76000000000002,89.05864667455909L232.016,87.71205405537509L232.056,88.89695405937918L232.37199999999999,96.00744249335007L232.432,94.4798106579426L232.57999999999998,94.3875527583934L233.60799999999998,93.43057215545086L233.64,95.62035234822238L233.876,86.9589345965918L233.932,85.90177350418314L234.596,93.17434615284817L234.828,93.69742505228764L234.85600000000002,96.67585195412734L234.872,97.5914191012005L234.88799999999998,94.27581476705949L235.29999999999998,84.82183291251532L235.452,88.82326715205141L235.584,82.34979604806117L235.628,92.55157522330926L236.09599999999998,95.929772578757L236.292,88.74368644200999L236.352,88.45116619763073L236.43599999999998,92.02760365127442L236.49599999999998,100.01742654370831L236.736,85.1401472017271L236.968,93.49374857366493L237.476,89.95808528113528L237.868,91.70963498373098L238.36,90.20674148090389L238.504,76.77870445922099L238.592,92.0861275365952L238.768,95.15935849154009L238.82000000000002,99.13162876687056L238.88,91.79516501554491L239.23200000000003,93.36054024747467L239.456,97.69302340527955L239.75199999999998,88.81757181080414L239.932,89.37810379661018L240.776,100.08247514644025L241.2,101.02316203466557L241.212,93.51585282703837L241.316,81.4962688709124L241.44,86.2915808759063L242.156,90.23830345002531L242.17600000000002,89.00498092781591L242.20800000000003,93.94161433939571L242.85600000000002,96.71444053556297L243.06799999999998,88.28503487072696L243.184,94.45178646787926L243.484,89.02410678762168L243.85600000000002,94.07640196282851L243.868,91.79594286759371L244.368,91.2478848031349L245.22,90.14310573781279L245.352,94.22955893693268L245.52,95.30629134582638L245.648,102.21445746106768L245.732,99.4667951809679L245.98399999999998,94.09251962611336L246.032,100.94341519001826L246.088,97.00362031985802L246.11599999999999,91.57463180275552L246.12400000000002,90.24894936502692L246.436,95.654412450078L247.15200000000002,89.79247330017205L247.284,86.63570470884368L247.428,86.17836024790972L247.55599999999998,93.9261068035363L248,101.16864132122988L248.148,97.49211923295974L248.952,96.2451974026947L249.048,95.37203191727752L249.20000000000002,94.759184399487L249.224,104.94379973301945L249.31199999999998,92.80469219163916L249.596,79.11335836679088L249.88,93.24643248570104L249.94,89.48633762221391L250.076,92.92493011085533L250.304,102.49995455872354L250.74800000000002,94.43844320587849L250.89999999999998,91.05380942031756L251.044,78.91340618294484L251.484,86.5624045521498L252.364,91.3317049372387L253.184,90.89268174601365L253.388,90.86536322288818L253.764,92.87977112552765L254.228,91.4052687407384L254.448,93.4466753840784L254.56799999999998,94.10784626485268L254.58399999999997,99.2048043937737L254.752,97.09101686125018L254.88,93.96763301708309L254.988,90.16900896874272L255.05599999999998,93.72624029575668L255.11599999999999,92.55651138090643L255.156,94.23528363570989L255.49200000000002,98.95337951606679L256.06,96.5356567709691L256.124,94.30789256449727L256.136,93.61602294109737L256.14799999999997,90.53830816134801L256.236,93.92121949428316L256.696,86.15161899898051L257.06,94.72381612051963L257.248,95.91323404784774L257.44,94.9518508834671L257.732,98.84125101975722L258.308,100.38601419612615L258.5,97.61423920029344L258.564,93.56116043422199L258.684,97.19049423016538L258.88,93.57913773408504L258.932,94.13662534137953L258.952,92.53320602568145L259.008,92.5265507332172L259.276,98.99321994033203L259.452,91.36108555256027L259.56,86.73643574976404L259.752,88.69759408101828" style="fill: none;" fill="none"></path></g></g></g></g><g opacity="0.2"><g><g><g><path stroke="rgb(0, 153, 136)" stroke-width="2px" d="M20.172,49.236459922790544L20.183999999999997,49.09963817596437L20.288,10.727864694595354L20.38,58.114521336555484L20.671999999999997,66.95054740905762L20.92,69.36347360610962L20.94,67.69045217037201L21.024,57.21521754264832L21.096,51.28851027488709L21.236,67.46652538776398L21.244,71.59289569854737L21.276,78.021692943573L21.9,88.1167475104332L22.148,76.81000990867615L22.32,90.8736165881157L22.348,77.60451180934906L22.54,88.87356932163239L22.592000000000002,80.6624502658844L22.86,81.76789910793305L22.892000000000003,74.20601494312287L23.212,71.73125584125519L23.236,73.5123204112053L23.348,72.24583334922791L23.888,73.88255925178528L24.06,75.42981417179108L24.267999999999997,75.2594447851181L24.42,85.42639548778534L24.724,92.38518602848053L25.048000000000002,73.58805723190308L25.267999999999997,88.6272243976593L25.28,59.76524133682251L25.336,93.19024450778961L25.352,63.123389792442325L25.543999999999997,74.45238639116288L25.572,96.11643261909485L25.748,88.76900084018708L25.868,76.70773310661316L26.212,65.16493661403656L26.34,74.6489933848381L26.768,92.46790928840637L26.939999999999998,75.72985441684723L26.952,69.3389229297638L27.38,66.63286335468293L27.512,71.96837569475174L27.672,82.78608907461167L27.792,95.87696273326874L28.148,66.25050301551819L28.388,65.02309651374817L28.752,86.71096135377884L28.8,80.44269306659699L28.928,80.2403727889061L29.052,78.41938419342041L29.232000000000003,91.44374079704285L29.56,62.352080535888675L29.747999999999998,80.94451780319214L29.816,81.97817130088806L29.824,74.25584836006165L29.844,73.22491092681885L29.944,90.91821415424347L29.948,88.85605282783509L29.996000000000002,81.11672796010971L30.016000000000002,76.3844789981842L30.132,79.60294641256333L30.744,77.3000526547432L30.964,82.23546535968781L31.872,92.26834220886231L32.156,92.83624370098114L32.168,82.33902592658997L32.647999999999996,98.72936619520188L32.924,74.05232919454575L32.988,74.7012298822403L32.992000000000004,96.20119823217392L33.224000000000004,92.26485164165497L33.924,78.89998967647553L34.476,86.41718609333039L34.484,71.46171296834946L34.684000000000005,81.44376440048218L34.967999999999996,71.8334902048111L35.26,92.01413555145264L35.288000000000004,70.57823343276978L35.716,84.99848802089691L35.827999999999996,77.63673324584961L36.147999999999996,75.61641628742218L36.396,89.68946022987366L36.788,76.46765847206116L36.931999999999995,90.09059960842133L37.272,81.76294441223145L37.604,73.75380082130432L37.972,81.50145955085755L38.040000000000006,87.84456284046173L38.124,75.57267279624939L38.66,91.76687819957733L38.676,69.92105193138123L38.708,99.80005259513855L39.156,94.11635352373123L39.211999999999996,87.2611606836319L39.364,91.20726813077927L39.58,89.94875950813294L39.888000000000005,99.39578868150711L40.204,87.72679598331452L40.212,66.51300640106201L40.428,81.18369061946869L40.540000000000006,87.52284712791443L41.38399999999999,97.14146049022675L41.44,82.43033237457276L41.684,94.56095523834229L42.2,75.64890296459198L42.72,78.86035211086273L42.896,82.32277728319168L43.236000000000004,88.35900242328644L43.46,90.20763440132141L43.488,97.06446642875672L43.632,82.74007512331009L43.964,89.61678959131241L44.528,105.76732046604157L44.804,79.67384524345398L44.879999999999995,85.95911015272141L45.16,65.77082056999207L45.251999999999995,87.61719853878022L45.508,70.09362812042237L46.083999999999996,85.69987983703614L46.300000000000004,87.9748384475708L46.416,90.52853317260742L46.788,100.20744634866715L46.800000000000004,81.02402634620667L46.848,91.02767367362976L47.419999999999995,93.69774539470673L47.868,92.13732392787934L47.972,73.03888173103333L48.46,93.25532395839691L48.624,86.872487616539L49.248,95.39044238328934L49.532000000000004,102.28194136619568L49.804,88.28592331409455L49.844,106.87891758680344L49.856,87.71161360740662L49.916000000000004,75.06952185630799L50.048,81.81338257789612L50.775999999999996,78.92203648090363L51.156,90.49948401451111L51.196,73.48280973434449L51.336,89.67085624933243L51.967999999999996,97.67614324092865L52.268,93.74504311084748L52.724,80.1849534034729L52.888000000000005,87.36085934638977L53.455999999999996,103.69288910627365L53.476,90.52016217708588L53.512,88.49276859760285L53.884,94.80298204421997L53.996,107.30192340612412L54.036,85.45041568279267L54.408,104.38781435489655L54.544,87.64557398557663L54.784,88.05172641277314L55.516,101.38535894155503L55.632000000000005,94.26763619184494L55.716,84.54754705429077L55.744,76.904127907753L55.976,82.18784404993058L56.224000000000004,76.43045581579209L57.044,81.20815641880036L57.268,85.61691786050797L57.396,90.19650490283966L57.744,91.80378909111023L57.876,100.10273463726044L58.22,97.54719383716584L58.272000000000006,95.81870527267456L58.632,83.01483793258667L58.724000000000004,87.30956180095673L58.796,87.19861693382263L59.376,74.03969843387604L59.632,90.75351030826569L60.236,87.64069355726242L60.339999999999996,91.32853085994721L61.108000000000004,72.46005232334137L61.136,97.82616336345673L61.6,83.71258534193039L61.92,90.79658539295197L62.092,79.03729946613312L62.432,75.95994539260865L62.556,76.72271920442581L62.62,83.90922416448593L62.848,89.64653898477555L63.032,99.0927246928215L63.036,80.9561777830124L63.124,86.46553946733475L63.368,83.35089255571366L63.403999999999996,87.01624805927277L63.612,90.214504134655L63.623999999999995,92.62822605371476L63.775999999999996,91.05552394390106L63.868,85.6691755771637L63.892,83.59305198192597L63.9,97.94271541833878L64.084,80.14355463981629L64.41199999999999,76.78026051521302L64.488,89.32367743253708L64.524,89.3720838546753L64.79599999999999,94.81568176746369L64.804,83.00780375003815L65.044,81.44588632583618L65.67999999999999,96.56606860160828L65.892,103.87930555343628L65.97200000000001,97.12893052101136L66.096,79.3622086763382L66.13199999999999,88.29788036346436L66.268,93.3722526550293L66.596,83.05240662097931L66.744,83.6137407541275L67.04,76.98917467594147L67.496,100.84877706766129L67.88,90.84890146255493L67.89999999999999,84.63682706356049L68.044,89.11654568910599L68.16799999999999,95.84129316806793L68.556,87.90687317848206L68.66,91.42982627153397L68.74,92.4448970079422L69.164,102.13343311548233L69.624,89.92856938838959L69.836,82.74345428943634L70.688,93.7278342962265L71.512,94.20177162885666L71.76,83.89943678379059L72.072,80.54691673517227L72.13999999999999,89.668177318573L72.248,98.82117660045624L72.332,90.24025900363922L72.38,77.47930760383606L72.44,103.22169966697693L72.96,91.6234254360199L73.61200000000001,93.08991987705231L73.628,94.72849715948105L74.02,90.98757458925247L74.18799999999999,95.29698748588562L74.39200000000001,78.07549966573715L74.484,88.57386327981949L74.72,94.75630499124527L75.244,97.4819870710373L75.54,89.2781621336937L76.324,98.9444498538971L76.888,85.82058025598526L77.152,92.08384610414505L77.17999999999999,88.98482186794281L77.284,89.31791110038758L77.356,85.18381167650223L77.592,108.77772248983383L77.792,93.60421622991562L78.53200000000001,101.26400072574616L78.556,76.32648677825928L78.676,84.14856142997742L78.712,99.61786408424378L78.75200000000001,93.10459299087525L79.12,97.6217689037323L79.156,87.3306643486023L79.24,84.81328637599945L79.49600000000001,82.77184565067292L79.57199999999999,80.90414817333222L80.364,81.68401939868927L80.724,89.94193751811981L81.068,70.68988914489746L81.3,75.92753298282624L81.896,83.953646671772L81.904,90.71009571552277L82.032,88.58478058576584L82.156,86.61525721549988L82.964,102.60489840507508L83.06,87.35832364559174L83.096,76.94627995491028L83.316,87.3316881775856L83.976,102.75909872055054L84.384,92.47509200572968L84.468,98.8307093501091L85,100.86088265180588L85.288,80.54630137681961L85.37599999999999,89.36821134090424L85.444,101.36071808338166L85.628,88.71552832126618L86.024,79.21044327020645L86.792,95.20401532649994L87.236,104.20064992904663L87.24,88.06577355861664L87.432,92.0233128786087L87.6,97.42576665878296L88.268,106.93409295082093L88.392,91.2868827700615L88.52799999999999,78.14336414337158L88.96000000000001,95.79044122695923L89.092,90.20576710700989L89.172,83.8526483297348L89.268,87.19394869804383L89.27199999999999,88.16557831764221L89.284,93.97952116727829L89.36,89.40563679933548L89.62400000000001,91.35013736486435L89.77999999999999,89.53761525154114L89.82,86.55473990440369L90.176,109.96817035675049L90.232,93.99398208856583L90.348,103.70027340650559L90.38,95.17809600830078L90.496,88.7998854637146L90.892,96.88148750066757L91.816,96.42934234142304L91.928,89.97443480491638L92.07600000000001,95.39303643703461L92.21600000000001,81.79467250108719L92.264,78.349673640728L92.52,76.59728158712387L93.06,91.7914872288704L93.27600000000001,87.81142367124558L93.808,90.86229611635208L93.812,79.4730792760849L94.372,83.50661004781723L94.856,80.19124491214752L94.88399999999999,98.49145592451096L95.384,90.62077326774597L95.836,94.84057195186615L96.024,88.267287504673L96.196,77.80297548770905L96.46799999999999,85.64736218452454L96.68,83.89813179969788L97.088,85.30167402029038L98.104,90.98457736968994L98.128,88.51490027904511L98.56400000000001,82.7610556602478L98.61999999999999,95.62261284589768L98.928,89.64306433200836L98.952,76.64141763448715L99.29599999999999,97.45373363494873L99.388,99.62708384990692L99.668,87.41094739437104L99.756,83.67961062192917L99.888,92.51684619188309L99.984,90.10828585624695L100.14399999999999,81.36213923692704L100.21600000000001,98.28620738983155L100.24,100.14459491968155L100.25200000000001,89.27584393024445L100.556,101.52422834634781L100.56,102.13339598178864L100.74799999999999,92.52963609695435L100.87199999999999,92.96372367143631L100.98,88.6688088297844L100.99199999999999,94.54024524688721L101.01199999999999,93.0460437655449L101.296,79.54442901611328L101.34,90.48223276138306L101.536,105.34327490329743L101.764,85.25344796180725L101.944,87.2198627114296L102.108,87.69942314624787L102.16000000000001,97.3784052848816L102.164,81.69401366710663L102.252,99.04115129709244L102.31599999999999,91.1213354587555L102.75999999999999,80.58231575489044L102.84400000000001,82.39072133302689L103.11999999999999,90.66949797868729L103.132,96.65781534910202L103.136,96.71797723770142L103.328,108.12819583415985L103.424,90.54861719608307L103.952,80.01964480876923L104.324,97.76287163496018L104.58,96.88006050586701L104.84,86.51988728046418L104.932,100.18734641075135L105.268,87.33853138685227L105.28,78.61769933700562L105.3,93.53827209472657L105.568,90.54558814764023L105.64,95.8419085264206L105.94,98.7979786515236L106.096,97.18367089033127L106.728,93.32109303474427L106.9,89.88653404712677L107.184,83.59800137281418L107.288,107.55062366724015L107.372,101.68629570007325L107.396,98.34894741773606L108.028,83.66800899505616L108.984,79.07794494628907L109.036,99.47224695682526L109.17200000000001,77.72041137218476L109.324,102.2672152042389L109.436,75.96030081510544L109.892,89.41217232942581L110.032,90.3570869088173L110.18,79.78466279506684L110.544,78.35852737426758L111.06400000000001,85.67559440135956L111.364,89.17994881868363L111.724,102.00882835388184L111.73599999999999,80.66154844760895L112.33999999999999,88.1774717092514L112.556,95.05530549287796L112.596,89.35936821699143L112.732,94.79168809652329L112.772,84.5003660440445L112.876,83.19737656116486L113.056,90.21339012384415L113.14800000000001,86.16108561754227L113.448,103.28027011156082L113.524,90.69719971418381L113.712,101.98489303588867L114.164,89.03369511365891L114.36,86.92650122642517L114.684,86.65314419269562L114.728,105.680040371418L114.80799999999999,93.78086651563645L115.10000000000001,83.3207240819931L115.328,86.73244054317475L115.756,99.6360808134079L116.32,83.0100529909134L116.476,95.72267754077912L116.592,96.57920862436295L116.94,103.68893171548844L117.132,82.67398245334626L117.14,103.01700283288956L117.292,79.53454614877701L117.384,105.43679876327515L117.668,97.18966532945633L118.232,91.80559272766114L118.488,97.21452898979187L118.88,89.65064491033554L118.91199999999999,89.93559296131134L119.608,80.19534022808075L119.74000000000001,85.8537247300148L120.036,95.11045433282852L120.192,101.7018494129181L120.536,83.92772204875946L120.928,90.41780049800873L120.97999999999999,93.01636333465576L121.01599999999999,87.0735294342041L121.33200000000001,99.13718963861466L121.56800000000001,94.67684419155121L122.024,96.1367977976799L122.08399999999999,87.19611306190491L122.4,71.16644175052643L122.74799999999999,86.16272480487824L123.252,92.87023694515229L123.392,98.80311371088028L123.688,84.07016689777375L124.184,84.2003788471222L124.268,70.57813794612885L124.368,101.93989760875702L124.62400000000001,88.62802011966706L124.68,100.0447105884552L125.172,101.40685935020447L125.216,92.70042456388474L125.616,68.61280007362366L125.884,86.95130653381348L126.684,92.97913945913315L127.19200000000001,90.80740721225739L127.196,100.78739507198334L127.31200000000001,75.90205926895142L127.32000000000001,88.23044557571411L127.71600000000001,100.5236609697342L128.572,89.83690751791L128.596,92.07536901235581L128.62,86.25302864313126L128.636,95.5975476026535L128.64,78.18520320653916L129.1,89.88005156517029L130.024,99.77539582252503L130.416,93.4514853477478L130.45600000000002,97.67443509101868L130.484,102.17760629653931L130.55599999999998,98.46013630628586L130.96,95.43898142576218L131.304,95.36509068012238L131.668,94.18002189397812L131.676,92.68784685134888L131.804,88.77829487323761L131.876,98.96087355613709L133.00799999999998,86.10404295921326L133.112,103.96506316661835L133.28799999999998,106.48150218725205L133.756,80.09192289113999L133.808,92.49083669185639L134.17600000000002,93.15471286773682L134.292,66.60395212173462L134.448,95.32257790565491L135.88400000000001,104.75058932304383L135.988,81.87006450891495L136.076,89.59845615625382L136.152,89.01480997800827L136.252,98.74629385471344L136.316,96.92569781541825L136.364,97.97711713314057L136.808,113.54819263219834L137.056,82.66905958652497L137.888,95.00898386240006L137.916,87.20351858139038L137.952,96.92616994380951L138.15200000000002,99.2767804980278L138.164,88.80159361362458L138.248,85.44221974611283L138.37199999999999,92.37798209190369L138.448,87.52389748096466L138.992,85.81838936805725L139.316,88.40598715543747L139.32,88.40575904846192L139.456,94.17334843873978L140.00400000000002,88.56393266916275L140.024,97.99397583007813L140.128,84.43632103204727L140.312,96.97215206623078L140.372,83.8032127737999L140.7,95.1346336722374L140.872,86.8944283246994L140.976,104.09893013238907L141.14000000000001,84.8513484120369L141.312,82.90490097999573L141.84,98.7413179397583L141.884,84.00219101905823L142.29199999999997,72.49182815551758L142.45200000000003,96.76739687919617L142.828,90.22719324827194L142.884,85.30137695074082L142.956,86.99006350040436L144.212,93.51513780355454L144.424,98.15410692691803L145.62800000000001,90.53756196498871L145.776,89.06942303180695L146.78799999999998,90.72213764190674L146.892,107.38271040916443L147.23600000000002,97.08518172502518L147.496,78.32674623727799L147.524,106.44622517824173L147.556,92.37521297931671L147.748,94.27076072692871L147.78400000000002,84.59773058891297L148.02,81.96651132106781L148.072,96.03386850357056L148.7,77.22348828315735L148.832,88.36155934333802L149,97.01078171730042L149.74400000000003,93.64078761339188L150.12,91.03130216598511L150.172,96.55160768032074L150.448,90.64131350517273L150.632,99.00224579572678L150.828,80.33798135519028L151.05200000000002,91.22709221839905L151.58,95.4550390958786L151.61200000000002,91.58902372121811L152.012,84.63756973743439L152.06,107.97222901582718L152.14000000000001,95.42433483600617L152.612,103.07846440076828L152.71999999999997,89.2651759505272L152.728,78.27698178291321L153.08800000000002,87.95327968597412L153.36800000000002,91.05588467121125L153.476,82.92265088558197L153.504,91.81288154125214L153.616,112.23484284877777L154.16,101.24895627498627L154.52800000000002,91.24164862632752L154.916,94.40646846294403L154.952,89.5820430636406L155,101.75947560071945L155.07600000000002,95.48969013690949L155.144,85.73635573387146L155.35999999999999,95.2606495141983L155.408,96.0221395611763L155.50799999999998,92.51929171085358L155.656,92.39886714220047L156.072,88.43274993896485L156.148,93.08325703144074L156.17600000000002,85.09196413755417L156.35999999999999,109.85168726444245L156.56799999999998,97.15320004224778L156.57999999999998,102.6327751994133L156.72,91.07228184938431L157.448,80.89935262203217L157.452,104.43601388931275L157.536,102.56338293552399L157.756,93.58769173622132L158.104,105.66368563175202L158.108,86.06267071962357L158.26,95.48645420074463L158.4,82.27263618707657L158.43599999999998,60.39397842884064L159.136,86.08270699977875L159.516,93.03476042747498L160.32000000000002,102.00985748767853L160.464,98.43727786540985L160.712,86.97181494235993L161.02,85.34107286930085L161.336,94.86884660720825L161.42000000000002,92.40970487594605L161.452,97.05167652368546L161.504,89.67433090209961L161.512,92.67482353448868L161.928,102.00728995800019L161.936,96.75719041824341L162.284,79.44034327268601L162.296,89.60683776140213L163.08800000000002,92.68785746097565L163.116,102.81992901563645L163.38,87.95301444530487L163.39999999999998,84.80692059993744L163.816,80.44993944168091L163.88400000000001,92.57889659404755L164.152,99.3565118432045L164.232,94.98330326080323L164.66,94.79846234321595L164.928,94.0691565990448L164.988,97.89707280397415L165.052,95.52620316743851L165.104,96.31698639392853L165.244,80.37885494232178L165.34799999999998,84.3863443851471L166.28,72.1393498301506L166.52,95.66605926752091L166.64000000000001,80.14547498226166L166.71599999999998,97.57585574388504L167.072,94.4666780948639L167.228,90.4303410768509L167.24400000000003,92.67952890396118L167.28,88.72765512466431L167.404,97.12341351509095L167.632,86.4079822421074L168.216,83.82136054039002L168.68,90.73765952587128L168.812,86.10251517295838L169.248,97.31632305383683L169.82399999999998,103.5511444926262L169.96,96.03697712421418L171.05999999999997,94.76458580493927L171.232,95.60570640563965L171.508,98.58457661867142L172.772,86.86547465324402L172.992,54.64176769256592L173.052,90.93295092582703L173.464,82.4681132555008L173.76,92.5464258313179L173.824,91.60459334850312L173.868,85.71855278015137L174.00400000000002,98.19027514457703L174.324,75.84853370189667L174.56799999999998,98.11318559646607L174.572,101.9353036403656L174.804,95.03022964000702L174.88400000000001,102.45397115945816L175.05599999999998,85.23015452623368L175.364,83.64131517410279L175.928,93.23648656606674L176.02,76.17322010993958L176.02399999999997,79.8646912097931L176.568,78.81380767822266L176.952,88.59255744218827L177.188,99.08765859603882L177.23199999999997,88.32990021705628L178.368,98.26309431791306L178.81199999999998,95.16187919378281L178.924,82.72119529247284L179.12800000000001,90.2005630850792L179.516,84.6965592622757L179.64,95.35224242210388L179.66000000000003,92.07235057353974L179.728,105.52439714670182L180.084,104.60292984247208L180.89999999999998,93.38805038928986L181.188,86.64358491897583L181.60799999999998,92.36838037967682L181.95600000000002,83.13866819143296L182.00400000000002,107.14026982784272L182.132,97.59644902944565L182.244,96.10762662887574L182.592,97.44364387989044L182.632,79.71869213581085L182.656,88.30569435358048L182.672,85.25961215496064L182.79600000000002,96.72522361278534L182.804,95.11132432222367L182.85999999999999,78.80957443714142L182.88400000000001,98.71557898521424L183.176,84.08469678163529L184.16400000000002,111.23996753692627L184.516,90.56267495155335L184.62,95.59922392368317L184.98000000000002,102.40016443729401L185.088,87.90688909292221L185.368,91.03605527877808L185.64000000000001,98.31527246236801L185.968,100.14251543283463L186.16,106.44253302812577L186.224,97.89416046142578L186.44,96.19335771799088L187.09199999999998,94.88570530414582L187.124,98.43847144842148L187.38000000000002,92.90124357938767L187.488,92.20908744335175L188.02800000000002,81.98390580415726L188.056,84.26724601984024L188.12800000000001,86.89260877370835L188.54,85.929811668396L188.636,87.97247250080109L188.67600000000002,95.91722626686096L188.732,84.63712943792343L188.98,94.2785534977913L189.35999999999999,97.67391521930695L189.804,97.30526782274247L189.876,93.87348855733872L189.916,85.02341003417969L190,76.9361159324646L190.436,90.62589241266251L190.716,86.78458155393601L191.10799999999998,88.94762451648712L191.72799999999998,94.93987275362015L191.85999999999999,98.42576642036438L191.928,92.58912427425385L192.084,98.88399089574814L193.11599999999999,86.41477770805359L193.9,97.54448838233948L194.076,96.11787552833557L194.216,98.45542032718659L194.33599999999998,94.67937989234925L194.43200000000002,108.88608921766281L194.56,93.5743183016777L194.848,89.47040326595307L194.956,95.55292881727219L194.97199999999998,91.51924951076508L195.03199999999998,91.67284507751465L195.136,96.64034659862519L195.224,92.23084248304367L195.90800000000002,83.66851825714112L195.924,104.61385245323181L195.976,97.95649732351303L196.296,89.51594508886338L196.31199999999998,88.72657824754715L196.456,85.75117738246918L196.804,101.03919334411621L196.832,86.69170488119126L197.008,95.64598054885865L197.22000000000003,98.82779700756073L197.376,81.48257441520691L197.61999999999998,100.78288598060608L198.008,106.35428215265274L198.16,83.71195406913758L198.344,84.04506452083588L198.348,86.82245261669159L198.584,84.16415758132935L198.92,80.33551461696625L199.01600000000002,93.82426519393921L199.212,83.53265137672425L199.268,83.42882556915283L199.85999999999999,92.68797416687012L199.98,88.06247926950455L200.216,80.24846262931824L200.42,109.5452388048172L201.244,96.43562324047089L201.28,92.7289591550827L201.49200000000002,96.61340345144272L202.032,84.05005104541779L202.176,98.43379790782929L202.588,96.84979124069214L202.636,90.78204489946366L203.088,101.67561180591584L203.36,97.74411911964417L203.5,96.22865064144135L204.10000000000002,98.08596659898758L204.136,97.53846211433411L204.244,97.80130500793457L204.364,85.02303339242935L204.5,94.10142577886582L204.68,107.46569360494614L204.712,91.02938712835312L204.82399999999998,79.63015480041504L205.276,78.28870542049408L205.33999999999997,86.83978344202042L205.58800000000002,90.83560229539872L205.656,89.94347591400147L206,90.93907268047333L206.036,96.73272992372513L206.788,79.31482608318329L206.996,86.85182536840439L208.148,94.58871002197266L208.232,95.17397947311402L208.79600000000002,86.3814369559288L208.968,92.44646723270417L209.18,94.79937477111817L209.208,88.85502899885178L209.28799999999998,89.31505180597306L209.392,82.49275411367417L209.752,88.5115423321724L209.96,82.51023347377777L210.2,89.89511193037033L210.228,97.04592080116272L210.34400000000002,87.19269676208496L210.55599999999998,81.9630101442337L210.572,76.80260438919068L210.62400000000002,93.90501506328583L210.68,80.83952493667603L210.77599999999998,105.6057942032814L210.824,102.35753495693207L210.952,86.40665073394776L210.98,98.04609031677246L211.036,82.74298216104508L211.488,95.39079780578614L211.532,95.26654846668244L211.55599999999998,90.69758696556092L211.72,102.0532561659813L211.736,91.18150265216828L211.792,98.13240493535996L211.884,104.50408525466919L212.308,69.26394469738007L212.48000000000002,85.48695523738861L212.728,80.65818519592285L212.79199999999997,79.40682746171952L212.91199999999998,98.40080727338791L213.68800000000002,93.56186790466309L213.868,105.16564853191376L214.06,91.99804074764252L214.09199999999998,94.68400038480759L214.524,91.81284440755844L214.60399999999998,84.67190248966217L215.38,98.07867778539658L215.932,95.95588774681092L217.092,81.90346891880036L217.308,81.27224917411804L217.408,91.91678692102433L217.912,106.65983409881592L218.236,87.18086702823639L218.48,81.26166607141495L218.55599999999998,87.68375272750855L218.792,90.28518016338349L219.256,81.83416683673859L219.572,92.46527810096741L220.028,94.15059609413147L220.228,97.29012788534165L220.376,78.87598009109497L220.6,98.37325937747956L220.664,90.34732074737549L220.784,73.70814229249955L221.076,102.95388085842133L221.53199999999998,95.01652200222016L221.884,94.71549506187439L222.156,105.53605182170868L222.52,89.08119971752167L222.52800000000002,98.74126489162445L222.552,76.06263066530228L223.27999999999997,94.11606175899506L223.92,83.07211930751801L224.064,98.09529776573181L224.524,82.06321806907654L224.54,91.41899914741516L224.912,90.53819323778153L225.132,72.93094999790192L225.37199999999999,98.09023697376252L225.752,88.76511771678925L226.56799999999998,103.5364554643631L227.00400000000002,84.7920034646988L227.18,97.43777675628662L227.196,95.6180772304535L227.22799999999998,84.34980483055115L227.82,104.38085443973542L228.008,92.98612589836121L228.27200000000002,86.6339725971222L228.28,81.71761478185654L228.952,98.07472569942475L229.172,89.57941718101502L229.284,93.80864251852036L229.416,95.92009086608887L229.512,92.69948561191559L229.55200000000002,87.05681927204132L230.04399999999998,79.45668740272522L230.11599999999999,83.78166992664337L230.416,95.52227230072022L230.568,94.27750844955445L230.732,93.59401507377625L231.136,96.98692066669464L231.212,98.84648586511612L231.62800000000001,99.1504463672638L231.76000000000002,82.76713497638703L232.016,86.81432564258576L232.056,89.68688739538193L232.37199999999999,100.74776811599732L232.432,93.46138943433762L232.57999999999998,94.32604749202729L233.60799999999998,92.79258508682251L233.64,97.08020581007004L233.876,81.18465609550476L233.932,85.19699944257736L234.596,98.02272791862488L234.828,94.04614431858063L234.85600000000002,98.66146988868714L234.872,98.20179719924927L234.88799999999998,92.06541187763214L235.29999999999998,78.51917834281922L235.452,91.49088997840882L235.584,78.034148645401L235.628,99.3527613401413L236.09599999999998,98.18190414905548L236.292,83.95296235084534L236.352,88.25615270137787L236.43599999999998,94.4118952870369L236.49599999999998,105.34397513866425L236.736,75.22196097373963L236.968,99.06281615495682L237.476,87.60097641944886L237.868,92.87733478546143L238.36,89.20481247901917L238.504,67.82667977809906L238.592,102.29107625484467L238.768,97.20817912817002L238.82000000000002,101.7798089504242L238.88,86.90418918132782L239.23200000000003,94.40412373542786L239.456,100.58134551048279L239.75199999999998,82.90060408115387L239.932,89.75179178714752L240.776,107.21872271299362L241.2,101.6502866268158L241.212,88.51098002195359L241.316,73.48321290016175L241.44,89.48845554590226L242.156,92.8694518327713L242.17600000000002,88.18276591300965L242.20800000000003,97.23270328044892L242.85600000000002,98.56299133300782L243.06799999999998,82.66543109416962L243.184,98.56295419931412L243.484,85.40565366744995L243.85600000000002,97.44459874629975L243.868,90.27563680410385L244.368,90.88251276016236L245.22,89.4065863609314L245.352,96.95386106967926L245.52,96.02411295175553L245.648,106.8199015378952L245.732,97.63502032756806L245.98399999999998,90.50966925621033L246.032,105.51067889928818L246.088,94.37709040641785L246.11599999999999,87.9553061246872L246.12400000000002,89.36516107320786L246.436,99.25805450677872L247.15200000000002,85.8845138669014L247.284,84.53119231462479L247.428,85.87346394062043L247.55599999999998,99.09127117395401L248,105.99699766635895L248.148,95.04110450744629L248.952,95.41391618251801L249.048,94.78992159366608L249.20000000000002,94.35061938762665L249.224,111.73354328870774L249.31199999999998,84.711953830719L249.596,69.98580248355866L249.88,102.6684818983078L249.94,86.9796077132225L250.076,95.21732510328293L250.304,108.88330419063568L250.74800000000002,89.06410230398178L250.89999999999998,88.79738689661026L251.044,70.81980402469635L251.484,91.66173679828644L252.364,94.51123852729798L253.184,90.59999961853028L253.388,90.84715087413788L253.764,94.2227097272873L254.228,90.42226715087891L254.448,94.80761314630509L254.56799999999998,94.54862685203553L254.58399999999997,102.60277647972107L254.752,95.68182517290116L254.88,91.88537712097168L254.988,87.63659293651581L255.05599999999998,96.0977278470993L255.11599999999999,91.7766921043396L255.156,95.3544651389122L255.49200000000002,102.09877676963806L256.06,94.92384160757065L256.124,92.82271642684937L256.136,93.15477652549744L256.14799999999997,88.48649830818177L256.236,96.17649371623993L256.696,80.9718853354454L257.06,100.43861420154572L257.248,96.70617933273316L257.44,94.31092877388001L257.732,101.43418444395066L258.308,101.41585631370545L258.5,95.7663892030716L258.564,90.8591079235077L258.684,99.61005009412766L258.88,91.17156673669815L258.932,94.50828374624253L258.952,91.46425981521607L259.008,92.5221138715744L259.276,103.30433274507523L259.452,86.27299596071244L259.56,83.65333588123322L259.752,90.00503296852112" style="fill: none;" fill="none"></path></g></g></g></g></g></g><g transform="translate(50, 178)" clip-path="url(#clip_1)"><clipPath id="clip_1"><rect width="280" height="22"></rect></clipPath><g><g><line x1="0" y1="0" x2="0" y2="5" style="visibility: inherit;" fill="rgb(0, 0, 0)" stroke="rgb(204, 204, 204)" stroke-width="1px"></line><line x1="20" y1="0" x2="20" y2="5" style="visibility: inherit;" fill="rgb(0, 0, 0)" stroke="rgb(204, 204, 204)" stroke-width="1px"></line><line x1="40" y1="0" x2="40" y2="5" style="visibility: inherit;" fill="rgb(0, 0, 0)" stroke="rgb(204, 204, 204)" stroke-width="1px"></line><line x1="60" y1="0" x2="60" y2="5" style="visibility: inherit;" fill="rgb(0, 0, 0)" stroke="rgb(204, 204, 204)" stroke-width="1px"></line><line x1="80" y1="0" x2="80" y2="5" style="visibility: inherit;" fill="rgb(0, 0, 0)" stroke="rgb(204, 204, 204)" stroke-width="1px"></line><line x1="100" y1="0" x2="100" y2="5" style="visibility: inherit;" fill="rgb(0, 0, 0)" stroke="rgb(204, 204, 204)" stroke-width="1px"></line><line x1="120" y1="0" x2="120" y2="5" style="visibility: inherit;" fill="rgb(0, 0, 0)" stroke="rgb(204, 204, 204)" stroke-width="1px"></line><line x1="140" y1="0" x2="140" y2="5" style="visibility: inherit;" fill="rgb(0, 0, 0)" stroke="rgb(204, 204, 204)" stroke-width="1px"></line><line x1="160" y1="0" x2="160" y2="5" style="visibility: inherit;" fill="rgb(0, 0, 0)" stroke="rgb(204, 204, 204)" stroke-width="1px"></line><line x1="180" y1="0" x2="180" y2="5" style="visibility: inherit;" fill="rgb(0, 0, 0)" stroke="rgb(204, 204, 204)" stroke-width="1px"></line><line x1="200" y1="0" x2="200" y2="5" style="visibility: inherit;" fill="rgb(0, 0, 0)" stroke="rgb(204, 204, 204)" stroke-width="1px"></line><line x1="220" y1="0" x2="220" y2="5" style="visibility: inherit;" fill="rgb(0, 0, 0)" stroke="rgb(204, 204, 204)" stroke-width="1px"></line><line x1="240" y1="0" x2="240" y2="5" style="visibility: inherit;" fill="rgb(0, 0, 0)" stroke="rgb(204, 204, 204)" stroke-width="1px"></line><line x1="260" y1="0" x2="260" y2="5" style="visibility: inherit;" fill="rgb(0, 0, 0)" stroke="rgb(204, 204, 204)" stroke-width="1px"></line><line x1="280" y1="0" x2="280" y2="5" style="visibility: inherit;" fill="rgb(0, 0, 0)" stroke="rgb(204, 204, 204)" stroke-width="1px"></line></g><g transform="translate(0, 8)"><text x="0" y="0" dx="0em" dy="0.95em" style="text-anchor: middle; visibility: hidden; font-family: &quot;Helvetica Neue&quot;, sans-serif; font-size: 12px; font-weight: 200;" fill="rgb(50, 49, 63)" stroke="none" stroke-width="1px">-50k</text><text x="20" y="0" dx="0em" dy="0.95em" style="text-anchor: middle; visibility: inherit; font-family: &quot;Helvetica Neue&quot;, sans-serif; font-size: 12px; font-weight: 200;" fill="rgb(50, 49, 63)" stroke="none" stroke-width="1px">0</text><text x="40" y="0" dx="0em" dy="0.95em" style="text-anchor: middle; visibility: hidden; font-family: &quot;Helvetica Neue&quot;, sans-serif; font-size: 12px; font-weight: 200;" fill="rgb(50, 49, 63)" stroke="none" stroke-width="1px">50k</text><text x="60" y="0" dx="0em" dy="0.95em" style="text-anchor: middle; visibility: inherit; font-family: &quot;Helvetica Neue&quot;, sans-serif; font-size: 12px; font-weight: 200;" fill="rgb(50, 49, 63)" stroke="none" stroke-width="1px">100k</text><text x="80" y="0" dx="0em" dy="0.95em" style="text-anchor: middle; visibility: hidden; font-family: &quot;Helvetica Neue&quot;, sans-serif; font-size: 12px; font-weight: 200;" fill="rgb(50, 49, 63)" stroke="none" stroke-width="1px">150k</text><text x="100" y="0" dx="0em" dy="0.95em" style="text-anchor: middle; visibility: inherit; font-family: &quot;Helvetica Neue&quot;, sans-serif; font-size: 12px; font-weight: 200;" fill="rgb(50, 49, 63)" stroke="none" stroke-width="1px">200k</text><text x="120" y="0" dx="0em" dy="0.95em" style="text-anchor: middle; visibility: hidden; font-family: &quot;Helvetica Neue&quot;, sans-serif; font-size: 12px; font-weight: 200;" fill="rgb(50, 49, 63)" stroke="none" stroke-width="1px">250k</text><text x="140" y="0" dx="0em" dy="0.95em" style="text-anchor: middle; visibility: inherit; font-family: &quot;Helvetica Neue&quot;, sans-serif; font-size: 12px; font-weight: 200;" fill="rgb(50, 49, 63)" stroke="none" stroke-width="1px">300k</text><text x="160" y="0" dx="0em" dy="0.95em" style="text-anchor: middle; visibility: hidden; font-family: &quot;Helvetica Neue&quot;, sans-serif; font-size: 12px; font-weight: 200;" fill="rgb(50, 49, 63)" stroke="none" stroke-width="1px">350k</text><text x="180" y="0" dx="0em" dy="0.95em" style="text-anchor: middle; visibility: inherit; font-family: &quot;Helvetica Neue&quot;, sans-serif; font-size: 12px; font-weight: 200;" fill="rgb(50, 49, 63)" stroke="none" stroke-width="1px">400k</text><text x="200" y="0" dx="0em" dy="0.95em" style="text-anchor: middle; visibility: hidden; font-family: &quot;Helvetica Neue&quot;, sans-serif; font-size: 12px; font-weight: 200;" fill="rgb(50, 49, 63)" stroke="none" stroke-width="1px">450k</text><text x="220" y="0" dx="0em" dy="0.95em" style="text-anchor: middle; visibility: inherit; font-family: &quot;Helvetica Neue&quot;, sans-serif; font-size: 12px; font-weight: 200;" fill="rgb(50, 49, 63)" stroke="none" stroke-width="1px">500k</text><text x="240" y="0" dx="0em" dy="0.95em" style="text-anchor: middle; visibility: hidden; font-family: &quot;Helvetica Neue&quot;, sans-serif; font-size: 12px; font-weight: 200;" fill="rgb(50, 49, 63)" stroke="none" stroke-width="1px">550k</text><text x="260" y="0" dx="0em" dy="0.95em" style="text-anchor: middle; visibility: inherit; font-family: &quot;Helvetica Neue&quot;, sans-serif; font-size: 12px; font-weight: 200;" fill="rgb(50, 49, 63)" stroke="none" stroke-width="1px">600k</text><text x="280" y="0" dx="0em" dy="0.95em" style="text-anchor: middle; visibility: hidden; font-family: &quot;Helvetica Neue&quot;, sans-serif; font-size: 12px; font-weight: 200;" fill="rgb(50, 49, 63)" stroke="none" stroke-width="1px">650k</text></g><line x1="0" y1="0" x2="280" y2="0" fill="rgb(0, 0, 0)" stroke="rgb(204, 204, 204)" stroke-width="1px"></line></g></g></g></g></svg>