<svg viewBox="0 0 330 200" xmlns="http://www.w3.org/2000/svg"><g><g><g><g><g><line x1="50" y1="178" x2="45" y2="178" style="visibility: inherit;" fill="rgb(0, 0, 0)" stroke="rgb(204, 204, 204)" stroke-width="1px"></line><line x1="50" y1="155.75" x2="45" y2="155.75" style="visibility: inherit;" fill="rgb(0, 0, 0)" stroke="rgb(204, 204, 204)" stroke-width="1px"></line><line x1="50" y1="133.5" x2="45" y2="133.5" style="visibility: inherit;" fill="rgb(0, 0, 0)" stroke="rgb(204, 204, 204)" stroke-width="1px"></line><line x1="50" y1="111.24999999999999" x2="45" y2="111.24999999999999" style="visibility: inherit;" fill="rgb(0, 0, 0)" stroke="rgb(204, 204, 204)" stroke-width="1px"></line><line x1="50" y1="88.99999999999999" x2="45" y2="88.99999999999999" style="visibility: inherit;" fill="rgb(0, 0, 0)" stroke="rgb(204, 204, 204)" stroke-width="1px"></line><line x1="50" y1="66.75" x2="45" y2="66.75" style="visibility: inherit;" fill="rgb(0, 0, 0)" stroke="rgb(204, 204, 204)" stroke-width="1px"></line><line x1="50" y1="44.5" x2="45" y2="44.5" style="visibility: inherit;" fill="rgb(0, 0, 0)" stroke="rgb(204, 204, 204)" stroke-width="1px"></line><line x1="50" y1="22.25" x2="45" y2="22.25" style="visibility: inherit;" fill="rgb(0, 0, 0)" stroke="rgb(204, 204, 204)" stroke-width="1px"></line><line x1="50" y1="0" x2="45" y2="0" style="visibility: inherit;" fill="rgb(0, 0, 0)" stroke="rgb(204, 204, 204)" stroke-width="1px"></line></g><g transform="translate(40, 0)"><text x="0" y="178" dx="0em" dy="0.3em" style="text-anchor: end; visibility: hidden; font-family: &quot;Helvetica Neue&quot;, sans-serif; font-size: 12px; font-weight: 200;" fill="rgb(50, 49, 63)" stroke="none" stroke-width="1px">-0.2</text><text x="0" y="155.75" dx="0em" dy="0.3em" style="text-anchor: end; visibility: inherit; font-family: &quot;Helvetica Neue&quot;, sans-serif; font-size: 12px; font-weight: 200;" fill="rgb(50, 49, 63)" stroke="none" stroke-width="1px">0</text><text x="0" y="133.5" dx="0em" dy="0.3em" style="text-anchor: end; visibility: hidden; font-family: &quot;Helvetica Neue&quot;, sans-serif; font-size: 12px; font-weight: 200;" fill="rgb(50, 49, 63)" stroke="none" stroke-width="1px">0.2</text><text x="0" y="111.24999999999999" dx="0em" dy="0.3em" style="text-anchor: end; visibility: inherit; font-family: &quot;Helvetica Neue&quot;, sans-serif; font-size: 12px; font-weight: 200;" fill="rgb(50, 49, 63)" stroke="none" stroke-width="1px">0.4</text><text x="0" y="88.99999999999999" dx="0em" dy="0.3em" style="text-anchor: end; visibility: hidden; font-family: &quot;Helvetica Neue&quot;, sans-serif; font-size: 12px; font-weight: 200;" fill="rgb(50, 49, 63)" stroke="none" stroke-width="1px">0.6</text><text x="0" y="66.75" dx="0em" dy="0.3em" style="text-anchor: end; visibility: inherit; font-family: &quot;Helvetica Neue&quot;, sans-serif; font-size: 12px; font-weight: 200;" fill="rgb(50, 49, 63)" stroke="none" stroke-width="1px">0.8</text><text x="0" y="44.5" dx="0em" dy="0.3em" style="text-anchor: end; visibility: hidden; font-family: &quot;Helvetica Neue&quot;, sans-serif; font-size: 12px; font-weight: 200;" fill="rgb(50, 49, 63)" stroke="none" stroke-width="1px">1</text><text x="0" y="22.25" dx="0em" dy="0.3em" style="text-anchor: end; visibility: inherit; font-family: &quot;Helvetica Neue&quot;, sans-serif; font-size: 12px; font-weight: 200;" fill="rgb(50, 49, 63)" stroke="none" stroke-width="1px">1.2</text><text x="0" y="0" dx="0em" dy="0.3em" style="text-anchor: end; visibility: hidden; font-family: &quot;Helvetica Neue&quot;, sans-serif; font-size: 12px; font-weight: 200;" fill="rgb(50, 49, 63)" stroke="none" stroke-width="1px">1.4</text></g><line x1="50" y1="0" x2="50" y2="178" fill="rgb(0, 0, 0)" stroke="rgb(204, 204, 204)" stroke-width="1px"></line></g></g><g transform="translate(50, 0)" clip-path="url(#clip_0)"><clipPath id="clip_0"><rect width="280" height="178"></rect></clipPath><g><g><g><line x1="0" y1="0" x2="0" y2="178" fill="rgb(0, 0, 0)" stroke="rgb(60, 60, 60)" stroke-width="1px" opacity="0.25"></line><line x1="20" y1="0" x2="20" y2="178" fill="rgb(0, 0, 0)" stroke="rgb(60, 60, 60)" stroke-width="1px" opacity="0.25"></line><line x1="40" y1="0" x2="40" y2="178" fill="rgb(0, 0, 0)" stroke="rgb(60, 60, 60)" stroke-width="1px" opacity="0.25"></line><line x1="60" y1="0" x2="60" y2="178" fill="rgb(0, 0, 0)" stroke="rgb(60, 60, 60)" stroke-width="1px" opacity="0.25"></line><line x1="80" y1="0" x2="80" y2="178" fill="rgb(0, 0, 0)" stroke="rgb(60, 60, 60)" stroke-width="1px" opacity="0.25"></line><line x1="100" y1="0" x2="100" y2="178" fill="rgb(0, 0, 0)" stroke="rgb(60, 60, 60)" stroke-width="1px" opacity="0.25"></line><line x1="120" y1="0" x2="120" y2="178" fill="rgb(0, 0, 0)" stroke="rgb(60, 60, 60)" stroke-width="1px" opacity="0.25"></line><line x1="140" y1="0" x2="140" y2="178" fill="rgb(0, 0, 0)" stroke="rgb(60, 60, 60)" stroke-width="1px" opacity="0.25"></line><line x1="160" y1="0" x2="160" y2="178" fill="rgb(0, 0, 0)" stroke="rgb(60, 60, 60)" stroke-width="1px" opacity="0.25"></line><line x1="180" y1="0" x2="180" y2="178" fill="rgb(0, 0, 0)" stroke="rgb(60, 60, 60)" stroke-width="1px" opacity="0.25"></line><line x1="200" y1="0" x2="200" y2="178" fill="rgb(0, 0, 0)" stroke="rgb(60, 60, 60)" stroke-width="1px" opacity="0.25"></line><line x1="220" y1="0" x2="220" y2="178" fill="rgb(0, 0, 0)" stroke="rgb(60, 60, 60)" stroke-width="1px" opacity="0.25"></line><line x1="240" y1="0" x2="240" y2="178" fill="rgb(0, 0, 0)" stroke="rgb(60, 60, 60)" stroke-width="1px" opacity="0.25"></line><line x1="260" y1="0" x2="260" y2="178" fill="rgb(0, 0, 0)" stroke="rgb(60, 60, 60)" stroke-width="1px" opacity="0.25"></line><line x1="280" y1="0" x2="280" y2="178" fill="rgb(0, 0, 0)" stroke="rgb(60, 60, 60)" stroke-width="1px" opacity="0.25"></line></g><g><line x1="0" y1="178" x2="280" y2="178" fill="rgb(0, 0, 0)" stroke="rgb(60, 60, 60)" stroke-width="1px" opacity="0.25"></line><line x1="0" y1="155.75" x2="280" y2="155.75" fill="rgb(0, 0, 0)" stroke="rgb(60, 60, 60)" stroke-width="1px" opacity="0.25"></line><line x1="0" y1="133.5" x2="280" y2="133.5" fill="rgb(0, 0, 0)" stroke="rgb(60, 60, 60)" stroke-width="1px" opacity="0.25"></line><line x1="0" y1="111.24999999999999" x2="280" y2="111.24999999999999" fill="rgb(0, 0, 0)" stroke="rgb(60, 60, 60)" stroke-width="1px" opacity="0.25"></line><line x1="0" y1="88.99999999999999" x2="280" y2="88.99999999999999" fill="rgb(0, 0, 0)" stroke="rgb(60, 60, 60)" stroke-width="1px" opacity="0.25"></line><line x1="0" y1="66.75" x2="280" y2="66.75" fill="rgb(0, 0, 0)" stroke="rgb(60, 60, 60)" stroke-width="1px" opacity="0.25"></line><line x1="0" y1="44.5" x2="280" y2="44.5" fill="rgb(0, 0, 0)" stroke="rgb(60, 60, 60)" stroke-width="1px" opacity="0.25"></line><line x1="0" y1="22.25" x2="280" y2="22.25" fill="rgb(0, 0, 0)" stroke="rgb(60, 60, 60)" stroke-width="1px" opacity="0.25"></line><line x1="0" y1="0" x2="280" y2="0" fill="rgb(0, 0, 0)" stroke="rgb(60, 60, 60)" stroke-width="1px" opacity="0.25"></line></g></g></g><g><g><line x1="0" y1="155.75" x2="280" y2="155.75" fill="rgb(0, 0, 0)" stroke="rgb(153, 153, 153)" stroke-width="1.5px"></line></g></g><g><g><line x1="20" y1="0" x2="20" y2="178" fill="rgb(0, 0, 0)" stroke="rgb(153, 153, 153)" stroke-width="1.5px"></line></g></g><g><g><g><g><g><path stroke="rgb(0, 153, 136)" stroke-width="2px" d="M20.172,37.56347906589508L20.183999999999997,45.67560916713302L20.288,30.773736197214845L20.38,47.58018253207794L20.671999999999997,51.81493910873952L20.92,58.5477721479579L20.94,62.30058000713461L21.024,57.38657699510365L21.096,55.80233374079921L21.236,66.88091387949476L21.244,71.06254135860299L21.276,76.04448848046877L21.9,85.52851653368262L22.148,81.39413141738852L22.32,90.2503380213976L22.348,82.41582517442616L22.54,89.72564922731921L22.592000000000002,83.76409168288582L22.86,87.18044970682551L22.892000000000003,83.50281548827978L23.212,79.51751501726764L23.236,79.32939186904578L23.348,79.68707506170706L23.888,79.15905231147381L24.06,80.71178782265729L24.267999999999997,80.10372626294475L24.42,85.5042037438721L24.724,93.10410156837101L25.048000000000002,83.05358622663697L25.267999999999997,90.80827145157548L25.28,74.5162000412798L25.336,89.933448620841L25.352,75.25218477575078L25.543999999999997,78.2109800476953L25.572,91.41658453838542L25.748,92.73449154872303L25.868,86.59895860226392L26.212,76.24132013249968L26.34,77.19411224694481L26.768,87.86664397943588L26.939999999999998,79.92863256008853L26.952,77.19395163167091L27.38,77.41017188830602L27.512,76.68875547926993L27.672,85.4930395709728L27.792,94.9220262915792L28.148,83.386440053618L28.388,68.97752809227947L28.752,81.05524828315356L28.8,83.19144872141115L28.928,84.32108160977457L29.052,85.43796341170825L29.232000000000003,90.22452428360764L29.56,80.57480929263424L29.747999999999998,85.43754837301567L29.816,88.12648493801431L29.824,82.78304174246342L29.844,78.64446737945855L29.944,87.06555983555627L29.948,91.72326937966471L29.996000000000002,91.52887867352534L30.016000000000002,88.65827341660328L30.132,83.04882383459595L30.744,82.6806204532138L30.964,85.03435305017439L31.872,93.93993722601019L32.156,94.02512433212314L32.168,90.08524410955633L32.647999999999996,98.17211437138924L32.924,90.5785580363393L32.988,84.16027581439495L32.992000000000004,93.80555510271023L33.224000000000004,96.49430757363014L33.924,90.44285676320145L34.476,90.61549865480163L34.484,81.33701005588331L34.684000000000005,84.35573984984698L34.967999999999996,82.34995113434053L35.26,92.76290367890063L35.288000000000004,84.46409807641768L35.716,87.83764429505453L35.827999999999996,83.31262914584393L36.147999999999996,82.3811320115976L36.396,90.14264621634693L36.788,86.749676421481L36.931999999999995,91.38798726506933L37.272,89.35301477077765L37.604,85.32126124645536L37.972,84.77832054672746L38.040000000000006,87.95528455507002L38.124,82.81571774952111L38.66,90.21865046927331L38.676,83.61379283133743L38.708,96.55368012125729L39.156,99.47970122073268L39.211999999999996,97.53872520913352L39.364,96.35000757451719L39.58,96.15852166245725L39.888000000000005,101.1847274210268L40.204,98.57406013235305L40.212,80.23901657670679L40.428,84.23022403085209L40.540000000000006,91.22069961533535L41.38399999999999,98.4513968763971L41.44,91.68609325938318L41.684,96.70311434707202L42.2,90.16515350993933L42.72,88.55065325759436L42.896,88.40832238540087L43.236000000000004,89.91657920438065L43.46,94.3463897089482L43.488,100.79812412928821L43.632,94.76274198679639L43.964,94.79515182232265L44.528,104.85522807242633L44.804,93.51424854935073L44.879999999999995,93.31541299796446L45.16,82.6560544489874L45.251999999999995,90.7960535364967L45.508,82.01836914132521L46.083999999999996,85.01837028388374L46.300000000000004,89.981869270699L46.416,95.20515720160674L46.788,101.83654510224608L46.800000000000004,92.690225839594L46.848,96.23713199495435L47.419999999999995,98.41878497481011L47.868,97.72044424962864L47.972,85.31154340605683L48.46,94.2349991414974L48.624,92.79085933224479L49.248,98.75690689009873L49.532000000000004,103.67818987696347L49.804,96.09180847537111L49.844,104.92528653733567L49.856,96.39890200731213L49.916000000000004,89.94815699194693L50.048,89.73863313569555L50.775999999999996,90.05976254432969L51.156,93.19515626704523L51.196,85.77932966878346L51.336,91.37832577975723L51.967999999999996,99.0922748032297L52.268,99.41390407216888L52.724,93.59565176122322L52.888000000000005,91.21816067120605L53.455999999999996,102.82802603133986L53.476,98.58389262155082L53.512,97.2360426308528L53.884,98.82123770005764L53.996,107.8358181379726L54.036,99.40814730972012L54.408,104.83966417044385L54.544,99.68569036793703L54.784,94.93754839687345L55.516,101.4246008000326L55.632000000000005,101.43668318297671L55.716,95.97965640328808L55.744,88.51991971036783L55.976,88.99048104962107L56.224000000000004,84.34884805711269L57.044,87.41501659048461L57.268,89.8054223920618L57.396,94.11779293281693L57.744,95.19262035434586L57.876,100.23660307474988L58.22,103.32955676654201L58.272000000000006,101.12125001386491L58.632,93.00487394148384L58.724000000000004,94.0654235105287L58.796,93.88901247364565L59.376,83.46948257796876L59.632,91.60728071019217L60.236,94.38164461904829L60.339999999999996,94.98224745593097L61.108000000000004,86.23546896239769L61.136,97.27752093567709L61.6,93.73006160396045L61.92,94.54407673413634L62.092,90.47936220202877L62.432,87.41225275291615L62.556,84.80678080874131L62.62,88.91485498292225L62.848,93.9662694342652L63.032,100.63814466030276L63.036,91.49382464719166L63.124,92.54364374034544L63.368,90.22695209881839L63.403999999999996,94.32925046702694L63.612,96.64226447232751L63.623999999999995,100.6726598300067L63.775999999999996,99.75436230927815L63.868,94.12296823036715L63.892,89.93873972444551L63.9,99.44474956839807L64.084,94.31952060043623L64.41199999999999,89.25579105329437L64.488,93.84133671228855L64.524,94.88086342813477L64.79599999999999,98.92406439483923L64.804,93.03376731753652L65.044,90.67571488213659L65.67999999999999,98.73669715302037L65.892,106.04154058129328L65.97200000000001,103.97712179851825L66.096,92.75810289614319L66.13199999999999,96.30585531386899L66.268,98.38798766530817L66.596,93.57962513247038L66.744,92.74288228563032L67.04,87.52976470455152L67.496,99.76063678419442L67.88,99.6224728584522L67.89999999999999,93.24188175440764L68.044,94.39449515200033L68.16799999999999,99.9738373205319L68.556,95.17103157521305L68.66,96.17621674669192L68.74,97.93492124490899L69.164,104.75235696241442L69.624,100.00071408790423L69.836,95.34563337938813L70.688,99.55371272087824L71.512,101.11975648808769L71.76,91.9052730373871L72.072,88.19871131270453L72.13999999999999,94.05110779082507L72.248,101.7283830644716L72.332,99.37371239670233L72.38,91.37543308678514L72.44,102.07919112719395L72.96,98.6474108045391L73.61200000000001,99.81065476765599L73.628,100.76901950570094L74.02,97.85399423492808L74.18799999999999,101.22183704655511L74.39200000000001,94.11786137931006L74.484,94.5968906657396L74.72,99.53548148280373L75.244,101.60687591584917L75.54,98.54780849398135L76.324,102.35889171642444L76.888,97.04128743939552L77.152,97.00727709028303L77.17999999999999,96.29744006551576L77.284,97.21333468499688L77.356,93.83297180153095L77.592,104.97673564609751L77.792,103.2503572263593L78.53200000000001,106.05261965426898L78.556,95.33789580298699L78.676,91.75893762999074L78.712,99.7503102910252L78.75200000000001,99.16791188286669L79.12,103.35011554486326L79.156,98.76189419915981L79.24,95.98420423682812L79.49600000000001,92.31080790029479L79.57199999999999,87.42890004879838L80.364,89.29139715459587L80.724,95.1558565498457L81.068,86.8665888935751L81.3,83.8728508484533L81.896,86.42227927077495L81.904,91.1298998782185L82.032,93.57397987998115L82.156,94.46497366848226L82.964,102.40908978987787L83.06,99.4847738508743L83.096,93.76401093857932L83.316,95.22360019488113L83.976,101.15523882698209L84.384,100.06783439116155L84.468,103.4879488031923L85,105.84444044603342L85.288,92.53956890731429L85.37599999999999,95.58355900001277L85.444,103.33593847494025L85.628,98.46823566214522L86.024,92.36830922884259L86.792,99.3781044495007L87.236,105.70847349214158L87.24,100.18135764140925L87.432,99.69942425067838L87.6,101.02599056015654L88.268,108.09388914237518L88.392,102.46968314162929L88.52799999999999,91.75409547731097L88.96000000000001,99.18426023769304L89.092,98.28486603934736L89.172,95.06964402075279L89.268,95.52702589700884L89.27199999999999,96.08691216258315L89.284,98.9277675822302L89.36,96.36107216775116L89.62400000000001,97.86212829649327L89.77999999999999,96.936889070868L89.82,91.94446810924987L90.176,106.67966956881277L90.232,102.35471215044495L90.348,107.00127136387442L90.38,104.56686938426103L90.496,98.29182755001862L90.892,100.6250663138369L91.816,102.3966907620207L91.928,99.00748559176029L92.07600000000001,101.28079718386769L92.21600000000001,92.93583110585071L92.264,88.42194260602894L92.52,87.27863082566142L93.06,95.48275210371922L93.27600000000001,94.7353020147932L93.808,96.64017354494143L93.812,91.58013455786629L94.372,93.59267745700805L94.856,92.07438926314246L94.88399999999999,97.259942137857L95.384,97.18308400557825L95.836,99.17567482370688L96.024,95.79636817188484L96.196,89.80614321137038L96.46799999999999,92.48852216086614L96.68,93.14665192219347L97.088,94.62397270144118L98.104,97.09821983969645L98.128,94.54573034861262L98.56400000000001,93.33581821170877L98.61999999999999,97.70323914407663L98.928,97.46519939648695L98.952,92.4732654275401L99.29599999999999,99.04505320020134L99.388,101.75057537606403L99.668,96.42962118586318L99.756,93.89343595942026L99.888,96.93490017231373L99.984,97.84893643568384L100.14399999999999,92.48692801479667L100.21600000000001,100.2696658055352L100.24,104.18008034151262L100.25200000000001,101.06176032213952L100.556,106.16787269597683L100.56,106.30200320138707L100.74799999999999,102.23099456888107L100.87199999999999,101.7886505759226L100.98,98.4718138292021L100.99199999999999,100.67949526218918L101.01199999999999,101.6158971243435L101.296,92.27431219730114L101.34,96.53644692863357L101.536,104.67287513599926L101.764,98.2895301669285L101.944,94.09169737754047L102.108,94.75969353221966L102.16000000000001,99.52388309201842L102.164,93.77162977858879L102.252,101.25665894520083L102.31599999999999,99.35477412490764L102.75999999999999,91.36137264370409L102.84400000000001,89.64786649405754L103.11999999999999,94.40490815007604L103.132,99.23978933081592L103.136,101.42225175404774L103.328,108.823702128447L103.424,102.0764399654535L103.952,94.12160822299589L104.324,99.94947070746609L104.58,103.42137470739677L104.84,98.5572155084117L104.932,103.42388708157951L105.268,97.26812034552738L105.28,91.33921889545697L105.3,96.43631701601417L105.568,97.38750374489177L105.64,99.86417478242774L105.94,103.41845460800035L106.096,104.40327735917847L106.728,101.41826645106902L106.9,99.32305519211623L107.184,94.30245688529146L107.288,105.62767171699339L107.372,107.98203286762448L107.396,107.23328581545914L108.028,96.78510474302037L108.984,90.94768690124218L109.036,100.61374736350801L109.17200000000001,92.88165992705831L109.324,101.86099606686356L109.436,91.87313170108605L109.892,93.78184141267698L110.032,96.18366518934313L110.18,92.75440831907488L110.544,88.99766014686386L111.06400000000001,90.49089800187413L111.364,94.84840534177805L111.724,103.3559305843607L111.73599999999999,95.59702780055584L112.33999999999999,95.96113168878388L112.556,99.53190690451078L112.596,98.16432040104553L112.732,99.16476617423407L112.772,94.62104805575893L112.876,92.30430094904537L113.056,94.15335101487968L113.14800000000001,93.38495449961317L113.448,102.33924703693823L113.524,99.21350098111803L113.712,104.7840599942548L114.164,99.10542476786547L114.36,94.38975934331962L114.684,94.54952521481253L114.728,105.38040572944537L114.80799999999999,103.0430856920014L115.10000000000001,96.5430868318371L115.328,95.19897931121557L115.756,102.0997018667172L116.32,95.87383859761997L116.476,100.80302809241788L116.592,101.8188010531202L116.94,106.72990935752928L117.132,97.6875081140206L117.14,104.89212422682466L117.292,96.02735927050756L117.384,106.00210502334613L117.668,105.68358441725643L118.232,102.02241054588664L118.488,103.24548809990924L118.88,94.69847612983244L118.91199999999999,96.29240965905292L119.608,92.18962835396331L119.74000000000001,92.27851494203011L120.036,98.38489934126537L120.192,104.0189408975641L120.536,96.67287769984404L120.928,96.50634605614819L120.97999999999999,99.0033945418536L121.01599999999999,97.35444895534275L121.33200000000001,102.72178060852907L121.56800000000001,100.34703489658602L122.024,101.35620618419793L122.08399999999999,96.59292744619428L122.4,85.65844294934581L122.74799999999999,90.05132937633637L123.252,95.70729102573252L123.392,102.06186907293977L123.688,92.45901900948118L124.184,90.5844223754447L124.268,84.63817287213965L124.368,99.09952598503178L124.62400000000001,95.97871653016782L124.68,103.06646204154242L125.172,105.3169651693525L125.216,103.01554709340819L125.616,86.66287853882983L125.884,91.89562427527217L126.684,95.99726416876517L127.19200000000001,98.38256473823628L127.196,103.35194198184904L127.31200000000001,91.75787996110795L127.32000000000001,94.49517382227373L127.71600000000001,102.77979181376294L128.572,100.5103660242446L128.596,100.44340730375797L128.62,96.00469937887488L128.636,100.69831080572484L128.64,93.67964499825906L129.1,96.23500284705428L130.024,99.57776179970847L130.416,100.24594764286894L130.45600000000002,103.82958839932925L130.484,106.02639872769453L130.55599999999998,106.59519709424153L130.96,103.10903209805875L131.304,102.61314114475404L131.668,102.18817109284463L131.676,101.97630621211792L131.804,97.37524704224691L131.876,100.7746846242222L133.00799999999998,96.46857282274854L133.112,104.28163891038851L133.28799999999998,109.73592376908285L133.756,96.20144373854247L133.808,96.75050201388298L134.17600000000002,99.68811277199623L134.292,83.65642857213352L134.448,95.75187082453382L135.88400000000001,104.04909903651004L135.988,93.48839833476353L136.076,94.95680878415986L136.152,95.12773185116164L136.252,101.20260069625422L136.316,104.65081777317064L136.364,104.40183457391555L136.808,111.9213232831442L137.056,98.93939137404297L137.888,101.98683523066892L137.916,97.90598392358642L137.952,102.62282070168342L138.15200000000002,103.63124541798626L138.164,98.24206146243966L138.248,93.90886675573888L138.37199999999999,96.12798385027051L138.448,95.14947956384421L138.992,91.98530891967297L139.316,94.35687402360628L139.32,95.07862778493956L139.456,98.64899825052102L140.00400000000002,99.30902404684097L140.024,102.88008884776937L140.128,96.71409817214531L140.312,100.68330058078257L140.372,95.21591328231608L140.7,100.40605929999793L140.872,95.71138081156909L140.976,104.79266238293528L141.14000000000001,95.45110671254587L141.312,90.41390467299061L141.84,98.66301219557934L141.884,93.09530221976921L142.29199999999997,83.8766465944373L142.45200000000003,95.86235164005849L142.828,97.22294797559299L142.884,95.68903514965264L142.956,96.18082337468421L144.212,97.26260831808867L144.424,101.33861508014131L145.62800000000001,99.05700569964381L145.776,98.29899460521112L146.78799999999998,99.21936792014745L146.892,106.94841927241765L147.23600000000002,105.4124886376718L147.496,92.73799647919571L147.524,104.64674090805545L147.556,102.57058231170134L147.748,100.84527576420767L147.78400000000002,94.88559952856723L148.02,91.92456003320862L148.072,99.26229709850806L148.7,91.74280031509026L148.832,93.6603059847626L149,99.03827857094895L149.74400000000003,98.97045355684715L150.12,97.1948000327633L150.172,101.3421588921899L150.448,98.89713037349202L150.632,102.26620200559464L150.828,90.85128715151535L151.05200000000002,96.25341037318701L151.58,100.34591263246772L151.61200000000002,98.62352441732976L152.012,95.42952484979189L152.06,105.37686704384866L152.14000000000001,103.32862149889301L152.612,106.95096793458873L152.71999999999997,102.1022044646184L152.728,92.65876204083126L153.08800000000002,94.36962298873965L153.36800000000002,96.00238842894198L153.476,92.76553595514916L153.504,97.2433761853052L153.616,109.13691732627444L154.16,107.78998223977204L154.52800000000002,101.40462086016699L154.916,101.39322985575502L154.952,98.15123867935301L155,103.59288870521928L155.07600000000002,103.98936341843424L155.144,96.16076832469867L155.35999999999999,100.16076001159972L155.408,102.41777042302539L155.50799999999998,99.84972271920464L155.656,100.11603928000218L156.072,97.82777089631752L156.148,99.29039123358804L156.17600000000002,94.42394789339096L156.35999999999999,107.36521394265093L156.56799999999998,106.11156641130604L156.57999999999998,107.69522729440513L156.72,102.86049199968171L157.448,94.59125022935706L157.452,104.51410092700652L157.536,108.67445917244409L157.756,104.07523980961503L158.104,107.95213434786105L158.108,100.98586176014147L158.26,102.95685525109847L158.4,96.36933136828931L158.43599999999998,81.27008056381621L159.136,87.57187341646065L159.516,95.73720177459998L160.32000000000002,103.26111625511759L160.464,105.25877430589719L160.712,98.26692334831446L161.02,94.80787966656958L161.336,97.73423474831691L161.42000000000002,97.43491908829732L161.452,100.90484996704785L161.504,97.62121400462998L161.512,98.03138101787334L161.928,103.9263889101782L161.936,103.74096414526853L162.284,93.13884501787246L162.296,93.76726700616764L163.08800000000002,96.73439522784108L163.116,102.91186972986122L163.38,95.54677865914687L163.39999999999998,94.05624111994975L163.816,90.40160888832756L163.88400000000001,97.253459532666L164.152,102.68767502192965L164.232,100.11758091761394L164.66,101.91077366506548L164.928,100.69448010339532L164.988,103.71848725711979L165.052,104.19127938970198L165.104,103.77817592352339L165.244,94.1805811299074L165.34799999999998,91.75412483506155L166.28,87.16739956733683L166.52,95.95712008206885L166.64000000000001,92.12948681962028L166.71599999999998,99.738695276485L167.072,101.15992336778089L167.228,98.2141799720456L167.24400000000003,99.1888676501246L167.28,97.81944512692817L167.404,102.37257247613957L167.632,96.95909107107755L168.216,92.17231967003679L168.68,95.18708905459059L168.812,93.65214428854232L169.248,99.14499858837225L169.82399999999998,106.46719677625455L169.96,104.21585416596474L171.05999999999997,102.20935503910519L171.232,102.47464018372908L171.508,105.94992079459912L172.772,99.16641238281441L172.992,77.59314815083866L173.052,90.6554909562259L173.464,90.74168320259209L173.76,96.61307743444347L173.824,97.28239711326084L173.868,95.13276528994926L174.00400000000002,101.19086399547531L174.324,91.29335079738406L174.56799999999998,99.25933193275891L174.572,104.34978967551217L174.804,101.97387526638836L174.88400000000001,105.21705400231492L175.05599999999998,98.58441857708698L175.364,91.82288060074332L175.928,97.33569454147529L176.02,88.5086039562786L176.02399999999997,85.00624661285735L176.568,82.10602814014376L176.952,89.6432181032722L177.188,99.87652010002631L177.23199999999997,97.1847491782065L178.368,101.92918892189486L178.81199999999998,101.76405551427452L178.924,96.50508849976002L179.12800000000001,96.00330203138803L179.516,93.28425062641706L179.64,98.00066020715319L179.66000000000003,98.75096683056387L179.728,107.37379860073817L180.084,109.18082367307143L180.89999999999998,104.47162349095423L181.188,97.65151882000953L181.60799999999998,97.52890952161228L181.95600000000002,93.7607088813435L182.00400000000002,105.31498456961913L182.132,105.34413753387135L182.244,104.84732241009394L182.592,103.99779124488322L182.632,90.42641483815466L182.656,93.80378951061547L182.672,92.18907152087999L182.79600000000002,99.20988231886034L182.804,100.1546416103387L182.85999999999999,89.25604250906086L182.88400000000001,98.80724989574423L183.176,96.86360418777176L184.16400000000002,108.52784833006267L184.516,101.45713574167968L184.62,103.85778868238879L184.98000000000002,105.01922429667215L185.088,96.13010424501219L185.368,97.98217503180709L185.64000000000001,101.54120402415833L185.968,105.14051653148826L186.16,109.34528798193571L186.224,106.56403757465218L186.44,105.24998898439539L187.09199999999998,102.53615988794141L187.124,104.48989442588159L187.38000000000002,101.54177155435589L187.488,98.77608348167144L188.02800000000002,93.098027243162L188.056,94.92148277717621L188.12800000000001,94.89202867669975L188.54,94.16335720806566L188.636,93.94742651080786L188.67600000000002,98.94038453467965L188.732,93.2443741968007L188.98,99.25708305083636L189.35999999999999,103.2457627996521L189.804,103.54349565534658L189.876,102.53556793194558L189.916,97.75716911558925L190,91.57465235413954L190.436,95.36597113419313L190.716,92.54596489115053L191.10799999999998,95.97305711286661L191.72799999999998,100.50524979502914L191.85999999999999,102.72493377644204L191.928,101.10028528995666L192.084,104.01367899259866L193.11599999999999,99.051135537946L193.9,102.61992356694687L194.076,102.77490422931093L194.216,104.3220718356243L194.33599999999998,104.31205192515337L194.43200000000002,110.20014660481247L194.56,105.32662402559768L194.848,98.01221452243907L194.956,101.12914773360006L194.97199999999998,100.37146545165822L195.03199999999998,98.54938707635421L195.136,101.76499348336704L195.224,99.59076039276222L195.90800000000002,95.49240521701851L195.924,105.50408048475852L195.976,105.31884055254885L196.296,99.2127142207544L196.31199999999998,95.67698541409655L196.456,94.52610174765938L196.804,102.18787378748557L196.832,98.69510517390688L197.008,101.97877872783788L197.22000000000003,103.71114406456093L197.376,95.79056855626719L197.61999999999998,103.7341346724344L198.008,109.16382441157151L198.16,99.89304277691862L198.344,94.51129093326576L198.348,94.5939165455399L198.584,92.33736026395549L198.92,90.63165929360862L199.01600000000002,94.5908492483444L199.212,94.5646164855459L199.268,93.77096980178749L199.85999999999999,96.84619524524368L199.98,95.33067448515001L200.216,92.27000992627265L200.42,105.48774046850728L201.244,103.32894754867763L201.28,100.4753654468497L201.49200000000002,100.99507988019546L202.032,94.51394145100818L202.176,99.94244150036374L202.588,103.42851949617784L202.636,100.092793155255L203.088,106.02411892405829L203.36,104.3133838450578L203.5,103.20628491394389L204.10000000000002,104.13898013672299L204.136,103.8805573260429L204.244,102.83480866007575L204.364,96.07406171163943L204.5,99.00048681100618L204.68,107.7586899166322L204.712,103.35807042380239L204.82399999999998,94.62538014872894L205.276,88.7274332007727L205.33999999999997,92.7472514047607L205.58800000000002,95.2449033134931L205.656,97.25075930451369L206,98.47598816194142L206.036,101.50015590384804L206.788,92.34026025551638L206.996,94.29807400233776L208.148,97.8657371591617L208.232,98.89214843376831L208.79600000000002,96.40538169091685L208.968,97.89009304799931L209.18,100.58193049314934L209.208,97.82011046303636L209.28799999999998,96.74018908458284L209.392,91.14447407192918L209.752,92.80880267527473L209.96,88.24909930668979L210.2,94.1288135826298L210.228,98.87131676046883L210.34400000000002,95.52318313407434L210.55599999999998,93.49784225399308L210.572,87.76393328378603L210.62400000000002,95.34972590861717L210.68,91.90211734437149L210.77599999999998,102.6738882283894L210.824,106.53923022580258L210.952,99.346005924869L210.98,102.14661048385638L211.036,97.06569919301326L211.488,100.05325637435219L211.532,101.16129091700039L211.55599999999998,97.56790446468243L211.72,104.60595606854774L211.736,100.54725257393208L211.792,103.49926422868762L211.884,107.81122504456677L212.308,91.89040636235012L212.48000000000002,93.1513779489737L212.728,90.33322138303683L212.79199999999997,88.14016869947976L212.91199999999998,96.47606171632077L213.68800000000002,98.92997042522536L213.868,106.5746991353659L214.06,101.69362440476529L214.09199999999998,102.39107611385866L214.524,99.76757722341172L214.60399999999998,97.87797877785823L215.38,102.16297267167671L215.932,103.08589921658795L217.092,94.58386555518928L217.308,91.46916985295702L217.408,95.3996183982789L217.912,105.61287531251905L218.236,99.43139675555706L218.48,95.87887529551219L218.55599999999998,95.93923452305488L218.792,95.695044838618L219.256,92.05378014772364L219.572,95.65585413348367L220.028,99.86815165190573L220.228,103.08237276458215L220.376,94.78082449230938L220.6,100.69245638795053L220.664,98.41487689951005L220.784,88.06611659482695L221.076,100.58272322905292L221.53199999999998,101.73362526850792L221.884,101.97926845771826L222.156,107.75280208735765L222.52,100.7741344892943L222.52800000000002,103.40802144652463L222.552,91.37059448518694L223.27999999999997,98.69327875766493L223.92,92.99489375270737L224.064,99.95275427129798L224.524,94.489031611788L224.54,95.07864692167747L224.912,96.81483484846873L225.132,87.83619898276538L225.37199999999999,97.45837499237858L225.752,98.48587177708468L226.56799999999998,104.44730204051622L227.00400000000002,96.96115748467402L227.18,101.48974795145732L227.196,102.0486440936841L227.22799999999998,98.17307245652349L227.82,106.57598333774197L228.008,102.74367949949973L228.27200000000002,98.92065013284393L228.28,92.97414680455091L228.952,101.13555187238836L229.172,99.34688526790772L229.284,98.59795055846942L229.416,102.35249874268203L229.512,100.63033691157591L229.55200000000002,94.67259492619709L230.04399999999998,87.57496061580927L230.11599999999999,88.91361851258098L230.416,98.40491496478724L230.568,100.84879962982815L230.732,100.82476626885764L231.136,102.93785278122756L231.212,104.54582671670568L231.62800000000001,105.9304123678742L231.76000000000002,98.55279004013292L232.016,95.47095226123236L232.056,96.37255841940363L232.37199999999999,103.82770114868768L232.432,102.83269985955907L232.57999999999998,101.54032173233014L233.60799999999998,100.18183875770083L233.64,101.15505192852302L233.876,94.08828671147937L233.932,93.72434819587276L234.596,100.71399412939233L234.828,100.17106860534064L234.85600000000002,102.68294240099473L234.872,103.19743963306063L234.88799999999998,100.78517386903331L235.29999999999998,91.03479238386936L235.452,94.97421634708239L235.584,90.01458978857355L235.628,99.63787442378504L236.09599999999998,101.35832356485643L236.292,95.406095644128L236.352,95.05604618401989L236.43599999999998,98.21799820805258L236.49599999999998,105.9429177632716L236.736,91.6136654879962L236.968,99.9901734651651L237.476,98.07785737162932L237.868,98.41399534800094L238.36,97.5043240130283L238.504,84.1846728718415L238.592,99.26132287616072L238.768,101.62596825126623L238.82000000000002,106.01241497243966L238.88,98.47649361608634L239.23200000000003,99.24658292102102L239.456,104.11325233555746L239.75199999999998,96.06302779069308L239.932,96.80031814833787L240.776,107.04583149566373L241.2,108.80815111612924L241.212,100.40836210455754L241.316,88.82236787043516L241.44,93.52343647226694L242.156,98.17931442576648L242.17600000000002,97.0339438403368L242.20800000000003,102.08983083107948L242.85600000000002,103.45027621105861L243.06799999999998,93.37797907895067L243.184,99.74984312417594L243.484,96.31597669864689L243.85600000000002,101.61907886443532L243.868,97.60103798102536L244.368,98.5716187723128L245.22,97.30227461726061L245.352,101.08435387122866L245.52,101.27717824859712L245.648,108.20362443261659L245.732,106.0168070546123L245.98399999999998,101.35683051253686L246.032,107.4211991360002L246.088,103.90404305925819L246.11599999999999,99.80151517220678L246.12400000000002,97.48795181921459L246.436,102.74980816855563L247.15200000000002,97.1733685845714L247.284,93.59330392637179L247.428,91.83347640338869L247.55599999999998,100.33317049951683L248,107.94572378391555L248.148,105.38743384210082L248.952,104.46270782213533L249.048,103.14258409623751L249.20000000000002,103.21582591964582L249.224,111.19109917455427L249.31199999999998,98.45300233075425L249.596,87.38467634204787L249.88,99.17827036871022L249.94,97.95449337320925L250.076,100.33678308708429L250.304,109.73264566742561L250.74800000000002,96.78828644129906L250.89999999999998,96.79797387768139L251.044,86.98817352314515L251.484,96.02634606404987L252.364,100.16617492097174L253.184,99.52067550821128L253.388,98.75541780810761L253.764,100.2173055854289L254.228,98.56499171542518L254.448,101.71351963246818L254.56799999999998,101.19773070053242L254.58399999999997,105.7084253501335L254.752,103.12052461490785L254.88,99.5648472248942L254.988,96.76662968752504L255.05599999999998,99.2068121116667L255.11599999999999,98.36384268924829L255.156,100.82161454737279L255.49200000000002,105.78878800374305L256.06,103.53030740540042L256.124,100.7060183676911L256.136,99.87640135061075L256.14799999999997,98.8074135902378L256.236,101.64122637551438L256.696,92.66006049291855L257.06,102.17146856994059L257.248,103.42101020926485L257.44,101.10276742801766L257.732,104.02605465114395L258.308,106.2819915997397L258.5,102.71252208600087L258.564,99.64471939364927L258.684,103.72729809794765L258.88,101.68662628914491L258.932,101.8581887484017L258.952,99.578345659392L259.008,98.89014158070758L259.276,105.64948810208111L259.452,97.69755813903916L259.56,92.738466824799L259.752,95.79643343218534" style="fill: none;" fill="none"></path></g></g></g></g><g opacity="0.2"><g><g><g><path stroke="rgb(0, 153, 136)" stroke-width="2px" d="M20.172,37.56347906589508L20.183999999999997,48.92046120762825L20.288,22.42868733406067L20.38,58.0674050450325L20.671999999999997,54.56583698093891L20.92,62.9903647005558L20.94,64.79220424592495L21.024,54.115942388772964L21.096,54.74686373770237L21.236,74.26469784975052L21.244,73.85000069439411L21.276,79.36564725637436L21.9,91.85109582543373L22.148,78.63789317011833L22.32,96.15445990860462L22.348,77.19282221794128L22.54,94.5988631695509L22.592000000000002,79.78972066938877L22.86,89.45802156627178L22.892000000000003,81.051059409976L23.212,76.86064806580544L23.236,79.20397643744946L23.348,79.92553052306175L23.888,78.80703714489937L24.06,81.74694482982159L24.267999999999997,79.69835188984871L24.42,89.1045220643282L24.724,98.17070011794567L25.048000000000002,76.35324266552925L25.267999999999997,95.97806160151958L25.28,63.6548191010952L25.336,100.21161434054375L25.352,65.46467554569244L25.543999999999997,80.18351022899151L25.572,100.2203208655119L25.748,93.61309622228146L25.868,82.50860330462456L26.212,69.33622781932354L26.34,77.82930698990822L26.768,94.98166513442993L26.939999999999998,74.63662494719028L26.952,75.37083101272583L27.38,77.55431872606277L27.512,76.20781120657921L27.672,91.36256229877472L27.792,101.20801743865013L28.148,75.69604922831059L28.388,59.37158678472042L28.752,89.10706174373627L28.8,84.6155823469162L28.928,85.07417020201683L29.052,86.18255127966404L29.232000000000003,93.41556486487389L29.56,74.14166596531868L29.747999999999998,88.67937442660332L29.816,89.9191093146801L29.824,79.22074627876282L29.844,75.88541780412197L29.944,92.67962147295475L29.948,94.828409075737L29.996000000000002,91.39928486943245L30.016000000000002,86.74453657865524L30.132,79.30919077992439L30.744,82.43515153229237L30.964,86.60350811481476L31.872,99.87699334323406L32.156,94.08191573619843L32.168,87.4586572945118L32.647999999999996,103.5633612126112L32.924,85.51618714630604L32.988,79.8814209997654L32.992000000000004,100.23574129492044L33.224000000000004,98.28680922091007L33.924,86.40855622291565L34.476,90.73059324920177L34.484,75.15135098993778L34.684000000000005,86.36822637915611L34.967999999999996,81.01275865733624L35.26,99.70487204194069L35.288000000000004,78.93156100809574L35.716,90.0866751074791L35.827999999999996,80.29595237970352L36.147999999999996,81.76013392210007L36.396,95.31698901951313L36.788,84.48769655823708L36.931999999999995,94.48019449412823L37.272,87.99636644124985L37.604,82.63342556357384L37.972,84.41636008024216L38.040000000000006,90.07326056063175L38.124,79.38933987915516L38.66,95.15393894910812L38.676,79.21055440604687L38.708,105.18027164787054L39.156,101.43038195371628L39.211999999999996,96.24474120140076L39.364,95.55752915143967L39.58,96.03086438775063L39.888000000000005,104.53553126007318L40.204,96.83361527323723L40.212,68.01565420627594L40.428,86.89102900028229L40.540000000000006,95.88101667165756L41.38399999999999,103.27186171710491L41.44,87.17589084804058L41.684,100.04779507219791L42.2,85.80651295185089L42.72,87.47431975603104L42.896,88.31343513727188L43.236000000000004,90.92208375036716L43.46,97.29959671199322L43.488,105.0992804095149L43.632,90.73915389180183L43.964,94.81675837934017L44.528,111.56194557249546L44.804,85.95359553396702L44.879999999999995,93.18285596370697L45.16,75.54981541633606L45.251999999999995,96.22271959483624L45.508,76.16657954454422L46.083999999999996,87.01837104558945L46.300000000000004,93.2908685952425L46.416,98.68734915554523L46.788,106.25747036933899L46.800000000000004,86.59267966449261L46.848,98.60173609852791L47.419999999999995,99.87322029471397L47.868,97.25488376617432L47.972,77.03894284367561L48.46,100.18396963179111L48.624,91.82809945940971L49.248,102.73427192866802L49.532000000000004,106.95904520154L49.804,91.03422087430954L49.844,110.81427191197872L49.856,90.71464565396309L49.916000000000004,85.64766031503677L50.048,89.5989505648613L50.775999999999996,90.27384881675243L51.156,95.28541874885559L51.196,80.83544526994228L51.336,95.11098985373974L51.967999999999996,104.23490748554468L52.268,99.628323584795L52.724,89.71681688725948L52.888000000000005,89.63316661119461L53.455999999999996,110.56793627142906L53.476,95.75447034835815L53.512,96.33747597038746L53.884,99.87803441286087L53.996,113.8455384299159L54.036,93.78970009088516L54.408,108.46067541092634L54.544,96.24970783293247L54.784,91.7721204161644L55.516,105.74930240213871L55.632000000000005,101.44473810493946L55.716,92.34163855016232L55.744,83.5467619150877L55.976,89.30418860912323L56.224000000000004,81.25442606210709L57.044,89.4591289460659L57.268,91.39902625977993L57.396,96.99270662665367L57.744,95.9091719686985L57.876,103.59925822168589L58.22,105.39152589440346L58.272000000000006,99.64904551208019L58.632,87.59395655989647L58.724000000000004,94.77245655655861L58.796,93.77140511572361L59.376,76.52312931418419L59.632,97.03247946500778L60.236,96.23122055828571L60.339999999999996,95.38264934718609L61.108000000000004,80.40428330004215L61.136,104.63888891786337L61.6,91.36508871614933L61.92,95.08675348758698L62.092,87.76955251395702L62.432,85.36751312017441L62.556,83.06979951262474L62.62,91.65357109904289L62.848,97.33387906849384L63.032,105.08606147766113L63.036,85.39761130511761L63.124,93.24352313578129L63.368,88.68249100446701L63.403999999999996,97.06411604583263L63.612,98.18427380919456L63.623999999999995,103.35959006845951L63.775999999999996,99.14216396212578L63.868,90.36870551109314L63.892,87.1492540538311L63.9,105.78208946436644L64.084,90.90270128846169L64.41199999999999,85.87997135519981L64.488,96.898367151618L64.524,95.57388123869896L64.79599999999999,101.61953170597553L64.804,89.10690259933472L65.044,89.10367992520332L65.67999999999999,104.11068533360958L65.892,110.9114362001419L65.97200000000001,102.60084261000156L66.096,85.27875696122646L66.13199999999999,98.67102359235287L66.268,99.77607589960098L66.596,90.37405011057854L66.744,92.18505372107029L67.04,84.05435298383236L67.496,107.91455150395632L67.88,99.53036357462406L67.89999999999999,88.98815435171127L68.044,95.16290408372879L68.16799999999999,103.69339876621962L68.556,91.96916107833385L68.66,96.84634019434452L68.74,99.10739091038704L69.164,109.29731410741806L69.624,96.8329521715641L69.836,92.24224624037743L70.688,102.3590989485383L71.512,102.16378566622734L71.76,85.76228407025337L72.072,85.72767016291618L72.13999999999999,97.95270544290543L72.248,106.84656658023596L72.332,97.80393195152283L72.38,86.04324688017368L72.44,109.21502982079983L72.96,96.35955725610256L73.61200000000001,100.58615074306726L73.628,101.40792933106422L74.02,95.91064405441284L74.18799999999999,103.46706558763981L74.39200000000001,89.3818776011467L74.484,94.9162435233593L74.72,102.82787536084652L75.244,102.98780553787947L75.54,96.50843021273613L76.324,104.89961386471987L76.888,93.49621792137623L77.152,96.98460352420807L77.17999999999999,95.82421538233757L77.284,97.82393109798431L77.356,91.579396545887L77.592,112.40591154247522L77.792,102.09943827986717L78.53200000000001,107.9207946062088L78.556,88.19474656879902L78.676,89.37296551465988L78.712,105.07789206504822L78.75200000000001,98.77964627742767L79.12,106.13825131952763L79.156,95.70307996869087L79.24,94.13241092860699L79.49600000000001,89.86187700927258L79.57199999999999,84.17429481446743L80.364,90.5330618917942L80.724,99.06549614667892L81.068,81.34041045606136L81.3,81.87702548503876L81.896,88.12189821898937L81.904,94.2683136165142L82.032,95.20336654782295L82.156,95.05896952748299L82.964,107.70516720414162L83.06,97.53522989153862L83.096,89.95016899704933L83.316,96.19665969908237L83.976,105.10966458171606L84.384,99.34289810061455L84.468,105.76802507787943L85,107.41543487459421L85.288,83.66965454816818L85.37599999999999,97.61288572847843L85.444,108.50419145822525L85.628,95.22310045361519L86.024,88.30169160664082L86.792,104.05130126327276L87.236,109.92871952056885L87.24,96.49661374092102L87.432,99.37813532352448L87.6,101.9103680998087L88.268,112.80582153052092L88.392,98.72021247446537L88.52799999999999,84.61037036776543L88.96000000000001,104.13770341128111L89.092,97.68526990711689L89.172,92.92616267502308L89.268,95.83194714784622L89.27199999999999,96.460169672966L89.284,100.82167119532824L89.36,94.64994189143181L89.62400000000001,98.86283238232136L89.77999999999999,96.32006292045116L89.82,88.61618746817112L90.176,116.50313720852137L90.232,99.47140720486641L90.348,110.09897750616074L90.38,102.94393473118544L90.496,94.1084663271904L90.892,102.18055882304907L91.816,103.5777737274766L91.928,96.74801547825336L92.07600000000001,102.79633824527264L92.21600000000001,87.3725203871727L92.264,85.41268360614777L92.52,86.51642297208309L93.06,100.95216628909111L93.27600000000001,94.23700195550919L93.808,97.9100878983736L93.812,88.20677523314953L94.372,94.93437272310257L94.856,91.06219713389874L94.88399999999999,100.7169773876667L95.384,97.13184525072575L95.836,100.50406870245934L96.024,93.54349707067013L96.196,85.81265990436077L96.46799999999999,94.2767747938633L96.68,93.5854050964117L97.088,95.60885322093964L98.104,98.74771793186665L98.128,92.84407068789005L98.56400000000001,92.52921012043953L98.61999999999999,100.61485309898853L98.928,97.30650623142719L98.952,89.14530944824219L99.29599999999999,103.42624504864216L99.388,103.55425682663918L99.668,92.88231839239597L99.756,92.20264580845833L99.888,98.96254298090935L99.984,98.45829394459724L100.14399999999999,88.91225573420525L100.21600000000001,105.45815766602755L100.24,106.78702336549759L100.25200000000001,98.98288030922413L100.556,109.57194761186838L100.56,106.39142353832722L100.74799999999999,99.5169888138771L100.87199999999999,101.49375458061695L100.98,96.26058933138847L100.99199999999999,102.15128288418055L101.01199999999999,102.24016503244638L101.296,86.04658891260624L101.34,99.37787008285522L101.536,110.09716060757637L101.764,94.03396685421467L101.944,91.29314218461514L102.108,95.20502430200577L102.16000000000001,102.70000946521759L102.164,89.93679423630238L102.252,106.24667838960886L102.31599999999999,98.08685091137886L102.75999999999999,86.03243832290173L102.84400000000001,88.50552906095982L103.11999999999999,97.5762692540884L103.132,102.4630434513092L103.136,102.87722670286894L103.328,113.75800237804651L103.424,97.57826519012451L103.952,88.8183870613575L104.324,103.83471236377954L104.58,105.73597737401724L104.84,95.31444270908833L104.932,106.66833479702473L105.268,93.16427585482597L105.28,87.38661792874336L105.3,99.83438242971897L105.568,98.02162823081017L105.64,101.51528880745173L105.94,105.78797449171543L106.096,105.0598258599639L106.728,99.42825917899609L106.9,97.92624768614769L107.184,90.9553913474083L107.288,113.177814938128L107.372,109.55160696804523L107.396,106.73412111401558L108.028,89.8196506947279L108.984,87.0560750067234L109.036,107.05778767168522L109.17200000000001,87.7269349694252L109.324,107.84722016006708L109.436,85.21455545723438L109.892,95.05431455373764L110.032,97.78488104045391L110.18,90.46823707222939L110.544,86.49316136538982L111.06400000000001,91.48638990521431L111.364,97.75341023504734L111.724,109.0276140794158L111.73599999999999,90.42442594468594L112.33999999999999,96.20386761426926L112.556,101.91242371499538L112.596,97.25259606540203L112.732,99.83173002302647L112.772,91.59190264344215L112.876,90.75980287790298L113.056,95.38605105876923L113.14800000000001,92.87269015610218L113.448,108.30877539515495L113.524,97.12967027723789L113.712,108.49776600301266L114.164,95.31966795027256L114.36,91.2459823936224L114.684,94.65603579580784L114.728,112.60099273920059L114.80799999999999,101.48487233370543L115.10000000000001,92.20975425839424L115.328,94.3029076308012L115.756,106.70018357038498L116.32,91.72326308488846L116.476,104.08915442228317L116.592,102.49598302692175L116.94,110.00398156046867L117.132,91.65924061834812L117.14,109.69520163536072L117.292,90.1175159662962L117.384,112.65193552523851L117.668,105.47123734652996L118.232,99.58162796497345L118.488,104.06087313592434L118.88,89.00046814978123L118.91199999999999,97.35503201186657L119.608,89.4544408172369L119.74000000000001,92.33777266740799L120.036,102.45582227408886L120.192,107.77496860176325L120.536,91.77550223469734L120.928,96.39532496035099L120.97999999999999,100.66809353232384L121.01599999999999,96.25515189766884L121.33200000000001,106.3000017106533L121.56800000000001,98.763871088624L122.024,102.02898704260588L122.08399999999999,93.41740828752518L122.4,78.36878661811352L122.74799999999999,92.97992032766342L123.252,99.47793212532997L123.392,106.29825443774462L123.688,86.05711896717548L124.184,89.33469128608704L124.268,80.67400653660297L124.368,108.7404280602932L124.62400000000001,93.89817689359188L124.68,107.79162571579218L125.172,106.81730058789253L125.216,101.48126837611198L125.616,75.76109950244427L125.884,95.38412143290043L126.684,98.73169076442719L127.19200000000001,99.97276511788368L127.196,106.66486014425755L127.31200000000001,84.0285052806139L127.32000000000001,96.32003639638424L127.71600000000001,108.30287047475576L128.572,98.99741549789906L128.596,100.39876815676689L128.62,93.04556076228619L128.636,103.8273850902915L128.64,89.00053445994854L129.1,97.9385747462511L130.024,101.80626776814461L130.416,100.69140487164259L130.45600000000002,106.21868223696947L130.484,107.49093894660473L130.55599999999998,106.97439600527287L130.96,100.78492210060358L131.304,102.28254717588425L131.668,101.90485772490501L131.676,101.83506295830011L131.804,94.30787426233292L131.876,103.0409763455391L133.00799999999998,93.59783162176609L133.112,109.49034963548183L133.28799999999998,113.37211367487907L133.756,87.17845705151558L133.808,97.11654086411L134.17600000000002,101.64651994407177L134.292,72.9686391055584L134.448,103.81549899280071L135.88400000000001,109.58058451116085L135.988,86.44793120026588L136.076,95.9357490837574L136.152,95.24168056249619L136.252,105.25251325964928L136.316,106.9496291577816L136.364,104.23584577441216L136.808,116.93431575596333L137.056,90.28477010130882L137.888,104.01846446841955L137.916,95.18541638553143L137.952,105.76737855374813L138.15200000000002,104.30352856218815L138.164,94.64927215874195L138.248,91.02007028460503L138.37199999999999,97.60739524662495L138.448,94.49714337289333L138.992,89.87586182355881L139.316,95.93791742622852L139.32,95.55979695916176L139.456,101.0292452275753L140.00400000000002,99.74904124438763L140.024,105.26079871505499L140.128,92.60343772172928L140.312,103.3294355198741L140.372,91.57098841667175L140.7,103.86615664511919L140.872,92.5815951526165L140.976,110.84685009717941L141.14000000000001,89.22340293228626L141.312,87.05576997995377L141.84,104.16241721063852L141.884,89.38349556922913L142.29199999999997,77.73087617754936L142.45200000000003,103.85282167047262L142.828,98.13001219928265L142.884,94.66642659902573L142.956,96.50868219137192L144.212,97.98379828035831L144.424,104.05595292150974L145.62800000000001,97.53593277931213L145.776,97.79365387558937L146.78799999999998,99.83295013010502L146.892,112.10112017393112L147.23600000000002,104.38853488117456L147.496,84.28833504021168L147.524,112.5859038606286L147.556,101.18647658079863L147.748,99.69507139921188L147.78400000000002,90.9124820381403L148.02,89.95053370296955L148.072,104.15412180870771L148.7,86.72980245947838L148.832,94.9386430978775L149,102.62359362840652L149.74400000000003,98.92523688077927L150.12,96.01103101670742L150.172,104.10706479847431L150.448,97.26711136102676L150.632,104.51224976032972L150.828,83.2413439154625L151.05200000000002,99.85482585430145L151.58,103.0742474719882L151.61200000000002,97.47526560723782L152.012,93.30019180476665L152.06,112.00842850655317L152.14000000000001,101.96312446892262L152.612,109.36586555838585L152.71999999999997,98.86969548463821L152.728,86.3631337583065L153.08800000000002,95.51019695401192L153.36800000000002,97.0908987224102L153.476,90.60763430595398L153.504,100.22860300540924L153.616,117.06594475358725L154.16,106.89202551543713L154.52800000000002,97.14771327376366L154.916,101.38563585281372L154.952,95.98991122841835L155,107.22065538913012L155.07600000000002,104.25367989391088L155.144,90.94170492887497L155.35999999999999,102.82742113620043L155.408,103.92244403064251L155.50799999999998,98.13769091665745L155.656,100.29358365386724L156.072,96.30225864052773L156.148,100.26547145843506L156.17600000000002,91.17965233325958L156.35999999999999,115.99272464215755L156.56799999999998,105.27580139040947L156.57999999999998,108.7510012164712L156.72,99.63733513653278L157.448,89.07842238247395L157.452,111.12933472543955L157.536,111.4480313360691L157.756,101.009093567729L158.104,110.53673070669174L158.108,96.34168003499508L158.26,104.27085091173649L158.4,91.97764877974987L158.43599999999998,71.20391336083412L159.136,91.77306865155697L159.516,101.18075401335955L160.32000000000002,108.27705924212933L160.464,106.59054633975029L160.712,93.60568937659264L161.02,92.50185054540634L161.336,99.68513813614845L161.42000000000002,97.23537531495094L161.452,103.21813721954823L161.504,95.43212336301804L161.512,98.30482569336891L161.928,107.85639417171478L161.936,103.61734763532877L162.284,86.07076559960842L162.296,94.18621499836445L163.08800000000002,98.71248070895672L163.116,107.03018606454134L163.38,90.6367179453373L163.39999999999998,93.06254942715168L163.816,87.96518740057945L163.88400000000001,101.82135996222496L164.152,106.31048534810543L164.232,98.40418484807014L164.66,103.10623549669981L164.928,99.8836177289486L164.988,105.73449202626944L165.052,104.5064741447568L165.104,103.50277361273766L165.244,87.78218460083008L165.34799999999998,90.13648730516434L166.28,84.10958272218704L166.52,101.81693375855684L166.64000000000001,89.57773131132126L166.71599999999998,104.81150091439486L167.072,102.10740876197815L167.228,96.2503510415554L167.24400000000003,99.83865943551064L167.28,96.90649677813053L167.404,105.40799070894718L167.632,93.35010346770287L168.216,88.9811387360096L168.68,97.19693531095982L168.812,92.62884777784348L169.248,102.80690145492554L169.82399999999998,111.34866223484278L169.96,102.71495909243822L171.05999999999997,100.87168895453215L171.232,102.65149694681168L171.508,108.26677453517914L172.772,94.64407344162464L172.992,63.210971996188164L173.052,99.36371949315071L173.464,90.79914470016956L173.76,100.5273402556777L173.824,97.72861023247242L173.868,93.69967740774155L174.00400000000002,105.22959646582603L174.324,84.69500866532326L174.56799999999998,104.56998602300882L174.572,107.743428170681L174.804,100.38993232697248L174.88400000000001,107.3791731595993L175.05599999999998,94.162661626935L175.364,87.3151886165142L175.928,101.01090383529663L176.02,82.62387689948082L176.02399999999997,82.6713417172432L176.568,80.17254915833473L176.952,94.6680114120245L177.188,106.69872143119574L177.23199999999997,95.39023523032665L178.368,105.09214875102043L178.81199999999998,101.65396657586098L178.924,92.9991104900837L179.12800000000001,95.66877771914005L179.516,91.47154968976974L179.64,101.14493326097727L179.66000000000003,99.251171246171L179.728,113.12235311418772L180.084,110.38550705462694L180.89999999999998,101.33215670287609L181.188,93.10478237271309L181.60799999999998,97.44716998934746L181.95600000000002,91.24857512116432L182.00400000000002,113.01783502846956L182.132,105.36357284337282L182.244,104.51611232757568L182.592,103.43143713474274L182.632,81.3788305670023L182.656,96.05537262558937L182.672,91.11259286105633L182.79600000000002,103.89042285084724L182.804,100.78448113799095L182.85999999999999,81.99030977487564L182.88400000000001,105.17472148686647L183.176,95.56784038245678L184.16400000000002,116.30401109158993L184.516,96.74332734942436L184.62,105.45822397619486L184.98000000000002,105.7935147061944L185.088,90.20402421057224L185.368,99.21688888967037L185.64000000000001,103.91389001905918L185.968,107.54005820304155L186.16,112.1484689489007L186.224,104.70987063646317L186.44,104.37395659089088L187.09199999999998,100.72694049030542L187.124,105.79238411784172L187.38000000000002,99.5763563066721L187.488,96.93229143321514L188.02800000000002,89.31265641748905L188.056,96.13711979985237L188.12800000000001,94.87239260971546L188.54,93.67757622897625L188.636,93.803472712636L188.67600000000002,102.26902321726084L188.732,89.44703397154808L188.98,103.26555562019348L189.35999999999999,105.90488263219595L189.804,103.74198422580957L189.876,101.86361611634493L189.916,94.57156990468502L190,87.4529745131731L190.436,97.89351698756218L190.716,90.66596072912216L191.10799999999998,98.25778526067734L191.72799999999998,103.52671158313751L191.85999999999999,104.20472309738398L191.928,100.01718629896641L192.084,105.95594146102667L193.11599999999999,95.74277323484421L193.9,104.99911558628082L194.076,102.878224670887L194.216,105.35351690649986L194.33599999999998,104.30537198483944L194.43200000000002,114.12554305791855L194.56,102.07760897278786L194.848,93.13594152033329L194.956,103.2071032077074L194.97199999999998,99.86634393036366L195.03199999999998,97.33466815948486L195.136,103.90873108804226L195.224,98.14127166569233L195.90800000000002,92.76016843318939L195.924,112.17853066325188L195.976,105.19534726440907L196.296,95.14196333289146L196.31199999999998,93.31983287632465L196.456,93.7588459700346L196.804,107.29572181403637L196.832,96.36659276485443L197.008,104.16789443045855L197.22000000000003,104.86605428904295L197.376,90.51018488407135L197.61999999999998,109.02984541654587L198.008,112.78361757099628L198.16,93.71252168715L198.344,90.92345637083054L198.348,94.64900028705597L198.584,90.83298940956593L198.92,89.49452531337738L199.01600000000002,97.23030921816826L199.212,94.54712797701359L199.268,93.2418720126152L199.85999999999999,98.89634554088116L199.98,94.32032731175423L200.216,90.22956688702106L200.42,114.29956082999706L201.244,101.8897522687912L201.28,98.57297737896442L201.49200000000002,101.34155616909266L202.032,90.19318249821663L202.176,103.5614415332675L202.588,105.75257149338722L202.636,97.86897559463978L203.088,109.97833610326052L203.36,103.17289379239082L203.5,102.46821895986795L204.10000000000002,104.76077695190907L204.136,103.7082754522562L204.244,102.13764288276434L204.364,91.56689707934856L204.5,100.95143687725067L204.68,113.59749198704958L204.712,100.42432409524918L204.82399999999998,88.80358663201332L205.276,84.79546856880188L205.33999999999997,95.4271302074194L205.58800000000002,96.91000458598137L205.656,98.58799663186073L206,99.2928074002266L206.036,103.51626773178577L206.788,86.23366315662861L206.996,95.60328316688538L208.148,100.24417926371098L208.232,99.57642261683941L208.79600000000002,94.74753719568253L208.968,98.87990061938763L209.18,102.37648878991604L209.208,95.97889710962772L209.28799999999998,96.02024149894714L209.392,87.41399739682674L209.752,93.91835507750511L209.96,85.20929706096649L210.2,98.04862309992313L210.228,102.03298554569483L210.34400000000002,93.29109404981136L210.55599999999998,92.14761500060558L210.572,83.941327303648L210.62400000000002,100.40692099183798L210.68,89.60371163487434L210.77599999999998,109.85506881773472L210.824,109.11612489074469L210.952,94.55052305758L210.98,104.01368018984795L211.036,93.67842499911785L211.488,102.04496116191149L211.532,101.89998061209917L211.55599999999998,95.17231349647045L211.72,109.29799047112465L211.736,97.84145024418831L211.792,105.46727199852467L211.884,110.6858655884862L212.308,81.27652724087238L212.48000000000002,93.99202567338943L212.728,88.4544503390789L212.79199999999997,86.67813357710838L212.91199999999998,102.03332372754812L213.68800000000002,100.56590956449509L213.868,111.67118494212627L214.06,98.43957458436489L214.09199999999998,102.85604391992092L214.524,98.01857796311378L214.60399999999998,96.61824648082256L215.38,105.01963526755571L215.932,103.70118357986212L217.092,88.91584311425686L217.308,89.39270605146885L217.408,98.0199174284935L217.912,112.42171325534582L218.236,95.31041105091572L218.48,93.51052765548229L218.55599999999998,95.97947400808334L218.792,95.5322517156601L219.256,89.6262703537941L219.572,98.05723679065704L220.028,102.67634999752045L220.228,105.22518683969975L220.376,89.24645897746086L220.6,104.63354431837797L220.664,96.89649057388306L220.784,81.16694305837154L221.076,108.92712765187025L221.53199999999998,102.50089329481125L221.884,102.14303058385849L222.156,111.60182450711727L222.52,96.12168942391872L222.52800000000002,105.16394608467817L222.552,83.34564317762852L223.27999999999997,103.57506827265024L223.92,89.19597041606903L224.064,104.59132795035839L224.524,90.84654983878136L224.54,95.47172379493713L224.912,97.97229346632957L225.132,81.85044173896313L225.37199999999999,103.8731589987874L225.752,99.17086963355541L226.56799999999998,108.42158888280392L227.00400000000002,91.97039444744587L227.18,104.5088082626462L227.196,102.42124152183533L227.22799999999998,95.58935803174973L227.82,112.17792392522097L228.008,100.18881027400494L228.27200000000002,96.37196388840675L228.28,89.00981125235558L228.952,106.57648858428001L229.172,98.15444086492062L229.284,98.09866075217724L229.416,104.85553086549044L229.512,99.48222902417183L229.55200000000002,90.70076693594456L230.04399999999998,82.84320440888405L230.11599999999999,89.80605711042881L230.416,104.73244593292475L230.568,102.47805607318878L230.732,100.80874402821064L231.136,104.3465771228075L231.212,105.61780934035778L231.62800000000001,106.8534694686532L231.76000000000002,93.63437515497208L232.016,93.4163937419653L232.056,96.97362919151783L232.37199999999999,108.79779630154371L232.432,102.1693656668067L232.57999999999998,100.67873631417751L233.60799999999998,99.27618344128132L233.64,101.80386070907116L233.876,89.37710990011692L233.932,93.48172251880169L234.596,105.37375808507204L234.828,99.80911825597286L234.85600000000002,104.35752493143082L234.872,103.54043778777122L234.88799999999998,99.1769966930151L235.29999999999998,84.53453806042671L235.452,97.60049898922443L235.584,86.708172082901L235.628,106.05339751392603L236.09599999999998,102.50528965890408L236.292,91.43794369697571L236.352,94.82267987728119L236.43599999999998,100.32596622407436L236.49599999999998,111.0928641334176L236.736,82.06083063781261L236.968,105.574512116611L237.476,96.8029799759388L237.868,98.63808733224869L238.36,96.89787645637989L238.504,75.30490544438362L238.592,109.31242287904024L238.768,103.20239850133657L238.82000000000002,108.93671278655529L238.88,93.45254604518414L239.23200000000003,99.75997579097748L239.456,107.35769861191511L239.75199999999998,90.69621142745018L239.932,97.29184505343437L240.776,113.87617372721434L241.2,109.98303086310625L241.212,94.80850276350975L241.316,81.09837171435356L241.44,96.65748220682144L242.156,101.28323306143284L242.17600000000002,96.27036345005035L242.20800000000003,105.46042215824127L242.85600000000002,104.35723979771137L243.06799999999998,86.66311432421207L243.184,103.99775248765945L243.484,94.02673241496086L243.85600000000002,105.1544803082943L243.868,94.92234405875206L244.368,99.21867263317108L245.22,96.45604518055916L245.352,103.6057400405407L245.52,101.40572783350945L245.648,112.82125522196293L245.732,104.55892880260944L245.98399999999998,98.25017948448658L246.032,111.46411155164242L246.088,101.55927234143019L246.11599999999999,97.06649658083916L246.12400000000002,95.94557625055313L246.436,106.25771240144968L247.15200000000002,93.4557421952486L247.284,91.2065941542387L247.428,90.66025805473328L247.55599999999998,105.99963323026896L248,113.02075930684805L248.148,103.68190721422434L248.952,103.84622380882502L249.048,102.26250161230564L249.20000000000002,103.26465380191803L249.224,116.5079480111599L249.31199999999998,89.9609377682209L249.596,80.00579234957695L249.88,107.0406663864851L249.94,97.13864204287529L250.076,101.92497622966766L250.304,115.99655405431986L250.74800000000002,88.15871362388134L250.89999999999998,96.80443216860294L251.044,80.448306620121L251.484,102.05179442465305L252.364,102.92606082558632L253.184,99.09034256637096L253.388,98.24524600803852L253.764,101.19189743697643L254.228,97.4634491354227L254.448,103.8125382438302L254.56799999999998,100.85387141257524L254.58399999999997,108.71555511653423L254.752,101.39525745809078L254.88,97.19439563155174L254.988,94.90115132927895L255.05599999999998,100.83360039442778L255.11599999999999,97.80186307430267L255.156,102.46012911945581L255.49200000000002,109.10023697465658L256.06,102.024653673172L256.124,98.82315900921822L256.136,99.32332333922386L256.14799999999997,98.09475508332253L256.236,103.53043489903212L256.696,86.67261657118797L257.06,108.51240728795528L257.248,104.25403796881437L257.44,99.55727224051952L257.732,105.97491279989481L258.308,107.78594956547022L258.5,100.33287574350834L258.564,97.5995175987482L258.684,106.4490172341466L258.88,100.32617841660976L258.932,101.97256372123957L258.952,98.05845026671886L259.008,98.43133886158466L259.276,110.15571911633015L259.452,92.39627149701118L259.56,89.43240594863892L259.752,97.83507783710957" style="fill: none;" fill="none"></path></g></g></g></g></g></g><g transform="translate(50, 178)" clip-path="url(#clip_1)"><clipPath id="clip_1"><rect width="280" height="22"></rect></clipPath><g><g><line x1="0" y1="0" x2="0" y2="5" style="visibility: inherit;" fill="rgb(0, 0, 0)" stroke="rgb(204, 204, 204)" stroke-width="1px"></line><line x1="20" y1="0" x2="20" y2="5" style="visibility: inherit;" fill="rgb(0, 0, 0)" stroke="rgb(204, 204, 204)" stroke-width="1px"></line><line x1="40" y1="0" x2="40" y2="5" style="visibility: inherit;" fill="rgb(0, 0, 0)" stroke="rgb(204, 204, 204)" stroke-width="1px"></line><line x1="60" y1="0" x2="60" y2="5" style="visibility: inherit;" fill="rgb(0, 0, 0)" stroke="rgb(204, 204, 204)" stroke-width="1px"></line><line x1="80" y1="0" x2="80" y2="5" style="visibility: inherit;" fill="rgb(0, 0, 0)" stroke="rgb(204, 204, 204)" stroke-width="1px"></line><line x1="100" y1="0" x2="100" y2="5" style="visibility: inherit;" fill="rgb(0, 0, 0)" stroke="rgb(204, 204, 204)" stroke-width="1px"></line><line x1="120" y1="0" x2="120" y2="5" style="visibility: inherit;" fill="rgb(0, 0, 0)" stroke="rgb(204, 204, 204)" stroke-width="1px"></line><line x1="140" y1="0" x2="140" y2="5" style="visibility: inherit;" fill="rgb(0, 0, 0)" stroke="rgb(204, 204, 204)" stroke-width="1px"></line><line x1="160" y1="0" x2="160" y2="5" style="visibility: inherit;" fill="rgb(0, 0, 0)" stroke="rgb(204, 204, 204)" stroke-width="1px"></line><line x1="180" y1="0" x2="180" y2="5" style="visibility: inherit;" fill="rgb(0, 0, 0)" stroke="rgb(204, 204, 204)" stroke-width="1px"></line><line x1="200" y1="0" x2="200" y2="5" style="visibility: inherit;" fill="rgb(0, 0, 0)" stroke="rgb(204, 204, 204)" stroke-width="1px"></line><line x1="220" y1="0" x2="220" y2="5" style="visibility: inherit;" fill="rgb(0, 0, 0)" stroke="rgb(204, 204, 204)" stroke-width="1px"></line><line x1="240" y1="0" x2="240" y2="5" style="visibility: inherit;" fill="rgb(0, 0, 0)" stroke="rgb(204, 204, 204)" stroke-width="1px"></line><line x1="260" y1="0" x2="260" y2="5" style="visibility: inherit;" fill="rgb(0, 0, 0)" stroke="rgb(204, 204, 204)" stroke-width="1px"></line><line x1="280" y1="0" x2="280" y2="5" style="visibility: inherit;" fill="rgb(0, 0, 0)" stroke="rgb(204, 204, 204)" stroke-width="1px"></line></g><g transform="translate(0, 8)"><text x="0" y="0" dx="0em" dy="0.95em" style="text-anchor: middle; visibility: hidden; font-family: &quot;Helvetica Neue&quot;, sans-serif; font-size: 12px; font-weight: 200;" fill="rgb(50, 49, 63)" stroke="none" stroke-width="1px">-50k</text><text x="20" y="0" dx="0em" dy="0.95em" style="text-anchor: middle; visibility: inherit; font-family: &quot;Helvetica Neue&quot;, sans-serif; font-size: 12px; font-weight: 200;" fill="rgb(50, 49, 63)" stroke="none" stroke-width="1px">0</text><text x="40" y="0" dx="0em" dy="0.95em" style="text-anchor: middle; visibility: hidden; font-family: &quot;Helvetica Neue&quot;, sans-serif; font-size: 12px; font-weight: 200;" fill="rgb(50, 49, 63)" stroke="none" stroke-width="1px">50k</text><text x="60" y="0" dx="0em" dy="0.95em" style="text-anchor: middle; visibility: inherit; font-family: &quot;Helvetica Neue&quot;, sans-serif; font-size: 12px; font-weight: 200;" fill="rgb(50, 49, 63)" stroke="none" stroke-width="1px">100k</text><text x="80" y="0" dx="0em" dy="0.95em" style="text-anchor: middle; visibility: hidden; font-family: &quot;Helvetica Neue&quot;, sans-serif; font-size: 12px; font-weight: 200;" fill="rgb(50, 49, 63)" stroke="none" stroke-width="1px">150k</text><text x="100" y="0" dx="0em" dy="0.95em" style="text-anchor: middle; visibility: inherit; font-family: &quot;Helvetica Neue&quot;, sans-serif; font-size: 12px; font-weight: 200;" fill="rgb(50, 49, 63)" stroke="none" stroke-width="1px">200k</text><text x="120" y="0" dx="0em" dy="0.95em" style="text-anchor: middle; visibility: hidden; font-family: &quot;Helvetica Neue&quot;, sans-serif; font-size: 12px; font-weight: 200;" fill="rgb(50, 49, 63)" stroke="none" stroke-width="1px">250k</text><text x="140" y="0" dx="0em" dy="0.95em" style="text-anchor: middle; visibility: inherit; font-family: &quot;Helvetica Neue&quot;, sans-serif; font-size: 12px; font-weight: 200;" fill="rgb(50, 49, 63)" stroke="none" stroke-width="1px">300k</text><text x="160" y="0" dx="0em" dy="0.95em" style="text-anchor: middle; visibility: hidden; font-family: &quot;Helvetica Neue&quot;, sans-serif; font-size: 12px; font-weight: 200;" fill="rgb(50, 49, 63)" stroke="none" stroke-width="1px">350k</text><text x="180" y="0" dx="0em" dy="0.95em" style="text-anchor: middle; visibility: inherit; font-family: &quot;Helvetica Neue&quot;, sans-serif; font-size: 12px; font-weight: 200;" fill="rgb(50, 49, 63)" stroke="none" stroke-width="1px">400k</text><text x="200" y="0" dx="0em" dy="0.95em" style="text-anchor: middle; visibility: hidden; font-family: &quot;Helvetica Neue&quot;, sans-serif; font-size: 12px; font-weight: 200;" fill="rgb(50, 49, 63)" stroke="none" stroke-width="1px">450k</text><text x="220" y="0" dx="0em" dy="0.95em" style="text-anchor: middle; visibility: inherit; font-family: &quot;Helvetica Neue&quot;, sans-serif; font-size: 12px; font-weight: 200;" fill="rgb(50, 49, 63)" stroke="none" stroke-width="1px">500k</text><text x="240" y="0" dx="0em" dy="0.95em" style="text-anchor: middle; visibility: hidden; font-family: &quot;Helvetica Neue&quot;, sans-serif; font-size: 12px; font-weight: 200;" fill="rgb(50, 49, 63)" stroke="none" stroke-width="1px">550k</text><text x="260" y="0" dx="0em" dy="0.95em" style="text-anchor: middle; visibility: inherit; font-family: &quot;Helvetica Neue&quot;, sans-serif; font-size: 12px; font-weight: 200;" fill="rgb(50, 49, 63)" stroke="none" stroke-width="1px">600k</text><text x="280" y="0" dx="0em" dy="0.95em" style="text-anchor: middle; visibility: hidden; font-family: &quot;Helvetica Neue&quot;, sans-serif; font-size: 12px; font-weight: 200;" fill="rgb(50, 49, 63)" stroke="none" stroke-width="1px">650k</text></g><line x1="0" y1="0" x2="280" y2="0" fill="rgb(0, 0, 0)" stroke="rgb(204, 204, 204)" stroke-width="1px"></line></g></g></g></g></svg>